G04*
G04 #@! TF.GenerationSoftware,Altium Limited,Altium Designer,22.2.1 (43)*
G04*
G04 Layer_Physical_Order=2*
G04 Layer_Color=16711680*
%FSLAX25Y25*%
%MOIN*%
G70*
G04*
G04 #@! TF.SameCoordinates,1B490597-E986-4BE8-99EB-E72609ADCA5A*
G04*
G04*
G04 #@! TF.FilePolarity,Positive*
G04*
G01*
G75*
%ADD14C,0.01000*%
%ADD45C,0.12402*%
%ADD46R,0.18898X0.18898*%
%ADD47C,0.18898*%
%ADD48C,0.05906*%
%ADD49R,0.05906X0.05906*%
%ADD50C,0.05000*%
%ADD51C,0.02000*%
G36*
X355400Y-355700D02*
X0D01*
Y11900D01*
X355400D01*
Y-355700D01*
D02*
G37*
%LPC*%
G36*
X119900Y-25510D02*
Y-28500D01*
X122889D01*
X122661Y-27649D01*
X122201Y-26851D01*
X121549Y-26199D01*
X120751Y-25738D01*
X119900Y-25510D01*
D02*
G37*
G36*
X118900D02*
X118049Y-25738D01*
X117251Y-26199D01*
X116599Y-26851D01*
X116139Y-27649D01*
X115910Y-28500D01*
X118900D01*
Y-25510D01*
D02*
G37*
G36*
X122889Y-29500D02*
X119900D01*
Y-32489D01*
X120751Y-32261D01*
X121549Y-31801D01*
X122201Y-31149D01*
X122661Y-30351D01*
X122889Y-29500D01*
D02*
G37*
G36*
X118900D02*
X115910D01*
X116139Y-30351D01*
X116599Y-31149D01*
X117251Y-31801D01*
X118049Y-32261D01*
X118900Y-32489D01*
Y-29500D01*
D02*
G37*
G36*
X169700Y-36211D02*
Y-39200D01*
X172689D01*
X172461Y-38349D01*
X172001Y-37551D01*
X171349Y-36899D01*
X170551Y-36439D01*
X169700Y-36211D01*
D02*
G37*
G36*
X168700D02*
X167849Y-36439D01*
X167051Y-36899D01*
X166399Y-37551D01*
X165938Y-38349D01*
X165710Y-39200D01*
X168700D01*
Y-36211D01*
D02*
G37*
G36*
X172689Y-40200D02*
X169700D01*
Y-43189D01*
X170551Y-42961D01*
X171349Y-42501D01*
X172001Y-41849D01*
X172461Y-41051D01*
X172689Y-40200D01*
D02*
G37*
G36*
X168700D02*
X165710D01*
X165938Y-41051D01*
X166399Y-41849D01*
X167051Y-42501D01*
X167849Y-42961D01*
X168700Y-43189D01*
Y-40200D01*
D02*
G37*
G36*
X63385Y-46683D02*
X63063D01*
Y-56631D01*
X73012D01*
Y-56309D01*
X72755Y-54685D01*
X72246Y-53121D01*
X71500Y-51655D01*
X70533Y-50324D01*
X69370Y-49162D01*
X68039Y-48195D01*
X66574Y-47448D01*
X65010Y-46940D01*
X63385Y-46683D01*
D02*
G37*
G36*
X62063D02*
X61741D01*
X60116Y-46940D01*
X58552Y-47448D01*
X57087Y-48195D01*
X55756Y-49162D01*
X54593Y-50324D01*
X53626Y-51655D01*
X52880Y-53121D01*
X52372Y-54685D01*
X52114Y-56309D01*
Y-56631D01*
X62063D01*
Y-46683D01*
D02*
G37*
G36*
X291549Y-47083D02*
X271451D01*
Y-67180D01*
X291549D01*
Y-47083D01*
D02*
G37*
G36*
X73012Y-57631D02*
X63063D01*
Y-67580D01*
X63385D01*
X65010Y-67323D01*
X66574Y-66815D01*
X68039Y-66068D01*
X69370Y-65101D01*
X70533Y-63938D01*
X71500Y-62608D01*
X72246Y-61142D01*
X72755Y-59578D01*
X73012Y-57954D01*
Y-57631D01*
D02*
G37*
G36*
X62063D02*
X52114D01*
Y-57954D01*
X52372Y-59578D01*
X52880Y-61142D01*
X53626Y-62608D01*
X54593Y-63938D01*
X55756Y-65101D01*
X57087Y-66068D01*
X58552Y-66815D01*
X60116Y-67323D01*
X61741Y-67580D01*
X62063D01*
Y-57631D01*
D02*
G37*
G36*
X176508Y-63600D02*
X175692D01*
X174903Y-63811D01*
X174197Y-64219D01*
X173619Y-64797D01*
X173211Y-65503D01*
X173000Y-66292D01*
Y-67108D01*
X173211Y-67897D01*
X173619Y-68603D01*
X174197Y-69181D01*
X174903Y-69589D01*
X174978Y-69609D01*
Y-70800D01*
X174978Y-70800D01*
X175064Y-71229D01*
X175307Y-71593D01*
X180219Y-76505D01*
X179960Y-76953D01*
X179800Y-76911D01*
Y-79900D01*
X182790D01*
X182747Y-79740D01*
X183195Y-79481D01*
X202407Y-98693D01*
X202407Y-98693D01*
X202771Y-98936D01*
X203200Y-99022D01*
X203200Y-99022D01*
X271191D01*
X271211Y-99097D01*
X271619Y-99803D01*
X272197Y-100381D01*
X272903Y-100789D01*
X273692Y-101000D01*
X274508D01*
X275297Y-100789D01*
X276003Y-100381D01*
X276581Y-99803D01*
X276989Y-99097D01*
X277200Y-98308D01*
Y-97492D01*
X276989Y-96703D01*
X276581Y-95997D01*
X276003Y-95419D01*
X275297Y-95011D01*
X274508Y-94800D01*
X273692D01*
X272903Y-95011D01*
X272197Y-95419D01*
X271619Y-95997D01*
X271211Y-96703D01*
X271191Y-96778D01*
X203665D01*
X198944Y-92058D01*
X199203Y-91610D01*
X199500Y-91689D01*
Y-88700D01*
X196511D01*
X196590Y-88997D01*
X196142Y-89256D01*
X177222Y-70335D01*
Y-69609D01*
X177297Y-69589D01*
X178003Y-69181D01*
X178581Y-68603D01*
X178989Y-67897D01*
X179200Y-67108D01*
Y-66292D01*
X178989Y-65503D01*
X178581Y-64797D01*
X178003Y-64219D01*
X177297Y-63811D01*
X176508Y-63600D01*
D02*
G37*
G36*
X178800Y-76911D02*
X177949Y-77139D01*
X177151Y-77599D01*
X176499Y-78251D01*
X176039Y-79049D01*
X175811Y-79900D01*
X178800D01*
Y-76911D01*
D02*
G37*
G36*
X182790Y-80900D02*
X179800D01*
Y-83890D01*
X180651Y-83662D01*
X181449Y-83201D01*
X182101Y-82549D01*
X182562Y-81751D01*
X182790Y-80900D01*
D02*
G37*
G36*
X178800D02*
X175811D01*
X176039Y-81751D01*
X176499Y-82549D01*
X177151Y-83201D01*
X177949Y-83662D01*
X178800Y-83890D01*
Y-80900D01*
D02*
G37*
G36*
X200500Y-84711D02*
Y-87700D01*
X203489D01*
X203261Y-86849D01*
X202801Y-86051D01*
X202149Y-85399D01*
X201351Y-84939D01*
X200500Y-84711D01*
D02*
G37*
G36*
X199500D02*
X198649Y-84939D01*
X197851Y-85399D01*
X197199Y-86051D01*
X196739Y-86849D01*
X196511Y-87700D01*
X199500D01*
Y-84711D01*
D02*
G37*
G36*
X203489Y-88700D02*
X200500D01*
Y-91689D01*
X201351Y-91461D01*
X202149Y-91001D01*
X202801Y-90349D01*
X203261Y-89551D01*
X203489Y-88700D01*
D02*
G37*
G36*
X129400Y-101011D02*
Y-104000D01*
X132389D01*
X132161Y-103149D01*
X131701Y-102351D01*
X131049Y-101699D01*
X130251Y-101239D01*
X129400Y-101011D01*
D02*
G37*
G36*
X128400D02*
X127549Y-101239D01*
X126751Y-101699D01*
X126099Y-102351D01*
X125638Y-103149D01*
X125410Y-104000D01*
X128400D01*
Y-101011D01*
D02*
G37*
G36*
X132389Y-105000D02*
X129400D01*
Y-107990D01*
X130251Y-107762D01*
X131049Y-107301D01*
X131701Y-106649D01*
X132161Y-105851D01*
X132389Y-105000D01*
D02*
G37*
G36*
X128400D02*
X125410D01*
X125638Y-105851D01*
X126099Y-106649D01*
X126751Y-107301D01*
X127549Y-107762D01*
X128400Y-107990D01*
Y-105000D01*
D02*
G37*
G36*
X86000Y-123211D02*
Y-126200D01*
X88990D01*
X88762Y-125349D01*
X88301Y-124551D01*
X87649Y-123899D01*
X86851Y-123439D01*
X86000Y-123211D01*
D02*
G37*
G36*
X85000D02*
X84149Y-123439D01*
X83351Y-123899D01*
X82699Y-124551D01*
X82239Y-125349D01*
X82011Y-126200D01*
X85000D01*
Y-123211D01*
D02*
G37*
G36*
X88990Y-127200D02*
X86000D01*
Y-130190D01*
X86851Y-129962D01*
X87649Y-129501D01*
X88301Y-128849D01*
X88762Y-128051D01*
X88990Y-127200D01*
D02*
G37*
G36*
X85000D02*
X82011D01*
X82239Y-128051D01*
X82699Y-128849D01*
X83351Y-129501D01*
X84149Y-129962D01*
X85000Y-130190D01*
Y-127200D01*
D02*
G37*
G36*
X63385Y-122667D02*
X63063D01*
Y-132616D01*
X73012D01*
Y-132293D01*
X72755Y-130669D01*
X72246Y-129105D01*
X71500Y-127639D01*
X70533Y-126309D01*
X69370Y-125146D01*
X68039Y-124179D01*
X66574Y-123432D01*
X65010Y-122924D01*
X63385Y-122667D01*
D02*
G37*
G36*
X62063D02*
X61741D01*
X60116Y-122924D01*
X58552Y-123432D01*
X57087Y-124179D01*
X55756Y-125146D01*
X54593Y-126309D01*
X53626Y-127639D01*
X52880Y-129105D01*
X52372Y-130669D01*
X52114Y-132293D01*
Y-132616D01*
X62063D01*
Y-122667D01*
D02*
G37*
G36*
X218200Y-130611D02*
Y-133600D01*
X221189D01*
X220961Y-132749D01*
X220501Y-131951D01*
X219849Y-131299D01*
X219051Y-130839D01*
X218200Y-130611D01*
D02*
G37*
G36*
X217200D02*
X216349Y-130839D01*
X215551Y-131299D01*
X214899Y-131951D01*
X214439Y-132749D01*
X214211Y-133600D01*
X217200D01*
Y-130611D01*
D02*
G37*
G36*
X221189Y-134600D02*
X218200D01*
Y-137590D01*
X219051Y-137362D01*
X219849Y-136901D01*
X220501Y-136249D01*
X220961Y-135451D01*
X221189Y-134600D01*
D02*
G37*
G36*
X217200D02*
X214211D01*
X214439Y-135451D01*
X214899Y-136249D01*
X215551Y-136901D01*
X216349Y-137362D01*
X217200Y-137590D01*
Y-134600D01*
D02*
G37*
G36*
X282490Y-123067D02*
X280510D01*
X278569Y-123453D01*
X276740Y-124211D01*
X275094Y-125310D01*
X273695Y-126710D01*
X272595Y-128356D01*
X271837Y-130185D01*
X271451Y-132126D01*
Y-134106D01*
X271837Y-136047D01*
X272595Y-137876D01*
X273695Y-139522D01*
X275094Y-140921D01*
X276740Y-142021D01*
X278569Y-142778D01*
X280510Y-143165D01*
X282490D01*
X284431Y-142778D01*
X286260Y-142021D01*
X287906Y-140921D01*
X289305Y-139522D01*
X290405Y-137876D01*
X291163Y-136047D01*
X291549Y-134106D01*
Y-132126D01*
X291163Y-130185D01*
X290405Y-128356D01*
X289305Y-126710D01*
X287906Y-125310D01*
X286260Y-124211D01*
X284431Y-123453D01*
X282490Y-123067D01*
D02*
G37*
G36*
X73012Y-133616D02*
X63063D01*
Y-143565D01*
X63385D01*
X65010Y-143307D01*
X66574Y-142799D01*
X68039Y-142052D01*
X69370Y-141086D01*
X70533Y-139923D01*
X71500Y-138592D01*
X72246Y-137127D01*
X72755Y-135563D01*
X73012Y-133938D01*
Y-133616D01*
D02*
G37*
G36*
X62063D02*
X52114D01*
Y-133938D01*
X52372Y-135563D01*
X52880Y-137127D01*
X53626Y-138592D01*
X54593Y-139923D01*
X55756Y-141086D01*
X57087Y-142052D01*
X58552Y-142799D01*
X60116Y-143307D01*
X61741Y-143565D01*
X62063D01*
Y-133616D01*
D02*
G37*
G36*
X230400Y-140478D02*
X230400Y-140478D01*
X94286D01*
X93857Y-140564D01*
X93493Y-140807D01*
X93493Y-140807D01*
X92907Y-141393D01*
X92664Y-141757D01*
X92578Y-142186D01*
X92578Y-142186D01*
Y-162000D01*
X92578Y-162000D01*
X92664Y-162429D01*
X92907Y-162793D01*
X95050Y-164936D01*
X95011Y-165003D01*
X94800Y-165792D01*
Y-166608D01*
X95011Y-167397D01*
X95419Y-168103D01*
X95997Y-168681D01*
X96703Y-169089D01*
X97492Y-169300D01*
X98308D01*
X99097Y-169089D01*
X99803Y-168681D01*
X100197Y-168287D01*
X100621Y-168570D01*
X100561Y-168716D01*
X100299Y-170030D01*
Y-171370D01*
X100561Y-172684D01*
X101073Y-173921D01*
X101818Y-175035D01*
X102765Y-175982D01*
X103879Y-176727D01*
X105116Y-177239D01*
X106430Y-177501D01*
X107770D01*
X109084Y-177239D01*
X110321Y-176727D01*
X111435Y-175982D01*
X112382Y-175035D01*
X113127Y-173921D01*
X113639Y-172684D01*
X113901Y-171370D01*
Y-170030D01*
X113639Y-168716D01*
X113127Y-167479D01*
X112382Y-166365D01*
X111435Y-165418D01*
X110321Y-164673D01*
X109084Y-164161D01*
X107770Y-163899D01*
X106430D01*
X105116Y-164161D01*
X103879Y-164673D01*
X102765Y-165418D01*
X101818Y-166365D01*
X101426Y-166951D01*
X100964Y-166742D01*
X101000Y-166608D01*
Y-165792D01*
X100789Y-165003D01*
X100381Y-164297D01*
X99803Y-163719D01*
X99097Y-163311D01*
X98308Y-163100D01*
X97492D01*
X96703Y-163311D01*
X96636Y-163350D01*
X94822Y-161535D01*
Y-142722D01*
X229935D01*
X242950Y-155736D01*
X242911Y-155803D01*
X242700Y-156592D01*
Y-157408D01*
X242911Y-158197D01*
X243319Y-158903D01*
X243897Y-159481D01*
X244603Y-159889D01*
X245392Y-160100D01*
X246208D01*
X246997Y-159889D01*
X247703Y-159481D01*
X248281Y-158903D01*
X248689Y-158197D01*
X248900Y-157408D01*
Y-156592D01*
X248689Y-155803D01*
X248281Y-155097D01*
X247703Y-154519D01*
X246997Y-154111D01*
X246208Y-153900D01*
X245392D01*
X244603Y-154111D01*
X244536Y-154150D01*
X231193Y-140807D01*
X231193Y-140807D01*
X230829Y-140564D01*
X230400Y-140478D01*
D02*
G37*
G36*
X57770Y-153899D02*
X56430D01*
X55116Y-154161D01*
X53879Y-154673D01*
X52765Y-155418D01*
X51818Y-156365D01*
X51073Y-157479D01*
X50561Y-158716D01*
X50299Y-160030D01*
Y-161370D01*
X50561Y-162684D01*
X51073Y-163921D01*
X51818Y-165035D01*
X52765Y-165982D01*
X53879Y-166727D01*
X55116Y-167239D01*
X56430Y-167501D01*
X57770D01*
X59084Y-167239D01*
X60321Y-166727D01*
X61435Y-165982D01*
X62383Y-165035D01*
X63127Y-163921D01*
X63639Y-162684D01*
X63901Y-161370D01*
Y-160030D01*
X63639Y-158716D01*
X63127Y-157479D01*
X62383Y-156365D01*
X61435Y-155418D01*
X60321Y-154673D01*
X59084Y-154161D01*
X57770Y-153899D01*
D02*
G37*
G36*
X165600Y-165311D02*
Y-168300D01*
X168589D01*
X168361Y-167449D01*
X167901Y-166651D01*
X167249Y-165999D01*
X166451Y-165539D01*
X165600Y-165311D01*
D02*
G37*
G36*
X164600D02*
X163749Y-165539D01*
X162951Y-165999D01*
X162299Y-166651D01*
X161838Y-167449D01*
X161610Y-168300D01*
X164600D01*
Y-165311D01*
D02*
G37*
G36*
X168589Y-169300D02*
X165600D01*
Y-172290D01*
X166451Y-172062D01*
X167249Y-171601D01*
X167901Y-170949D01*
X168361Y-170151D01*
X168589Y-169300D01*
D02*
G37*
G36*
X164600D02*
X161610D01*
X161838Y-170151D01*
X162299Y-170949D01*
X162951Y-171601D01*
X163749Y-172062D01*
X164600Y-172290D01*
Y-169300D01*
D02*
G37*
G36*
X57770Y-173899D02*
X56430D01*
X55116Y-174161D01*
X53879Y-174673D01*
X52765Y-175417D01*
X51818Y-176365D01*
X51073Y-177479D01*
X50561Y-178716D01*
X50299Y-180030D01*
Y-181370D01*
X50561Y-182684D01*
X51073Y-183921D01*
X51818Y-185035D01*
X52765Y-185983D01*
X53879Y-186727D01*
X55116Y-187239D01*
X56430Y-187501D01*
X57770D01*
X59084Y-187239D01*
X60321Y-186727D01*
X61435Y-185983D01*
X62383Y-185035D01*
X63127Y-183921D01*
X63639Y-182684D01*
X63901Y-181370D01*
Y-180030D01*
X63639Y-178716D01*
X63127Y-177479D01*
X62383Y-176365D01*
X61435Y-175417D01*
X60321Y-174673D01*
X59084Y-174161D01*
X57770Y-173899D01*
D02*
G37*
G36*
X107770Y-182403D02*
X106430D01*
X105116Y-182665D01*
X103879Y-183177D01*
X102765Y-183921D01*
X101818Y-184869D01*
X101073Y-185983D01*
X100561Y-187220D01*
X100299Y-188534D01*
Y-189874D01*
X100561Y-191188D01*
X101073Y-192425D01*
X101818Y-193539D01*
X102765Y-194486D01*
X103879Y-195231D01*
X105116Y-195743D01*
X106430Y-196005D01*
X107770D01*
X109084Y-195743D01*
X110321Y-195231D01*
X111435Y-194486D01*
X112382Y-193539D01*
X113127Y-192425D01*
X113639Y-191188D01*
X113901Y-189874D01*
Y-188534D01*
X113639Y-187220D01*
X113127Y-185983D01*
X112382Y-184869D01*
X111435Y-183921D01*
X110321Y-183177D01*
X109084Y-182665D01*
X107770Y-182403D01*
D02*
G37*
G36*
X282490Y-199051D02*
X280510D01*
X278569Y-199437D01*
X276740Y-200195D01*
X275094Y-201295D01*
X273695Y-202694D01*
X272595Y-204340D01*
X271837Y-206169D01*
X271451Y-208110D01*
Y-210090D01*
X271837Y-212031D01*
X272595Y-213860D01*
X273695Y-215506D01*
X275094Y-216905D01*
X276740Y-218005D01*
X278569Y-218763D01*
X280510Y-219149D01*
X282490D01*
X284431Y-218763D01*
X286260Y-218005D01*
X287906Y-216905D01*
X289305Y-215506D01*
X290405Y-213860D01*
X291163Y-212031D01*
X291549Y-210090D01*
Y-208110D01*
X291163Y-206169D01*
X290405Y-204340D01*
X289305Y-202694D01*
X287906Y-201295D01*
X286260Y-200195D01*
X284431Y-199437D01*
X282490Y-199051D01*
D02*
G37*
G36*
X63553D02*
X61573D01*
X59632Y-199437D01*
X57803Y-200195D01*
X56157Y-201295D01*
X54758Y-202694D01*
X53658Y-204340D01*
X52900Y-206169D01*
X52514Y-208110D01*
Y-210090D01*
X52900Y-212031D01*
X53658Y-213860D01*
X54758Y-215506D01*
X56157Y-216905D01*
X57803Y-218005D01*
X59632Y-218763D01*
X61573Y-219149D01*
X63553D01*
X65494Y-218763D01*
X67323Y-218005D01*
X68969Y-216905D01*
X70368Y-215506D01*
X71468Y-213860D01*
X72226Y-212031D01*
X72612Y-210090D01*
Y-208110D01*
X72226Y-206169D01*
X71468Y-204340D01*
X70368Y-202694D01*
X68969Y-201295D01*
X67323Y-200195D01*
X65494Y-199437D01*
X63553Y-199051D01*
D02*
G37*
G36*
X186000Y-219611D02*
Y-222600D01*
X188989D01*
X188761Y-221749D01*
X188301Y-220951D01*
X187649Y-220299D01*
X186851Y-219839D01*
X186000Y-219611D01*
D02*
G37*
G36*
X185000D02*
X184149Y-219839D01*
X183351Y-220299D01*
X182699Y-220951D01*
X182238Y-221749D01*
X182010Y-222600D01*
X185000D01*
Y-219611D01*
D02*
G37*
G36*
X12653Y-222047D02*
X9200D01*
Y-225500D01*
X12653D01*
Y-222047D01*
D02*
G37*
G36*
X8200D02*
X4747D01*
Y-225500D01*
X8200D01*
Y-222047D01*
D02*
G37*
G36*
X188989Y-223600D02*
X186000D01*
Y-226589D01*
X186851Y-226361D01*
X187649Y-225901D01*
X188301Y-225249D01*
X188761Y-224451D01*
X188989Y-223600D01*
D02*
G37*
G36*
X185000D02*
X182010D01*
X182238Y-224451D01*
X182699Y-225249D01*
X183351Y-225901D01*
X184149Y-226361D01*
X185000Y-226589D01*
Y-223600D01*
D02*
G37*
G36*
X12653Y-226500D02*
X9200D01*
Y-229953D01*
X12653D01*
Y-226500D01*
D02*
G37*
G36*
X8200D02*
X4747D01*
Y-229953D01*
X8200D01*
Y-226500D01*
D02*
G37*
G36*
X207100Y-244811D02*
Y-247800D01*
X210089D01*
X209861Y-246949D01*
X209401Y-246151D01*
X208749Y-245499D01*
X207951Y-245039D01*
X207100Y-244811D01*
D02*
G37*
G36*
X206100D02*
X205249Y-245039D01*
X204451Y-245499D01*
X203799Y-246151D01*
X203339Y-246949D01*
X203111Y-247800D01*
X206100D01*
Y-244811D01*
D02*
G37*
G36*
X210089Y-248800D02*
X207100D01*
Y-251789D01*
X207951Y-251561D01*
X208749Y-251101D01*
X209401Y-250449D01*
X209861Y-249651D01*
X210089Y-248800D01*
D02*
G37*
G36*
X206100D02*
X203111D01*
X203339Y-249651D01*
X203799Y-250449D01*
X204451Y-251101D01*
X205249Y-251561D01*
X206100Y-251789D01*
Y-248800D01*
D02*
G37*
G36*
X9168Y-232447D02*
X8232D01*
X7329Y-232689D01*
X6519Y-233157D01*
X5857Y-233819D01*
X5389Y-234629D01*
X5147Y-235532D01*
Y-236468D01*
X5389Y-237371D01*
X5857Y-238181D01*
X6519Y-238843D01*
X7329Y-239311D01*
X8232Y-239553D01*
X9168D01*
X9781Y-239388D01*
X29233Y-258840D01*
X29762Y-259194D01*
X30387Y-259318D01*
X74511D01*
X93681Y-278488D01*
X93600Y-278792D01*
Y-279608D01*
X93811Y-280397D01*
X94219Y-281103D01*
X94797Y-281681D01*
X95503Y-282089D01*
X96292Y-282300D01*
X97108D01*
X97897Y-282089D01*
X98603Y-281681D01*
X99181Y-281103D01*
X99338Y-280831D01*
X118200D01*
X118824Y-280707D01*
X119353Y-280353D01*
X139788Y-259919D01*
X140092Y-260000D01*
X140908D01*
X141674Y-259795D01*
X141932Y-260053D01*
X142462Y-260407D01*
X143086Y-260531D01*
X155615D01*
X155749Y-261031D01*
X155597Y-261119D01*
X155019Y-261697D01*
X154611Y-262403D01*
X154400Y-263192D01*
Y-264008D01*
X154611Y-264797D01*
X155019Y-265503D01*
X155597Y-266081D01*
X156303Y-266489D01*
X156378Y-266509D01*
Y-274735D01*
X153564Y-277550D01*
X153497Y-277511D01*
X152708Y-277300D01*
X151892D01*
X151103Y-277511D01*
X150397Y-277919D01*
X149819Y-278497D01*
X149411Y-279203D01*
X149200Y-279992D01*
Y-280808D01*
X149411Y-281597D01*
X149819Y-282303D01*
X150397Y-282881D01*
X151103Y-283289D01*
X151892Y-283500D01*
X152708D01*
X153497Y-283289D01*
X154203Y-282881D01*
X154781Y-282303D01*
X155189Y-281597D01*
X155400Y-280808D01*
Y-279992D01*
X155189Y-279203D01*
X155150Y-279136D01*
X158293Y-275993D01*
X158536Y-275629D01*
X158622Y-275200D01*
X158622Y-275200D01*
Y-266509D01*
X158697Y-266489D01*
X159403Y-266081D01*
X159981Y-265503D01*
X160389Y-264797D01*
X160600Y-264008D01*
Y-263192D01*
X160389Y-262403D01*
X159981Y-261697D01*
X159403Y-261119D01*
X159251Y-261031D01*
X159385Y-260531D01*
X211800D01*
X212424Y-260407D01*
X212953Y-260053D01*
X219488Y-253519D01*
X219792Y-253600D01*
X220608D01*
X221397Y-253389D01*
X222103Y-252981D01*
X222681Y-252403D01*
X223089Y-251697D01*
X223300Y-250908D01*
Y-250092D01*
X223089Y-249303D01*
X222681Y-248597D01*
X222103Y-248019D01*
X221397Y-247611D01*
X220608Y-247400D01*
X219792D01*
X219003Y-247611D01*
X218297Y-248019D01*
X217719Y-248597D01*
X217311Y-249303D01*
X217100Y-250092D01*
Y-250908D01*
X217181Y-251212D01*
X211124Y-257269D01*
X143762D01*
X143600Y-257107D01*
Y-256492D01*
X143389Y-255703D01*
X142981Y-254997D01*
X142403Y-254419D01*
X141697Y-254011D01*
X140908Y-253800D01*
X140092D01*
X139303Y-254011D01*
X138597Y-254419D01*
X138019Y-254997D01*
X137611Y-255703D01*
X137400Y-256492D01*
Y-257308D01*
X137481Y-257612D01*
X117524Y-277569D01*
X99338D01*
X99181Y-277297D01*
X98603Y-276719D01*
X97897Y-276311D01*
X97108Y-276100D01*
X96292D01*
X95988Y-276181D01*
X76340Y-256533D01*
X75811Y-256179D01*
X75187Y-256055D01*
X31062D01*
X12088Y-237081D01*
X12253Y-236468D01*
Y-235532D01*
X12011Y-234629D01*
X11543Y-233819D01*
X10881Y-233157D01*
X10071Y-232689D01*
X9168Y-232447D01*
D02*
G37*
G36*
X107770Y-145395D02*
X106430D01*
X105116Y-145657D01*
X103879Y-146169D01*
X102765Y-146914D01*
X101818Y-147861D01*
X101073Y-148975D01*
X100561Y-150212D01*
X100299Y-151526D01*
Y-152866D01*
X100561Y-154180D01*
X101073Y-155418D01*
X101818Y-156531D01*
X102765Y-157479D01*
X103879Y-158223D01*
X105116Y-158736D01*
X106430Y-158997D01*
X107770D01*
X109084Y-158736D01*
X110321Y-158223D01*
X111052Y-157735D01*
X115911Y-162593D01*
X115911Y-162593D01*
X116275Y-162836D01*
X116704Y-162922D01*
X116704Y-162922D01*
X132091D01*
X132111Y-162997D01*
X132519Y-163703D01*
X133097Y-164281D01*
X133803Y-164689D01*
X133878Y-164709D01*
Y-245935D01*
X118864Y-260950D01*
X118797Y-260911D01*
X118008Y-260700D01*
X117192D01*
X116403Y-260911D01*
X115697Y-261319D01*
X115119Y-261897D01*
X114711Y-262603D01*
X114500Y-263392D01*
Y-264208D01*
X114711Y-264997D01*
X115119Y-265703D01*
X115697Y-266281D01*
X116403Y-266689D01*
X117192Y-266900D01*
X118008D01*
X118797Y-266689D01*
X119503Y-266281D01*
X120081Y-265703D01*
X120489Y-264997D01*
X120700Y-264208D01*
Y-263392D01*
X120489Y-262603D01*
X120450Y-262536D01*
X135793Y-247193D01*
X135793Y-247193D01*
X136036Y-246829D01*
X136122Y-246400D01*
X136122Y-246400D01*
Y-164709D01*
X136197Y-164689D01*
X136903Y-164281D01*
X137481Y-163703D01*
X137889Y-162997D01*
X138100Y-162208D01*
Y-161392D01*
X137889Y-160603D01*
X137481Y-159897D01*
X136903Y-159319D01*
X136197Y-158911D01*
X135408Y-158700D01*
X134592D01*
X133803Y-158911D01*
X133097Y-159319D01*
X132519Y-159897D01*
X132111Y-160603D01*
X132091Y-160678D01*
X117168D01*
X112638Y-156148D01*
X113127Y-155418D01*
X113639Y-154180D01*
X113901Y-152866D01*
Y-151526D01*
X113639Y-150212D01*
X113127Y-148975D01*
X112382Y-147861D01*
X111435Y-146914D01*
X110321Y-146169D01*
X109084Y-145657D01*
X107770Y-145395D01*
D02*
G37*
G36*
X204008Y-262900D02*
X203192D01*
X202403Y-263111D01*
X201697Y-263519D01*
X201119Y-264097D01*
X200711Y-264803D01*
X200500Y-265592D01*
Y-266408D01*
X200711Y-267197D01*
X200750Y-267264D01*
X183135Y-284878D01*
X172409D01*
X172389Y-284803D01*
X171981Y-284097D01*
X171403Y-283519D01*
X170697Y-283111D01*
X169908Y-282900D01*
X169092D01*
X168303Y-283111D01*
X167597Y-283519D01*
X167019Y-284097D01*
X166611Y-284803D01*
X166400Y-285592D01*
Y-286408D01*
X166611Y-287197D01*
X167019Y-287903D01*
X167597Y-288481D01*
X168303Y-288889D01*
X169092Y-289100D01*
X169908D01*
X170697Y-288889D01*
X171403Y-288481D01*
X171981Y-287903D01*
X172389Y-287197D01*
X172409Y-287122D01*
X183600D01*
X183600Y-287122D01*
X184029Y-287036D01*
X184393Y-286793D01*
X202336Y-268850D01*
X202403Y-268889D01*
X203192Y-269100D01*
X204008D01*
X204797Y-268889D01*
X205503Y-268481D01*
X206081Y-267903D01*
X206489Y-267197D01*
X206700Y-266408D01*
Y-265592D01*
X206489Y-264803D01*
X206081Y-264097D01*
X205503Y-263519D01*
X204797Y-263111D01*
X204008Y-262900D01*
D02*
G37*
G36*
X282490Y-275035D02*
X280510D01*
X278569Y-275422D01*
X276740Y-276179D01*
X275094Y-277279D01*
X273695Y-278678D01*
X272595Y-280324D01*
X271837Y-282153D01*
X271451Y-284095D01*
Y-286074D01*
X271837Y-288015D01*
X272595Y-289844D01*
X273695Y-291490D01*
X275094Y-292890D01*
X276740Y-293989D01*
X278569Y-294747D01*
X280510Y-295133D01*
X282490D01*
X284431Y-294747D01*
X286260Y-293989D01*
X287906Y-292890D01*
X289305Y-291490D01*
X290405Y-289844D01*
X291163Y-288015D01*
X291549Y-286074D01*
Y-284095D01*
X291163Y-282153D01*
X290405Y-280324D01*
X289305Y-278678D01*
X287906Y-277279D01*
X286260Y-276179D01*
X284431Y-275422D01*
X282490Y-275035D01*
D02*
G37*
G36*
X63553D02*
X61573D01*
X59632Y-275422D01*
X57803Y-276179D01*
X56157Y-277279D01*
X54758Y-278678D01*
X53658Y-280324D01*
X52900Y-282153D01*
X52514Y-284095D01*
Y-286074D01*
X52900Y-288015D01*
X53658Y-289844D01*
X54758Y-291490D01*
X56157Y-292890D01*
X57803Y-293989D01*
X59632Y-294747D01*
X61573Y-295133D01*
X63553D01*
X65494Y-294747D01*
X67323Y-293989D01*
X68969Y-292890D01*
X70368Y-291490D01*
X71468Y-289844D01*
X72226Y-288015D01*
X72612Y-286074D01*
Y-284095D01*
X72226Y-282153D01*
X71468Y-280324D01*
X70368Y-278678D01*
X68969Y-277279D01*
X67323Y-276179D01*
X65494Y-275422D01*
X63553Y-275035D01*
D02*
G37*
%LPD*%
D14*
X176100Y-70800D02*
X203200Y-97900D01*
X274100D01*
X176100Y-70800D02*
Y-66700D01*
X93700Y-162000D02*
Y-142186D01*
X94286Y-141600D02*
X230400D01*
X245800Y-157000D01*
X93700Y-142186D02*
X94286Y-141600D01*
X93700Y-162000D02*
X97900Y-166200D01*
X117600Y-263800D02*
X135000Y-246400D01*
Y-161800D01*
X107100Y-152196D02*
X116704Y-161800D01*
X135000D01*
X157500Y-275200D02*
Y-263600D01*
X152300Y-280400D02*
X157500Y-275200D01*
X169500Y-286000D02*
X183600D01*
X203600Y-266000D01*
D45*
X107100Y-189204D02*
D03*
Y-170700D02*
D03*
Y-152196D02*
D03*
X57100Y-180700D02*
D03*
Y-160700D02*
D03*
D46*
X281500Y-57131D02*
D03*
D47*
Y-133116D02*
D03*
Y-209100D02*
D03*
Y-285084D02*
D03*
X62563D02*
D03*
Y-209100D02*
D03*
Y-133116D02*
D03*
Y-57131D02*
D03*
D48*
X8700Y-236000D02*
D03*
D49*
Y-226000D02*
D03*
D50*
X217700Y-134100D02*
D03*
X274100Y-97900D02*
D03*
X176100Y-66700D02*
D03*
X220200Y-250500D02*
D03*
X165100Y-168800D02*
D03*
X169200Y-39700D02*
D03*
X119400Y-29000D02*
D03*
X200000Y-88200D02*
D03*
X179300Y-80400D02*
D03*
X128900Y-104500D02*
D03*
X97900Y-166200D02*
D03*
X85500Y-126700D02*
D03*
X117600Y-263800D02*
D03*
X135000Y-161800D02*
D03*
X245800Y-157000D02*
D03*
X96700Y-279200D02*
D03*
X140500Y-256900D02*
D03*
X185500Y-223100D02*
D03*
X206600Y-248300D02*
D03*
X157500Y-263600D02*
D03*
X169500Y-286000D02*
D03*
X203600Y-266000D02*
D03*
X152300Y-280400D02*
D03*
D51*
X140500Y-256900D02*
X141086D01*
X96700Y-279200D02*
X118200D01*
X141086Y-256900D02*
X143086Y-258900D01*
X75187Y-257687D02*
X96700Y-279200D01*
X118200D02*
X140500Y-256900D01*
X30387Y-257687D02*
X75187D01*
X211800Y-258900D02*
X220200Y-250500D01*
X143086Y-258900D02*
X211800D01*
X8700Y-236000D02*
X30387Y-257687D01*
M02*
