G04*
G04 #@! TF.GenerationSoftware,Altium Limited,Altium Designer,22.2.1 (43)*
G04*
G04 Layer_Color=8388736*
%FSLAX25Y25*%
%MOIN*%
G70*
G04*
G04 #@! TF.SameCoordinates,A16DD8FB-6A98-4827-84FE-9053A31DE0B6*
G04*
G04*
G04 #@! TF.FilePolarity,Negative*
G04*
G01*
G75*
%ADD16R,0.42200X0.40800*%
%ADD17R,0.03800X0.13800*%
%ADD25R,0.04375X0.02365*%
%ADD26R,0.06500X0.08600*%
%ADD29R,0.07493X0.05131*%
%ADD30R,0.04343X0.03556*%
%ADD31R,0.04147X0.09461*%
%ADD32R,0.02670X0.01981*%
%ADD33R,0.06804X0.03359*%
%ADD34R,0.11469X0.14186*%
%ADD35R,0.05131X0.07493*%
%ADD36R,0.03556X0.04343*%
%ADD37R,0.04737X0.06312*%
%ADD38R,0.06902X0.03359*%
%ADD39C,0.13202*%
%ADD40R,0.19698X0.19698*%
%ADD41C,0.19698*%
%ADD42C,0.06706*%
%ADD43R,0.06706X0.06706*%
%ADD44C,0.05800*%
D16*
X246700Y-72800D02*
D03*
D17*
X260086Y-110800D02*
D03*
X253393D02*
D03*
X246700D02*
D03*
X240007D02*
D03*
X233314D02*
D03*
D25*
X161691Y-177400D02*
D03*
X148109D02*
D03*
D26*
X259800Y-153900D02*
D03*
Y-167300D02*
D03*
D29*
X206300Y-137630D02*
D03*
Y-127000D02*
D03*
X228400Y-126500D02*
D03*
Y-137130D02*
D03*
X250900Y-137415D02*
D03*
Y-126785D02*
D03*
X120977Y-97015D02*
D03*
Y-86385D02*
D03*
X207600Y-105515D02*
D03*
Y-94885D02*
D03*
X190000Y-104915D02*
D03*
Y-94285D02*
D03*
X156700Y-94085D02*
D03*
Y-104715D02*
D03*
D30*
X83400Y-56700D02*
D03*
Y-62606D02*
D03*
X83400Y-79094D02*
D03*
Y-85000D02*
D03*
X133500Y-261011D02*
D03*
Y-255105D02*
D03*
X192400Y-260447D02*
D03*
Y-266353D02*
D03*
X210000Y-255105D02*
D03*
Y-261011D02*
D03*
X192500Y-255105D02*
D03*
Y-249200D02*
D03*
D31*
X169765Y-100100D02*
D03*
X177835D02*
D03*
D32*
X185900Y-71800D02*
D03*
Y-73769D02*
D03*
Y-75737D02*
D03*
X192498D02*
D03*
Y-73769D02*
D03*
Y-71800D02*
D03*
D33*
X120977Y-66100D02*
D03*
Y-61100D02*
D03*
Y-56100D02*
D03*
Y-51100D02*
D03*
X99623D02*
D03*
Y-56100D02*
D03*
Y-61100D02*
D03*
Y-66100D02*
D03*
D34*
X110300Y-58600D02*
D03*
D35*
X87330Y-40000D02*
D03*
X76700D02*
D03*
X158215Y-38000D02*
D03*
X147585D02*
D03*
X110300Y-31200D02*
D03*
X99670D02*
D03*
X134685Y-77600D02*
D03*
X145315D02*
D03*
X155785D02*
D03*
X166415D02*
D03*
X177000Y-228600D02*
D03*
X166370D02*
D03*
X166415Y-56700D02*
D03*
X155785D02*
D03*
D36*
X185847Y-56100D02*
D03*
X191753D02*
D03*
X203047Y-51700D02*
D03*
X208953D02*
D03*
X208906Y-66900D02*
D03*
X203000D02*
D03*
X194905Y-241900D02*
D03*
X189000D02*
D03*
X124047Y-240700D02*
D03*
X129953D02*
D03*
X194905Y-272500D02*
D03*
X189000D02*
D03*
X132395D02*
D03*
X138300D02*
D03*
X139753Y-152500D02*
D03*
X133847D02*
D03*
X138153Y-266900D02*
D03*
X132247D02*
D03*
X117100Y-255105D02*
D03*
X111195D02*
D03*
X163206Y-286100D02*
D03*
X157300D02*
D03*
D37*
X217557Y-242500D02*
D03*
X224643D02*
D03*
X100543Y-239600D02*
D03*
X93457D02*
D03*
X217557Y-272500D02*
D03*
X224643D02*
D03*
X100543D02*
D03*
X93457D02*
D03*
D38*
X148600Y-242500D02*
D03*
Y-247500D02*
D03*
Y-252500D02*
D03*
Y-257500D02*
D03*
Y-262500D02*
D03*
Y-267500D02*
D03*
Y-272500D02*
D03*
X170057D02*
D03*
Y-267500D02*
D03*
Y-262500D02*
D03*
Y-257500D02*
D03*
Y-252500D02*
D03*
Y-247500D02*
D03*
Y-242500D02*
D03*
D39*
X107100Y-189204D02*
D03*
Y-170700D02*
D03*
Y-152196D02*
D03*
X57100Y-180700D02*
D03*
Y-160700D02*
D03*
D40*
X281500Y-57131D02*
D03*
D41*
Y-133116D02*
D03*
Y-209100D02*
D03*
Y-285084D02*
D03*
X62563D02*
D03*
Y-209100D02*
D03*
Y-133116D02*
D03*
Y-57131D02*
D03*
D42*
X8700Y-236000D02*
D03*
D43*
Y-226000D02*
D03*
D44*
X165100Y-168800D02*
D03*
X169200Y-39700D02*
D03*
X119400Y-29000D02*
D03*
X200000Y-88200D02*
D03*
X179300Y-80400D02*
D03*
X128900Y-104500D02*
D03*
X117600Y-263800D02*
D03*
X135000Y-161800D02*
D03*
X185500Y-223100D02*
D03*
M02*
