G04*
G04 #@! TF.GenerationSoftware,Altium Limited,Altium Designer,22.2.1 (43)*
G04*
G04 Layer_Color=65535*
%FSLAX25Y25*%
%MOIN*%
G70*
G04*
G04 #@! TF.SameCoordinates,A16DD8FB-6A98-4827-84FE-9053A31DE0B6*
G04*
G04*
G04 #@! TF.FilePolarity,Positive*
G04*
G01*
G75*
%ADD10C,0.00787*%
%ADD11C,0.00394*%
%ADD12C,0.00600*%
%ADD13C,0.00300*%
%ADD14C,0.01000*%
D10*
X114974Y-189598D02*
Y-188810D01*
Y-189598D01*
X203347Y-133890D02*
Y-130740D01*
X209253Y-133890D02*
Y-130740D01*
X231353Y-133390D02*
Y-130240D01*
X225447Y-133390D02*
Y-130240D01*
X247947Y-133675D02*
Y-130525D01*
X253853Y-133675D02*
Y-130525D01*
X84778Y-60440D02*
Y-58865D01*
X82022Y-60440D02*
Y-58865D01*
X84778Y-82835D02*
Y-81260D01*
X82022Y-82835D02*
Y-81260D01*
X173800Y-104037D02*
Y-96163D01*
X188215Y-70619D02*
X190183D01*
Y-76918D02*
Y-70619D01*
X188215Y-76918D02*
X190183D01*
X188215D02*
Y-70619D01*
X184967Y-70225D02*
X186837D01*
X117977Y-68757D02*
X123981D01*
X80440Y-42953D02*
X83590D01*
X80440Y-37047D02*
X83590D01*
X151325Y-40953D02*
X154475D01*
X151325Y-35047D02*
X154475D01*
X118024Y-93275D02*
Y-90125D01*
X123930Y-93275D02*
Y-90125D01*
X103410Y-34153D02*
X106560D01*
X103410Y-28247D02*
X106560D01*
X188013Y-54722D02*
X189587D01*
X188013Y-57478D02*
X189587D01*
X205213Y-50322D02*
X206787D01*
X205213Y-53078D02*
X206787D01*
X138425Y-74647D02*
X141575D01*
X138425Y-80553D02*
X141575D01*
X159525Y-74647D02*
X162675D01*
X159525Y-80553D02*
X162675D01*
X205165Y-68278D02*
X206740D01*
X205165Y-65522D02*
X206740D01*
X204647Y-101775D02*
Y-98625D01*
X210553Y-101775D02*
Y-98625D01*
X187047Y-101175D02*
Y-98025D01*
X192953Y-101175D02*
Y-98025D01*
X170110Y-231553D02*
X173260D01*
X170110Y-225647D02*
X173260D01*
X13700Y-241000D02*
Y-221000D01*
X3700D02*
X13700D01*
X3700Y-241000D02*
Y-221000D01*
Y-241000D02*
X13700D01*
X214210Y-238366D02*
X224643D01*
X214210Y-246634D02*
Y-238366D01*
Y-246634D02*
X224643D01*
X153029Y-240472D02*
X165628D01*
Y-274528D02*
Y-240472D01*
X153029Y-274528D02*
X165628D01*
X153029D02*
Y-240472D01*
X145549Y-239843D02*
X151651D01*
X93457Y-243734D02*
X103890D01*
Y-235466D01*
X93457D02*
X103890D01*
X191165Y-243278D02*
X192740D01*
X191165Y-240522D02*
X192740D01*
X126213Y-239322D02*
X127787D01*
X126213Y-242078D02*
X127787D01*
X159525Y-59653D02*
X162675D01*
X159525Y-53747D02*
X162675D01*
X159653Y-100975D02*
Y-97825D01*
X153747Y-100975D02*
Y-97825D01*
X214210Y-268366D02*
X224643D01*
X214210Y-276634D02*
Y-268366D01*
Y-276634D02*
X224643D01*
X191165Y-273878D02*
X192740D01*
X191165Y-271122D02*
X192740D01*
X93457Y-276634D02*
X103890D01*
Y-268366D01*
X93457D02*
X103890D01*
X134560Y-271122D02*
X136135D01*
X134560Y-273878D02*
X136135D01*
X136013Y-153878D02*
X137587D01*
X136013Y-151122D02*
X137587D01*
X134413Y-268278D02*
X135987D01*
X134413Y-265522D02*
X135987D01*
X113360Y-256484D02*
X114935D01*
X113360Y-253728D02*
X114935D01*
X132122Y-258846D02*
Y-257271D01*
X134878Y-258846D02*
Y-257271D01*
X159465Y-287478D02*
X161040D01*
X159465Y-284722D02*
X161040D01*
X193778Y-264187D02*
Y-262613D01*
X191022Y-264187D02*
Y-262613D01*
X211378Y-258846D02*
Y-257271D01*
X208622Y-258846D02*
Y-257271D01*
X191122Y-252940D02*
Y-251365D01*
X193878Y-252940D02*
Y-251365D01*
D11*
X57100Y-151015D02*
Y-145700D01*
X92139D01*
Y-195700D02*
Y-145700D01*
X57100Y-195700D02*
X92139D01*
X57100D02*
Y-190385D01*
Y-172275D02*
Y-169125D01*
D12*
X261886Y-102500D02*
Y-94510D01*
X255193Y-102500D02*
Y-94510D01*
X248500Y-102500D02*
Y-94510D01*
X241807Y-102500D02*
Y-94510D01*
X235114Y-102500D02*
Y-94510D01*
X258286Y-102500D02*
Y-94510D01*
X251593Y-102500D02*
Y-94510D01*
X244900Y-102500D02*
Y-94510D01*
X238207Y-102500D02*
Y-94510D01*
X231514Y-102500D02*
Y-94510D01*
X148790Y-174242D02*
X161010D01*
X148790Y-180558D02*
X161010D01*
X264360Y-171500D02*
X265800D01*
X253800D02*
X255240D01*
X253800D02*
Y-149700D01*
X264360D02*
X265800D01*
Y-171500D02*
Y-149700D01*
X257300Y-174000D02*
X262300D01*
X259800Y-177000D02*
X260300Y-174000D01*
X259800Y-177000D02*
X260800Y-174000D01*
X259800Y-177000D02*
X261300Y-174000D01*
X259800Y-177000D02*
X261800Y-174000D01*
X259800Y-177000D02*
X262300Y-174000D01*
X259300D02*
X259800Y-177000D01*
X258800Y-174000D02*
X259800Y-177000D01*
X258300Y-174000D02*
X259800Y-177000D01*
X257800Y-174000D02*
X259800Y-177000D01*
X257300Y-174000D02*
X259800Y-177000D01*
X257300D02*
X262300D01*
X259800Y-178000D02*
Y-173000D01*
X253800Y-149700D02*
X255240D01*
D13*
X226218Y-109135D02*
X229550Y-112467D01*
X226218D02*
X229550Y-109135D01*
X226218Y-110801D02*
X229550D01*
X227884Y-112467D02*
Y-109135D01*
X139700Y-176035D02*
X143032Y-179367D01*
X139700D02*
X143032Y-176035D01*
X139700Y-177701D02*
X143032D01*
X141366Y-179367D02*
Y-176035D01*
D14*
X260001Y-136599D02*
X259001Y-137599D01*
Y-139598D01*
X260001Y-140598D01*
X263999D01*
X264999Y-139598D01*
Y-137599D01*
X263999Y-136599D01*
X264999Y-134599D02*
Y-132600D01*
Y-133600D01*
X259001D01*
X260001Y-134599D01*
X264999Y-126602D02*
X259001D01*
X262000Y-129601D01*
Y-125602D01*
X225801Y-41101D02*
Y-46099D01*
X226801Y-47099D01*
X228800D01*
X229800Y-46099D01*
Y-41101D01*
X231799Y-47099D02*
X233799D01*
X232799D01*
Y-41101D01*
X231799Y-42101D01*
X223201Y-144701D02*
X222201Y-143701D01*
X220202D01*
X219202Y-144701D01*
Y-148699D01*
X220202Y-149699D01*
X222201D01*
X223201Y-148699D01*
X225201Y-149699D02*
X227200D01*
X226200D01*
Y-143701D01*
X225201Y-144701D01*
X230199D02*
X231199Y-143701D01*
X233198D01*
X234198Y-144701D01*
Y-145700D01*
X233198Y-146700D01*
X232198D01*
X233198D01*
X234198Y-147700D01*
Y-148699D01*
X233198Y-149699D01*
X231199D01*
X230199Y-148699D01*
X199501Y-143801D02*
X198502Y-142801D01*
X196502D01*
X195502Y-143801D01*
Y-147799D01*
X196502Y-148799D01*
X198502D01*
X199501Y-147799D01*
X201501Y-148799D02*
X203500D01*
X202500D01*
Y-142801D01*
X201501Y-143801D01*
X210498Y-148799D02*
X206499D01*
X210498Y-144800D01*
Y-143801D01*
X209498Y-142801D01*
X207499D01*
X206499Y-143801D01*
X78902Y-52399D02*
Y-46401D01*
X81901D01*
X82900Y-47401D01*
Y-49400D01*
X81901Y-50400D01*
X78902D01*
X80901D02*
X82900Y-52399D01*
X88898Y-46401D02*
X84900D01*
Y-49400D01*
X86899Y-48400D01*
X87899D01*
X88898Y-49400D01*
Y-51399D01*
X87899Y-52399D01*
X85899D01*
X84900Y-51399D01*
X79302Y-74499D02*
Y-68501D01*
X82301D01*
X83300Y-69501D01*
Y-71500D01*
X82301Y-72500D01*
X79302D01*
X81301D02*
X83300Y-74499D01*
X88299D02*
Y-68501D01*
X85300Y-71500D01*
X89298D01*
X202000Y-61500D02*
Y-55502D01*
X204999D01*
X205999Y-56502D01*
Y-58501D01*
X204999Y-59501D01*
X202000D01*
X203999D02*
X205999Y-61500D01*
X207998Y-56502D02*
X208998Y-55502D01*
X210997D01*
X211997Y-56502D01*
Y-57501D01*
X210997Y-58501D01*
X209997D01*
X210997D01*
X211997Y-59501D01*
Y-60500D01*
X210997Y-61500D01*
X208998D01*
X207998Y-60500D01*
X202100Y-46300D02*
Y-40302D01*
X205099D01*
X206099Y-41302D01*
Y-43301D01*
X205099Y-44301D01*
X202100D01*
X204099D02*
X206099Y-46300D01*
X212097D02*
X208098D01*
X212097Y-42301D01*
Y-41302D01*
X211097Y-40302D01*
X209098D01*
X208098Y-41302D01*
X184900Y-50700D02*
Y-44702D01*
X187899D01*
X188899Y-45702D01*
Y-47701D01*
X187899Y-48701D01*
X184900D01*
X186899D02*
X188899Y-50700D01*
X190898D02*
X192897D01*
X191898D01*
Y-44702D01*
X190898Y-45702D01*
X169801Y-84201D02*
Y-90199D01*
X173800D01*
X175799D02*
X177799D01*
X176799D01*
Y-84201D01*
X175799Y-85201D01*
X182402Y-61501D02*
X184402D01*
X183402D01*
Y-67499D01*
X182402D01*
X184402D01*
X191400Y-62501D02*
X190400Y-61501D01*
X188400D01*
X187401Y-62501D01*
Y-66499D01*
X188400Y-67499D01*
X190400D01*
X191400Y-66499D01*
X193399Y-62501D02*
X194399Y-61501D01*
X196398D01*
X197398Y-62501D01*
Y-63500D01*
X196398Y-64500D01*
X195398D01*
X196398D01*
X197398Y-65500D01*
Y-66499D01*
X196398Y-67499D01*
X194399D01*
X193399Y-66499D01*
X96500Y-38702D02*
X98499D01*
X97500D01*
Y-44700D01*
X96500D01*
X98499D01*
X105497Y-39702D02*
X104497Y-38702D01*
X102498D01*
X101498Y-39702D01*
Y-43700D01*
X102498Y-44700D01*
X104497D01*
X105497Y-43700D01*
X111495Y-44700D02*
X107496D01*
X111495Y-40701D01*
Y-39702D01*
X110495Y-38702D01*
X108496D01*
X107496Y-39702D01*
X101899Y-19302D02*
X100899Y-18302D01*
X98900D01*
X97900Y-19302D01*
Y-23300D01*
X98900Y-24300D01*
X100899D01*
X101899Y-23300D01*
X103898Y-24300D02*
X105897D01*
X104898D01*
Y-18302D01*
X103898Y-19302D01*
X108896Y-24300D02*
X110896D01*
X109896D01*
Y-18302D01*
X108896Y-19302D01*
X149799Y-26102D02*
X148799Y-25102D01*
X146800D01*
X145800Y-26102D01*
Y-30100D01*
X146800Y-31100D01*
X148799D01*
X149799Y-30100D01*
X151798Y-31100D02*
X153797D01*
X152798D01*
Y-25102D01*
X151798Y-26102D01*
X156796D02*
X157796Y-25102D01*
X159795D01*
X160795Y-26102D01*
Y-30100D01*
X159795Y-31100D01*
X157796D01*
X156796Y-30100D01*
Y-26102D01*
X121999Y-75602D02*
X120999Y-74602D01*
X119000D01*
X118000Y-75602D01*
Y-79600D01*
X119000Y-80600D01*
X120999D01*
X121999Y-79600D01*
X123998D02*
X124998Y-80600D01*
X126997D01*
X127997Y-79600D01*
Y-75602D01*
X126997Y-74602D01*
X124998D01*
X123998Y-75602D01*
Y-76601D01*
X124998Y-77601D01*
X127997D01*
X208699Y-84102D02*
X207699Y-83102D01*
X205700D01*
X204700Y-84102D01*
Y-88100D01*
X205700Y-89100D01*
X207699D01*
X208699Y-88100D01*
X210698Y-84102D02*
X211698Y-83102D01*
X213697D01*
X214697Y-84102D01*
Y-85101D01*
X213697Y-86101D01*
X214697Y-87101D01*
Y-88100D01*
X213697Y-89100D01*
X211698D01*
X210698Y-88100D01*
Y-87101D01*
X211698Y-86101D01*
X210698Y-85101D01*
Y-84102D01*
X211698Y-86101D02*
X213697D01*
X191099Y-83502D02*
X190099Y-82502D01*
X188100D01*
X187100Y-83502D01*
Y-87500D01*
X188100Y-88500D01*
X190099D01*
X191099Y-87500D01*
X193098Y-82502D02*
X197097D01*
Y-83502D01*
X193098Y-87500D01*
Y-88500D01*
X78899Y-28102D02*
X77899Y-27102D01*
X75900D01*
X74900Y-28102D01*
Y-32100D01*
X75900Y-33100D01*
X77899D01*
X78899Y-32100D01*
X84897Y-27102D02*
X82897Y-28102D01*
X80898Y-30101D01*
Y-32100D01*
X81898Y-33100D01*
X83897D01*
X84897Y-32100D01*
Y-31101D01*
X83897Y-30101D01*
X80898D01*
X136899Y-65702D02*
X135899Y-64702D01*
X133900D01*
X132900Y-65702D01*
Y-69700D01*
X133900Y-70700D01*
X135899D01*
X136899Y-69700D01*
X138898Y-65702D02*
X139898Y-64702D01*
X141897D01*
X142897Y-65702D01*
Y-66701D01*
X141897Y-67701D01*
X140897D01*
X141897D01*
X142897Y-68701D01*
Y-69700D01*
X141897Y-70700D01*
X139898D01*
X138898Y-69700D01*
X157999Y-65702D02*
X156999Y-64702D01*
X155000D01*
X154000Y-65702D01*
Y-69700D01*
X155000Y-70700D01*
X156999D01*
X157999Y-69700D01*
X163997Y-70700D02*
X159998D01*
X163997Y-66701D01*
Y-65702D01*
X162997Y-64702D01*
X160998D01*
X159998Y-65702D01*
X168599Y-216702D02*
X167599Y-215702D01*
X165600D01*
X164600Y-216702D01*
Y-220700D01*
X165600Y-221700D01*
X167599D01*
X168599Y-220700D01*
X170598Y-221700D02*
X172597D01*
X171598D01*
Y-215702D01*
X170598Y-216702D01*
X275799Y-157401D02*
X276799Y-156402D01*
Y-154402D01*
X275799Y-153403D01*
X271801D01*
X270801Y-154402D01*
Y-156402D01*
X271801Y-157401D01*
X270801Y-159401D02*
X276799D01*
Y-162400D01*
X275799Y-163399D01*
X273800D01*
X272800Y-162400D01*
Y-159401D01*
Y-161400D02*
X270801Y-163399D01*
Y-169397D02*
Y-165399D01*
X274800Y-169397D01*
X275799D01*
X276799Y-168398D01*
Y-166398D01*
X275799Y-165399D01*
X173148Y-178449D02*
X174148Y-177449D01*
Y-175450D01*
X173148Y-174450D01*
X169150D01*
X168150Y-175450D01*
Y-177449D01*
X169150Y-178449D01*
X168150Y-180448D02*
X174148D01*
Y-183447D01*
X173148Y-184447D01*
X171149D01*
X170149Y-183447D01*
Y-180448D01*
Y-182447D02*
X168150Y-184447D01*
Y-186446D02*
Y-188445D01*
Y-187446D01*
X174148D01*
X173148Y-186446D01*
X3701Y-202700D02*
X2701Y-203700D01*
Y-205699D01*
X3701Y-206699D01*
X4700D01*
X5700Y-205699D01*
Y-203700D01*
X6700Y-202700D01*
X7699D01*
X8699Y-203700D01*
Y-205699D01*
X7699Y-206699D01*
X8699Y-200701D02*
Y-198701D01*
Y-199701D01*
X2701D01*
X3701Y-200701D01*
X196501Y-246403D02*
X202499D01*
Y-249402D01*
X201499Y-250401D01*
X199500D01*
X198500Y-249402D01*
Y-246403D01*
Y-248402D02*
X196501Y-250401D01*
Y-256399D02*
Y-252401D01*
X200500Y-256399D01*
X201499D01*
X202499Y-255400D01*
Y-253400D01*
X201499Y-252401D01*
X196501Y-261398D02*
X202499D01*
X199500Y-258399D01*
Y-262397D01*
X215503Y-261399D02*
Y-255401D01*
X218502D01*
X219501Y-256401D01*
Y-258400D01*
X218502Y-259400D01*
X215503D01*
X217502D02*
X219501Y-261399D01*
X225499D02*
X221501D01*
X225499Y-257400D01*
Y-256401D01*
X224500Y-255401D01*
X222500D01*
X221501Y-256401D01*
X227499D02*
X228498Y-255401D01*
X230498D01*
X231497Y-256401D01*
Y-257400D01*
X230498Y-258400D01*
X229498D01*
X230498D01*
X231497Y-259400D01*
Y-260399D01*
X230498Y-261399D01*
X228498D01*
X227499Y-260399D01*
X185299Y-272097D02*
X179301D01*
Y-269098D01*
X180301Y-268099D01*
X182300D01*
X183300Y-269098D01*
Y-272097D01*
Y-270098D02*
X185299Y-268099D01*
Y-262101D02*
Y-266099D01*
X181300Y-262101D01*
X180301D01*
X179301Y-263100D01*
Y-265100D01*
X180301Y-266099D01*
X185299Y-256103D02*
Y-260101D01*
X181300Y-256103D01*
X180301D01*
X179301Y-257102D01*
Y-259102D01*
X180301Y-260101D01*
X166998Y-289501D02*
Y-295499D01*
X163999D01*
X162999Y-294499D01*
Y-292500D01*
X163999Y-291500D01*
X166998D01*
X164998D02*
X162999Y-289501D01*
X157001D02*
X161000D01*
X157001Y-293500D01*
Y-294499D01*
X158001Y-295499D01*
X160000D01*
X161000Y-294499D01*
X155002Y-289501D02*
X153002D01*
X154002D01*
Y-295499D01*
X155002Y-294499D01*
X126903Y-251599D02*
Y-245601D01*
X129902D01*
X130901Y-246601D01*
Y-248600D01*
X129902Y-249600D01*
X126903D01*
X128902D02*
X130901Y-251599D01*
X136899D02*
X132901D01*
X136899Y-247600D01*
Y-246601D01*
X135900Y-245601D01*
X133900D01*
X132901Y-246601D01*
X138899D02*
X139898Y-245601D01*
X141898D01*
X142897Y-246601D01*
Y-250599D01*
X141898Y-251599D01*
X139898D01*
X138899Y-250599D01*
Y-246601D01*
X104999Y-261498D02*
X99001D01*
Y-258499D01*
X100001Y-257499D01*
X102000D01*
X103000Y-258499D01*
Y-261498D01*
Y-259498D02*
X104999Y-257499D01*
Y-255500D02*
Y-253500D01*
Y-254500D01*
X99001D01*
X100001Y-255500D01*
X103999Y-250501D02*
X104999Y-249501D01*
Y-247502D01*
X103999Y-246502D01*
X100001D01*
X99001Y-247502D01*
Y-249501D01*
X100001Y-250501D01*
X101000D01*
X102000Y-249501D01*
Y-246502D01*
X127799Y-272398D02*
X121801D01*
Y-269398D01*
X122801Y-268399D01*
X124800D01*
X125800Y-269398D01*
Y-272398D01*
Y-270398D02*
X127799Y-268399D01*
Y-266400D02*
Y-264400D01*
Y-265400D01*
X121801D01*
X122801Y-266400D01*
Y-261401D02*
X121801Y-260402D01*
Y-258402D01*
X122801Y-257402D01*
X123800D01*
X124800Y-258402D01*
X125800Y-257402D01*
X126799D01*
X127799Y-258402D01*
Y-260402D01*
X126799Y-261401D01*
X125800D01*
X124800Y-260402D01*
X123800Y-261401D01*
X122801D01*
X124800Y-260402D02*
Y-258402D01*
X128850Y-153850D02*
X122852D01*
Y-150851D01*
X123852Y-149851D01*
X125851D01*
X126851Y-150851D01*
Y-153850D01*
Y-151851D02*
X128850Y-149851D01*
Y-147852D02*
Y-145853D01*
Y-146852D01*
X122852D01*
X123852Y-147852D01*
X122852Y-142854D02*
Y-138855D01*
X123852D01*
X127850Y-142854D01*
X128850D01*
X127202Y-282099D02*
Y-276101D01*
X130201D01*
X131201Y-277101D01*
Y-279100D01*
X130201Y-280100D01*
X127202D01*
X129202D02*
X131201Y-282099D01*
X133201D02*
X135200D01*
X134200D01*
Y-276101D01*
X133201Y-277101D01*
X142198Y-276101D02*
X140198Y-277101D01*
X138199Y-279100D01*
Y-281099D01*
X139199Y-282099D01*
X141198D01*
X142198Y-281099D01*
Y-280100D01*
X141198Y-279100D01*
X138199D01*
X196198Y-277701D02*
Y-283699D01*
X193199D01*
X192199Y-282699D01*
Y-280700D01*
X193199Y-279700D01*
X196198D01*
X194198D02*
X192199Y-277701D01*
X190199D02*
X188200D01*
X189200D01*
Y-283699D01*
X190199Y-282699D01*
X181202Y-283699D02*
X185201D01*
Y-280700D01*
X183202Y-281700D01*
X182202D01*
X181202Y-280700D01*
Y-278701D01*
X182202Y-277701D01*
X184201D01*
X185201Y-278701D01*
X184102Y-236599D02*
Y-230601D01*
X187101D01*
X188101Y-231601D01*
Y-233600D01*
X187101Y-234600D01*
X184102D01*
X186102D02*
X188101Y-236599D01*
X190101D02*
X192100D01*
X191100D01*
Y-230601D01*
X190101Y-231601D01*
X198098Y-236599D02*
Y-230601D01*
X195099Y-233600D01*
X199098D01*
X124202Y-235499D02*
Y-229501D01*
X127201D01*
X128201Y-230501D01*
Y-232500D01*
X127201Y-233500D01*
X124202D01*
X126202D02*
X128201Y-235499D01*
X130201D02*
X132200D01*
X131200D01*
Y-229501D01*
X130201Y-230501D01*
X135199D02*
X136199Y-229501D01*
X138198D01*
X139198Y-230501D01*
Y-231500D01*
X138198Y-232500D01*
X137198D01*
X138198D01*
X139198Y-233500D01*
Y-234499D01*
X138198Y-235499D01*
X136199D01*
X135199Y-234499D01*
X13050Y-244350D02*
Y-250348D01*
X10051D01*
X9051Y-249348D01*
Y-247349D01*
X10051Y-246349D01*
X13050D01*
X3053Y-244350D02*
X7052D01*
X3053Y-248349D01*
Y-249348D01*
X4053Y-250348D01*
X6052D01*
X7052Y-249348D01*
X109396Y-288999D02*
Y-283001D01*
X105398D01*
X99400Y-288999D02*
X103398D01*
Y-283001D01*
X99400D01*
X103398Y-286000D02*
X101399D01*
X97400Y-288999D02*
Y-283001D01*
X94401D01*
X93402Y-284001D01*
Y-287999D01*
X94401Y-288999D01*
X97400D01*
X91402Y-287999D02*
X90403Y-288999D01*
X88403D01*
X87404Y-287999D01*
Y-287000D01*
X88403Y-286000D01*
X87404Y-285000D01*
Y-284001D01*
X88403Y-283001D01*
X90403D01*
X91402Y-284001D01*
Y-285000D01*
X90403Y-286000D01*
X91402Y-287000D01*
Y-287999D01*
X90403Y-286000D02*
X88403D01*
X231696Y-285199D02*
Y-279201D01*
X227698D01*
X221700Y-285199D02*
X225698D01*
Y-279201D01*
X221700D01*
X225698Y-282200D02*
X223699D01*
X219700Y-285199D02*
Y-279201D01*
X216701D01*
X215702Y-280201D01*
Y-284199D01*
X216701Y-285199D01*
X219700D01*
X213702D02*
X209703D01*
Y-284199D01*
X213702Y-280201D01*
Y-279201D01*
X88104Y-226901D02*
Y-232899D01*
X92102D01*
X98100Y-226901D02*
X94102D01*
Y-232899D01*
X98100D01*
X94102Y-229900D02*
X96101D01*
X100100Y-226901D02*
Y-232899D01*
X103099D01*
X104098Y-231899D01*
Y-227901D01*
X103099Y-226901D01*
X100100D01*
X110097D02*
X108097Y-227901D01*
X106098Y-229900D01*
Y-231899D01*
X107097Y-232899D01*
X109097D01*
X110097Y-231899D01*
Y-230900D01*
X109097Y-229900D01*
X106098D01*
X210304Y-229501D02*
Y-235499D01*
X214302D01*
X220300Y-229501D02*
X216302D01*
Y-235499D01*
X220300D01*
X216302Y-232500D02*
X218301D01*
X222300Y-229501D02*
Y-235499D01*
X225299D01*
X226298Y-234499D01*
Y-230501D01*
X225299Y-229501D01*
X222300D01*
X232296D02*
X228298D01*
Y-232500D01*
X230297Y-231500D01*
X231297D01*
X232296Y-232500D01*
Y-234499D01*
X231297Y-235499D01*
X229297D01*
X228298Y-234499D01*
X145478Y-230152D02*
X147478D01*
X146478D01*
Y-236150D01*
X145478D01*
X147478D01*
X154475Y-231152D02*
X153476Y-230152D01*
X151476D01*
X150477Y-231152D01*
Y-235150D01*
X151476Y-236150D01*
X153476D01*
X154475Y-235150D01*
X156475Y-236150D02*
X158474D01*
X157475D01*
Y-230152D01*
X156475Y-231152D01*
X145601Y-100400D02*
X144601Y-101399D01*
Y-103399D01*
X145601Y-104398D01*
X149599D01*
X150599Y-103399D01*
Y-101399D01*
X149599Y-100400D01*
X144601Y-94402D02*
Y-98400D01*
X147600D01*
X146600Y-96401D01*
Y-95401D01*
X147600Y-94402D01*
X149599D01*
X150599Y-95401D01*
Y-97401D01*
X149599Y-98400D01*
X158300Y-46101D02*
X157301Y-45101D01*
X155301D01*
X154302Y-46101D01*
Y-50099D01*
X155301Y-51099D01*
X157301D01*
X158300Y-50099D01*
X163299Y-51099D02*
Y-45101D01*
X160300Y-48100D01*
X164298D01*
M02*
