G04*
G04 #@! TF.GenerationSoftware,Altium Limited,Altium Designer,22.2.1 (43)*
G04*
G04 Layer_Physical_Order=1*
G04 Layer_Color=255*
%FSLAX25Y25*%
%MOIN*%
G70*
G04*
G04 #@! TF.SameCoordinates,1B490597-E986-4BE8-99EB-E72609ADCA5A*
G04*
G04*
G04 #@! TF.FilePolarity,Positive*
G04*
G01*
G75*
%ADD14C,0.01000*%
%ADD15R,0.06693X0.04331*%
%ADD16R,0.42200X0.40800*%
%ADD17R,0.03800X0.13800*%
%ADD18R,0.03543X0.02756*%
%ADD19R,0.03347X0.08661*%
%ADD20R,0.01870X0.01181*%
%ADD21R,0.06004X0.02559*%
%ADD22R,0.10669X0.13386*%
%ADD23R,0.04331X0.06693*%
%ADD24R,0.02756X0.03543*%
%ADD25R,0.04375X0.02365*%
%ADD26R,0.06500X0.08600*%
%ADD27R,0.03937X0.05512*%
%ADD28R,0.06102X0.02559*%
%ADD45C,0.12402*%
%ADD46R,0.18898X0.18898*%
%ADD47C,0.18898*%
%ADD48C,0.05906*%
%ADD49R,0.05906X0.05906*%
%ADD50C,0.05000*%
D14*
X217700Y-134318D02*
Y-134100D01*
Y-134318D02*
X220512Y-137130D01*
X181200Y-71800D02*
X185900D01*
X171034D02*
X181200D01*
X261486Y-104400D02*
X267600D01*
X274100Y-97900D01*
X260086Y-110800D02*
Y-105800D01*
X261486Y-104400D01*
X176100Y-66700D02*
X181200Y-71800D01*
X220512Y-137130D02*
X228400D01*
X246700Y-110800D02*
Y-72800D01*
X206300Y-180598D02*
Y-137630D01*
Y-180598D02*
X224643Y-198941D01*
Y-242500D02*
Y-198941D01*
X206300Y-127000D02*
X215630D01*
X225430Y-117200D01*
X231914D01*
X233314Y-115800D02*
Y-110800D01*
X231914Y-117200D02*
X233314Y-115800D01*
X229581Y-126500D02*
X238607Y-117474D01*
Y-112200D01*
X240007Y-110800D01*
X228400Y-126500D02*
X229581D01*
X248625Y-131578D02*
X248728D01*
X246453Y-129406D02*
X248625Y-131578D01*
X246453Y-129406D02*
Y-111047D01*
X246700Y-110800D01*
X250900Y-137415D02*
Y-133750D01*
X248728Y-131578D02*
X250900Y-133750D01*
X228400Y-137130D02*
X228685Y-137415D01*
X250900D01*
X251728Y-126785D02*
X253393Y-125120D01*
Y-110800D01*
X250900Y-126785D02*
X251728D01*
X253393Y-110800D02*
X260086D01*
X135000Y-196049D02*
Y-161800D01*
X163379Y-176717D02*
Y-171604D01*
X165100Y-169882D02*
Y-168800D01*
X163379Y-171604D02*
X165100Y-169882D01*
X161691Y-177400D02*
X162696D01*
X163379Y-176717D01*
X220625Y-250075D02*
Y-249075D01*
X224643Y-272500D02*
Y-245057D01*
X220625Y-249075D02*
X224643Y-245057D01*
X220200Y-250500D02*
X220625Y-250075D01*
X158215Y-38000D02*
X166418D01*
X168118Y-39700D01*
X169200D01*
X118318Y-29000D02*
X119400D01*
X110300Y-31200D02*
X116118D01*
X118318Y-29000D01*
X191181Y-94285D02*
X207000D01*
X199235Y-88965D02*
X200000Y-88200D01*
X190000Y-94285D02*
X191181D01*
X196501Y-88965D01*
X199235D01*
X183963Y-75737D02*
X185900D01*
X179300Y-80400D02*
X183963Y-75737D01*
X128900Y-103757D02*
Y-76318D01*
Y-104500D02*
Y-103757D01*
X137306Y-73154D02*
X138906Y-74753D01*
X132064Y-73154D02*
X137306D01*
X128900Y-76318D02*
X132064Y-73154D01*
X143650Y-74753D02*
X145315Y-76419D01*
X138906Y-74753D02*
X143650D01*
X145315Y-77600D02*
Y-76419D01*
X120977Y-97015D02*
X122158D01*
X128900Y-103757D01*
X83400Y-123518D02*
X85500Y-125618D01*
Y-126700D02*
Y-125618D01*
X83400Y-123518D02*
Y-85000D01*
X98665Y-166965D02*
X100280D01*
X94300Y-238757D02*
Y-65586D01*
X100280Y-166965D02*
X104015Y-170700D01*
X97900Y-166200D02*
X98665Y-166965D01*
X94300Y-65586D02*
X96286Y-63600D01*
X93457Y-272500D02*
Y-239600D01*
X93457D02*
X94300Y-238757D01*
X104015Y-170700D02*
X107100D01*
X79084Y-133116D02*
X85500Y-126700D01*
X110300Y-58600D02*
Y-31200D01*
X155785Y-56700D02*
Y-55519D01*
X158215Y-53089D02*
Y-38000D01*
X155785Y-55519D02*
X158215Y-53089D01*
X155785Y-77600D02*
Y-56700D01*
X145315Y-77600D02*
X155785D01*
X134685D02*
X140285Y-83200D01*
X160815D02*
X166415Y-77600D01*
X140285Y-83200D02*
X160815D01*
X166415Y-77600D02*
Y-76419D01*
X152253Y-91464D02*
X156018Y-87700D01*
X163382D01*
X177314Y-73769D01*
X173806Y-94085D02*
X192154Y-75737D01*
X156700Y-94085D02*
X173806D01*
X207000Y-94285D02*
X207600Y-94885D01*
X191753Y-56494D02*
Y-56100D01*
X190463Y-57783D02*
X191753Y-56494D01*
X190463Y-72846D02*
Y-57783D01*
X206428Y-62312D02*
X208953Y-59787D01*
X206428Y-77180D02*
Y-62312D01*
Y-77180D02*
X207600Y-78352D01*
Y-94885D02*
Y-78352D01*
X208953Y-59787D02*
Y-51700D01*
X135800Y-38000D02*
X147585D01*
X122700Y-51100D02*
X135800Y-38000D01*
X120977Y-51100D02*
X122700D01*
X96286Y-63600D02*
X102960D01*
X103725Y-62835D01*
Y-53479D01*
X99623Y-51100D02*
X101345D01*
X103725Y-53479D01*
X127475Y-152588D02*
X131563Y-148500D01*
X136146D01*
X127475Y-241978D02*
Y-152588D01*
X135000Y-196049D02*
X166370Y-227419D01*
X136146Y-148500D02*
X139753Y-152106D01*
X99623Y-66100D02*
X99916Y-66393D01*
X116090D01*
X110300Y-58600D02*
X112800Y-56100D01*
X120977D01*
X124279Y-58635D02*
X125079Y-57835D01*
Y-53479D01*
X117605Y-58635D02*
X124279D01*
X116805Y-65678D02*
Y-59435D01*
X116090Y-66393D02*
X116805Y-65678D01*
Y-59435D02*
X117605Y-58635D01*
X122700Y-51100D02*
X125079Y-53479D01*
X134685Y-124611D02*
Y-77600D01*
X107100Y-152196D02*
X134685Y-124611D01*
X120977Y-86385D02*
Y-66100D01*
X120977Y-66100D01*
X76700Y-56299D02*
X83006Y-62606D01*
X83400D01*
X76700Y-56299D02*
Y-40000D01*
X83400Y-56700D02*
Y-45111D01*
X87330Y-41181D01*
Y-40000D01*
Y-38819D02*
X94949Y-31200D01*
X87330Y-40000D02*
Y-38819D01*
X94949Y-31200D02*
X99670D01*
X99623Y-51100D02*
X99670Y-51053D01*
Y-31200D01*
X83400Y-62606D02*
X83794D01*
X90299Y-56100D02*
X99623D01*
X83794Y-62606D02*
X90299Y-56100D01*
X83400Y-62606D02*
X83400Y-62606D01*
X83400Y-79094D02*
Y-62606D01*
X192498Y-71800D02*
X198494D01*
X203000Y-67294D01*
Y-66900D01*
X190463Y-72846D02*
X191295Y-73678D01*
X192408D01*
X192498Y-73769D01*
X169765Y-100100D02*
Y-98524D01*
X168591Y-97350D02*
X169765Y-98524D01*
X152253Y-96706D02*
X152898Y-97350D01*
X168591D01*
X177314Y-73769D02*
X185900D01*
X152253Y-96706D02*
Y-91464D01*
X166415Y-76419D02*
X171034Y-71800D01*
X192154Y-75737D02*
X192498D01*
X169765Y-102758D02*
Y-100100D01*
X156700Y-104715D02*
X167807D01*
X169765Y-102758D01*
X166415Y-76419D02*
Y-56700D01*
X185247D01*
X185847Y-56100D01*
X147585Y-38000D02*
X151147D01*
X155594Y-33553D02*
X195512D01*
X211431Y-49473D01*
X151147Y-38000D02*
X155594Y-33553D01*
X211431Y-63981D02*
Y-49473D01*
X208906Y-66506D02*
X211431Y-63981D01*
X208906Y-66900D02*
Y-66506D01*
X203024Y-66876D02*
Y-51724D01*
X203047Y-51700D01*
X203000Y-66900D02*
X203024Y-66876D01*
X208906Y-66900D02*
X212047Y-70041D01*
Y-102250D02*
Y-70041D01*
X208781Y-105515D02*
X212047Y-102250D01*
X207600Y-105515D02*
X208781D01*
X190000Y-104915D02*
X207000D01*
X207600Y-105515D01*
X179993Y-104915D02*
X190000D01*
X177835Y-102758D02*
X179993Y-104915D01*
X177835Y-102758D02*
Y-100100D01*
X139753Y-152500D02*
X147104Y-159851D01*
Y-176717D02*
X147787Y-177400D01*
X148109D01*
X147104Y-176717D02*
Y-159851D01*
X132247Y-266900D02*
Y-266506D01*
X131369Y-265628D02*
X132247Y-266506D01*
X130976Y-265628D02*
X131369D01*
X129147Y-263800D02*
X130976Y-265628D01*
X117600Y-263800D02*
X129147D01*
X100543Y-272500D02*
X132395D01*
X62563Y-285084D02*
X73579Y-296100D01*
X270484D01*
X281500Y-285084D01*
X166370Y-228600D02*
Y-227419D01*
X133847Y-152500D02*
X134424Y-153076D01*
Y-161224D02*
Y-153076D01*
Y-161224D02*
X135000Y-161800D01*
X257050Y-163500D02*
X259800Y-166250D01*
Y-167300D02*
Y-166250D01*
X252300Y-163500D02*
X257050D01*
X245800Y-157000D02*
X252300Y-163500D01*
X139753Y-152500D02*
Y-152106D01*
X93872Y-276372D02*
Y-272915D01*
Y-276372D02*
X96700Y-279200D01*
X93457Y-272500D02*
X93872Y-272915D01*
X96700Y-279200D02*
Y-279200D01*
X140500Y-256900D02*
X140800Y-257200D01*
X148300D01*
X148600Y-257500D01*
X178665Y-225753D02*
X182497D01*
X185150Y-223100D02*
X185500D01*
X177000Y-228600D02*
Y-227419D01*
X178665Y-225753D01*
X182497D02*
X185150Y-223100D01*
X62563Y-133116D02*
X79084D01*
X62563Y-285084D02*
Y-209100D01*
X35146Y-160533D02*
X62563Y-133116D01*
X35146Y-199554D02*
Y-160533D01*
X8700Y-226000D02*
X35146Y-199554D01*
X281500Y-133116D02*
Y-57131D01*
X259800Y-153900D02*
Y-152850D01*
X279534Y-133116D02*
X281500D01*
X259800Y-152850D02*
X279534Y-133116D01*
X206600Y-248300D02*
X210000Y-251700D01*
Y-255105D02*
Y-251700D01*
X210000Y-255105D02*
X210000Y-255105D01*
X192500Y-255105D02*
X210000D01*
X148600Y-262500D02*
X149150Y-263050D01*
X156950D02*
X157500Y-263600D01*
X149150Y-263050D02*
X156950D01*
X146828Y-262500D02*
X148600D01*
X138753Y-267500D02*
X148600D01*
X168285D01*
X170057Y-257500D02*
X189712D01*
X192400Y-260447D02*
X192794D01*
X192682Y-260729D02*
X209718D01*
X210000Y-261011D01*
X192400Y-260447D02*
X192682Y-260729D01*
X192073Y-260121D02*
X192400Y-260447D01*
X163206Y-286100D02*
X163305Y-286000D01*
X169500D01*
X281500Y-285084D02*
Y-209100D01*
X62563Y-133116D02*
Y-57131D01*
X224643Y-245057D02*
Y-242500D01*
X173528Y-249200D02*
X192500D01*
X171828Y-247500D02*
X173528Y-249200D01*
X170057Y-247500D02*
X171828D01*
X168285D02*
X170057D01*
X203424Y-266176D02*
X203600Y-266000D01*
X192400Y-266353D02*
X192576Y-266176D01*
X203424D01*
X152300Y-280706D02*
Y-280400D01*
X157300Y-286100D02*
Y-285706D01*
X152300Y-280706D02*
X157300Y-285706D01*
X168285Y-267500D02*
X170057D01*
X148600Y-247500D02*
X168285D01*
X164305Y-263521D02*
X168285Y-267500D01*
X164305Y-263521D02*
Y-251480D01*
X168285Y-247500D01*
Y-262500D02*
X170057D01*
X192500Y-255105D02*
X192500Y-255105D01*
X166791Y-260121D02*
X192073D01*
X165905Y-259235D02*
X166791Y-260121D01*
X165905Y-259235D02*
Y-254879D01*
X168285Y-252500D01*
X170057D01*
X171828Y-262500D02*
X175681Y-266353D01*
X170057Y-262500D02*
X171828D01*
X175681Y-266353D02*
X192400D01*
X189712Y-257500D02*
X192106Y-255105D01*
X111195Y-254712D02*
X118000Y-247906D01*
X121547D01*
X127475Y-241978D01*
X111195Y-255105D02*
Y-254712D01*
X145339Y-261011D02*
X146828Y-262500D01*
X133500Y-261011D02*
X145339D01*
X133500Y-255105D02*
X133894D01*
X117100D02*
X133500D01*
X192106Y-255105D02*
X192500D01*
X194905Y-272500D02*
X217557D01*
X170057D02*
X189000D01*
X194905Y-241900D02*
X216957D01*
X217557Y-242500D01*
X188400D02*
X189000Y-241900D01*
X170057Y-242500D02*
X188400D01*
X145028Y-240700D02*
X146828Y-242500D01*
X129953Y-240700D02*
X145028D01*
X146828Y-242500D02*
X148600D01*
X123169Y-239600D02*
X124047Y-240478D01*
Y-240700D02*
Y-240478D01*
X100543Y-239600D02*
X123169D01*
X136499Y-252500D02*
X148600D01*
X133894Y-255105D02*
X136499Y-252500D01*
X138300Y-272500D02*
X148600D01*
X138153Y-266900D02*
X138753Y-267500D01*
D15*
X206300Y-137630D02*
D03*
Y-127000D02*
D03*
X228400Y-126500D02*
D03*
Y-137130D02*
D03*
X250900Y-137415D02*
D03*
Y-126785D02*
D03*
X120977Y-97015D02*
D03*
Y-86385D02*
D03*
X207600Y-105515D02*
D03*
Y-94885D02*
D03*
X190000Y-104915D02*
D03*
Y-94285D02*
D03*
X156700Y-94085D02*
D03*
Y-104715D02*
D03*
D16*
X246700Y-72800D02*
D03*
D17*
X260086Y-110800D02*
D03*
X253393D02*
D03*
X246700D02*
D03*
X240007D02*
D03*
X233314D02*
D03*
D18*
X83400Y-56700D02*
D03*
Y-62606D02*
D03*
X83400Y-79094D02*
D03*
Y-85000D02*
D03*
X133500Y-261011D02*
D03*
Y-255105D02*
D03*
X192400Y-260447D02*
D03*
Y-266353D02*
D03*
X210000Y-255105D02*
D03*
Y-261011D02*
D03*
X192500Y-255105D02*
D03*
Y-249200D02*
D03*
D19*
X169765Y-100100D02*
D03*
X177835D02*
D03*
D20*
X185900Y-71800D02*
D03*
Y-73769D02*
D03*
Y-75737D02*
D03*
X192498D02*
D03*
Y-73769D02*
D03*
Y-71800D02*
D03*
D21*
X120977Y-66100D02*
D03*
Y-61100D02*
D03*
Y-56100D02*
D03*
Y-51100D02*
D03*
X99623D02*
D03*
Y-56100D02*
D03*
Y-61100D02*
D03*
Y-66100D02*
D03*
D22*
X110300Y-58600D02*
D03*
D23*
X87330Y-40000D02*
D03*
X76700D02*
D03*
X158215Y-38000D02*
D03*
X147585D02*
D03*
X110300Y-31200D02*
D03*
X99670D02*
D03*
X134685Y-77600D02*
D03*
X145315D02*
D03*
X155785D02*
D03*
X166415D02*
D03*
X177000Y-228600D02*
D03*
X166370D02*
D03*
X166415Y-56700D02*
D03*
X155785D02*
D03*
D24*
X185847Y-56100D02*
D03*
X191753D02*
D03*
X203047Y-51700D02*
D03*
X208953D02*
D03*
X208906Y-66900D02*
D03*
X203000D02*
D03*
X194905Y-241900D02*
D03*
X189000D02*
D03*
X124047Y-240700D02*
D03*
X129953D02*
D03*
X194905Y-272500D02*
D03*
X189000D02*
D03*
X132395D02*
D03*
X138300D02*
D03*
X139753Y-152500D02*
D03*
X133847D02*
D03*
X138153Y-266900D02*
D03*
X132247D02*
D03*
X117100Y-255105D02*
D03*
X111195D02*
D03*
X163206Y-286100D02*
D03*
X157300D02*
D03*
D25*
X161691Y-177400D02*
D03*
X148109D02*
D03*
D26*
X259800Y-153900D02*
D03*
Y-167300D02*
D03*
D27*
X217557Y-242500D02*
D03*
X224643D02*
D03*
X100543Y-239600D02*
D03*
X93457D02*
D03*
X217557Y-272500D02*
D03*
X224643D02*
D03*
X100543D02*
D03*
X93457D02*
D03*
D28*
X148600Y-242500D02*
D03*
Y-247500D02*
D03*
Y-252500D02*
D03*
Y-257500D02*
D03*
Y-262500D02*
D03*
Y-267500D02*
D03*
Y-272500D02*
D03*
X170057D02*
D03*
Y-267500D02*
D03*
Y-262500D02*
D03*
Y-257500D02*
D03*
Y-252500D02*
D03*
Y-247500D02*
D03*
Y-242500D02*
D03*
D45*
X107100Y-189204D02*
D03*
Y-170700D02*
D03*
Y-152196D02*
D03*
X57100Y-180700D02*
D03*
Y-160700D02*
D03*
D46*
X281500Y-57131D02*
D03*
D47*
Y-133116D02*
D03*
Y-209100D02*
D03*
Y-285084D02*
D03*
X62563D02*
D03*
Y-209100D02*
D03*
Y-133116D02*
D03*
Y-57131D02*
D03*
D48*
X8700Y-236000D02*
D03*
D49*
Y-226000D02*
D03*
D50*
X217700Y-134100D02*
D03*
X274100Y-97900D02*
D03*
X176100Y-66700D02*
D03*
X220200Y-250500D02*
D03*
X165100Y-168800D02*
D03*
X169200Y-39700D02*
D03*
X119400Y-29000D02*
D03*
X200000Y-88200D02*
D03*
X179300Y-80400D02*
D03*
X128900Y-104500D02*
D03*
X97900Y-166200D02*
D03*
X85500Y-126700D02*
D03*
X117600Y-263800D02*
D03*
X135000Y-161800D02*
D03*
X245800Y-157000D02*
D03*
X96700Y-279200D02*
D03*
X140500Y-256900D02*
D03*
X185500Y-223100D02*
D03*
X206600Y-248300D02*
D03*
X157500Y-263600D02*
D03*
X169500Y-286000D02*
D03*
X203600Y-266000D02*
D03*
X152300Y-280400D02*
D03*
M02*
