G04*
G04 #@! TF.GenerationSoftware,Altium Limited,Altium Designer,22.2.1 (43)*
G04*
G04 Layer_Color=32768*
%FSLAX25Y25*%
%MOIN*%
G70*
G04*
G04 #@! TF.SameCoordinates,A16DD8FB-6A98-4827-84FE-9053A31DE0B6*
G04*
G04*
G04 #@! TF.FilePolarity,Positive*
G04*
G01*
G75*
%ADD11C,0.00394*%
%ADD12C,0.00600*%
%ADD52C,0.00197*%
G36*
X148290Y-179583D02*
X144921D01*
Y-175217D01*
X148290D01*
Y-173742D01*
X161510D01*
Y-175217D01*
X164879D01*
Y-179583D01*
X161510D01*
Y-181058D01*
X148290D01*
Y-179583D01*
D02*
G37*
G36*
X264050Y-172000D02*
Y-172600D01*
X255550D01*
Y-172000D01*
X253300D01*
Y-149200D01*
X255550D01*
Y-148600D01*
X264050D01*
Y-149200D01*
X266300D01*
Y-172000D01*
X264050D01*
D02*
G37*
G36*
X230414Y-94200D02*
X224600D01*
Y-51400D01*
X268800D01*
Y-94200D01*
X262986D01*
Y-118700D01*
X230414D01*
Y-94200D01*
D02*
G37*
D11*
X1746Y-197669D02*
Y-143731D01*
X117336D01*
Y-197669D02*
Y-143731D01*
X1746Y-197669D02*
X117336D01*
X202560Y-140189D02*
X210040D01*
X202560Y-124441D02*
X210040D01*
X202560Y-140189D02*
Y-124441D01*
X210040Y-140189D02*
Y-124441D01*
X206300Y-134283D02*
Y-130347D01*
X204331Y-132315D02*
X208268D01*
X224660Y-123941D02*
X232140D01*
X224660Y-139689D02*
X232140D01*
Y-123941D01*
X224660Y-139689D02*
Y-123941D01*
X228400Y-133783D02*
Y-129847D01*
X226431Y-131815D02*
X230368D01*
X248932Y-132100D02*
X252869D01*
X250900Y-134069D02*
Y-130131D01*
X247160Y-139974D02*
Y-124226D01*
X254640Y-139974D02*
Y-124226D01*
X247160Y-139974D02*
X254640D01*
X247160Y-124226D02*
X254640D01*
X81235Y-54928D02*
X85565D01*
X81235Y-64377D02*
X85565D01*
Y-54928D01*
X81235Y-64377D02*
Y-54928D01*
X83400Y-61523D02*
Y-57783D01*
X81530Y-59653D02*
X85270D01*
X81235Y-77323D02*
X85565D01*
X81235Y-86772D02*
X85565D01*
Y-77323D01*
X81235Y-86772D02*
Y-77323D01*
X83400Y-83917D02*
Y-80177D01*
X81530Y-82047D02*
X85270D01*
X164154Y-91832D02*
X183446D01*
Y-108368D02*
Y-91832D01*
X164154Y-108368D02*
X183446D01*
X164154D02*
Y-91832D01*
X82015Y-41969D02*
Y-38032D01*
X80046Y-40000D02*
X83983D01*
X74141Y-43740D02*
X89889D01*
X74141Y-36260D02*
X89889D01*
Y-43740D02*
Y-36260D01*
X74141Y-43740D02*
Y-36260D01*
X152900Y-39968D02*
Y-36031D01*
X150932Y-38000D02*
X154868D01*
X145026Y-41740D02*
X160774D01*
X145026Y-34260D02*
X160774D01*
Y-41740D02*
Y-34260D01*
X145026Y-41740D02*
Y-34260D01*
X119009Y-91700D02*
X122946D01*
X120977Y-93669D02*
Y-89732D01*
X117237Y-99574D02*
Y-83826D01*
X124717Y-99574D02*
Y-83826D01*
X117237Y-99574D02*
X124717D01*
X117237Y-83826D02*
X124717D01*
X104985Y-33169D02*
Y-29232D01*
X103016Y-31200D02*
X106954D01*
X97111Y-34940D02*
X112859D01*
X97111Y-27460D02*
X112859D01*
Y-34940D02*
Y-27460D01*
X97111Y-34940D02*
Y-27460D01*
X184076Y-58265D02*
Y-53935D01*
X193524Y-58265D02*
Y-53935D01*
X184076D02*
X193524D01*
X184076Y-58265D02*
X193524D01*
X186930Y-56100D02*
X190670D01*
X188800Y-57970D02*
Y-54230D01*
X201276Y-53865D02*
Y-49535D01*
X210724Y-53865D02*
Y-49535D01*
X201276D02*
X210724D01*
X201276Y-53865D02*
X210724D01*
X204130Y-51700D02*
X207870D01*
X206000Y-53570D02*
Y-49830D01*
X140000Y-79568D02*
Y-75631D01*
X138031Y-77600D02*
X141969D01*
X132126Y-73860D02*
X147874D01*
X132126Y-81340D02*
X147874D01*
X132126D02*
Y-73860D01*
X147874Y-81340D02*
Y-73860D01*
X161100Y-79568D02*
Y-75631D01*
X159132Y-77600D02*
X163068D01*
X153226Y-73860D02*
X168974D01*
X153226Y-81340D02*
X168974D01*
X153226D02*
Y-73860D01*
X168974Y-81340D02*
Y-73860D01*
X210677Y-69065D02*
Y-64735D01*
X201228Y-69065D02*
Y-64735D01*
Y-69065D02*
X210677D01*
X201228Y-64735D02*
X210677D01*
X204083Y-66900D02*
X207823D01*
X205953Y-68770D02*
Y-65030D01*
X205631Y-100200D02*
X209569D01*
X207600Y-102169D02*
Y-98232D01*
X203860Y-108074D02*
Y-92326D01*
X211340Y-108074D02*
Y-92326D01*
X203860Y-108074D02*
X211340D01*
X203860Y-92326D02*
X211340D01*
X188031Y-99600D02*
X191969D01*
X190000Y-101568D02*
Y-97632D01*
X186260Y-107474D02*
Y-91726D01*
X193740Y-107474D02*
Y-91726D01*
X186260Y-107474D02*
X193740D01*
X186260Y-91726D02*
X193740D01*
X171685Y-230569D02*
Y-226631D01*
X169717Y-228600D02*
X173653D01*
X163811Y-232340D02*
X179559D01*
X163811Y-224860D02*
X179559D01*
Y-232340D02*
Y-224860D01*
X163811Y-232340D02*
Y-224860D01*
X196677Y-244065D02*
Y-239735D01*
X187228Y-244065D02*
Y-239735D01*
Y-244065D02*
X196677D01*
X187228Y-239735D02*
X196677D01*
X190083Y-241900D02*
X193823D01*
X191953Y-243770D02*
Y-240030D01*
X122276Y-242865D02*
Y-238535D01*
X131724Y-242865D02*
Y-238535D01*
X122276D02*
X131724D01*
X122276Y-242865D02*
X131724D01*
X125130Y-240700D02*
X128870D01*
X127000Y-242570D02*
Y-238830D01*
X161100Y-58669D02*
Y-54732D01*
X159132Y-56700D02*
X163068D01*
X153226Y-60440D02*
X168974D01*
X153226Y-52960D02*
X168974D01*
Y-60440D02*
Y-52960D01*
X153226Y-60440D02*
Y-52960D01*
X154732Y-99400D02*
X158668D01*
X156700Y-101368D02*
Y-97431D01*
X160440Y-107274D02*
Y-91526D01*
X152960Y-107274D02*
Y-91526D01*
X160440D01*
X152960Y-107274D02*
X160440D01*
X196677Y-274665D02*
Y-270335D01*
X187228Y-274665D02*
Y-270335D01*
Y-274665D02*
X196677D01*
X187228Y-270335D02*
X196677D01*
X190083Y-272500D02*
X193823D01*
X191953Y-274370D02*
Y-270630D01*
X130623Y-274665D02*
Y-270335D01*
X140072Y-274665D02*
Y-270335D01*
X130623D02*
X140072D01*
X130623Y-274665D02*
X140072D01*
X133477Y-272500D02*
X137217D01*
X135347Y-274370D02*
Y-270630D01*
X141524Y-154665D02*
Y-150335D01*
X132076Y-154665D02*
Y-150335D01*
Y-154665D02*
X141524D01*
X132076Y-150335D02*
X141524D01*
X134930Y-152500D02*
X138670D01*
X136800Y-154370D02*
Y-150630D01*
X139924Y-269065D02*
Y-264735D01*
X130476Y-269065D02*
Y-264735D01*
Y-269065D02*
X139924D01*
X130476Y-264735D02*
X139924D01*
X133330Y-266900D02*
X137070D01*
X135200Y-268770D02*
Y-265030D01*
X118872Y-257271D02*
Y-252940D01*
X109423Y-257271D02*
Y-252940D01*
Y-257271D02*
X118872D01*
X109423Y-252940D02*
X118872D01*
X112277Y-255105D02*
X116017D01*
X114147Y-256976D02*
Y-253235D01*
X131335Y-262783D02*
X135665D01*
X131335Y-253334D02*
X135665D01*
X131335Y-262783D02*
Y-253334D01*
X135665Y-262783D02*
Y-253334D01*
X133500Y-259928D02*
Y-256188D01*
X131630Y-258058D02*
X135370D01*
X164977Y-288265D02*
Y-283935D01*
X155528Y-288265D02*
Y-283935D01*
Y-288265D02*
X164977D01*
X155528Y-283935D02*
X164977D01*
X158383Y-286100D02*
X162123D01*
X160253Y-287970D02*
Y-284230D01*
X190235Y-258676D02*
X194565D01*
X190235Y-268124D02*
X194565D01*
Y-258676D01*
X190235Y-268124D02*
Y-258676D01*
X192400Y-265270D02*
Y-261530D01*
X190530Y-263400D02*
X194270D01*
X207835Y-253334D02*
X212165D01*
X207835Y-262783D02*
X212165D01*
Y-253334D01*
X207835Y-262783D02*
Y-253334D01*
X210000Y-259928D02*
Y-256188D01*
X208130Y-258058D02*
X211870D01*
X190335Y-256877D02*
X194665D01*
X190335Y-247428D02*
X194665D01*
X190335Y-256877D02*
Y-247428D01*
X194665Y-256877D02*
Y-247428D01*
X192500Y-254023D02*
Y-250283D01*
X190630Y-252153D02*
X194370D01*
D12*
X224600Y-94200D02*
X230414D01*
Y-118700D02*
Y-94200D01*
Y-118700D02*
X262986D01*
Y-94200D01*
X268800D01*
Y-51400D01*
X224600D02*
X268800D01*
X224600Y-94200D02*
Y-51400D01*
X148290Y-181058D02*
X161510D01*
Y-179583D01*
Y-175217D02*
Y-173742D01*
X148290D02*
X161510D01*
X148290Y-175217D02*
Y-173742D01*
Y-181058D02*
Y-179583D01*
X144921D02*
X148290D01*
X161510D02*
X164879D01*
Y-175217D01*
X161510D02*
X164879D01*
X144921D02*
X148290D01*
X144921Y-179583D02*
Y-175217D01*
X266300Y-172000D02*
Y-149200D01*
X264050D02*
X266300D01*
X253300D02*
X255550D01*
X253300Y-172000D02*
Y-149200D01*
Y-172000D02*
X255550D01*
X264050D02*
X266300D01*
X264050Y-172600D02*
Y-172000D01*
Y-149200D02*
Y-148600D01*
X255550D02*
X264050D01*
X255550Y-149200D02*
Y-148600D01*
Y-172600D02*
Y-172000D01*
Y-172600D02*
X264050D01*
D52*
X184376Y-69832D02*
X194022D01*
Y-77706D02*
Y-69832D01*
X184376Y-77706D02*
X194022D01*
X184376D02*
Y-69832D01*
X95635Y-69427D02*
X124965D01*
X95635D02*
Y-47773D01*
X124965D01*
Y-69427D02*
Y-47773D01*
X16559Y-13942D02*
X327504D01*
X16559Y-328273D02*
Y-13942D01*
Y-328273D02*
X327504D01*
Y-13942D01*
X213816Y-237972D02*
X228383D01*
Y-247028D02*
Y-237972D01*
X213816Y-247028D02*
X228383D01*
X213816D02*
Y-237972D01*
X144565Y-239291D02*
X174092D01*
Y-275709D02*
Y-239291D01*
X144565Y-275709D02*
X174092D01*
X144565D02*
Y-239291D01*
X89717Y-244128D02*
X104283D01*
X89717D02*
Y-235072D01*
X104283D01*
Y-244128D02*
Y-235072D01*
X213816Y-267972D02*
X228383D01*
Y-277028D02*
Y-267972D01*
X213816Y-277028D02*
X228383D01*
X213816D02*
Y-267972D01*
X89717Y-277028D02*
X104283D01*
X89717D02*
Y-267972D01*
X104283D01*
Y-277028D02*
Y-267972D01*
M02*
