G04*
G04 #@! TF.GenerationSoftware,Altium Limited,Altium Designer,22.2.1 (43)*
G04*
G04 Layer_Color=65535*
%FSLAX25Y25*%
%MOIN*%
G70*
G04*
G04 #@! TF.SameCoordinates,25FD953E-0423-46DE-AFBE-3E94C057B6CD*
G04*
G04*
G04 #@! TF.FilePolarity,Positive*
G04*
G01*
G75*
%ADD10C,0.00787*%
%ADD11C,0.00394*%
%ADD12C,0.00600*%
%ADD13C,0.01000*%
%ADD14C,0.00300*%
D10*
X114974Y-201498D02*
G03*
X114974Y-200710I0J394D01*
G01*
D02*
G03*
X114974Y-201498I0J-394D01*
G01*
X117977Y-80658D02*
X123981D01*
X203347Y-145790D02*
Y-142640D01*
X209253Y-145790D02*
Y-142640D01*
X231353Y-145290D02*
Y-142140D01*
X225447Y-145290D02*
Y-142140D01*
X247947Y-145575D02*
Y-142425D01*
X253853Y-145575D02*
Y-142425D01*
X84778Y-72340D02*
Y-70765D01*
X82022Y-72340D02*
Y-70765D01*
X84778Y-94735D02*
Y-93160D01*
X82022Y-94735D02*
Y-93160D01*
X173800Y-115937D02*
Y-108063D01*
X188215Y-82519D02*
X190183D01*
Y-88818D02*
Y-82519D01*
X188215Y-88818D02*
X190183D01*
X188215D02*
Y-82519D01*
X184967Y-82125D02*
X186837D01*
X80440Y-54853D02*
X83590D01*
X80440Y-48947D02*
X83590D01*
X151325Y-52853D02*
X154475D01*
X151325Y-46947D02*
X154475D01*
X118024Y-105175D02*
Y-102025D01*
X123930Y-105175D02*
Y-102025D01*
X103410Y-46053D02*
X106560D01*
X103410Y-40147D02*
X106560D01*
X188013Y-66622D02*
X189587D01*
X188013Y-69378D02*
X189587D01*
X205213Y-62222D02*
X206787D01*
X205213Y-64978D02*
X206787D01*
X138425Y-86547D02*
X141575D01*
X138425Y-92453D02*
X141575D01*
X159525Y-86547D02*
X162675D01*
X159525Y-92453D02*
X162675D01*
X205165Y-80178D02*
X206740D01*
X205165Y-77422D02*
X206740D01*
X204647Y-113675D02*
Y-110525D01*
X210553Y-113675D02*
Y-110525D01*
X187047Y-113075D02*
Y-109925D01*
X192953Y-113075D02*
Y-109925D01*
X170110Y-243453D02*
X173260D01*
X170110Y-237547D02*
X173260D01*
X13700Y-252900D02*
Y-232900D01*
X3700D02*
X13700D01*
X3700Y-252900D02*
Y-232900D01*
Y-252900D02*
X13700D01*
X214210Y-250266D02*
X224643D01*
X214210Y-258534D02*
Y-250266D01*
Y-258534D02*
X224643D01*
X153029Y-252372D02*
X165628D01*
Y-286428D02*
Y-252372D01*
X153029Y-286428D02*
X165628D01*
X153029D02*
Y-252372D01*
X145549Y-251743D02*
X151651D01*
X93457Y-255634D02*
X103890D01*
Y-247366D01*
X93457D02*
X103890D01*
X191165Y-255178D02*
X192740D01*
X191165Y-252422D02*
X192740D01*
X126213Y-251222D02*
X127787D01*
X126213Y-253978D02*
X127787D01*
X159525Y-71553D02*
X162675D01*
X159525Y-65647D02*
X162675D01*
X159653Y-112875D02*
Y-109725D01*
X153747Y-112875D02*
Y-109725D01*
X214210Y-280266D02*
X224643D01*
X214210Y-288534D02*
Y-280266D01*
Y-288534D02*
X224643D01*
X191165Y-285778D02*
X192740D01*
X191165Y-283022D02*
X192740D01*
X93457Y-288534D02*
X103890D01*
Y-280266D01*
X93457D02*
X103890D01*
X134560Y-283022D02*
X136135D01*
X134560Y-285778D02*
X136135D01*
X136013Y-165778D02*
X137587D01*
X136013Y-163022D02*
X137587D01*
X134413Y-280178D02*
X135987D01*
X134413Y-277422D02*
X135987D01*
X113360Y-268384D02*
X114935D01*
X113360Y-265628D02*
X114935D01*
X132122Y-270746D02*
Y-269171D01*
X134878Y-270746D02*
Y-269171D01*
X159465Y-299378D02*
X161040D01*
X159465Y-296622D02*
X161040D01*
X193778Y-276087D02*
Y-274513D01*
X191022Y-276087D02*
Y-274513D01*
X211378Y-270746D02*
Y-269171D01*
X208622Y-270746D02*
Y-269171D01*
X191122Y-264840D02*
Y-263265D01*
X193878Y-264840D02*
Y-263265D01*
D11*
X57100Y-162915D02*
Y-157600D01*
X92139D01*
Y-207600D02*
Y-157600D01*
X57100Y-207600D02*
X92139D01*
X57100D02*
Y-202285D01*
Y-184175D02*
Y-181025D01*
D12*
X261886Y-114400D02*
Y-106410D01*
X255193Y-114400D02*
Y-106410D01*
X248500Y-114400D02*
Y-106410D01*
X241807Y-114400D02*
Y-106410D01*
X235114Y-114400D02*
Y-106410D01*
X258286Y-114400D02*
Y-106410D01*
X251593Y-114400D02*
Y-106410D01*
X244900Y-114400D02*
Y-106410D01*
X238207Y-114400D02*
Y-106410D01*
X231514Y-114400D02*
Y-106410D01*
X148790Y-186143D02*
X161010D01*
X148790Y-192457D02*
X161010D01*
X264360Y-183400D02*
X265800D01*
X253800D02*
X255240D01*
X253800D02*
Y-161600D01*
X264360D02*
X265800D01*
Y-183400D02*
Y-161600D01*
X257300Y-185900D02*
X262300D01*
X259800Y-188900D02*
X260300Y-185900D01*
X259800Y-188900D02*
X260800Y-185900D01*
X259800Y-188900D02*
X261300Y-185900D01*
X259800Y-188900D02*
X261800Y-185900D01*
X259800Y-188900D02*
X262300Y-185900D01*
X259300D02*
X259800Y-188900D01*
X258800Y-185900D02*
X259800Y-188900D01*
X258300Y-185900D02*
X259800Y-188900D01*
X257800Y-185900D02*
X259800Y-188900D01*
X257300Y-185900D02*
X259800Y-188900D01*
X257300D02*
X262300D01*
X259800Y-189900D02*
Y-184900D01*
X253800Y-161600D02*
X255240D01*
D13*
X96500Y-50602D02*
X98499D01*
X97500D01*
Y-56600D01*
X96500D01*
X98499D01*
X105497Y-51602D02*
X104497Y-50602D01*
X102498D01*
X101498Y-51602D01*
Y-55600D01*
X102498Y-56600D01*
X104497D01*
X105497Y-55600D01*
X111495Y-56600D02*
X107496D01*
X111495Y-52601D01*
Y-51602D01*
X110495Y-50602D01*
X108496D01*
X107496Y-51602D01*
X260001Y-148499D02*
X259001Y-149499D01*
Y-151498D01*
X260001Y-152498D01*
X263999D01*
X264999Y-151498D01*
Y-149499D01*
X263999Y-148499D01*
X264999Y-146500D02*
Y-144500D01*
Y-145500D01*
X259001D01*
X260001Y-146500D01*
X264999Y-138502D02*
X259001D01*
X262000Y-141501D01*
Y-137502D01*
X225801Y-53001D02*
Y-57999D01*
X226801Y-58999D01*
X228800D01*
X229800Y-57999D01*
Y-53001D01*
X231799Y-58999D02*
X233799D01*
X232799D01*
Y-53001D01*
X231799Y-54001D01*
X223201Y-156601D02*
X222201Y-155601D01*
X220202D01*
X219202Y-156601D01*
Y-160599D01*
X220202Y-161599D01*
X222201D01*
X223201Y-160599D01*
X225201Y-161599D02*
X227200D01*
X226200D01*
Y-155601D01*
X225201Y-156601D01*
X230199D02*
X231199Y-155601D01*
X233198D01*
X234198Y-156601D01*
Y-157600D01*
X233198Y-158600D01*
X232198D01*
X233198D01*
X234198Y-159600D01*
Y-160599D01*
X233198Y-161599D01*
X231199D01*
X230199Y-160599D01*
X199501Y-155701D02*
X198502Y-154701D01*
X196502D01*
X195502Y-155701D01*
Y-159699D01*
X196502Y-160699D01*
X198502D01*
X199501Y-159699D01*
X201501Y-160699D02*
X203500D01*
X202500D01*
Y-154701D01*
X201501Y-155701D01*
X210498Y-160699D02*
X206499D01*
X210498Y-156700D01*
Y-155701D01*
X209498Y-154701D01*
X207499D01*
X206499Y-155701D01*
X78902Y-64299D02*
Y-58301D01*
X81901D01*
X82900Y-59301D01*
Y-61300D01*
X81901Y-62300D01*
X78902D01*
X80901D02*
X82900Y-64299D01*
X88898Y-58301D02*
X84900D01*
Y-61300D01*
X86899Y-60300D01*
X87899D01*
X88898Y-61300D01*
Y-63299D01*
X87899Y-64299D01*
X85899D01*
X84900Y-63299D01*
X79302Y-86399D02*
Y-80401D01*
X82301D01*
X83300Y-81401D01*
Y-83400D01*
X82301Y-84400D01*
X79302D01*
X81301D02*
X83300Y-86399D01*
X88299D02*
Y-80401D01*
X85300Y-83400D01*
X89298D01*
X202000Y-73400D02*
Y-67402D01*
X204999D01*
X205999Y-68402D01*
Y-70401D01*
X204999Y-71401D01*
X202000D01*
X203999D02*
X205999Y-73400D01*
X207998Y-68402D02*
X208998Y-67402D01*
X210997D01*
X211997Y-68402D01*
Y-69401D01*
X210997Y-70401D01*
X209997D01*
X210997D01*
X211997Y-71401D01*
Y-72400D01*
X210997Y-73400D01*
X208998D01*
X207998Y-72400D01*
X202100Y-58200D02*
Y-52202D01*
X205099D01*
X206099Y-53202D01*
Y-55201D01*
X205099Y-56201D01*
X202100D01*
X204099D02*
X206099Y-58200D01*
X212097D02*
X208098D01*
X212097Y-54201D01*
Y-53202D01*
X211097Y-52202D01*
X209098D01*
X208098Y-53202D01*
X184900Y-62600D02*
Y-56602D01*
X187899D01*
X188899Y-57602D01*
Y-59601D01*
X187899Y-60601D01*
X184900D01*
X186899D02*
X188899Y-62600D01*
X190898D02*
X192897D01*
X191898D01*
Y-56602D01*
X190898Y-57602D01*
X169801Y-96101D02*
Y-102099D01*
X173800D01*
X175799D02*
X177799D01*
X176799D01*
Y-96101D01*
X175799Y-97101D01*
X182402Y-73401D02*
X184402D01*
X183402D01*
Y-79399D01*
X182402D01*
X184402D01*
X191400Y-74401D02*
X190400Y-73401D01*
X188400D01*
X187401Y-74401D01*
Y-78399D01*
X188400Y-79399D01*
X190400D01*
X191400Y-78399D01*
X193399Y-74401D02*
X194399Y-73401D01*
X196398D01*
X197398Y-74401D01*
Y-75400D01*
X196398Y-76400D01*
X195398D01*
X196398D01*
X197398Y-77400D01*
Y-78399D01*
X196398Y-79399D01*
X194399D01*
X193399Y-78399D01*
X101899Y-31202D02*
X100899Y-30202D01*
X98900D01*
X97900Y-31202D01*
Y-35200D01*
X98900Y-36200D01*
X100899D01*
X101899Y-35200D01*
X103898Y-36200D02*
X105897D01*
X104898D01*
Y-30202D01*
X103898Y-31202D01*
X108896Y-36200D02*
X110896D01*
X109896D01*
Y-30202D01*
X108896Y-31202D01*
X149799Y-38002D02*
X148799Y-37002D01*
X146800D01*
X145800Y-38002D01*
Y-42000D01*
X146800Y-43000D01*
X148799D01*
X149799Y-42000D01*
X151798Y-43000D02*
X153797D01*
X152798D01*
Y-37002D01*
X151798Y-38002D01*
X156796D02*
X157796Y-37002D01*
X159795D01*
X160795Y-38002D01*
Y-42000D01*
X159795Y-43000D01*
X157796D01*
X156796Y-42000D01*
Y-38002D01*
X121999Y-87502D02*
X120999Y-86502D01*
X119000D01*
X118000Y-87502D01*
Y-91500D01*
X119000Y-92500D01*
X120999D01*
X121999Y-91500D01*
X123998D02*
X124998Y-92500D01*
X126997D01*
X127997Y-91500D01*
Y-87502D01*
X126997Y-86502D01*
X124998D01*
X123998Y-87502D01*
Y-88501D01*
X124998Y-89501D01*
X127997D01*
X208699Y-96002D02*
X207699Y-95002D01*
X205700D01*
X204700Y-96002D01*
Y-100000D01*
X205700Y-101000D01*
X207699D01*
X208699Y-100000D01*
X210698Y-96002D02*
X211698Y-95002D01*
X213697D01*
X214697Y-96002D01*
Y-97001D01*
X213697Y-98001D01*
X214697Y-99001D01*
Y-100000D01*
X213697Y-101000D01*
X211698D01*
X210698Y-100000D01*
Y-99001D01*
X211698Y-98001D01*
X210698Y-97001D01*
Y-96002D01*
X211698Y-98001D02*
X213697D01*
X191099Y-95402D02*
X190099Y-94402D01*
X188100D01*
X187100Y-95402D01*
Y-99400D01*
X188100Y-100400D01*
X190099D01*
X191099Y-99400D01*
X193098Y-94402D02*
X197097D01*
Y-95402D01*
X193098Y-99400D01*
Y-100400D01*
X78899Y-40002D02*
X77899Y-39002D01*
X75900D01*
X74900Y-40002D01*
Y-44000D01*
X75900Y-45000D01*
X77899D01*
X78899Y-44000D01*
X84897Y-39002D02*
X82897Y-40002D01*
X80898Y-42001D01*
Y-44000D01*
X81898Y-45000D01*
X83897D01*
X84897Y-44000D01*
Y-43001D01*
X83897Y-42001D01*
X80898D01*
X136899Y-77602D02*
X135899Y-76602D01*
X133900D01*
X132900Y-77602D01*
Y-81600D01*
X133900Y-82600D01*
X135899D01*
X136899Y-81600D01*
X138898Y-77602D02*
X139898Y-76602D01*
X141897D01*
X142897Y-77602D01*
Y-78601D01*
X141897Y-79601D01*
X140897D01*
X141897D01*
X142897Y-80601D01*
Y-81600D01*
X141897Y-82600D01*
X139898D01*
X138898Y-81600D01*
X157999Y-77602D02*
X156999Y-76602D01*
X155000D01*
X154000Y-77602D01*
Y-81600D01*
X155000Y-82600D01*
X156999D01*
X157999Y-81600D01*
X163997Y-82600D02*
X159998D01*
X163997Y-78601D01*
Y-77602D01*
X162997Y-76602D01*
X160998D01*
X159998Y-77602D01*
X168599Y-228602D02*
X167599Y-227602D01*
X165600D01*
X164600Y-228602D01*
Y-232600D01*
X165600Y-233600D01*
X167599D01*
X168599Y-232600D01*
X170598Y-233600D02*
X172597D01*
X171598D01*
Y-227602D01*
X170598Y-228602D01*
X275799Y-169301D02*
X276799Y-168302D01*
Y-166302D01*
X275799Y-165303D01*
X271801D01*
X270801Y-166302D01*
Y-168302D01*
X271801Y-169301D01*
X270801Y-171301D02*
X276799D01*
Y-174300D01*
X275799Y-175299D01*
X273800D01*
X272800Y-174300D01*
Y-171301D01*
Y-173300D02*
X270801Y-175299D01*
Y-181297D02*
Y-177299D01*
X274800Y-181297D01*
X275799D01*
X276799Y-180298D01*
Y-178298D01*
X275799Y-177299D01*
X173148Y-190349D02*
X174148Y-189349D01*
Y-187350D01*
X173148Y-186350D01*
X169150D01*
X168150Y-187350D01*
Y-189349D01*
X169150Y-190349D01*
X168150Y-192348D02*
X174148D01*
Y-195347D01*
X173148Y-196347D01*
X171149D01*
X170149Y-195347D01*
Y-192348D01*
Y-194347D02*
X168150Y-196347D01*
Y-198346D02*
Y-200345D01*
Y-199346D01*
X174148D01*
X173148Y-198346D01*
X8301Y-218100D02*
X7301Y-219100D01*
Y-221099D01*
X8301Y-222099D01*
X9300D01*
X10300Y-221099D01*
Y-219100D01*
X11300Y-218100D01*
X12299D01*
X13299Y-219100D01*
Y-221099D01*
X12299Y-222099D01*
X13299Y-216101D02*
Y-214101D01*
Y-215101D01*
X7301D01*
X8301Y-216101D01*
X196501Y-258303D02*
X202499D01*
Y-261302D01*
X201499Y-262301D01*
X199500D01*
X198500Y-261302D01*
Y-258303D01*
Y-260302D02*
X196501Y-262301D01*
Y-268299D02*
Y-264301D01*
X200500Y-268299D01*
X201499D01*
X202499Y-267300D01*
Y-265300D01*
X201499Y-264301D01*
X196501Y-273298D02*
X202499D01*
X199500Y-270299D01*
Y-274297D01*
X215503Y-273299D02*
Y-267301D01*
X218502D01*
X219501Y-268301D01*
Y-270300D01*
X218502Y-271300D01*
X215503D01*
X217502D02*
X219501Y-273299D01*
X225499D02*
X221501D01*
X225499Y-269300D01*
Y-268301D01*
X224500Y-267301D01*
X222500D01*
X221501Y-268301D01*
X227499D02*
X228498Y-267301D01*
X230498D01*
X231497Y-268301D01*
Y-269300D01*
X230498Y-270300D01*
X229498D01*
X230498D01*
X231497Y-271300D01*
Y-272299D01*
X230498Y-273299D01*
X228498D01*
X227499Y-272299D01*
X185299Y-283997D02*
X179301D01*
Y-280998D01*
X180301Y-279999D01*
X182300D01*
X183300Y-280998D01*
Y-283997D01*
Y-281998D02*
X185299Y-279999D01*
Y-274001D02*
Y-277999D01*
X181300Y-274001D01*
X180301D01*
X179301Y-275000D01*
Y-277000D01*
X180301Y-277999D01*
X185299Y-268003D02*
Y-272001D01*
X181300Y-268003D01*
X180301D01*
X179301Y-269002D01*
Y-271002D01*
X180301Y-272001D01*
X166998Y-301401D02*
Y-307399D01*
X163999D01*
X162999Y-306399D01*
Y-304400D01*
X163999Y-303400D01*
X166998D01*
X164998D02*
X162999Y-301401D01*
X157001D02*
X161000D01*
X157001Y-305400D01*
Y-306399D01*
X158001Y-307399D01*
X160000D01*
X161000Y-306399D01*
X155002Y-301401D02*
X153002D01*
X154002D01*
Y-307399D01*
X155002Y-306399D01*
X126903Y-263499D02*
Y-257501D01*
X129902D01*
X130901Y-258501D01*
Y-260500D01*
X129902Y-261500D01*
X126903D01*
X128902D02*
X130901Y-263499D01*
X136899D02*
X132901D01*
X136899Y-259500D01*
Y-258501D01*
X135900Y-257501D01*
X133900D01*
X132901Y-258501D01*
X138899D02*
X139898Y-257501D01*
X141898D01*
X142897Y-258501D01*
Y-262499D01*
X141898Y-263499D01*
X139898D01*
X138899Y-262499D01*
Y-258501D01*
X104999Y-273398D02*
X99001D01*
Y-270398D01*
X100001Y-269399D01*
X102000D01*
X103000Y-270398D01*
Y-273398D01*
Y-271398D02*
X104999Y-269399D01*
Y-267400D02*
Y-265400D01*
Y-266400D01*
X99001D01*
X100001Y-267400D01*
X103999Y-262401D02*
X104999Y-261402D01*
Y-259402D01*
X103999Y-258402D01*
X100001D01*
X99001Y-259402D01*
Y-261402D01*
X100001Y-262401D01*
X101000D01*
X102000Y-261402D01*
Y-258402D01*
X127799Y-284298D02*
X121801D01*
Y-281298D01*
X122801Y-280299D01*
X124800D01*
X125800Y-281298D01*
Y-284298D01*
Y-282298D02*
X127799Y-280299D01*
Y-278299D02*
Y-276300D01*
Y-277300D01*
X121801D01*
X122801Y-278299D01*
Y-273301D02*
X121801Y-272302D01*
Y-270302D01*
X122801Y-269302D01*
X123800D01*
X124800Y-270302D01*
X125800Y-269302D01*
X126799D01*
X127799Y-270302D01*
Y-272302D01*
X126799Y-273301D01*
X125800D01*
X124800Y-272302D01*
X123800Y-273301D01*
X122801D01*
X124800Y-272302D02*
Y-270302D01*
X128850Y-165750D02*
X122852D01*
Y-162751D01*
X123852Y-161751D01*
X125851D01*
X126851Y-162751D01*
Y-165750D01*
Y-163751D02*
X128850Y-161751D01*
Y-159752D02*
Y-157753D01*
Y-158752D01*
X122852D01*
X123852Y-159752D01*
X122852Y-154754D02*
Y-150755D01*
X123852D01*
X127850Y-154754D01*
X128850D01*
X127202Y-293999D02*
Y-288001D01*
X130201D01*
X131201Y-289001D01*
Y-291000D01*
X130201Y-292000D01*
X127202D01*
X129202D02*
X131201Y-293999D01*
X133201D02*
X135200D01*
X134200D01*
Y-288001D01*
X133201Y-289001D01*
X142198Y-288001D02*
X140198Y-289001D01*
X138199Y-291000D01*
Y-292999D01*
X139199Y-293999D01*
X141198D01*
X142198Y-292999D01*
Y-292000D01*
X141198Y-291000D01*
X138199D01*
X196198Y-289601D02*
Y-295599D01*
X193199D01*
X192199Y-294599D01*
Y-292600D01*
X193199Y-291600D01*
X196198D01*
X194198D02*
X192199Y-289601D01*
X190199D02*
X188200D01*
X189200D01*
Y-295599D01*
X190199Y-294599D01*
X181202Y-295599D02*
X185201D01*
Y-292600D01*
X183202Y-293600D01*
X182202D01*
X181202Y-292600D01*
Y-290601D01*
X182202Y-289601D01*
X184201D01*
X185201Y-290601D01*
X184102Y-248499D02*
Y-242501D01*
X187101D01*
X188101Y-243501D01*
Y-245500D01*
X187101Y-246500D01*
X184102D01*
X186102D02*
X188101Y-248499D01*
X190101D02*
X192100D01*
X191100D01*
Y-242501D01*
X190101Y-243501D01*
X198098Y-248499D02*
Y-242501D01*
X195099Y-245500D01*
X199098D01*
X124202Y-247399D02*
Y-241401D01*
X127201D01*
X128201Y-242401D01*
Y-244400D01*
X127201Y-245400D01*
X124202D01*
X126202D02*
X128201Y-247399D01*
X130201D02*
X132200D01*
X131200D01*
Y-241401D01*
X130201Y-242401D01*
X135199D02*
X136199Y-241401D01*
X138198D01*
X139198Y-242401D01*
Y-243400D01*
X138198Y-244400D01*
X137198D01*
X138198D01*
X139198Y-245400D01*
Y-246399D01*
X138198Y-247399D01*
X136199D01*
X135199Y-246399D01*
X13050Y-256250D02*
Y-262248D01*
X10051D01*
X9051Y-261248D01*
Y-259249D01*
X10051Y-258249D01*
X13050D01*
X3053Y-256250D02*
X7052D01*
X3053Y-260249D01*
Y-261248D01*
X4053Y-262248D01*
X6052D01*
X7052Y-261248D01*
X109396Y-300899D02*
Y-294901D01*
X105398D01*
X99400Y-300899D02*
X103398D01*
Y-294901D01*
X99400D01*
X103398Y-297900D02*
X101399D01*
X97400Y-300899D02*
Y-294901D01*
X94401D01*
X93402Y-295901D01*
Y-299899D01*
X94401Y-300899D01*
X97400D01*
X91402Y-299899D02*
X90403Y-300899D01*
X88403D01*
X87404Y-299899D01*
Y-298900D01*
X88403Y-297900D01*
X87404Y-296900D01*
Y-295901D01*
X88403Y-294901D01*
X90403D01*
X91402Y-295901D01*
Y-296900D01*
X90403Y-297900D01*
X91402Y-298900D01*
Y-299899D01*
X90403Y-297900D02*
X88403D01*
X231696Y-297099D02*
Y-291101D01*
X227698D01*
X221700Y-297099D02*
X225698D01*
Y-291101D01*
X221700D01*
X225698Y-294100D02*
X223699D01*
X219700Y-297099D02*
Y-291101D01*
X216701D01*
X215702Y-292101D01*
Y-296099D01*
X216701Y-297099D01*
X219700D01*
X213702D02*
X209703D01*
Y-296099D01*
X213702Y-292101D01*
Y-291101D01*
X88104Y-238801D02*
Y-244799D01*
X92102D01*
X98100Y-238801D02*
X94102D01*
Y-244799D01*
X98100D01*
X94102Y-241800D02*
X96101D01*
X100100Y-238801D02*
Y-244799D01*
X103099D01*
X104098Y-243799D01*
Y-239801D01*
X103099Y-238801D01*
X100100D01*
X110097D02*
X108097Y-239801D01*
X106098Y-241800D01*
Y-243799D01*
X107097Y-244799D01*
X109097D01*
X110097Y-243799D01*
Y-242800D01*
X109097Y-241800D01*
X106098D01*
X210304Y-241401D02*
Y-247399D01*
X214302D01*
X220300Y-241401D02*
X216302D01*
Y-247399D01*
X220300D01*
X216302Y-244400D02*
X218301D01*
X222300Y-241401D02*
Y-247399D01*
X225299D01*
X226298Y-246399D01*
Y-242401D01*
X225299Y-241401D01*
X222300D01*
X232296D02*
X228298D01*
Y-244400D01*
X230297Y-243400D01*
X231297D01*
X232296Y-244400D01*
Y-246399D01*
X231297Y-247399D01*
X229297D01*
X228298Y-246399D01*
X145478Y-242052D02*
X147478D01*
X146478D01*
Y-248050D01*
X145478D01*
X147478D01*
X154475Y-243052D02*
X153476Y-242052D01*
X151476D01*
X150477Y-243052D01*
Y-247050D01*
X151476Y-248050D01*
X153476D01*
X154475Y-247050D01*
X156475Y-248050D02*
X158474D01*
X157475D01*
Y-242052D01*
X156475Y-243052D01*
X145601Y-112300D02*
X144601Y-113299D01*
Y-115299D01*
X145601Y-116298D01*
X149599D01*
X150599Y-115299D01*
Y-113299D01*
X149599Y-112300D01*
X144601Y-106302D02*
Y-110300D01*
X147600D01*
X146600Y-108301D01*
Y-107301D01*
X147600Y-106302D01*
X149599D01*
X150599Y-107301D01*
Y-109301D01*
X149599Y-110300D01*
X158300Y-58001D02*
X157301Y-57001D01*
X155301D01*
X154302Y-58001D01*
Y-61999D01*
X155301Y-62999D01*
X157301D01*
X158300Y-61999D01*
X163299Y-62999D02*
Y-57001D01*
X160300Y-60000D01*
X164298D01*
D14*
X226218Y-121035D02*
X229550Y-124367D01*
X226218D02*
X229550Y-121035D01*
X226218Y-122701D02*
X229550D01*
X227884Y-124367D02*
Y-121035D01*
X139700Y-187935D02*
X143032Y-191267D01*
X139700D02*
X143032Y-187935D01*
X139700Y-189601D02*
X143032D01*
X141366Y-191267D02*
Y-187935D01*
M02*
