M48
;Layer_Color=9474304
;FILE_FORMAT=2:5
INCH,TZ
;TYPE=PLATED
T1F00S00C0.02800
T2F00S00C0.03543
T3F00S00C0.08268
T4F00S00C0.12598
%
T01
X85000Y-294500
X117600Y-275700
X140500Y-268800
X157500Y-275500
X152300Y-292300
X169500Y-297900
X203600Y-277900
X206600Y-260200
X185500Y-235000
X220200Y-262400
X217700Y-146000
X245800Y-168900
X274100Y-109800
X200000Y-100100
X178900Y-94400
X171500Y-76900
X128900Y-116400
X89600Y-138600
X97900Y-178100
X135000Y-173700
X165100Y-180700
X169200Y-51600
X119400Y-40900
X65800Y-43800
T02
X8700Y-247900
Y-237900
T03
X57100Y-192600
Y-172600
X107100Y-164096
Y-182600
Y-201104
T04
X62563Y-296984
Y-221000
X281500
Y-296984
Y-145016
Y-69032
X62563
Y-145016
M30
