M48
;Layer_Color=9474304
;FILE_FORMAT=2:4
INCH,TZ
;TYPE=PLATED
T1F00S00C0.0280
T2F00S00C0.0354
T3F00S00C0.0827
T4F00S00C0.1260
%
T01
X9670Y-27920
X11760Y-26380
X14050Y-25690
X15750Y-26360
X15230Y-28040
X16950Y-28600
X20360Y-26600
X20660Y-24830
X18550Y-22310
X22020Y-25050
X21770Y-13410
X24580Y-15700
X27410Y-9790
X20000Y-8820
X17930Y-8040
X17610Y-6670
X12890Y-10450
X13500Y-16180
X16510Y-16880
X9790Y-16620
X8550Y-12670
X11940Y-2900
X16920Y-3970
T02
X870Y-23600
Y-22600
T03
X5710Y-18070
Y-16070
X10710Y-15220
Y-17070
Y-18920
T04
X6256Y-28508
Y-20910
X28150
Y-28508
Y-13312
Y-5713
X6256
Y-13312
M30
