G04*
G04 #@! TF.GenerationSoftware,Altium Limited,Altium Designer,22.2.1 (43)*
G04*
G04 Layer_Physical_Order=2*
G04 Layer_Color=16711680*
%FSLAX25Y25*%
%MOIN*%
G70*
G04*
G04 #@! TF.SameCoordinates,25FD953E-0423-46DE-AFBE-3E94C057B6CD*
G04*
G04*
G04 #@! TF.FilePolarity,Positive*
G04*
G01*
G75*
%ADD13C,0.01000*%
%ADD45C,0.03000*%
%ADD47C,0.12402*%
%ADD48R,0.18898X0.18898*%
%ADD49C,0.18898*%
%ADD50C,0.05906*%
%ADD51R,0.05906X0.05906*%
%ADD52C,0.05000*%
G36*
X354278Y-366478D02*
X1122D01*
Y-1122D01*
X354278D01*
Y-366478D01*
D02*
G37*
%LPC*%
G36*
X119900Y-37411D02*
Y-40400D01*
X122889D01*
X122661Y-39549D01*
X122201Y-38751D01*
X121549Y-38099D01*
X120751Y-37639D01*
X119900Y-37411D01*
D02*
G37*
G36*
X118900D02*
X118049Y-37639D01*
X117251Y-38099D01*
X116599Y-38751D01*
X116139Y-39549D01*
X115910Y-40400D01*
X118900D01*
Y-37411D01*
D02*
G37*
G36*
X122889Y-41400D02*
X119900D01*
Y-44390D01*
X120751Y-44161D01*
X121549Y-43701D01*
X122201Y-43049D01*
X122661Y-42251D01*
X122889Y-41400D01*
D02*
G37*
G36*
X118900D02*
X115910D01*
X116139Y-42251D01*
X116599Y-43049D01*
X117251Y-43701D01*
X118049Y-44161D01*
X118900Y-44390D01*
Y-41400D01*
D02*
G37*
G36*
X169700Y-48110D02*
Y-51100D01*
X172689D01*
X172461Y-50249D01*
X172001Y-49451D01*
X171349Y-48799D01*
X170551Y-48338D01*
X169700Y-48110D01*
D02*
G37*
G36*
X168700D02*
X167849Y-48338D01*
X167051Y-48799D01*
X166399Y-49451D01*
X165938Y-50249D01*
X165710Y-51100D01*
X168700D01*
Y-48110D01*
D02*
G37*
G36*
X172689Y-52100D02*
X169700D01*
Y-55089D01*
X170551Y-54861D01*
X171349Y-54401D01*
X172001Y-53749D01*
X172461Y-52951D01*
X172689Y-52100D01*
D02*
G37*
G36*
X168700D02*
X165710D01*
X165938Y-52951D01*
X166399Y-53749D01*
X167051Y-54401D01*
X167849Y-54861D01*
X168700Y-55089D01*
Y-52100D01*
D02*
G37*
G36*
X63385Y-58583D02*
X63063D01*
Y-68532D01*
X73012D01*
Y-68209D01*
X72755Y-66585D01*
X72246Y-65021D01*
X71500Y-63555D01*
X70533Y-62225D01*
X69370Y-61062D01*
X68039Y-60095D01*
X66574Y-59348D01*
X65010Y-58840D01*
X63385Y-58583D01*
D02*
G37*
G36*
X62063D02*
X61741D01*
X60116Y-58840D01*
X58552Y-59348D01*
X57087Y-60095D01*
X55756Y-61062D01*
X54593Y-62225D01*
X53626Y-63555D01*
X52880Y-65021D01*
X52372Y-66585D01*
X52114Y-68209D01*
Y-68532D01*
X62063D01*
Y-58583D01*
D02*
G37*
G36*
X291549Y-58983D02*
X271451D01*
Y-79080D01*
X291549D01*
Y-58983D01*
D02*
G37*
G36*
X73012Y-69532D02*
X63063D01*
Y-79480D01*
X63385D01*
X65010Y-79223D01*
X66574Y-78715D01*
X68039Y-77968D01*
X69370Y-77001D01*
X70533Y-75839D01*
X71500Y-74508D01*
X72246Y-73042D01*
X72755Y-71478D01*
X73012Y-69854D01*
Y-69532D01*
D02*
G37*
G36*
X62063D02*
X52114D01*
Y-69854D01*
X52372Y-71478D01*
X52880Y-73042D01*
X53626Y-74508D01*
X54593Y-75839D01*
X55756Y-77001D01*
X57087Y-77968D01*
X58552Y-78715D01*
X60116Y-79223D01*
X61741Y-79480D01*
X62063D01*
Y-69532D01*
D02*
G37*
G36*
X179400Y-90911D02*
Y-93900D01*
X182389D01*
X182161Y-93049D01*
X181701Y-92251D01*
X181049Y-91599D01*
X180251Y-91138D01*
X179400Y-90911D01*
D02*
G37*
G36*
X178400D02*
X177549Y-91138D01*
X176751Y-91599D01*
X176099Y-92251D01*
X175638Y-93049D01*
X175410Y-93900D01*
X178400D01*
Y-90911D01*
D02*
G37*
G36*
X182389Y-94900D02*
X179400D01*
Y-97890D01*
X180251Y-97662D01*
X181049Y-97201D01*
X181701Y-96549D01*
X182161Y-95751D01*
X182389Y-94900D01*
D02*
G37*
G36*
X178400D02*
X175410D01*
X175638Y-95751D01*
X176099Y-96549D01*
X176751Y-97201D01*
X177549Y-97662D01*
X178400Y-97890D01*
Y-94900D01*
D02*
G37*
G36*
X200500Y-96610D02*
Y-99600D01*
X203489D01*
X203261Y-98749D01*
X202801Y-97951D01*
X202149Y-97299D01*
X201351Y-96838D01*
X200500Y-96610D01*
D02*
G37*
G36*
X199500D02*
X198649Y-96838D01*
X197851Y-97299D01*
X197199Y-97951D01*
X196739Y-98749D01*
X196511Y-99600D01*
X199500D01*
Y-96610D01*
D02*
G37*
G36*
X203489Y-100600D02*
X200500D01*
Y-103589D01*
X201351Y-103361D01*
X202149Y-102901D01*
X202801Y-102249D01*
X203261Y-101451D01*
X203489Y-100600D01*
D02*
G37*
G36*
X171908Y-73800D02*
X171092D01*
X170303Y-74011D01*
X169597Y-74419D01*
X169019Y-74997D01*
X168611Y-75703D01*
X168400Y-76492D01*
Y-77308D01*
X168611Y-78097D01*
X169019Y-78803D01*
X169597Y-79381D01*
X170303Y-79789D01*
X171092Y-80000D01*
X171908D01*
X172697Y-79789D01*
X172764Y-79750D01*
X186611Y-93597D01*
Y-94333D01*
X186611Y-94333D01*
X186697Y-94762D01*
X186940Y-95126D01*
X202407Y-110593D01*
X202407Y-110593D01*
X202771Y-110836D01*
X203200Y-110922D01*
X271191D01*
X271211Y-110997D01*
X271619Y-111703D01*
X272197Y-112281D01*
X272903Y-112689D01*
X273692Y-112900D01*
X274508D01*
X275297Y-112689D01*
X276003Y-112281D01*
X276581Y-111703D01*
X276989Y-110997D01*
X277200Y-110208D01*
Y-109392D01*
X276989Y-108603D01*
X276581Y-107897D01*
X276003Y-107319D01*
X275297Y-106911D01*
X274508Y-106700D01*
X273692D01*
X272903Y-106911D01*
X272197Y-107319D01*
X271619Y-107897D01*
X271211Y-108603D01*
X271191Y-108678D01*
X203665D01*
X198944Y-103958D01*
X199203Y-103510D01*
X199500Y-103589D01*
Y-100600D01*
X196511D01*
X196590Y-100897D01*
X196142Y-101156D01*
X188854Y-93868D01*
Y-93133D01*
X188854Y-93133D01*
X188769Y-92703D01*
X188526Y-92340D01*
X188526Y-92340D01*
X174350Y-78164D01*
X174389Y-78097D01*
X174600Y-77308D01*
Y-76492D01*
X174389Y-75703D01*
X173981Y-74997D01*
X173403Y-74419D01*
X172697Y-74011D01*
X171908Y-73800D01*
D02*
G37*
G36*
X129400Y-112910D02*
Y-115900D01*
X132389D01*
X132161Y-115049D01*
X131701Y-114251D01*
X131049Y-113599D01*
X130251Y-113138D01*
X129400Y-112910D01*
D02*
G37*
G36*
X128400D02*
X127549Y-113138D01*
X126751Y-113599D01*
X126099Y-114251D01*
X125638Y-115049D01*
X125410Y-115900D01*
X128400D01*
Y-112910D01*
D02*
G37*
G36*
X132389Y-116900D02*
X129400D01*
Y-119889D01*
X130251Y-119661D01*
X131049Y-119201D01*
X131701Y-118549D01*
X132161Y-117751D01*
X132389Y-116900D01*
D02*
G37*
G36*
X128400D02*
X125410D01*
X125638Y-117751D01*
X126099Y-118549D01*
X126751Y-119201D01*
X127549Y-119661D01*
X128400Y-119889D01*
Y-116900D01*
D02*
G37*
G36*
X90100Y-135110D02*
Y-138100D01*
X93089D01*
X92861Y-137249D01*
X92401Y-136451D01*
X91749Y-135799D01*
X90951Y-135338D01*
X90100Y-135110D01*
D02*
G37*
G36*
X93089Y-139100D02*
X90100D01*
Y-142089D01*
X90951Y-141861D01*
X91749Y-141401D01*
X92401Y-140749D01*
X92861Y-139951D01*
X93089Y-139100D01*
D02*
G37*
G36*
X66208Y-40700D02*
X65392D01*
X64603Y-40911D01*
X63897Y-41319D01*
X63319Y-41897D01*
X62911Y-42603D01*
X62700Y-43392D01*
Y-44208D01*
X62911Y-44997D01*
X63319Y-45703D01*
X63897Y-46281D01*
X64603Y-46689D01*
X65392Y-46900D01*
X65872D01*
X82859Y-63887D01*
Y-273578D01*
X82397Y-273769D01*
X76701Y-268073D01*
X76006Y-267608D01*
X75187Y-267445D01*
X31273D01*
X12241Y-248413D01*
X12253Y-248368D01*
Y-247432D01*
X12011Y-246529D01*
X11543Y-245719D01*
X10881Y-245057D01*
X10071Y-244589D01*
X9168Y-244347D01*
X8232D01*
X7329Y-244589D01*
X6519Y-245057D01*
X5857Y-245719D01*
X5389Y-246529D01*
X5147Y-247432D01*
Y-248368D01*
X5389Y-249271D01*
X5857Y-250081D01*
X6519Y-250743D01*
X7329Y-251211D01*
X8232Y-251453D01*
X9168D01*
X9213Y-251441D01*
X28873Y-271101D01*
X29567Y-271565D01*
X30387Y-271728D01*
X74300D01*
X82859Y-280287D01*
Y-292257D01*
X82519Y-292597D01*
X82111Y-293303D01*
X81900Y-294092D01*
Y-294908D01*
X82111Y-295697D01*
X82519Y-296403D01*
X83097Y-296981D01*
X83803Y-297389D01*
X84592Y-297600D01*
X85408D01*
X86197Y-297389D01*
X86903Y-296981D01*
X87243Y-296641D01*
X114800D01*
X115619Y-296478D01*
X116314Y-296014D01*
X140428Y-271900D01*
X140908D01*
X141105Y-271847D01*
X141572Y-272314D01*
X142266Y-272778D01*
X143086Y-272941D01*
X154968D01*
X155175Y-273441D01*
X155019Y-273597D01*
X154611Y-274303D01*
X154400Y-275092D01*
Y-275908D01*
X154611Y-276697D01*
X155019Y-277403D01*
X155597Y-277981D01*
X156303Y-278389D01*
X156378Y-278409D01*
Y-286635D01*
X153564Y-289450D01*
X153497Y-289411D01*
X152708Y-289200D01*
X151892D01*
X151103Y-289411D01*
X150397Y-289819D01*
X149819Y-290397D01*
X149411Y-291103D01*
X149200Y-291892D01*
Y-292708D01*
X149411Y-293497D01*
X149819Y-294203D01*
X150397Y-294781D01*
X151103Y-295189D01*
X151892Y-295400D01*
X152708D01*
X153497Y-295189D01*
X154203Y-294781D01*
X154781Y-294203D01*
X155189Y-293497D01*
X155400Y-292708D01*
Y-291892D01*
X155189Y-291103D01*
X155150Y-291036D01*
X158293Y-287893D01*
X158536Y-287529D01*
X158622Y-287100D01*
X158622Y-287100D01*
Y-278409D01*
X158697Y-278389D01*
X159403Y-277981D01*
X159981Y-277403D01*
X160389Y-276697D01*
X160600Y-275908D01*
Y-275092D01*
X160389Y-274303D01*
X159981Y-273597D01*
X159825Y-273441D01*
X160032Y-272941D01*
X211800D01*
X212619Y-272778D01*
X213314Y-272314D01*
X220128Y-265500D01*
X220608D01*
X221397Y-265289D01*
X222103Y-264881D01*
X222681Y-264303D01*
X223089Y-263597D01*
X223300Y-262808D01*
Y-261992D01*
X223089Y-261203D01*
X222681Y-260497D01*
X222103Y-259919D01*
X221397Y-259511D01*
X220608Y-259300D01*
X219792D01*
X219003Y-259511D01*
X218297Y-259919D01*
X217719Y-260497D01*
X217311Y-261203D01*
X217100Y-261992D01*
Y-262472D01*
X210913Y-268659D01*
X143973D01*
X143561Y-268248D01*
X143389Y-267603D01*
X142981Y-266897D01*
X142403Y-266319D01*
X141697Y-265911D01*
X140908Y-265700D01*
X140092D01*
X139303Y-265911D01*
X138597Y-266319D01*
X138019Y-266897D01*
X137611Y-267603D01*
X137400Y-268392D01*
Y-268872D01*
X113913Y-292359D01*
X87243D01*
X87141Y-292257D01*
Y-279400D01*
Y-141756D01*
X87641Y-141510D01*
X88249Y-141861D01*
X89100Y-142089D01*
Y-138600D01*
Y-135110D01*
X88249Y-135338D01*
X87641Y-135689D01*
X87141Y-135444D01*
Y-63000D01*
X86978Y-62181D01*
X86514Y-61486D01*
X68900Y-43872D01*
Y-43392D01*
X68689Y-42603D01*
X68281Y-41897D01*
X67703Y-41319D01*
X66997Y-40911D01*
X66208Y-40700D01*
D02*
G37*
G36*
X63385Y-134567D02*
X63063D01*
Y-144516D01*
X73012D01*
Y-144193D01*
X72755Y-142569D01*
X72246Y-141005D01*
X71500Y-139539D01*
X70533Y-138209D01*
X69370Y-137046D01*
X68039Y-136079D01*
X66574Y-135332D01*
X65010Y-134824D01*
X63385Y-134567D01*
D02*
G37*
G36*
X62063D02*
X61741D01*
X60116Y-134824D01*
X58552Y-135332D01*
X57087Y-136079D01*
X55756Y-137046D01*
X54593Y-138209D01*
X53626Y-139539D01*
X52880Y-141005D01*
X52372Y-142569D01*
X52114Y-144193D01*
Y-144516D01*
X62063D01*
Y-134567D01*
D02*
G37*
G36*
X218200Y-142510D02*
Y-145500D01*
X221189D01*
X220961Y-144649D01*
X220501Y-143851D01*
X219849Y-143199D01*
X219051Y-142738D01*
X218200Y-142510D01*
D02*
G37*
G36*
X217200D02*
X216349Y-142738D01*
X215551Y-143199D01*
X214899Y-143851D01*
X214439Y-144649D01*
X214211Y-145500D01*
X217200D01*
Y-142510D01*
D02*
G37*
G36*
X221189Y-146500D02*
X218200D01*
Y-149489D01*
X219051Y-149261D01*
X219849Y-148801D01*
X220501Y-148149D01*
X220961Y-147351D01*
X221189Y-146500D01*
D02*
G37*
G36*
X217200D02*
X214211D01*
X214439Y-147351D01*
X214899Y-148149D01*
X215551Y-148801D01*
X216349Y-149261D01*
X217200Y-149489D01*
Y-146500D01*
D02*
G37*
G36*
X282490Y-134967D02*
X280510D01*
X278569Y-135353D01*
X276740Y-136111D01*
X275094Y-137210D01*
X273695Y-138610D01*
X272595Y-140256D01*
X271837Y-142085D01*
X271451Y-144026D01*
Y-146005D01*
X271837Y-147947D01*
X272595Y-149776D01*
X273695Y-151421D01*
X275094Y-152821D01*
X276740Y-153921D01*
X278569Y-154678D01*
X280510Y-155065D01*
X282490D01*
X284431Y-154678D01*
X286260Y-153921D01*
X287906Y-152821D01*
X289305Y-151421D01*
X290405Y-149776D01*
X291163Y-147947D01*
X291549Y-146005D01*
Y-144026D01*
X291163Y-142085D01*
X290405Y-140256D01*
X289305Y-138610D01*
X287906Y-137210D01*
X286260Y-136111D01*
X284431Y-135353D01*
X282490Y-134967D01*
D02*
G37*
G36*
X73012Y-145516D02*
X63063D01*
Y-155465D01*
X63385D01*
X65010Y-155207D01*
X66574Y-154699D01*
X68039Y-153952D01*
X69370Y-152986D01*
X70533Y-151823D01*
X71500Y-150492D01*
X72246Y-149027D01*
X72755Y-147462D01*
X73012Y-145838D01*
Y-145516D01*
D02*
G37*
G36*
X62063D02*
X52114D01*
Y-145838D01*
X52372Y-147462D01*
X52880Y-149027D01*
X53626Y-150492D01*
X54593Y-151823D01*
X55756Y-152986D01*
X57087Y-153952D01*
X58552Y-154699D01*
X60116Y-155207D01*
X61741Y-155465D01*
X62063D01*
Y-145516D01*
D02*
G37*
G36*
X232000Y-152959D02*
X95457D01*
X94638Y-153122D01*
X93943Y-153586D01*
X92186Y-155343D01*
X91722Y-156038D01*
X91559Y-156857D01*
Y-173900D01*
X91722Y-174719D01*
X92186Y-175414D01*
X94800Y-178028D01*
Y-178508D01*
X95011Y-179297D01*
X95419Y-180003D01*
X95997Y-180581D01*
X96703Y-180989D01*
X97492Y-181200D01*
X98308D01*
X99097Y-180989D01*
X99803Y-180581D01*
X100197Y-180187D01*
X100621Y-180470D01*
X100561Y-180616D01*
X100299Y-181930D01*
Y-183270D01*
X100561Y-184584D01*
X101073Y-185821D01*
X101818Y-186935D01*
X102765Y-187882D01*
X103879Y-188627D01*
X105116Y-189139D01*
X106430Y-189401D01*
X107770D01*
X109084Y-189139D01*
X110321Y-188627D01*
X111435Y-187882D01*
X112382Y-186935D01*
X113127Y-185821D01*
X113639Y-184584D01*
X113901Y-183270D01*
Y-181930D01*
X113639Y-180616D01*
X113127Y-179379D01*
X112382Y-178265D01*
X111435Y-177318D01*
X110321Y-176573D01*
X109084Y-176061D01*
X107770Y-175799D01*
X106430D01*
X105116Y-176061D01*
X103879Y-176573D01*
X102765Y-177318D01*
X101818Y-178265D01*
X101426Y-178851D01*
X100964Y-178642D01*
X101000Y-178508D01*
Y-177692D01*
X100789Y-176903D01*
X100381Y-176197D01*
X99803Y-175619D01*
X99097Y-175211D01*
X98308Y-175000D01*
X97828D01*
X95841Y-173013D01*
Y-157744D01*
X96344Y-157241D01*
X104571D01*
X104671Y-157741D01*
X103879Y-158069D01*
X102765Y-158814D01*
X101818Y-159761D01*
X101073Y-160875D01*
X100561Y-162112D01*
X100299Y-163426D01*
Y-164766D01*
X100561Y-166080D01*
X101073Y-167317D01*
X101818Y-168431D01*
X102765Y-169379D01*
X103879Y-170123D01*
X105116Y-170635D01*
X106430Y-170897D01*
X107770D01*
X109084Y-170635D01*
X110321Y-170123D01*
X111052Y-169634D01*
X115911Y-174493D01*
X115911Y-174493D01*
X116275Y-174736D01*
X116704Y-174822D01*
X116704Y-174822D01*
X132091D01*
X132111Y-174897D01*
X132519Y-175603D01*
X133097Y-176181D01*
X133803Y-176589D01*
X133878Y-176609D01*
Y-257835D01*
X118864Y-272850D01*
X118797Y-272811D01*
X118008Y-272600D01*
X117192D01*
X116403Y-272811D01*
X115697Y-273219D01*
X115119Y-273797D01*
X114711Y-274503D01*
X114500Y-275292D01*
Y-276108D01*
X114711Y-276897D01*
X115119Y-277603D01*
X115697Y-278181D01*
X116403Y-278589D01*
X117192Y-278800D01*
X118008D01*
X118797Y-278589D01*
X119503Y-278181D01*
X120081Y-277603D01*
X120489Y-276897D01*
X120700Y-276108D01*
Y-275292D01*
X120489Y-274503D01*
X120450Y-274436D01*
X135793Y-259093D01*
X135793Y-259093D01*
X136036Y-258729D01*
X136122Y-258300D01*
X136122Y-258300D01*
Y-176609D01*
X136197Y-176589D01*
X136903Y-176181D01*
X137481Y-175603D01*
X137889Y-174897D01*
X138100Y-174108D01*
Y-173292D01*
X137889Y-172503D01*
X137481Y-171797D01*
X136903Y-171219D01*
X136197Y-170811D01*
X135408Y-170600D01*
X134592D01*
X133803Y-170811D01*
X133097Y-171219D01*
X132519Y-171797D01*
X132111Y-172503D01*
X132091Y-172578D01*
X117168D01*
X112638Y-168048D01*
X113127Y-167317D01*
X113639Y-166080D01*
X113901Y-164766D01*
Y-163426D01*
X113639Y-162112D01*
X113127Y-160875D01*
X112382Y-159761D01*
X111435Y-158814D01*
X110321Y-158069D01*
X109529Y-157741D01*
X109629Y-157241D01*
X231113D01*
X242700Y-168828D01*
Y-169308D01*
X242911Y-170097D01*
X243319Y-170803D01*
X243897Y-171381D01*
X244603Y-171789D01*
X245392Y-172000D01*
X246208D01*
X246997Y-171789D01*
X247703Y-171381D01*
X248281Y-170803D01*
X248689Y-170097D01*
X248900Y-169308D01*
Y-168492D01*
X248689Y-167703D01*
X248281Y-166997D01*
X247703Y-166419D01*
X246997Y-166011D01*
X246208Y-165800D01*
X245728D01*
X233514Y-153586D01*
X232819Y-153122D01*
X232000Y-152959D01*
D02*
G37*
G36*
X57770Y-165799D02*
X56430D01*
X55116Y-166061D01*
X53879Y-166573D01*
X52765Y-167317D01*
X51818Y-168265D01*
X51073Y-169379D01*
X50561Y-170616D01*
X50299Y-171930D01*
Y-173270D01*
X50561Y-174584D01*
X51073Y-175821D01*
X51818Y-176935D01*
X52765Y-177883D01*
X53879Y-178627D01*
X55116Y-179139D01*
X56430Y-179401D01*
X57770D01*
X59084Y-179139D01*
X60321Y-178627D01*
X61435Y-177883D01*
X62383Y-176935D01*
X63127Y-175821D01*
X63639Y-174584D01*
X63901Y-173270D01*
Y-171930D01*
X63639Y-170616D01*
X63127Y-169379D01*
X62383Y-168265D01*
X61435Y-167317D01*
X60321Y-166573D01*
X59084Y-166061D01*
X57770Y-165799D01*
D02*
G37*
G36*
X165600Y-177210D02*
Y-180200D01*
X168589D01*
X168361Y-179349D01*
X167901Y-178551D01*
X167249Y-177899D01*
X166451Y-177438D01*
X165600Y-177210D01*
D02*
G37*
G36*
X164600D02*
X163749Y-177438D01*
X162951Y-177899D01*
X162299Y-178551D01*
X161838Y-179349D01*
X161610Y-180200D01*
X164600D01*
Y-177210D01*
D02*
G37*
G36*
X168589Y-181200D02*
X165600D01*
Y-184189D01*
X166451Y-183961D01*
X167249Y-183501D01*
X167901Y-182849D01*
X168361Y-182051D01*
X168589Y-181200D01*
D02*
G37*
G36*
X164600D02*
X161610D01*
X161838Y-182051D01*
X162299Y-182849D01*
X162951Y-183501D01*
X163749Y-183961D01*
X164600Y-184189D01*
Y-181200D01*
D02*
G37*
G36*
X57770Y-185799D02*
X56430D01*
X55116Y-186061D01*
X53879Y-186573D01*
X52765Y-187318D01*
X51818Y-188265D01*
X51073Y-189379D01*
X50561Y-190616D01*
X50299Y-191930D01*
Y-193270D01*
X50561Y-194584D01*
X51073Y-195821D01*
X51818Y-196935D01*
X52765Y-197882D01*
X53879Y-198627D01*
X55116Y-199139D01*
X56430Y-199401D01*
X57770D01*
X59084Y-199139D01*
X60321Y-198627D01*
X61435Y-197882D01*
X62383Y-196935D01*
X63127Y-195821D01*
X63639Y-194584D01*
X63901Y-193270D01*
Y-191930D01*
X63639Y-190616D01*
X63127Y-189379D01*
X62383Y-188265D01*
X61435Y-187318D01*
X60321Y-186573D01*
X59084Y-186061D01*
X57770Y-185799D01*
D02*
G37*
G36*
X107770Y-194303D02*
X106430D01*
X105116Y-194564D01*
X103879Y-195077D01*
X102765Y-195821D01*
X101818Y-196769D01*
X101073Y-197883D01*
X100561Y-199120D01*
X100299Y-200434D01*
Y-201774D01*
X100561Y-203088D01*
X101073Y-204325D01*
X101818Y-205439D01*
X102765Y-206386D01*
X103879Y-207131D01*
X105116Y-207643D01*
X106430Y-207905D01*
X107770D01*
X109084Y-207643D01*
X110321Y-207131D01*
X111435Y-206386D01*
X112382Y-205439D01*
X113127Y-204325D01*
X113639Y-203088D01*
X113901Y-201774D01*
Y-200434D01*
X113639Y-199120D01*
X113127Y-197883D01*
X112382Y-196769D01*
X111435Y-195821D01*
X110321Y-195077D01*
X109084Y-194564D01*
X107770Y-194303D01*
D02*
G37*
G36*
X282490Y-210951D02*
X280510D01*
X278569Y-211337D01*
X276740Y-212095D01*
X275094Y-213195D01*
X273695Y-214594D01*
X272595Y-216240D01*
X271837Y-218069D01*
X271451Y-220010D01*
Y-221990D01*
X271837Y-223931D01*
X272595Y-225760D01*
X273695Y-227406D01*
X275094Y-228805D01*
X276740Y-229905D01*
X278569Y-230663D01*
X280510Y-231049D01*
X282490D01*
X284431Y-230663D01*
X286260Y-229905D01*
X287906Y-228805D01*
X289305Y-227406D01*
X290405Y-225760D01*
X291163Y-223931D01*
X291549Y-221990D01*
Y-220010D01*
X291163Y-218069D01*
X290405Y-216240D01*
X289305Y-214594D01*
X287906Y-213195D01*
X286260Y-212095D01*
X284431Y-211337D01*
X282490Y-210951D01*
D02*
G37*
G36*
X63553D02*
X61573D01*
X59632Y-211337D01*
X57803Y-212095D01*
X56157Y-213195D01*
X54758Y-214594D01*
X53658Y-216240D01*
X52900Y-218069D01*
X52514Y-220010D01*
Y-221990D01*
X52900Y-223931D01*
X53658Y-225760D01*
X54758Y-227406D01*
X56157Y-228805D01*
X57803Y-229905D01*
X59632Y-230663D01*
X61573Y-231049D01*
X63553D01*
X65494Y-230663D01*
X67323Y-229905D01*
X68969Y-228805D01*
X70368Y-227406D01*
X71468Y-225760D01*
X72226Y-223931D01*
X72612Y-221990D01*
Y-220010D01*
X72226Y-218069D01*
X71468Y-216240D01*
X70368Y-214594D01*
X68969Y-213195D01*
X67323Y-212095D01*
X65494Y-211337D01*
X63553Y-210951D01*
D02*
G37*
G36*
X186000Y-231510D02*
Y-234500D01*
X188989D01*
X188761Y-233649D01*
X188301Y-232851D01*
X187649Y-232199D01*
X186851Y-231738D01*
X186000Y-231510D01*
D02*
G37*
G36*
X185000D02*
X184149Y-231738D01*
X183351Y-232199D01*
X182699Y-232851D01*
X182238Y-233649D01*
X182010Y-234500D01*
X185000D01*
Y-231510D01*
D02*
G37*
G36*
X12653Y-233947D02*
X9200D01*
Y-237400D01*
X12653D01*
Y-233947D01*
D02*
G37*
G36*
X8200D02*
X4747D01*
Y-237400D01*
X8200D01*
Y-233947D01*
D02*
G37*
G36*
X188989Y-235500D02*
X186000D01*
Y-238490D01*
X186851Y-238262D01*
X187649Y-237801D01*
X188301Y-237149D01*
X188761Y-236351D01*
X188989Y-235500D01*
D02*
G37*
G36*
X185000D02*
X182010D01*
X182238Y-236351D01*
X182699Y-237149D01*
X183351Y-237801D01*
X184149Y-238262D01*
X185000Y-238490D01*
Y-235500D01*
D02*
G37*
G36*
X12653Y-238400D02*
X9200D01*
Y-241853D01*
X12653D01*
Y-238400D01*
D02*
G37*
G36*
X8200D02*
X4747D01*
Y-241853D01*
X8200D01*
Y-238400D01*
D02*
G37*
G36*
X207100Y-256711D02*
Y-259700D01*
X210089D01*
X209861Y-258849D01*
X209401Y-258051D01*
X208749Y-257399D01*
X207951Y-256939D01*
X207100Y-256711D01*
D02*
G37*
G36*
X206100D02*
X205249Y-256939D01*
X204451Y-257399D01*
X203799Y-258051D01*
X203339Y-258849D01*
X203111Y-259700D01*
X206100D01*
Y-256711D01*
D02*
G37*
G36*
X210089Y-260700D02*
X207100D01*
Y-263689D01*
X207951Y-263461D01*
X208749Y-263001D01*
X209401Y-262349D01*
X209861Y-261551D01*
X210089Y-260700D01*
D02*
G37*
G36*
X206100D02*
X203111D01*
X203339Y-261551D01*
X203799Y-262349D01*
X204451Y-263001D01*
X205249Y-263461D01*
X206100Y-263689D01*
Y-260700D01*
D02*
G37*
G36*
X204008Y-274800D02*
X203192D01*
X202403Y-275011D01*
X201697Y-275419D01*
X201119Y-275997D01*
X200711Y-276703D01*
X200500Y-277492D01*
Y-278308D01*
X200711Y-279097D01*
X200750Y-279164D01*
X183135Y-296778D01*
X172409D01*
X172389Y-296703D01*
X171981Y-295997D01*
X171403Y-295419D01*
X170697Y-295011D01*
X169908Y-294800D01*
X169092D01*
X168303Y-295011D01*
X167597Y-295419D01*
X167019Y-295997D01*
X166611Y-296703D01*
X166400Y-297492D01*
Y-298308D01*
X166611Y-299097D01*
X167019Y-299803D01*
X167597Y-300381D01*
X168303Y-300789D01*
X169092Y-301000D01*
X169908D01*
X170697Y-300789D01*
X171403Y-300381D01*
X171981Y-299803D01*
X172389Y-299097D01*
X172409Y-299022D01*
X183600D01*
X183600Y-299022D01*
X184029Y-298936D01*
X184393Y-298693D01*
X202336Y-280750D01*
X202403Y-280789D01*
X203192Y-281000D01*
X204008D01*
X204797Y-280789D01*
X205503Y-280381D01*
X206081Y-279803D01*
X206489Y-279097D01*
X206700Y-278308D01*
Y-277492D01*
X206489Y-276703D01*
X206081Y-275997D01*
X205503Y-275419D01*
X204797Y-275011D01*
X204008Y-274800D01*
D02*
G37*
G36*
X282490Y-286935D02*
X280510D01*
X278569Y-287322D01*
X276740Y-288079D01*
X275094Y-289179D01*
X273695Y-290579D01*
X272595Y-292224D01*
X271837Y-294053D01*
X271451Y-295994D01*
Y-297974D01*
X271837Y-299915D01*
X272595Y-301744D01*
X273695Y-303390D01*
X275094Y-304790D01*
X276740Y-305889D01*
X278569Y-306647D01*
X280510Y-307033D01*
X282490D01*
X284431Y-306647D01*
X286260Y-305889D01*
X287906Y-304790D01*
X289305Y-303390D01*
X290405Y-301744D01*
X291163Y-299915D01*
X291549Y-297974D01*
Y-295994D01*
X291163Y-294053D01*
X290405Y-292224D01*
X289305Y-290579D01*
X287906Y-289179D01*
X286260Y-288079D01*
X284431Y-287322D01*
X282490Y-286935D01*
D02*
G37*
G36*
X63553D02*
X61573D01*
X59632Y-287322D01*
X57803Y-288079D01*
X56157Y-289179D01*
X54758Y-290579D01*
X53658Y-292224D01*
X52900Y-294053D01*
X52514Y-295994D01*
Y-297974D01*
X52900Y-299915D01*
X53658Y-301744D01*
X54758Y-303390D01*
X56157Y-304790D01*
X57803Y-305889D01*
X59632Y-306647D01*
X61573Y-307033D01*
X63553D01*
X65494Y-306647D01*
X67323Y-305889D01*
X68969Y-304790D01*
X70368Y-303390D01*
X71468Y-301744D01*
X72226Y-299915D01*
X72612Y-297974D01*
Y-295994D01*
X72226Y-294053D01*
X71468Y-292224D01*
X70368Y-290579D01*
X68969Y-289179D01*
X67323Y-288079D01*
X65494Y-287322D01*
X63553Y-286935D01*
D02*
G37*
%LPD*%
D13*
X187733Y-94333D02*
Y-93133D01*
X171500Y-76900D02*
X187733Y-93133D01*
Y-94333D02*
X203200Y-109800D01*
X274100D01*
X117600Y-275700D02*
X135000Y-258300D01*
Y-173700D01*
X107100Y-164096D02*
X116704Y-173700D01*
X135000D01*
X157500Y-287100D02*
Y-275500D01*
X152300Y-292300D02*
X157500Y-287100D01*
X169500Y-297900D02*
X183600D01*
X203600Y-277900D01*
D45*
X85000Y-279400D02*
Y-63000D01*
X65800Y-43800D02*
X85000Y-63000D01*
Y-294500D02*
Y-279400D01*
X75187Y-269587D02*
X85000Y-279400D01*
X114800Y-294500D02*
X140500Y-268800D01*
X85000Y-294500D02*
X114800D01*
X93700Y-156857D02*
X95457Y-155100D01*
X232000D01*
X245800Y-168900D01*
X93700Y-173900D02*
Y-156857D01*
X140500Y-268800D02*
X141086D01*
X143086Y-270800D01*
X30387Y-269587D02*
X75187D01*
X211800Y-270800D02*
X220200Y-262400D01*
X143086Y-270800D02*
X211800D01*
X8700Y-247900D02*
X30387Y-269587D01*
X93700Y-173900D02*
X97900Y-178100D01*
D47*
X107100Y-201104D02*
D03*
Y-182600D02*
D03*
Y-164096D02*
D03*
X57100Y-192600D02*
D03*
Y-172600D02*
D03*
D48*
X281500Y-69032D02*
D03*
D49*
Y-145016D02*
D03*
Y-221000D02*
D03*
Y-296984D02*
D03*
X62563D02*
D03*
Y-221000D02*
D03*
Y-145016D02*
D03*
Y-69032D02*
D03*
D50*
X8700Y-247900D02*
D03*
D51*
Y-237900D02*
D03*
D52*
X178900Y-94400D02*
D03*
X171500Y-76900D02*
D03*
X65800Y-43800D02*
D03*
X89600Y-138600D02*
D03*
X85000Y-294500D02*
D03*
X217700Y-146000D02*
D03*
X274100Y-109800D02*
D03*
X220200Y-262400D02*
D03*
X165100Y-180700D02*
D03*
X169200Y-51600D02*
D03*
X119400Y-40900D02*
D03*
X200000Y-100100D02*
D03*
X128900Y-116400D02*
D03*
X97900Y-178100D02*
D03*
X117600Y-275700D02*
D03*
X135000Y-173700D02*
D03*
X245800Y-168900D02*
D03*
X140500Y-268800D02*
D03*
X185500Y-235000D02*
D03*
X206600Y-260200D02*
D03*
X157500Y-275500D02*
D03*
X169500Y-297900D02*
D03*
X203600Y-277900D02*
D03*
X152300Y-292300D02*
D03*
M02*
