G04*
G04 #@! TF.GenerationSoftware,Altium Limited,Altium Designer,22.2.1 (43)*
G04*
G04 Layer_Physical_Order=4*
G04 Layer_Color=16711680*
%FSLAX25Y25*%
%MOIN*%
G70*
G04*
G04 #@! TF.SameCoordinates,BF82E168-2CF8-4A2D-AB3A-859FEF8C30B5*
G04*
G04*
G04 #@! TF.FilePolarity,Positive*
G04*
G01*
G75*
%ADD14C,0.01000*%
%ADD22R,0.02756X0.03543*%
%ADD28R,0.03543X0.02756*%
%ADD30R,0.04331X0.06693*%
%ADD55C,0.01900*%
%ADD56C,0.01500*%
%ADD57C,0.02500*%
%ADD58C,0.05906*%
%ADD59R,0.05906X0.05906*%
%ADD60R,0.05906X0.05906*%
%ADD61C,0.02500*%
%ADD62C,0.06024*%
%ADD63R,0.06024X0.06024*%
%ADD64C,0.05610*%
%ADD65R,0.05610X0.05610*%
%ADD66C,0.06000*%
%ADD67R,0.06024X0.06024*%
%ADD68C,0.03000*%
%ADD69R,0.07087X0.04724*%
%ADD70R,0.06102X0.02362*%
%ADD71R,0.01575X0.01575*%
%ADD72C,0.02800*%
G36*
X11150Y-34459D02*
X11979Y-34115D01*
X12255Y-34260D01*
X12427Y-34425D01*
X12420Y-34464D01*
Y-65445D01*
X10153Y-67712D01*
X9612D01*
X9195Y-67511D01*
Y-67136D01*
X9195D01*
X9195Y-67011D01*
Y-65160D01*
X10488Y-63867D01*
X10488Y-63867D01*
X10731Y-63503D01*
X10817Y-63074D01*
Y-51094D01*
X10817Y-51094D01*
X10731Y-50665D01*
X10488Y-50301D01*
X10488Y-50301D01*
X6666Y-46478D01*
Y-36063D01*
X9195D01*
Y-34604D01*
X9695Y-34270D01*
X10150Y-34459D01*
Y-31960D01*
X11150D01*
Y-34459D01*
D02*
G37*
G36*
X22507Y-28107D02*
X22626Y-28705D01*
X22969Y-29217D01*
X23481Y-29560D01*
X24086Y-29680D01*
X58493D01*
X58645Y-30180D01*
X58492Y-30283D01*
X34065Y-54710D01*
X33120Y-54457D01*
X33100D01*
Y-57910D01*
X36553D01*
Y-57889D01*
X36300Y-56945D01*
X60264Y-32980D01*
X61509D01*
X61575Y-33480D01*
X61327Y-33547D01*
X60517Y-34015D01*
X59856Y-34676D01*
X59388Y-35486D01*
X59146Y-36390D01*
Y-37325D01*
X59388Y-38229D01*
X59856Y-39039D01*
X60517Y-39700D01*
X61327Y-40168D01*
X62231Y-40410D01*
X63166D01*
X64070Y-40168D01*
X64880Y-39700D01*
X65541Y-39039D01*
X66009Y-38229D01*
X66251Y-37325D01*
Y-36390D01*
X66009Y-35486D01*
X65541Y-34676D01*
X64880Y-34015D01*
X64070Y-33547D01*
X63822Y-33480D01*
X63888Y-32980D01*
X75345D01*
X75884Y-33519D01*
X76800Y-33899D01*
Y-31400D01*
X77300D01*
Y-30900D01*
X79799D01*
X79501Y-30180D01*
X79769Y-29680D01*
X95345D01*
X117841Y-52176D01*
X118354Y-52519D01*
X118959Y-52639D01*
X131289D01*
X131423Y-53139D01*
X131219Y-53257D01*
X130557Y-53919D01*
X130089Y-54729D01*
X129847Y-55632D01*
Y-56568D01*
X130089Y-57471D01*
X130557Y-58281D01*
X131219Y-58943D01*
X132029Y-59411D01*
X132932Y-59653D01*
X133868D01*
X134771Y-59411D01*
X135581Y-58943D01*
X136243Y-58281D01*
X136711Y-57471D01*
X136953Y-56568D01*
Y-55632D01*
X136711Y-54729D01*
X136243Y-53919D01*
X135581Y-53257D01*
X135377Y-53139D01*
X135511Y-52639D01*
X137704D01*
X140027Y-54962D01*
X139847Y-55632D01*
Y-56568D01*
X140089Y-57471D01*
X140557Y-58281D01*
X141219Y-58943D01*
X142029Y-59411D01*
X142932Y-59653D01*
X143868D01*
X144771Y-59411D01*
X145581Y-58943D01*
X146243Y-58281D01*
X146711Y-57471D01*
X146953Y-56568D01*
Y-55632D01*
X146773Y-54962D01*
X150355Y-51380D01*
X156832D01*
X157020Y-51568D01*
Y-54264D01*
X156520Y-54398D01*
X156243Y-53919D01*
X155581Y-53257D01*
X154771Y-52789D01*
X153868Y-52547D01*
X152932D01*
X152029Y-52789D01*
X151219Y-53257D01*
X150557Y-53919D01*
X150089Y-54729D01*
X149847Y-55632D01*
Y-56568D01*
X150027Y-57238D01*
X142083Y-65183D01*
X141740Y-65695D01*
X141620Y-66300D01*
Y-68045D01*
X92983Y-116683D01*
X92640Y-117195D01*
X92520Y-117800D01*
Y-165245D01*
X88243Y-169523D01*
X87819Y-169239D01*
X87989Y-168829D01*
Y-167994D01*
X87669Y-167222D01*
X87078Y-166631D01*
X86306Y-166312D01*
X85471D01*
X84699Y-166631D01*
X84108Y-167222D01*
X83880Y-167772D01*
X83380Y-167673D01*
Y-109700D01*
X83260Y-109095D01*
X82917Y-108582D01*
X65517Y-91183D01*
X65005Y-90840D01*
X64400Y-90720D01*
X13300D01*
X13129Y-90754D01*
X12903Y-90599D01*
X12680Y-90333D01*
Y-71937D01*
X12560Y-71332D01*
X12218Y-70819D01*
X12196Y-70797D01*
X12220Y-70115D01*
X15118Y-67217D01*
X15460Y-66705D01*
X15580Y-66100D01*
Y-35119D01*
X16119Y-34580D01*
X28186D01*
X29325Y-35719D01*
X29146Y-36390D01*
Y-37325D01*
X29388Y-38229D01*
X29855Y-39039D01*
X30517Y-39700D01*
X31327Y-40168D01*
X32231Y-40410D01*
X33166D01*
X34070Y-40168D01*
X34880Y-39700D01*
X35541Y-39039D01*
X36009Y-38229D01*
X36251Y-37325D01*
Y-36390D01*
X36009Y-35486D01*
X35541Y-34676D01*
X34880Y-34015D01*
X34070Y-33547D01*
X33166Y-33305D01*
X32231D01*
X31560Y-33484D01*
X29958Y-31883D01*
X29446Y-31540D01*
X28841Y-31420D01*
X22655D01*
X12977Y-21742D01*
X13184Y-21242D01*
X15642D01*
X22507Y-28107D01*
D02*
G37*
G36*
X4422Y-46943D02*
X4422Y-46943D01*
X4508Y-47372D01*
X4751Y-47736D01*
X8574Y-51559D01*
Y-59637D01*
X5349D01*
X2421Y-56709D01*
Y-36063D01*
X4422D01*
Y-46943D01*
D02*
G37*
G36*
X9520Y-89514D02*
X9372Y-89622D01*
X8872Y-89369D01*
Y-86769D01*
X6757D01*
X2514Y-82527D01*
Y-75410D01*
X4879D01*
Y-77059D01*
X4584Y-77181D01*
X3881Y-77884D01*
X3501Y-78800D01*
X8499D01*
X8119Y-77884D01*
X7416Y-77181D01*
X7122Y-77059D01*
Y-75410D01*
X9520D01*
Y-89514D01*
D02*
G37*
G36*
X355800Y-355800D02*
X400D01*
Y-96790D01*
X825Y-96633D01*
X900Y-96629D01*
X4588Y-100318D01*
X5101Y-100660D01*
X5706Y-100780D01*
X9500D01*
X10105Y-100660D01*
X10617Y-100318D01*
X11389Y-99546D01*
X11851Y-99738D01*
Y-248600D01*
X12041Y-249059D01*
X12500Y-249249D01*
X63700D01*
X64159Y-249059D01*
X64349Y-248600D01*
Y-95800D01*
X64159Y-95341D01*
X63700Y-95151D01*
X13338D01*
X13146Y-94689D01*
X13955Y-93880D01*
X63745D01*
X80220Y-110355D01*
Y-156746D01*
X79720Y-157029D01*
X79168Y-156800D01*
X78332D01*
X77561Y-157120D01*
X76970Y-157710D01*
X76650Y-158482D01*
Y-159318D01*
X76970Y-160090D01*
X77561Y-160680D01*
X78332Y-161000D01*
X79168D01*
X79720Y-160771D01*
X80220Y-161054D01*
Y-172245D01*
X78165Y-174300D01*
X77882D01*
X77110Y-174620D01*
X76520Y-175210D01*
X76200Y-175982D01*
Y-176818D01*
X76520Y-177590D01*
X77110Y-178180D01*
X77882Y-178500D01*
X78718D01*
X79489Y-178180D01*
X79690Y-177980D01*
X83600D01*
X84205Y-177860D01*
X84718Y-177517D01*
X95218Y-167017D01*
X95560Y-166505D01*
X95680Y-165900D01*
Y-118455D01*
X141158Y-72977D01*
X141620Y-73169D01*
Y-142167D01*
X141740Y-142772D01*
X142083Y-143284D01*
X148247Y-149449D01*
X148095Y-150019D01*
Y-150915D01*
X148327Y-151781D01*
X148775Y-152558D01*
X149409Y-153192D01*
X150186Y-153640D01*
X151052Y-153872D01*
X151948D01*
X152814Y-153640D01*
X153591Y-153192D01*
X154225Y-152558D01*
X154673Y-151781D01*
X154905Y-150915D01*
Y-150019D01*
X154673Y-149153D01*
X154225Y-148376D01*
X153591Y-147742D01*
X152814Y-147294D01*
X151948Y-147062D01*
X151052D01*
X150482Y-147214D01*
X144780Y-141512D01*
Y-68700D01*
Y-66955D01*
X152262Y-59473D01*
X152932Y-59653D01*
X153868D01*
X154771Y-59411D01*
X155581Y-58943D01*
X156243Y-58281D01*
X156520Y-57802D01*
X157020Y-57936D01*
Y-82344D01*
X145882Y-93481D01*
X145540Y-93994D01*
X145420Y-94598D01*
Y-123769D01*
X145540Y-124374D01*
X145882Y-124887D01*
X146935Y-125940D01*
X147448Y-126282D01*
X148053Y-126402D01*
X150035D01*
X150101Y-126902D01*
X150031Y-126921D01*
X149164Y-127422D01*
X148455Y-128130D01*
X147954Y-128998D01*
X147695Y-129966D01*
Y-129967D01*
X151500D01*
X155305D01*
Y-129966D01*
X155046Y-128998D01*
X154545Y-128130D01*
X153836Y-127422D01*
X152969Y-126921D01*
X152899Y-126902D01*
X152965Y-126402D01*
X155854D01*
X156042Y-126590D01*
Y-132623D01*
X151948Y-136717D01*
X151821Y-136907D01*
X151666Y-137062D01*
X151052D01*
X150186Y-137294D01*
X149409Y-137742D01*
X148775Y-138376D01*
X148327Y-139153D01*
X148095Y-140019D01*
Y-140915D01*
X148327Y-141781D01*
X148775Y-142558D01*
X149409Y-143192D01*
X150186Y-143640D01*
X151052Y-143872D01*
X151948D01*
X152814Y-143640D01*
X153591Y-143192D01*
X154225Y-142558D01*
X154673Y-141781D01*
X154905Y-140915D01*
Y-140019D01*
X154673Y-139153D01*
X154420Y-138715D01*
X158739Y-134395D01*
X159082Y-133883D01*
X159202Y-133278D01*
Y-125935D01*
X159082Y-125330D01*
X158739Y-124818D01*
X157626Y-123705D01*
X157114Y-123362D01*
X156509Y-123242D01*
X154905D01*
Y-119297D01*
X155322Y-118880D01*
X190945D01*
X198007Y-125942D01*
X197978Y-126502D01*
X197470Y-127010D01*
X197150Y-127782D01*
Y-128618D01*
X197470Y-129390D01*
X198060Y-129980D01*
X198031Y-130509D01*
X197840Y-130795D01*
X197720Y-131400D01*
Y-171310D01*
X197119Y-171657D01*
X196457Y-172319D01*
X195989Y-173129D01*
X195747Y-174032D01*
Y-174320D01*
X152210D01*
X152144Y-173820D01*
X152814Y-173640D01*
X153591Y-173192D01*
X154225Y-172558D01*
X154673Y-171781D01*
X154905Y-170915D01*
Y-170019D01*
X154673Y-169153D01*
X154225Y-168376D01*
X153591Y-167742D01*
X152814Y-167294D01*
X151948Y-167062D01*
X151052D01*
X150186Y-167294D01*
X149409Y-167742D01*
X148775Y-168376D01*
X148327Y-169153D01*
X148095Y-170019D01*
Y-170915D01*
X148327Y-171781D01*
X148775Y-172558D01*
X149409Y-173192D01*
X150186Y-173640D01*
X150856Y-173820D01*
X150790Y-174320D01*
X132200D01*
X131595Y-174440D01*
X131082Y-174783D01*
X125465Y-180400D01*
X125182D01*
X124410Y-180720D01*
X123820Y-181310D01*
X123500Y-182082D01*
Y-182918D01*
X123820Y-183690D01*
X124410Y-184280D01*
X125182Y-184600D01*
X126018D01*
X126790Y-184280D01*
X127380Y-183690D01*
X127700Y-182918D01*
Y-182635D01*
X132855Y-177480D01*
X148964D01*
X149171Y-177980D01*
X148775Y-178376D01*
X148327Y-179153D01*
X148095Y-180019D01*
Y-180915D01*
X148327Y-181781D01*
X148775Y-182558D01*
X149409Y-183192D01*
X150186Y-183640D01*
X151052Y-183872D01*
X151948D01*
X152814Y-183640D01*
X153591Y-183192D01*
X154225Y-182558D01*
X154673Y-181781D01*
X154905Y-180915D01*
Y-180019D01*
X154673Y-179153D01*
X154225Y-178376D01*
X153829Y-177980D01*
X154036Y-177480D01*
X196816D01*
X197218Y-177400D01*
X197929Y-177811D01*
X198832Y-178053D01*
X199768D01*
X200671Y-177811D01*
X201481Y-177343D01*
X202143Y-176681D01*
X202611Y-175871D01*
X202853Y-174968D01*
Y-174032D01*
X202611Y-173129D01*
X202143Y-172319D01*
X201481Y-171657D01*
X200880Y-171310D01*
Y-132055D01*
X203618Y-129317D01*
X203960Y-128805D01*
X204080Y-128200D01*
X203960Y-127595D01*
X203618Y-127083D01*
X192718Y-116182D01*
X182086Y-105551D01*
Y-102672D01*
X182483D01*
Y-101267D01*
X182626Y-101238D01*
X183139Y-100896D01*
X189662Y-94373D01*
X190005Y-93860D01*
X190125Y-93255D01*
Y-88754D01*
X190005Y-88150D01*
X189662Y-87637D01*
X184920Y-82895D01*
X184407Y-82552D01*
X183829Y-82437D01*
Y-77947D01*
X186280D01*
Y-70053D01*
X185095D01*
Y-66215D01*
X184975Y-65610D01*
X184632Y-65097D01*
X176953Y-57418D01*
Y-52547D01*
X169847D01*
Y-59653D01*
X174718D01*
X181935Y-66870D01*
Y-70053D01*
X180750D01*
Y-74858D01*
X180668Y-75266D01*
Y-83500D01*
X180682Y-83568D01*
X180221Y-83814D01*
X179114Y-82707D01*
X178750Y-82464D01*
X178321Y-82378D01*
X178321Y-82378D01*
X174587D01*
Y-81713D01*
X173922D01*
Y-78347D01*
X176050D01*
Y-74500D01*
X172885D01*
X169720D01*
Y-78347D01*
X171678D01*
Y-81713D01*
X171013D01*
Y-83000D01*
X172800D01*
Y-84000D01*
X171013D01*
Y-85287D01*
X171413D01*
Y-85936D01*
X171340Y-86045D01*
X171220Y-86650D01*
X171340Y-87254D01*
X171413Y-87363D01*
Y-87912D01*
X171413Y-88037D01*
X171413D01*
Y-88178D01*
X171023Y-88678D01*
X170862D01*
X170400Y-88518D01*
Y-87682D01*
X170080Y-86910D01*
X169490Y-86320D01*
X168718Y-86000D01*
X167882D01*
X167110Y-86320D01*
X166520Y-86910D01*
X166200Y-87682D01*
Y-88518D01*
X166520Y-89289D01*
X167110Y-89880D01*
X167882Y-90200D01*
X168273D01*
X168315Y-90264D01*
X168168Y-90540D01*
X168022Y-90725D01*
X167310Y-91020D01*
X166720Y-91610D01*
X166400Y-92382D01*
Y-93218D01*
X166720Y-93989D01*
X167310Y-94580D01*
X168082Y-94900D01*
X168918D01*
X169690Y-94580D01*
X170274Y-93996D01*
X171413D01*
Y-94336D01*
X173566D01*
Y-97928D01*
X172622D01*
Y-102672D01*
X176578D01*
Y-98263D01*
X177078Y-98111D01*
X177283Y-98418D01*
X178528Y-99663D01*
Y-102672D01*
X178925D01*
Y-106205D01*
X179045Y-106810D01*
X179388Y-107323D01*
X187323Y-115258D01*
X187131Y-115720D01*
X154667D01*
X154062Y-115840D01*
X153549Y-116182D01*
X152670Y-117062D01*
X148580D01*
Y-95253D01*
X159718Y-84116D01*
X160060Y-83603D01*
X160180Y-82998D01*
Y-59178D01*
X160680Y-58970D01*
X160973Y-59263D01*
X161874Y-59783D01*
X162880Y-60053D01*
X162900D01*
Y-56100D01*
Y-52147D01*
X162880D01*
X161874Y-52417D01*
X160973Y-52937D01*
X160680Y-53230D01*
X160180Y-53022D01*
Y-50913D01*
X160060Y-50308D01*
X159718Y-49795D01*
X158605Y-48682D01*
X158256Y-48449D01*
X158407Y-47949D01*
X183800D01*
X184259Y-47759D01*
X184449Y-47300D01*
Y0D01*
X184259Y459D01*
X183800Y649D01*
X136400D01*
X135941Y459D01*
X135751Y0D01*
Y-47300D01*
X135941Y-47759D01*
X136400Y-47949D01*
X148780D01*
X148931Y-48449D01*
X148582Y-48682D01*
X144538Y-52727D01*
X143868Y-52547D01*
X142932D01*
X142262Y-52727D01*
X139476Y-49941D01*
X138964Y-49599D01*
X138359Y-49478D01*
X119613D01*
X97118Y-26983D01*
X96605Y-26640D01*
X96000Y-26520D01*
X24092D01*
X18349Y-20777D01*
X18541Y-20315D01*
X24943D01*
Y-14391D01*
X16657D01*
Y-18610D01*
X16157Y-19009D01*
X16107Y-18999D01*
X16107Y-18999D01*
X2106D01*
X2106Y-18999D01*
X1677Y-19085D01*
X1313Y-19328D01*
X1313Y-19328D01*
X900Y-19741D01*
X400Y-19534D01*
Y11800D01*
X355800D01*
Y-355800D01*
D02*
G37*
%LPC*%
G36*
X79799Y-31900D02*
X77800D01*
Y-33899D01*
X78716Y-33519D01*
X79419Y-32816D01*
X79799Y-31900D01*
D02*
G37*
G36*
X24943Y-36438D02*
X16657D01*
Y-42362D01*
X24943D01*
Y-36438D01*
D02*
G37*
G36*
X93368Y-35595D02*
X92432D01*
X91529Y-35837D01*
X90719Y-36305D01*
X90057Y-36966D01*
X89589Y-37776D01*
X89347Y-38680D01*
Y-39616D01*
X89589Y-40519D01*
X90057Y-41329D01*
X90719Y-41991D01*
X91529Y-42459D01*
X92432Y-42701D01*
X93368D01*
X94271Y-42459D01*
X95081Y-41991D01*
X95743Y-41329D01*
X96211Y-40519D01*
X96453Y-39616D01*
Y-38680D01*
X96211Y-37776D01*
X95743Y-36966D01*
X95081Y-36305D01*
X94271Y-35837D01*
X93368Y-35595D01*
D02*
G37*
G36*
X75118Y-43700D02*
X74282D01*
X73510Y-44020D01*
X72920Y-44610D01*
X72600Y-45382D01*
Y-46218D01*
X72920Y-46990D01*
X73510Y-47580D01*
X74282Y-47900D01*
X75118D01*
X75889Y-47580D01*
X76480Y-46990D01*
X76800Y-46218D01*
Y-45382D01*
X76480Y-44610D01*
X75889Y-44020D01*
X75118Y-43700D01*
D02*
G37*
G36*
X32100Y-54457D02*
X32080D01*
X31074Y-54726D01*
X30173Y-55247D01*
X29437Y-55983D01*
X28917Y-56884D01*
X28647Y-57889D01*
Y-57910D01*
X32100D01*
Y-54457D01*
D02*
G37*
G36*
X24943Y-53338D02*
X16657D01*
Y-59262D01*
X24943D01*
Y-53338D01*
D02*
G37*
G36*
X63068Y-54857D02*
X62132D01*
X61229Y-55099D01*
X60419Y-55567D01*
X59757Y-56228D01*
X59289Y-57038D01*
X59047Y-57942D01*
Y-58877D01*
X59289Y-59781D01*
X59757Y-60591D01*
X60419Y-61253D01*
X61229Y-61720D01*
X62132Y-61962D01*
X63068D01*
X63971Y-61720D01*
X64781Y-61253D01*
X65443Y-60591D01*
X65911Y-59781D01*
X66153Y-58877D01*
Y-57942D01*
X65911Y-57038D01*
X65443Y-56228D01*
X64781Y-55567D01*
X63971Y-55099D01*
X63068Y-54857D01*
D02*
G37*
G36*
X36553Y-58910D02*
X33100D01*
Y-62362D01*
X33120D01*
X34126Y-62093D01*
X35027Y-61573D01*
X35763Y-60837D01*
X36283Y-59935D01*
X36553Y-58930D01*
Y-58910D01*
D02*
G37*
G36*
X32100D02*
X28647D01*
Y-58930D01*
X28917Y-59935D01*
X29437Y-60837D01*
X30173Y-61573D01*
X31074Y-62093D01*
X32080Y-62362D01*
X32100D01*
Y-58910D01*
D02*
G37*
G36*
X122968Y-57147D02*
X122032D01*
X121129Y-57389D01*
X120319Y-57857D01*
X119657Y-58519D01*
X119189Y-59329D01*
X118947Y-60232D01*
Y-61168D01*
X119189Y-62071D01*
X119657Y-62881D01*
X120319Y-63543D01*
X121129Y-64011D01*
X122032Y-64253D01*
X122968D01*
X123871Y-64011D01*
X124681Y-63543D01*
X125343Y-62881D01*
X125811Y-62071D01*
X126053Y-61168D01*
Y-60232D01*
X125811Y-59329D01*
X125343Y-58519D01*
X124681Y-57857D01*
X123871Y-57389D01*
X122968Y-57147D01*
D02*
G37*
G36*
X92968D02*
X92032D01*
X91129Y-57389D01*
X90319Y-57857D01*
X89657Y-58519D01*
X89189Y-59329D01*
X88947Y-60232D01*
Y-61168D01*
X89189Y-62071D01*
X89657Y-62881D01*
X90319Y-63543D01*
X91129Y-64011D01*
X92032Y-64253D01*
X92968D01*
X93871Y-64011D01*
X94681Y-63543D01*
X95343Y-62881D01*
X95811Y-62071D01*
X96053Y-61168D01*
Y-60232D01*
X95811Y-59329D01*
X95343Y-58519D01*
X94681Y-57857D01*
X93871Y-57389D01*
X92968Y-57147D01*
D02*
G37*
G36*
X123020Y-76747D02*
X123000D01*
Y-80200D01*
X126453D01*
Y-80180D01*
X126183Y-79174D01*
X125663Y-78273D01*
X124927Y-77537D01*
X124026Y-77017D01*
X123020Y-76747D01*
D02*
G37*
G36*
X122000D02*
X121980D01*
X120974Y-77017D01*
X120073Y-77537D01*
X119337Y-78273D01*
X118817Y-79174D01*
X118547Y-80180D01*
Y-80200D01*
X122000D01*
Y-76747D01*
D02*
G37*
G36*
X24943Y-75385D02*
X16657D01*
Y-81309D01*
X24943D01*
Y-75385D01*
D02*
G37*
G36*
X63068Y-74857D02*
X62132D01*
X61229Y-75099D01*
X60419Y-75567D01*
X59757Y-76228D01*
X59289Y-77038D01*
X59047Y-77942D01*
Y-78877D01*
X59289Y-79781D01*
X59757Y-80591D01*
X60419Y-81253D01*
X61229Y-81720D01*
X62132Y-81962D01*
X63068D01*
X63971Y-81720D01*
X64781Y-81253D01*
X65443Y-80591D01*
X65911Y-79781D01*
X66153Y-78877D01*
Y-77942D01*
X65911Y-77038D01*
X65443Y-76228D01*
X64781Y-75567D01*
X63971Y-75099D01*
X63068Y-74857D01*
D02*
G37*
G36*
X33068D02*
X32132D01*
X31229Y-75099D01*
X30419Y-75567D01*
X29757Y-76228D01*
X29289Y-77038D01*
X29047Y-77942D01*
Y-78877D01*
X29289Y-79781D01*
X29757Y-80591D01*
X30419Y-81253D01*
X31229Y-81720D01*
X32132Y-81962D01*
X33068D01*
X33971Y-81720D01*
X34781Y-81253D01*
X35443Y-80591D01*
X35911Y-79781D01*
X36153Y-78877D01*
Y-77942D01*
X35911Y-77038D01*
X35443Y-76228D01*
X34781Y-75567D01*
X33971Y-75099D01*
X33068Y-74857D01*
D02*
G37*
G36*
X92968Y-77147D02*
X92032D01*
X91129Y-77389D01*
X90319Y-77857D01*
X89657Y-78519D01*
X89189Y-79329D01*
X88947Y-80232D01*
Y-81168D01*
X89189Y-82071D01*
X89657Y-82881D01*
X90319Y-83543D01*
X91129Y-84011D01*
X92032Y-84253D01*
X92968D01*
X93871Y-84011D01*
X94681Y-83543D01*
X95343Y-82881D01*
X95811Y-82071D01*
X96053Y-81168D01*
Y-80232D01*
X95811Y-79329D01*
X95343Y-78519D01*
X94681Y-77857D01*
X93871Y-77389D01*
X92968Y-77147D01*
D02*
G37*
G36*
X126453Y-81200D02*
X123000D01*
Y-84653D01*
X123020D01*
X124026Y-84383D01*
X124927Y-83863D01*
X125663Y-83127D01*
X126183Y-82226D01*
X126453Y-81220D01*
Y-81200D01*
D02*
G37*
G36*
X122000D02*
X118547D01*
Y-81220D01*
X118817Y-82226D01*
X119337Y-83127D01*
X120073Y-83863D01*
X120974Y-84383D01*
X121980Y-84653D01*
X122000D01*
Y-81200D01*
D02*
G37*
G36*
X88618Y-84800D02*
X87782D01*
X87011Y-85120D01*
X86420Y-85711D01*
X86100Y-86482D01*
Y-87318D01*
X86420Y-88090D01*
X87011Y-88680D01*
X87782Y-89000D01*
X88618D01*
X89389Y-88680D01*
X89980Y-88090D01*
X90300Y-87318D01*
Y-86482D01*
X89980Y-85711D01*
X89389Y-85120D01*
X88618Y-84800D01*
D02*
G37*
G36*
X8499Y-79800D02*
X6500D01*
Y-81799D01*
X7416Y-81419D01*
X8119Y-80716D01*
X8499Y-79800D01*
D02*
G37*
G36*
X5500D02*
X3501D01*
X3881Y-80716D01*
X4584Y-81419D01*
X5500Y-81799D01*
Y-79800D01*
D02*
G37*
G36*
X329768Y-9147D02*
X328832D01*
X327929Y-9389D01*
X327119Y-9857D01*
X326457Y-10519D01*
X325989Y-11329D01*
X325747Y-12232D01*
Y-13168D01*
X325989Y-14071D01*
X326457Y-14881D01*
X327119Y-15543D01*
X327929Y-16011D01*
X328832Y-16253D01*
X329768D01*
X330671Y-16011D01*
X331481Y-15543D01*
X332143Y-14881D01*
X332611Y-14071D01*
X332853Y-13168D01*
Y-12232D01*
X332611Y-11329D01*
X332143Y-10519D01*
X331481Y-9857D01*
X330671Y-9389D01*
X329768Y-9147D01*
D02*
G37*
G36*
X63166Y-13305D02*
X62231D01*
X61327Y-13547D01*
X60517Y-14015D01*
X59856Y-14676D01*
X59388Y-15486D01*
X59146Y-16390D01*
Y-17325D01*
X59388Y-18229D01*
X59856Y-19039D01*
X60517Y-19700D01*
X61327Y-20168D01*
X62231Y-20410D01*
X63166D01*
X64070Y-20168D01*
X64880Y-19700D01*
X65541Y-19039D01*
X66009Y-18229D01*
X66251Y-17325D01*
Y-16390D01*
X66009Y-15486D01*
X65541Y-14676D01*
X64880Y-14015D01*
X64070Y-13547D01*
X63166Y-13305D01*
D02*
G37*
G36*
X33166D02*
X32231D01*
X31327Y-13547D01*
X30517Y-14015D01*
X29855Y-14676D01*
X29388Y-15486D01*
X29146Y-16390D01*
Y-17325D01*
X29388Y-18229D01*
X29855Y-19039D01*
X30517Y-19700D01*
X31327Y-20168D01*
X32231Y-20410D01*
X33166D01*
X34070Y-20168D01*
X34880Y-19700D01*
X35541Y-19039D01*
X36009Y-18229D01*
X36251Y-17325D01*
Y-16390D01*
X36009Y-15486D01*
X35541Y-14676D01*
X34880Y-14015D01*
X34070Y-13547D01*
X33166Y-13305D01*
D02*
G37*
G36*
X123368Y-15595D02*
X122432D01*
X121529Y-15837D01*
X120719Y-16305D01*
X120057Y-16966D01*
X119589Y-17776D01*
X119347Y-18680D01*
Y-19615D01*
X119589Y-20519D01*
X120057Y-21329D01*
X120719Y-21991D01*
X121529Y-22458D01*
X122432Y-22701D01*
X123368D01*
X124271Y-22458D01*
X125081Y-21991D01*
X125743Y-21329D01*
X126211Y-20519D01*
X126453Y-19615D01*
Y-18680D01*
X126211Y-17776D01*
X125743Y-16966D01*
X125081Y-16305D01*
X124271Y-15837D01*
X123368Y-15595D01*
D02*
G37*
G36*
X93368D02*
X92432D01*
X91529Y-15837D01*
X90719Y-16305D01*
X90057Y-16966D01*
X89589Y-17776D01*
X89347Y-18680D01*
Y-19615D01*
X89589Y-20519D01*
X90057Y-21329D01*
X90719Y-21991D01*
X91529Y-22458D01*
X92432Y-22701D01*
X93368D01*
X94271Y-22458D01*
X95081Y-21991D01*
X95743Y-21329D01*
X96211Y-20519D01*
X96453Y-19615D01*
Y-18680D01*
X96211Y-17776D01*
X95743Y-16966D01*
X95081Y-16305D01*
X94271Y-15837D01*
X93368Y-15595D01*
D02*
G37*
G36*
X196920Y-19547D02*
X196900D01*
Y-23000D01*
X200353D01*
Y-22980D01*
X200083Y-21974D01*
X199563Y-21073D01*
X198827Y-20337D01*
X197926Y-19817D01*
X196920Y-19547D01*
D02*
G37*
G36*
X291153D02*
X287700D01*
Y-23000D01*
X291153D01*
Y-19547D01*
D02*
G37*
G36*
X286700D02*
X283247D01*
Y-23000D01*
X286700D01*
Y-19547D01*
D02*
G37*
G36*
X195900D02*
X195880D01*
X194874Y-19817D01*
X193973Y-20337D01*
X193237Y-21073D01*
X192717Y-21974D01*
X192447Y-22980D01*
Y-23000D01*
X195900D01*
Y-19547D01*
D02*
G37*
G36*
X272700Y-23301D02*
Y-25300D01*
X274699D01*
X274319Y-24384D01*
X273616Y-23681D01*
X272700Y-23301D01*
D02*
G37*
G36*
X271700D02*
X270784Y-23681D01*
X270081Y-24384D01*
X269701Y-25300D01*
X271700D01*
Y-23301D01*
D02*
G37*
G36*
X208600Y-23701D02*
Y-25700D01*
X210599D01*
X210219Y-24784D01*
X209516Y-24081D01*
X208600Y-23701D01*
D02*
G37*
G36*
X207600D02*
X206684Y-24081D01*
X205981Y-24784D01*
X205601Y-25700D01*
X207600D01*
Y-23701D01*
D02*
G37*
G36*
X329768Y-19147D02*
X328832D01*
X327929Y-19389D01*
X327119Y-19857D01*
X326457Y-20519D01*
X325989Y-21329D01*
X325747Y-22232D01*
Y-23168D01*
X325989Y-24071D01*
X326457Y-24881D01*
X327119Y-25543D01*
X327929Y-26011D01*
X328832Y-26253D01*
X329768D01*
X330671Y-26011D01*
X331481Y-25543D01*
X332143Y-24881D01*
X332611Y-24071D01*
X332853Y-23168D01*
Y-22232D01*
X332611Y-21329D01*
X332143Y-20519D01*
X331481Y-19857D01*
X330671Y-19389D01*
X329768Y-19147D01*
D02*
G37*
G36*
X291153Y-24000D02*
X287700D01*
Y-27453D01*
X291153D01*
Y-24000D01*
D02*
G37*
G36*
X286700D02*
X283247D01*
Y-27453D01*
X286700D01*
Y-24000D01*
D02*
G37*
G36*
X200353D02*
X196900D01*
Y-27453D01*
X196920D01*
X197926Y-27183D01*
X198827Y-26663D01*
X199563Y-25927D01*
X200083Y-25026D01*
X200353Y-24020D01*
Y-24000D01*
D02*
G37*
G36*
X195900D02*
X192447D01*
Y-24020D01*
X192717Y-25026D01*
X193237Y-25927D01*
X193973Y-26663D01*
X194874Y-27183D01*
X195880Y-27453D01*
X195900D01*
Y-24000D01*
D02*
G37*
G36*
X274699Y-26300D02*
X272700D01*
Y-28299D01*
X273616Y-27919D01*
X274319Y-27216D01*
X274699Y-26300D01*
D02*
G37*
G36*
X271700D02*
X269701D01*
X270081Y-27216D01*
X270784Y-27919D01*
X271700Y-28299D01*
Y-26300D01*
D02*
G37*
G36*
X210599Y-26700D02*
X208600D01*
Y-28699D01*
X209516Y-28319D01*
X210219Y-27616D01*
X210599Y-26700D01*
D02*
G37*
G36*
X207600D02*
X205601D01*
X205981Y-27616D01*
X206684Y-28319D01*
X207600Y-28699D01*
Y-26700D01*
D02*
G37*
G36*
X329768Y-29147D02*
X328832D01*
X327929Y-29389D01*
X327119Y-29857D01*
X326457Y-30519D01*
X325989Y-31329D01*
X325747Y-32232D01*
Y-33168D01*
X325989Y-34071D01*
X326457Y-34881D01*
X327119Y-35543D01*
X327929Y-36011D01*
X328832Y-36253D01*
X329768D01*
X330671Y-36011D01*
X331481Y-35543D01*
X332143Y-34881D01*
X332611Y-34071D01*
X332853Y-33168D01*
Y-32232D01*
X332611Y-31329D01*
X332143Y-30519D01*
X331481Y-29857D01*
X330671Y-29389D01*
X329768Y-29147D01*
D02*
G37*
G36*
X287668Y-29947D02*
X286732D01*
X285829Y-30189D01*
X285019Y-30657D01*
X284357Y-31319D01*
X283889Y-32129D01*
X283647Y-33032D01*
Y-33968D01*
X283889Y-34871D01*
X284357Y-35681D01*
X285019Y-36343D01*
X285829Y-36811D01*
X286732Y-37053D01*
X287668D01*
X288571Y-36811D01*
X289381Y-36343D01*
X290043Y-35681D01*
X290511Y-34871D01*
X290753Y-33968D01*
Y-33032D01*
X290511Y-32129D01*
X290043Y-31319D01*
X289381Y-30657D01*
X288571Y-30189D01*
X287668Y-29947D01*
D02*
G37*
G36*
X196868D02*
X195932D01*
X195029Y-30189D01*
X194219Y-30657D01*
X193557Y-31319D01*
X193089Y-32129D01*
X192847Y-33032D01*
Y-33968D01*
X193089Y-34871D01*
X193557Y-35681D01*
X194219Y-36343D01*
X195029Y-36811D01*
X195932Y-37053D01*
X196868D01*
X197771Y-36811D01*
X198581Y-36343D01*
X199243Y-35681D01*
X199711Y-34871D01*
X199953Y-33968D01*
Y-33032D01*
X199711Y-32129D01*
X199243Y-31319D01*
X198581Y-30657D01*
X197771Y-30189D01*
X196868Y-29947D01*
D02*
G37*
G36*
X123368Y-35595D02*
X122432D01*
X121529Y-35837D01*
X120719Y-36305D01*
X120057Y-36966D01*
X119589Y-37776D01*
X119347Y-38680D01*
Y-39616D01*
X119589Y-40519D01*
X120057Y-41329D01*
X120719Y-41991D01*
X121529Y-42459D01*
X122432Y-42701D01*
X123368D01*
X124271Y-42459D01*
X125081Y-41991D01*
X125743Y-41329D01*
X126211Y-40519D01*
X126453Y-39616D01*
Y-38680D01*
X126211Y-37776D01*
X125743Y-36966D01*
X125081Y-36305D01*
X124271Y-35837D01*
X123368Y-35595D01*
D02*
G37*
G36*
X329768Y-39147D02*
X328832D01*
X327929Y-39389D01*
X327119Y-39857D01*
X326457Y-40519D01*
X325989Y-41329D01*
X325747Y-42232D01*
Y-43168D01*
X325989Y-44071D01*
X326457Y-44881D01*
X327119Y-45543D01*
X327929Y-46011D01*
X328832Y-46253D01*
X329768D01*
X330671Y-46011D01*
X331481Y-45543D01*
X332143Y-44881D01*
X332611Y-44071D01*
X332853Y-43168D01*
Y-42232D01*
X332611Y-41329D01*
X332143Y-40519D01*
X331481Y-39857D01*
X330671Y-39389D01*
X329768Y-39147D01*
D02*
G37*
G36*
X287668Y-39947D02*
X286732D01*
X285829Y-40189D01*
X285019Y-40657D01*
X284357Y-41319D01*
X283889Y-42129D01*
X283647Y-43032D01*
Y-43968D01*
X283889Y-44871D01*
X284357Y-45681D01*
X285019Y-46343D01*
X285829Y-46811D01*
X286732Y-47053D01*
X287668D01*
X288571Y-46811D01*
X289381Y-46343D01*
X290043Y-45681D01*
X290511Y-44871D01*
X290753Y-43968D01*
Y-43032D01*
X290511Y-42129D01*
X290043Y-41319D01*
X289381Y-40657D01*
X288571Y-40189D01*
X287668Y-39947D01*
D02*
G37*
G36*
X196868D02*
X195932D01*
X195029Y-40189D01*
X194219Y-40657D01*
X193557Y-41319D01*
X193089Y-42129D01*
X192847Y-43032D01*
Y-43968D01*
X193089Y-44871D01*
X193557Y-45681D01*
X194219Y-46343D01*
X195029Y-46811D01*
X195932Y-47053D01*
X196868D01*
X197771Y-46811D01*
X198581Y-46343D01*
X199243Y-45681D01*
X199711Y-44871D01*
X199953Y-43968D01*
Y-43032D01*
X199711Y-42129D01*
X199243Y-41319D01*
X198581Y-40657D01*
X197771Y-40189D01*
X196868Y-39947D01*
D02*
G37*
G36*
X205918Y-45300D02*
X205082D01*
X204310Y-45620D01*
X203720Y-46210D01*
X203400Y-46982D01*
Y-47818D01*
X203720Y-48590D01*
X204310Y-49180D01*
X205082Y-49500D01*
X205918D01*
X206690Y-49180D01*
X207280Y-48590D01*
X207600Y-47818D01*
Y-46982D01*
X207280Y-46210D01*
X206690Y-45620D01*
X205918Y-45300D01*
D02*
G37*
G36*
X163920Y-52147D02*
X163900D01*
Y-55600D01*
X167353D01*
Y-55580D01*
X167083Y-54574D01*
X166563Y-53673D01*
X165827Y-52937D01*
X164926Y-52417D01*
X163920Y-52147D01*
D02*
G37*
G36*
X211618Y-52400D02*
X210782D01*
X210010Y-52720D01*
X209420Y-53311D01*
X209100Y-54082D01*
Y-54918D01*
X209420Y-55690D01*
X210010Y-56280D01*
X210782Y-56600D01*
X211618D01*
X212390Y-56280D01*
X212980Y-55690D01*
X213300Y-54918D01*
Y-54082D01*
X212980Y-53311D01*
X212390Y-52720D01*
X211618Y-52400D01*
D02*
G37*
G36*
X287668Y-49947D02*
X286732D01*
X285829Y-50189D01*
X285019Y-50657D01*
X284357Y-51319D01*
X283889Y-52129D01*
X283647Y-53032D01*
Y-53968D01*
X283889Y-54871D01*
X284357Y-55681D01*
X285019Y-56343D01*
X285829Y-56811D01*
X286732Y-57053D01*
X287668D01*
X288571Y-56811D01*
X289381Y-56343D01*
X290043Y-55681D01*
X290511Y-54871D01*
X290753Y-53968D01*
Y-53032D01*
X290511Y-52129D01*
X290043Y-51319D01*
X289381Y-50657D01*
X288571Y-50189D01*
X287668Y-49947D01*
D02*
G37*
G36*
X196868D02*
X195932D01*
X195029Y-50189D01*
X194219Y-50657D01*
X193557Y-51319D01*
X193089Y-52129D01*
X192847Y-53032D01*
Y-53968D01*
X193089Y-54871D01*
X193557Y-55681D01*
X194219Y-56343D01*
X195029Y-56811D01*
X195932Y-57053D01*
X196868D01*
X197771Y-56811D01*
X198581Y-56343D01*
X199243Y-55681D01*
X199711Y-54871D01*
X199953Y-53968D01*
Y-53032D01*
X199711Y-52129D01*
X199243Y-51319D01*
X198581Y-50657D01*
X197771Y-50189D01*
X196868Y-49947D01*
D02*
G37*
G36*
X167353Y-56600D02*
X163900D01*
Y-60053D01*
X163920D01*
X164926Y-59783D01*
X165827Y-59263D01*
X166563Y-58527D01*
X167083Y-57626D01*
X167353Y-56620D01*
Y-56600D01*
D02*
G37*
G36*
X166800Y-63101D02*
Y-65100D01*
X168799D01*
X168419Y-64184D01*
X167716Y-63481D01*
X166800Y-63101D01*
D02*
G37*
G36*
X165800D02*
X164884Y-63481D01*
X164181Y-64184D01*
X163801Y-65100D01*
X165800D01*
Y-63101D01*
D02*
G37*
G36*
X287668Y-59947D02*
X286732D01*
X285829Y-60189D01*
X285019Y-60657D01*
X284357Y-61319D01*
X283889Y-62129D01*
X283647Y-63032D01*
Y-63968D01*
X283889Y-64871D01*
X284357Y-65681D01*
X285019Y-66343D01*
X285829Y-66811D01*
X286732Y-67053D01*
X287668D01*
X288571Y-66811D01*
X289381Y-66343D01*
X290043Y-65681D01*
X290511Y-64871D01*
X290753Y-63968D01*
Y-63032D01*
X290511Y-62129D01*
X290043Y-61319D01*
X289381Y-60657D01*
X288571Y-60189D01*
X287668Y-59947D01*
D02*
G37*
G36*
X196868D02*
X195932D01*
X195029Y-60189D01*
X194219Y-60657D01*
X193557Y-61319D01*
X193089Y-62129D01*
X192847Y-63032D01*
Y-63968D01*
X193089Y-64871D01*
X193557Y-65681D01*
X194219Y-66343D01*
X195029Y-66811D01*
X195932Y-67053D01*
X196868D01*
X197771Y-66811D01*
X198581Y-66343D01*
X199243Y-65681D01*
X199711Y-64871D01*
X199953Y-63968D01*
Y-63032D01*
X199711Y-62129D01*
X199243Y-61319D01*
X198581Y-60657D01*
X197771Y-60189D01*
X196868Y-59947D01*
D02*
G37*
G36*
X206418Y-62900D02*
X205582D01*
X204810Y-63220D01*
X204220Y-63810D01*
X203900Y-64582D01*
Y-65418D01*
X204220Y-66189D01*
X204810Y-66780D01*
X205582Y-67100D01*
X206418D01*
X207190Y-66780D01*
X207780Y-66189D01*
X208100Y-65418D01*
Y-64582D01*
X207780Y-63810D01*
X207190Y-63220D01*
X206418Y-62900D01*
D02*
G37*
G36*
X176050Y-69653D02*
X173385D01*
Y-73500D01*
X176050D01*
Y-69653D01*
D02*
G37*
G36*
X168799Y-66100D02*
X163801D01*
X164181Y-67016D01*
X164884Y-67719D01*
X165178Y-67841D01*
Y-83035D01*
X154492Y-93722D01*
X154200Y-93601D01*
Y-95600D01*
X156199D01*
X156078Y-95308D01*
X167093Y-84293D01*
X167093Y-84293D01*
X167336Y-83929D01*
X167422Y-83500D01*
X167422Y-83500D01*
Y-69595D01*
X167884Y-69403D01*
X169720Y-71240D01*
Y-73500D01*
X172385D01*
Y-69653D01*
X171306D01*
X168492Y-66840D01*
X168799Y-66100D01*
D02*
G37*
G36*
X287668Y-69947D02*
X286732D01*
X285829Y-70189D01*
X285019Y-70657D01*
X284357Y-71319D01*
X283889Y-72129D01*
X283647Y-73032D01*
Y-73968D01*
X283889Y-74871D01*
X284357Y-75681D01*
X285019Y-76343D01*
X285829Y-76811D01*
X286732Y-77053D01*
X287668D01*
X288571Y-76811D01*
X289381Y-76343D01*
X290043Y-75681D01*
X290511Y-74871D01*
X290753Y-73968D01*
Y-73032D01*
X290511Y-72129D01*
X290043Y-71319D01*
X289381Y-70657D01*
X288571Y-70189D01*
X287668Y-69947D01*
D02*
G37*
G36*
X196868D02*
X195932D01*
X195029Y-70189D01*
X194219Y-70657D01*
X193557Y-71319D01*
X193089Y-72129D01*
X192847Y-73032D01*
Y-73968D01*
X193089Y-74871D01*
X193557Y-75681D01*
X194219Y-76343D01*
X195029Y-76811D01*
X195932Y-77053D01*
X196868D01*
X197771Y-76811D01*
X198581Y-76343D01*
X199243Y-75681D01*
X199711Y-74871D01*
X199953Y-73968D01*
Y-73032D01*
X199711Y-72129D01*
X199243Y-71319D01*
X198581Y-70657D01*
X197771Y-70189D01*
X196868Y-69947D01*
D02*
G37*
G36*
X215220Y-78400D02*
X214385D01*
X213613Y-78720D01*
X213022Y-79311D01*
X212703Y-80082D01*
Y-80918D01*
X213022Y-81690D01*
X213613Y-82280D01*
X214385Y-82600D01*
X215220D01*
X215992Y-82280D01*
X216583Y-81690D01*
X216903Y-80918D01*
Y-80082D01*
X216583Y-79311D01*
X215992Y-78720D01*
X215220Y-78400D01*
D02*
G37*
G36*
X287668Y-79947D02*
X286732D01*
X285829Y-80189D01*
X285019Y-80657D01*
X284357Y-81319D01*
X283889Y-82129D01*
X283647Y-83032D01*
Y-83968D01*
X283889Y-84871D01*
X284357Y-85681D01*
X285019Y-86343D01*
X285829Y-86811D01*
X286732Y-87053D01*
X287668D01*
X288571Y-86811D01*
X289381Y-86343D01*
X290043Y-85681D01*
X290511Y-84871D01*
X290753Y-83968D01*
Y-83032D01*
X290511Y-82129D01*
X290043Y-81319D01*
X289381Y-80657D01*
X288571Y-80189D01*
X287668Y-79947D01*
D02*
G37*
G36*
X196868D02*
X195932D01*
X195029Y-80189D01*
X194219Y-80657D01*
X193557Y-81319D01*
X193089Y-82129D01*
X192847Y-83032D01*
Y-83968D01*
X193089Y-84871D01*
X193557Y-85681D01*
X194219Y-86343D01*
X195029Y-86811D01*
X195932Y-87053D01*
X196868D01*
X197771Y-86811D01*
X198581Y-86343D01*
X199243Y-85681D01*
X199711Y-84871D01*
X199953Y-83968D01*
Y-83032D01*
X199711Y-82129D01*
X199243Y-81319D01*
X198581Y-80657D01*
X197771Y-80189D01*
X196868Y-79947D01*
D02*
G37*
G36*
X153200Y-93601D02*
X152284Y-93981D01*
X151581Y-94684D01*
X151201Y-95600D01*
X153200D01*
Y-93601D01*
D02*
G37*
G36*
X329768Y-49147D02*
X328832D01*
X327929Y-49389D01*
X327119Y-49857D01*
X326457Y-50519D01*
X325989Y-51329D01*
X325747Y-52232D01*
Y-53168D01*
X325989Y-54071D01*
X326457Y-54881D01*
X326633Y-55058D01*
X326442Y-55520D01*
X317200D01*
X316595Y-55640D01*
X316083Y-55983D01*
X304282Y-67783D01*
X303940Y-68295D01*
X303820Y-68900D01*
Y-70328D01*
X303422D01*
Y-75072D01*
X303820D01*
Y-109245D01*
X274222Y-138843D01*
X273826D01*
X273054Y-139163D01*
X272463Y-139754D01*
X272143Y-140526D01*
Y-141209D01*
X272007Y-141412D01*
X271887Y-142017D01*
Y-146378D01*
X230833Y-187432D01*
X229453D01*
X229171Y-186932D01*
X229400Y-186380D01*
Y-185545D01*
X229080Y-184773D01*
X228490Y-184182D01*
X227718Y-183862D01*
X226882D01*
X226110Y-184182D01*
X225520Y-184773D01*
X225200Y-185545D01*
Y-186380D01*
X225429Y-186932D01*
X225147Y-187432D01*
X204788D01*
X204183Y-187552D01*
X203670Y-187895D01*
X200438Y-191127D01*
X199768Y-190947D01*
X198832D01*
X198162Y-191127D01*
X192918Y-185882D01*
X192405Y-185540D01*
X191800Y-185420D01*
X119200D01*
X118595Y-185540D01*
X118082Y-185882D01*
X111165Y-192800D01*
X110882D01*
X110110Y-193120D01*
X109520Y-193710D01*
X109200Y-194482D01*
Y-195318D01*
X109520Y-196090D01*
X110110Y-196680D01*
X110882Y-197000D01*
X111718D01*
X112490Y-196680D01*
X113080Y-196090D01*
X113400Y-195318D01*
Y-195035D01*
X119855Y-188580D01*
X130643D01*
X130850Y-189080D01*
X130720Y-189210D01*
X130400Y-189982D01*
Y-190818D01*
X130720Y-191590D01*
X131310Y-192180D01*
X131378Y-192209D01*
Y-206835D01*
X127686Y-210528D01*
X127618Y-210500D01*
X126782D01*
X126010Y-210820D01*
X125420Y-211410D01*
X125100Y-212182D01*
Y-213018D01*
X125420Y-213790D01*
X126010Y-214380D01*
X126782Y-214700D01*
X127618D01*
X128390Y-214380D01*
X128980Y-213790D01*
X129300Y-213018D01*
Y-212182D01*
X129272Y-212114D01*
X133293Y-208093D01*
X133293Y-208093D01*
X133536Y-207729D01*
X133622Y-207300D01*
Y-192209D01*
X133690Y-192180D01*
X134280Y-191590D01*
X134600Y-190818D01*
Y-189982D01*
X134280Y-189210D01*
X134150Y-189080D01*
X134357Y-188580D01*
X191145D01*
X195927Y-193362D01*
X195747Y-194032D01*
Y-194968D01*
X195989Y-195871D01*
X196457Y-196681D01*
X197119Y-197343D01*
X197929Y-197811D01*
X198832Y-198053D01*
X199768D01*
X200671Y-197811D01*
X201481Y-197343D01*
X202143Y-196681D01*
X202611Y-195871D01*
X202853Y-194968D01*
Y-194032D01*
X202673Y-193362D01*
X205442Y-190593D01*
X231488D01*
X232092Y-190472D01*
X232605Y-190130D01*
X260245Y-162490D01*
X260798Y-162644D01*
X261026Y-163196D01*
X261617Y-163787D01*
X262389Y-164107D01*
X263224D01*
X263996Y-163787D01*
X264587Y-163196D01*
X264615Y-163128D01*
X269542D01*
X269678Y-163265D01*
Y-190373D01*
X225636Y-234416D01*
X220324D01*
X220132Y-233954D01*
X255186Y-198900D01*
X255818D01*
X256590Y-198580D01*
X257180Y-197990D01*
X257500Y-197218D01*
Y-196382D01*
X257180Y-195610D01*
X256590Y-195020D01*
X255818Y-194700D01*
X254982D01*
X254210Y-195020D01*
X253620Y-195610D01*
X253300Y-196382D01*
Y-197218D01*
X253416Y-197498D01*
X215615Y-235299D01*
X215025Y-235181D01*
X214819Y-234684D01*
X214116Y-233981D01*
X213200Y-233601D01*
Y-236100D01*
X212700D01*
Y-236600D01*
X210201D01*
X210581Y-237516D01*
X211284Y-238219D01*
X211781Y-238425D01*
X211899Y-239015D01*
X182035Y-268879D01*
X178709D01*
X178680Y-268810D01*
X178090Y-268220D01*
X177318Y-267900D01*
X176482D01*
X175710Y-268220D01*
X175120Y-268810D01*
X174800Y-269582D01*
Y-270418D01*
X175120Y-271190D01*
X175710Y-271780D01*
X176482Y-272100D01*
X177318D01*
X178090Y-271780D01*
X178680Y-271190D01*
X178709Y-271122D01*
X180207D01*
X180308Y-271611D01*
X180309Y-271621D01*
X179720Y-272210D01*
X179400Y-272982D01*
Y-273818D01*
X179720Y-274590D01*
X180310Y-275180D01*
X181082Y-275500D01*
X181918D01*
X182400Y-275300D01*
X182900Y-275623D01*
Y-276118D01*
X183220Y-276890D01*
X183810Y-277480D01*
X184582Y-277800D01*
X185418D01*
X186190Y-277480D01*
X186780Y-276890D01*
X187100Y-276118D01*
Y-275282D01*
X186780Y-274510D01*
X186190Y-273920D01*
X186122Y-273891D01*
Y-272565D01*
X220427Y-238259D01*
X226763D01*
X226763Y-238259D01*
X227192Y-238173D01*
X227556Y-237930D01*
X276893Y-188593D01*
X276893Y-188593D01*
X277136Y-188229D01*
X277222Y-187800D01*
X277221Y-187800D01*
Y-164200D01*
X277222Y-164200D01*
X277136Y-163771D01*
X276893Y-163407D01*
X272664Y-159178D01*
X272761Y-158687D01*
X272762Y-158687D01*
X273185Y-158264D01*
X273755Y-158332D01*
X273820Y-158490D01*
X274410Y-159080D01*
X275182Y-159400D01*
X276018D01*
X276790Y-159080D01*
X277380Y-158490D01*
X277700Y-157718D01*
Y-156882D01*
X277499Y-156398D01*
X277548Y-156155D01*
Y-144187D01*
X309445Y-112290D01*
X309788Y-111777D01*
X309908Y-111172D01*
Y-77517D01*
X310408Y-77310D01*
X311419Y-78320D01*
X311932Y-78663D01*
X312537Y-78783D01*
X327179D01*
X327313Y-79283D01*
X326873Y-79537D01*
X326137Y-80273D01*
X325617Y-81174D01*
X325347Y-82180D01*
Y-82200D01*
X329300D01*
Y-83200D01*
X325347D01*
Y-83220D01*
X325600Y-84165D01*
X319964Y-89801D01*
X319621Y-90314D01*
X319501Y-90919D01*
Y-121153D01*
X313066Y-127588D01*
X311789D01*
Y-131100D01*
X315301D01*
Y-129823D01*
X322199Y-122925D01*
X322541Y-122413D01*
X322661Y-121808D01*
Y-91574D01*
X325120Y-89115D01*
X325281Y-89114D01*
X325747Y-89568D01*
X325747Y-89627D01*
Y-96253D01*
X332853D01*
Y-91382D01*
X335518Y-88718D01*
X335860Y-88205D01*
X335980Y-87600D01*
Y-79700D01*
X335860Y-79095D01*
X335518Y-78583D01*
X333020Y-76085D01*
X332507Y-75743D01*
X332075Y-75657D01*
X331902Y-75246D01*
X331902Y-75122D01*
X332143Y-74881D01*
X332611Y-74071D01*
X332853Y-73168D01*
Y-72232D01*
X332673Y-71562D01*
X335818Y-68418D01*
X336160Y-67905D01*
X336280Y-67300D01*
Y-60000D01*
X336160Y-59395D01*
X335818Y-58882D01*
X333020Y-56085D01*
X332507Y-55743D01*
X332075Y-55657D01*
X331902Y-55246D01*
X331902Y-55122D01*
X332143Y-54881D01*
X332611Y-54071D01*
X332853Y-53168D01*
Y-52232D01*
X332611Y-51329D01*
X332143Y-50519D01*
X331481Y-49857D01*
X330671Y-49389D01*
X329768Y-49147D01*
D02*
G37*
G36*
X287668Y-89947D02*
X286732D01*
X285829Y-90189D01*
X285019Y-90657D01*
X284357Y-91319D01*
X283889Y-92129D01*
X283647Y-93032D01*
Y-93968D01*
X283889Y-94871D01*
X284357Y-95681D01*
X285019Y-96343D01*
X285829Y-96811D01*
X286732Y-97053D01*
X287668D01*
X288571Y-96811D01*
X289381Y-96343D01*
X290043Y-95681D01*
X290511Y-94871D01*
X290753Y-93968D01*
Y-93032D01*
X290511Y-92129D01*
X290043Y-91319D01*
X289381Y-90657D01*
X288571Y-90189D01*
X287668Y-89947D01*
D02*
G37*
G36*
X199953D02*
X192847D01*
Y-97053D01*
X199953D01*
Y-89947D01*
D02*
G37*
G36*
X156199Y-96600D02*
X154200D01*
Y-98599D01*
X155116Y-98219D01*
X155819Y-97516D01*
X156199Y-96600D01*
D02*
G37*
G36*
X153200D02*
X151201D01*
X151581Y-97516D01*
X152284Y-98219D01*
X153200Y-98599D01*
Y-96600D01*
D02*
G37*
G36*
X173118Y-119519D02*
Y-121518D01*
X175117D01*
X174738Y-120602D01*
X174034Y-119899D01*
X173118Y-119519D01*
D02*
G37*
G36*
X172118D02*
X171202Y-119899D01*
X170499Y-120602D01*
X170119Y-121518D01*
X172118D01*
Y-119519D01*
D02*
G37*
G36*
X175117Y-122518D02*
X173118D01*
Y-124517D01*
X174034Y-124138D01*
X174738Y-123434D01*
X175117Y-122518D01*
D02*
G37*
G36*
X172118D02*
X170119D01*
X170499Y-123434D01*
X171202Y-124138D01*
X172118Y-124517D01*
Y-122518D01*
D02*
G37*
G36*
X227800Y-123601D02*
X226884Y-123981D01*
X226192Y-124672D01*
X218395D01*
X218008Y-124286D01*
X217092Y-123907D01*
Y-126406D01*
Y-128904D01*
X218008Y-128525D01*
X218700Y-127833D01*
X226498D01*
X226884Y-128219D01*
X227800Y-128599D01*
Y-126100D01*
Y-123601D01*
D02*
G37*
G36*
X228800D02*
Y-125600D01*
X230799D01*
X230419Y-124684D01*
X229716Y-123981D01*
X228800Y-123601D01*
D02*
G37*
G36*
X216092Y-123907D02*
X215176Y-124286D01*
X214473Y-124989D01*
X214093Y-125906D01*
X216092D01*
Y-123907D01*
D02*
G37*
G36*
X230799Y-126600D02*
X228800D01*
Y-128599D01*
X229716Y-128219D01*
X230419Y-127516D01*
X230799Y-126600D01*
D02*
G37*
G36*
X216092Y-126906D02*
X214093D01*
X214473Y-127822D01*
X215176Y-128525D01*
X216092Y-128904D01*
Y-126906D01*
D02*
G37*
G36*
X310789Y-127588D02*
X307277D01*
Y-131100D01*
X310789D01*
Y-127588D01*
D02*
G37*
G36*
X155305Y-130967D02*
X152000D01*
Y-134272D01*
X152001D01*
X152969Y-134013D01*
X153836Y-133512D01*
X154545Y-132803D01*
X155046Y-131936D01*
X155305Y-130968D01*
Y-130967D01*
D02*
G37*
G36*
X151000D02*
X147695D01*
Y-130968D01*
X147954Y-131936D01*
X148455Y-132803D01*
X149164Y-133512D01*
X150031Y-134013D01*
X150999Y-134272D01*
X151000D01*
Y-130967D01*
D02*
G37*
G36*
X315301Y-132100D02*
X311789D01*
Y-135612D01*
X315301D01*
Y-132100D01*
D02*
G37*
G36*
X310789D02*
X307277D01*
Y-135612D01*
X310789D01*
Y-132100D01*
D02*
G37*
G36*
X162500Y-135001D02*
Y-137000D01*
X164499D01*
X164119Y-136084D01*
X163416Y-135381D01*
X162500Y-135001D01*
D02*
G37*
G36*
X161500D02*
X160584Y-135381D01*
X159881Y-136084D01*
X159501Y-137000D01*
X161500D01*
Y-135001D01*
D02*
G37*
G36*
X289618Y-135400D02*
X288782D01*
X288010Y-135720D01*
X287420Y-136310D01*
X287100Y-137082D01*
Y-137918D01*
X287420Y-138690D01*
X288010Y-139280D01*
X288782Y-139600D01*
X289618D01*
X290390Y-139280D01*
X290980Y-138690D01*
X291300Y-137918D01*
Y-137082D01*
X290980Y-136310D01*
X290390Y-135720D01*
X289618Y-135400D01*
D02*
G37*
G36*
X164499Y-138000D02*
X162500D01*
Y-139999D01*
X163416Y-139619D01*
X164119Y-138916D01*
X164499Y-138000D01*
D02*
G37*
G36*
X161500D02*
X159501D01*
X159881Y-138916D01*
X160584Y-139619D01*
X161500Y-139999D01*
Y-138000D01*
D02*
G37*
G36*
X76418Y-136300D02*
X75582D01*
X74810Y-136620D01*
X74220Y-137210D01*
X73900Y-137982D01*
Y-138818D01*
X73928Y-138886D01*
X69007Y-143807D01*
X68764Y-144171D01*
X68678Y-144600D01*
X68678Y-144600D01*
Y-221877D01*
X68678Y-221877D01*
X68764Y-222306D01*
X69007Y-222670D01*
X80478Y-234141D01*
Y-238322D01*
X80229Y-238389D01*
X79419Y-238857D01*
X78757Y-239519D01*
X78289Y-240329D01*
X78047Y-241232D01*
Y-242168D01*
X78289Y-243071D01*
X78757Y-243881D01*
X79419Y-244543D01*
X80229Y-245011D01*
X81132Y-245253D01*
X82068D01*
X82971Y-245011D01*
X83781Y-244543D01*
X84443Y-243881D01*
X84911Y-243071D01*
X85153Y-242168D01*
Y-241232D01*
X84911Y-240329D01*
X84443Y-239519D01*
X83781Y-238857D01*
X82971Y-238389D01*
X82722Y-238322D01*
Y-233677D01*
X82722Y-233677D01*
X82636Y-233248D01*
X82393Y-232884D01*
X80060Y-230550D01*
X80217Y-230001D01*
X80778Y-229769D01*
X81369Y-229178D01*
X81688Y-228406D01*
Y-227571D01*
X81369Y-226799D01*
X80778Y-226208D01*
X80006Y-225888D01*
X79171D01*
X78399Y-226208D01*
X77808Y-226799D01*
X77576Y-227360D01*
X77026Y-227517D01*
X70922Y-221412D01*
Y-145065D01*
X75514Y-140472D01*
X75582Y-140500D01*
X76418D01*
X77189Y-140180D01*
X77780Y-139590D01*
X78100Y-138818D01*
Y-137982D01*
X77780Y-137210D01*
X77189Y-136620D01*
X76418Y-136300D01*
D02*
G37*
G36*
X335319Y-136216D02*
X334503D01*
X333715Y-136428D01*
X333008Y-136836D01*
X332430Y-137413D01*
X332022Y-138120D01*
X331811Y-138908D01*
Y-139725D01*
X332022Y-140513D01*
X332430Y-141220D01*
X333008Y-141797D01*
X333715Y-142205D01*
X334503Y-142417D01*
X335319D01*
X336108Y-142205D01*
X336814Y-141797D01*
X337392Y-141220D01*
X337800Y-140513D01*
X338011Y-139725D01*
Y-138908D01*
X337800Y-138120D01*
X337392Y-137413D01*
X336814Y-136836D01*
X336108Y-136428D01*
X335319Y-136216D01*
D02*
G37*
G36*
X299886D02*
X299070D01*
X298281Y-136428D01*
X297574Y-136836D01*
X296997Y-137413D01*
X296589Y-138120D01*
X296378Y-138908D01*
Y-139725D01*
X296589Y-140513D01*
X296997Y-141220D01*
X297574Y-141797D01*
X298281Y-142205D01*
X299070Y-142417D01*
X299886D01*
X300675Y-142205D01*
X301381Y-141797D01*
X301959Y-141220D01*
X302367Y-140513D01*
X302578Y-139725D01*
Y-138908D01*
X302367Y-138120D01*
X301959Y-137413D01*
X301381Y-136836D01*
X300675Y-136428D01*
X299886Y-136216D01*
D02*
G37*
G36*
X220618Y-139700D02*
X219782D01*
X219010Y-140020D01*
X218420Y-140610D01*
X218100Y-141382D01*
Y-142218D01*
X218420Y-142990D01*
X219010Y-143580D01*
X219782Y-143900D01*
X220618D01*
X221390Y-143580D01*
X221980Y-142990D01*
X222300Y-142218D01*
Y-141382D01*
X221980Y-140610D01*
X221390Y-140020D01*
X220618Y-139700D01*
D02*
G37*
G36*
X130318Y-143700D02*
X129482D01*
X128710Y-144020D01*
X128120Y-144610D01*
X127800Y-145382D01*
Y-146218D01*
X127828Y-146286D01*
X108157Y-165957D01*
X107914Y-166321D01*
X107828Y-166750D01*
X107828Y-166750D01*
Y-179385D01*
X104676Y-182538D01*
X104252Y-182255D01*
X104399Y-181900D01*
X101900D01*
Y-181400D01*
X101400D01*
Y-178901D01*
X100484Y-179281D01*
X99781Y-179984D01*
X99714Y-180145D01*
X99685Y-180150D01*
X99172Y-180493D01*
X75169Y-204496D01*
X74700Y-204301D01*
Y-206800D01*
Y-209299D01*
X75616Y-208919D01*
X76319Y-208216D01*
X76634Y-207457D01*
X76767Y-207367D01*
X85905Y-198230D01*
X86328Y-198514D01*
X86300Y-198582D01*
Y-199418D01*
X86620Y-200190D01*
X87211Y-200780D01*
X87982Y-201100D01*
X88818D01*
X89590Y-200780D01*
X90180Y-200190D01*
X90209Y-200122D01*
X93477D01*
X93477Y-200122D01*
X93906Y-200036D01*
X94270Y-199793D01*
X111343Y-182720D01*
X111343Y-182720D01*
X111586Y-182356D01*
X111672Y-181927D01*
Y-176515D01*
X129586Y-158600D01*
X130318D01*
X131090Y-158280D01*
X131680Y-157690D01*
X132000Y-156918D01*
Y-156082D01*
X131680Y-155310D01*
X131090Y-154720D01*
X130318Y-154400D01*
X129482D01*
X128710Y-154720D01*
X128120Y-155310D01*
X127800Y-156082D01*
Y-156918D01*
X127887Y-157127D01*
X110533Y-174480D01*
X110072Y-174289D01*
Y-167215D01*
X129414Y-147872D01*
X129482Y-147900D01*
X130318D01*
X131090Y-147580D01*
X131680Y-146990D01*
X132000Y-146218D01*
Y-145382D01*
X131680Y-144610D01*
X131090Y-144020D01*
X130318Y-143700D01*
D02*
G37*
G36*
X75918Y-151200D02*
X75082D01*
X74310Y-151520D01*
X73720Y-152110D01*
X73400Y-152882D01*
Y-153718D01*
X73720Y-154490D01*
X74310Y-155080D01*
X75082Y-155400D01*
X75918D01*
X76689Y-155080D01*
X77280Y-154490D01*
X77600Y-153718D01*
Y-152882D01*
X77280Y-152110D01*
X76689Y-151520D01*
X75918Y-151200D01*
D02*
G37*
G36*
X194218Y-159600D02*
X193382D01*
X192610Y-159920D01*
X192020Y-160510D01*
X191700Y-161282D01*
Y-162118D01*
X192020Y-162890D01*
X192610Y-163480D01*
X193382Y-163800D01*
X194218D01*
X194990Y-163480D01*
X195580Y-162890D01*
X195900Y-162118D01*
Y-161282D01*
X195580Y-160510D01*
X194990Y-159920D01*
X194218Y-159600D01*
D02*
G37*
G36*
X146618Y-156600D02*
X145782D01*
X145010Y-156920D01*
X144420Y-157510D01*
X144100Y-158282D01*
Y-159118D01*
X144420Y-159890D01*
X145010Y-160480D01*
X145782Y-160800D01*
X146618D01*
X147390Y-160480D01*
X147595Y-160275D01*
X148095Y-160482D01*
Y-160915D01*
X148327Y-161781D01*
X148775Y-162558D01*
X149409Y-163192D01*
X150186Y-163640D01*
X151052Y-163872D01*
X151948D01*
X152814Y-163640D01*
X153591Y-163192D01*
X154225Y-162558D01*
X154673Y-161781D01*
X154905Y-160915D01*
Y-160019D01*
X154673Y-159153D01*
X154225Y-158376D01*
X153591Y-157742D01*
X152814Y-157294D01*
X151948Y-157062D01*
X151052D01*
X150186Y-157294D01*
X149409Y-157742D01*
X148800Y-158351D01*
X148577Y-158336D01*
X148280Y-158234D01*
X147980Y-157510D01*
X147390Y-156920D01*
X146618Y-156600D01*
D02*
G37*
G36*
X77818Y-161400D02*
X76982D01*
X76210Y-161720D01*
X75620Y-162310D01*
X75300Y-163082D01*
Y-163918D01*
X75620Y-164690D01*
X76210Y-165280D01*
X76982Y-165600D01*
X77818D01*
X78589Y-165280D01*
X79180Y-164690D01*
X79500Y-163918D01*
Y-163082D01*
X79180Y-162310D01*
X78589Y-161720D01*
X77818Y-161400D01*
D02*
G37*
G36*
X288718Y-170200D02*
X287882D01*
X287110Y-170520D01*
X286520Y-171110D01*
X286200Y-171882D01*
Y-172718D01*
X286520Y-173490D01*
X287110Y-174080D01*
X287882Y-174400D01*
X288718D01*
X289490Y-174080D01*
X290080Y-173490D01*
X290400Y-172718D01*
Y-171882D01*
X290080Y-171110D01*
X289490Y-170520D01*
X288718Y-170200D01*
D02*
G37*
G36*
X225818Y-170700D02*
X224982D01*
X224210Y-171020D01*
X223620Y-171610D01*
X223300Y-172382D01*
Y-173218D01*
X223620Y-173990D01*
X224210Y-174580D01*
X224982Y-174900D01*
X225818D01*
X226590Y-174580D01*
X227180Y-173990D01*
X227500Y-173218D01*
Y-172382D01*
X227180Y-171610D01*
X226590Y-171020D01*
X225818Y-170700D01*
D02*
G37*
G36*
X233718Y-177800D02*
X232882D01*
X232110Y-178120D01*
X231520Y-178710D01*
X231200Y-179482D01*
Y-179493D01*
X230784Y-179771D01*
X230676Y-179726D01*
X229841D01*
X229069Y-180046D01*
X228478Y-180637D01*
X228159Y-181409D01*
Y-182244D01*
X228478Y-183016D01*
X229069Y-183607D01*
X229841Y-183926D01*
X230676D01*
X231448Y-183607D01*
X232039Y-183016D01*
X232359Y-182244D01*
Y-182233D01*
X232774Y-181955D01*
X232882Y-182000D01*
X233718D01*
X234490Y-181680D01*
X235080Y-181090D01*
X235400Y-180318D01*
Y-179482D01*
X235080Y-178710D01*
X234490Y-178120D01*
X233718Y-177800D01*
D02*
G37*
G36*
X190100Y-178301D02*
Y-180300D01*
X192099D01*
X191719Y-179384D01*
X191016Y-178681D01*
X190100Y-178301D01*
D02*
G37*
G36*
X189100D02*
X188184Y-178681D01*
X187481Y-179384D01*
X187101Y-180300D01*
X189100D01*
Y-178301D01*
D02*
G37*
G36*
X102400Y-178901D02*
Y-180900D01*
X104399D01*
X104019Y-179984D01*
X103316Y-179281D01*
X102400Y-178901D01*
D02*
G37*
G36*
X208218Y-177700D02*
X207382D01*
X206610Y-178020D01*
X206020Y-178610D01*
X205700Y-179382D01*
Y-180218D01*
X206020Y-180990D01*
X206610Y-181580D01*
X207382Y-181900D01*
X208218D01*
X208990Y-181580D01*
X209580Y-180990D01*
X209900Y-180218D01*
Y-179382D01*
X209580Y-178610D01*
X208990Y-178020D01*
X208218Y-177700D01*
D02*
G37*
G36*
X192099Y-181300D02*
X190100D01*
Y-183299D01*
X191016Y-182919D01*
X191719Y-182216D01*
X192099Y-181300D01*
D02*
G37*
G36*
X189100D02*
X187101D01*
X187481Y-182216D01*
X188184Y-182919D01*
X189100Y-183299D01*
Y-181300D01*
D02*
G37*
G36*
X199820Y-180547D02*
X199800D01*
Y-184000D01*
X203253D01*
Y-183980D01*
X202983Y-182974D01*
X202463Y-182073D01*
X201727Y-181337D01*
X200826Y-180817D01*
X199820Y-180547D01*
D02*
G37*
G36*
X198800D02*
X198780D01*
X197774Y-180817D01*
X196873Y-181337D01*
X196137Y-182073D01*
X195617Y-182974D01*
X195347Y-183980D01*
Y-184000D01*
X198800D01*
Y-180547D01*
D02*
G37*
G36*
X128418Y-130100D02*
X127582D01*
X126810Y-130420D01*
X126220Y-131010D01*
X125900Y-131782D01*
Y-132618D01*
X126220Y-133390D01*
X126810Y-133980D01*
X126878Y-134009D01*
Y-140506D01*
X94907Y-172477D01*
X94664Y-172841D01*
X94578Y-173271D01*
X94578Y-173271D01*
Y-181035D01*
X87615Y-187999D01*
X87036Y-187420D01*
X86264Y-187100D01*
X85429D01*
X84657Y-187420D01*
X84066Y-188010D01*
X83746Y-188782D01*
Y-189618D01*
X84066Y-190390D01*
X84657Y-190980D01*
X85429Y-191300D01*
X86264D01*
X87036Y-190980D01*
X87626Y-190390D01*
X87673Y-190277D01*
X88044D01*
X88044Y-190277D01*
X88474Y-190192D01*
X88837Y-189949D01*
X96493Y-182293D01*
X96493Y-182293D01*
X96736Y-181929D01*
X96822Y-181500D01*
X96822Y-181500D01*
Y-173735D01*
X128793Y-141764D01*
X128793Y-141764D01*
X129036Y-141400D01*
X129122Y-140971D01*
X129122Y-140971D01*
Y-134009D01*
X129190Y-133980D01*
X129780Y-133390D01*
X130100Y-132618D01*
Y-131782D01*
X129780Y-131010D01*
X129190Y-130420D01*
X128418Y-130100D01*
D02*
G37*
G36*
X203253Y-185000D02*
X199800D01*
Y-188453D01*
X199820D01*
X200826Y-188183D01*
X201727Y-187663D01*
X202463Y-186927D01*
X202983Y-186026D01*
X203253Y-185020D01*
Y-185000D01*
D02*
G37*
G36*
X198800D02*
X195347D01*
Y-185020D01*
X195617Y-186026D01*
X196137Y-186927D01*
X196873Y-187663D01*
X197774Y-188183D01*
X198780Y-188453D01*
X198800D01*
Y-185000D01*
D02*
G37*
G36*
X78718Y-182300D02*
X77882D01*
X77110Y-182620D01*
X76520Y-183210D01*
X76200Y-183982D01*
Y-184818D01*
X76520Y-185590D01*
X76980Y-186050D01*
X76937Y-186609D01*
X76911Y-186620D01*
X76320Y-187210D01*
X76000Y-187982D01*
Y-188818D01*
X76320Y-189590D01*
X76911Y-190180D01*
X77682Y-190500D01*
X78518D01*
X79290Y-190180D01*
X79880Y-189590D01*
X80200Y-188818D01*
Y-187982D01*
X79880Y-187210D01*
X79420Y-186750D01*
X79463Y-186191D01*
X79489Y-186180D01*
X80080Y-185590D01*
X80400Y-184818D01*
Y-183982D01*
X80080Y-183210D01*
X79489Y-182620D01*
X78718Y-182300D01*
D02*
G37*
G36*
X207810Y-192063D02*
X206975D01*
X206203Y-192383D01*
X205612Y-192974D01*
X205293Y-193745D01*
Y-194581D01*
X205612Y-195353D01*
X206203Y-195943D01*
X206975Y-196263D01*
X207810D01*
X208582Y-195943D01*
X209173Y-195353D01*
X209493Y-194581D01*
Y-193745D01*
X209173Y-192974D01*
X208582Y-192383D01*
X207810Y-192063D01*
D02*
G37*
G36*
X73700Y-204301D02*
X72784Y-204681D01*
X72081Y-205384D01*
X71701Y-206300D01*
X73700D01*
Y-204301D01*
D02*
G37*
G36*
X336725Y-201378D02*
X335908D01*
X335120Y-201589D01*
X334413Y-201997D01*
X333836Y-202574D01*
X333428Y-203281D01*
X333217Y-204070D01*
Y-204886D01*
X333428Y-205675D01*
X333836Y-206381D01*
X334413Y-206959D01*
X335120Y-207367D01*
X335908Y-207578D01*
X336725D01*
X337513Y-207367D01*
X338220Y-206959D01*
X338797Y-206381D01*
X339205Y-205675D01*
X339417Y-204886D01*
Y-204070D01*
X339205Y-203281D01*
X338797Y-202574D01*
X338220Y-201997D01*
X337513Y-201589D01*
X336725Y-201378D01*
D02*
G37*
G36*
X207818Y-203600D02*
X206982D01*
X206210Y-203920D01*
X205620Y-204510D01*
X205300Y-205282D01*
Y-206118D01*
X205620Y-206890D01*
X206210Y-207480D01*
X206982Y-207800D01*
X207818D01*
X208590Y-207480D01*
X209180Y-206890D01*
X209500Y-206118D01*
Y-205282D01*
X209180Y-204510D01*
X208590Y-203920D01*
X207818Y-203600D01*
D02*
G37*
G36*
X199768Y-200947D02*
X198832D01*
X197929Y-201189D01*
X197119Y-201657D01*
X196457Y-202319D01*
X195989Y-203129D01*
X195747Y-204032D01*
Y-204968D01*
X195989Y-205871D01*
X196457Y-206681D01*
X197119Y-207343D01*
X197929Y-207811D01*
X198832Y-208053D01*
X199768D01*
X200671Y-207811D01*
X201481Y-207343D01*
X202143Y-206681D01*
X202611Y-205871D01*
X202853Y-204968D01*
Y-204032D01*
X202611Y-203129D01*
X202143Y-202319D01*
X201481Y-201657D01*
X200671Y-201189D01*
X199768Y-200947D01*
D02*
G37*
G36*
X268618Y-205000D02*
X267782D01*
X267010Y-205320D01*
X266420Y-205910D01*
X266100Y-206682D01*
Y-207518D01*
X266420Y-208290D01*
X267010Y-208880D01*
X267782Y-209200D01*
X268618D01*
X269390Y-208880D01*
X269980Y-208290D01*
X270300Y-207518D01*
Y-206682D01*
X269980Y-205910D01*
X269390Y-205320D01*
X268618Y-205000D01*
D02*
G37*
G36*
X73700Y-207300D02*
X71701D01*
X72081Y-208216D01*
X72784Y-208919D01*
X73700Y-209299D01*
Y-207300D01*
D02*
G37*
G36*
X323575Y-127988D02*
X322624D01*
X321706Y-128234D01*
X320882Y-128710D01*
X320210Y-129382D01*
X319734Y-130206D01*
X319488Y-131124D01*
Y-132076D01*
X319734Y-132994D01*
X320210Y-133818D01*
X320882Y-134490D01*
X321214Y-134681D01*
Y-135505D01*
X312255Y-144464D01*
X295634D01*
X294912Y-144607D01*
X294300Y-145016D01*
X293216Y-146100D01*
X292807Y-146712D01*
X292664Y-147434D01*
Y-196266D01*
X292807Y-196988D01*
X293216Y-197600D01*
X295964Y-200348D01*
Y-209741D01*
X295464Y-210026D01*
X294918Y-209800D01*
X294082D01*
X293310Y-210120D01*
X292720Y-210710D01*
X292400Y-211482D01*
Y-212318D01*
X292720Y-213090D01*
X293310Y-213680D01*
X294082Y-214000D01*
X294918D01*
X295464Y-213774D01*
X295964Y-214059D01*
Y-232355D01*
X282238Y-246081D01*
X261311D01*
X260589Y-246225D01*
X259977Y-246634D01*
X220994Y-285616D01*
X211160D01*
X210953Y-285117D01*
X211380Y-284690D01*
X211700Y-283918D01*
Y-283082D01*
X211380Y-282310D01*
X210790Y-281720D01*
X210018Y-281400D01*
X209182D01*
X208410Y-281720D01*
X207820Y-282310D01*
X207500Y-283082D01*
Y-283918D01*
X207820Y-284690D01*
X208247Y-285117D01*
X208040Y-285616D01*
X198653D01*
Y-279147D01*
X191547D01*
Y-281120D01*
X167055D01*
X159800Y-273865D01*
Y-273582D01*
X159480Y-272810D01*
X158890Y-272220D01*
X158118Y-271900D01*
X157282D01*
X156510Y-272220D01*
X156310Y-272420D01*
X147955D01*
X133180Y-257645D01*
Y-245253D01*
X135153D01*
Y-238147D01*
X128047D01*
Y-245253D01*
X130020D01*
Y-258300D01*
X130140Y-258905D01*
X130482Y-259418D01*
X146183Y-275117D01*
X146695Y-275460D01*
X147300Y-275580D01*
X156310D01*
X156510Y-275780D01*
X157282Y-276100D01*
X157565D01*
X165282Y-283818D01*
X165795Y-284160D01*
X166400Y-284280D01*
X191547D01*
Y-285616D01*
X142681D01*
X141959Y-285760D01*
X141347Y-286169D01*
X109466Y-318050D01*
X109057Y-318662D01*
X108914Y-319384D01*
Y-322247D01*
X107247D01*
Y-329353D01*
X114353D01*
Y-322247D01*
X112686D01*
Y-320165D01*
X135289Y-297563D01*
X135751Y-297754D01*
Y-343700D01*
X135941Y-344159D01*
X136400Y-344349D01*
X183700D01*
X184159Y-344159D01*
X184349Y-343700D01*
Y-296400D01*
X184159Y-295941D01*
X183700Y-295751D01*
X137754D01*
X137563Y-295289D01*
X143462Y-289389D01*
X192114D01*
X192321Y-289889D01*
X191937Y-290273D01*
X191417Y-291174D01*
X191147Y-292180D01*
Y-292200D01*
X195100D01*
X199053D01*
Y-292180D01*
X198783Y-291174D01*
X198263Y-290273D01*
X197879Y-289889D01*
X198086Y-289389D01*
X221775D01*
X222497Y-289245D01*
X223109Y-288837D01*
X259247Y-252698D01*
X259747Y-252905D01*
Y-253238D01*
X259989Y-254141D01*
X260457Y-254952D01*
X261119Y-255613D01*
X261929Y-256081D01*
X262832Y-256323D01*
X263768D01*
X264671Y-256081D01*
X265481Y-255613D01*
X266143Y-254952D01*
X266611Y-254141D01*
X266853Y-253238D01*
Y-252302D01*
X266611Y-251399D01*
X266143Y-250589D01*
X265908Y-250354D01*
X266115Y-249854D01*
X283019D01*
X283741Y-249710D01*
X284353Y-249301D01*
X289910Y-243744D01*
X290499Y-243862D01*
X290693Y-244328D01*
X291232Y-244867D01*
Y-260733D01*
X287400Y-264565D01*
Y-266800D01*
X289635D01*
X293930Y-262505D01*
X294272Y-261993D01*
X294392Y-261388D01*
Y-244867D01*
X294932Y-244328D01*
X295311Y-243412D01*
X292812D01*
Y-242412D01*
X295311D01*
X294932Y-241496D01*
X294228Y-240793D01*
X293762Y-240600D01*
X293644Y-240010D01*
X299184Y-234471D01*
X299593Y-233859D01*
X299736Y-233137D01*
Y-199566D01*
X299593Y-198845D01*
X299184Y-198232D01*
X297563Y-196611D01*
X297754Y-196149D01*
X343700D01*
X344159Y-195959D01*
X344349Y-195500D01*
Y-148200D01*
X344159Y-147741D01*
X343700Y-147551D01*
X315157D01*
X314966Y-147089D01*
X324434Y-137620D01*
X324843Y-137009D01*
X324986Y-136287D01*
Y-134681D01*
X325318Y-134490D01*
X325990Y-133818D01*
X326466Y-132994D01*
X326712Y-132076D01*
Y-131124D01*
X326466Y-130206D01*
X325990Y-129382D01*
X325318Y-128710D01*
X324494Y-128234D01*
X323575Y-127988D01*
D02*
G37*
G36*
X199768Y-210947D02*
X198832D01*
X197929Y-211189D01*
X197119Y-211657D01*
X196457Y-212319D01*
X195989Y-213129D01*
X195747Y-214032D01*
Y-214968D01*
X195989Y-215871D01*
X196457Y-216681D01*
X197119Y-217343D01*
X197929Y-217811D01*
X198832Y-218053D01*
X199768D01*
X200671Y-217811D01*
X201481Y-217343D01*
X202143Y-216681D01*
X202611Y-215871D01*
X202853Y-214968D01*
Y-214032D01*
X202611Y-213129D01*
X202143Y-212319D01*
X201481Y-211657D01*
X200671Y-211189D01*
X199768Y-210947D01*
D02*
G37*
G36*
X329076Y-212677D02*
X328124D01*
X327206Y-212923D01*
X326382Y-213399D01*
X325710Y-214071D01*
X325234Y-214895D01*
X324988Y-215813D01*
Y-216764D01*
X325234Y-217683D01*
X325710Y-218507D01*
X326382Y-219179D01*
X327206Y-219655D01*
X328124Y-219901D01*
X329076D01*
X329994Y-219655D01*
X330818Y-219179D01*
X331490Y-218507D01*
X331966Y-217683D01*
X332212Y-216764D01*
Y-215813D01*
X331966Y-214895D01*
X331490Y-214071D01*
X330818Y-213399D01*
X329994Y-212923D01*
X329076Y-212677D01*
D02*
G37*
G36*
X81318Y-220900D02*
X80482D01*
X79711Y-221220D01*
X79120Y-221810D01*
X78800Y-222582D01*
Y-223418D01*
X79120Y-224190D01*
X79711Y-224780D01*
X80482Y-225100D01*
X81318D01*
X82090Y-224780D01*
X82680Y-224190D01*
X83000Y-223418D01*
Y-222582D01*
X82680Y-221810D01*
X82090Y-221220D01*
X81318Y-220900D01*
D02*
G37*
G36*
X332612Y-224088D02*
X329100D01*
Y-227600D01*
X332612D01*
Y-224088D01*
D02*
G37*
G36*
X328100D02*
X324588D01*
Y-227600D01*
X328100D01*
Y-224088D01*
D02*
G37*
G36*
X202853Y-220947D02*
X195747D01*
Y-228053D01*
X202853D01*
Y-220947D01*
D02*
G37*
G36*
X332612Y-228600D02*
X329100D01*
Y-232112D01*
X332612D01*
Y-228600D01*
D02*
G37*
G36*
X328100D02*
X324588D01*
Y-232112D01*
X328100D01*
Y-228600D01*
D02*
G37*
G36*
X286618Y-228300D02*
X285782D01*
X285010Y-228620D01*
X284810Y-228820D01*
X259700D01*
X259095Y-228940D01*
X258582Y-229282D01*
X231428Y-256437D01*
X219272D01*
X218500Y-255665D01*
Y-255382D01*
X218180Y-254610D01*
X217590Y-254020D01*
X216818Y-253700D01*
X215982D01*
X215210Y-254020D01*
X214620Y-254610D01*
X214300Y-255382D01*
Y-256218D01*
X214620Y-256990D01*
X215210Y-257580D01*
X215982Y-257900D01*
X216265D01*
X217500Y-259135D01*
X218013Y-259477D01*
X218617Y-259598D01*
X232083D01*
X232687Y-259477D01*
X233200Y-259135D01*
X260355Y-231980D01*
X284810D01*
X285010Y-232180D01*
X285782Y-232500D01*
X286618D01*
X287390Y-232180D01*
X287980Y-231590D01*
X288300Y-230818D01*
Y-229982D01*
X287980Y-229210D01*
X287390Y-228620D01*
X286618Y-228300D01*
D02*
G37*
G36*
X212200Y-233601D02*
X211284Y-233981D01*
X210581Y-234684D01*
X210201Y-235600D01*
X212200D01*
Y-233601D01*
D02*
G37*
G36*
X122120Y-237747D02*
X122100D01*
Y-241200D01*
X125553D01*
Y-241180D01*
X125283Y-240174D01*
X124763Y-239273D01*
X124027Y-238537D01*
X123126Y-238017D01*
X122120Y-237747D01*
D02*
G37*
G36*
X121100D02*
X121080D01*
X120074Y-238017D01*
X119173Y-238537D01*
X118437Y-239273D01*
X117917Y-240174D01*
X117647Y-241180D01*
Y-241200D01*
X121100D01*
Y-237747D01*
D02*
G37*
G36*
X336725Y-236811D02*
X335908D01*
X335120Y-237022D01*
X334413Y-237430D01*
X333836Y-238008D01*
X333428Y-238715D01*
X333217Y-239503D01*
Y-240319D01*
X333428Y-241108D01*
X333836Y-241814D01*
X334413Y-242392D01*
X335120Y-242800D01*
X335908Y-243011D01*
X336725D01*
X337513Y-242800D01*
X338220Y-242392D01*
X338797Y-241814D01*
X339205Y-241108D01*
X339417Y-240319D01*
Y-239503D01*
X339205Y-238715D01*
X338797Y-238008D01*
X338220Y-237430D01*
X337513Y-237022D01*
X336725Y-236811D01*
D02*
G37*
G36*
X181068Y-237647D02*
X180132D01*
X179229Y-237889D01*
X178419Y-238357D01*
X177757Y-239019D01*
X177289Y-239829D01*
X177047Y-240732D01*
Y-241668D01*
X177289Y-242571D01*
X177757Y-243381D01*
X178419Y-244043D01*
X179229Y-244511D01*
X180132Y-244753D01*
X181068D01*
X181971Y-244511D01*
X182781Y-244043D01*
X183443Y-243381D01*
X183911Y-242571D01*
X184153Y-241668D01*
Y-240732D01*
X183911Y-239829D01*
X183443Y-239019D01*
X182781Y-238357D01*
X181971Y-237889D01*
X181068Y-237647D01*
D02*
G37*
G36*
X171068D02*
X170132D01*
X169229Y-237889D01*
X168419Y-238357D01*
X167757Y-239019D01*
X167289Y-239829D01*
X167047Y-240732D01*
Y-241668D01*
X167289Y-242571D01*
X167757Y-243381D01*
X168419Y-244043D01*
X169229Y-244511D01*
X170132Y-244753D01*
X171068D01*
X171971Y-244511D01*
X172781Y-244043D01*
X173443Y-243381D01*
X173911Y-242571D01*
X174153Y-241668D01*
Y-240732D01*
X173911Y-239829D01*
X173443Y-239019D01*
X172781Y-238357D01*
X171971Y-237889D01*
X171068Y-237647D01*
D02*
G37*
G36*
X161068D02*
X160132D01*
X159229Y-237889D01*
X158419Y-238357D01*
X157757Y-239019D01*
X157289Y-239829D01*
X157047Y-240732D01*
Y-241668D01*
X157289Y-242571D01*
X157757Y-243381D01*
X158419Y-244043D01*
X159229Y-244511D01*
X160132Y-244753D01*
X161068D01*
X161971Y-244511D01*
X162781Y-244043D01*
X163443Y-243381D01*
X163911Y-242571D01*
X164153Y-241668D01*
Y-240732D01*
X163911Y-239829D01*
X163443Y-239019D01*
X162781Y-238357D01*
X161971Y-237889D01*
X161068Y-237647D01*
D02*
G37*
G36*
X154153D02*
X147047D01*
Y-244753D01*
X154153D01*
Y-237647D01*
D02*
G37*
G36*
X112068Y-238147D02*
X111132D01*
X110229Y-238389D01*
X109419Y-238857D01*
X108757Y-239519D01*
X108289Y-240329D01*
X108047Y-241232D01*
Y-242168D01*
X108289Y-243071D01*
X108757Y-243881D01*
X109419Y-244543D01*
X110229Y-245011D01*
X111132Y-245253D01*
X112068D01*
X112971Y-245011D01*
X113781Y-244543D01*
X114443Y-243881D01*
X114911Y-243071D01*
X115153Y-242168D01*
Y-241232D01*
X114911Y-240329D01*
X114443Y-239519D01*
X113781Y-238857D01*
X112971Y-238389D01*
X112068Y-238147D01*
D02*
G37*
G36*
X102068D02*
X101132D01*
X100229Y-238389D01*
X99419Y-238857D01*
X98757Y-239519D01*
X98289Y-240329D01*
X98047Y-241232D01*
Y-242168D01*
X98289Y-243071D01*
X98757Y-243881D01*
X99419Y-244543D01*
X100229Y-245011D01*
X101132Y-245253D01*
X102068D01*
X102971Y-245011D01*
X103781Y-244543D01*
X104443Y-243881D01*
X104911Y-243071D01*
X105153Y-242168D01*
Y-241232D01*
X104911Y-240329D01*
X104443Y-239519D01*
X103781Y-238857D01*
X102971Y-238389D01*
X102068Y-238147D01*
D02*
G37*
G36*
X92068D02*
X91132D01*
X90229Y-238389D01*
X89419Y-238857D01*
X88757Y-239519D01*
X88289Y-240329D01*
X88047Y-241232D01*
Y-242168D01*
X88289Y-243071D01*
X88757Y-243881D01*
X89419Y-244543D01*
X90229Y-245011D01*
X91132Y-245253D01*
X92068D01*
X92971Y-245011D01*
X93781Y-244543D01*
X94443Y-243881D01*
X94911Y-243071D01*
X95153Y-242168D01*
Y-241232D01*
X94911Y-240329D01*
X94443Y-239519D01*
X93781Y-238857D01*
X92971Y-238389D01*
X92068Y-238147D01*
D02*
G37*
G36*
X125553Y-242200D02*
X122100D01*
Y-245653D01*
X122120D01*
X123126Y-245383D01*
X124027Y-244863D01*
X124763Y-244127D01*
X125283Y-243226D01*
X125553Y-242220D01*
Y-242200D01*
D02*
G37*
G36*
X121100D02*
X117647D01*
Y-242220D01*
X117917Y-243226D01*
X118437Y-244127D01*
X119173Y-244863D01*
X120074Y-245383D01*
X121080Y-245653D01*
X121100D01*
Y-242200D01*
D02*
G37*
G36*
X333020Y-248817D02*
X333000D01*
Y-252270D01*
X336453D01*
Y-252250D01*
X336183Y-251244D01*
X335663Y-250343D01*
X334927Y-249607D01*
X334026Y-249087D01*
X333020Y-248817D01*
D02*
G37*
G36*
X332000D02*
X331980D01*
X330974Y-249087D01*
X330073Y-249607D01*
X329337Y-250343D01*
X328817Y-251244D01*
X328547Y-252250D01*
Y-252270D01*
X332000D01*
Y-248817D01*
D02*
G37*
G36*
X325800Y-252201D02*
Y-254200D01*
X327799D01*
X327419Y-253284D01*
X326716Y-252581D01*
X325800Y-252201D01*
D02*
G37*
G36*
X324800D02*
X323884Y-252581D01*
X323181Y-253284D01*
X322801Y-254200D01*
X324800D01*
Y-252201D01*
D02*
G37*
G36*
X336453Y-253270D02*
X333000D01*
Y-256723D01*
X333020D01*
X334026Y-256453D01*
X334927Y-255933D01*
X335663Y-255197D01*
X336183Y-254296D01*
X336453Y-253291D01*
Y-253270D01*
D02*
G37*
G36*
X332000D02*
X328547D01*
Y-253291D01*
X328817Y-254296D01*
X329337Y-255197D01*
X330073Y-255933D01*
X330974Y-256453D01*
X331980Y-256723D01*
X332000D01*
Y-253270D01*
D02*
G37*
G36*
X327799Y-255200D02*
X325800D01*
Y-257199D01*
X326716Y-256819D01*
X327419Y-256116D01*
X327799Y-255200D01*
D02*
G37*
G36*
X324800D02*
X322801D01*
X323181Y-256116D01*
X323884Y-256819D01*
X324800Y-257199D01*
Y-255200D01*
D02*
G37*
G36*
X293475Y-227466D02*
X292639D01*
X291867Y-227786D01*
X291277Y-228377D01*
X290957Y-229148D01*
Y-229431D01*
X284330Y-236058D01*
X258162D01*
X257557Y-236178D01*
X257044Y-236521D01*
X230145Y-263420D01*
X223105D01*
X222824Y-263139D01*
X222311Y-262797D01*
X221707Y-262676D01*
X218540D01*
X218340Y-262476D01*
X217568Y-262157D01*
X216732D01*
X215960Y-262476D01*
X215370Y-263067D01*
X215050Y-263839D01*
Y-264674D01*
X215163Y-264947D01*
X214829Y-265447D01*
X209547D01*
Y-272553D01*
X216653D01*
Y-270580D01*
X231600D01*
X232205Y-270460D01*
X232717Y-270117D01*
X242235Y-260600D01*
X242518D01*
X243290Y-260280D01*
X243880Y-259690D01*
X244200Y-258918D01*
Y-258082D01*
X243880Y-257310D01*
X243290Y-256720D01*
X242518Y-256400D01*
X242342D01*
X242135Y-255900D01*
X258816Y-239219D01*
X284985D01*
X285590Y-239098D01*
X286102Y-238756D01*
X293192Y-231666D01*
X293475D01*
X294247Y-231346D01*
X294837Y-230756D01*
X295157Y-229984D01*
Y-229148D01*
X294837Y-228377D01*
X294247Y-227786D01*
X293475Y-227466D01*
D02*
G37*
G36*
X48018Y-259600D02*
X47182D01*
X46410Y-259920D01*
X45820Y-260510D01*
X45500Y-261282D01*
Y-262118D01*
X45820Y-262890D01*
X46410Y-263480D01*
X47182Y-263800D01*
X48018D01*
X48790Y-263480D01*
X49380Y-262890D01*
X49700Y-262118D01*
Y-261282D01*
X49380Y-260510D01*
X48790Y-259920D01*
X48018Y-259600D01*
D02*
G37*
G36*
X27053Y-258647D02*
X19947D01*
Y-265753D01*
X27053D01*
Y-258647D01*
D02*
G37*
G36*
X332968Y-259217D02*
X332032D01*
X331129Y-259459D01*
X330319Y-259927D01*
X329657Y-260589D01*
X329189Y-261399D01*
X328947Y-262302D01*
Y-263238D01*
X329189Y-264141D01*
X329657Y-264951D01*
X330319Y-265613D01*
X331129Y-266081D01*
X332032Y-266323D01*
X332968D01*
X333871Y-266081D01*
X334681Y-265613D01*
X335343Y-264951D01*
X335811Y-264141D01*
X336053Y-263238D01*
Y-262302D01*
X335811Y-261399D01*
X335343Y-260589D01*
X334681Y-259927D01*
X333871Y-259459D01*
X332968Y-259217D01*
D02*
G37*
G36*
X263768D02*
X262832D01*
X261929Y-259459D01*
X261119Y-259927D01*
X260457Y-260589D01*
X259989Y-261399D01*
X259747Y-262302D01*
Y-263238D01*
X259989Y-264141D01*
X260457Y-264951D01*
X261119Y-265613D01*
X261929Y-266081D01*
X262832Y-266323D01*
X263768D01*
X264671Y-266081D01*
X265481Y-265613D01*
X266143Y-264951D01*
X266611Y-264141D01*
X266853Y-263238D01*
Y-262302D01*
X266611Y-261399D01*
X266143Y-260589D01*
X265481Y-259927D01*
X264671Y-259459D01*
X263768Y-259217D01*
D02*
G37*
G36*
X286400Y-264801D02*
X285484Y-265181D01*
X284781Y-265884D01*
X284401Y-266800D01*
X286400D01*
Y-264801D01*
D02*
G37*
G36*
X203620Y-265047D02*
X203600D01*
Y-268500D01*
X207053D01*
Y-268480D01*
X206783Y-267474D01*
X206263Y-266573D01*
X205527Y-265837D01*
X204626Y-265317D01*
X203620Y-265047D01*
D02*
G37*
G36*
X202600D02*
X202580D01*
X201574Y-265317D01*
X200673Y-265837D01*
X199937Y-266573D01*
X199417Y-267474D01*
X199147Y-268480D01*
Y-268500D01*
X202600D01*
Y-265047D01*
D02*
G37*
G36*
X90318Y-264600D02*
X89482D01*
X88710Y-264920D01*
X88120Y-265510D01*
X87800Y-266282D01*
Y-267118D01*
X88120Y-267890D01*
X88710Y-268480D01*
X89482Y-268800D01*
X90318D01*
X91089Y-268480D01*
X91680Y-267890D01*
X92000Y-267118D01*
Y-266282D01*
X91680Y-265510D01*
X91089Y-264920D01*
X90318Y-264600D01*
D02*
G37*
G36*
X289399Y-267800D02*
X287400D01*
Y-269799D01*
X288316Y-269419D01*
X289019Y-268716D01*
X289399Y-267800D01*
D02*
G37*
G36*
X286400D02*
X284401D01*
X284781Y-268716D01*
X285484Y-269419D01*
X286400Y-269799D01*
Y-267800D01*
D02*
G37*
G36*
X207053Y-269500D02*
X203600D01*
Y-272953D01*
X203620D01*
X204626Y-272683D01*
X205527Y-272163D01*
X206263Y-271427D01*
X206783Y-270526D01*
X207053Y-269520D01*
Y-269500D01*
D02*
G37*
G36*
X202600D02*
X199147D01*
Y-269520D01*
X199417Y-270526D01*
X199937Y-271427D01*
X200673Y-272163D01*
X201574Y-272683D01*
X202580Y-272953D01*
X202600D01*
Y-269500D01*
D02*
G37*
G36*
X23968Y-268647D02*
X23032D01*
X22129Y-268889D01*
X21319Y-269357D01*
X20657Y-270019D01*
X20189Y-270829D01*
X19947Y-271732D01*
Y-272668D01*
X20189Y-273571D01*
X20657Y-274381D01*
X21319Y-275043D01*
X22129Y-275511D01*
X23032Y-275753D01*
X23968D01*
X24871Y-275511D01*
X25681Y-275043D01*
X26343Y-274381D01*
X26811Y-273571D01*
X27053Y-272668D01*
Y-271732D01*
X26811Y-270829D01*
X26343Y-270019D01*
X25681Y-269357D01*
X24871Y-268889D01*
X23968Y-268647D01*
D02*
G37*
G36*
X332968Y-269217D02*
X332032D01*
X331129Y-269459D01*
X330319Y-269927D01*
X329657Y-270589D01*
X329189Y-271399D01*
X328947Y-272302D01*
Y-273238D01*
X329189Y-274141D01*
X329657Y-274952D01*
X330319Y-275613D01*
X331129Y-276081D01*
X332032Y-276323D01*
X332968D01*
X333871Y-276081D01*
X334681Y-275613D01*
X335343Y-274952D01*
X335811Y-274141D01*
X336053Y-273238D01*
Y-272302D01*
X335811Y-271399D01*
X335343Y-270589D01*
X334681Y-269927D01*
X333871Y-269459D01*
X332968Y-269217D01*
D02*
G37*
G36*
X263768D02*
X262832D01*
X261929Y-269459D01*
X261119Y-269927D01*
X260457Y-270589D01*
X259989Y-271399D01*
X259747Y-272302D01*
Y-273238D01*
X259989Y-274141D01*
X260457Y-274952D01*
X261119Y-275613D01*
X261929Y-276081D01*
X262832Y-276323D01*
X263768D01*
X264671Y-276081D01*
X265481Y-275613D01*
X266143Y-274952D01*
X266611Y-274141D01*
X266853Y-273238D01*
Y-272302D01*
X266611Y-271399D01*
X266143Y-270589D01*
X265481Y-269927D01*
X264671Y-269459D01*
X263768Y-269217D01*
D02*
G37*
G36*
X117618Y-275500D02*
X116782D01*
X116010Y-275820D01*
X115420Y-276410D01*
X115100Y-277182D01*
Y-278018D01*
X115420Y-278790D01*
X116010Y-279380D01*
X116782Y-279700D01*
X117618D01*
X118390Y-279380D01*
X118980Y-278790D01*
X119300Y-278018D01*
Y-277182D01*
X118980Y-276410D01*
X118390Y-275820D01*
X117618Y-275500D01*
D02*
G37*
G36*
X109818Y-275600D02*
X108982D01*
X108210Y-275920D01*
X107620Y-276510D01*
X107300Y-277282D01*
Y-278118D01*
X107620Y-278890D01*
X108210Y-279480D01*
X108982Y-279800D01*
X109818D01*
X110590Y-279480D01*
X111180Y-278890D01*
X111500Y-278118D01*
Y-277282D01*
X111180Y-276510D01*
X110590Y-275920D01*
X109818Y-275600D01*
D02*
G37*
G36*
X23968Y-278647D02*
X23032D01*
X22129Y-278889D01*
X21319Y-279357D01*
X20657Y-280019D01*
X20189Y-280829D01*
X19947Y-281732D01*
Y-282668D01*
X20189Y-283571D01*
X20657Y-284381D01*
X21319Y-285043D01*
X22129Y-285511D01*
X23032Y-285753D01*
X23968D01*
X24871Y-285511D01*
X25681Y-285043D01*
X26343Y-284381D01*
X26811Y-283571D01*
X27053Y-282668D01*
Y-281732D01*
X26811Y-280829D01*
X26343Y-280019D01*
X25681Y-279357D01*
X24871Y-278889D01*
X23968Y-278647D01*
D02*
G37*
G36*
X332968Y-279217D02*
X332032D01*
X331129Y-279459D01*
X330319Y-279927D01*
X329657Y-280589D01*
X329189Y-281399D01*
X328947Y-282302D01*
Y-283238D01*
X329189Y-284141D01*
X329657Y-284951D01*
X330319Y-285613D01*
X331129Y-286081D01*
X332032Y-286323D01*
X332968D01*
X333871Y-286081D01*
X334681Y-285613D01*
X335343Y-284951D01*
X335811Y-284141D01*
X336053Y-283238D01*
Y-282302D01*
X335811Y-281399D01*
X335343Y-280589D01*
X334681Y-279927D01*
X333871Y-279459D01*
X332968Y-279217D01*
D02*
G37*
G36*
X263768D02*
X262832D01*
X261929Y-279459D01*
X261119Y-279927D01*
X260457Y-280589D01*
X259989Y-281399D01*
X259747Y-282302D01*
Y-283238D01*
X259989Y-284141D01*
X260457Y-284951D01*
X261119Y-285613D01*
X261929Y-286081D01*
X262832Y-286323D01*
X263768D01*
X264671Y-286081D01*
X265481Y-285613D01*
X266143Y-284951D01*
X266611Y-284141D01*
X266853Y-283238D01*
Y-282302D01*
X266611Y-281399D01*
X266143Y-280589D01*
X265481Y-279927D01*
X264671Y-279459D01*
X263768Y-279217D01*
D02*
G37*
G36*
X42418Y-286400D02*
X41582D01*
X40810Y-286720D01*
X40220Y-287310D01*
X39900Y-288082D01*
Y-288918D01*
X40220Y-289690D01*
X40810Y-290280D01*
X41582Y-290600D01*
X42418D01*
X43190Y-290280D01*
X43780Y-289690D01*
X44100Y-288918D01*
Y-288082D01*
X43780Y-287310D01*
X43190Y-286720D01*
X42418Y-286400D01*
D02*
G37*
G36*
X101018Y-289100D02*
X100182D01*
X99410Y-289420D01*
X98820Y-290010D01*
X98500Y-290782D01*
Y-291565D01*
X97145Y-292920D01*
X95565D01*
Y-290553D01*
X90035D01*
Y-298446D01*
X95565D01*
Y-296080D01*
X97800D01*
X98405Y-295960D01*
X98918Y-295618D01*
X101389Y-293146D01*
X101789Y-292980D01*
X102380Y-292390D01*
X102700Y-291618D01*
Y-290782D01*
X102380Y-290010D01*
X101789Y-289420D01*
X101018Y-289100D01*
D02*
G37*
G36*
X85335Y-290154D02*
X82670D01*
Y-294000D01*
X85335D01*
Y-290154D01*
D02*
G37*
G36*
X81670D02*
X79005D01*
Y-294000D01*
X81670D01*
Y-290154D01*
D02*
G37*
G36*
X23968Y-288647D02*
X23032D01*
X22129Y-288889D01*
X21319Y-289357D01*
X20657Y-290019D01*
X20189Y-290829D01*
X19947Y-291732D01*
Y-292668D01*
X20189Y-293571D01*
X20657Y-294381D01*
X21319Y-295043D01*
X22129Y-295511D01*
X23032Y-295753D01*
X23968D01*
X24871Y-295511D01*
X25681Y-295043D01*
X26343Y-294381D01*
X26811Y-293571D01*
X27053Y-292668D01*
Y-291732D01*
X26811Y-290829D01*
X26343Y-290019D01*
X25681Y-289357D01*
X24871Y-288889D01*
X23968Y-288647D01*
D02*
G37*
G36*
X332968Y-289217D02*
X332032D01*
X331129Y-289459D01*
X330319Y-289927D01*
X329657Y-290589D01*
X329189Y-291399D01*
X328947Y-292302D01*
Y-293238D01*
X329189Y-294141D01*
X329657Y-294952D01*
X330319Y-295613D01*
X331129Y-296081D01*
X332032Y-296323D01*
X332968D01*
X333871Y-296081D01*
X334681Y-295613D01*
X335343Y-294952D01*
X335811Y-294141D01*
X336053Y-293238D01*
Y-292302D01*
X335811Y-291399D01*
X335343Y-290589D01*
X334681Y-289927D01*
X333871Y-289459D01*
X332968Y-289217D01*
D02*
G37*
G36*
X263768D02*
X262832D01*
X261929Y-289459D01*
X261119Y-289927D01*
X260457Y-290589D01*
X259989Y-291399D01*
X259747Y-292302D01*
Y-293238D01*
X259989Y-294141D01*
X260457Y-294952D01*
X261119Y-295613D01*
X261929Y-296081D01*
X262832Y-296323D01*
X263768D01*
X264671Y-296081D01*
X265481Y-295613D01*
X266143Y-294952D01*
X266611Y-294141D01*
X266853Y-293238D01*
Y-292302D01*
X266611Y-291399D01*
X266143Y-290589D01*
X265481Y-289927D01*
X264671Y-289459D01*
X263768Y-289217D01*
D02*
G37*
G36*
X199053Y-293200D02*
X195600D01*
Y-296653D01*
X195620D01*
X196626Y-296383D01*
X197527Y-295863D01*
X198263Y-295127D01*
X198783Y-294226D01*
X199053Y-293220D01*
Y-293200D01*
D02*
G37*
G36*
X194600D02*
X191147D01*
Y-293220D01*
X191417Y-294226D01*
X191937Y-295127D01*
X192673Y-295863D01*
X193574Y-296383D01*
X194580Y-296653D01*
X194600D01*
Y-293200D01*
D02*
G37*
G36*
X85335Y-295000D02*
X82670D01*
Y-298847D01*
X85335D01*
Y-295000D01*
D02*
G37*
G36*
X81670D02*
X79005D01*
Y-298847D01*
X81670D01*
Y-295000D01*
D02*
G37*
G36*
X23968Y-298647D02*
X23032D01*
X22129Y-298889D01*
X21319Y-299357D01*
X20657Y-300019D01*
X20189Y-300829D01*
X19947Y-301732D01*
Y-302668D01*
X20189Y-303571D01*
X20657Y-304381D01*
X21319Y-305043D01*
X22129Y-305511D01*
X23032Y-305753D01*
X23968D01*
X24871Y-305511D01*
X25681Y-305043D01*
X26343Y-304381D01*
X26811Y-303571D01*
X27053Y-302668D01*
Y-301732D01*
X26811Y-300829D01*
X26343Y-300019D01*
X25681Y-299357D01*
X24871Y-298889D01*
X23968Y-298647D01*
D02*
G37*
G36*
X195568Y-299147D02*
X194632D01*
X193729Y-299389D01*
X192919Y-299857D01*
X192257Y-300519D01*
X191789Y-301329D01*
X191547Y-302232D01*
Y-303168D01*
X191789Y-304071D01*
X192257Y-304881D01*
X192919Y-305543D01*
X193729Y-306011D01*
X194632Y-306253D01*
X195568D01*
X196471Y-306011D01*
X197281Y-305543D01*
X197943Y-304881D01*
X198411Y-304071D01*
X198653Y-303168D01*
Y-302232D01*
X198411Y-301329D01*
X197943Y-300519D01*
X197281Y-299857D01*
X196471Y-299389D01*
X195568Y-299147D01*
D02*
G37*
G36*
X332968Y-299217D02*
X332032D01*
X331129Y-299459D01*
X330319Y-299927D01*
X329657Y-300589D01*
X329189Y-301399D01*
X328947Y-302302D01*
Y-303238D01*
X329189Y-304141D01*
X329657Y-304952D01*
X330319Y-305613D01*
X331129Y-306081D01*
X332032Y-306323D01*
X332968D01*
X333871Y-306081D01*
X334681Y-305613D01*
X335343Y-304952D01*
X335811Y-304141D01*
X336053Y-303238D01*
Y-302302D01*
X335811Y-301399D01*
X335343Y-300589D01*
X334681Y-299927D01*
X333871Y-299459D01*
X332968Y-299217D01*
D02*
G37*
G36*
X263768D02*
X262832D01*
X261929Y-299459D01*
X261119Y-299927D01*
X260457Y-300589D01*
X259989Y-301399D01*
X259747Y-302302D01*
Y-303238D01*
X259989Y-304141D01*
X260457Y-304952D01*
X261119Y-305613D01*
X261929Y-306081D01*
X262832Y-306323D01*
X263768D01*
X264671Y-306081D01*
X265481Y-305613D01*
X266143Y-304952D01*
X266611Y-304141D01*
X266853Y-303238D01*
Y-302302D01*
X266611Y-301399D01*
X266143Y-300589D01*
X265481Y-299927D01*
X264671Y-299459D01*
X263768Y-299217D01*
D02*
G37*
G36*
X332000Y-308817D02*
X328547D01*
Y-310731D01*
X267253D01*
Y-308817D01*
X263800D01*
Y-312770D01*
Y-316723D01*
X267253D01*
Y-314809D01*
X328547D01*
Y-316723D01*
X332000D01*
Y-312770D01*
Y-308817D01*
D02*
G37*
G36*
X24020Y-308247D02*
X24000D01*
Y-311700D01*
X27453D01*
Y-311680D01*
X27183Y-310674D01*
X26663Y-309773D01*
X25927Y-309037D01*
X25026Y-308517D01*
X24020Y-308247D01*
D02*
G37*
G36*
X23000D02*
X22980D01*
X21974Y-308517D01*
X21073Y-309037D01*
X20337Y-309773D01*
X19817Y-310674D01*
X19547Y-311680D01*
Y-311700D01*
X23000D01*
Y-308247D01*
D02*
G37*
G36*
X336453Y-308817D02*
X333000D01*
Y-312270D01*
X336453D01*
Y-308817D01*
D02*
G37*
G36*
X262800D02*
X259347D01*
Y-312270D01*
X262800D01*
Y-308817D01*
D02*
G37*
G36*
X47900Y-310601D02*
Y-312600D01*
X49899D01*
X49519Y-311684D01*
X48816Y-310981D01*
X47900Y-310601D01*
D02*
G37*
G36*
X46900D02*
X45984Y-310981D01*
X45281Y-311684D01*
X44901Y-312600D01*
X46900D01*
Y-310601D01*
D02*
G37*
G36*
Y-313600D02*
X44901D01*
X45281Y-314516D01*
X45984Y-315219D01*
X46900Y-315599D01*
Y-313600D01*
D02*
G37*
G36*
X27453Y-312700D02*
X24000D01*
Y-316153D01*
X24020D01*
X25026Y-315883D01*
X25927Y-315363D01*
X26663Y-314627D01*
X27183Y-313726D01*
X27453Y-312720D01*
Y-312700D01*
D02*
G37*
G36*
X23000D02*
X19547D01*
Y-312720D01*
X19817Y-313726D01*
X20337Y-314627D01*
X21073Y-315363D01*
X21974Y-315883D01*
X22980Y-316153D01*
X23000D01*
Y-312700D01*
D02*
G37*
G36*
X195568Y-309147D02*
X194632D01*
X193729Y-309389D01*
X192919Y-309857D01*
X192257Y-310519D01*
X191789Y-311329D01*
X191547Y-312232D01*
Y-313168D01*
X191789Y-314071D01*
X192257Y-314881D01*
X192919Y-315543D01*
X193729Y-316011D01*
X194632Y-316253D01*
X195568D01*
X196471Y-316011D01*
X197281Y-315543D01*
X197943Y-314881D01*
X198411Y-314071D01*
X198653Y-313168D01*
Y-312232D01*
X198411Y-311329D01*
X197943Y-310519D01*
X197281Y-309857D01*
X196471Y-309389D01*
X195568Y-309147D01*
D02*
G37*
G36*
X336453Y-313270D02*
X333000D01*
Y-316723D01*
X336453D01*
Y-313270D01*
D02*
G37*
G36*
X262800D02*
X259347D01*
Y-316723D01*
X262800D01*
Y-313270D01*
D02*
G37*
G36*
X43918Y-316400D02*
X43082D01*
X42310Y-316720D01*
X41720Y-317310D01*
X41400Y-318082D01*
Y-318918D01*
X41720Y-319690D01*
X42310Y-320280D01*
X43082Y-320600D01*
X43918D01*
X44690Y-320280D01*
X45280Y-319690D01*
X45600Y-318918D01*
Y-318082D01*
X45280Y-317310D01*
X44690Y-316720D01*
X43918Y-316400D01*
D02*
G37*
G36*
X101320Y-321847D02*
X101300D01*
Y-325300D01*
X104753D01*
Y-325280D01*
X104483Y-324274D01*
X103963Y-323373D01*
X103227Y-322637D01*
X102326Y-322117D01*
X101320Y-321847D01*
D02*
G37*
G36*
X71320D02*
X71300D01*
Y-325300D01*
X74753D01*
Y-325280D01*
X74483Y-324274D01*
X73963Y-323373D01*
X73227Y-322637D01*
X72326Y-322117D01*
X71320Y-321847D01*
D02*
G37*
G36*
X100300D02*
X100280D01*
X99274Y-322117D01*
X98373Y-322637D01*
X97637Y-323373D01*
X97117Y-324274D01*
X96847Y-325280D01*
Y-325300D01*
X100300D01*
Y-321847D01*
D02*
G37*
G36*
X50135Y-313600D02*
X47900D01*
Y-315835D01*
X52982Y-320918D01*
X53495Y-321260D01*
X54100Y-321380D01*
X64145D01*
X67100Y-324335D01*
X66847Y-325280D01*
Y-325300D01*
X70300D01*
Y-321847D01*
X70280D01*
X69335Y-322100D01*
X65917Y-318683D01*
X65405Y-318340D01*
X64800Y-318220D01*
X54755D01*
X50135Y-313600D01*
D02*
G37*
G36*
X23968Y-318647D02*
X23032D01*
X22129Y-318889D01*
X21319Y-319357D01*
X20657Y-320019D01*
X20189Y-320829D01*
X19947Y-321732D01*
Y-322668D01*
X20189Y-323571D01*
X20657Y-324381D01*
X21319Y-325043D01*
X22129Y-325511D01*
X23032Y-325753D01*
X23968D01*
X24871Y-325511D01*
X25681Y-325043D01*
X26343Y-324381D01*
X26811Y-323571D01*
X27053Y-322668D01*
Y-321732D01*
X26811Y-320829D01*
X26343Y-320019D01*
X25681Y-319357D01*
X24871Y-318889D01*
X23968Y-318647D01*
D02*
G37*
G36*
X195568Y-319147D02*
X194632D01*
X193729Y-319389D01*
X192919Y-319857D01*
X192257Y-320519D01*
X191789Y-321329D01*
X191547Y-322232D01*
Y-323168D01*
X191789Y-324071D01*
X192257Y-324881D01*
X192919Y-325543D01*
X193729Y-326011D01*
X194632Y-326253D01*
X195568D01*
X196471Y-326011D01*
X197281Y-325543D01*
X197943Y-324881D01*
X198411Y-324071D01*
X198653Y-323168D01*
Y-322232D01*
X198411Y-321329D01*
X197943Y-320519D01*
X197281Y-319857D01*
X196471Y-319389D01*
X195568Y-319147D01*
D02*
G37*
G36*
X91268Y-322247D02*
X90332D01*
X89429Y-322489D01*
X88619Y-322957D01*
X87957Y-323619D01*
X87489Y-324429D01*
X87247Y-325332D01*
Y-326268D01*
X87489Y-327171D01*
X87957Y-327981D01*
X88619Y-328643D01*
X89429Y-329111D01*
X90332Y-329353D01*
X91268D01*
X92171Y-329111D01*
X92981Y-328643D01*
X93643Y-327981D01*
X94111Y-327171D01*
X94353Y-326268D01*
Y-325332D01*
X94111Y-324429D01*
X93643Y-323619D01*
X92981Y-322957D01*
X92171Y-322489D01*
X91268Y-322247D01*
D02*
G37*
G36*
X81268D02*
X80332D01*
X79429Y-322489D01*
X78619Y-322957D01*
X77957Y-323619D01*
X77489Y-324429D01*
X77247Y-325332D01*
Y-326268D01*
X77489Y-327171D01*
X77957Y-327981D01*
X78619Y-328643D01*
X79429Y-329111D01*
X80332Y-329353D01*
X81268D01*
X82171Y-329111D01*
X82981Y-328643D01*
X83643Y-327981D01*
X84111Y-327171D01*
X84353Y-326268D01*
Y-325332D01*
X84111Y-324429D01*
X83643Y-323619D01*
X82981Y-322957D01*
X82171Y-322489D01*
X81268Y-322247D01*
D02*
G37*
G36*
X61268D02*
X60332D01*
X59429Y-322489D01*
X58619Y-322957D01*
X57957Y-323619D01*
X57489Y-324429D01*
X57247Y-325332D01*
Y-326268D01*
X57489Y-327171D01*
X57957Y-327981D01*
X58619Y-328643D01*
X59429Y-329111D01*
X60332Y-329353D01*
X61268D01*
X62171Y-329111D01*
X62981Y-328643D01*
X63643Y-327981D01*
X64111Y-327171D01*
X64353Y-326268D01*
Y-325332D01*
X64111Y-324429D01*
X63643Y-323619D01*
X62981Y-322957D01*
X62171Y-322489D01*
X61268Y-322247D01*
D02*
G37*
G36*
X104753Y-326300D02*
X101300D01*
Y-329753D01*
X101320D01*
X102326Y-329483D01*
X103227Y-328963D01*
X103963Y-328227D01*
X104483Y-327326D01*
X104753Y-326320D01*
Y-326300D01*
D02*
G37*
G36*
X100300D02*
X96847D01*
Y-326320D01*
X97117Y-327326D01*
X97637Y-328227D01*
X98373Y-328963D01*
X99274Y-329483D01*
X100280Y-329753D01*
X100300D01*
Y-326300D01*
D02*
G37*
G36*
X74753D02*
X71300D01*
Y-329753D01*
X71320D01*
X72326Y-329483D01*
X73227Y-328963D01*
X73963Y-328227D01*
X74483Y-327326D01*
X74753Y-326320D01*
Y-326300D01*
D02*
G37*
G36*
X70300D02*
X66847D01*
Y-326320D01*
X67117Y-327326D01*
X67637Y-328227D01*
X68373Y-328963D01*
X69274Y-329483D01*
X70280Y-329753D01*
X70300D01*
Y-326300D01*
D02*
G37*
G36*
X87500Y-332501D02*
Y-334500D01*
X89499D01*
X89119Y-333584D01*
X88416Y-332881D01*
X87500Y-332501D01*
D02*
G37*
G36*
X86500D02*
X85584Y-332881D01*
X84881Y-333584D01*
X84501Y-334500D01*
X86500D01*
Y-332501D01*
D02*
G37*
G36*
X23968Y-328647D02*
X23032D01*
X22129Y-328889D01*
X21319Y-329357D01*
X20657Y-330019D01*
X20189Y-330829D01*
X19947Y-331732D01*
Y-332668D01*
X20189Y-333571D01*
X20657Y-334381D01*
X21319Y-335043D01*
X22129Y-335511D01*
X23032Y-335753D01*
X23968D01*
X24871Y-335511D01*
X25681Y-335043D01*
X26343Y-334381D01*
X26811Y-333571D01*
X27053Y-332668D01*
Y-331732D01*
X26811Y-330829D01*
X26343Y-330019D01*
X25681Y-329357D01*
X24871Y-328889D01*
X23968Y-328647D01*
D02*
G37*
G36*
X195568Y-329147D02*
X194632D01*
X193729Y-329389D01*
X192919Y-329857D01*
X192257Y-330519D01*
X191789Y-331329D01*
X191547Y-332232D01*
Y-333168D01*
X191789Y-334071D01*
X192257Y-334881D01*
X192919Y-335543D01*
X193729Y-336011D01*
X194632Y-336253D01*
X195568D01*
X196471Y-336011D01*
X197281Y-335543D01*
X197943Y-334881D01*
X198411Y-334071D01*
X198653Y-333168D01*
Y-332232D01*
X198411Y-331329D01*
X197943Y-330519D01*
X197281Y-329857D01*
X196471Y-329389D01*
X195568Y-329147D01*
D02*
G37*
G36*
X89499Y-335500D02*
X87500D01*
Y-337499D01*
X88416Y-337119D01*
X89119Y-336416D01*
X89499Y-335500D01*
D02*
G37*
G36*
X86500D02*
X84501D01*
X84881Y-336416D01*
X85584Y-337119D01*
X86500Y-337499D01*
Y-335500D01*
D02*
G37*
%LPD*%
G36*
X327435Y-58783D02*
X328259D01*
X328325Y-59283D01*
X327929Y-59389D01*
X327119Y-59857D01*
X326457Y-60519D01*
X326110Y-61120D01*
X316069D01*
X315877Y-60658D01*
X317855Y-58680D01*
X326918D01*
X327435Y-58783D01*
D02*
G37*
G36*
X333120Y-64104D02*
Y-66645D01*
X330438Y-69327D01*
X329768Y-69147D01*
X328832D01*
X327929Y-69389D01*
X327119Y-69857D01*
X326457Y-70519D01*
X325989Y-71329D01*
X325747Y-72232D01*
Y-73168D01*
X325989Y-74071D01*
X326457Y-74881D01*
X326698Y-75122D01*
X326491Y-75622D01*
X313646D01*
X313269Y-75122D01*
X313283Y-75072D01*
X313283D01*
Y-70328D01*
X310514D01*
X310307Y-69828D01*
X315855Y-64280D01*
X326110D01*
X326457Y-64881D01*
X327119Y-65543D01*
X327929Y-66011D01*
X328832Y-66253D01*
X329768D01*
X330671Y-66011D01*
X331481Y-65543D01*
X332143Y-64881D01*
X332611Y-64071D01*
X332620Y-64038D01*
X333120Y-64104D01*
D02*
G37*
G36*
X274387Y-149001D02*
Y-155543D01*
X273987Y-155943D01*
X273417Y-155875D01*
X273352Y-155717D01*
X272762Y-155127D01*
X271990Y-154807D01*
X271154D01*
X270382Y-155127D01*
X269792Y-155717D01*
X269472Y-156489D01*
Y-157325D01*
X269792Y-158096D01*
X269908Y-158212D01*
X269746Y-158454D01*
X269661Y-158883D01*
X269746Y-159312D01*
X269990Y-159676D01*
X274912Y-164598D01*
X274870Y-165070D01*
X274444Y-165318D01*
X273918Y-165100D01*
X273082D01*
X272422Y-165374D01*
X271921Y-165155D01*
Y-162800D01*
X271922Y-162800D01*
X271836Y-162371D01*
X271593Y-162007D01*
X271593Y-162007D01*
X270800Y-161214D01*
X270436Y-160970D01*
X270007Y-160885D01*
X270007Y-160885D01*
X264615D01*
X264587Y-160817D01*
X263996Y-160226D01*
X263444Y-159998D01*
X263290Y-159445D01*
X273925Y-148810D01*
X274387Y-149001D01*
D02*
G37*
G36*
X273082Y-169300D02*
X273918D01*
X274478Y-169068D01*
X274978Y-169345D01*
Y-187335D01*
X272383Y-189930D01*
X271921Y-189739D01*
Y-169245D01*
X272422Y-169026D01*
X273082Y-169300D01*
D02*
G37*
G36*
X96820Y-188011D02*
X96500Y-188782D01*
Y-189618D01*
X96820Y-190390D01*
X97411Y-190980D01*
X98182Y-191300D01*
X98884D01*
X99114Y-191698D01*
X99129Y-191762D01*
X93012Y-197878D01*
X90209D01*
X90180Y-197810D01*
X89590Y-197220D01*
X88818Y-196900D01*
X87982D01*
X87914Y-196928D01*
X87630Y-196504D01*
X96458Y-187677D01*
X96820Y-188011D01*
D02*
G37*
D14*
X270007Y-162007D02*
X270800Y-162800D01*
X262807Y-162007D02*
X270007D01*
X270783Y-158883D02*
X271189Y-158476D01*
Y-157289D02*
X271572Y-156907D01*
X271189Y-158476D02*
Y-157289D01*
X182249Y-86650D02*
X182536Y-86937D01*
X182135Y-86536D02*
X182249Y-86650D01*
X181961Y-86362D02*
X182135Y-86536D01*
X74559Y-206441D02*
X74583Y-206417D01*
X74200Y-206800D02*
X74559Y-206441D01*
X95700Y-173271D02*
X128000Y-140971D01*
Y-132200D01*
X95700Y-181500D02*
Y-173271D01*
X226763Y-237137D02*
X276100Y-187800D01*
Y-164200D01*
X270783Y-158883D02*
X276100Y-164200D01*
X270800Y-190837D02*
Y-162800D01*
X226100Y-235537D02*
X270800Y-190837D01*
X172800Y-89799D02*
X174687Y-91687D01*
Y-100213D02*
Y-91687D01*
X182249Y-92949D02*
X183048Y-92149D01*
X183222D01*
X182135Y-86536D02*
Y-86362D01*
X182536Y-86937D02*
X182710D01*
X184599Y-88826D01*
Y-90773D02*
Y-88826D01*
X172800Y-83500D02*
X178321D01*
X183222Y-92149D02*
X184599Y-90773D01*
X181183Y-86362D02*
X181961D01*
X178321Y-83500D02*
X181183Y-86362D01*
X1393Y-20834D02*
X2106Y-20121D01*
X16107D02*
X24086Y-28100D01*
X2106Y-20121D02*
X16107D01*
X174600Y-100300D02*
X174687Y-100213D01*
X168300Y-88100D02*
X169999Y-89799D01*
X172800D01*
X172726Y-92874D02*
X172800Y-92949D01*
X168574Y-92874D02*
X172726D01*
X168500Y-92800D02*
X168574Y-92874D01*
X172800Y-83500D02*
Y-74085D01*
X172885Y-74000D01*
X166683Y-66616D02*
X172885Y-72819D01*
X166300Y-65600D02*
X166683Y-65983D01*
X172885Y-74000D02*
Y-72819D01*
X166683Y-66616D02*
Y-65983D01*
X166300Y-83500D02*
Y-65600D01*
X153700Y-96100D02*
X166300Y-83500D01*
X6000Y-79300D02*
Y-73685D01*
X5544Y-73229D02*
X6000Y-73685D01*
X88044Y-189156D02*
X95700Y-181500D01*
X85846Y-189200D02*
X85891Y-189156D01*
X88044D01*
X103466Y-184334D02*
X104466D01*
X98600Y-189200D02*
X103466Y-184334D01*
X104466D02*
X108950Y-179850D01*
X93477Y-199000D02*
X110550Y-181927D01*
X88400Y-199000D02*
X93477D01*
X110550Y-181927D02*
Y-176050D01*
X69800Y-221877D02*
Y-144600D01*
Y-221877D02*
X81600Y-233677D01*
X69800Y-144600D02*
X76000Y-138400D01*
X1393Y-28064D02*
Y-20834D01*
Y-28064D02*
X3674Y-30345D01*
X1300Y-32719D02*
X3674Y-30345D01*
X1300Y-57174D02*
X5544Y-61418D01*
X1300Y-57174D02*
Y-32719D01*
X7414Y-65355D02*
X9695Y-63074D01*
Y-51094D01*
X5544Y-46943D02*
X9695Y-51094D01*
X5544Y-46943D02*
Y-34282D01*
X1393Y-83640D02*
Y-67636D01*
X3674Y-65355D01*
X127200Y-212600D02*
X132500Y-207300D01*
X255400Y-197100D02*
Y-196800D01*
X182500Y-270000D02*
X255400Y-197100D01*
X176900Y-270000D02*
X182500D01*
X181500Y-273400D02*
Y-273337D01*
X219300Y-235537D01*
X185000Y-275700D02*
Y-272100D01*
X219963Y-237137D01*
X226763D01*
X219300Y-235537D02*
X226100D01*
X110550Y-176050D02*
X129900Y-156700D01*
Y-156500D01*
X108950Y-166750D02*
X129900Y-145800D01*
X108950Y-179850D02*
Y-166750D01*
X132500Y-207300D02*
Y-190400D01*
X81600Y-241700D02*
Y-233677D01*
D22*
X311305Y-72700D02*
D03*
X305400D02*
D03*
X174600Y-100300D02*
D03*
X180506D02*
D03*
D28*
X6500Y-88747D02*
D03*
Y-94653D02*
D03*
D30*
X172885Y-74000D02*
D03*
X183515D02*
D03*
X92800Y-294500D02*
D03*
X82170D02*
D03*
D55*
X218617Y-258017D02*
X232083D01*
X216400Y-255800D02*
X218617Y-258017D01*
X232083D02*
X259700Y-230400D01*
X74559Y-206441D02*
X74708Y-206590D01*
X221707Y-264257D02*
X222450Y-265000D01*
X217150Y-264257D02*
X221707D01*
X222450Y-265000D02*
X230800D01*
X216592Y-126406D02*
X216745Y-126253D01*
X228147D02*
X228300Y-126100D01*
X216745Y-126253D02*
X228147D01*
X199300Y-131400D02*
X200875Y-129825D01*
X199250Y-128200D02*
X200875Y-129825D01*
X202500Y-128200D01*
X191600Y-117300D02*
X202500Y-128200D01*
X286900Y-267300D02*
X292812Y-261388D01*
Y-242912D01*
X284985Y-237638D02*
X293057Y-229566D01*
X230800Y-265000D02*
X258162Y-237638D01*
X259700Y-230400D02*
X286200D01*
X258162Y-237638D02*
X284985D01*
X10950Y-97750D02*
Y-94650D01*
X13300Y-92300D01*
X64400D01*
X81800Y-109700D01*
X5706Y-99200D02*
X9500D01*
X10950Y-97750D01*
X2000Y-95494D02*
X5706Y-99200D01*
X2000Y-92853D02*
X5678Y-89175D01*
X2000Y-95494D02*
Y-92853D01*
X5678Y-89175D02*
X6072D01*
X6500Y-88747D01*
X78300Y-176400D02*
X83600D01*
X94100Y-165900D02*
Y-117800D01*
X83600Y-176400D02*
X94100Y-165900D01*
X81800Y-172900D02*
Y-109700D01*
X143200Y-142167D02*
Y-68700D01*
X94100Y-117800D02*
X143200Y-68700D01*
Y-66300D01*
X153400Y-56100D01*
X143200Y-142167D02*
X151500Y-150467D01*
X111300Y-194900D02*
X119200Y-187000D01*
X191800D02*
X199300Y-194500D01*
X119200Y-187000D02*
X191800D01*
X151500Y-140467D02*
Y-139463D01*
X153065Y-137898D02*
Y-137835D01*
X151500Y-139463D02*
X153065Y-137898D01*
X157622Y-133278D02*
Y-125935D01*
X153065Y-137835D02*
X157622Y-133278D01*
X148053Y-124822D02*
X156509D01*
X157622Y-125935D01*
X147000Y-94598D02*
X158600Y-82998D01*
X147000Y-123769D02*
Y-94598D01*
Y-123769D02*
X148053Y-124822D01*
X149700Y-49800D02*
X157487D01*
X158600Y-50913D01*
Y-82998D02*
Y-50913D01*
X143400Y-56100D02*
X149700Y-49800D01*
X275600Y-157300D02*
X275811Y-157089D01*
Y-156312D01*
X275967Y-156155D01*
Y-143533D01*
X273467Y-147033D02*
Y-142017D01*
X275967Y-143533D02*
X308328Y-111172D01*
X231488Y-189012D02*
X273467Y-147033D01*
Y-142017D02*
X274243Y-141241D01*
X308328Y-111172D02*
Y-69572D01*
X274243Y-141241D02*
Y-140943D01*
X315200Y-62700D02*
X329300D01*
X308328Y-69572D02*
X315200Y-62700D01*
X305400Y-68900D02*
X317200Y-57100D01*
X305400Y-109900D02*
Y-68900D01*
X317200Y-57100D02*
X327332D01*
X331903Y-57203D02*
X334700Y-60000D01*
X327435Y-57203D02*
X331903D01*
X327332Y-57100D02*
X327435Y-57203D01*
X204788Y-189012D02*
X231488D01*
X274300Y-141000D02*
X305400Y-109900D01*
X74708Y-206590D02*
X75048Y-206250D01*
X75650D02*
X100289Y-181611D01*
X101690D02*
X101900Y-181400D01*
X75048Y-206250D02*
X75650D01*
X100289Y-181611D02*
X101690D01*
X199300Y-194500D02*
X204788Y-189012D01*
X231600Y-269000D02*
X242100Y-258500D01*
X213100Y-269000D02*
X231600D01*
X334400Y-87600D02*
Y-79700D01*
X312537Y-77203D02*
X331903D01*
X334400Y-79700D01*
X311305Y-72700D02*
X311360Y-72754D01*
Y-76026D02*
X312537Y-77203D01*
X311360Y-76026D02*
Y-72754D01*
X329300Y-92700D02*
X334400Y-87600D01*
X154667Y-117300D02*
X191600D01*
X151500Y-120467D02*
X154667Y-117300D01*
X180506Y-106205D02*
X191600Y-117300D01*
X125600Y-182500D02*
X132200Y-175900D01*
X198216Y-174500D02*
X199300D01*
X196816Y-175900D02*
X198216Y-174500D01*
X132200Y-175900D02*
X196816D01*
X199300Y-174500D02*
Y-131400D01*
X178400Y-97300D02*
X180377Y-99278D01*
X178400Y-97300D02*
Y-91208D01*
X174354Y-87162D02*
X178400Y-91208D01*
X181099Y-89799D02*
X182249D01*
X172800Y-86650D02*
X177950D01*
X181099Y-89799D01*
X180377Y-100172D02*
Y-99278D01*
Y-100172D02*
X180506Y-100300D01*
X188545Y-93255D02*
Y-88754D01*
X180506Y-99906D02*
X180633Y-99778D01*
X182022D02*
X188545Y-93255D01*
X180633Y-99778D02*
X182022D01*
X183802Y-84012D02*
X188545Y-88754D01*
X182249Y-83500D02*
X182761Y-84012D01*
X183802D01*
X173400Y-56100D02*
X183515Y-66215D01*
X182249Y-83500D02*
Y-75266D01*
X183515Y-74000D01*
X180506Y-106205D02*
Y-100300D01*
X183515Y-74000D02*
Y-66215D01*
X14000Y-34464D02*
X15464Y-33000D01*
X14000Y-66100D02*
Y-34464D01*
X15464Y-33000D02*
X22000D01*
X10808Y-69292D02*
X14000Y-66100D01*
X11471Y-22471D02*
X22000Y-33000D01*
X28841D01*
X5544Y-22471D02*
X11471D01*
X28841Y-33000D02*
X32698Y-36858D01*
X5544Y-69292D02*
X10808D01*
X9362Y-70198D02*
X11100Y-71937D01*
X6894Y-94653D02*
X11100Y-90447D01*
Y-71937D01*
X6500Y-94653D02*
X6894D01*
X32600Y-58410D02*
X59610Y-31400D01*
X77300D01*
X24086Y-28100D02*
X96000D01*
X118959Y-51059D01*
X138359D02*
X143400Y-56100D01*
X131600Y-258300D02*
Y-241700D01*
X147300Y-274000D02*
X157700D01*
X131600Y-258300D02*
X147300Y-274000D01*
X157700D02*
X166400Y-282700D01*
X195100D01*
X334700Y-67300D02*
Y-60000D01*
X329300Y-72700D02*
X334700Y-67300D01*
X321081Y-121808D02*
Y-90919D01*
X329300Y-82700D01*
X311289Y-131600D02*
X321081Y-121808D01*
X118959Y-51059D02*
X138359D01*
X3674Y-30345D02*
X5544D01*
Y-65355D02*
X7414D01*
X78300Y-176400D02*
X81800Y-172900D01*
X1393Y-83640D02*
X6500Y-88747D01*
X3674Y-65355D02*
X5544D01*
X47400Y-313100D02*
X54100Y-319800D01*
X64800D02*
X70800Y-325800D01*
X54100Y-319800D02*
X64800D01*
X100600Y-291700D02*
Y-291200D01*
X97800Y-294500D02*
X100600Y-291700D01*
X92800Y-294500D02*
X97800D01*
D56*
X10363Y-31673D02*
Y-27763D01*
X9439Y-26839D02*
X10363Y-27763D01*
X5975Y-26839D02*
X9439D01*
X5544Y-26408D02*
X5975Y-26839D01*
X10363Y-31673D02*
X10650Y-31960D01*
D57*
X110800Y-325800D02*
Y-319384D01*
X142681Y-287503D01*
X294550Y-196266D02*
Y-147434D01*
X142681Y-287503D02*
X221775D01*
X294550Y-147434D02*
X295634Y-146350D01*
X221775Y-287503D02*
X261311Y-247967D01*
X283019D02*
X297850Y-233137D01*
X313037Y-146350D02*
X323100Y-136287D01*
X261311Y-247967D02*
X283019D01*
X323100Y-136287D02*
Y-131600D01*
X297850Y-233137D02*
Y-199566D01*
X294550Y-196266D02*
X297850Y-199566D01*
X295634Y-146350D02*
X313037D01*
D58*
X287200Y-93500D02*
D03*
Y-83500D02*
D03*
Y-73500D02*
D03*
Y-63500D02*
D03*
Y-53500D02*
D03*
Y-43500D02*
D03*
Y-33500D02*
D03*
X332500Y-252770D02*
D03*
Y-262770D02*
D03*
Y-272770D02*
D03*
Y-282770D02*
D03*
Y-302770D02*
D03*
Y-292770D02*
D03*
X163400Y-56100D02*
D03*
X153400D02*
D03*
X143400D02*
D03*
X133400D02*
D03*
X199300Y-174500D02*
D03*
Y-184500D02*
D03*
Y-194500D02*
D03*
Y-204500D02*
D03*
Y-214500D02*
D03*
X92900Y-39148D02*
D03*
X122900D02*
D03*
X92900Y-19148D02*
D03*
X122900D02*
D03*
X329300Y-72700D02*
D03*
Y-62700D02*
D03*
Y-52700D02*
D03*
Y-42700D02*
D03*
Y-32700D02*
D03*
Y-22700D02*
D03*
Y-12700D02*
D03*
Y-82700D02*
D03*
X196400Y-83500D02*
D03*
Y-73500D02*
D03*
Y-63500D02*
D03*
Y-53500D02*
D03*
Y-43500D02*
D03*
Y-33500D02*
D03*
Y-23500D02*
D03*
X23500Y-272200D02*
D03*
Y-282200D02*
D03*
Y-292200D02*
D03*
Y-302200D02*
D03*
Y-312200D02*
D03*
Y-322200D02*
D03*
Y-332200D02*
D03*
X263300Y-252770D02*
D03*
Y-262770D02*
D03*
Y-272770D02*
D03*
Y-282770D02*
D03*
Y-302770D02*
D03*
Y-292770D02*
D03*
X100800Y-325800D02*
D03*
X90800D02*
D03*
X80800D02*
D03*
X70800D02*
D03*
X60800D02*
D03*
X121600Y-241700D02*
D03*
X111600D02*
D03*
X101600D02*
D03*
X91600D02*
D03*
X81600D02*
D03*
X195100Y-292700D02*
D03*
Y-302700D02*
D03*
Y-312700D02*
D03*
Y-322700D02*
D03*
Y-332700D02*
D03*
X180600Y-241200D02*
D03*
X170600D02*
D03*
X160600D02*
D03*
X203100Y-269000D02*
D03*
X32698Y-36858D02*
D03*
X62698D02*
D03*
X32698Y-16858D02*
D03*
X62698D02*
D03*
X122500Y-60700D02*
D03*
X92500D02*
D03*
X122500Y-80700D02*
D03*
X92500D02*
D03*
X32600Y-78410D02*
D03*
X62600D02*
D03*
X32600Y-58410D02*
D03*
X62600D02*
D03*
D59*
X287200Y-23500D02*
D03*
X332500Y-312770D02*
D03*
X199300Y-224500D02*
D03*
X329300Y-92700D02*
D03*
X196400Y-93500D02*
D03*
X23500Y-262200D02*
D03*
X263300Y-312770D02*
D03*
X195100Y-282700D02*
D03*
D60*
X173400Y-56100D02*
D03*
X110800Y-325800D02*
D03*
X131600Y-241700D02*
D03*
X150600Y-241200D02*
D03*
X213100Y-269000D02*
D03*
D61*
X334911Y-139316D02*
D03*
X299478D02*
D03*
X336316Y-204478D02*
D03*
Y-239911D02*
D03*
D62*
X323100Y-131600D02*
D03*
X328600Y-216289D02*
D03*
D63*
X311289Y-131600D02*
D03*
D64*
X151500Y-180467D02*
D03*
Y-170467D02*
D03*
Y-160467D02*
D03*
Y-150467D02*
D03*
Y-140467D02*
D03*
Y-130467D02*
D03*
D65*
Y-120467D02*
D03*
D66*
X38100Y-223000D02*
D03*
X160000Y-320000D02*
D03*
Y-23700D02*
D03*
X319900Y-171800D02*
D03*
X38100Y-127400D02*
D03*
D67*
X328600Y-228100D02*
D03*
D68*
X216400Y-255800D02*
D03*
X227300Y-185962D02*
D03*
X230259Y-181826D02*
D03*
X217150Y-264257D02*
D03*
X220200Y-141800D02*
D03*
X216592Y-126406D02*
D03*
X262807Y-162007D02*
D03*
X214803Y-80500D02*
D03*
X207393Y-194163D02*
D03*
X207800Y-179800D02*
D03*
X206000Y-65000D02*
D03*
X199250Y-128200D02*
D03*
X193800Y-161700D02*
D03*
X271572Y-156907D02*
D03*
X292812Y-242912D02*
D03*
X294500Y-211900D02*
D03*
X293057Y-229566D02*
D03*
X85888Y-168412D02*
D03*
X78750Y-158900D02*
D03*
X286200Y-230400D02*
D03*
X273500Y-167200D02*
D03*
X274243Y-140943D02*
D03*
X233300Y-179900D02*
D03*
X43500Y-318500D02*
D03*
X242100Y-258500D02*
D03*
X288300Y-172300D02*
D03*
X172618Y-122018D02*
D03*
X10650Y-31960D02*
D03*
X125600Y-182500D02*
D03*
X168300Y-88100D02*
D03*
X168500Y-92800D02*
D03*
X153700Y-96100D02*
D03*
X166300Y-65600D02*
D03*
X77300Y-31400D02*
D03*
X286900Y-267300D02*
D03*
X6000Y-79300D02*
D03*
X268200Y-207100D02*
D03*
X189600Y-180800D02*
D03*
X128000Y-132200D02*
D03*
X98600Y-189200D02*
D03*
X85846D02*
D03*
X111300Y-194900D02*
D03*
X78100Y-188400D02*
D03*
X225400Y-172800D02*
D03*
X212700Y-236100D02*
D03*
X157700Y-274000D02*
D03*
X209600Y-283500D02*
D03*
X74200Y-206800D02*
D03*
X101900Y-181400D02*
D03*
X88400Y-199000D02*
D03*
X80900Y-223000D02*
D03*
X228300Y-126100D02*
D03*
X325300Y-254700D02*
D03*
X207400Y-205700D02*
D03*
X275600Y-157300D02*
D03*
X272200Y-25800D02*
D03*
X208100Y-26200D02*
D03*
X162000Y-137500D02*
D03*
X74700Y-45800D02*
D03*
X78300Y-176400D02*
D03*
Y-184400D02*
D03*
X127200Y-212600D02*
D03*
X100600Y-291200D02*
D03*
X47400Y-313100D02*
D03*
X87000Y-335000D02*
D03*
X42000Y-288500D02*
D03*
X255400Y-196800D02*
D03*
X176900Y-270000D02*
D03*
X181500Y-273400D02*
D03*
X89900Y-266700D02*
D03*
X129900Y-156500D02*
D03*
Y-145800D02*
D03*
X88200Y-86900D02*
D03*
X185000Y-275700D02*
D03*
X132500Y-190400D02*
D03*
X79589Y-227989D02*
D03*
X76000Y-138400D02*
D03*
X75500Y-153300D02*
D03*
X211200Y-54500D02*
D03*
X77400Y-163500D02*
D03*
X289200Y-137500D02*
D03*
X146200Y-158700D02*
D03*
X47600Y-261700D02*
D03*
X205500Y-47400D02*
D03*
X117200Y-277600D02*
D03*
X109400Y-277700D02*
D03*
D69*
X20800Y-78347D02*
D03*
Y-56300D02*
D03*
Y-17353D02*
D03*
Y-39400D02*
D03*
D70*
X5544Y-61418D02*
D03*
Y-65355D02*
D03*
Y-69292D02*
D03*
Y-73229D02*
D03*
Y-34282D02*
D03*
Y-30345D02*
D03*
Y-26408D02*
D03*
Y-22471D02*
D03*
D71*
X172800Y-83500D02*
D03*
Y-86650D02*
D03*
Y-89799D02*
D03*
Y-92949D02*
D03*
X182249D02*
D03*
Y-89799D02*
D03*
Y-86650D02*
D03*
Y-83500D02*
D03*
D72*
X263300Y-312770D02*
X332500D01*
M02*
