G04*
G04 #@! TF.GenerationSoftware,Altium Limited,Altium Designer,22.2.1 (43)*
G04*
G04 Layer_Physical_Order=4*
G04 Layer_Color=16711680*
%FSLAX25Y25*%
%MOIN*%
G70*
G04*
G04 #@! TF.SameCoordinates,91E75CD4-E1FE-4043-AE3D-700B569F0639*
G04*
G04*
G04 #@! TF.FilePolarity,Positive*
G04*
G01*
G75*
%ADD12C,0.01000*%
%ADD16R,0.02756X0.03543*%
%ADD26R,0.03543X0.02756*%
%ADD28R,0.04331X0.06693*%
%ADD52C,0.01900*%
%ADD55C,0.05906*%
%ADD56R,0.05906X0.05906*%
%ADD57R,0.05906X0.05906*%
%ADD58C,0.02500*%
%ADD59C,0.06024*%
%ADD60R,0.06024X0.06024*%
%ADD61C,0.05610*%
%ADD62R,0.05610X0.05610*%
%ADD63C,0.06000*%
%ADD64R,0.06024X0.06024*%
%ADD65C,0.03000*%
%ADD66R,0.07800X0.02200*%
%ADD67R,0.07087X0.04724*%
%ADD68R,0.06102X0.02362*%
%ADD69R,0.01575X0.01575*%
%ADD70C,0.02500*%
%ADD71C,0.02800*%
G36*
X156620Y-69736D02*
Y-94144D01*
X144880Y-105883D01*
X144380Y-105676D01*
Y-80500D01*
Y-78755D01*
X151862Y-71273D01*
X152532Y-71453D01*
X153468D01*
X154371Y-71211D01*
X155181Y-70743D01*
X155843Y-70081D01*
X156120Y-69602D01*
X156620Y-69736D01*
D02*
G37*
G36*
X12821Y-70271D02*
X11247Y-71845D01*
X10031D01*
X9878Y-71875D01*
X9722D01*
X9569Y-71845D01*
X8353D01*
X7191Y-70682D01*
Y-69642D01*
X7243Y-69589D01*
X7989Y-69280D01*
X8580Y-68690D01*
X8900Y-67918D01*
Y-67082D01*
X8580Y-66311D01*
X7989Y-65720D01*
X7218Y-65400D01*
X6382D01*
X5610Y-65720D01*
X5020Y-66311D01*
X4700Y-67082D01*
Y-67663D01*
X4493Y-67870D01*
X4150Y-68382D01*
X4030Y-68987D01*
X3530Y-68986D01*
Y-54334D01*
X10254Y-47611D01*
X12821D01*
Y-70271D01*
D02*
G37*
G36*
X18220Y-44055D02*
Y-78895D01*
X13951Y-83163D01*
X13451Y-82989D01*
Y-79749D01*
X13451D01*
Y-79375D01*
X13451D01*
Y-75938D01*
X13451Y-75812D01*
X13451D01*
Y-75438D01*
X13451D01*
Y-74110D01*
X15519Y-72043D01*
X15861Y-71530D01*
X15981Y-70925D01*
Y-43237D01*
X15861Y-42632D01*
X15519Y-42119D01*
X14406Y-41006D01*
X14018Y-40747D01*
X14015Y-40289D01*
X14041Y-40207D01*
X14284Y-40119D01*
X18220Y-44055D01*
D02*
G37*
G36*
X8118Y-98008D02*
X7835Y-98431D01*
X7518Y-98300D01*
X6682D01*
X5911Y-98620D01*
X5320Y-99211D01*
X5000Y-99982D01*
Y-100818D01*
X5320Y-101590D01*
X5911Y-102180D01*
X6682Y-102500D01*
X7518D01*
X8290Y-102180D01*
X8700Y-101770D01*
X10217D01*
X10822Y-101650D01*
X10928Y-101578D01*
X11428Y-101846D01*
Y-102648D01*
X9057Y-105020D01*
X3990D01*
X3790Y-104820D01*
X3018Y-104500D01*
X2182D01*
X1522Y-104774D01*
X1022Y-104555D01*
Y-91564D01*
X1484Y-91373D01*
X8118Y-98008D01*
D02*
G37*
G36*
X147847Y-151249D02*
X147695Y-151819D01*
Y-152715D01*
X147927Y-153581D01*
X148375Y-154358D01*
X149009Y-154992D01*
X149786Y-155440D01*
X150652Y-155672D01*
X151548D01*
X152118Y-155519D01*
X161770Y-165172D01*
X161563Y-165672D01*
X156740D01*
X154353Y-163285D01*
X154505Y-162715D01*
Y-161819D01*
X154273Y-160953D01*
X153825Y-160176D01*
X153191Y-159542D01*
X152414Y-159094D01*
X151548Y-158862D01*
X150652D01*
X150082Y-159014D01*
X144380Y-153312D01*
Y-148489D01*
X144880Y-148282D01*
X147847Y-151249D01*
D02*
G37*
G36*
X354278Y-366579D02*
X190243D01*
X181031Y-366478D01*
X181025Y-366480D01*
X181019Y-366478D01*
X162581D01*
X162575Y-366480D01*
X162569Y-366478D01*
X153357Y-366579D01*
X1022D01*
X1022Y-108645D01*
X1522Y-108426D01*
X2182Y-108700D01*
X3018D01*
X3790Y-108380D01*
X3990Y-108180D01*
X9712D01*
X10317Y-108060D01*
X10829Y-107718D01*
X10953Y-107594D01*
X11451Y-107803D01*
Y-260400D01*
X11641Y-260859D01*
X12100Y-261049D01*
X63300D01*
X63759Y-260859D01*
X63949Y-260400D01*
Y-107600D01*
X63841Y-107337D01*
X64082Y-106892D01*
X64512Y-106846D01*
X79820Y-122155D01*
Y-168546D01*
X79320Y-168829D01*
X78768Y-168600D01*
X77932D01*
X77161Y-168920D01*
X76570Y-169510D01*
X76250Y-170282D01*
Y-171118D01*
X76570Y-171890D01*
X77161Y-172480D01*
X77932Y-172800D01*
X78768D01*
X79320Y-172571D01*
X79820Y-172854D01*
Y-184045D01*
X77765Y-186100D01*
X77482D01*
X76710Y-186420D01*
X76120Y-187010D01*
X75800Y-187782D01*
Y-188618D01*
X76120Y-189390D01*
X76710Y-189980D01*
X77482Y-190300D01*
X78318D01*
X79089Y-189980D01*
X79290Y-189780D01*
X83200D01*
X83805Y-189660D01*
X84317Y-189318D01*
X94818Y-178817D01*
X95160Y-178305D01*
X95280Y-177700D01*
Y-130255D01*
X140758Y-84777D01*
X141220Y-84969D01*
Y-153967D01*
X141340Y-154572D01*
X141683Y-155084D01*
X147847Y-161249D01*
X147695Y-161819D01*
Y-162715D01*
X147927Y-163581D01*
X148375Y-164358D01*
X149009Y-164992D01*
X149786Y-165440D01*
X150652Y-165672D01*
X151548D01*
X152118Y-165519D01*
X154968Y-168370D01*
X155481Y-168713D01*
X156086Y-168833D01*
X164428D01*
Y-169231D01*
X166937D01*
X170223Y-172518D01*
X170736Y-172860D01*
X171341Y-172980D01*
X180400D01*
X181005Y-172860D01*
X181518Y-172518D01*
X182275Y-171760D01*
X182775Y-171967D01*
Y-175989D01*
X181197D01*
X180592Y-176109D01*
X180080Y-176452D01*
X170231Y-186300D01*
X162100D01*
Y-189700D01*
X166597D01*
X166750Y-189730D01*
X169173D01*
X169880Y-190438D01*
X169689Y-190900D01*
X167100D01*
Y-193000D01*
X166600D01*
Y-193500D01*
X161700D01*
Y-195100D01*
X165020D01*
Y-195900D01*
X161700D01*
Y-197500D01*
X166600D01*
Y-198500D01*
X161700D01*
Y-200100D01*
X165020D01*
Y-200900D01*
X161700D01*
Y-202500D01*
X166600D01*
Y-203000D01*
X167100D01*
Y-205100D01*
X171047D01*
X171241Y-205336D01*
Y-209349D01*
X171105Y-209554D01*
X168405D01*
Y-209618D01*
X157276D01*
X141385Y-193727D01*
X140873Y-193384D01*
X140268Y-193264D01*
X127113D01*
X127017Y-193200D01*
X126980Y-193110D01*
X126390Y-192520D01*
X125618Y-192200D01*
X124782D01*
X124010Y-192520D01*
X123420Y-193110D01*
X123100Y-193882D01*
Y-194718D01*
X123420Y-195490D01*
X124010Y-196080D01*
X124782Y-196400D01*
X125618D01*
X125891Y-196287D01*
X125917Y-196305D01*
X126522Y-196425D01*
X130399D01*
X130505Y-196895D01*
X130505Y-196925D01*
X129920Y-197510D01*
X129600Y-198282D01*
Y-199118D01*
X129920Y-199890D01*
X130510Y-200480D01*
X130578Y-200508D01*
Y-208971D01*
X130578Y-208971D01*
X130664Y-209400D01*
X130907Y-209764D01*
X130978Y-209835D01*
Y-218635D01*
X127533Y-222081D01*
X127218Y-221950D01*
X126382D01*
X125610Y-222270D01*
X125020Y-222860D01*
X124700Y-223632D01*
Y-224468D01*
X125020Y-225240D01*
X125610Y-225830D01*
X126382Y-226150D01*
X127218D01*
X127990Y-225830D01*
X128580Y-225240D01*
X128900Y-224468D01*
Y-223886D01*
X132893Y-219893D01*
X132893Y-219893D01*
X133136Y-219529D01*
X133222Y-219100D01*
X133222Y-219100D01*
Y-209371D01*
X133222Y-209371D01*
X133136Y-208941D01*
X132893Y-208577D01*
X132893Y-208577D01*
X132822Y-208506D01*
Y-200508D01*
X132890Y-200480D01*
X133480Y-199890D01*
X133800Y-199118D01*
Y-198282D01*
X133480Y-197510D01*
X132895Y-196925D01*
X132895Y-196895D01*
X133001Y-196425D01*
X139613D01*
X155504Y-212316D01*
X156017Y-212658D01*
X156621Y-212778D01*
X168405D01*
Y-217446D01*
X171978D01*
X176193Y-221662D01*
X176706Y-222005D01*
X177311Y-222125D01*
X191122D01*
X191726Y-222005D01*
X192239Y-221662D01*
X195996Y-217905D01*
X196338Y-217393D01*
X196459Y-216788D01*
Y-216578D01*
X198072D01*
Y-212622D01*
X193328D01*
Y-214875D01*
X193298Y-215028D01*
Y-216133D01*
X190467Y-218964D01*
X177965D01*
X173935Y-214934D01*
Y-212437D01*
X173966Y-212285D01*
Y-211068D01*
X174282Y-210595D01*
X174402Y-209991D01*
Y-205538D01*
X174452Y-205287D01*
Y-191194D01*
X174332Y-190590D01*
X173989Y-190077D01*
X172457Y-188544D01*
X179878Y-181123D01*
X180431Y-181277D01*
X180659Y-181829D01*
X181250Y-182420D01*
X182022Y-182740D01*
X182305D01*
X184420Y-184855D01*
Y-186300D01*
X181500D01*
Y-189700D01*
X190500D01*
Y-186300D01*
X187580D01*
Y-184200D01*
X187460Y-183595D01*
X187118Y-183082D01*
X184540Y-180505D01*
Y-180222D01*
X184302Y-179649D01*
X184573Y-179149D01*
X184896D01*
X185501Y-179029D01*
X186014Y-178686D01*
X196389Y-168311D01*
X196732Y-167798D01*
X196852Y-167194D01*
Y-162158D01*
X196732Y-161553D01*
X196389Y-161040D01*
X192431Y-157082D01*
X191919Y-156740D01*
X191314Y-156620D01*
X190051D01*
Y-152946D01*
X190580D01*
Y-148147D01*
X191001Y-148064D01*
X191514Y-147721D01*
X200407Y-138828D01*
X200750Y-138315D01*
X200870Y-137710D01*
Y-137400D01*
X201280Y-136990D01*
X201600Y-136218D01*
Y-135382D01*
X201280Y-134610D01*
X200690Y-134020D01*
X199918Y-133700D01*
X199912D01*
X190002Y-123790D01*
Y-54899D01*
X195597Y-49304D01*
X195899Y-48853D01*
X196468D01*
X197371Y-48611D01*
X198181Y-48143D01*
X198843Y-47481D01*
X199311Y-46671D01*
X199553Y-45768D01*
Y-44832D01*
X199311Y-43929D01*
X198843Y-43119D01*
X198181Y-42457D01*
X197371Y-41989D01*
X196468Y-41747D01*
X195532D01*
X194629Y-41989D01*
X193819Y-42457D01*
X193157Y-43119D01*
X192689Y-43929D01*
X192447Y-44832D01*
Y-45768D01*
X192689Y-46671D01*
X193037Y-47273D01*
X193020Y-47299D01*
X192992Y-47439D01*
X187304Y-53127D01*
X186962Y-53640D01*
X186841Y-54245D01*
Y-124444D01*
X186962Y-125049D01*
X187304Y-125562D01*
X197400Y-135658D01*
Y-136218D01*
X197709Y-136964D01*
Y-137056D01*
X189742Y-145023D01*
X189030D01*
X188878Y-145054D01*
X185050D01*
Y-152946D01*
X186890D01*
Y-156724D01*
X186801Y-156813D01*
X186261D01*
Y-157486D01*
X186201Y-157577D01*
X186144Y-157645D01*
X185669Y-157752D01*
X185000Y-157082D01*
X184487Y-156740D01*
X183882Y-156620D01*
X179987D01*
Y-156413D01*
X178765D01*
Y-153347D01*
X180350D01*
Y-149500D01*
X177185D01*
Y-149000D01*
X176685D01*
Y-144653D01*
X174020D01*
Y-147420D01*
X168800D01*
Y-147203D01*
X168419Y-146284D01*
X167880Y-145745D01*
Y-120900D01*
X167760Y-120295D01*
X167418Y-119782D01*
X156035Y-108400D01*
X153800D01*
Y-110635D01*
X164720Y-121555D01*
Y-145745D01*
X164181Y-146284D01*
X163801Y-147200D01*
X166300D01*
Y-147700D01*
X166800D01*
Y-150199D01*
X167016Y-150110D01*
X167024Y-150118D01*
X167536Y-150460D01*
X168141Y-150580D01*
X174020D01*
Y-153347D01*
X175605D01*
Y-157185D01*
X175725Y-157790D01*
X176068Y-158302D01*
X176413Y-158648D01*
Y-159768D01*
X169172D01*
Y-159369D01*
X164428D01*
Y-162744D01*
X163812D01*
X154353Y-153285D01*
X154505Y-152715D01*
Y-151819D01*
X154273Y-150953D01*
X153825Y-150176D01*
X153191Y-149542D01*
X152414Y-149094D01*
X151548Y-148862D01*
X150652D01*
X150082Y-149014D01*
X147080Y-146012D01*
Y-144048D01*
X147144Y-144009D01*
X147810Y-144179D01*
X148055Y-144603D01*
X148764Y-145312D01*
X149631Y-145813D01*
X150599Y-146072D01*
X150600D01*
Y-142267D01*
Y-138462D01*
X150599D01*
X149631Y-138721D01*
X148764Y-139222D01*
X148055Y-139930D01*
X147810Y-140354D01*
X147144Y-140525D01*
X147080Y-140486D01*
Y-108153D01*
X159318Y-95916D01*
X159660Y-95403D01*
X159780Y-94798D01*
Y-70977D01*
X160280Y-70770D01*
X160573Y-71063D01*
X161474Y-71583D01*
X162480Y-71853D01*
X162500D01*
Y-67900D01*
Y-63947D01*
X162480D01*
X161474Y-64217D01*
X160573Y-64737D01*
X160280Y-65030D01*
X159780Y-64823D01*
Y-64611D01*
X159660Y-64007D01*
X159318Y-63494D01*
X158554Y-62730D01*
X158761Y-62230D01*
X165095D01*
X169447Y-66582D01*
Y-71453D01*
X176553D01*
Y-64347D01*
X171682D01*
X167546Y-60211D01*
X167738Y-59749D01*
X183400D01*
X183859Y-59559D01*
X184049Y-59100D01*
Y-11800D01*
X183859Y-11341D01*
X183400Y-11151D01*
X136000D01*
X135541Y-11341D01*
X135351Y-11800D01*
Y-59070D01*
X126489D01*
X122420Y-55001D01*
X122627Y-54501D01*
X122968D01*
X123871Y-54259D01*
X124681Y-53791D01*
X125343Y-53129D01*
X125811Y-52319D01*
X126053Y-51415D01*
Y-50480D01*
X125811Y-49577D01*
X125343Y-48766D01*
X124681Y-48105D01*
X123871Y-47637D01*
X122968Y-47395D01*
X122032D01*
X121129Y-47637D01*
X120319Y-48105D01*
X119657Y-48766D01*
X119189Y-49577D01*
X118947Y-50480D01*
Y-50821D01*
X118447Y-51028D01*
X117250Y-49830D01*
X116737Y-49488D01*
X116132Y-49367D01*
X95690D01*
X95343Y-48766D01*
X94681Y-48105D01*
X93871Y-47637D01*
X92968Y-47395D01*
X92032D01*
X91129Y-47637D01*
X90319Y-48105D01*
X89657Y-48766D01*
X89189Y-49577D01*
X88947Y-50480D01*
Y-51415D01*
X89189Y-52319D01*
X89657Y-53129D01*
X90319Y-53791D01*
X91129Y-54259D01*
X92032Y-54501D01*
X92968D01*
X93871Y-54259D01*
X94681Y-53791D01*
X95343Y-53129D01*
X95690Y-52528D01*
X115478D01*
X124717Y-61768D01*
X125230Y-62110D01*
X125834Y-62230D01*
X145728D01*
X145935Y-62730D01*
X144138Y-64527D01*
X143468Y-64347D01*
X142532D01*
X141629Y-64589D01*
X140819Y-65057D01*
X140157Y-65719D01*
X139689Y-66529D01*
X139447Y-67432D01*
Y-68368D01*
X139689Y-69271D01*
X140157Y-70081D01*
X140819Y-70743D01*
X141629Y-71211D01*
X142532Y-71453D01*
X143468D01*
X144371Y-71211D01*
X145181Y-70743D01*
X145843Y-70081D01*
X146311Y-69271D01*
X146553Y-68368D01*
Y-67432D01*
X146373Y-66762D01*
X148157Y-64978D01*
X150191D01*
X150398Y-65478D01*
X150157Y-65719D01*
X149689Y-66529D01*
X149447Y-67432D01*
Y-68368D01*
X149627Y-69038D01*
X141683Y-76982D01*
X141340Y-77495D01*
X141220Y-78100D01*
Y-79845D01*
X92582Y-128482D01*
X92240Y-128995D01*
X92120Y-129600D01*
Y-177045D01*
X87843Y-181323D01*
X87419Y-181039D01*
X87589Y-180629D01*
Y-179794D01*
X87269Y-179022D01*
X86678Y-178431D01*
X85906Y-178112D01*
X85071D01*
X84299Y-178431D01*
X83708Y-179022D01*
X83480Y-179572D01*
X82980Y-179472D01*
Y-121500D01*
X82860Y-120895D01*
X82517Y-120382D01*
X66217Y-104083D01*
X65705Y-103740D01*
X65100Y-103620D01*
X30389D01*
X30190Y-103420D01*
X29418Y-103100D01*
X28582D01*
X27810Y-103420D01*
X27220Y-104010D01*
X26900Y-104782D01*
Y-105618D01*
X27220Y-106390D01*
X27319Y-106489D01*
X27127Y-106951D01*
X12303D01*
X12094Y-106453D01*
X13663Y-104884D01*
X16172D01*
Y-103163D01*
X18239Y-101095D01*
X18582Y-100582D01*
X18702Y-99977D01*
Y-94980D01*
X18582Y-94375D01*
X18239Y-93862D01*
X14394Y-90018D01*
X13882Y-89675D01*
X13277Y-89555D01*
X9698D01*
X8254Y-88111D01*
X8445Y-87649D01*
X9300D01*
Y-85467D01*
X10300D01*
Y-87649D01*
X13851D01*
Y-87048D01*
X34833D01*
X35437Y-86928D01*
X35950Y-86585D01*
X45435Y-77100D01*
X46380Y-77353D01*
X46400D01*
Y-73900D01*
X42947D01*
Y-73920D01*
X43200Y-74865D01*
X34178Y-83887D01*
X18350D01*
X18159Y-83425D01*
X20918Y-80667D01*
X21260Y-80154D01*
X21380Y-79549D01*
Y-71501D01*
X29199D01*
Y-65576D01*
X21380D01*
Y-53910D01*
X29199D01*
Y-47986D01*
X21380D01*
Y-43400D01*
X21260Y-42795D01*
X20918Y-42283D01*
X15473Y-36838D01*
X14961Y-36496D01*
X14356Y-36375D01*
X13851D01*
Y-35775D01*
X14278Y-35599D01*
X29316D01*
X43527Y-49810D01*
X43347Y-50480D01*
Y-51416D01*
X43589Y-52319D01*
X44057Y-53129D01*
X44719Y-53791D01*
X45529Y-54259D01*
X46432Y-54501D01*
X47368D01*
X48271Y-54259D01*
X49081Y-53791D01*
X49743Y-53129D01*
X50211Y-52319D01*
X50453Y-51416D01*
Y-50480D01*
X50211Y-49577D01*
X49743Y-48766D01*
X49081Y-48105D01*
X48271Y-47637D01*
X47368Y-47395D01*
X46432D01*
X45762Y-47575D01*
X31088Y-32901D01*
X30576Y-32559D01*
X29971Y-32438D01*
X13451D01*
Y-32238D01*
X8384D01*
X5991Y-29845D01*
Y-29364D01*
X6300Y-28618D01*
Y-27782D01*
X5980Y-27010D01*
X5390Y-26420D01*
X4618Y-26100D01*
X3782D01*
X3011Y-26420D01*
X2420Y-27010D01*
X2100Y-27782D01*
Y-28618D01*
X2420Y-29390D01*
X2830Y-29800D01*
Y-30499D01*
X2950Y-31104D01*
X3293Y-31617D01*
X6149Y-34473D01*
Y-35775D01*
X5749D01*
Y-37456D01*
X9800D01*
Y-38456D01*
X5749D01*
Y-40137D01*
X6149D01*
Y-43549D01*
X6149Y-43674D01*
X6149D01*
Y-44049D01*
X6149D01*
Y-47246D01*
X1484Y-51911D01*
X1022Y-51720D01*
Y-1122D01*
X354278D01*
X354278Y-366579D01*
D02*
G37*
%LPC*%
G36*
X83200Y-20701D02*
Y-22700D01*
X85199D01*
X84819Y-21784D01*
X84116Y-21081D01*
X83200Y-20701D01*
D02*
G37*
G36*
X82200D02*
X81284Y-21081D01*
X80581Y-21784D01*
X80201Y-22700D01*
X82200D01*
Y-20701D01*
D02*
G37*
G36*
X85199Y-23700D02*
X83200D01*
Y-25699D01*
X84116Y-25319D01*
X84819Y-24616D01*
X85199Y-23700D01*
D02*
G37*
G36*
X82200D02*
X80201D01*
X80581Y-24616D01*
X81284Y-25319D01*
X82200Y-25699D01*
Y-23700D01*
D02*
G37*
G36*
X329368Y-20947D02*
X328432D01*
X327529Y-21189D01*
X326719Y-21657D01*
X326057Y-22319D01*
X325589Y-23129D01*
X325347Y-24032D01*
Y-24968D01*
X325589Y-25871D01*
X326057Y-26681D01*
X326719Y-27343D01*
X327529Y-27811D01*
X328432Y-28053D01*
X329368D01*
X330271Y-27811D01*
X331081Y-27343D01*
X331743Y-26681D01*
X332211Y-25871D01*
X332453Y-24968D01*
Y-24032D01*
X332211Y-23129D01*
X331743Y-22319D01*
X331081Y-21657D01*
X330271Y-21189D01*
X329368Y-20947D01*
D02*
G37*
G36*
X29199Y-25938D02*
X20913D01*
Y-31863D01*
X29199D01*
Y-25938D01*
D02*
G37*
G36*
X122968Y-27395D02*
X122032D01*
X121129Y-27637D01*
X120319Y-28105D01*
X119657Y-28766D01*
X119189Y-29577D01*
X118947Y-30480D01*
Y-31416D01*
X119189Y-32319D01*
X119657Y-33129D01*
X120319Y-33791D01*
X121129Y-34258D01*
X122032Y-34501D01*
X122968D01*
X123871Y-34258D01*
X124681Y-33791D01*
X125343Y-33129D01*
X125811Y-32319D01*
X126053Y-31416D01*
Y-30480D01*
X125811Y-29577D01*
X125343Y-28766D01*
X124681Y-28105D01*
X123871Y-27637D01*
X122968Y-27395D01*
D02*
G37*
G36*
X92968D02*
X92032D01*
X91129Y-27637D01*
X90319Y-28105D01*
X89657Y-28766D01*
X89189Y-29577D01*
X88947Y-30480D01*
Y-31416D01*
X89189Y-32319D01*
X89657Y-33129D01*
X90319Y-33791D01*
X91129Y-34258D01*
X92032Y-34501D01*
X92968D01*
X93871Y-34258D01*
X94681Y-33791D01*
X95343Y-33129D01*
X95811Y-32319D01*
X96053Y-31416D01*
Y-30480D01*
X95811Y-29577D01*
X95343Y-28766D01*
X94681Y-28105D01*
X93871Y-27637D01*
X92968Y-27395D01*
D02*
G37*
G36*
X77368Y-27395D02*
X76432D01*
X75529Y-27637D01*
X74719Y-28105D01*
X74057Y-28766D01*
X73589Y-29577D01*
X73347Y-30480D01*
Y-31416D01*
X73589Y-32319D01*
X74057Y-33129D01*
X74719Y-33791D01*
X75529Y-34258D01*
X76432Y-34501D01*
X77368D01*
X78271Y-34258D01*
X79081Y-33791D01*
X79743Y-33129D01*
X80211Y-32319D01*
X80453Y-31416D01*
Y-30480D01*
X80211Y-29577D01*
X79743Y-28766D01*
X79081Y-28105D01*
X78271Y-27637D01*
X77368Y-27395D01*
D02*
G37*
G36*
X47368D02*
X46432D01*
X45529Y-27637D01*
X44719Y-28105D01*
X44057Y-28766D01*
X43589Y-29577D01*
X43347Y-30480D01*
Y-31416D01*
X43589Y-32319D01*
X44057Y-33129D01*
X44719Y-33791D01*
X45529Y-34258D01*
X46432Y-34501D01*
X47368D01*
X48271Y-34258D01*
X49081Y-33791D01*
X49743Y-33129D01*
X50211Y-32319D01*
X50453Y-31416D01*
Y-30480D01*
X50211Y-29577D01*
X49743Y-28766D01*
X49081Y-28105D01*
X48271Y-27637D01*
X47368Y-27395D01*
D02*
G37*
G36*
X196520Y-31347D02*
X196500D01*
Y-34800D01*
X199953D01*
Y-34780D01*
X199683Y-33774D01*
X199163Y-32873D01*
X198427Y-32137D01*
X197526Y-31617D01*
X196520Y-31347D01*
D02*
G37*
G36*
X290753D02*
X287300D01*
Y-34800D01*
X290753D01*
Y-31347D01*
D02*
G37*
G36*
X286300D02*
X282847D01*
Y-34800D01*
X286300D01*
Y-31347D01*
D02*
G37*
G36*
X195500D02*
X195480D01*
X194474Y-31617D01*
X193573Y-32137D01*
X192837Y-32873D01*
X192317Y-33774D01*
X192047Y-34780D01*
Y-34800D01*
X195500D01*
Y-31347D01*
D02*
G37*
G36*
X272300Y-35101D02*
Y-37100D01*
X274299D01*
X273919Y-36184D01*
X273216Y-35481D01*
X272300Y-35101D01*
D02*
G37*
G36*
X271300D02*
X270384Y-35481D01*
X269681Y-36184D01*
X269301Y-37100D01*
X271300D01*
Y-35101D01*
D02*
G37*
G36*
X208200Y-35501D02*
Y-37500D01*
X210199D01*
X209819Y-36584D01*
X209116Y-35881D01*
X208200Y-35501D01*
D02*
G37*
G36*
X207200D02*
X206284Y-35881D01*
X205581Y-36584D01*
X205201Y-37500D01*
X207200D01*
Y-35501D01*
D02*
G37*
G36*
X329368Y-30947D02*
X328432D01*
X327529Y-31189D01*
X326719Y-31657D01*
X326057Y-32319D01*
X325589Y-33129D01*
X325347Y-34032D01*
Y-34968D01*
X325589Y-35871D01*
X326057Y-36681D01*
X326719Y-37343D01*
X327529Y-37811D01*
X328432Y-38053D01*
X329368D01*
X330271Y-37811D01*
X331081Y-37343D01*
X331743Y-36681D01*
X332211Y-35871D01*
X332453Y-34968D01*
Y-34032D01*
X332211Y-33129D01*
X331743Y-32319D01*
X331081Y-31657D01*
X330271Y-31189D01*
X329368Y-30947D01*
D02*
G37*
G36*
X290753Y-35800D02*
X287300D01*
Y-39253D01*
X290753D01*
Y-35800D01*
D02*
G37*
G36*
X286300D02*
X282847D01*
Y-39253D01*
X286300D01*
Y-35800D01*
D02*
G37*
G36*
X199953D02*
X196500D01*
Y-39253D01*
X196520D01*
X197526Y-38983D01*
X198427Y-38463D01*
X199163Y-37727D01*
X199683Y-36826D01*
X199953Y-35820D01*
Y-35800D01*
D02*
G37*
G36*
X195500D02*
X192047D01*
Y-35820D01*
X192317Y-36826D01*
X192837Y-37727D01*
X193573Y-38463D01*
X194474Y-38983D01*
X195480Y-39253D01*
X195500D01*
Y-35800D01*
D02*
G37*
G36*
X274299Y-38100D02*
X272300D01*
Y-40099D01*
X273216Y-39719D01*
X273919Y-39016D01*
X274299Y-38100D01*
D02*
G37*
G36*
X271300D02*
X269301D01*
X269681Y-39016D01*
X270384Y-39719D01*
X271300Y-40099D01*
Y-38100D01*
D02*
G37*
G36*
X210199Y-38500D02*
X208200D01*
Y-40499D01*
X209116Y-40119D01*
X209819Y-39416D01*
X210199Y-38500D01*
D02*
G37*
G36*
X207200D02*
X205201D01*
X205581Y-39416D01*
X206284Y-40119D01*
X207200Y-40499D01*
Y-38500D01*
D02*
G37*
G36*
X329368Y-40947D02*
X328432D01*
X327529Y-41189D01*
X326719Y-41657D01*
X326057Y-42319D01*
X325589Y-43129D01*
X325347Y-44032D01*
Y-44968D01*
X325589Y-45871D01*
X326057Y-46681D01*
X326719Y-47343D01*
X327529Y-47811D01*
X328432Y-48053D01*
X329368D01*
X330271Y-47811D01*
X331081Y-47343D01*
X331743Y-46681D01*
X332211Y-45871D01*
X332453Y-44968D01*
Y-44032D01*
X332211Y-43129D01*
X331743Y-42319D01*
X331081Y-41657D01*
X330271Y-41189D01*
X329368Y-40947D01*
D02*
G37*
G36*
X287268Y-41747D02*
X286332D01*
X285429Y-41989D01*
X284619Y-42457D01*
X283957Y-43119D01*
X283489Y-43929D01*
X283247Y-44832D01*
Y-45768D01*
X283489Y-46671D01*
X283957Y-47481D01*
X284619Y-48143D01*
X285429Y-48611D01*
X286332Y-48853D01*
X287268D01*
X288171Y-48611D01*
X288981Y-48143D01*
X289643Y-47481D01*
X290111Y-46671D01*
X290353Y-45768D01*
Y-44832D01*
X290111Y-43929D01*
X289643Y-43119D01*
X288981Y-42457D01*
X288171Y-41989D01*
X287268Y-41747D01*
D02*
G37*
G36*
X77368Y-47395D02*
X76432D01*
X75529Y-47637D01*
X74719Y-48105D01*
X74057Y-48766D01*
X73589Y-49577D01*
X73347Y-50480D01*
Y-51416D01*
X73589Y-52319D01*
X74057Y-53129D01*
X74719Y-53791D01*
X75529Y-54259D01*
X76432Y-54501D01*
X77368D01*
X78271Y-54259D01*
X79081Y-53791D01*
X79743Y-53129D01*
X80211Y-52319D01*
X80453Y-51416D01*
Y-50480D01*
X80211Y-49577D01*
X79743Y-48766D01*
X79081Y-48105D01*
X78271Y-47637D01*
X77368Y-47395D01*
D02*
G37*
G36*
X329368Y-50947D02*
X328432D01*
X327529Y-51189D01*
X326719Y-51657D01*
X326057Y-52319D01*
X325589Y-53129D01*
X325347Y-54032D01*
Y-54968D01*
X325589Y-55871D01*
X326057Y-56681D01*
X326719Y-57343D01*
X327529Y-57811D01*
X328432Y-58053D01*
X329368D01*
X330271Y-57811D01*
X331081Y-57343D01*
X331743Y-56681D01*
X332211Y-55871D01*
X332453Y-54968D01*
Y-54032D01*
X332211Y-53129D01*
X331743Y-52319D01*
X331081Y-51657D01*
X330271Y-51189D01*
X329368Y-50947D01*
D02*
G37*
G36*
X287268Y-51747D02*
X286332D01*
X285429Y-51989D01*
X284619Y-52457D01*
X283957Y-53119D01*
X283489Y-53929D01*
X283247Y-54832D01*
Y-55768D01*
X283489Y-56671D01*
X283957Y-57481D01*
X284619Y-58143D01*
X285429Y-58611D01*
X286332Y-58853D01*
X287268D01*
X288171Y-58611D01*
X288981Y-58143D01*
X289643Y-57481D01*
X290111Y-56671D01*
X290353Y-55768D01*
Y-54832D01*
X290111Y-53929D01*
X289643Y-53119D01*
X288981Y-52457D01*
X288171Y-51989D01*
X287268Y-51747D01*
D02*
G37*
G36*
X196468D02*
X195532D01*
X194629Y-51989D01*
X193819Y-52457D01*
X193157Y-53119D01*
X192689Y-53929D01*
X192447Y-54832D01*
Y-55768D01*
X192689Y-56671D01*
X193157Y-57481D01*
X193819Y-58143D01*
X194629Y-58611D01*
X195532Y-58853D01*
X196468D01*
X197371Y-58611D01*
X198181Y-58143D01*
X198843Y-57481D01*
X199311Y-56671D01*
X199553Y-55768D01*
Y-54832D01*
X199311Y-53929D01*
X198843Y-53119D01*
X198181Y-52457D01*
X197371Y-51989D01*
X196468Y-51747D01*
D02*
G37*
G36*
X202918Y-56400D02*
X202082D01*
X201310Y-56720D01*
X200720Y-57310D01*
X200400Y-58082D01*
Y-58918D01*
X200720Y-59689D01*
X201310Y-60280D01*
X202082Y-60600D01*
X202918D01*
X203690Y-60280D01*
X204280Y-59689D01*
X204600Y-58918D01*
Y-58082D01*
X204280Y-57310D01*
X203690Y-56720D01*
X202918Y-56400D01*
D02*
G37*
G36*
X163520Y-63947D02*
X163500D01*
Y-67400D01*
X166953D01*
Y-67380D01*
X166683Y-66374D01*
X166163Y-65473D01*
X165427Y-64737D01*
X164526Y-64217D01*
X163520Y-63947D01*
D02*
G37*
G36*
X211218Y-64200D02*
X210382D01*
X209610Y-64520D01*
X209020Y-65110D01*
X208700Y-65882D01*
Y-66718D01*
X209020Y-67489D01*
X209610Y-68080D01*
X210382Y-68400D01*
X211218D01*
X211990Y-68080D01*
X212580Y-67489D01*
X212900Y-66718D01*
Y-65882D01*
X212580Y-65110D01*
X211990Y-64520D01*
X211218Y-64200D01*
D02*
G37*
G36*
X287268Y-61747D02*
X286332D01*
X285429Y-61989D01*
X284619Y-62457D01*
X283957Y-63119D01*
X283489Y-63929D01*
X283247Y-64832D01*
Y-65768D01*
X283489Y-66671D01*
X283957Y-67481D01*
X284619Y-68143D01*
X285429Y-68611D01*
X286332Y-68853D01*
X287268D01*
X288171Y-68611D01*
X288981Y-68143D01*
X289643Y-67481D01*
X290111Y-66671D01*
X290353Y-65768D01*
Y-64832D01*
X290111Y-63929D01*
X289643Y-63119D01*
X288981Y-62457D01*
X288171Y-61989D01*
X287268Y-61747D01*
D02*
G37*
G36*
X196468D02*
X195532D01*
X194629Y-61989D01*
X193819Y-62457D01*
X193157Y-63119D01*
X192689Y-63929D01*
X192447Y-64832D01*
Y-65768D01*
X192689Y-66671D01*
X193157Y-67481D01*
X193819Y-68143D01*
X194629Y-68611D01*
X195532Y-68853D01*
X196468D01*
X197371Y-68611D01*
X198181Y-68143D01*
X198843Y-67481D01*
X199311Y-66671D01*
X199553Y-65768D01*
Y-64832D01*
X199311Y-63929D01*
X198843Y-63119D01*
X198181Y-62457D01*
X197371Y-61989D01*
X196468Y-61747D01*
D02*
G37*
G36*
X133468Y-64347D02*
X132532D01*
X131629Y-64589D01*
X130819Y-65057D01*
X130157Y-65719D01*
X129689Y-66529D01*
X129447Y-67432D01*
Y-68368D01*
X129689Y-69271D01*
X130157Y-70081D01*
X130819Y-70743D01*
X131629Y-71211D01*
X132532Y-71453D01*
X133468D01*
X134371Y-71211D01*
X135181Y-70743D01*
X135843Y-70081D01*
X136311Y-69271D01*
X136553Y-68368D01*
Y-67432D01*
X136311Y-66529D01*
X135843Y-65719D01*
X135181Y-65057D01*
X134371Y-64589D01*
X133468Y-64347D01*
D02*
G37*
G36*
X166953Y-68400D02*
X163500D01*
Y-71853D01*
X163520D01*
X164526Y-71583D01*
X165427Y-71063D01*
X166163Y-70327D01*
X166683Y-69426D01*
X166953Y-68420D01*
Y-68400D01*
D02*
G37*
G36*
X47420Y-69447D02*
X47400D01*
Y-72900D01*
X50853D01*
Y-72880D01*
X50583Y-71874D01*
X50063Y-70973D01*
X49327Y-70237D01*
X48426Y-69717D01*
X47420Y-69447D01*
D02*
G37*
G36*
X46400D02*
X46380D01*
X45374Y-69717D01*
X44473Y-70237D01*
X43737Y-70973D01*
X43217Y-71874D01*
X42947Y-72880D01*
Y-72900D01*
X46400D01*
Y-69447D01*
D02*
G37*
G36*
X122568Y-68947D02*
X121632D01*
X120729Y-69189D01*
X119919Y-69657D01*
X119257Y-70319D01*
X118789Y-71129D01*
X118547Y-72032D01*
Y-72968D01*
X118789Y-73871D01*
X119257Y-74681D01*
X119919Y-75343D01*
X120729Y-75811D01*
X121632Y-76053D01*
X122568D01*
X123471Y-75811D01*
X124281Y-75343D01*
X124943Y-74681D01*
X125411Y-73871D01*
X125653Y-72968D01*
Y-72032D01*
X125411Y-71129D01*
X124943Y-70319D01*
X124281Y-69657D01*
X123471Y-69189D01*
X122568Y-68947D01*
D02*
G37*
G36*
X92568D02*
X91632D01*
X90729Y-69189D01*
X89919Y-69657D01*
X89257Y-70319D01*
X88789Y-71129D01*
X88547Y-72032D01*
Y-72968D01*
X88789Y-73871D01*
X89257Y-74681D01*
X89919Y-75343D01*
X90729Y-75811D01*
X91632Y-76053D01*
X92568D01*
X93471Y-75811D01*
X94281Y-75343D01*
X94943Y-74681D01*
X95411Y-73871D01*
X95653Y-72968D01*
Y-72032D01*
X95411Y-71129D01*
X94943Y-70319D01*
X94281Y-69657D01*
X93471Y-69189D01*
X92568Y-68947D01*
D02*
G37*
G36*
X166400Y-74901D02*
Y-76900D01*
X168399D01*
X168019Y-75984D01*
X167316Y-75281D01*
X166400Y-74901D01*
D02*
G37*
G36*
X165400D02*
X164484Y-75281D01*
X163781Y-75984D01*
X163401Y-76900D01*
X165400D01*
Y-74901D01*
D02*
G37*
G36*
X77368Y-69847D02*
X76432D01*
X75529Y-70089D01*
X74719Y-70557D01*
X74057Y-71219D01*
X73589Y-72029D01*
X73347Y-72932D01*
Y-73868D01*
X73589Y-74771D01*
X74057Y-75581D01*
X74719Y-76243D01*
X75529Y-76711D01*
X76432Y-76953D01*
X77368D01*
X78271Y-76711D01*
X79081Y-76243D01*
X79743Y-75581D01*
X80211Y-74771D01*
X80453Y-73868D01*
Y-72932D01*
X80211Y-72029D01*
X79743Y-71219D01*
X79081Y-70557D01*
X78271Y-70089D01*
X77368Y-69847D01*
D02*
G37*
G36*
X287268Y-71747D02*
X286332D01*
X285429Y-71989D01*
X284619Y-72457D01*
X283957Y-73119D01*
X283489Y-73929D01*
X283247Y-74832D01*
Y-75768D01*
X283489Y-76671D01*
X283957Y-77481D01*
X284619Y-78143D01*
X285429Y-78611D01*
X286332Y-78853D01*
X287268D01*
X288171Y-78611D01*
X288981Y-78143D01*
X289643Y-77481D01*
X290111Y-76671D01*
X290353Y-75768D01*
Y-74832D01*
X290111Y-73929D01*
X289643Y-73119D01*
X288981Y-72457D01*
X288171Y-71989D01*
X287268Y-71747D01*
D02*
G37*
G36*
X196468D02*
X195532D01*
X194629Y-71989D01*
X193819Y-72457D01*
X193157Y-73119D01*
X192689Y-73929D01*
X192447Y-74832D01*
Y-75768D01*
X192689Y-76671D01*
X193157Y-77481D01*
X193819Y-78143D01*
X194629Y-78611D01*
X195532Y-78853D01*
X196468D01*
X197371Y-78611D01*
X198181Y-78143D01*
X198843Y-77481D01*
X199311Y-76671D01*
X199553Y-75768D01*
Y-74832D01*
X199311Y-73929D01*
X198843Y-73119D01*
X198181Y-72457D01*
X197371Y-71989D01*
X196468Y-71747D01*
D02*
G37*
G36*
X206018Y-74700D02*
X205182D01*
X204410Y-75020D01*
X203820Y-75611D01*
X203500Y-76382D01*
Y-77218D01*
X203820Y-77990D01*
X204410Y-78580D01*
X205182Y-78900D01*
X206018D01*
X206790Y-78580D01*
X207380Y-77990D01*
X207700Y-77218D01*
Y-76382D01*
X207380Y-75611D01*
X206790Y-75020D01*
X206018Y-74700D01*
D02*
G37*
G36*
X287268Y-81747D02*
X286332D01*
X285429Y-81989D01*
X284619Y-82457D01*
X283957Y-83119D01*
X283489Y-83929D01*
X283247Y-84832D01*
Y-85768D01*
X283489Y-86671D01*
X283957Y-87481D01*
X284619Y-88143D01*
X285429Y-88611D01*
X286332Y-88853D01*
X287268D01*
X288171Y-88611D01*
X288981Y-88143D01*
X289643Y-87481D01*
X290111Y-86671D01*
X290353Y-85768D01*
Y-84832D01*
X290111Y-83929D01*
X289643Y-83119D01*
X288981Y-82457D01*
X288171Y-81989D01*
X287268Y-81747D01*
D02*
G37*
G36*
X196468D02*
X195532D01*
X194629Y-81989D01*
X193819Y-82457D01*
X193157Y-83119D01*
X192689Y-83929D01*
X192447Y-84832D01*
Y-85768D01*
X192689Y-86671D01*
X193157Y-87481D01*
X193819Y-88143D01*
X194629Y-88611D01*
X195532Y-88853D01*
X196468D01*
X197371Y-88611D01*
X198181Y-88143D01*
X198843Y-87481D01*
X199311Y-86671D01*
X199553Y-85768D01*
Y-84832D01*
X199311Y-83929D01*
X198843Y-83119D01*
X198181Y-82457D01*
X197371Y-81989D01*
X196468Y-81747D01*
D02*
G37*
G36*
X122620Y-88547D02*
X122600D01*
Y-92000D01*
X126053D01*
Y-91980D01*
X125783Y-90974D01*
X125263Y-90073D01*
X124527Y-89337D01*
X123626Y-88817D01*
X122620Y-88547D01*
D02*
G37*
G36*
X50853Y-73900D02*
X47400D01*
Y-77353D01*
X47420D01*
X48365Y-77100D01*
X58082Y-86818D01*
X58595Y-87160D01*
X59200Y-87280D01*
X114645D01*
X118400Y-91035D01*
X118147Y-91980D01*
Y-92000D01*
X121600D01*
Y-88547D01*
X121580D01*
X120635Y-88800D01*
X116418Y-84583D01*
X115905Y-84240D01*
X115300Y-84120D01*
X59855D01*
X50600Y-74865D01*
X50853Y-73920D01*
Y-73900D01*
D02*
G37*
G36*
X29199Y-87623D02*
X20913D01*
Y-93548D01*
X29199D01*
Y-87623D01*
D02*
G37*
G36*
X214820Y-90200D02*
X213985D01*
X213213Y-90520D01*
X212622Y-91110D01*
X212303Y-91882D01*
Y-92718D01*
X212622Y-93489D01*
X213213Y-94080D01*
X213985Y-94400D01*
X214820D01*
X215592Y-94080D01*
X216183Y-93489D01*
X216503Y-92718D01*
Y-91882D01*
X216183Y-91110D01*
X215592Y-90520D01*
X214820Y-90200D01*
D02*
G37*
G36*
X92568Y-88947D02*
X91632D01*
X90729Y-89189D01*
X89919Y-89657D01*
X89257Y-90319D01*
X88789Y-91129D01*
X88547Y-92032D01*
Y-92968D01*
X88789Y-93871D01*
X89257Y-94681D01*
X89919Y-95343D01*
X90729Y-95811D01*
X91632Y-96053D01*
X92568D01*
X93471Y-95811D01*
X94281Y-95343D01*
X94943Y-94681D01*
X95411Y-93871D01*
X95653Y-92968D01*
Y-92032D01*
X95411Y-91129D01*
X94943Y-90319D01*
X94281Y-89657D01*
X93471Y-89189D01*
X92568Y-88947D01*
D02*
G37*
G36*
X126053Y-93000D02*
X122600D01*
Y-96453D01*
X122620D01*
X123626Y-96183D01*
X124527Y-95663D01*
X125263Y-94927D01*
X125783Y-94026D01*
X126053Y-93020D01*
Y-93000D01*
D02*
G37*
G36*
X121600D02*
X118147D01*
Y-93020D01*
X118417Y-94026D01*
X118937Y-94927D01*
X119673Y-95663D01*
X120574Y-96183D01*
X121580Y-96453D01*
X121600D01*
Y-93000D01*
D02*
G37*
G36*
X77368Y-89847D02*
X76432D01*
X75529Y-90089D01*
X74719Y-90557D01*
X74057Y-91219D01*
X73589Y-92029D01*
X73347Y-92932D01*
Y-93868D01*
X73589Y-94771D01*
X74057Y-95581D01*
X74719Y-96243D01*
X75529Y-96711D01*
X76432Y-96953D01*
X77368D01*
X78271Y-96711D01*
X79081Y-96243D01*
X79743Y-95581D01*
X80211Y-94771D01*
X80453Y-93868D01*
Y-92932D01*
X80211Y-92029D01*
X79743Y-91219D01*
X79081Y-90557D01*
X78271Y-90089D01*
X77368Y-89847D01*
D02*
G37*
G36*
X47368D02*
X46432D01*
X45529Y-90089D01*
X44719Y-90557D01*
X44057Y-91219D01*
X43589Y-92029D01*
X43347Y-92932D01*
Y-93868D01*
X43589Y-94771D01*
X44057Y-95581D01*
X44719Y-96243D01*
X45529Y-96711D01*
X46432Y-96953D01*
X47368D01*
X48271Y-96711D01*
X49081Y-96243D01*
X49743Y-95581D01*
X50211Y-94771D01*
X50453Y-93868D01*
Y-92932D01*
X50211Y-92029D01*
X49743Y-91219D01*
X49081Y-90557D01*
X48271Y-90089D01*
X47368Y-89847D01*
D02*
G37*
G36*
X287268Y-91747D02*
X286332D01*
X285429Y-91989D01*
X284619Y-92457D01*
X283957Y-93119D01*
X283489Y-93929D01*
X283247Y-94832D01*
Y-95768D01*
X283489Y-96671D01*
X283957Y-97481D01*
X284619Y-98143D01*
X285429Y-98611D01*
X286332Y-98853D01*
X287268D01*
X288171Y-98611D01*
X288981Y-98143D01*
X289643Y-97481D01*
X290111Y-96671D01*
X290353Y-95768D01*
Y-94832D01*
X290111Y-93929D01*
X289643Y-93119D01*
X288981Y-92457D01*
X288171Y-91989D01*
X287268Y-91747D01*
D02*
G37*
G36*
X196468D02*
X195532D01*
X194629Y-91989D01*
X193819Y-92457D01*
X193157Y-93119D01*
X192689Y-93929D01*
X192447Y-94832D01*
Y-95768D01*
X192689Y-96671D01*
X193157Y-97481D01*
X193819Y-98143D01*
X194629Y-98611D01*
X195532Y-98853D01*
X196468D01*
X197371Y-98611D01*
X198181Y-98143D01*
X198843Y-97481D01*
X199311Y-96671D01*
X199553Y-95768D01*
Y-94832D01*
X199311Y-93929D01*
X198843Y-93119D01*
X198181Y-92457D01*
X197371Y-91989D01*
X196468Y-91747D01*
D02*
G37*
G36*
X82018Y-96200D02*
X81182D01*
X80410Y-96520D01*
X79820Y-97110D01*
X79500Y-97882D01*
Y-98718D01*
X79820Y-99489D01*
X80410Y-100080D01*
X81182Y-100400D01*
X82018D01*
X82789Y-100080D01*
X83380Y-99489D01*
X83700Y-98718D01*
Y-97882D01*
X83380Y-97110D01*
X82789Y-96520D01*
X82018Y-96200D01*
D02*
G37*
G36*
X168399Y-77900D02*
X163401D01*
X163781Y-78816D01*
X164320Y-79355D01*
Y-94645D01*
X153800Y-105165D01*
Y-107400D01*
X156035D01*
X167017Y-96417D01*
X167360Y-95905D01*
X167480Y-95300D01*
Y-79414D01*
X167599Y-79237D01*
X168019Y-78816D01*
X168399Y-77900D01*
D02*
G37*
G36*
X152800Y-105401D02*
X151884Y-105781D01*
X151181Y-106484D01*
X150801Y-107400D01*
X152800D01*
Y-105401D01*
D02*
G37*
G36*
X329368Y-60947D02*
X328432D01*
X327529Y-61189D01*
X326719Y-61657D01*
X326057Y-62319D01*
X325589Y-63129D01*
X325347Y-64032D01*
Y-64968D01*
X325589Y-65871D01*
X326057Y-66681D01*
X326233Y-66858D01*
X326042Y-67320D01*
X316800D01*
X316195Y-67440D01*
X315683Y-67782D01*
X303883Y-79583D01*
X303540Y-80095D01*
X303420Y-80700D01*
Y-82128D01*
X303022D01*
Y-86872D01*
X303420D01*
Y-121045D01*
X273822Y-150643D01*
X273426D01*
X272654Y-150963D01*
X272063Y-151554D01*
X271743Y-152326D01*
Y-153161D01*
X272063Y-153933D01*
X272654Y-154524D01*
X273426Y-154843D01*
X273690D01*
X274007Y-155230D01*
X273987Y-155333D01*
Y-167343D01*
X273587Y-167743D01*
X273018Y-167675D01*
X272952Y-167517D01*
X272362Y-166927D01*
X271590Y-166607D01*
X270754D01*
X269983Y-166927D01*
X269392Y-167517D01*
X269072Y-168289D01*
Y-169124D01*
X269392Y-169896D01*
X269508Y-170012D01*
X269346Y-170254D01*
X269261Y-170683D01*
X269346Y-171112D01*
X269590Y-171476D01*
X274512Y-176398D01*
X274470Y-176870D01*
X274044Y-177118D01*
X273518Y-176900D01*
X272682D01*
X272022Y-177174D01*
X271521Y-176955D01*
Y-174600D01*
X271522Y-174600D01*
X271436Y-174171D01*
X271193Y-173807D01*
X271193Y-173807D01*
X270400Y-173014D01*
X270036Y-172771D01*
X269607Y-172685D01*
X269607Y-172685D01*
X264215D01*
X264187Y-172617D01*
X263596Y-172026D01*
X262824Y-171707D01*
X261989D01*
X261217Y-172026D01*
X260626Y-172617D01*
X260307Y-173389D01*
Y-174224D01*
X260626Y-174996D01*
X261217Y-175587D01*
X261989Y-175907D01*
X262824D01*
X263596Y-175587D01*
X264187Y-174996D01*
X264215Y-174928D01*
X269142D01*
X269279Y-175065D01*
Y-202173D01*
X225236Y-246216D01*
X219924D01*
X219732Y-245754D01*
X254786Y-210700D01*
X255418D01*
X256190Y-210380D01*
X256780Y-209790D01*
X257100Y-209018D01*
Y-208182D01*
X256780Y-207410D01*
X256190Y-206820D01*
X255418Y-206500D01*
X254582D01*
X253810Y-206820D01*
X253220Y-207410D01*
X252900Y-208182D01*
Y-209018D01*
X253016Y-209298D01*
X215215Y-247099D01*
X214626Y-246981D01*
X214419Y-246484D01*
X213716Y-245781D01*
X212800Y-245401D01*
Y-247900D01*
X212300D01*
Y-248400D01*
X209801D01*
X210181Y-249316D01*
X210884Y-250019D01*
X211381Y-250225D01*
X211499Y-250815D01*
X181635Y-280679D01*
X178308D01*
X178280Y-280610D01*
X177690Y-280020D01*
X176918Y-279700D01*
X176082D01*
X175310Y-280020D01*
X174720Y-280610D01*
X174400Y-281382D01*
Y-282218D01*
X174720Y-282990D01*
X175310Y-283580D01*
X176082Y-283900D01*
X176918D01*
X177690Y-283580D01*
X178280Y-282990D01*
X178308Y-282922D01*
X179806D01*
X179909Y-283411D01*
X179909Y-283421D01*
X179320Y-284010D01*
X179000Y-284782D01*
Y-285618D01*
X179320Y-286390D01*
X179910Y-286980D01*
X180682Y-287300D01*
X181518D01*
X182000Y-287100D01*
X182500Y-287423D01*
Y-287918D01*
X182820Y-288690D01*
X183410Y-289280D01*
X184182Y-289600D01*
X185018D01*
X185790Y-289280D01*
X186380Y-288690D01*
X186700Y-287918D01*
Y-287082D01*
X186380Y-286310D01*
X185790Y-285720D01*
X185722Y-285691D01*
Y-284365D01*
X220027Y-250059D01*
X226363D01*
X226363Y-250059D01*
X226792Y-249973D01*
X227156Y-249730D01*
X276493Y-200393D01*
X276493Y-200393D01*
X276736Y-200029D01*
X276822Y-199600D01*
X276821Y-199600D01*
Y-176000D01*
X276822Y-176000D01*
X276736Y-175571D01*
X276493Y-175207D01*
X272264Y-170978D01*
X272361Y-170487D01*
X272362Y-170487D01*
X272785Y-170064D01*
X273355Y-170132D01*
X273420Y-170290D01*
X274010Y-170880D01*
X274782Y-171200D01*
X275618D01*
X276390Y-170880D01*
X276980Y-170290D01*
X277300Y-169518D01*
Y-168682D01*
X277099Y-168198D01*
X277148Y-167955D01*
Y-155987D01*
X309045Y-124090D01*
X309388Y-123577D01*
X309508Y-122972D01*
Y-89317D01*
X310008Y-89109D01*
X311019Y-90120D01*
X311532Y-90463D01*
X312137Y-90583D01*
X326779D01*
X326913Y-91083D01*
X326473Y-91337D01*
X325737Y-92073D01*
X325217Y-92974D01*
X324947Y-93980D01*
Y-94000D01*
X328900D01*
Y-95000D01*
X324947D01*
Y-95020D01*
X325200Y-95965D01*
X319564Y-101601D01*
X319221Y-102114D01*
X319101Y-102719D01*
Y-132953D01*
X312666Y-139388D01*
X311389D01*
Y-142900D01*
X314901D01*
Y-141623D01*
X321799Y-134725D01*
X322141Y-134213D01*
X322262Y-133608D01*
Y-103374D01*
X324720Y-100915D01*
X324881Y-100914D01*
X325347Y-101368D01*
X325347Y-101427D01*
Y-108053D01*
X332453D01*
Y-103182D01*
X335118Y-100517D01*
X335460Y-100005D01*
X335580Y-99400D01*
Y-91500D01*
X335460Y-90895D01*
X335118Y-90382D01*
X332620Y-87885D01*
X332107Y-87543D01*
X331675Y-87457D01*
X331502Y-87046D01*
X331502Y-86922D01*
X331743Y-86681D01*
X332211Y-85871D01*
X332453Y-84968D01*
Y-84032D01*
X332273Y-83362D01*
X335418Y-80217D01*
X335760Y-79705D01*
X335880Y-79100D01*
Y-71800D01*
X335760Y-71195D01*
X335418Y-70683D01*
X332620Y-67885D01*
X332107Y-67543D01*
X331675Y-67457D01*
X331502Y-67046D01*
X331502Y-66922D01*
X331743Y-66681D01*
X332211Y-65871D01*
X332453Y-64968D01*
Y-64032D01*
X332211Y-63129D01*
X331743Y-62319D01*
X331081Y-61657D01*
X330271Y-61189D01*
X329368Y-60947D01*
D02*
G37*
G36*
X287268Y-101747D02*
X286332D01*
X285429Y-101989D01*
X284619Y-102457D01*
X283957Y-103119D01*
X283489Y-103929D01*
X283247Y-104832D01*
Y-105768D01*
X283489Y-106671D01*
X283957Y-107481D01*
X284619Y-108143D01*
X285429Y-108611D01*
X286332Y-108853D01*
X287268D01*
X288171Y-108611D01*
X288981Y-108143D01*
X289643Y-107481D01*
X290111Y-106671D01*
X290353Y-105768D01*
Y-104832D01*
X290111Y-103929D01*
X289643Y-103119D01*
X288981Y-102457D01*
X288171Y-101989D01*
X287268Y-101747D01*
D02*
G37*
G36*
X199553D02*
X192447D01*
Y-108853D01*
X199553D01*
Y-101747D01*
D02*
G37*
G36*
X152800Y-108400D02*
X150801D01*
X151181Y-109316D01*
X151884Y-110019D01*
X152800Y-110399D01*
Y-108400D01*
D02*
G37*
G36*
X154505Y-128862D02*
X147695D01*
Y-135672D01*
X154505D01*
Y-128862D01*
D02*
G37*
G36*
X227400Y-135401D02*
X226484Y-135781D01*
X225792Y-136472D01*
X217995D01*
X217608Y-136086D01*
X216692Y-135707D01*
Y-138206D01*
Y-140704D01*
X217608Y-140325D01*
X218300Y-139633D01*
X226098D01*
X226484Y-140019D01*
X227400Y-140399D01*
Y-137900D01*
Y-135401D01*
D02*
G37*
G36*
X228400D02*
Y-137400D01*
X230399D01*
X230019Y-136484D01*
X229316Y-135781D01*
X228400Y-135401D01*
D02*
G37*
G36*
X215692Y-135707D02*
X214776Y-136086D01*
X214073Y-136789D01*
X213693Y-137706D01*
X215692D01*
Y-135707D01*
D02*
G37*
G36*
X230399Y-138400D02*
X228400D01*
Y-140399D01*
X229316Y-140019D01*
X230019Y-139316D01*
X230399Y-138400D01*
D02*
G37*
G36*
X215692Y-138706D02*
X213693D01*
X214073Y-139622D01*
X214776Y-140325D01*
X215692Y-140704D01*
Y-138706D01*
D02*
G37*
G36*
X151601Y-138462D02*
X151600D01*
Y-141767D01*
X154905D01*
Y-141766D01*
X154646Y-140798D01*
X154145Y-139930D01*
X153436Y-139222D01*
X152569Y-138721D01*
X151601Y-138462D01*
D02*
G37*
G36*
X310389Y-139388D02*
X306877D01*
Y-142900D01*
X310389D01*
Y-139388D01*
D02*
G37*
G36*
X154905Y-142767D02*
X151600D01*
Y-146072D01*
X151601D01*
X152569Y-145813D01*
X153436Y-145312D01*
X154145Y-144603D01*
X154646Y-143736D01*
X154905Y-142768D01*
Y-142767D01*
D02*
G37*
G36*
X314901Y-143900D02*
X311389D01*
Y-147412D01*
X314901D01*
Y-143900D01*
D02*
G37*
G36*
X310389D02*
X306877D01*
Y-147412D01*
X310389D01*
Y-143900D01*
D02*
G37*
G36*
X180350Y-144653D02*
X177685D01*
Y-148500D01*
X180350D01*
Y-144653D01*
D02*
G37*
G36*
X165800Y-148200D02*
X163801D01*
X164181Y-149116D01*
X164884Y-149819D01*
X165800Y-150199D01*
Y-148200D01*
D02*
G37*
G36*
X289218Y-147200D02*
X288382D01*
X287610Y-147520D01*
X287020Y-148110D01*
X286700Y-148882D01*
Y-149718D01*
X287020Y-150490D01*
X287610Y-151080D01*
X288382Y-151400D01*
X289218D01*
X289990Y-151080D01*
X290580Y-150490D01*
X290900Y-149718D01*
Y-148882D01*
X290580Y-148110D01*
X289990Y-147520D01*
X289218Y-147200D01*
D02*
G37*
G36*
X76018Y-148100D02*
X75182D01*
X74410Y-148420D01*
X73820Y-149010D01*
X73500Y-149782D01*
Y-150618D01*
X73528Y-150686D01*
X68607Y-155607D01*
X68364Y-155971D01*
X68278Y-156400D01*
X68278Y-156400D01*
Y-233677D01*
X68278Y-233677D01*
X68364Y-234106D01*
X68607Y-234470D01*
X80078Y-245941D01*
Y-250122D01*
X79829Y-250189D01*
X79019Y-250657D01*
X78357Y-251319D01*
X77889Y-252129D01*
X77647Y-253032D01*
Y-253968D01*
X77889Y-254871D01*
X78357Y-255681D01*
X79019Y-256343D01*
X79829Y-256811D01*
X80732Y-257053D01*
X81668D01*
X82571Y-256811D01*
X83381Y-256343D01*
X84043Y-255681D01*
X84511Y-254871D01*
X84753Y-253968D01*
Y-253032D01*
X84511Y-252129D01*
X84043Y-251319D01*
X83381Y-250657D01*
X82571Y-250189D01*
X82322Y-250122D01*
Y-245477D01*
X82322Y-245477D01*
X82236Y-245048D01*
X81993Y-244684D01*
X79660Y-242350D01*
X79817Y-241801D01*
X80378Y-241569D01*
X80969Y-240978D01*
X81288Y-240206D01*
Y-239371D01*
X80969Y-238599D01*
X80378Y-238008D01*
X79606Y-237688D01*
X78771D01*
X77999Y-238008D01*
X77408Y-238599D01*
X77176Y-239160D01*
X76626Y-239317D01*
X70522Y-233212D01*
Y-156865D01*
X75114Y-152272D01*
X75182Y-152300D01*
X76018D01*
X76789Y-151980D01*
X77380Y-151390D01*
X77700Y-150618D01*
Y-149782D01*
X77380Y-149010D01*
X76789Y-148420D01*
X76018Y-148100D01*
D02*
G37*
G36*
X334919Y-148017D02*
X334103D01*
X333314Y-148228D01*
X332608Y-148636D01*
X332030Y-149213D01*
X331622Y-149920D01*
X331411Y-150708D01*
Y-151525D01*
X331622Y-152313D01*
X332030Y-153020D01*
X332608Y-153597D01*
X333314Y-154005D01*
X334103Y-154217D01*
X334919D01*
X335708Y-154005D01*
X336415Y-153597D01*
X336992Y-153020D01*
X337400Y-152313D01*
X337611Y-151525D01*
Y-150708D01*
X337400Y-149920D01*
X336992Y-149213D01*
X336415Y-148636D01*
X335708Y-148228D01*
X334919Y-148017D01*
D02*
G37*
G36*
X299486D02*
X298670D01*
X297881Y-148228D01*
X297175Y-148636D01*
X296597Y-149213D01*
X296189Y-149920D01*
X295978Y-150708D01*
Y-151525D01*
X296189Y-152313D01*
X296597Y-153020D01*
X297175Y-153597D01*
X297881Y-154005D01*
X298670Y-154217D01*
X299486D01*
X300274Y-154005D01*
X300981Y-153597D01*
X301559Y-153020D01*
X301967Y-152313D01*
X302178Y-151525D01*
Y-150708D01*
X301967Y-149920D01*
X301559Y-149213D01*
X300981Y-148636D01*
X300274Y-148228D01*
X299486Y-148017D01*
D02*
G37*
G36*
X220218Y-151500D02*
X219382D01*
X218610Y-151820D01*
X218020Y-152410D01*
X217700Y-153182D01*
Y-154018D01*
X218020Y-154790D01*
X218610Y-155380D01*
X219382Y-155700D01*
X220218D01*
X220990Y-155380D01*
X221580Y-154790D01*
X221900Y-154018D01*
Y-153182D01*
X221580Y-152410D01*
X220990Y-151820D01*
X220218Y-151500D01*
D02*
G37*
G36*
X129918Y-155500D02*
X129082D01*
X128310Y-155820D01*
X127720Y-156410D01*
X127400Y-157182D01*
Y-158018D01*
X127428Y-158086D01*
X107757Y-177757D01*
X107514Y-178121D01*
X107428Y-178550D01*
X107429Y-178550D01*
Y-191185D01*
X104276Y-194338D01*
X103852Y-194055D01*
X103999Y-193700D01*
X101500D01*
Y-193200D01*
X101000D01*
Y-190701D01*
X100084Y-191081D01*
X99381Y-191784D01*
X99314Y-191945D01*
X99285Y-191950D01*
X98772Y-192293D01*
X74769Y-216296D01*
X74300Y-216101D01*
Y-218600D01*
Y-221099D01*
X75216Y-220719D01*
X75919Y-220016D01*
X76234Y-219257D01*
X76367Y-219167D01*
X85505Y-210030D01*
X85928Y-210314D01*
X85900Y-210382D01*
Y-211218D01*
X86220Y-211990D01*
X86810Y-212580D01*
X87582Y-212900D01*
X88418D01*
X89189Y-212580D01*
X89780Y-211990D01*
X89808Y-211922D01*
X93077D01*
X93077Y-211922D01*
X93506Y-211836D01*
X93870Y-211593D01*
X110943Y-194520D01*
X110943Y-194520D01*
X111186Y-194156D01*
X111272Y-193727D01*
Y-188315D01*
X129186Y-170400D01*
X129918D01*
X130690Y-170080D01*
X131280Y-169490D01*
X131600Y-168718D01*
Y-167882D01*
X131280Y-167110D01*
X130690Y-166520D01*
X129918Y-166200D01*
X129082D01*
X128310Y-166520D01*
X127720Y-167110D01*
X127400Y-167882D01*
Y-168718D01*
X127487Y-168927D01*
X110134Y-186280D01*
X109672Y-186089D01*
Y-179015D01*
X129014Y-159672D01*
X129082Y-159700D01*
X129918D01*
X130690Y-159380D01*
X131280Y-158790D01*
X131600Y-158018D01*
Y-157182D01*
X131280Y-156410D01*
X130690Y-155820D01*
X129918Y-155500D01*
D02*
G37*
G36*
X75518Y-163000D02*
X74682D01*
X73910Y-163320D01*
X73320Y-163910D01*
X73000Y-164682D01*
Y-165518D01*
X73320Y-166290D01*
X73910Y-166880D01*
X74682Y-167200D01*
X75518D01*
X76289Y-166880D01*
X76880Y-166290D01*
X77200Y-165518D01*
Y-164682D01*
X76880Y-163910D01*
X76289Y-163320D01*
X75518Y-163000D01*
D02*
G37*
G36*
X151548Y-168862D02*
X150652D01*
X149786Y-169094D01*
X149009Y-169542D01*
X148375Y-170176D01*
X147927Y-170953D01*
X147695Y-171819D01*
Y-172715D01*
X147927Y-173581D01*
X148375Y-174358D01*
X149009Y-174992D01*
X149786Y-175440D01*
X150652Y-175672D01*
X151548D01*
X152414Y-175440D01*
X153191Y-174992D01*
X153825Y-174358D01*
X154273Y-173581D01*
X154505Y-172715D01*
Y-171819D01*
X154273Y-170953D01*
X153825Y-170176D01*
X153191Y-169542D01*
X152414Y-169094D01*
X151548Y-168862D01*
D02*
G37*
G36*
X200318Y-172200D02*
X199482D01*
X198710Y-172520D01*
X198120Y-173110D01*
X197800Y-173882D01*
Y-174718D01*
X198120Y-175490D01*
X198710Y-176080D01*
X199482Y-176400D01*
X200318D01*
X201090Y-176080D01*
X201680Y-175490D01*
X202000Y-174718D01*
Y-173882D01*
X201680Y-173110D01*
X201090Y-172520D01*
X200318Y-172200D01*
D02*
G37*
G36*
X77418Y-173200D02*
X76582D01*
X75810Y-173520D01*
X75220Y-174110D01*
X74900Y-174882D01*
Y-175718D01*
X75220Y-176490D01*
X75810Y-177080D01*
X76582Y-177400D01*
X77418D01*
X78189Y-177080D01*
X78780Y-176490D01*
X79100Y-175718D01*
Y-174882D01*
X78780Y-174110D01*
X78189Y-173520D01*
X77418Y-173200D01*
D02*
G37*
G36*
X161418Y-175000D02*
X160582D01*
X159810Y-175320D01*
X159220Y-175910D01*
X158900Y-176682D01*
Y-177518D01*
X159220Y-178290D01*
X159810Y-178880D01*
X160582Y-179200D01*
X161418D01*
X162190Y-178880D01*
X162780Y-178290D01*
X163100Y-177518D01*
Y-176682D01*
X162780Y-175910D01*
X162190Y-175320D01*
X161418Y-175000D01*
D02*
G37*
G36*
X151548Y-178862D02*
X150652D01*
X149786Y-179094D01*
X149009Y-179542D01*
X148375Y-180176D01*
X147927Y-180953D01*
X147695Y-181819D01*
Y-182715D01*
X147927Y-183581D01*
X148375Y-184358D01*
X149009Y-184992D01*
X149786Y-185440D01*
X150652Y-185672D01*
X151548D01*
X152414Y-185440D01*
X153191Y-184992D01*
X153825Y-184358D01*
X154273Y-183581D01*
X154505Y-182715D01*
Y-181819D01*
X154273Y-180953D01*
X153825Y-180176D01*
X153191Y-179542D01*
X152414Y-179094D01*
X151548Y-178862D01*
D02*
G37*
G36*
X288318Y-182000D02*
X287482D01*
X286710Y-182320D01*
X286120Y-182910D01*
X285800Y-183682D01*
Y-184518D01*
X286120Y-185290D01*
X286710Y-185880D01*
X287482Y-186200D01*
X288318D01*
X289090Y-185880D01*
X289680Y-185290D01*
X290000Y-184518D01*
Y-183682D01*
X289680Y-182910D01*
X289090Y-182320D01*
X288318Y-182000D01*
D02*
G37*
G36*
X225418Y-182500D02*
X224582D01*
X223810Y-182820D01*
X223220Y-183410D01*
X222900Y-184182D01*
Y-185018D01*
X223220Y-185790D01*
X223810Y-186380D01*
X224582Y-186700D01*
X225418D01*
X226190Y-186380D01*
X226780Y-185790D01*
X227100Y-185018D01*
Y-184182D01*
X226780Y-183410D01*
X226190Y-182820D01*
X225418Y-182500D01*
D02*
G37*
G36*
X197818Y-186100D02*
X196982D01*
X196210Y-186420D01*
X195620Y-187010D01*
X195300Y-187782D01*
Y-188065D01*
X191945Y-191420D01*
X190500D01*
Y-191300D01*
X181500D01*
Y-194700D01*
X190500D01*
Y-194580D01*
X192600D01*
X193205Y-194460D01*
X193718Y-194117D01*
X197535Y-190300D01*
X197818D01*
X198590Y-189980D01*
X199180Y-189390D01*
X199500Y-188618D01*
Y-187782D01*
X199180Y-187010D01*
X198590Y-186420D01*
X197818Y-186100D01*
D02*
G37*
G36*
X233318Y-189600D02*
X232482D01*
X231710Y-189920D01*
X231120Y-190510D01*
X230800Y-191282D01*
Y-191293D01*
X230384Y-191571D01*
X230276Y-191526D01*
X229441D01*
X228669Y-191846D01*
X228078Y-192437D01*
X227759Y-193209D01*
Y-194044D01*
X228078Y-194816D01*
X228669Y-195406D01*
X229441Y-195726D01*
X230276D01*
X231048Y-195406D01*
X231639Y-194816D01*
X231959Y-194044D01*
Y-194033D01*
X232374Y-193755D01*
X232482Y-193800D01*
X233318D01*
X234090Y-193480D01*
X234680Y-192890D01*
X235000Y-192118D01*
Y-191282D01*
X234680Y-190510D01*
X234090Y-189920D01*
X233318Y-189600D01*
D02*
G37*
G36*
X166100Y-190900D02*
X161700D01*
Y-192500D01*
X166100D01*
Y-190900D01*
D02*
G37*
G36*
X102000Y-190701D02*
Y-192700D01*
X103999D01*
X103619Y-191784D01*
X102916Y-191081D01*
X102000Y-190701D01*
D02*
G37*
G36*
X208268Y-189500D02*
X207432D01*
X206660Y-189820D01*
X206070Y-190410D01*
X205750Y-191182D01*
Y-192018D01*
X206070Y-192790D01*
X206660Y-193380D01*
X207432Y-193700D01*
X208268D01*
X209040Y-193380D01*
X209630Y-192790D01*
X209950Y-192018D01*
Y-191182D01*
X209630Y-190410D01*
X209040Y-189820D01*
X208268Y-189500D01*
D02*
G37*
G36*
X151548Y-188862D02*
X150652D01*
X149786Y-189094D01*
X149009Y-189542D01*
X148375Y-190176D01*
X147927Y-190953D01*
X147695Y-191819D01*
Y-192715D01*
X147927Y-193581D01*
X148375Y-194358D01*
X149009Y-194992D01*
X149786Y-195440D01*
X150652Y-195672D01*
X151548D01*
X152414Y-195440D01*
X153191Y-194992D01*
X153825Y-194358D01*
X154273Y-193581D01*
X154505Y-192715D01*
Y-191819D01*
X154273Y-190953D01*
X153825Y-190176D01*
X153191Y-189542D01*
X152414Y-189094D01*
X151548Y-188862D01*
D02*
G37*
G36*
X128018Y-141900D02*
X127182D01*
X126410Y-142220D01*
X125820Y-142810D01*
X125500Y-143582D01*
Y-144418D01*
X125820Y-145190D01*
X126410Y-145780D01*
X126478Y-145808D01*
Y-152306D01*
X94507Y-184277D01*
X94264Y-184641D01*
X94178Y-185071D01*
X94178Y-185071D01*
Y-192835D01*
X87215Y-199799D01*
X86636Y-199220D01*
X85864Y-198900D01*
X85028D01*
X84257Y-199220D01*
X83666Y-199810D01*
X83346Y-200582D01*
Y-201418D01*
X83666Y-202190D01*
X84257Y-202780D01*
X85028Y-203100D01*
X85864D01*
X86636Y-202780D01*
X87226Y-202190D01*
X87273Y-202077D01*
X87644D01*
X87644Y-202077D01*
X88074Y-201992D01*
X88437Y-201749D01*
X96093Y-194093D01*
X96093Y-194093D01*
X96336Y-193729D01*
X96422Y-193300D01*
X96422Y-193300D01*
Y-185535D01*
X128393Y-153564D01*
X128393Y-153564D01*
X128636Y-153200D01*
X128722Y-152771D01*
X128722Y-152771D01*
Y-145808D01*
X128790Y-145780D01*
X129380Y-145190D01*
X129700Y-144418D01*
Y-143582D01*
X129380Y-142810D01*
X128790Y-142220D01*
X128018Y-141900D01*
D02*
G37*
G36*
X227318Y-195662D02*
X226482D01*
X225710Y-195982D01*
X225120Y-196573D01*
X224800Y-197345D01*
Y-198180D01*
X225120Y-198952D01*
X225710Y-199543D01*
X226482Y-199862D01*
X227318D01*
X228090Y-199543D01*
X228680Y-198952D01*
X229000Y-198180D01*
Y-197345D01*
X228680Y-196573D01*
X228090Y-195982D01*
X227318Y-195662D01*
D02*
G37*
G36*
X78318Y-194100D02*
X77482D01*
X76710Y-194420D01*
X76120Y-195010D01*
X75800Y-195782D01*
Y-196618D01*
X76120Y-197390D01*
X76580Y-197850D01*
X76537Y-198409D01*
X76511Y-198420D01*
X75920Y-199010D01*
X75600Y-199782D01*
Y-200618D01*
X75920Y-201390D01*
X76511Y-201980D01*
X77282Y-202300D01*
X78118D01*
X78890Y-201980D01*
X79480Y-201390D01*
X79800Y-200618D01*
Y-199782D01*
X79480Y-199010D01*
X79020Y-198550D01*
X79063Y-197991D01*
X79089Y-197980D01*
X79680Y-197390D01*
X80000Y-196618D01*
Y-195782D01*
X79680Y-195010D01*
X79089Y-194420D01*
X78318Y-194100D01*
D02*
G37*
G36*
X185500Y-200900D02*
X181100D01*
Y-202500D01*
X185500D01*
Y-200900D01*
D02*
G37*
G36*
X166100Y-203500D02*
X161700D01*
Y-205100D01*
X166100D01*
Y-203500D01*
D02*
G37*
G36*
X111818Y-202200D02*
X110982D01*
X110210Y-202520D01*
X109620Y-203110D01*
X109300Y-203882D01*
Y-204718D01*
X109620Y-205490D01*
X110210Y-206080D01*
X110982Y-206400D01*
X111818D01*
X112590Y-206080D01*
X113180Y-205490D01*
X113500Y-204718D01*
Y-203882D01*
X113180Y-203110D01*
X112590Y-202520D01*
X111818Y-202200D01*
D02*
G37*
G36*
X208227Y-203998D02*
X207391D01*
X206620Y-204318D01*
X206029Y-204909D01*
X205709Y-205681D01*
Y-206516D01*
X206029Y-207288D01*
X206620Y-207879D01*
X207391Y-208198D01*
X208227D01*
X208999Y-207879D01*
X209589Y-207288D01*
X209909Y-206516D01*
Y-205681D01*
X209589Y-204909D01*
X208999Y-204318D01*
X208227Y-203998D01*
D02*
G37*
G36*
X190500Y-196300D02*
X181500D01*
Y-199700D01*
X188914D01*
X189652Y-200438D01*
X189461Y-200900D01*
X186500D01*
Y-202500D01*
X190900D01*
Y-202339D01*
X191362Y-202148D01*
X193307Y-204093D01*
Y-207817D01*
X193307Y-207817D01*
X193328Y-207925D01*
Y-210672D01*
X198072D01*
Y-206716D01*
X195550D01*
Y-203628D01*
X195465Y-203199D01*
X195221Y-202835D01*
X195221Y-202835D01*
X190500Y-198114D01*
Y-196300D01*
D02*
G37*
G36*
X208100Y-209301D02*
Y-211300D01*
X210099D01*
X209719Y-210384D01*
X209016Y-209681D01*
X208100Y-209301D01*
D02*
G37*
G36*
X207100D02*
X206184Y-209681D01*
X205481Y-210384D01*
X205101Y-211300D01*
X207100D01*
Y-209301D01*
D02*
G37*
G36*
X190900Y-203500D02*
X186000D01*
X181100D01*
Y-205100D01*
X184420D01*
Y-207464D01*
X182730Y-209154D01*
X182300D01*
Y-213000D01*
X184965D01*
Y-211388D01*
X187118Y-209236D01*
X187460Y-208724D01*
X187580Y-208119D01*
Y-205100D01*
X190900D01*
Y-203500D01*
D02*
G37*
G36*
X181300Y-209154D02*
X178635D01*
Y-213000D01*
X181300D01*
Y-209154D01*
D02*
G37*
G36*
X210099Y-212300D02*
X208100D01*
Y-214299D01*
X209016Y-213919D01*
X209719Y-213216D01*
X210099Y-212300D01*
D02*
G37*
G36*
X207100D02*
X205101D01*
X205481Y-213216D01*
X206184Y-213919D01*
X207100Y-214299D01*
Y-212300D01*
D02*
G37*
G36*
X184965Y-214000D02*
X182300D01*
Y-217846D01*
X184965D01*
Y-214000D01*
D02*
G37*
G36*
X181300D02*
X178635D01*
Y-217846D01*
X181300D01*
Y-214000D01*
D02*
G37*
G36*
X73300Y-216101D02*
X72384Y-216481D01*
X71681Y-217184D01*
X71301Y-218100D01*
X73300D01*
Y-216101D01*
D02*
G37*
G36*
X336325Y-213178D02*
X335508D01*
X334720Y-213389D01*
X334013Y-213797D01*
X333436Y-214374D01*
X333028Y-215081D01*
X332817Y-215870D01*
Y-216686D01*
X333028Y-217475D01*
X333436Y-218181D01*
X334013Y-218759D01*
X334720Y-219167D01*
X335508Y-219378D01*
X336325D01*
X337113Y-219167D01*
X337820Y-218759D01*
X338397Y-218181D01*
X338805Y-217475D01*
X339017Y-216686D01*
Y-215870D01*
X338805Y-215081D01*
X338397Y-214374D01*
X337820Y-213797D01*
X337113Y-213389D01*
X336325Y-213178D01*
D02*
G37*
G36*
X207418Y-215400D02*
X206582D01*
X205810Y-215720D01*
X205220Y-216310D01*
X204900Y-217082D01*
Y-217918D01*
X205220Y-218690D01*
X205810Y-219280D01*
X206582Y-219600D01*
X207418D01*
X208190Y-219280D01*
X208780Y-218690D01*
X209100Y-217918D01*
Y-217082D01*
X208780Y-216310D01*
X208190Y-215720D01*
X207418Y-215400D01*
D02*
G37*
G36*
X268218Y-216800D02*
X267382D01*
X266610Y-217120D01*
X266020Y-217710D01*
X265700Y-218482D01*
Y-219318D01*
X266020Y-220090D01*
X266610Y-220680D01*
X267382Y-221000D01*
X268218D01*
X268990Y-220680D01*
X269580Y-220090D01*
X269900Y-219318D01*
Y-218482D01*
X269580Y-217710D01*
X268990Y-217120D01*
X268218Y-216800D01*
D02*
G37*
G36*
X73300Y-219100D02*
X71301D01*
X71681Y-220016D01*
X72384Y-220719D01*
X73300Y-221099D01*
Y-219100D01*
D02*
G37*
G36*
X323176Y-139788D02*
X322224D01*
X321306Y-140034D01*
X320482Y-140510D01*
X319810Y-141182D01*
X319334Y-142006D01*
X319088Y-142924D01*
Y-143876D01*
X319334Y-144794D01*
X319810Y-145618D01*
X320482Y-146290D01*
X320814Y-146482D01*
Y-147305D01*
X311855Y-156264D01*
X295234D01*
X294512Y-156407D01*
X293900Y-156816D01*
X292816Y-157900D01*
X292407Y-158512D01*
X292264Y-159234D01*
Y-208066D01*
X292407Y-208788D01*
X292816Y-209400D01*
X295564Y-212148D01*
Y-221541D01*
X295064Y-221826D01*
X294518Y-221600D01*
X293682D01*
X292910Y-221920D01*
X292320Y-222510D01*
X292000Y-223282D01*
Y-224118D01*
X292320Y-224890D01*
X292910Y-225480D01*
X293682Y-225800D01*
X294518D01*
X295064Y-225574D01*
X295564Y-225859D01*
Y-244155D01*
X281838Y-257881D01*
X260911D01*
X260189Y-258025D01*
X259577Y-258434D01*
X220594Y-297416D01*
X210760D01*
X210553Y-296917D01*
X210980Y-296490D01*
X211300Y-295718D01*
Y-294882D01*
X210980Y-294110D01*
X210390Y-293520D01*
X209618Y-293200D01*
X208782D01*
X208010Y-293520D01*
X207420Y-294110D01*
X207100Y-294882D01*
Y-295718D01*
X207420Y-296490D01*
X207847Y-296917D01*
X207640Y-297416D01*
X198253D01*
Y-290947D01*
X191147D01*
Y-292920D01*
X166655D01*
X159400Y-285665D01*
Y-285382D01*
X159080Y-284610D01*
X158490Y-284020D01*
X157718Y-283700D01*
X156882D01*
X156110Y-284020D01*
X155911Y-284220D01*
X147555D01*
X132780Y-269445D01*
Y-257053D01*
X134753D01*
Y-249947D01*
X127647D01*
Y-257053D01*
X129620D01*
Y-270100D01*
X129740Y-270705D01*
X130082Y-271217D01*
X145782Y-286917D01*
X146295Y-287260D01*
X146900Y-287380D01*
X155911D01*
X156110Y-287580D01*
X156882Y-287900D01*
X157165D01*
X164883Y-295618D01*
X165395Y-295960D01*
X166000Y-296080D01*
X191147D01*
Y-297416D01*
X142281D01*
X141559Y-297560D01*
X140947Y-297969D01*
X109066Y-329850D01*
X108657Y-330462D01*
X108514Y-331184D01*
Y-334047D01*
X106847D01*
Y-341153D01*
X113953D01*
Y-334047D01*
X112286D01*
Y-331965D01*
X134889Y-309363D01*
X135351Y-309554D01*
Y-355500D01*
X135541Y-355959D01*
X136000Y-356149D01*
X183300D01*
X183759Y-355959D01*
X183949Y-355500D01*
Y-308200D01*
X183759Y-307741D01*
X183300Y-307551D01*
X137354D01*
X137163Y-307089D01*
X143062Y-301189D01*
X191714D01*
X191921Y-301689D01*
X191537Y-302073D01*
X191017Y-302974D01*
X190747Y-303980D01*
Y-304000D01*
X194700D01*
X198653D01*
Y-303980D01*
X198383Y-302974D01*
X197863Y-302073D01*
X197479Y-301689D01*
X197686Y-301189D01*
X221375D01*
X222097Y-301045D01*
X222709Y-300637D01*
X258847Y-264498D01*
X259347Y-264705D01*
Y-265038D01*
X259589Y-265941D01*
X260057Y-266752D01*
X260719Y-267413D01*
X261529Y-267881D01*
X262432Y-268123D01*
X263368D01*
X264271Y-267881D01*
X265081Y-267413D01*
X265743Y-266752D01*
X266211Y-265941D01*
X266453Y-265038D01*
Y-264102D01*
X266211Y-263199D01*
X265743Y-262389D01*
X265508Y-262154D01*
X265715Y-261654D01*
X282619D01*
X283341Y-261510D01*
X283953Y-261101D01*
X289510Y-255544D01*
X290100Y-255662D01*
X290293Y-256128D01*
X290832Y-256667D01*
Y-272533D01*
X287000Y-276365D01*
Y-278600D01*
X289235D01*
X293530Y-274305D01*
X293872Y-273793D01*
X293992Y-273188D01*
Y-256667D01*
X294532Y-256128D01*
X294911Y-255212D01*
X292412D01*
Y-254212D01*
X294911D01*
X294532Y-253296D01*
X293828Y-252593D01*
X293362Y-252400D01*
X293245Y-251810D01*
X298784Y-246270D01*
X299193Y-245659D01*
X299336Y-244937D01*
Y-211366D01*
X299193Y-210645D01*
X298784Y-210033D01*
X297163Y-208411D01*
X297354Y-207949D01*
X343300D01*
X343759Y-207759D01*
X343949Y-207300D01*
Y-160000D01*
X343759Y-159541D01*
X343300Y-159351D01*
X314757D01*
X314566Y-158889D01*
X324034Y-149420D01*
X324443Y-148809D01*
X324586Y-148087D01*
Y-146482D01*
X324918Y-146290D01*
X325590Y-145618D01*
X326066Y-144794D01*
X326312Y-143876D01*
Y-142924D01*
X326066Y-142006D01*
X325590Y-141182D01*
X324918Y-140510D01*
X324094Y-140034D01*
X323176Y-139788D01*
D02*
G37*
G36*
X328676Y-224477D02*
X327725D01*
X326806Y-224723D01*
X325982Y-225199D01*
X325310Y-225871D01*
X324834Y-226695D01*
X324588Y-227613D01*
Y-228565D01*
X324834Y-229483D01*
X325310Y-230307D01*
X325982Y-230979D01*
X326806Y-231455D01*
X327725Y-231701D01*
X328676D01*
X329594Y-231455D01*
X330418Y-230979D01*
X331090Y-230307D01*
X331566Y-229483D01*
X331812Y-228565D01*
Y-227613D01*
X331566Y-226695D01*
X331090Y-225871D01*
X330418Y-225199D01*
X329594Y-224723D01*
X328676Y-224477D01*
D02*
G37*
G36*
X80918Y-232700D02*
X80082D01*
X79311Y-233020D01*
X78720Y-233610D01*
X78400Y-234382D01*
Y-235218D01*
X78720Y-235990D01*
X79311Y-236580D01*
X80082Y-236900D01*
X80918D01*
X81690Y-236580D01*
X82280Y-235990D01*
X82600Y-235218D01*
Y-234382D01*
X82280Y-233610D01*
X81690Y-233020D01*
X80918Y-232700D01*
D02*
G37*
G36*
X332212Y-235888D02*
X328700D01*
Y-239400D01*
X332212D01*
Y-235888D01*
D02*
G37*
G36*
X327700D02*
X324188D01*
Y-239400D01*
X327700D01*
Y-235888D01*
D02*
G37*
G36*
X332212Y-240400D02*
X328700D01*
Y-243912D01*
X332212D01*
Y-240400D01*
D02*
G37*
G36*
X327700D02*
X324188D01*
Y-243912D01*
X327700D01*
Y-240400D01*
D02*
G37*
G36*
X286218Y-240100D02*
X285382D01*
X284610Y-240420D01*
X284411Y-240620D01*
X259300D01*
X258695Y-240740D01*
X258183Y-241083D01*
X231028Y-268237D01*
X218872D01*
X218100Y-267465D01*
Y-267182D01*
X217780Y-266410D01*
X217190Y-265820D01*
X216418Y-265500D01*
X215582D01*
X214810Y-265820D01*
X214220Y-266410D01*
X213900Y-267182D01*
Y-268018D01*
X214220Y-268790D01*
X214810Y-269380D01*
X215582Y-269700D01*
X215865D01*
X217100Y-270935D01*
X217613Y-271277D01*
X218217Y-271398D01*
X231683D01*
X232287Y-271277D01*
X232800Y-270935D01*
X259955Y-243780D01*
X284411D01*
X284610Y-243980D01*
X285382Y-244300D01*
X286218D01*
X286990Y-243980D01*
X287580Y-243390D01*
X287900Y-242618D01*
Y-241782D01*
X287580Y-241010D01*
X286990Y-240420D01*
X286218Y-240100D01*
D02*
G37*
G36*
X211800Y-245401D02*
X210884Y-245781D01*
X210181Y-246484D01*
X209801Y-247400D01*
X211800D01*
Y-245401D01*
D02*
G37*
G36*
X121720Y-249547D02*
X121700D01*
Y-253000D01*
X125153D01*
Y-252980D01*
X124883Y-251974D01*
X124363Y-251073D01*
X123627Y-250337D01*
X122726Y-249817D01*
X121720Y-249547D01*
D02*
G37*
G36*
X120700D02*
X120680D01*
X119674Y-249817D01*
X118773Y-250337D01*
X118037Y-251073D01*
X117517Y-251974D01*
X117247Y-252980D01*
Y-253000D01*
X120700D01*
Y-249547D01*
D02*
G37*
G36*
X336325Y-248611D02*
X335508D01*
X334720Y-248822D01*
X334013Y-249230D01*
X333436Y-249808D01*
X333028Y-250515D01*
X332817Y-251303D01*
Y-252119D01*
X333028Y-252908D01*
X333436Y-253614D01*
X334013Y-254192D01*
X334720Y-254600D01*
X335508Y-254811D01*
X336325D01*
X337113Y-254600D01*
X337820Y-254192D01*
X338397Y-253614D01*
X338805Y-252908D01*
X339017Y-252119D01*
Y-251303D01*
X338805Y-250515D01*
X338397Y-249808D01*
X337820Y-249230D01*
X337113Y-248822D01*
X336325Y-248611D01*
D02*
G37*
G36*
X180668Y-249447D02*
X179732D01*
X178829Y-249689D01*
X178019Y-250157D01*
X177357Y-250819D01*
X176889Y-251629D01*
X176647Y-252532D01*
Y-253468D01*
X176889Y-254371D01*
X177357Y-255181D01*
X178019Y-255843D01*
X178829Y-256311D01*
X179732Y-256553D01*
X180668D01*
X181571Y-256311D01*
X182381Y-255843D01*
X183043Y-255181D01*
X183511Y-254371D01*
X183753Y-253468D01*
Y-252532D01*
X183511Y-251629D01*
X183043Y-250819D01*
X182381Y-250157D01*
X181571Y-249689D01*
X180668Y-249447D01*
D02*
G37*
G36*
X170668D02*
X169732D01*
X168829Y-249689D01*
X168019Y-250157D01*
X167357Y-250819D01*
X166889Y-251629D01*
X166647Y-252532D01*
Y-253468D01*
X166889Y-254371D01*
X167357Y-255181D01*
X168019Y-255843D01*
X168829Y-256311D01*
X169732Y-256553D01*
X170668D01*
X171571Y-256311D01*
X172381Y-255843D01*
X173043Y-255181D01*
X173511Y-254371D01*
X173753Y-253468D01*
Y-252532D01*
X173511Y-251629D01*
X173043Y-250819D01*
X172381Y-250157D01*
X171571Y-249689D01*
X170668Y-249447D01*
D02*
G37*
G36*
X160668D02*
X159732D01*
X158829Y-249689D01*
X158019Y-250157D01*
X157357Y-250819D01*
X156889Y-251629D01*
X156647Y-252532D01*
Y-253468D01*
X156889Y-254371D01*
X157357Y-255181D01*
X158019Y-255843D01*
X158829Y-256311D01*
X159732Y-256553D01*
X160668D01*
X161571Y-256311D01*
X162381Y-255843D01*
X163043Y-255181D01*
X163511Y-254371D01*
X163753Y-253468D01*
Y-252532D01*
X163511Y-251629D01*
X163043Y-250819D01*
X162381Y-250157D01*
X161571Y-249689D01*
X160668Y-249447D01*
D02*
G37*
G36*
X153753D02*
X146647D01*
Y-256553D01*
X153753D01*
Y-249447D01*
D02*
G37*
G36*
X111668Y-249947D02*
X110732D01*
X109829Y-250189D01*
X109019Y-250657D01*
X108357Y-251319D01*
X107889Y-252129D01*
X107647Y-253032D01*
Y-253968D01*
X107889Y-254871D01*
X108357Y-255681D01*
X109019Y-256343D01*
X109829Y-256811D01*
X110732Y-257053D01*
X111668D01*
X112571Y-256811D01*
X113381Y-256343D01*
X114043Y-255681D01*
X114511Y-254871D01*
X114753Y-253968D01*
Y-253032D01*
X114511Y-252129D01*
X114043Y-251319D01*
X113381Y-250657D01*
X112571Y-250189D01*
X111668Y-249947D01*
D02*
G37*
G36*
X101668D02*
X100732D01*
X99829Y-250189D01*
X99019Y-250657D01*
X98357Y-251319D01*
X97889Y-252129D01*
X97647Y-253032D01*
Y-253968D01*
X97889Y-254871D01*
X98357Y-255681D01*
X99019Y-256343D01*
X99829Y-256811D01*
X100732Y-257053D01*
X101668D01*
X102571Y-256811D01*
X103381Y-256343D01*
X104043Y-255681D01*
X104511Y-254871D01*
X104753Y-253968D01*
Y-253032D01*
X104511Y-252129D01*
X104043Y-251319D01*
X103381Y-250657D01*
X102571Y-250189D01*
X101668Y-249947D01*
D02*
G37*
G36*
X91668D02*
X90732D01*
X89829Y-250189D01*
X89019Y-250657D01*
X88357Y-251319D01*
X87889Y-252129D01*
X87647Y-253032D01*
Y-253968D01*
X87889Y-254871D01*
X88357Y-255681D01*
X89019Y-256343D01*
X89829Y-256811D01*
X90732Y-257053D01*
X91668D01*
X92571Y-256811D01*
X93381Y-256343D01*
X94043Y-255681D01*
X94511Y-254871D01*
X94753Y-253968D01*
Y-253032D01*
X94511Y-252129D01*
X94043Y-251319D01*
X93381Y-250657D01*
X92571Y-250189D01*
X91668Y-249947D01*
D02*
G37*
G36*
X125153Y-254000D02*
X121700D01*
Y-257453D01*
X121720D01*
X122726Y-257183D01*
X123627Y-256663D01*
X124363Y-255927D01*
X124883Y-255026D01*
X125153Y-254020D01*
Y-254000D01*
D02*
G37*
G36*
X120700D02*
X117247D01*
Y-254020D01*
X117517Y-255026D01*
X118037Y-255927D01*
X118773Y-256663D01*
X119674Y-257183D01*
X120680Y-257453D01*
X120700D01*
Y-254000D01*
D02*
G37*
G36*
X332620Y-260617D02*
X332600D01*
Y-264070D01*
X336053D01*
Y-264050D01*
X335783Y-263044D01*
X335263Y-262143D01*
X334527Y-261407D01*
X333626Y-260887D01*
X332620Y-260617D01*
D02*
G37*
G36*
X331600D02*
X331580D01*
X330574Y-260887D01*
X329673Y-261407D01*
X328937Y-262143D01*
X328417Y-263044D01*
X328147Y-264050D01*
Y-264070D01*
X331600D01*
Y-260617D01*
D02*
G37*
G36*
X325400Y-264001D02*
Y-266000D01*
X327399D01*
X327019Y-265084D01*
X326316Y-264381D01*
X325400Y-264001D01*
D02*
G37*
G36*
X324400D02*
X323484Y-264381D01*
X322781Y-265084D01*
X322401Y-266000D01*
X324400D01*
Y-264001D01*
D02*
G37*
G36*
X336053Y-265070D02*
X332600D01*
Y-268523D01*
X332620D01*
X333626Y-268253D01*
X334527Y-267733D01*
X335263Y-266997D01*
X335783Y-266096D01*
X336053Y-265090D01*
Y-265070D01*
D02*
G37*
G36*
X331600D02*
X328147D01*
Y-265090D01*
X328417Y-266096D01*
X328937Y-266997D01*
X329673Y-267733D01*
X330574Y-268253D01*
X331580Y-268523D01*
X331600D01*
Y-265070D01*
D02*
G37*
G36*
X327399Y-267000D02*
X325400D01*
Y-268999D01*
X326316Y-268619D01*
X327019Y-267916D01*
X327399Y-267000D01*
D02*
G37*
G36*
X324400D02*
X322401D01*
X322781Y-267916D01*
X323484Y-268619D01*
X324400Y-268999D01*
Y-267000D01*
D02*
G37*
G36*
X293075Y-239266D02*
X292239D01*
X291467Y-239586D01*
X290877Y-240177D01*
X290557Y-240948D01*
Y-241231D01*
X283930Y-247858D01*
X257762D01*
X257157Y-247978D01*
X256644Y-248321D01*
X229745Y-275220D01*
X222705D01*
X222424Y-274939D01*
X221912Y-274597D01*
X221307Y-274476D01*
X218140D01*
X217940Y-274276D01*
X217168Y-273957D01*
X216332D01*
X215560Y-274276D01*
X214970Y-274867D01*
X214650Y-275639D01*
Y-276474D01*
X214763Y-276747D01*
X214429Y-277247D01*
X209147D01*
Y-284353D01*
X216253D01*
Y-282380D01*
X231200D01*
X231805Y-282260D01*
X232317Y-281918D01*
X241835Y-272400D01*
X242118D01*
X242890Y-272080D01*
X243480Y-271490D01*
X243800Y-270718D01*
Y-269882D01*
X243480Y-269110D01*
X242890Y-268520D01*
X242118Y-268200D01*
X241942D01*
X241735Y-267700D01*
X258416Y-251019D01*
X284585D01*
X285190Y-250898D01*
X285702Y-250556D01*
X292792Y-243466D01*
X293075D01*
X293847Y-243146D01*
X294437Y-242556D01*
X294757Y-241784D01*
Y-240948D01*
X294437Y-240177D01*
X293847Y-239586D01*
X293075Y-239266D01*
D02*
G37*
G36*
X47618Y-271400D02*
X46782D01*
X46010Y-271720D01*
X45420Y-272310D01*
X45100Y-273082D01*
Y-273918D01*
X45420Y-274690D01*
X46010Y-275280D01*
X46782Y-275600D01*
X47618D01*
X48390Y-275280D01*
X48980Y-274690D01*
X49300Y-273918D01*
Y-273082D01*
X48980Y-272310D01*
X48390Y-271720D01*
X47618Y-271400D01*
D02*
G37*
G36*
X26653Y-270447D02*
X19547D01*
Y-277553D01*
X26653D01*
Y-270447D01*
D02*
G37*
G36*
X332568Y-271017D02*
X331632D01*
X330729Y-271259D01*
X329919Y-271727D01*
X329257Y-272389D01*
X328789Y-273199D01*
X328547Y-274102D01*
Y-275038D01*
X328789Y-275941D01*
X329257Y-276751D01*
X329919Y-277413D01*
X330729Y-277881D01*
X331632Y-278123D01*
X332568D01*
X333471Y-277881D01*
X334281Y-277413D01*
X334943Y-276751D01*
X335411Y-275941D01*
X335653Y-275038D01*
Y-274102D01*
X335411Y-273199D01*
X334943Y-272389D01*
X334281Y-271727D01*
X333471Y-271259D01*
X332568Y-271017D01*
D02*
G37*
G36*
X263368D02*
X262432D01*
X261529Y-271259D01*
X260719Y-271727D01*
X260057Y-272389D01*
X259589Y-273199D01*
X259347Y-274102D01*
Y-275038D01*
X259589Y-275941D01*
X260057Y-276751D01*
X260719Y-277413D01*
X261529Y-277881D01*
X262432Y-278123D01*
X263368D01*
X264271Y-277881D01*
X265081Y-277413D01*
X265743Y-276751D01*
X266211Y-275941D01*
X266453Y-275038D01*
Y-274102D01*
X266211Y-273199D01*
X265743Y-272389D01*
X265081Y-271727D01*
X264271Y-271259D01*
X263368Y-271017D01*
D02*
G37*
G36*
X286000Y-276601D02*
X285084Y-276981D01*
X284381Y-277684D01*
X284001Y-278600D01*
X286000D01*
Y-276601D01*
D02*
G37*
G36*
X203220Y-276847D02*
X203200D01*
Y-280300D01*
X206653D01*
Y-280280D01*
X206383Y-279274D01*
X205863Y-278373D01*
X205127Y-277637D01*
X204226Y-277117D01*
X203220Y-276847D01*
D02*
G37*
G36*
X202200D02*
X202180D01*
X201174Y-277117D01*
X200273Y-277637D01*
X199537Y-278373D01*
X199017Y-279274D01*
X198747Y-280280D01*
Y-280300D01*
X202200D01*
Y-276847D01*
D02*
G37*
G36*
X89918Y-276400D02*
X89082D01*
X88310Y-276720D01*
X87720Y-277310D01*
X87400Y-278082D01*
Y-278918D01*
X87720Y-279690D01*
X88310Y-280280D01*
X89082Y-280600D01*
X89918D01*
X90689Y-280280D01*
X91280Y-279690D01*
X91600Y-278918D01*
Y-278082D01*
X91280Y-277310D01*
X90689Y-276720D01*
X89918Y-276400D01*
D02*
G37*
G36*
X288999Y-279600D02*
X287000D01*
Y-281599D01*
X287916Y-281219D01*
X288619Y-280516D01*
X288999Y-279600D01*
D02*
G37*
G36*
X286000D02*
X284001D01*
X284381Y-280516D01*
X285084Y-281219D01*
X286000Y-281599D01*
Y-279600D01*
D02*
G37*
G36*
X206653Y-281300D02*
X203200D01*
Y-284753D01*
X203220D01*
X204226Y-284483D01*
X205127Y-283963D01*
X205863Y-283227D01*
X206383Y-282326D01*
X206653Y-281320D01*
Y-281300D01*
D02*
G37*
G36*
X202200D02*
X198747D01*
Y-281320D01*
X199017Y-282326D01*
X199537Y-283227D01*
X200273Y-283963D01*
X201174Y-284483D01*
X202180Y-284753D01*
X202200D01*
Y-281300D01*
D02*
G37*
G36*
X23568Y-280447D02*
X22632D01*
X21729Y-280689D01*
X20919Y-281157D01*
X20257Y-281819D01*
X19789Y-282629D01*
X19547Y-283532D01*
Y-284468D01*
X19789Y-285371D01*
X20257Y-286181D01*
X20919Y-286843D01*
X21729Y-287311D01*
X22632Y-287553D01*
X23568D01*
X24471Y-287311D01*
X25281Y-286843D01*
X25943Y-286181D01*
X26411Y-285371D01*
X26653Y-284468D01*
Y-283532D01*
X26411Y-282629D01*
X25943Y-281819D01*
X25281Y-281157D01*
X24471Y-280689D01*
X23568Y-280447D01*
D02*
G37*
G36*
X332568Y-281017D02*
X331632D01*
X330729Y-281259D01*
X329919Y-281727D01*
X329257Y-282389D01*
X328789Y-283199D01*
X328547Y-284102D01*
Y-285038D01*
X328789Y-285941D01*
X329257Y-286752D01*
X329919Y-287413D01*
X330729Y-287881D01*
X331632Y-288123D01*
X332568D01*
X333471Y-287881D01*
X334281Y-287413D01*
X334943Y-286752D01*
X335411Y-285941D01*
X335653Y-285038D01*
Y-284102D01*
X335411Y-283199D01*
X334943Y-282389D01*
X334281Y-281727D01*
X333471Y-281259D01*
X332568Y-281017D01*
D02*
G37*
G36*
X263368D02*
X262432D01*
X261529Y-281259D01*
X260719Y-281727D01*
X260057Y-282389D01*
X259589Y-283199D01*
X259347Y-284102D01*
Y-285038D01*
X259589Y-285941D01*
X260057Y-286752D01*
X260719Y-287413D01*
X261529Y-287881D01*
X262432Y-288123D01*
X263368D01*
X264271Y-287881D01*
X265081Y-287413D01*
X265743Y-286752D01*
X266211Y-285941D01*
X266453Y-285038D01*
Y-284102D01*
X266211Y-283199D01*
X265743Y-282389D01*
X265081Y-281727D01*
X264271Y-281259D01*
X263368Y-281017D01*
D02*
G37*
G36*
X117218Y-287300D02*
X116382D01*
X115610Y-287620D01*
X115020Y-288210D01*
X114700Y-288982D01*
Y-289818D01*
X115020Y-290590D01*
X115610Y-291180D01*
X116382Y-291500D01*
X117218D01*
X117990Y-291180D01*
X118580Y-290590D01*
X118900Y-289818D01*
Y-288982D01*
X118580Y-288210D01*
X117990Y-287620D01*
X117218Y-287300D01*
D02*
G37*
G36*
X109418Y-287400D02*
X108582D01*
X107810Y-287720D01*
X107220Y-288310D01*
X106900Y-289082D01*
Y-289918D01*
X107220Y-290690D01*
X107810Y-291280D01*
X108582Y-291600D01*
X109418D01*
X110190Y-291280D01*
X110780Y-290690D01*
X111100Y-289918D01*
Y-289082D01*
X110780Y-288310D01*
X110190Y-287720D01*
X109418Y-287400D01*
D02*
G37*
G36*
X23568Y-290447D02*
X22632D01*
X21729Y-290689D01*
X20919Y-291157D01*
X20257Y-291819D01*
X19789Y-292629D01*
X19547Y-293532D01*
Y-294468D01*
X19789Y-295371D01*
X20257Y-296181D01*
X20919Y-296843D01*
X21729Y-297311D01*
X22632Y-297553D01*
X23568D01*
X24471Y-297311D01*
X25281Y-296843D01*
X25943Y-296181D01*
X26411Y-295371D01*
X26653Y-294468D01*
Y-293532D01*
X26411Y-292629D01*
X25943Y-291819D01*
X25281Y-291157D01*
X24471Y-290689D01*
X23568Y-290447D01*
D02*
G37*
G36*
X332568Y-291017D02*
X331632D01*
X330729Y-291259D01*
X329919Y-291727D01*
X329257Y-292389D01*
X328789Y-293199D01*
X328547Y-294102D01*
Y-295038D01*
X328789Y-295941D01*
X329257Y-296751D01*
X329919Y-297413D01*
X330729Y-297881D01*
X331632Y-298123D01*
X332568D01*
X333471Y-297881D01*
X334281Y-297413D01*
X334943Y-296751D01*
X335411Y-295941D01*
X335653Y-295038D01*
Y-294102D01*
X335411Y-293199D01*
X334943Y-292389D01*
X334281Y-291727D01*
X333471Y-291259D01*
X332568Y-291017D01*
D02*
G37*
G36*
X263368D02*
X262432D01*
X261529Y-291259D01*
X260719Y-291727D01*
X260057Y-292389D01*
X259589Y-293199D01*
X259347Y-294102D01*
Y-295038D01*
X259589Y-295941D01*
X260057Y-296751D01*
X260719Y-297413D01*
X261529Y-297881D01*
X262432Y-298123D01*
X263368D01*
X264271Y-297881D01*
X265081Y-297413D01*
X265743Y-296751D01*
X266211Y-295941D01*
X266453Y-295038D01*
Y-294102D01*
X266211Y-293199D01*
X265743Y-292389D01*
X265081Y-291727D01*
X264271Y-291259D01*
X263368Y-291017D01*
D02*
G37*
G36*
X42018Y-298200D02*
X41182D01*
X40410Y-298520D01*
X39820Y-299110D01*
X39500Y-299882D01*
Y-300718D01*
X39820Y-301490D01*
X40410Y-302080D01*
X41182Y-302400D01*
X42018D01*
X42790Y-302080D01*
X43380Y-301490D01*
X43700Y-300718D01*
Y-299882D01*
X43380Y-299110D01*
X42790Y-298520D01*
X42018Y-298200D01*
D02*
G37*
G36*
X100618Y-300900D02*
X99782D01*
X99010Y-301220D01*
X98420Y-301810D01*
X98100Y-302582D01*
Y-303365D01*
X96745Y-304720D01*
X95165D01*
Y-302354D01*
X89635D01*
Y-310246D01*
X95165D01*
Y-307880D01*
X97400D01*
X98005Y-307760D01*
X98518Y-307417D01*
X100989Y-304946D01*
X101390Y-304780D01*
X101980Y-304190D01*
X102300Y-303418D01*
Y-302582D01*
X101980Y-301810D01*
X101390Y-301220D01*
X100618Y-300900D01*
D02*
G37*
G36*
X84935Y-301954D02*
X82270D01*
Y-305800D01*
X84935D01*
Y-301954D01*
D02*
G37*
G36*
X81270D02*
X78605D01*
Y-305800D01*
X81270D01*
Y-301954D01*
D02*
G37*
G36*
X23568Y-300447D02*
X22632D01*
X21729Y-300689D01*
X20919Y-301157D01*
X20257Y-301819D01*
X19789Y-302629D01*
X19547Y-303532D01*
Y-304468D01*
X19789Y-305371D01*
X20257Y-306181D01*
X20919Y-306843D01*
X21729Y-307311D01*
X22632Y-307553D01*
X23568D01*
X24471Y-307311D01*
X25281Y-306843D01*
X25943Y-306181D01*
X26411Y-305371D01*
X26653Y-304468D01*
Y-303532D01*
X26411Y-302629D01*
X25943Y-301819D01*
X25281Y-301157D01*
X24471Y-300689D01*
X23568Y-300447D01*
D02*
G37*
G36*
X332568Y-301017D02*
X331632D01*
X330729Y-301259D01*
X329919Y-301727D01*
X329257Y-302389D01*
X328789Y-303199D01*
X328547Y-304102D01*
Y-305038D01*
X328789Y-305941D01*
X329257Y-306751D01*
X329919Y-307413D01*
X330729Y-307881D01*
X331632Y-308123D01*
X332568D01*
X333471Y-307881D01*
X334281Y-307413D01*
X334943Y-306751D01*
X335411Y-305941D01*
X335653Y-305038D01*
Y-304102D01*
X335411Y-303199D01*
X334943Y-302389D01*
X334281Y-301727D01*
X333471Y-301259D01*
X332568Y-301017D01*
D02*
G37*
G36*
X263368D02*
X262432D01*
X261529Y-301259D01*
X260719Y-301727D01*
X260057Y-302389D01*
X259589Y-303199D01*
X259347Y-304102D01*
Y-305038D01*
X259589Y-305941D01*
X260057Y-306751D01*
X260719Y-307413D01*
X261529Y-307881D01*
X262432Y-308123D01*
X263368D01*
X264271Y-307881D01*
X265081Y-307413D01*
X265743Y-306751D01*
X266211Y-305941D01*
X266453Y-305038D01*
Y-304102D01*
X266211Y-303199D01*
X265743Y-302389D01*
X265081Y-301727D01*
X264271Y-301259D01*
X263368Y-301017D01*
D02*
G37*
G36*
X198653Y-305000D02*
X195200D01*
Y-308453D01*
X195220D01*
X196226Y-308183D01*
X197127Y-307663D01*
X197863Y-306927D01*
X198383Y-306026D01*
X198653Y-305020D01*
Y-305000D01*
D02*
G37*
G36*
X194200D02*
X190747D01*
Y-305020D01*
X191017Y-306026D01*
X191537Y-306927D01*
X192273Y-307663D01*
X193174Y-308183D01*
X194180Y-308453D01*
X194200D01*
Y-305000D01*
D02*
G37*
G36*
X84935Y-306800D02*
X82270D01*
Y-310647D01*
X84935D01*
Y-306800D01*
D02*
G37*
G36*
X81270D02*
X78605D01*
Y-310647D01*
X81270D01*
Y-306800D01*
D02*
G37*
G36*
X23568Y-310447D02*
X22632D01*
X21729Y-310689D01*
X20919Y-311157D01*
X20257Y-311819D01*
X19789Y-312629D01*
X19547Y-313532D01*
Y-314468D01*
X19789Y-315371D01*
X20257Y-316181D01*
X20919Y-316843D01*
X21729Y-317311D01*
X22632Y-317553D01*
X23568D01*
X24471Y-317311D01*
X25281Y-316843D01*
X25943Y-316181D01*
X26411Y-315371D01*
X26653Y-314468D01*
Y-313532D01*
X26411Y-312629D01*
X25943Y-311819D01*
X25281Y-311157D01*
X24471Y-310689D01*
X23568Y-310447D01*
D02*
G37*
G36*
X195168Y-310947D02*
X194232D01*
X193329Y-311189D01*
X192519Y-311657D01*
X191857Y-312319D01*
X191389Y-313129D01*
X191147Y-314032D01*
Y-314968D01*
X191389Y-315871D01*
X191857Y-316681D01*
X192519Y-317343D01*
X193329Y-317811D01*
X194232Y-318053D01*
X195168D01*
X196071Y-317811D01*
X196881Y-317343D01*
X197543Y-316681D01*
X198011Y-315871D01*
X198253Y-314968D01*
Y-314032D01*
X198011Y-313129D01*
X197543Y-312319D01*
X196881Y-311657D01*
X196071Y-311189D01*
X195168Y-310947D01*
D02*
G37*
G36*
X332568Y-311017D02*
X331632D01*
X330729Y-311259D01*
X329919Y-311727D01*
X329257Y-312389D01*
X328789Y-313199D01*
X328547Y-314102D01*
Y-315038D01*
X328789Y-315941D01*
X329257Y-316752D01*
X329919Y-317413D01*
X330729Y-317881D01*
X331632Y-318123D01*
X332568D01*
X333471Y-317881D01*
X334281Y-317413D01*
X334943Y-316752D01*
X335411Y-315941D01*
X335653Y-315038D01*
Y-314102D01*
X335411Y-313199D01*
X334943Y-312389D01*
X334281Y-311727D01*
X333471Y-311259D01*
X332568Y-311017D01*
D02*
G37*
G36*
X263368D02*
X262432D01*
X261529Y-311259D01*
X260719Y-311727D01*
X260057Y-312389D01*
X259589Y-313199D01*
X259347Y-314102D01*
Y-315038D01*
X259589Y-315941D01*
X260057Y-316752D01*
X260719Y-317413D01*
X261529Y-317881D01*
X262432Y-318123D01*
X263368D01*
X264271Y-317881D01*
X265081Y-317413D01*
X265743Y-316752D01*
X266211Y-315941D01*
X266453Y-315038D01*
Y-314102D01*
X266211Y-313199D01*
X265743Y-312389D01*
X265081Y-311727D01*
X264271Y-311259D01*
X263368Y-311017D01*
D02*
G37*
G36*
X331600Y-320617D02*
X328147D01*
Y-322531D01*
X266853D01*
Y-320617D01*
X263400D01*
Y-324570D01*
Y-328523D01*
X266853D01*
Y-326609D01*
X328147D01*
Y-328523D01*
X331600D01*
Y-324570D01*
Y-320617D01*
D02*
G37*
G36*
X23620Y-320047D02*
X23600D01*
Y-323500D01*
X27053D01*
Y-323480D01*
X26783Y-322474D01*
X26263Y-321573D01*
X25527Y-320837D01*
X24626Y-320317D01*
X23620Y-320047D01*
D02*
G37*
G36*
X22600D02*
X22580D01*
X21574Y-320317D01*
X20673Y-320837D01*
X19937Y-321573D01*
X19417Y-322474D01*
X19147Y-323480D01*
Y-323500D01*
X22600D01*
Y-320047D01*
D02*
G37*
G36*
X336053Y-320617D02*
X332600D01*
Y-324070D01*
X336053D01*
Y-320617D01*
D02*
G37*
G36*
X262400D02*
X258947D01*
Y-324070D01*
X262400D01*
Y-320617D01*
D02*
G37*
G36*
X47500Y-322401D02*
Y-324400D01*
X49499D01*
X49119Y-323484D01*
X48416Y-322781D01*
X47500Y-322401D01*
D02*
G37*
G36*
X46500D02*
X45584Y-322781D01*
X44881Y-323484D01*
X44501Y-324400D01*
X46500D01*
Y-322401D01*
D02*
G37*
G36*
Y-325400D02*
X44501D01*
X44881Y-326316D01*
X45584Y-327019D01*
X46500Y-327399D01*
Y-325400D01*
D02*
G37*
G36*
X27053Y-324500D02*
X23600D01*
Y-327953D01*
X23620D01*
X24626Y-327683D01*
X25527Y-327163D01*
X26263Y-326427D01*
X26783Y-325526D01*
X27053Y-324520D01*
Y-324500D01*
D02*
G37*
G36*
X22600D02*
X19147D01*
Y-324520D01*
X19417Y-325526D01*
X19937Y-326427D01*
X20673Y-327163D01*
X21574Y-327683D01*
X22580Y-327953D01*
X22600D01*
Y-324500D01*
D02*
G37*
G36*
X195168Y-320947D02*
X194232D01*
X193329Y-321189D01*
X192519Y-321657D01*
X191857Y-322319D01*
X191389Y-323129D01*
X191147Y-324032D01*
Y-324968D01*
X191389Y-325871D01*
X191857Y-326681D01*
X192519Y-327343D01*
X193329Y-327811D01*
X194232Y-328053D01*
X195168D01*
X196071Y-327811D01*
X196881Y-327343D01*
X197543Y-326681D01*
X198011Y-325871D01*
X198253Y-324968D01*
Y-324032D01*
X198011Y-323129D01*
X197543Y-322319D01*
X196881Y-321657D01*
X196071Y-321189D01*
X195168Y-320947D01*
D02*
G37*
G36*
X336053Y-325070D02*
X332600D01*
Y-328523D01*
X336053D01*
Y-325070D01*
D02*
G37*
G36*
X262400D02*
X258947D01*
Y-328523D01*
X262400D01*
Y-325070D01*
D02*
G37*
G36*
X43518Y-328200D02*
X42682D01*
X41910Y-328520D01*
X41320Y-329110D01*
X41000Y-329882D01*
Y-330718D01*
X41320Y-331490D01*
X41910Y-332080D01*
X42682Y-332400D01*
X43518D01*
X44290Y-332080D01*
X44880Y-331490D01*
X45200Y-330718D01*
Y-329882D01*
X44880Y-329110D01*
X44290Y-328520D01*
X43518Y-328200D01*
D02*
G37*
G36*
X100920Y-333647D02*
X100900D01*
Y-337100D01*
X104353D01*
Y-337080D01*
X104083Y-336074D01*
X103563Y-335173D01*
X102827Y-334437D01*
X101926Y-333917D01*
X100920Y-333647D01*
D02*
G37*
G36*
X70920D02*
X70900D01*
Y-337100D01*
X74353D01*
Y-337080D01*
X74083Y-336074D01*
X73563Y-335173D01*
X72827Y-334437D01*
X71926Y-333917D01*
X70920Y-333647D01*
D02*
G37*
G36*
X99900D02*
X99880D01*
X98874Y-333917D01*
X97973Y-334437D01*
X97237Y-335173D01*
X96717Y-336074D01*
X96447Y-337080D01*
Y-337100D01*
X99900D01*
Y-333647D01*
D02*
G37*
G36*
X49735Y-325400D02*
X47500D01*
Y-327635D01*
X52583Y-332717D01*
X53095Y-333060D01*
X53700Y-333180D01*
X63745D01*
X66700Y-336135D01*
X66447Y-337080D01*
Y-337100D01*
X69900D01*
Y-333647D01*
X69880D01*
X68935Y-333900D01*
X65517Y-330483D01*
X65005Y-330140D01*
X64400Y-330020D01*
X54355D01*
X49735Y-325400D01*
D02*
G37*
G36*
X23568Y-330447D02*
X22632D01*
X21729Y-330689D01*
X20919Y-331157D01*
X20257Y-331819D01*
X19789Y-332629D01*
X19547Y-333532D01*
Y-334468D01*
X19789Y-335371D01*
X20257Y-336181D01*
X20919Y-336843D01*
X21729Y-337311D01*
X22632Y-337553D01*
X23568D01*
X24471Y-337311D01*
X25281Y-336843D01*
X25943Y-336181D01*
X26411Y-335371D01*
X26653Y-334468D01*
Y-333532D01*
X26411Y-332629D01*
X25943Y-331819D01*
X25281Y-331157D01*
X24471Y-330689D01*
X23568Y-330447D01*
D02*
G37*
G36*
X195168Y-330947D02*
X194232D01*
X193329Y-331189D01*
X192519Y-331657D01*
X191857Y-332319D01*
X191389Y-333129D01*
X191147Y-334032D01*
Y-334968D01*
X191389Y-335871D01*
X191857Y-336681D01*
X192519Y-337343D01*
X193329Y-337811D01*
X194232Y-338053D01*
X195168D01*
X196071Y-337811D01*
X196881Y-337343D01*
X197543Y-336681D01*
X198011Y-335871D01*
X198253Y-334968D01*
Y-334032D01*
X198011Y-333129D01*
X197543Y-332319D01*
X196881Y-331657D01*
X196071Y-331189D01*
X195168Y-330947D01*
D02*
G37*
G36*
X90868Y-334047D02*
X89932D01*
X89029Y-334289D01*
X88219Y-334757D01*
X87557Y-335419D01*
X87089Y-336229D01*
X86847Y-337132D01*
Y-338068D01*
X87089Y-338971D01*
X87557Y-339781D01*
X88219Y-340443D01*
X89029Y-340911D01*
X89932Y-341153D01*
X90868D01*
X91771Y-340911D01*
X92581Y-340443D01*
X93243Y-339781D01*
X93711Y-338971D01*
X93953Y-338068D01*
Y-337132D01*
X93711Y-336229D01*
X93243Y-335419D01*
X92581Y-334757D01*
X91771Y-334289D01*
X90868Y-334047D01*
D02*
G37*
G36*
X80868D02*
X79932D01*
X79029Y-334289D01*
X78219Y-334757D01*
X77557Y-335419D01*
X77089Y-336229D01*
X76847Y-337132D01*
Y-338068D01*
X77089Y-338971D01*
X77557Y-339781D01*
X78219Y-340443D01*
X79029Y-340911D01*
X79932Y-341153D01*
X80868D01*
X81771Y-340911D01*
X82581Y-340443D01*
X83243Y-339781D01*
X83711Y-338971D01*
X83953Y-338068D01*
Y-337132D01*
X83711Y-336229D01*
X83243Y-335419D01*
X82581Y-334757D01*
X81771Y-334289D01*
X80868Y-334047D01*
D02*
G37*
G36*
X60868D02*
X59932D01*
X59029Y-334289D01*
X58219Y-334757D01*
X57557Y-335419D01*
X57089Y-336229D01*
X56847Y-337132D01*
Y-338068D01*
X57089Y-338971D01*
X57557Y-339781D01*
X58219Y-340443D01*
X59029Y-340911D01*
X59932Y-341153D01*
X60868D01*
X61771Y-340911D01*
X62581Y-340443D01*
X63243Y-339781D01*
X63711Y-338971D01*
X63953Y-338068D01*
Y-337132D01*
X63711Y-336229D01*
X63243Y-335419D01*
X62581Y-334757D01*
X61771Y-334289D01*
X60868Y-334047D01*
D02*
G37*
G36*
X104353Y-338100D02*
X100900D01*
Y-341553D01*
X100920D01*
X101926Y-341283D01*
X102827Y-340763D01*
X103563Y-340027D01*
X104083Y-339126D01*
X104353Y-338120D01*
Y-338100D01*
D02*
G37*
G36*
X99900D02*
X96447D01*
Y-338120D01*
X96717Y-339126D01*
X97237Y-340027D01*
X97973Y-340763D01*
X98874Y-341283D01*
X99880Y-341553D01*
X99900D01*
Y-338100D01*
D02*
G37*
G36*
X74353D02*
X70900D01*
Y-341553D01*
X70920D01*
X71926Y-341283D01*
X72827Y-340763D01*
X73563Y-340027D01*
X74083Y-339126D01*
X74353Y-338120D01*
Y-338100D01*
D02*
G37*
G36*
X69900D02*
X66447D01*
Y-338120D01*
X66717Y-339126D01*
X67237Y-340027D01*
X67973Y-340763D01*
X68874Y-341283D01*
X69880Y-341553D01*
X69900D01*
Y-338100D01*
D02*
G37*
G36*
X87100Y-344301D02*
Y-346300D01*
X89099D01*
X88719Y-345384D01*
X88016Y-344681D01*
X87100Y-344301D01*
D02*
G37*
G36*
X86100D02*
X85184Y-344681D01*
X84481Y-345384D01*
X84101Y-346300D01*
X86100D01*
Y-344301D01*
D02*
G37*
G36*
X23568Y-340447D02*
X22632D01*
X21729Y-340689D01*
X20919Y-341157D01*
X20257Y-341819D01*
X19789Y-342629D01*
X19547Y-343532D01*
Y-344468D01*
X19789Y-345371D01*
X20257Y-346181D01*
X20919Y-346843D01*
X21729Y-347311D01*
X22632Y-347553D01*
X23568D01*
X24471Y-347311D01*
X25281Y-346843D01*
X25943Y-346181D01*
X26411Y-345371D01*
X26653Y-344468D01*
Y-343532D01*
X26411Y-342629D01*
X25943Y-341819D01*
X25281Y-341157D01*
X24471Y-340689D01*
X23568Y-340447D01*
D02*
G37*
G36*
X195168Y-340947D02*
X194232D01*
X193329Y-341189D01*
X192519Y-341657D01*
X191857Y-342319D01*
X191389Y-343129D01*
X191147Y-344032D01*
Y-344968D01*
X191389Y-345871D01*
X191857Y-346681D01*
X192519Y-347343D01*
X193329Y-347811D01*
X194232Y-348053D01*
X195168D01*
X196071Y-347811D01*
X196881Y-347343D01*
X197543Y-346681D01*
X198011Y-345871D01*
X198253Y-344968D01*
Y-344032D01*
X198011Y-343129D01*
X197543Y-342319D01*
X196881Y-341657D01*
X196071Y-341189D01*
X195168Y-340947D01*
D02*
G37*
G36*
X89099Y-347300D02*
X87100D01*
Y-349299D01*
X88016Y-348919D01*
X88719Y-348216D01*
X89099Y-347300D01*
D02*
G37*
G36*
X86100D02*
X84101D01*
X84481Y-348216D01*
X85184Y-348919D01*
X86100Y-349299D01*
Y-347300D01*
D02*
G37*
%LPD*%
G36*
X327035Y-70583D02*
X327859D01*
X327925Y-71083D01*
X327529Y-71189D01*
X326719Y-71657D01*
X326057Y-72319D01*
X325710Y-72920D01*
X315669D01*
X315477Y-72458D01*
X317455Y-70480D01*
X326518D01*
X327035Y-70583D01*
D02*
G37*
G36*
X332720Y-75904D02*
Y-78445D01*
X330038Y-81127D01*
X329368Y-80947D01*
X328432D01*
X327529Y-81189D01*
X326719Y-81657D01*
X326057Y-82319D01*
X325589Y-83129D01*
X325347Y-84032D01*
Y-84968D01*
X325589Y-85871D01*
X326057Y-86681D01*
X326298Y-86922D01*
X326091Y-87422D01*
X313246D01*
X312869Y-86922D01*
X312883Y-86872D01*
X312883D01*
Y-82128D01*
X310114D01*
X309907Y-81628D01*
X315455Y-76080D01*
X325710D01*
X326057Y-76681D01*
X326719Y-77343D01*
X327529Y-77811D01*
X328432Y-78053D01*
X329368D01*
X330271Y-77811D01*
X331081Y-77343D01*
X331743Y-76681D01*
X332211Y-75871D01*
X332220Y-75838D01*
X332720Y-75904D01*
D02*
G37*
G36*
X272682Y-181100D02*
X273518D01*
X274078Y-180868D01*
X274578Y-181145D01*
Y-199135D01*
X271984Y-201730D01*
X271521Y-201539D01*
Y-181045D01*
X272022Y-180826D01*
X272682Y-181100D01*
D02*
G37*
G36*
X96420Y-199811D02*
X96100Y-200582D01*
Y-201418D01*
X96420Y-202190D01*
X97010Y-202780D01*
X97782Y-203100D01*
X98484D01*
X98713Y-203498D01*
X98729Y-203562D01*
X92612Y-209679D01*
X89808D01*
X89780Y-209610D01*
X89189Y-209020D01*
X88418Y-208700D01*
X87582D01*
X87514Y-208728D01*
X87230Y-208305D01*
X96058Y-199477D01*
X96420Y-199811D01*
D02*
G37*
D12*
X194428Y-207817D02*
Y-203628D01*
X186000Y-198000D02*
X188800D01*
X194428Y-203628D01*
Y-207817D02*
X195306Y-208695D01*
X195700D01*
X132100Y-219100D02*
Y-209371D01*
X131700Y-208971D02*
X132100Y-209371D01*
X131700Y-208971D02*
Y-198700D01*
X110150Y-187850D02*
X129500Y-168500D01*
Y-168300D01*
X127150Y-224050D02*
X132100Y-219100D01*
X126800Y-224050D02*
X127150D01*
X166800Y-167253D02*
X167194D01*
X269607Y-173807D02*
X270400Y-174600D01*
X262407Y-173807D02*
X269607D01*
X270383Y-170683D02*
X270789Y-170276D01*
Y-169089D02*
X271172Y-168707D01*
X270789Y-170276D02*
Y-169089D01*
X74159Y-218241D02*
X74183Y-218217D01*
X73800Y-218600D02*
X74159Y-218241D01*
X95300Y-185071D02*
X127600Y-152771D01*
Y-144000D01*
X95300Y-193300D02*
Y-185071D01*
X226363Y-248937D02*
X275700Y-199600D01*
Y-176000D01*
X270383Y-170683D02*
X275700Y-176000D01*
X270400Y-202637D02*
Y-174600D01*
X225700Y-247337D02*
X270400Y-202637D01*
X87644Y-200956D02*
X95300Y-193300D01*
X85446Y-201000D02*
X85491Y-200956D01*
X87644D01*
X103066Y-196134D02*
X104066D01*
X98200Y-201000D02*
X103066Y-196134D01*
X104066D02*
X108550Y-191650D01*
X93077Y-210800D02*
X110150Y-193727D01*
X88000Y-210800D02*
X93077D01*
X110150Y-193727D02*
Y-187850D01*
X69400Y-233677D02*
Y-156400D01*
Y-233677D02*
X81200Y-245477D01*
X69400Y-156400D02*
X75600Y-150200D01*
X255000Y-208900D02*
Y-208600D01*
X182100Y-281800D02*
X255000Y-208900D01*
X176500Y-281800D02*
X182100D01*
X181100Y-285200D02*
Y-285137D01*
X218900Y-247337D01*
X184600Y-287500D02*
Y-283900D01*
X219563Y-248937D01*
X226363D01*
X218900Y-247337D02*
X225700D01*
X108550Y-178550D02*
X129500Y-157600D01*
X108550Y-191650D02*
Y-178550D01*
X81200Y-253500D02*
Y-245477D01*
D16*
X310906Y-84500D02*
D03*
X305000D02*
D03*
D26*
X195700Y-214600D02*
D03*
Y-208695D02*
D03*
X13800Y-97000D02*
D03*
Y-102905D02*
D03*
X166800Y-167253D02*
D03*
Y-161347D02*
D03*
D28*
X171170Y-213500D02*
D03*
X181800D02*
D03*
X177185Y-149000D02*
D03*
X187815D02*
D03*
X92400Y-306300D02*
D03*
X81770D02*
D03*
D52*
X181800Y-212319D02*
X186000Y-208119D01*
Y-203000D01*
X181800Y-213500D02*
Y-212319D01*
X166600Y-203000D02*
Y-198000D01*
Y-193000D01*
X5610Y-71337D02*
Y-68987D01*
Y-71337D02*
X7699Y-73425D01*
X9569D02*
X9800Y-73656D01*
X7699Y-73425D02*
X9569D01*
X5610Y-68987D02*
X6800Y-67798D01*
Y-67500D01*
X9712Y-106600D02*
X13406Y-102905D01*
X2600Y-106600D02*
X9712D01*
X13406Y-102905D02*
X13800D01*
X9346Y-97000D02*
X13406D01*
X10217Y-100189D02*
X13406Y-97000D01*
X7100Y-100400D02*
X7310Y-100189D01*
X13406Y-97000D02*
X13800D01*
X7310Y-100189D02*
X10217D01*
X14146Y-102953D02*
X17122Y-99977D01*
X65100Y-105200D02*
X81400Y-121500D01*
X29000Y-105200D02*
X65100D01*
X9800Y-85467D02*
X9990Y-85277D01*
X34833Y-85467D02*
X46900Y-73400D01*
X9800Y-85467D02*
X34833D01*
X9990Y-85277D02*
X14072D01*
X147503Y-63397D02*
X156986D01*
X165750Y-60650D02*
X173000Y-67900D01*
X143000D02*
X147503Y-63397D01*
X125834Y-60650D02*
X165750D01*
X158200Y-94798D02*
Y-64611D01*
X156986Y-63397D02*
X158200Y-64611D01*
X92500Y-50948D02*
X116132D01*
X125834Y-60650D01*
X145500Y-146667D02*
Y-107498D01*
X158200Y-94798D01*
X4200Y-28200D02*
X4411Y-28411D01*
X7930Y-34019D02*
X9800D01*
X4411Y-30499D02*
X7930Y-34019D01*
X4411Y-30499D02*
Y-28411D01*
X19800Y-79549D02*
Y-43400D01*
X14356Y-37956D02*
X19800Y-43400D01*
X169677Y-188000D02*
X170766D01*
X171170Y-213500D02*
X172385Y-212285D01*
X190396Y-146604D02*
X199290Y-137710D01*
X169827Y-188150D02*
X172872Y-191194D01*
X187649Y-158200D02*
X191314D01*
X188422Y-124444D02*
X199500Y-135523D01*
X166283Y-78417D02*
Y-77783D01*
X165900Y-77400D02*
X166283Y-77783D01*
X153300Y-107900D02*
X165900Y-95300D01*
X59200Y-85700D02*
X115300D01*
X122100Y-92500D01*
X46900Y-73400D02*
X59200Y-85700D01*
X14072Y-85277D02*
X19800Y-79549D01*
X4700Y-86792D02*
Y-82875D01*
Y-86792D02*
X9043Y-91135D01*
X5813Y-81762D02*
X9569D01*
X4700Y-82875D02*
X5813Y-81762D01*
X9569D02*
X9800Y-81530D01*
X17122Y-99977D02*
Y-94980D01*
X13277Y-91135D02*
X17122Y-94980D01*
X9043Y-91135D02*
X13277D01*
X5559Y-77371D02*
X9578D01*
X9800Y-77593D01*
X1950Y-89604D02*
Y-73762D01*
X5559Y-77371D01*
X1950Y-73762D02*
Y-53680D01*
X9800Y-73656D02*
X10031Y-73425D01*
X11901D01*
X14401Y-70925D02*
Y-43237D01*
X11901Y-73425D02*
X14401Y-70925D01*
X10031Y-42124D02*
X13288D01*
X14401Y-43237D01*
X9800Y-41893D02*
X10031Y-42124D01*
X1950Y-53680D02*
X9800Y-45830D01*
X1950Y-89604D02*
X9346Y-97000D01*
X9800Y-37956D02*
X14356D01*
X9800Y-34019D02*
X29971D01*
X46900Y-50948D01*
X166300Y-147700D02*
Y-120900D01*
X153300Y-107900D02*
X166300Y-120900D01*
X145500Y-146667D02*
X151100Y-152267D01*
X163158Y-164325D01*
X184355Y-177028D02*
Y-164499D01*
Y-177028D02*
X184896Y-177569D01*
X191314Y-158200D02*
X195272Y-162158D01*
X199290Y-136011D02*
X199500Y-135800D01*
X199290Y-137710D02*
Y-136011D01*
X189030Y-146604D02*
X190396D01*
X188000Y-147634D02*
X189030Y-146604D01*
X188000Y-149000D02*
Y-147634D01*
X171170Y-214681D02*
X172385Y-215897D01*
X172663D01*
X177311Y-220545D01*
X191122D02*
X194878Y-216788D01*
Y-215028D01*
X172385Y-212285D02*
Y-210427D01*
X172822Y-209991D01*
Y-205336D01*
X199500Y-135800D02*
Y-135523D01*
X188422Y-54245D02*
X194480Y-48186D01*
X186000Y-188000D02*
Y-184200D01*
X187032Y-161350D02*
X190928D01*
X194480Y-48186D02*
Y-47904D01*
X188470Y-157378D02*
Y-149655D01*
X194480Y-47904D02*
X196000Y-46384D01*
Y-45300D01*
X166750Y-188150D02*
X169827D01*
X182440Y-180640D02*
X186000Y-184200D01*
X194878Y-215028D02*
X195306Y-214600D01*
X195700D01*
X125200Y-194300D02*
X125410Y-194510D01*
X169955Y-211198D02*
X171170Y-212413D01*
X188422Y-124444D02*
Y-54245D01*
X125410Y-194510D02*
X126188D01*
X126522Y-194844D01*
X184896Y-177569D02*
X195272Y-167194D01*
X171170Y-214681D02*
Y-213500D01*
X126522Y-194844D02*
X140268D01*
X156621Y-211198D02*
X169955D01*
X171170Y-213500D02*
Y-212413D01*
X172872Y-205287D02*
Y-191194D01*
X177311Y-220545D02*
X191122D01*
X195272Y-167194D02*
Y-162158D01*
X181197Y-177569D02*
X184896D01*
X192400Y-165800D02*
Y-162822D01*
X170766Y-188000D02*
X181197Y-177569D01*
X172822Y-205336D02*
X172872Y-205287D01*
X140268Y-194844D02*
X156621Y-211198D01*
X187649Y-158200D02*
X188470Y-157378D01*
X166600Y-188000D02*
X166750Y-188150D01*
X187815Y-149000D02*
X188470Y-149655D01*
X190928Y-161350D02*
X192400Y-162822D01*
X190551Y-167649D02*
X192400Y-165800D01*
X187649Y-167649D02*
X190551D01*
X166799Y-161348D02*
X178199D01*
X181206Y-161350D02*
X184355Y-164499D01*
X178200Y-161350D02*
X181206D01*
X184355Y-164499D02*
X187649D01*
X168141Y-149000D02*
X177185D01*
X166841Y-147700D02*
X168141Y-149000D01*
X166300Y-147700D02*
X166841D01*
X177185Y-157185D02*
Y-149000D01*
Y-157185D02*
X178200Y-158200D01*
X183882D02*
X187032Y-161350D01*
X178200Y-158200D02*
X183882D01*
X178199Y-161348D02*
X178200Y-161350D01*
X186000Y-193000D02*
X192600D01*
X197400Y-188200D01*
X173025Y-164325D02*
X176349Y-167649D01*
X163158Y-164325D02*
X173025D01*
X176349Y-167649D02*
X178200D01*
X180099Y-164499D02*
X181513Y-165913D01*
Y-170287D02*
Y-165913D01*
X178200Y-164499D02*
X180099D01*
X171341Y-171400D02*
X180400D01*
X181513Y-170287D01*
X167194Y-167253D02*
X171341Y-171400D01*
X151100Y-162267D02*
X156086Y-167253D01*
X166800D01*
X218217Y-269817D02*
X231683D01*
X216000Y-267600D02*
X218217Y-269817D01*
X231683D02*
X259300Y-242200D01*
X74159Y-218241D02*
X74308Y-218390D01*
X221307Y-276057D02*
X222050Y-276800D01*
X216750Y-276057D02*
X221307D01*
X222050Y-276800D02*
X230400D01*
X216192Y-138206D02*
X216345Y-138053D01*
X227747D02*
X227900Y-137900D01*
X216345Y-138053D02*
X227747D01*
X286500Y-279100D02*
X292412Y-273188D01*
Y-254712D01*
X284585Y-249438D02*
X292657Y-241366D01*
X230400Y-276800D02*
X257762Y-249438D01*
X259300Y-242200D02*
X285800D01*
X257762Y-249438D02*
X284585D01*
X77900Y-188200D02*
X83200D01*
X93700Y-177700D02*
Y-129600D01*
X83200Y-188200D02*
X93700Y-177700D01*
X81400Y-184700D02*
Y-121500D01*
X142800Y-153967D02*
Y-80500D01*
X93700Y-129600D02*
X142800Y-80500D01*
Y-78100D01*
X153000Y-67900D01*
X142800Y-153967D02*
X151100Y-162267D01*
X275200Y-169100D02*
X275411Y-168889D01*
Y-168112D01*
X275567Y-167955D01*
Y-155333D01*
X307928Y-122972D01*
Y-81372D01*
X273843Y-153041D02*
Y-152743D01*
X314800Y-74500D02*
X328900D01*
X307928Y-81372D02*
X314800Y-74500D01*
X305000Y-80700D02*
X316800Y-68900D01*
X305000Y-121700D02*
Y-80700D01*
X316800Y-68900D02*
X326932D01*
X331503Y-69003D02*
X334300Y-71800D01*
X327035Y-69003D02*
X331503D01*
X326932Y-68900D02*
X327035Y-69003D01*
X273900Y-152800D02*
X305000Y-121700D01*
X74308Y-218390D02*
X74648Y-218050D01*
X75250D02*
X99889Y-193411D01*
X101289D02*
X101500Y-193200D01*
X74648Y-218050D02*
X75250D01*
X99889Y-193411D02*
X101289D01*
X231200Y-280800D02*
X241700Y-270300D01*
X212700Y-280800D02*
X231200D01*
X334000Y-99400D02*
Y-91500D01*
X312137Y-89003D02*
X331503D01*
X334000Y-91500D01*
X310906Y-84500D02*
X310960Y-84554D01*
Y-87826D02*
X312137Y-89003D01*
X310960Y-87826D02*
Y-84554D01*
X328900Y-104500D02*
X334000Y-99400D01*
X165900Y-95300D02*
Y-77400D01*
X131200Y-270100D02*
Y-253500D01*
X146900Y-285800D02*
X157300D01*
X131200Y-270100D02*
X146900Y-285800D01*
X157300D02*
X166000Y-294500D01*
X194700D01*
X334300Y-79100D02*
Y-71800D01*
X328900Y-84500D02*
X334300Y-79100D01*
X320681Y-133608D02*
Y-102719D01*
X328900Y-94500D01*
X310889Y-143400D02*
X320681Y-133608D01*
X77900Y-188200D02*
X81400Y-184700D01*
X47000Y-324900D02*
X53700Y-331600D01*
X64400D02*
X70400Y-337600D01*
X53700Y-331600D02*
X64400D01*
X100200Y-303500D02*
Y-303000D01*
X97400Y-306300D02*
X100200Y-303500D01*
X92400Y-306300D02*
X97400D01*
D55*
X76900Y-73400D02*
D03*
X46900D02*
D03*
X76900Y-93400D02*
D03*
X46900D02*
D03*
X76900Y-30948D02*
D03*
X46900D02*
D03*
X76900Y-50948D02*
D03*
X46900D02*
D03*
X286800Y-105300D02*
D03*
Y-95300D02*
D03*
Y-85300D02*
D03*
Y-75300D02*
D03*
Y-65300D02*
D03*
Y-55300D02*
D03*
Y-45300D02*
D03*
X332100Y-264570D02*
D03*
Y-274570D02*
D03*
Y-284570D02*
D03*
Y-294570D02*
D03*
Y-314570D02*
D03*
Y-304570D02*
D03*
X163000Y-67900D02*
D03*
X153000D02*
D03*
X143000D02*
D03*
X133000D02*
D03*
X92500Y-50948D02*
D03*
X122500D02*
D03*
X92500Y-30948D02*
D03*
X122500D02*
D03*
X328900Y-84500D02*
D03*
Y-74500D02*
D03*
Y-64500D02*
D03*
Y-54500D02*
D03*
Y-44500D02*
D03*
Y-34500D02*
D03*
Y-24500D02*
D03*
Y-94500D02*
D03*
X196000Y-95300D02*
D03*
Y-85300D02*
D03*
Y-75300D02*
D03*
Y-65300D02*
D03*
Y-55300D02*
D03*
Y-45300D02*
D03*
Y-35300D02*
D03*
X23100Y-284000D02*
D03*
Y-294000D02*
D03*
Y-304000D02*
D03*
Y-314000D02*
D03*
Y-324000D02*
D03*
Y-334000D02*
D03*
Y-344000D02*
D03*
X262900Y-264570D02*
D03*
Y-274570D02*
D03*
Y-284570D02*
D03*
Y-294570D02*
D03*
Y-314570D02*
D03*
Y-304570D02*
D03*
X100400Y-337600D02*
D03*
X90400D02*
D03*
X80400D02*
D03*
X70400D02*
D03*
X60400D02*
D03*
X121200Y-253500D02*
D03*
X111200D02*
D03*
X101200D02*
D03*
X91200D02*
D03*
X81200D02*
D03*
X194700Y-304500D02*
D03*
Y-314500D02*
D03*
Y-324500D02*
D03*
Y-334500D02*
D03*
Y-344500D02*
D03*
X180200Y-253000D02*
D03*
X170200D02*
D03*
X160200D02*
D03*
X202700Y-280800D02*
D03*
X122100Y-72500D02*
D03*
X92100D02*
D03*
X122100Y-92500D02*
D03*
X92100D02*
D03*
D56*
X286800Y-35300D02*
D03*
X332100Y-324570D02*
D03*
X328900Y-104500D02*
D03*
X196000Y-105300D02*
D03*
X23100Y-274000D02*
D03*
X262900Y-324570D02*
D03*
X194700Y-294500D02*
D03*
D57*
X173000Y-67900D02*
D03*
X110400Y-337600D02*
D03*
X131200Y-253500D02*
D03*
X150200Y-253000D02*
D03*
X212700Y-280800D02*
D03*
D58*
X334511Y-151117D02*
D03*
X299078D02*
D03*
X335916Y-216278D02*
D03*
Y-251711D02*
D03*
D59*
X322700Y-143400D02*
D03*
X328200Y-228089D02*
D03*
D60*
X310889Y-143400D02*
D03*
D61*
X151100Y-192267D02*
D03*
Y-182267D02*
D03*
Y-172267D02*
D03*
Y-162267D02*
D03*
Y-152267D02*
D03*
Y-142267D02*
D03*
D62*
Y-132267D02*
D03*
D63*
X37700Y-234800D02*
D03*
X159600Y-331800D02*
D03*
Y-35500D02*
D03*
X319500Y-183600D02*
D03*
X37700Y-139200D02*
D03*
D64*
X328200Y-239900D02*
D03*
D65*
X6800Y-67500D02*
D03*
X2600Y-106600D02*
D03*
X7100Y-100400D02*
D03*
X29000Y-105200D02*
D03*
X4200Y-28200D02*
D03*
X199500Y-135800D02*
D03*
X153300Y-107900D02*
D03*
X81600Y-98300D02*
D03*
X82700Y-23200D02*
D03*
X182440Y-180640D02*
D03*
X166300Y-147700D02*
D03*
X197400Y-188200D02*
D03*
X207600Y-211800D02*
D03*
X202500Y-58500D02*
D03*
X111400Y-204300D02*
D03*
X131700Y-198700D02*
D03*
X129500Y-168300D02*
D03*
X125200Y-194300D02*
D03*
X126800Y-224050D02*
D03*
X199900Y-174300D02*
D03*
X161000Y-177100D02*
D03*
X207809Y-206098D02*
D03*
X273843Y-152743D02*
D03*
X207850Y-191600D02*
D03*
X207000Y-217500D02*
D03*
X214403Y-92300D02*
D03*
X216000Y-267600D02*
D03*
X226900Y-197762D02*
D03*
X229859Y-193626D02*
D03*
X216750Y-276057D02*
D03*
X219800Y-153600D02*
D03*
X216192Y-138206D02*
D03*
X262407Y-173807D02*
D03*
X205600Y-76800D02*
D03*
X271172Y-168707D02*
D03*
X292412Y-254712D02*
D03*
X294100Y-223700D02*
D03*
X292657Y-241366D02*
D03*
X85488Y-180211D02*
D03*
X78350Y-170700D02*
D03*
X285800Y-242200D02*
D03*
X273100Y-179000D02*
D03*
X232900Y-191700D02*
D03*
X43100Y-330300D02*
D03*
X241700Y-270300D02*
D03*
X287900Y-184100D02*
D03*
X165900Y-77400D02*
D03*
X286500Y-279100D02*
D03*
X267800Y-218900D02*
D03*
X127600Y-144000D02*
D03*
X98200Y-201000D02*
D03*
X85446D02*
D03*
X77700Y-200200D02*
D03*
X225000Y-184600D02*
D03*
X212300Y-247900D02*
D03*
X157300Y-285800D02*
D03*
X209200Y-295300D02*
D03*
X73800Y-218600D02*
D03*
X101500Y-193200D02*
D03*
X88000Y-210800D02*
D03*
X80500Y-234800D02*
D03*
X227900Y-137900D02*
D03*
X324900Y-266500D02*
D03*
X275200Y-169100D02*
D03*
X271800Y-37600D02*
D03*
X207700Y-38000D02*
D03*
X77900Y-188200D02*
D03*
Y-196200D02*
D03*
X100200Y-303000D02*
D03*
X47000Y-324900D02*
D03*
X86600Y-346800D02*
D03*
X41600Y-300300D02*
D03*
X255000Y-208600D02*
D03*
X176500Y-281800D02*
D03*
X181100Y-285200D02*
D03*
X89500Y-278500D02*
D03*
X129500Y-157600D02*
D03*
X184600Y-287500D02*
D03*
X79189Y-239789D02*
D03*
X75600Y-150200D02*
D03*
X75100Y-165100D02*
D03*
X210800Y-66300D02*
D03*
X77000Y-175300D02*
D03*
X288800Y-149300D02*
D03*
X47200Y-273500D02*
D03*
X116800Y-289400D02*
D03*
X109000Y-289500D02*
D03*
D66*
X166600Y-188000D02*
D03*
Y-193000D02*
D03*
Y-198000D02*
D03*
Y-203000D02*
D03*
X186000D02*
D03*
Y-198000D02*
D03*
Y-193000D02*
D03*
Y-188000D02*
D03*
D67*
X25056Y-90586D02*
D03*
Y-68538D02*
D03*
Y-28901D02*
D03*
Y-50948D02*
D03*
D68*
X9800Y-73656D02*
D03*
Y-77593D02*
D03*
Y-81530D02*
D03*
Y-85467D02*
D03*
Y-45830D02*
D03*
Y-41893D02*
D03*
Y-37956D02*
D03*
Y-34019D02*
D03*
D69*
X178200Y-158200D02*
D03*
Y-161350D02*
D03*
Y-164499D02*
D03*
Y-167649D02*
D03*
X187649D02*
D03*
Y-164499D02*
D03*
Y-161350D02*
D03*
Y-158200D02*
D03*
D70*
X110400Y-337600D02*
Y-331184D01*
X142281Y-299303D01*
X294150Y-208066D02*
Y-159234D01*
X142281Y-299303D02*
X221375D01*
X294150Y-159234D02*
X295234Y-158150D01*
X221375Y-299303D02*
X260911Y-259767D01*
X282619D02*
X297450Y-244937D01*
X312637Y-158150D02*
X322700Y-148087D01*
X260911Y-259767D02*
X282619D01*
X322700Y-148087D02*
Y-143400D01*
X297450Y-244937D02*
Y-211366D01*
X294150Y-208066D02*
X297450Y-211366D01*
X295234Y-158150D02*
X312637D01*
D71*
X262900Y-324570D02*
X332100D01*
M02*
