G04*
G04 #@! TF.GenerationSoftware,Altium Limited,Altium Designer,22.2.1 (43)*
G04*
G04 Layer_Color=8421504*
%FSLAX25Y25*%
%MOIN*%
G70*
G04*
G04 #@! TF.SameCoordinates,91E75CD4-E1FE-4043-AE3D-700B569F0639*
G04*
G04*
G04 #@! TF.FilePolarity,Positive*
G04*
G01*
G75*
%ADD16R,0.02756X0.03543*%
%ADD17R,0.05906X0.03543*%
%ADD18R,0.03543X0.03543*%
%ADD19R,0.04331X0.02362*%
%ADD20R,0.04700X0.04700*%
%ADD21R,0.05512X0.03937*%
%ADD22R,0.03937X0.04331*%
%ADD23R,0.00984X0.01870*%
%ADD24R,0.01870X0.00984*%
%ADD25R,0.06496X0.02559*%
%ADD26R,0.03543X0.02756*%
%ADD27R,0.06693X0.04331*%
%ADD28R,0.04331X0.06693*%
D16*
X101700Y-107300D02*
D03*
X95794D02*
D03*
X70995Y-17100D02*
D03*
X76900D02*
D03*
X299694Y-231600D02*
D03*
X305600D02*
D03*
X299647Y-238300D02*
D03*
X305553D02*
D03*
X304253Y-286100D02*
D03*
X298347D02*
D03*
X40947Y-337546D02*
D03*
X46853D02*
D03*
X75100Y-107039D02*
D03*
X69195D02*
D03*
X124300Y-17000D02*
D03*
X130206D02*
D03*
D17*
X282888Y-208820D02*
D03*
Y-143820D02*
D03*
Y-148820D02*
D03*
Y-153820D02*
D03*
Y-158820D02*
D03*
Y-163820D02*
D03*
Y-168820D02*
D03*
Y-173820D02*
D03*
Y-178820D02*
D03*
Y-183820D02*
D03*
Y-188820D02*
D03*
Y-193820D02*
D03*
Y-198820D02*
D03*
Y-203820D02*
D03*
Y-213820D02*
D03*
Y-218820D02*
D03*
Y-223820D02*
D03*
Y-228820D02*
D03*
Y-233820D02*
D03*
X213990D02*
D03*
Y-228820D02*
D03*
Y-223820D02*
D03*
Y-218820D02*
D03*
Y-213820D02*
D03*
Y-208820D02*
D03*
Y-203820D02*
D03*
Y-198820D02*
D03*
Y-193820D02*
D03*
Y-188820D02*
D03*
Y-183820D02*
D03*
Y-178820D02*
D03*
Y-173820D02*
D03*
Y-168820D02*
D03*
Y-163820D02*
D03*
Y-158820D02*
D03*
Y-153820D02*
D03*
Y-148820D02*
D03*
Y-143820D02*
D03*
X69900Y-213600D02*
D03*
Y-208600D02*
D03*
Y-203600D02*
D03*
Y-198600D02*
D03*
Y-193600D02*
D03*
Y-188600D02*
D03*
Y-183600D02*
D03*
Y-178600D02*
D03*
Y-173600D02*
D03*
Y-168600D02*
D03*
Y-163600D02*
D03*
Y-158600D02*
D03*
Y-153600D02*
D03*
Y-148600D02*
D03*
Y-143600D02*
D03*
Y-138600D02*
D03*
Y-133600D02*
D03*
Y-128600D02*
D03*
Y-123600D02*
D03*
X138798D02*
D03*
Y-128600D02*
D03*
Y-133600D02*
D03*
Y-138600D02*
D03*
Y-143600D02*
D03*
Y-148600D02*
D03*
Y-153600D02*
D03*
Y-158600D02*
D03*
Y-163600D02*
D03*
Y-168600D02*
D03*
Y-173600D02*
D03*
Y-178600D02*
D03*
Y-183600D02*
D03*
Y-188600D02*
D03*
Y-193600D02*
D03*
Y-198600D02*
D03*
Y-203600D02*
D03*
Y-208600D02*
D03*
Y-213600D02*
D03*
D18*
X237022Y-174529D02*
D03*
Y-169017D02*
D03*
X242534D02*
D03*
X248046D02*
D03*
Y-174529D02*
D03*
Y-180041D02*
D03*
X242534D02*
D03*
X237022D02*
D03*
X242534Y-174529D02*
D03*
X115766Y-182891D02*
D03*
Y-188403D02*
D03*
X110254D02*
D03*
X104743D02*
D03*
Y-182891D02*
D03*
Y-177380D02*
D03*
X110254D02*
D03*
X115766D02*
D03*
X110254Y-182891D02*
D03*
D19*
X243231Y-266082D02*
D03*
Y-261161D02*
D03*
Y-256239D02*
D03*
Y-251318D02*
D03*
X234569D02*
D03*
Y-256239D02*
D03*
Y-261161D02*
D03*
Y-266082D02*
D03*
D20*
X35800Y-315700D02*
D03*
Y-307400D02*
D03*
D21*
Y-286243D02*
D03*
Y-279157D02*
D03*
D22*
X34600Y-331753D02*
D03*
Y-338446D02*
D03*
D23*
X287153Y-262323D02*
D03*
X285184D02*
D03*
X283216D02*
D03*
X281247D02*
D03*
Y-271477D02*
D03*
X283216D02*
D03*
X285184D02*
D03*
X287153D02*
D03*
D24*
X280608Y-264932D02*
D03*
Y-266900D02*
D03*
Y-268868D02*
D03*
X287792D02*
D03*
Y-266900D02*
D03*
Y-264932D02*
D03*
D25*
X128473Y-289500D02*
D03*
Y-284500D02*
D03*
Y-279500D02*
D03*
Y-274500D02*
D03*
X100127D02*
D03*
Y-279500D02*
D03*
Y-284500D02*
D03*
Y-289500D02*
D03*
D26*
X58300Y-308995D02*
D03*
Y-314900D02*
D03*
Y-294449D02*
D03*
Y-288543D02*
D03*
D27*
X223100Y-262615D02*
D03*
Y-251985D02*
D03*
X147500Y-285100D02*
D03*
Y-274470D02*
D03*
D28*
X288615Y-289000D02*
D03*
X277985D02*
D03*
X286600Y-253100D02*
D03*
X275970D02*
D03*
M02*
