G04*
G04 #@! TF.GenerationSoftware,Altium Limited,Altium Designer,22.2.1 (43)*
G04*
G04 Layer_Color=255*
%FSLAX25Y25*%
%MOIN*%
G70*
G04*
G04 #@! TF.SameCoordinates,BF82E168-2CF8-4A2D-AB3A-859FEF8C30B5*
G04*
G04*
G04 #@! TF.FilePolarity,Positive*
G04*
G01*
G75*
%ADD18R,0.05906X0.03543*%
%ADD19R,0.03543X0.03543*%
%ADD20R,0.04331X0.02362*%
%ADD21R,0.04700X0.04700*%
%ADD22R,0.02756X0.03543*%
%ADD23R,0.05512X0.03937*%
%ADD24R,0.03937X0.04331*%
%ADD25R,0.00984X0.01870*%
%ADD26R,0.01870X0.00984*%
%ADD27R,0.06496X0.02559*%
%ADD28R,0.03543X0.02756*%
%ADD29R,0.06693X0.04331*%
%ADD30R,0.04331X0.06693*%
%ADD58C,0.05906*%
%ADD59R,0.05906X0.05906*%
%ADD60R,0.05906X0.05906*%
%ADD61C,0.02500*%
%ADD62C,0.06024*%
%ADD63R,0.06024X0.06024*%
%ADD64C,0.05610*%
%ADD65R,0.05610X0.05610*%
%ADD66C,0.06000*%
%ADD67R,0.06024X0.06024*%
D18*
X283288Y-197020D02*
D03*
Y-132020D02*
D03*
Y-137020D02*
D03*
Y-142020D02*
D03*
Y-147020D02*
D03*
Y-152020D02*
D03*
Y-157020D02*
D03*
Y-162020D02*
D03*
Y-167020D02*
D03*
Y-172020D02*
D03*
Y-177020D02*
D03*
Y-182020D02*
D03*
Y-187020D02*
D03*
Y-192020D02*
D03*
Y-202020D02*
D03*
Y-207020D02*
D03*
Y-212020D02*
D03*
Y-217020D02*
D03*
Y-222020D02*
D03*
X214390D02*
D03*
Y-217020D02*
D03*
Y-212020D02*
D03*
Y-207020D02*
D03*
Y-202020D02*
D03*
Y-197020D02*
D03*
Y-192020D02*
D03*
Y-187020D02*
D03*
Y-182020D02*
D03*
Y-177020D02*
D03*
Y-172020D02*
D03*
Y-167020D02*
D03*
Y-162020D02*
D03*
Y-157020D02*
D03*
Y-152020D02*
D03*
Y-147020D02*
D03*
Y-142020D02*
D03*
Y-137020D02*
D03*
Y-132020D02*
D03*
X70300Y-201800D02*
D03*
Y-196800D02*
D03*
Y-191800D02*
D03*
Y-186800D02*
D03*
Y-181800D02*
D03*
Y-176800D02*
D03*
Y-171800D02*
D03*
Y-166800D02*
D03*
Y-161800D02*
D03*
Y-156800D02*
D03*
Y-151800D02*
D03*
Y-146800D02*
D03*
Y-141800D02*
D03*
Y-136800D02*
D03*
Y-131800D02*
D03*
Y-126800D02*
D03*
Y-121800D02*
D03*
Y-116800D02*
D03*
Y-111800D02*
D03*
X139198D02*
D03*
Y-116800D02*
D03*
Y-121800D02*
D03*
Y-126800D02*
D03*
Y-131800D02*
D03*
Y-136800D02*
D03*
Y-141800D02*
D03*
Y-146800D02*
D03*
Y-151800D02*
D03*
Y-156800D02*
D03*
Y-161800D02*
D03*
Y-166800D02*
D03*
Y-171800D02*
D03*
Y-176800D02*
D03*
Y-181800D02*
D03*
Y-186800D02*
D03*
Y-191800D02*
D03*
Y-196800D02*
D03*
Y-201800D02*
D03*
D19*
X237422Y-162729D02*
D03*
Y-157217D02*
D03*
X242934D02*
D03*
X248446D02*
D03*
Y-162729D02*
D03*
Y-168241D02*
D03*
X242934D02*
D03*
X237422D02*
D03*
X242934Y-162729D02*
D03*
X116166Y-171091D02*
D03*
Y-176603D02*
D03*
X110654D02*
D03*
X105142D02*
D03*
Y-171091D02*
D03*
Y-165579D02*
D03*
X110654D02*
D03*
X116166D02*
D03*
X110654Y-171091D02*
D03*
D20*
X243631Y-254282D02*
D03*
Y-249361D02*
D03*
Y-244439D02*
D03*
Y-239518D02*
D03*
X234969D02*
D03*
Y-244439D02*
D03*
Y-249361D02*
D03*
Y-254282D02*
D03*
D21*
X36200Y-303900D02*
D03*
Y-295600D02*
D03*
D22*
X300095Y-219800D02*
D03*
X306000D02*
D03*
X300047Y-226500D02*
D03*
X305953D02*
D03*
X304653Y-274300D02*
D03*
X298747D02*
D03*
X41347Y-325746D02*
D03*
X47253D02*
D03*
D23*
X36200Y-274443D02*
D03*
Y-267357D02*
D03*
D24*
X35000Y-319953D02*
D03*
Y-326646D02*
D03*
D25*
X287553Y-250523D02*
D03*
X285584D02*
D03*
X283616D02*
D03*
X281647D02*
D03*
Y-259677D02*
D03*
X283616D02*
D03*
X285584D02*
D03*
X287553D02*
D03*
D26*
X281008Y-253132D02*
D03*
Y-255100D02*
D03*
Y-257068D02*
D03*
X288193D02*
D03*
Y-255100D02*
D03*
Y-253132D02*
D03*
D27*
X128873Y-277700D02*
D03*
Y-272700D02*
D03*
Y-267700D02*
D03*
Y-262700D02*
D03*
X100527D02*
D03*
Y-267700D02*
D03*
Y-272700D02*
D03*
Y-277700D02*
D03*
D28*
X58700Y-297195D02*
D03*
Y-303100D02*
D03*
Y-282649D02*
D03*
Y-276743D02*
D03*
X74400Y-59450D02*
D03*
Y-65355D02*
D03*
X81800Y-70695D02*
D03*
Y-76600D02*
D03*
X73200Y-34694D02*
D03*
Y-40600D02*
D03*
X82300Y-34694D02*
D03*
Y-40600D02*
D03*
D29*
X223500Y-250815D02*
D03*
Y-240185D02*
D03*
X147900Y-273300D02*
D03*
Y-262670D02*
D03*
D30*
X289015Y-277200D02*
D03*
X278385D02*
D03*
X287000Y-241300D02*
D03*
X276370D02*
D03*
D58*
X287200Y-93500D02*
D03*
Y-83500D02*
D03*
Y-73500D02*
D03*
Y-63500D02*
D03*
Y-53500D02*
D03*
Y-43500D02*
D03*
Y-33500D02*
D03*
X332500Y-252770D02*
D03*
Y-262770D02*
D03*
Y-272770D02*
D03*
Y-282770D02*
D03*
Y-302770D02*
D03*
Y-292770D02*
D03*
X163400Y-56100D02*
D03*
X153400D02*
D03*
X143400D02*
D03*
X133400D02*
D03*
X199300Y-174500D02*
D03*
Y-184500D02*
D03*
Y-194500D02*
D03*
Y-204500D02*
D03*
Y-214500D02*
D03*
X92900Y-39148D02*
D03*
X122900D02*
D03*
X92900Y-19148D02*
D03*
X122900D02*
D03*
X329300Y-72700D02*
D03*
Y-62700D02*
D03*
Y-52700D02*
D03*
Y-42700D02*
D03*
Y-32700D02*
D03*
Y-22700D02*
D03*
Y-12700D02*
D03*
Y-82700D02*
D03*
X196400Y-83500D02*
D03*
Y-73500D02*
D03*
Y-63500D02*
D03*
Y-53500D02*
D03*
Y-43500D02*
D03*
Y-33500D02*
D03*
Y-23500D02*
D03*
X23500Y-272200D02*
D03*
Y-282200D02*
D03*
Y-292200D02*
D03*
Y-302200D02*
D03*
Y-312200D02*
D03*
Y-322200D02*
D03*
Y-332200D02*
D03*
X263300Y-252770D02*
D03*
Y-262770D02*
D03*
Y-272770D02*
D03*
Y-282770D02*
D03*
Y-302770D02*
D03*
Y-292770D02*
D03*
X100800Y-325800D02*
D03*
X90800D02*
D03*
X80800D02*
D03*
X70800D02*
D03*
X60800D02*
D03*
X121600Y-241700D02*
D03*
X111600D02*
D03*
X101600D02*
D03*
X91600D02*
D03*
X81600D02*
D03*
X195100Y-292700D02*
D03*
Y-302700D02*
D03*
Y-312700D02*
D03*
Y-322700D02*
D03*
Y-332700D02*
D03*
X180600Y-241200D02*
D03*
X170600D02*
D03*
X160600D02*
D03*
X203100Y-269000D02*
D03*
X32698Y-36858D02*
D03*
X62698D02*
D03*
X32698Y-16858D02*
D03*
X62698D02*
D03*
X122500Y-60700D02*
D03*
X92500D02*
D03*
X122500Y-80700D02*
D03*
X92500D02*
D03*
X32600Y-78410D02*
D03*
X62600D02*
D03*
X32600Y-58410D02*
D03*
X62600D02*
D03*
D59*
X287200Y-23500D02*
D03*
X332500Y-312770D02*
D03*
X199300Y-224500D02*
D03*
X329300Y-92700D02*
D03*
X196400Y-93500D02*
D03*
X23500Y-262200D02*
D03*
X263300Y-312770D02*
D03*
X195100Y-282700D02*
D03*
D60*
X173400Y-56100D02*
D03*
X110800Y-325800D02*
D03*
X131600Y-241700D02*
D03*
X150600Y-241200D02*
D03*
X213100Y-269000D02*
D03*
D61*
X334911Y-139316D02*
D03*
X299478D02*
D03*
X336316Y-204478D02*
D03*
Y-239911D02*
D03*
D62*
X323100Y-131600D02*
D03*
X328600Y-216289D02*
D03*
D63*
X311289Y-131600D02*
D03*
D64*
X151500Y-180467D02*
D03*
Y-170467D02*
D03*
Y-160467D02*
D03*
Y-150467D02*
D03*
Y-140467D02*
D03*
Y-130467D02*
D03*
D65*
Y-120467D02*
D03*
D66*
X38100Y-223000D02*
D03*
X160000Y-320000D02*
D03*
Y-23700D02*
D03*
X319900Y-171800D02*
D03*
X38100Y-127400D02*
D03*
D67*
X328600Y-228100D02*
D03*
M02*
