G04*
G04 #@! TF.GenerationSoftware,Altium Limited,Altium Designer,22.2.1 (43)*
G04*
G04 Layer_Physical_Order=3*
G04 Layer_Color=16440176*
%FSLAX25Y25*%
%MOIN*%
G70*
G04*
G04 #@! TF.SameCoordinates,91E75CD4-E1FE-4043-AE3D-700B569F0639*
G04*
G04*
G04 #@! TF.FilePolarity,Positive*
G04*
G01*
G75*
%ADD12C,0.01000*%
%ADD52C,0.01900*%
%ADD55C,0.05906*%
%ADD56R,0.05906X0.05906*%
%ADD57R,0.05906X0.05906*%
%ADD58C,0.02500*%
%ADD59C,0.06024*%
%ADD60R,0.06024X0.06024*%
%ADD61C,0.05610*%
%ADD62R,0.05610X0.05610*%
%ADD63C,0.06000*%
%ADD64R,0.06024X0.06024*%
%ADD65C,0.03000*%
D12*
X81600Y-98300D02*
X121100D01*
X132100Y-109300D01*
Y-169377D02*
Y-109300D01*
X131700Y-169777D02*
X132100Y-169377D01*
X131700Y-198700D02*
Y-169777D01*
X161000Y-177100D02*
X165400Y-181500D01*
X107600Y-330300D02*
X165400Y-272500D01*
Y-181500D01*
X85488Y-180753D02*
Y-180211D01*
Y-180753D02*
X86283Y-181547D01*
X78350Y-170700D02*
X82677D01*
X43100Y-330300D02*
X107600D01*
X51756Y-273500D02*
X64400Y-260856D01*
X47200Y-273500D02*
X51756D01*
X86283Y-181660D02*
Y-181547D01*
Y-181660D02*
X105253Y-200630D01*
X83100Y-205500D02*
X85063Y-203537D01*
Y-201383D02*
X85446Y-201000D01*
X98200Y-250768D02*
Y-201000D01*
X85063Y-203537D02*
Y-201383D01*
X105253Y-285753D02*
Y-200630D01*
X82677Y-170700D02*
X106900Y-194923D01*
Y-278959D02*
Y-194923D01*
Y-278959D02*
X116800Y-288859D01*
X105253Y-285753D02*
X109000Y-289500D01*
X97100Y-251869D02*
X98200Y-250768D01*
X89500Y-278059D02*
X95500Y-272059D01*
X77000Y-175400D02*
X95500Y-193900D01*
Y-272059D02*
Y-193900D01*
X83100Y-243000D02*
Y-205500D01*
X77200Y-218421D02*
X77700Y-217921D01*
Y-200200D01*
X77200Y-235600D02*
Y-218421D01*
Y-235600D02*
X78117Y-236517D01*
X69400Y-254437D02*
Y-170800D01*
X64400Y-259437D02*
X69400Y-254437D01*
Y-170800D02*
X75100Y-165100D01*
X88000Y-216100D02*
Y-210800D01*
X80500Y-234800D02*
Y-198800D01*
X77900Y-196200D02*
X80500Y-198800D01*
X77000Y-175400D02*
Y-175300D01*
X23467Y-310133D02*
X39960Y-293640D01*
X79160D01*
X97100Y-275700D01*
Y-251869D01*
X89500Y-278500D02*
Y-278059D01*
X23100Y-314000D02*
X23467Y-313633D01*
Y-310133D01*
X23100Y-304000D02*
X23908Y-303192D01*
X26589D01*
X67600Y-262181D01*
Y-260900D02*
X85100Y-243400D01*
X66000Y-260237D02*
Y-260100D01*
X85100Y-243400D02*
Y-225600D01*
X66000Y-260100D02*
X83100Y-243000D01*
X33518Y-294000D02*
X66000Y-261518D01*
X67600Y-262181D02*
Y-260900D01*
X66000Y-261518D02*
Y-260237D01*
X23100Y-294000D02*
X33518D01*
X64400Y-260856D02*
Y-259575D01*
Y-259437D01*
X79189Y-239789D02*
Y-239789D01*
X78117Y-238717D02*
X79189Y-239789D01*
X78117Y-238717D02*
Y-236517D01*
X88000Y-216100D02*
X89600Y-217700D01*
Y-221100D02*
Y-217700D01*
X85100Y-225600D02*
X89600Y-221100D01*
X116800Y-289400D02*
Y-288859D01*
D52*
X123468Y-67500D02*
X128371Y-72403D01*
X6800Y-67500D02*
X123468D01*
X128371Y-72403D02*
X138497D01*
X143000Y-67900D01*
D55*
X76900Y-73400D02*
D03*
X46900D02*
D03*
X76900Y-93400D02*
D03*
X46900D02*
D03*
X76900Y-30948D02*
D03*
X46900D02*
D03*
X76900Y-50948D02*
D03*
X46900D02*
D03*
X286800Y-105300D02*
D03*
Y-95300D02*
D03*
Y-85300D02*
D03*
Y-75300D02*
D03*
Y-65300D02*
D03*
Y-55300D02*
D03*
Y-45300D02*
D03*
X332100Y-264570D02*
D03*
Y-274570D02*
D03*
Y-284570D02*
D03*
Y-294570D02*
D03*
Y-314570D02*
D03*
Y-304570D02*
D03*
X163000Y-67900D02*
D03*
X153000D02*
D03*
X143000D02*
D03*
X133000D02*
D03*
X92500Y-50948D02*
D03*
X122500D02*
D03*
X92500Y-30948D02*
D03*
X122500D02*
D03*
X328900Y-84500D02*
D03*
Y-74500D02*
D03*
Y-64500D02*
D03*
Y-54500D02*
D03*
Y-44500D02*
D03*
Y-34500D02*
D03*
Y-24500D02*
D03*
Y-94500D02*
D03*
X196000Y-95300D02*
D03*
Y-85300D02*
D03*
Y-75300D02*
D03*
Y-65300D02*
D03*
Y-55300D02*
D03*
Y-45300D02*
D03*
Y-35300D02*
D03*
X23100Y-284000D02*
D03*
Y-294000D02*
D03*
Y-304000D02*
D03*
Y-314000D02*
D03*
Y-324000D02*
D03*
Y-334000D02*
D03*
Y-344000D02*
D03*
X262900Y-264570D02*
D03*
Y-274570D02*
D03*
Y-284570D02*
D03*
Y-294570D02*
D03*
Y-314570D02*
D03*
Y-304570D02*
D03*
X100400Y-337600D02*
D03*
X90400D02*
D03*
X80400D02*
D03*
X70400D02*
D03*
X60400D02*
D03*
X121200Y-253500D02*
D03*
X111200D02*
D03*
X101200D02*
D03*
X91200D02*
D03*
X81200D02*
D03*
X194700Y-304500D02*
D03*
Y-314500D02*
D03*
Y-324500D02*
D03*
Y-334500D02*
D03*
Y-344500D02*
D03*
X180200Y-253000D02*
D03*
X170200D02*
D03*
X160200D02*
D03*
X202700Y-280800D02*
D03*
X122100Y-72500D02*
D03*
X92100D02*
D03*
X122100Y-92500D02*
D03*
X92100D02*
D03*
D56*
X286800Y-35300D02*
D03*
X332100Y-324570D02*
D03*
X328900Y-104500D02*
D03*
X196000Y-105300D02*
D03*
X23100Y-274000D02*
D03*
X262900Y-324570D02*
D03*
X194700Y-294500D02*
D03*
D57*
X173000Y-67900D02*
D03*
X110400Y-337600D02*
D03*
X131200Y-253500D02*
D03*
X150200Y-253000D02*
D03*
X212700Y-280800D02*
D03*
D58*
X334511Y-151117D02*
D03*
X299078D02*
D03*
X335916Y-216278D02*
D03*
Y-251711D02*
D03*
D59*
X322700Y-143400D02*
D03*
X328200Y-228089D02*
D03*
D60*
X310889Y-143400D02*
D03*
D61*
X151100Y-192267D02*
D03*
Y-182267D02*
D03*
Y-172267D02*
D03*
Y-162267D02*
D03*
Y-152267D02*
D03*
Y-142267D02*
D03*
D62*
Y-132267D02*
D03*
D63*
X37700Y-234800D02*
D03*
X159600Y-331800D02*
D03*
Y-35500D02*
D03*
X319500Y-183600D02*
D03*
X37700Y-139200D02*
D03*
D64*
X328200Y-239900D02*
D03*
D65*
X6800Y-67500D02*
D03*
X2600Y-106600D02*
D03*
X7100Y-100400D02*
D03*
X29000Y-105200D02*
D03*
X4200Y-28200D02*
D03*
X199500Y-135800D02*
D03*
X153300Y-107900D02*
D03*
X81600Y-98300D02*
D03*
X82700Y-23200D02*
D03*
X182440Y-180640D02*
D03*
X166300Y-147700D02*
D03*
X197400Y-188200D02*
D03*
X207600Y-211800D02*
D03*
X202500Y-58500D02*
D03*
X111400Y-204300D02*
D03*
X131700Y-198700D02*
D03*
X129500Y-168300D02*
D03*
X125200Y-194300D02*
D03*
X126800Y-224050D02*
D03*
X199900Y-174300D02*
D03*
X161000Y-177100D02*
D03*
X207809Y-206098D02*
D03*
X273843Y-152743D02*
D03*
X207850Y-191600D02*
D03*
X207000Y-217500D02*
D03*
X214403Y-92300D02*
D03*
X216000Y-267600D02*
D03*
X226900Y-197762D02*
D03*
X229859Y-193626D02*
D03*
X216750Y-276057D02*
D03*
X219800Y-153600D02*
D03*
X216192Y-138206D02*
D03*
X262407Y-173807D02*
D03*
X205600Y-76800D02*
D03*
X271172Y-168707D02*
D03*
X292412Y-254712D02*
D03*
X294100Y-223700D02*
D03*
X292657Y-241366D02*
D03*
X85488Y-180211D02*
D03*
X78350Y-170700D02*
D03*
X285800Y-242200D02*
D03*
X273100Y-179000D02*
D03*
X232900Y-191700D02*
D03*
X43100Y-330300D02*
D03*
X241700Y-270300D02*
D03*
X287900Y-184100D02*
D03*
X165900Y-77400D02*
D03*
X286500Y-279100D02*
D03*
X267800Y-218900D02*
D03*
X127600Y-144000D02*
D03*
X98200Y-201000D02*
D03*
X85446D02*
D03*
X77700Y-200200D02*
D03*
X225000Y-184600D02*
D03*
X212300Y-247900D02*
D03*
X157300Y-285800D02*
D03*
X209200Y-295300D02*
D03*
X73800Y-218600D02*
D03*
X101500Y-193200D02*
D03*
X88000Y-210800D02*
D03*
X80500Y-234800D02*
D03*
X227900Y-137900D02*
D03*
X324900Y-266500D02*
D03*
X275200Y-169100D02*
D03*
X271800Y-37600D02*
D03*
X207700Y-38000D02*
D03*
X77900Y-188200D02*
D03*
Y-196200D02*
D03*
X100200Y-303000D02*
D03*
X47000Y-324900D02*
D03*
X86600Y-346800D02*
D03*
X41600Y-300300D02*
D03*
X255000Y-208600D02*
D03*
X176500Y-281800D02*
D03*
X181100Y-285200D02*
D03*
X89500Y-278500D02*
D03*
X129500Y-157600D02*
D03*
X184600Y-287500D02*
D03*
X79189Y-239789D02*
D03*
X75600Y-150200D02*
D03*
X75100Y-165100D02*
D03*
X210800Y-66300D02*
D03*
X77000Y-175300D02*
D03*
X288800Y-149300D02*
D03*
X47200Y-273500D02*
D03*
X116800Y-289400D02*
D03*
X109000Y-289500D02*
D03*
M02*
