G04*
G04 #@! TF.GenerationSoftware,Altium Limited,Altium Designer,22.2.1 (43)*
G04*
G04 Layer_Color=8388736*
%FSLAX25Y25*%
%MOIN*%
G70*
G04*
G04 #@! TF.SameCoordinates,BF82E168-2CF8-4A2D-AB3A-859FEF8C30B5*
G04*
G04*
G04 #@! TF.FilePolarity,Negative*
G04*
G01*
G75*
%ADD21R,0.04700X0.04700*%
%ADD31R,0.06706X0.04343*%
%ADD32R,0.04343X0.04343*%
%ADD33R,0.05131X0.03162*%
%ADD34R,0.03556X0.04343*%
%ADD35R,0.06312X0.04737*%
%ADD36R,0.04737X0.05131*%
%ADD37R,0.01784X0.02670*%
%ADD38R,0.02670X0.01784*%
%ADD39R,0.07296X0.03359*%
%ADD40R,0.04343X0.03556*%
%ADD41R,0.07493X0.05131*%
%ADD42R,0.05131X0.07493*%
%ADD43C,0.06706*%
%ADD44R,0.06706X0.06706*%
%ADD45R,0.06706X0.06706*%
%ADD46C,0.03300*%
%ADD47C,0.06824*%
%ADD48R,0.06824X0.06824*%
%ADD49C,0.06410*%
%ADD50R,0.06410X0.06410*%
%ADD51C,0.06800*%
%ADD52R,0.06824X0.06824*%
%ADD53C,0.03800*%
D21*
X36200Y-303900D02*
D03*
Y-295600D02*
D03*
D31*
X283288Y-197020D02*
D03*
Y-132020D02*
D03*
Y-137020D02*
D03*
Y-142020D02*
D03*
Y-147020D02*
D03*
Y-152020D02*
D03*
Y-157020D02*
D03*
Y-162020D02*
D03*
Y-167020D02*
D03*
Y-172020D02*
D03*
Y-177020D02*
D03*
Y-182020D02*
D03*
Y-187020D02*
D03*
Y-192020D02*
D03*
Y-202020D02*
D03*
Y-207020D02*
D03*
Y-212020D02*
D03*
Y-217020D02*
D03*
Y-222020D02*
D03*
X214390D02*
D03*
Y-217020D02*
D03*
Y-212020D02*
D03*
Y-207020D02*
D03*
Y-202020D02*
D03*
Y-197020D02*
D03*
Y-192020D02*
D03*
Y-187020D02*
D03*
Y-182020D02*
D03*
Y-177020D02*
D03*
Y-172020D02*
D03*
Y-167020D02*
D03*
Y-162020D02*
D03*
Y-157020D02*
D03*
Y-152020D02*
D03*
Y-147020D02*
D03*
Y-142020D02*
D03*
Y-137020D02*
D03*
Y-132020D02*
D03*
X70300Y-201800D02*
D03*
Y-196800D02*
D03*
Y-191800D02*
D03*
Y-186800D02*
D03*
Y-181800D02*
D03*
Y-176800D02*
D03*
Y-171800D02*
D03*
Y-166800D02*
D03*
Y-161800D02*
D03*
Y-156800D02*
D03*
Y-151800D02*
D03*
Y-146800D02*
D03*
Y-141800D02*
D03*
Y-136800D02*
D03*
Y-131800D02*
D03*
Y-126800D02*
D03*
Y-121800D02*
D03*
Y-116800D02*
D03*
Y-111800D02*
D03*
X139198D02*
D03*
Y-116800D02*
D03*
Y-121800D02*
D03*
Y-126800D02*
D03*
Y-131800D02*
D03*
Y-136800D02*
D03*
Y-141800D02*
D03*
Y-146800D02*
D03*
Y-151800D02*
D03*
Y-156800D02*
D03*
Y-161800D02*
D03*
Y-166800D02*
D03*
Y-171800D02*
D03*
Y-176800D02*
D03*
Y-181800D02*
D03*
Y-186800D02*
D03*
Y-191800D02*
D03*
Y-196800D02*
D03*
Y-201800D02*
D03*
D32*
X237422Y-162729D02*
D03*
Y-157217D02*
D03*
X242934D02*
D03*
X248446D02*
D03*
Y-162729D02*
D03*
Y-168241D02*
D03*
X242934D02*
D03*
X237422D02*
D03*
X242934Y-162729D02*
D03*
X116166Y-171091D02*
D03*
Y-176603D02*
D03*
X110654D02*
D03*
X105142D02*
D03*
Y-171091D02*
D03*
Y-165579D02*
D03*
X110654D02*
D03*
X116166D02*
D03*
X110654Y-171091D02*
D03*
D33*
X243631Y-254282D02*
D03*
Y-249361D02*
D03*
Y-244439D02*
D03*
Y-239518D02*
D03*
X234969D02*
D03*
Y-244439D02*
D03*
Y-249361D02*
D03*
Y-254282D02*
D03*
D34*
X300095Y-219800D02*
D03*
X306000D02*
D03*
X300047Y-226500D02*
D03*
X305953D02*
D03*
X304653Y-274300D02*
D03*
X298747D02*
D03*
X41347Y-325746D02*
D03*
X47253D02*
D03*
D35*
X36200Y-274443D02*
D03*
Y-267357D02*
D03*
D36*
X35000Y-319953D02*
D03*
Y-326646D02*
D03*
D37*
X287553Y-250523D02*
D03*
X285584D02*
D03*
X283616D02*
D03*
X281647D02*
D03*
Y-259677D02*
D03*
X283616D02*
D03*
X285584D02*
D03*
X287553D02*
D03*
D38*
X281008Y-253132D02*
D03*
Y-255100D02*
D03*
Y-257068D02*
D03*
X288193D02*
D03*
Y-255100D02*
D03*
Y-253132D02*
D03*
D39*
X128873Y-277700D02*
D03*
Y-272700D02*
D03*
Y-267700D02*
D03*
Y-262700D02*
D03*
X100527D02*
D03*
Y-267700D02*
D03*
Y-272700D02*
D03*
Y-277700D02*
D03*
D40*
X58700Y-297195D02*
D03*
Y-303100D02*
D03*
Y-282649D02*
D03*
Y-276743D02*
D03*
X74400Y-59450D02*
D03*
Y-65355D02*
D03*
X81800Y-70695D02*
D03*
Y-76600D02*
D03*
X73200Y-34694D02*
D03*
Y-40600D02*
D03*
X82300Y-34694D02*
D03*
Y-40600D02*
D03*
D41*
X223500Y-250815D02*
D03*
Y-240185D02*
D03*
X147900Y-273300D02*
D03*
Y-262670D02*
D03*
D42*
X289015Y-277200D02*
D03*
X278385D02*
D03*
X287000Y-241300D02*
D03*
X276370D02*
D03*
D43*
X287200Y-93500D02*
D03*
Y-83500D02*
D03*
Y-73500D02*
D03*
Y-63500D02*
D03*
Y-53500D02*
D03*
Y-43500D02*
D03*
Y-33500D02*
D03*
X332500Y-252770D02*
D03*
Y-262770D02*
D03*
Y-272770D02*
D03*
Y-282770D02*
D03*
Y-302770D02*
D03*
Y-292770D02*
D03*
X163400Y-56100D02*
D03*
X153400D02*
D03*
X143400D02*
D03*
X133400D02*
D03*
X199300Y-174500D02*
D03*
Y-184500D02*
D03*
Y-194500D02*
D03*
Y-204500D02*
D03*
Y-214500D02*
D03*
X92900Y-39148D02*
D03*
X122900D02*
D03*
X92900Y-19148D02*
D03*
X122900D02*
D03*
X329300Y-72700D02*
D03*
Y-62700D02*
D03*
Y-52700D02*
D03*
Y-42700D02*
D03*
Y-32700D02*
D03*
Y-22700D02*
D03*
Y-12700D02*
D03*
Y-82700D02*
D03*
X196400Y-83500D02*
D03*
Y-73500D02*
D03*
Y-63500D02*
D03*
Y-53500D02*
D03*
Y-43500D02*
D03*
Y-33500D02*
D03*
Y-23500D02*
D03*
X23500Y-272200D02*
D03*
Y-282200D02*
D03*
Y-292200D02*
D03*
Y-302200D02*
D03*
Y-312200D02*
D03*
Y-322200D02*
D03*
Y-332200D02*
D03*
X263300Y-252770D02*
D03*
Y-262770D02*
D03*
Y-272770D02*
D03*
Y-282770D02*
D03*
Y-302770D02*
D03*
Y-292770D02*
D03*
X100800Y-325800D02*
D03*
X90800D02*
D03*
X80800D02*
D03*
X70800D02*
D03*
X60800D02*
D03*
X121600Y-241700D02*
D03*
X111600D02*
D03*
X101600D02*
D03*
X91600D02*
D03*
X81600D02*
D03*
X195100Y-292700D02*
D03*
Y-302700D02*
D03*
Y-312700D02*
D03*
Y-322700D02*
D03*
Y-332700D02*
D03*
X180600Y-241200D02*
D03*
X170600D02*
D03*
X160600D02*
D03*
X203100Y-269000D02*
D03*
X32698Y-36858D02*
D03*
X62698D02*
D03*
X32698Y-16858D02*
D03*
X62698D02*
D03*
X122500Y-60700D02*
D03*
X92500D02*
D03*
X122500Y-80700D02*
D03*
X92500D02*
D03*
X32600Y-78410D02*
D03*
X62600D02*
D03*
X32600Y-58410D02*
D03*
X62600D02*
D03*
D44*
X287200Y-23500D02*
D03*
X332500Y-312770D02*
D03*
X199300Y-224500D02*
D03*
X329300Y-92700D02*
D03*
X196400Y-93500D02*
D03*
X23500Y-262200D02*
D03*
X263300Y-312770D02*
D03*
X195100Y-282700D02*
D03*
D45*
X173400Y-56100D02*
D03*
X110800Y-325800D02*
D03*
X131600Y-241700D02*
D03*
X150600Y-241200D02*
D03*
X213100Y-269000D02*
D03*
D46*
X334911Y-139316D02*
D03*
X299478D02*
D03*
X336316Y-204478D02*
D03*
Y-239911D02*
D03*
D47*
X323100Y-131600D02*
D03*
X328600Y-216289D02*
D03*
D48*
X311289Y-131600D02*
D03*
D49*
X151500Y-180467D02*
D03*
Y-170467D02*
D03*
Y-160467D02*
D03*
Y-150467D02*
D03*
Y-140467D02*
D03*
Y-130467D02*
D03*
D50*
Y-120467D02*
D03*
D51*
X38100Y-223000D02*
D03*
X160000Y-320000D02*
D03*
Y-23700D02*
D03*
X319900Y-171800D02*
D03*
X38100Y-127400D02*
D03*
D52*
X328600Y-228100D02*
D03*
D53*
X216400Y-255800D02*
D03*
X217150Y-264257D02*
D03*
X216592Y-126406D02*
D03*
X199250Y-128200D02*
D03*
X292812Y-242912D02*
D03*
X293057Y-229566D02*
D03*
X286200Y-230400D02*
D03*
X274243Y-140943D02*
D03*
X172618Y-122018D02*
D03*
X10650Y-31960D02*
D03*
X125600Y-182500D02*
D03*
X168300Y-88100D02*
D03*
X168500Y-92800D02*
D03*
X153700Y-96100D02*
D03*
X166300Y-65600D02*
D03*
X77300Y-31400D02*
D03*
X286900Y-267300D02*
D03*
X6000Y-79300D02*
D03*
X189600Y-180800D02*
D03*
X128000Y-132200D02*
D03*
X98600Y-189200D02*
D03*
X85846D02*
D03*
X111300Y-194900D02*
D03*
X212700Y-236100D02*
D03*
X157700Y-274000D02*
D03*
X74200Y-206800D02*
D03*
X101900Y-181400D02*
D03*
X88400Y-199000D02*
D03*
X228300Y-126100D02*
D03*
X325300Y-254700D02*
D03*
X275600Y-157300D02*
D03*
X272200Y-25800D02*
D03*
X208100Y-26200D02*
D03*
X162000Y-137500D02*
D03*
X74700Y-45800D02*
D03*
X78300Y-176400D02*
D03*
X100600Y-291200D02*
D03*
X47400Y-313100D02*
D03*
X87000Y-335000D02*
D03*
X129900Y-156500D02*
D03*
Y-145800D02*
D03*
X88200Y-86900D02*
D03*
M02*
