M48
;Layer_Color=9474304
;FILE_FORMAT=2:5
INCH,TZ
;TYPE=PLATED
T1F00S00C0.02500
T2F00S00C0.03543
T3F00S00C0.03740
T4F00S00C0.03937
T5F00S00C0.04016
T6F00S00C0.20000
T7F00S00C0.51200
;TYPE=NON_PLATED
T8F00S00C0.05000
%
T01
X216750Y-276057
X216000Y-267600
X212300Y-247900
X241700Y-270300
X286500Y-279100
X292412Y-254712
X292657Y-241366
X285800Y-242200
X294100Y-223700
X267800Y-218900
X255000Y-208600
X324900Y-266500
X209200Y-295300
X184600Y-287500
X181100Y-285200
X176500Y-281800
X157300Y-285800
X116800Y-289400
X109000Y-289500
X100200Y-303000
X89500Y-278500
X79189Y-239789
X80500Y-234800
X73800Y-218600
X88000Y-210800
X85446Y-201000
X77700Y-200200
X98200Y-201000
X111400Y-204300
X126800Y-224050
X207000Y-217500
X207600Y-211800
X207809Y-206098
X86600Y-346800
X43100Y-330300
X47000Y-324900
X41600Y-300300
X47200Y-273500
X29000Y-105200
X7100Y-100400
X2600Y-106600
X6800Y-67500
X81600Y-98300
X75600Y-150200
X75100Y-165100
X78350Y-170700
X77000Y-175300
X85488Y-180211
X77900Y-188200
Y-196200
X101500Y-193200
X125200Y-194300
X131700Y-198700
X129500Y-168300
Y-157600
X127600Y-144000
X166300Y-147700
X161000Y-177100
X182440Y-180640
X197400Y-188200
X207850Y-191600
X199900Y-174300
X199500Y-135800
X205600Y-76800
X210800Y-66300
X202500Y-58500
X165900Y-77400
X153300Y-107900
X214403Y-92300
X216192Y-138206
X227900Y-137900
X219800Y-153600
X225000Y-184600
X229859Y-193626
X232900Y-191700
X226900Y-197762
X262407Y-173807
X271172Y-168707
X275200Y-169100
X273100Y-179000
X287900Y-184100
X288800Y-149300
X273843Y-152743
X271800Y-37600
X207700Y-38000
X82700Y-23200
X4200Y-28200
T02
X212700Y-280800
X262900Y-284570
Y-274570
Y-264570
Y-294570
Y-304570
Y-314570
Y-324570
X332100
Y-314570
Y-304570
Y-294570
Y-284570
Y-274570
Y-264570
X202700Y-280800
X194700Y-294500
Y-304500
Y-314500
Y-324500
Y-334500
Y-344500
X110400Y-337600
X100400
X90400
X80400
X70400
X60400
X81200Y-253500
X91200
X101200
X111200
X121200
X131200
X150200Y-253000
X160200
X170200
X180200
X23100Y-274000
Y-284000
Y-294000
Y-304000
Y-314000
Y-324000
Y-334000
Y-344000
X133000Y-67900
X143000
X153000
X163000
X173000
X196000Y-65300
Y-75300
Y-85300
Y-95300
Y-105300
Y-55300
Y-45300
X286800
Y-55300
Y-65300
Y-75300
Y-85300
Y-95300
Y-105300
X328900Y-104500
Y-94500
Y-84500
Y-74500
Y-64500
Y-54500
Y-44500
Y-34500
Y-24500
X286800Y-35300
X196000
T03
X151100Y-192267
Y-182267
Y-172267
Y-162267
Y-152267
Y-142267
Y-132267
T04
X46900Y-93400
Y-73400
Y-50948
X76900
X92500Y-50948
X92100Y-72500
X76900Y-73400
Y-93400
X92100Y-92500
X122100
Y-72500
X122500Y-50948
Y-30948
X92500
X76900Y-30948
X46900
T05
X328200Y-239900
Y-228089
X322700Y-143400
X310889
T06
X159600Y-331800
X37700Y-139200
X319500Y-183600
X159600Y-35500
T07
X37700Y-234800
T08
X335916Y-251711
Y-216278
X334511Y-151117
X299078
M30
