G04*
G04 #@! TF.GenerationSoftware,Altium Limited,Altium Designer,22.2.1 (43)*
G04*
G04 Layer_Physical_Order=2*
G04 Layer_Color=36540*
%FSLAX25Y25*%
%MOIN*%
G70*
G04*
G04 #@! TF.SameCoordinates,BF82E168-2CF8-4A2D-AB3A-859FEF8C30B5*
G04*
G04*
G04 #@! TF.FilePolarity,Positive*
G04*
G01*
G75*
%ADD55C,0.01900*%
%ADD56C,0.01500*%
%ADD58C,0.05906*%
%ADD68C,0.03000*%
D55*
X194400Y-236600D02*
X213600Y-255800D01*
X216400D01*
X215400Y-283500D02*
X220200Y-278700D01*
Y-141800D01*
X225930Y-310230D02*
X228600Y-312900D01*
X223430Y-174770D02*
X225400Y-172800D01*
X218976Y-287600D02*
X223430Y-283146D01*
X225930Y-248480D02*
X227300Y-247110D01*
X223430Y-283146D02*
Y-174770D01*
X225930Y-310230D02*
Y-248480D01*
X239236Y-281837D02*
X262366D01*
X234200Y-276800D02*
Y-181098D01*
Y-276800D02*
X239236Y-281837D01*
X227300Y-247110D02*
Y-185962D01*
X230259Y-182124D02*
X231100Y-182965D01*
Y-292800D02*
X239700Y-301400D01*
X231100Y-292800D02*
Y-182965D01*
X230259Y-182124D02*
Y-181826D01*
X194400Y-236600D02*
Y-209400D01*
X307500Y-263800D02*
Y-232100D01*
X294500Y-219100D02*
Y-211900D01*
Y-219100D02*
X307500Y-232100D01*
Y-263800D02*
X316470Y-272770D01*
X332500D01*
X304600Y-264870D02*
X332500Y-292770D01*
X304600Y-264870D02*
Y-233260D01*
X302100Y-270000D02*
Y-234296D01*
Y-270000D02*
X329700Y-297600D01*
X271500Y-244570D02*
Y-169498D01*
X273500Y-167498D01*
Y-167200D01*
X263300Y-252770D02*
X271500Y-244570D01*
X266785Y-205437D02*
Y-117800D01*
X229485Y-80500D02*
X266785Y-117800D01*
Y-205437D02*
X268200Y-206852D01*
X214803Y-80500D02*
X229485D01*
X268200Y-207100D02*
Y-206852D01*
X211200Y-54798D02*
Y-54500D01*
Y-54798D02*
X211753Y-55350D01*
Y-189803D02*
Y-55350D01*
X207393Y-194163D02*
X211753Y-189803D01*
X207800Y-179800D02*
Y-67098D01*
X206000Y-65298D02*
X207800Y-67098D01*
X206000Y-65298D02*
Y-65000D01*
X203803Y-202103D02*
Y-172635D01*
Y-202103D02*
X207400Y-205700D01*
X202300Y-171132D02*
Y-62523D01*
X205500Y-59323D01*
X202300Y-171132D02*
X203803Y-172635D01*
X233300Y-180198D02*
Y-179900D01*
Y-180198D02*
X234200Y-181098D01*
X262366Y-281837D02*
X263300Y-282770D01*
X334675Y-297600D02*
X336637Y-295638D01*
X329700Y-297600D02*
X334675D01*
X287750Y-173336D02*
Y-173148D01*
X286300Y-174786D02*
X287750Y-173336D01*
X288300Y-172598D02*
Y-172300D01*
X287750Y-173148D02*
X288300Y-172598D01*
X282400Y-218909D02*
Y-149100D01*
Y-218909D02*
X293057Y-229566D01*
X286300Y-218496D02*
Y-174786D01*
Y-218496D02*
X302100Y-234296D01*
X276700Y-224500D02*
X282389Y-230189D01*
X285989D02*
X286200Y-230400D01*
X282389Y-230189D02*
X285989D01*
X276700Y-224500D02*
Y-158698D01*
X275600Y-157598D02*
X276700Y-158698D01*
X275600Y-157598D02*
Y-157300D01*
X274243Y-140943D02*
X282400Y-149100D01*
X274243Y-140943D02*
X274243D01*
X194400Y-209400D02*
X199300Y-204500D01*
X209600Y-283500D02*
X215400D01*
X43441Y-287600D02*
X218976D01*
X42541Y-288500D02*
X43441Y-287600D01*
X42000Y-288500D02*
X42541D01*
X205500Y-59323D02*
Y-47400D01*
X288800Y-217460D02*
X304600Y-233260D01*
X288800Y-217460D02*
Y-180671D01*
X291800Y-177671D01*
X336637Y-295638D02*
X338087Y-294188D01*
Y-292138D02*
Y-290087D01*
X336635Y-288635D02*
X336637Y-288637D01*
X332500Y-284098D02*
X333784Y-285381D01*
Y-285784D02*
X336635Y-288635D01*
X336637Y-288637D02*
X338087Y-290087D01*
X332500Y-284098D02*
Y-282770D01*
X333784Y-285784D02*
Y-285381D01*
X336635Y-288635D02*
Y-288635D01*
X338087Y-294188D02*
Y-292138D01*
X291800Y-177671D02*
Y-140100D01*
X289200Y-137500D02*
X291800Y-140100D01*
X254670Y-301400D02*
X263300Y-292770D01*
X239700Y-301400D02*
X254670D01*
X254105Y-312900D02*
X263300Y-303705D01*
X228600Y-312900D02*
X254105D01*
X263300Y-303705D02*
Y-302770D01*
D56*
X191700Y-159600D02*
X193800Y-161700D01*
X191700Y-159600D02*
Y-121300D01*
X116200Y-45800D02*
X191700Y-121300D01*
X74700Y-45800D02*
X116200D01*
D58*
X332500Y-272770D02*
D03*
Y-282770D02*
D03*
Y-292770D02*
D03*
X199300Y-204500D02*
D03*
X263300Y-252770D02*
D03*
Y-282770D02*
D03*
Y-302770D02*
D03*
Y-292770D02*
D03*
D68*
X216400Y-255800D02*
D03*
X227300Y-185962D02*
D03*
X230259Y-181826D02*
D03*
X220200Y-141800D02*
D03*
X214803Y-80500D02*
D03*
X207393Y-194163D02*
D03*
X207800Y-179800D02*
D03*
X206000Y-65000D02*
D03*
X193800Y-161700D02*
D03*
X294500Y-211900D02*
D03*
X293057Y-229566D02*
D03*
X286200Y-230400D02*
D03*
X273500Y-167200D02*
D03*
X274243Y-140943D02*
D03*
X233300Y-179900D02*
D03*
X288300Y-172300D02*
D03*
X268200Y-207100D02*
D03*
X225400Y-172800D02*
D03*
X209600Y-283500D02*
D03*
X207400Y-205700D02*
D03*
X275600Y-157300D02*
D03*
X74700Y-45800D02*
D03*
X42000Y-288500D02*
D03*
X211200Y-54500D02*
D03*
X289200Y-137500D02*
D03*
X205500Y-47400D02*
D03*
M02*
