G04*
G04 #@! TF.GenerationSoftware,Altium Limited,Altium Designer,22.2.1 (43)*
G04*
G04 Layer_Color=65535*
%FSLAX25Y25*%
%MOIN*%
G70*
G04*
G04 #@! TF.SameCoordinates,91E75CD4-E1FE-4043-AE3D-700B569F0639*
G04*
G04*
G04 #@! TF.FilePolarity,Positive*
G04*
G01*
G75*
%ADD10C,0.01181*%
%ADD11C,0.00394*%
%ADD12C,0.01000*%
%ADD13C,0.00787*%
%ADD14C,0.00600*%
%ADD15C,0.00500*%
D10*
X81624Y-73951D02*
G03*
X81624Y-73164I0J394D01*
G01*
D02*
G03*
X81624Y-73951I0J-394D01*
G01*
X42176Y-51184D02*
G03*
X42176Y-50397I0J394D01*
G01*
D02*
G03*
X42176Y-51184I0J-394D01*
G01*
X87776Y-50397D02*
G03*
X87776Y-51184I0J-394D01*
G01*
D02*
G03*
X87776Y-50397I0J394D01*
G01*
X87376Y-92736D02*
G03*
X87376Y-91949I0J394D01*
G01*
D02*
G03*
X87376Y-92736I0J-394D01*
G01*
D11*
X209069Y-143860D02*
G03*
X208676Y-143860I-197J0D01*
G01*
D02*
G03*
X209069Y-143860I197J0D01*
G01*
X143719Y-213561D02*
G03*
X144113Y-213561I197J0D01*
G01*
D02*
G03*
X143719Y-213561I-197J0D01*
G01*
X78042Y-89306D02*
Y-77495D01*
X45758Y-89306D02*
Y-77495D01*
X78042Y-69621D02*
Y-67258D01*
X45758D02*
X78042D01*
X45758Y-69621D02*
Y-67258D01*
X78042Y-99542D02*
Y-97180D01*
X45758Y-99542D02*
X78042D01*
X45758D02*
Y-97180D01*
X78042Y-27168D02*
Y-24806D01*
X45758D02*
X78042D01*
X45758Y-27168D02*
Y-24806D01*
X78042Y-57090D02*
Y-54727D01*
X45758Y-57090D02*
X78042D01*
X45758D02*
Y-54727D01*
X78042Y-46853D02*
Y-35042D01*
X45758Y-46853D02*
Y-35042D01*
X91358Y-46853D02*
Y-35042D01*
X123642Y-46853D02*
Y-35042D01*
X91358Y-57090D02*
Y-54727D01*
Y-57090D02*
X123642D01*
Y-54727D01*
X91358Y-27168D02*
Y-24806D01*
X123642D01*
Y-27168D02*
Y-24806D01*
X123242Y-68721D02*
Y-66358D01*
X90958D02*
X123242D01*
X90958Y-68721D02*
Y-66358D01*
X123242Y-98642D02*
Y-96280D01*
X90958Y-98642D02*
X123242D01*
X90958D02*
Y-96280D01*
X123242Y-88406D02*
Y-76595D01*
X90958Y-88406D02*
Y-76595D01*
D12*
X247077Y-267743D02*
G03*
X247077Y-267743I-177J0D01*
G01*
X190000Y-239900D02*
X292900D01*
X190000Y-14900D02*
X292900D01*
Y-239900D02*
Y-14900D01*
X190000Y-239900D02*
Y-14900D01*
X257500Y-334982D02*
Y-244582D01*
X337500Y-334982D02*
Y-244582D01*
X257500Y-334982D02*
X337500D01*
X257500Y-244582D02*
X337500D01*
X232995Y-267952D02*
X244806D01*
X232995Y-249448D02*
X244806D01*
X215400Y-348001D02*
Y-342003D01*
X217399Y-344002D01*
X219399Y-342003D01*
Y-348001D01*
X222398D02*
X224397D01*
X225397Y-347001D01*
Y-345002D01*
X224397Y-344002D01*
X222398D01*
X221398Y-345002D01*
Y-347001D01*
X222398Y-348001D01*
X231395Y-342003D02*
Y-348001D01*
X228396D01*
X227396Y-347001D01*
Y-345002D01*
X228396Y-344002D01*
X231395D01*
X236393Y-348001D02*
X234394D01*
X233394Y-347001D01*
Y-345002D01*
X234394Y-344002D01*
X236393D01*
X237393Y-345002D01*
Y-346001D01*
X233394D01*
X239392Y-348001D02*
X241392D01*
X240392D01*
Y-342003D01*
X239392D01*
X250389D02*
X254387D01*
X252388D01*
Y-348001D01*
X256387D02*
X259386D01*
X260385Y-347001D01*
X259386Y-346001D01*
X257386D01*
X256387Y-345002D01*
X257386Y-344002D01*
X260385D01*
X262385D02*
Y-347001D01*
X263385Y-348001D01*
X266384D01*
Y-344002D01*
X268383Y-348001D02*
Y-342003D01*
Y-346001D02*
X271382Y-344002D01*
X268383Y-346001D02*
X271382Y-348001D01*
X274381Y-344002D02*
Y-347001D01*
X275381Y-348001D01*
X278380D01*
Y-344002D01*
X280379D02*
Y-347001D01*
X281379Y-348001D01*
X284378D01*
Y-349000D01*
X283378Y-350000D01*
X282378D01*
X284378Y-348001D02*
Y-344002D01*
X287377Y-348001D02*
X289376D01*
X290376Y-347001D01*
Y-345002D01*
X289376Y-344002D01*
X287377D01*
X286377Y-345002D01*
Y-347001D01*
X287377Y-348001D01*
X292375D02*
Y-344002D01*
X293375D01*
X294374Y-345002D01*
Y-348001D01*
Y-345002D01*
X295374Y-344002D01*
X296374Y-345002D01*
Y-348001D01*
X298373D02*
X300373D01*
X299373D01*
Y-344002D01*
X298373D01*
X309370Y-343002D02*
X310369Y-342003D01*
X312369D01*
X313368Y-343002D01*
Y-347001D01*
X312369Y-348001D01*
X310369D01*
X309370Y-347001D01*
Y-343002D01*
X319366Y-342003D02*
X315368D01*
Y-345002D01*
X317367Y-344002D01*
X318367D01*
X319366Y-345002D01*
Y-347001D01*
X318367Y-348001D01*
X316367D01*
X315368Y-347001D01*
X321366Y-348001D02*
X325364Y-344002D01*
X331363Y-348001D02*
X327364D01*
X331363Y-344002D01*
Y-343002D01*
X330363Y-342003D01*
X328363D01*
X327364Y-343002D01*
X337361Y-348001D02*
X333362D01*
X337361Y-344002D01*
Y-343002D01*
X336361Y-342003D01*
X334362D01*
X333362Y-343002D01*
X93899Y-135402D02*
X92899Y-134402D01*
X90900D01*
X89900Y-135402D01*
Y-136401D01*
X90900Y-137401D01*
X92899D01*
X93899Y-138401D01*
Y-139400D01*
X92899Y-140400D01*
X90900D01*
X89900Y-139400D01*
X95898Y-140400D02*
X97897D01*
X96898D01*
Y-134402D01*
X95898D01*
X101896Y-136401D02*
X103895D01*
X104895Y-137401D01*
Y-140400D01*
X101896D01*
X100896Y-139400D01*
X101896Y-138401D01*
X104895D01*
X106895Y-136401D02*
X108894Y-140400D01*
X110893Y-136401D01*
X115892Y-140400D02*
X113892D01*
X112893Y-139400D01*
Y-137401D01*
X113892Y-136401D01*
X115892D01*
X116891Y-137401D01*
Y-138401D01*
X112893D01*
X231000Y-138000D02*
Y-132002D01*
X232999Y-134001D01*
X234999Y-132002D01*
Y-138000D01*
X237998Y-134001D02*
X239997D01*
X240997Y-135001D01*
Y-138000D01*
X237998D01*
X236998Y-137000D01*
X237998Y-136001D01*
X240997D01*
X242996Y-138000D02*
X245995D01*
X246995Y-137000D01*
X245995Y-136001D01*
X243996D01*
X242996Y-135001D01*
X243996Y-134001D01*
X246995D01*
X249994Y-133002D02*
Y-134001D01*
X248994D01*
X250993D01*
X249994D01*
Y-137000D01*
X250993Y-138000D01*
X256992D02*
X254992D01*
X253993Y-137000D01*
Y-135001D01*
X254992Y-134001D01*
X256992D01*
X257991Y-135001D01*
Y-136001D01*
X253993D01*
X259991Y-134001D02*
Y-138000D01*
Y-136001D01*
X260990Y-135001D01*
X261990Y-134001D01*
X262990D01*
X285400Y-313300D02*
Y-307302D01*
X288399D01*
X289399Y-308302D01*
Y-310301D01*
X288399Y-311301D01*
X285400D01*
X287399D02*
X289399Y-313300D01*
X291398D02*
Y-309301D01*
X293397Y-307302D01*
X295397Y-309301D01*
Y-313300D01*
Y-310301D01*
X291398D01*
X297396Y-307302D02*
Y-313300D01*
X300395D01*
X301395Y-312300D01*
Y-308302D01*
X300395Y-307302D01*
X297396D01*
X303394D02*
X305394D01*
X304394D01*
Y-313300D01*
X303394D01*
X305394D01*
X311392Y-307302D02*
X309392D01*
X308393Y-308302D01*
Y-312300D01*
X309392Y-313300D01*
X311392D01*
X312391Y-312300D01*
Y-308302D01*
X311392Y-307302D01*
X234701Y-48602D02*
X233702Y-47602D01*
X231702D01*
X230703Y-48602D01*
Y-52600D01*
X231702Y-53600D01*
X233702D01*
X234701Y-52600D01*
Y-50601D01*
X232702D01*
X236701Y-53600D02*
Y-47602D01*
X239700D01*
X240699Y-48602D01*
Y-50601D01*
X239700Y-51601D01*
X236701D01*
X246697Y-48602D02*
X245698Y-47602D01*
X243698D01*
X242699Y-48602D01*
Y-49601D01*
X243698Y-50601D01*
X245698D01*
X246697Y-51601D01*
Y-52600D01*
X245698Y-53600D01*
X243698D01*
X242699Y-52600D01*
X295302Y-227199D02*
Y-221201D01*
X298302D01*
X299301Y-222201D01*
Y-224200D01*
X298302Y-225200D01*
X295302D01*
X297302D02*
X299301Y-227199D01*
X301301D02*
X303300D01*
X302300D01*
Y-221201D01*
X301301Y-222201D01*
X306299D02*
X307298Y-221201D01*
X309298D01*
X310298Y-222201D01*
Y-226199D01*
X309298Y-227199D01*
X307298D01*
X306299Y-226199D01*
Y-222201D01*
X307698Y-246401D02*
Y-252399D01*
X304699D01*
X303700Y-251399D01*
Y-249400D01*
X304699Y-248400D01*
X307698D01*
X305699D02*
X303700Y-246401D01*
X301700Y-251399D02*
X300701Y-252399D01*
X298701D01*
X297702Y-251399D01*
Y-250400D01*
X298701Y-249400D01*
X297702Y-248400D01*
Y-247401D01*
X298701Y-246401D01*
X300701D01*
X301700Y-247401D01*
Y-248400D01*
X300701Y-249400D01*
X301700Y-250400D01*
Y-251399D01*
X300701Y-249400D02*
X298701D01*
X188550Y-248650D02*
X194548D01*
Y-251649D01*
X193548Y-252649D01*
X191549D01*
X190549Y-251649D01*
Y-248650D01*
X188550Y-254648D02*
Y-256647D01*
Y-255648D01*
X194548D01*
X193548Y-254648D01*
X188550Y-259646D02*
Y-261646D01*
Y-260646D01*
X194548D01*
X193548Y-259646D01*
X125302Y-266099D02*
Y-260101D01*
X128301D01*
X129300Y-261101D01*
Y-263100D01*
X128301Y-264100D01*
X125302D01*
X131300Y-265099D02*
X132299Y-266099D01*
X134299D01*
X135298Y-265099D01*
Y-261101D01*
X134299Y-260101D01*
X132299D01*
X131300Y-261101D01*
Y-262100D01*
X132299Y-263100D01*
X135298D01*
X187099Y-302798D02*
X181101D01*
Y-299799D01*
X182101Y-298800D01*
X184100D01*
X185100Y-299799D01*
Y-302798D01*
X187099Y-292802D02*
Y-296800D01*
X183100Y-292802D01*
X182101D01*
X181101Y-293801D01*
Y-295801D01*
X182101Y-296800D01*
X113498Y-345101D02*
Y-351099D01*
X110498D01*
X109499Y-350099D01*
Y-348100D01*
X110498Y-347100D01*
X113498D01*
X107500Y-345101D02*
X105500D01*
X106500D01*
Y-351099D01*
X107500Y-350099D01*
X102501Y-351099D02*
X98502D01*
Y-350099D01*
X102501Y-346101D01*
Y-345101D01*
X7801Y-320796D02*
X13799D01*
Y-316798D01*
X7801Y-310800D02*
Y-314798D01*
X13799D01*
Y-310800D01*
X10800Y-314798D02*
Y-312799D01*
X7801Y-308800D02*
X13799D01*
Y-305801D01*
X12799Y-304802D01*
X8801D01*
X7801Y-305801D01*
Y-308800D01*
X8801Y-302802D02*
X7801Y-301803D01*
Y-299803D01*
X8801Y-298803D01*
X9800D01*
X10800Y-299803D01*
Y-300803D01*
Y-299803D01*
X11800Y-298803D01*
X12799D01*
X13799Y-299803D01*
Y-301803D01*
X12799Y-302802D01*
X89900Y-14701D02*
X88901Y-13701D01*
X86901D01*
X85902Y-14701D01*
Y-15700D01*
X86901Y-16700D01*
X88901D01*
X89900Y-17700D01*
Y-18699D01*
X88901Y-19699D01*
X86901D01*
X85902Y-18699D01*
X94899Y-19699D02*
Y-13701D01*
X91900Y-16700D01*
X95898D01*
X32900Y-96391D02*
X31901Y-95391D01*
X29901D01*
X28902Y-96391D01*
Y-97391D01*
X29901Y-98390D01*
X31901D01*
X32900Y-99390D01*
Y-100390D01*
X31901Y-101389D01*
X29901D01*
X28902Y-100390D01*
X34900Y-96391D02*
X35899Y-95391D01*
X37899D01*
X38898Y-96391D01*
Y-97391D01*
X37899Y-98390D01*
X36899D01*
X37899D01*
X38898Y-99390D01*
Y-100390D01*
X37899Y-101389D01*
X35899D01*
X34900Y-100390D01*
X32502Y-16991D02*
X31502Y-15991D01*
X29503D01*
X28503Y-16991D01*
Y-17991D01*
X29503Y-18990D01*
X31502D01*
X32502Y-19990D01*
Y-20990D01*
X31502Y-21989D01*
X29503D01*
X28503Y-20990D01*
X38500Y-21989D02*
X34501D01*
X38500Y-17991D01*
Y-16991D01*
X37500Y-15991D01*
X35501D01*
X34501Y-16991D01*
X134700Y-96901D02*
X133700Y-95901D01*
X131701D01*
X130701Y-96901D01*
Y-97900D01*
X131701Y-98900D01*
X133700D01*
X134700Y-99900D01*
Y-100899D01*
X133700Y-101899D01*
X131701D01*
X130701Y-100899D01*
X136699Y-101899D02*
X138699D01*
X137699D01*
Y-95901D01*
X136699Y-96901D01*
X103903Y-19899D02*
Y-13901D01*
X106902D01*
X107901Y-14901D01*
Y-16900D01*
X106902Y-17900D01*
X103903D01*
X105902D02*
X107901Y-19899D01*
X113899D02*
X109901D01*
X113899Y-15900D01*
Y-14901D01*
X112900Y-13901D01*
X110900D01*
X109901Y-14901D01*
X119897Y-19899D02*
X115899D01*
X119897Y-15900D01*
Y-14901D01*
X118898Y-13901D01*
X116898D01*
X115899Y-14901D01*
X65397Y-117638D02*
Y-111640D01*
X68396D01*
X69396Y-112639D01*
Y-114639D01*
X68396Y-115638D01*
X65397D01*
X67396D02*
X69396Y-117638D01*
X75393D02*
X71395D01*
X75393Y-113639D01*
Y-112639D01*
X74394Y-111640D01*
X72395D01*
X71395Y-112639D01*
X77393Y-117638D02*
X79392D01*
X78393D01*
Y-111640D01*
X77393Y-112639D01*
X51550Y-19799D02*
Y-13801D01*
X54549D01*
X55549Y-14801D01*
Y-16800D01*
X54549Y-17800D01*
X51550D01*
X53549D02*
X55549Y-19799D01*
X61547D02*
X57548D01*
X61547Y-15800D01*
Y-14801D01*
X60547Y-13801D01*
X58548D01*
X57548Y-14801D01*
X63546D02*
X64546Y-13801D01*
X66545D01*
X67545Y-14801D01*
Y-18799D01*
X66545Y-19799D01*
X64546D01*
X63546Y-18799D01*
Y-14801D01*
X94550Y-116660D02*
Y-110662D01*
X97549D01*
X98548Y-111662D01*
Y-113661D01*
X97549Y-114661D01*
X94550D01*
X96549D02*
X98548Y-116660D01*
X100548D02*
X102547D01*
X101547D01*
Y-110662D01*
X100548Y-111662D01*
X105546Y-115661D02*
X106546Y-116660D01*
X108545D01*
X109545Y-115661D01*
Y-111662D01*
X108545Y-110662D01*
X106546D01*
X105546Y-111662D01*
Y-112662D01*
X106546Y-113661D01*
X109545D01*
X50702Y-325399D02*
Y-319401D01*
X53702D01*
X54701Y-320401D01*
Y-322400D01*
X53702Y-323400D01*
X50702D01*
X52702D02*
X54701Y-325399D01*
X56700D02*
X58700D01*
X57700D01*
Y-319401D01*
X56700Y-320401D01*
X61699D02*
X62699Y-319401D01*
X64698D01*
X65698Y-320401D01*
Y-321400D01*
X64698Y-322400D01*
X65698Y-323400D01*
Y-324399D01*
X64698Y-325399D01*
X62699D01*
X61699Y-324399D01*
Y-323400D01*
X62699Y-322400D01*
X61699Y-321400D01*
Y-320401D01*
X62699Y-322400D02*
X64698D01*
X51502Y-305399D02*
Y-299401D01*
X54501D01*
X55501Y-300401D01*
Y-302400D01*
X54501Y-303400D01*
X51502D01*
X53502D02*
X55501Y-305399D01*
X57500D02*
X59500D01*
X58500D01*
Y-299401D01*
X57500Y-300401D01*
X62499Y-299401D02*
X66498D01*
Y-300401D01*
X62499Y-304399D01*
Y-305399D01*
X129802Y-81899D02*
Y-75901D01*
X132801D01*
X133801Y-76901D01*
Y-78900D01*
X132801Y-79900D01*
X129802D01*
X135801Y-81899D02*
X137800D01*
X136800D01*
Y-75901D01*
X135801Y-76901D01*
X143798Y-81899D02*
Y-75901D01*
X140799Y-78900D01*
X144798D01*
X8401Y-292996D02*
X14399D01*
Y-288998D01*
X8401Y-283000D02*
Y-286998D01*
X14399D01*
Y-283000D01*
X11400Y-286998D02*
Y-284999D01*
X8401Y-281000D02*
X14399D01*
Y-278001D01*
X13399Y-277002D01*
X9401D01*
X8401Y-278001D01*
Y-281000D01*
X14399Y-271004D02*
Y-275002D01*
X10400Y-271004D01*
X9401D01*
X8401Y-272003D01*
Y-274003D01*
X9401Y-275002D01*
X7901Y-345897D02*
X13899D01*
Y-341898D01*
X7901Y-335900D02*
Y-339899D01*
X13899D01*
Y-335900D01*
X10900Y-339899D02*
Y-337899D01*
X7901Y-333901D02*
X13899D01*
Y-330902D01*
X12899Y-329902D01*
X8901D01*
X7901Y-330902D01*
Y-333901D01*
X13899Y-327903D02*
Y-325903D01*
Y-326903D01*
X7901D01*
X8901Y-327903D01*
X144002Y-117201D02*
X146002D01*
X145002D01*
Y-123199D01*
X144002D01*
X146002D01*
X152999Y-118201D02*
X152000Y-117201D01*
X150001D01*
X149001Y-118201D01*
Y-122199D01*
X150001Y-123199D01*
X152000D01*
X152999Y-122199D01*
X158998Y-117201D02*
X154999D01*
Y-120200D01*
X156998Y-119200D01*
X157998D01*
X158998Y-120200D01*
Y-122199D01*
X157998Y-123199D01*
X155999D01*
X154999Y-122199D01*
X35902Y-348299D02*
Y-342301D01*
X38901D01*
X39900Y-343301D01*
Y-345300D01*
X38901Y-346300D01*
X35902D01*
X37901D02*
X39900Y-348299D01*
X45898Y-342301D02*
X41900D01*
Y-345300D01*
X43899Y-344300D01*
X44899D01*
X45898Y-345300D01*
Y-347299D01*
X44899Y-348299D01*
X42899D01*
X41900Y-347299D01*
X309002Y-289799D02*
Y-283801D01*
X312001D01*
X313000Y-284801D01*
Y-286800D01*
X312001Y-287800D01*
X309002D01*
X311001D02*
X313000Y-289799D01*
X317999D02*
Y-283801D01*
X315000Y-286800D01*
X318998D01*
X279299Y-108898D02*
X273301D01*
Y-105899D01*
X274301Y-104900D01*
X276300D01*
X277300Y-105899D01*
Y-108898D01*
X274301Y-102900D02*
X273301Y-101901D01*
Y-99901D01*
X274301Y-98902D01*
X275300D01*
X276300Y-99901D01*
X277300Y-98902D01*
X278299D01*
X279299Y-99901D01*
Y-101901D01*
X278299Y-102900D01*
X277300D01*
X276300Y-101901D01*
X275300Y-102900D01*
X274301D01*
X276300Y-101901D02*
Y-99901D01*
X210699Y-109098D02*
X204701D01*
Y-106099D01*
X205701Y-105100D01*
X207700D01*
X208700Y-106099D01*
Y-109098D01*
X204701Y-103100D02*
Y-99102D01*
X205701D01*
X209699Y-103100D01*
X210699D01*
X315602Y-261599D02*
Y-255601D01*
X318601D01*
X319600Y-256601D01*
Y-258600D01*
X318601Y-259600D01*
X315602D01*
X324599Y-261599D02*
Y-255601D01*
X321600Y-258600D01*
X325598D01*
X255699Y-271698D02*
X249701D01*
Y-268699D01*
X250701Y-267700D01*
X252700D01*
X253700Y-268699D01*
Y-271698D01*
X250701Y-265700D02*
X249701Y-264701D01*
Y-262701D01*
X250701Y-261702D01*
X251700D01*
X252700Y-262701D01*
Y-263701D01*
Y-262701D01*
X253700Y-261702D01*
X254699D01*
X255699Y-262701D01*
Y-264701D01*
X254699Y-265700D01*
X195299Y-284799D02*
X189301D01*
Y-281800D01*
X190301Y-280800D01*
X192300D01*
X193300Y-281800D01*
Y-284799D01*
X195299Y-278801D02*
Y-276801D01*
Y-277801D01*
X189301D01*
X190301Y-278801D01*
X116802Y-295401D02*
X118802D01*
X117802D01*
Y-301399D01*
X116802D01*
X118802D01*
X125800Y-296401D02*
X124800Y-295401D01*
X122801D01*
X121801Y-296401D01*
Y-300399D01*
X122801Y-301399D01*
X124800D01*
X125800Y-300399D01*
X131798Y-295401D02*
X129798Y-296401D01*
X127799Y-298400D01*
Y-300399D01*
X128799Y-301399D01*
X130798D01*
X131798Y-300399D01*
Y-299400D01*
X130798Y-298400D01*
X127799D01*
X270501Y-274798D02*
Y-272798D01*
Y-273798D01*
X276499D01*
Y-274798D01*
Y-272798D01*
X271501Y-265800D02*
X270501Y-266800D01*
Y-268799D01*
X271501Y-269799D01*
X275499D01*
X276499Y-268799D01*
Y-266800D01*
X275499Y-265800D01*
X271501Y-263801D02*
X270501Y-262802D01*
Y-260802D01*
X271501Y-259802D01*
X272500D01*
X273500Y-260802D01*
Y-261802D01*
Y-260802D01*
X274500Y-259802D01*
X275499D01*
X276499Y-260802D01*
Y-262802D01*
X275499Y-263801D01*
X245898Y-277099D02*
X243898D01*
X244898D01*
Y-271101D01*
X245898D01*
X243898D01*
X236900Y-276099D02*
X237900Y-277099D01*
X239899D01*
X240899Y-276099D01*
Y-272101D01*
X239899Y-271101D01*
X237900D01*
X236900Y-272101D01*
X230902Y-271101D02*
X234901D01*
X230902Y-275100D01*
Y-276099D01*
X231902Y-277099D01*
X233902D01*
X234901Y-276099D01*
X215102Y-106301D02*
X217102D01*
X216102D01*
Y-112299D01*
X215102D01*
X217102D01*
X224099Y-107301D02*
X223099Y-106301D01*
X221100D01*
X220100Y-107301D01*
Y-111299D01*
X221100Y-112299D01*
X223099D01*
X224099Y-111299D01*
X226098Y-112299D02*
X228098D01*
X227098D01*
Y-106301D01*
X226098Y-107301D01*
X280001Y-295501D02*
X279001Y-294501D01*
X277002D01*
X276002Y-295501D01*
Y-299499D01*
X277002Y-300499D01*
X279001D01*
X280001Y-299499D01*
X282000Y-300499D02*
X284000D01*
X283000D01*
Y-294501D01*
X282000Y-295501D01*
X286999D02*
X287999Y-294501D01*
X289998D01*
X290998Y-295501D01*
Y-299499D01*
X289998Y-300499D01*
X287999D01*
X286999Y-299499D01*
Y-295501D01*
X266200Y-250701D02*
X265201Y-249701D01*
X263201D01*
X262202Y-250701D01*
Y-254699D01*
X263201Y-255699D01*
X265201D01*
X266200Y-254699D01*
X268200Y-250701D02*
X269199Y-249701D01*
X271199D01*
X272198Y-250701D01*
Y-251700D01*
X271199Y-252700D01*
X272198Y-253700D01*
Y-254699D01*
X271199Y-255699D01*
X269199D01*
X268200Y-254699D01*
Y-253700D01*
X269199Y-252700D01*
X268200Y-251700D01*
Y-250701D01*
X269199Y-252700D02*
X271199D01*
X148599Y-263702D02*
X147599Y-262702D01*
X145600D01*
X144600Y-263702D01*
Y-267700D01*
X145600Y-268700D01*
X147599D01*
X148599Y-267700D01*
X150598Y-262702D02*
X154597D01*
Y-263702D01*
X150598Y-267700D01*
Y-268700D01*
X215999Y-257300D02*
X216999Y-256300D01*
Y-254301D01*
X215999Y-253301D01*
X212001D01*
X211001Y-254301D01*
Y-256300D01*
X212001Y-257300D01*
X211001Y-259299D02*
Y-261299D01*
Y-260299D01*
X216999D01*
X215999Y-259299D01*
D13*
X288165Y-259400D02*
G03*
X288165Y-259400I-106J0D01*
G01*
X97960Y-108678D02*
X99535D01*
X97960Y-105922D02*
X99535D01*
X73160Y-15722D02*
X74735D01*
X73160Y-18478D02*
X74735D01*
X291800Y-110300D02*
Y-30300D01*
X281800D02*
X291800D01*
X281800Y-110300D02*
Y-30300D01*
Y-110300D02*
X291800D01*
X327100Y-329570D02*
Y-259570D01*
Y-329570D02*
X337100D01*
Y-259570D01*
X327100D02*
X337100D01*
X128000Y-72900D02*
Y-62900D01*
X178000D01*
X128000Y-72900D02*
X178000D01*
Y-62900D01*
X213006Y-140907D02*
Y-114529D01*
X283872D01*
Y-140907D02*
Y-114529D01*
Y-238151D02*
Y-236970D01*
X213006Y-238151D02*
X283872D01*
X213006D02*
Y-236970D01*
X139782Y-242891D02*
Y-216513D01*
X68916Y-242891D02*
X139782D01*
X68916D02*
Y-216513D01*
Y-120450D02*
Y-119269D01*
X139782D01*
Y-120450D02*
Y-119269D01*
X191000Y-30300D02*
X201000D01*
Y-110300D02*
Y-30300D01*
X191000Y-110300D02*
X201000D01*
X191000D02*
Y-30300D01*
X257900Y-329570D02*
Y-259570D01*
Y-329570D02*
X267900D01*
Y-259570D01*
X257900D02*
X267900D01*
X55400Y-342600D02*
Y-332600D01*
X115400Y-342600D02*
Y-332600D01*
X55400Y-342600D02*
X115400D01*
X55400Y-332600D02*
X115400D01*
X76200Y-258500D02*
Y-248500D01*
X136200Y-258500D02*
Y-248500D01*
X76200Y-258500D02*
X136200D01*
X76200Y-248500D02*
X136200D01*
X189700Y-349500D02*
X199700D01*
X189700Y-289500D02*
X199700D01*
Y-349500D02*
Y-289500D01*
X189700Y-349500D02*
Y-289500D01*
X145200Y-258000D02*
Y-248000D01*
X185200D01*
X145200Y-258000D02*
X185200D01*
Y-248000D01*
X197700Y-285800D02*
Y-275800D01*
X217700D01*
Y-285800D02*
Y-275800D01*
X197700Y-285800D02*
X217700D01*
X301860Y-230222D02*
X303435D01*
X301860Y-232978D02*
X303435D01*
X301813Y-236922D02*
X303387D01*
X301813Y-239678D02*
X303387D01*
X31666Y-289590D02*
Y-279157D01*
Y-289590D02*
X39934D01*
Y-279157D01*
X104753Y-292394D02*
X123847D01*
X104753D02*
Y-271606D01*
X123847D01*
Y-292394D02*
Y-271606D01*
X125225Y-292158D02*
X131721D01*
X59678Y-312735D02*
Y-311160D01*
X56922Y-312735D02*
Y-311160D01*
X300513Y-287478D02*
X302087D01*
X300513Y-284722D02*
X302087D01*
X220147Y-258875D02*
Y-255725D01*
X226053Y-258875D02*
Y-255725D01*
X56922Y-292284D02*
Y-290709D01*
X59678Y-292284D02*
Y-290709D01*
X43113Y-336169D02*
X44687D01*
X43113Y-338924D02*
X44687D01*
X281725Y-291953D02*
X284875D01*
X281725Y-286047D02*
X284875D01*
X279710Y-256053D02*
X282860D01*
X279710Y-250147D02*
X282860D01*
X144547Y-281360D02*
Y-278210D01*
X150453Y-281360D02*
Y-278210D01*
X71360Y-108417D02*
X72935D01*
X71360Y-105661D02*
X72935D01*
X126465Y-15622D02*
X128040D01*
X126465Y-18378D02*
X128040D01*
D14*
X35800Y-327050D02*
Y-322050D01*
X33300Y-326050D02*
X38300D01*
X33300Y-323050D02*
X35800Y-326050D01*
X33800Y-323050D02*
X35800Y-326050D01*
X34300Y-323050D02*
X35800Y-326050D01*
X34800Y-323050D02*
X35800Y-326050D01*
X35300Y-323050D02*
X35800Y-326050D01*
X38300Y-323050D01*
X35800Y-326050D02*
X37800Y-323050D01*
X35800Y-326050D02*
X37300Y-323050D01*
X35800Y-326050D02*
X36800Y-323050D01*
X35800Y-326050D02*
X36300Y-323050D01*
X33300D02*
X38300D01*
X38750Y-312186D02*
Y-310914D01*
X32850Y-312186D02*
Y-310914D01*
D15*
X208900Y-270501D02*
Y-272167D01*
X209733Y-273000D01*
X210566Y-272167D01*
Y-270501D01*
X213065Y-270917D02*
X212649Y-270501D01*
X211816D01*
X211399Y-270917D01*
Y-272584D01*
X211816Y-273000D01*
X212649D01*
X213065Y-272584D01*
X215564Y-270917D02*
X215148Y-270501D01*
X214315D01*
X213898Y-270917D01*
Y-272584D01*
X214315Y-273000D01*
X215148D01*
X215564Y-272584D01*
X200066Y-271017D02*
X199650Y-270601D01*
X198817D01*
X198400Y-271017D01*
Y-272684D01*
X198817Y-273100D01*
X199650D01*
X200066Y-272684D01*
Y-271850D01*
X199233D01*
X200899Y-273100D02*
Y-270601D01*
X202565Y-273100D01*
Y-270601D01*
X203398D02*
Y-273100D01*
X204648D01*
X205065Y-272684D01*
Y-271017D01*
X204648Y-270601D01*
X203398D01*
X322266Y-127001D02*
X320600D01*
Y-128250D01*
X321433Y-127834D01*
X321850D01*
X322266Y-128250D01*
Y-129084D01*
X321850Y-129500D01*
X321017D01*
X320600Y-129084D01*
X323099Y-127001D02*
Y-128667D01*
X323932Y-129500D01*
X324765Y-128667D01*
Y-127001D01*
X309066Y-127317D02*
X308650Y-126901D01*
X307817D01*
X307400Y-127317D01*
Y-128983D01*
X307817Y-129400D01*
X308650D01*
X309066Y-128983D01*
Y-128150D01*
X308233D01*
X309899Y-129400D02*
Y-126901D01*
X311565Y-129400D01*
Y-126901D01*
X312398D02*
Y-129400D01*
X313648D01*
X314065Y-128983D01*
Y-127317D01*
X313648Y-126901D01*
X312398D01*
X312001Y-231700D02*
X313667D01*
X314500Y-230867D01*
X313667Y-230034D01*
X312001D01*
X312417Y-227535D02*
X312001Y-227951D01*
Y-228784D01*
X312417Y-229201D01*
X314084D01*
X314500Y-228784D01*
Y-227951D01*
X314084Y-227535D01*
X312417Y-225036D02*
X312001Y-225452D01*
Y-226285D01*
X312417Y-226702D01*
X314084D01*
X314500Y-226285D01*
Y-225452D01*
X314084Y-225036D01*
X312717Y-241634D02*
X312301Y-242050D01*
Y-242883D01*
X312717Y-243300D01*
X314384D01*
X314800Y-242883D01*
Y-242050D01*
X314384Y-241634D01*
X313550D01*
Y-242467D01*
X314800Y-240801D02*
X312301D01*
X314800Y-239135D01*
X312301D01*
Y-238302D02*
X314800D01*
Y-237052D01*
X314384Y-236635D01*
X312717D01*
X312301Y-237052D01*
Y-238302D01*
X128000Y-244501D02*
Y-246167D01*
X128833Y-247000D01*
X129666Y-246167D01*
Y-244501D01*
X132165Y-244917D02*
X131749Y-244501D01*
X130916D01*
X130499Y-244917D01*
Y-246584D01*
X130916Y-247000D01*
X131749D01*
X132165Y-246584D01*
X134664Y-244917D02*
X134248Y-244501D01*
X133415D01*
X132998Y-244917D01*
Y-246584D01*
X133415Y-247000D01*
X134248D01*
X134664Y-246584D01*
X119466Y-245017D02*
X119050Y-244601D01*
X118217D01*
X117800Y-245017D01*
Y-246684D01*
X118217Y-247100D01*
X119050D01*
X119466Y-246684D01*
Y-245850D01*
X118633D01*
X120299Y-247100D02*
Y-244601D01*
X121965Y-247100D01*
Y-244601D01*
X122798D02*
Y-247100D01*
X124048D01*
X124464Y-246684D01*
Y-245017D01*
X124048Y-244601D01*
X122798D01*
X107600Y-247000D02*
Y-244501D01*
X108433Y-245334D01*
X109266Y-244501D01*
Y-247000D01*
X110099D02*
Y-244501D01*
X111349D01*
X111765Y-244917D01*
Y-245750D01*
X111349Y-246167D01*
X110099D01*
X110932D02*
X111765Y-247000D01*
X112598Y-244501D02*
X114265Y-247000D01*
Y-244501D02*
X112598Y-247000D01*
X97900D02*
Y-244501D01*
X98733Y-245334D01*
X99566Y-244501D01*
Y-247000D01*
X100399Y-244501D02*
X102065D01*
X101232D01*
Y-247000D01*
X102898Y-244501D02*
X104564Y-247000D01*
Y-244501D02*
X102898Y-247000D01*
X88000D02*
Y-244501D01*
X88833Y-245334D01*
X89666Y-244501D01*
Y-247000D01*
X92165Y-244501D02*
X90499D01*
Y-247000D01*
X92165D01*
X90499Y-245750D02*
X91332D01*
X92998Y-247000D02*
Y-244501D01*
X94665Y-247000D01*
Y-244501D01*
X76500Y-247000D02*
Y-244501D01*
X77333Y-245334D01*
X78166Y-244501D01*
Y-247000D01*
X78999Y-244501D02*
X79832D01*
X79416D01*
Y-247000D01*
X78999D01*
X79832D01*
X82331Y-244501D02*
X81498D01*
X81082Y-244917D01*
Y-246584D01*
X81498Y-247000D01*
X82331D01*
X82748Y-246584D01*
Y-244917D01*
X82331Y-244501D01*
X83581Y-244917D02*
X83998Y-244501D01*
X84831D01*
X85247Y-244917D01*
Y-246584D01*
X84831Y-247000D01*
X83998D01*
X83581Y-246584D01*
Y-244917D01*
X202417Y-347234D02*
X202001Y-347650D01*
Y-348483D01*
X202417Y-348900D01*
X202834D01*
X203250Y-348483D01*
Y-347650D01*
X203667Y-347234D01*
X204083D01*
X204500Y-347650D01*
Y-348483D01*
X204083Y-348900D01*
X202001Y-346401D02*
Y-345568D01*
Y-345984D01*
X204500D01*
Y-346401D01*
Y-345568D01*
X202001Y-343069D02*
Y-343902D01*
X202417Y-344318D01*
X204083D01*
X204500Y-343902D01*
Y-343069D01*
X204083Y-342652D01*
X202417D01*
X202001Y-343069D01*
X202417Y-341819D02*
X202001Y-341402D01*
Y-340569D01*
X202417Y-340153D01*
X204083D01*
X204500Y-340569D01*
Y-341402D01*
X204083Y-341819D01*
X202417D01*
Y-336034D02*
X202001Y-336450D01*
Y-337283D01*
X202417Y-337700D01*
X202834D01*
X203250Y-337283D01*
Y-336450D01*
X203667Y-336034D01*
X204083D01*
X204500Y-336450D01*
Y-337283D01*
X204083Y-337700D01*
X202001Y-333535D02*
Y-335201D01*
X204500D01*
Y-333535D01*
X203250Y-335201D02*
Y-334368D01*
X204500Y-332702D02*
X202001D01*
X204500Y-331035D01*
X202001D01*
X202417Y-325934D02*
X202001Y-326350D01*
Y-327184D01*
X202417Y-327600D01*
X202834D01*
X203250Y-327184D01*
Y-326350D01*
X203667Y-325934D01*
X204083D01*
X204500Y-326350D01*
Y-327184D01*
X204083Y-327600D01*
X202001Y-325101D02*
Y-323435D01*
Y-324268D01*
X204500D01*
X202001Y-322602D02*
X204500Y-320936D01*
X202001D02*
X204500Y-322602D01*
X202217Y-316034D02*
X201801Y-316450D01*
Y-317284D01*
X202217Y-317700D01*
X202634D01*
X203050Y-317284D01*
Y-316450D01*
X203467Y-316034D01*
X203884D01*
X204300Y-316450D01*
Y-317284D01*
X203884Y-317700D01*
X204300Y-315201D02*
X201801D01*
Y-313951D01*
X202217Y-313535D01*
X203050D01*
X203467Y-313951D01*
Y-315201D01*
Y-314368D02*
X204300Y-313535D01*
X201801Y-312702D02*
X204300Y-311035D01*
X201801D02*
X204300Y-312702D01*
X202117Y-306134D02*
X201701Y-306550D01*
Y-307383D01*
X202117Y-307800D01*
X203783D01*
X204200Y-307383D01*
Y-306550D01*
X203783Y-306134D01*
X202950D01*
Y-306967D01*
X204200Y-305301D02*
X201701D01*
X204200Y-303635D01*
X201701D01*
Y-302802D02*
X204200D01*
Y-301552D01*
X203783Y-301135D01*
X202117D01*
X201701Y-301552D01*
Y-302802D01*
Y-297700D02*
X203367D01*
X204200Y-296867D01*
X203367Y-296034D01*
X201701D01*
X202117Y-293535D02*
X201701Y-293951D01*
Y-294784D01*
X202117Y-295201D01*
X203783D01*
X204200Y-294784D01*
Y-293951D01*
X203783Y-293535D01*
X202117Y-291036D02*
X201701Y-291452D01*
Y-292285D01*
X202117Y-292702D01*
X203783D01*
X204200Y-292285D01*
Y-291452D01*
X203783Y-291036D01*
M02*
