M48
;Layer_Color=9474304
;FILE_FORMAT=2:4
INCH,TZ
;TYPE=PLATED
T1F00S00C0.0250
T2F00S00C0.0354
T3F00S00C0.0374
T4F00S00C0.0394
T5F00S00C0.0402
T6F00S00C0.2000
T7F00S00C0.5120
;TYPE=NON_PLATED
T8F00S00C0.0500
%
T01
X21715Y-26426
X21640Y-25580
X21270Y-23610
X24210Y-25850
X28690Y-26730
X29281Y-24291
X29306Y-22957
X28620Y-23040
X29450Y-21190
X26820Y-20710
X25540Y-19680
X32530Y-25470
X20960Y-28350
X18500Y-27570
X18150Y-27340
X17690Y-27000
X15770Y-27400
X11720Y-27760
X10940Y-27770
X10060Y-29120
X8990Y-26670
X7959Y-22799
X8090Y-22300
X7420Y-20680
X8840Y-19900
X8585Y-18920
X7810Y-18840
X9860Y-18920
X11130Y-19490
X13250Y-19040
X12720Y-21260
X20740Y-20570
X20739Y-19416
X8700Y-33500
X4350Y-31850
X4740Y-31310
X4200Y-28850
X4760Y-26170
X600Y-7930
X1065Y-3196
X7730Y-3140
X7470Y-4580
X8820Y-8690
X7600Y-13840
X7550Y-15330
X7875Y-15890
X7740Y-16350
X8589Y-16841
X7830Y-17640
Y-18440
X10190Y-18140
X12560Y-18250
X12990Y-15650
Y-14580
X12800Y-13220
X16200Y-13750
X17262Y-12202
X19925Y-12820
X19380Y-16170
X18960Y-18080
X20780Y-17980
X14620Y-15870
X15370Y-9610
X16850Y-9280
X16830Y-8810
X16630Y-6560
X20600Y-6500
X21120Y-5450
X20550Y-4740
X21480Y-8050
X21659Y-12641
X22830Y-12610
X22020Y-14180
X22540Y-17280
X23026Y-18183
X23330Y-17990
X22730Y-18596
X26281Y-16201
X27157Y-15691
X27560Y-15730
X27350Y-16720
X28830Y-17230
X28920Y-13750
X27424Y-14094
X27220Y-2580
X20810Y-2620
T02
X21310Y-26900
X26330Y-27277
Y-26277
Y-25277
Y-28277
Y-29277
Y-30277
Y-31277
X33250
Y-30277
Y-29277
Y-28277
Y-27277
Y-26277
Y-25277
X20310Y-26900
X19510Y-28270
Y-29270
Y-30270
Y-31270
Y-32270
Y-33270
X11080Y-32580
X10080
X9080
X8080
X7080
X6080
X8160Y-24170
X9160
X10160
X11160
X12160
X13160
X15060Y-24120
X16060
X17060
X18060
X19930Y-22450
Y-21450
Y-20450
Y-19450
X2350Y-26220
Y-27220
Y-28220
Y-29220
Y-30220
Y-31220
Y-32220
Y-33220
X19930Y-18450
Y-17450
X19640Y-9350
Y-8350
Y-7350
Y-6350
Y-5350
Y-4350
Y-3350
X17340Y-5610
X16340
X15340
X14340
X13340
X28720Y-5350
Y-6350
Y-7350
Y-8350
Y-9350
X32930Y-9270
Y-8270
Y-7270
Y-6270
Y-5270
Y-4270
Y-3270
X28720Y-3350
Y-4350
Y-2350
X32930Y-2270
Y-1270
X19640Y-2350
T03
X15150Y-18047
Y-17047
Y-16047
Y-15047
Y-14047
Y-13047
Y-12047
T04
X3260Y-7841
Y-5841
X3270Y-3686
X6270
X6260Y-5841
Y-7841
X9250Y-8070
Y-6070
X9290Y-3915
X12290
X12250Y-6070
Y-8070
X12290Y-1915
X9290
X6270Y-1686
X3270
T05
X32860Y-22810
Y-21629
X32310Y-13160
X31129
T06
X16000Y-32000
X3810Y-12740
X31990Y-17180
X16000Y-2370
T07
X3810Y-22300
T08
X33632Y-23991
Y-20448
X33491Y-13932
X29948
M30
