G04*
G04 #@! TF.GenerationSoftware,Altium Limited,Altium Designer,22.2.1 (43)*
G04*
G04 Layer_Color=255*
%FSLAX25Y25*%
%MOIN*%
G70*
G04*
G04 #@! TF.SameCoordinates,BF82E168-2CF8-4A2D-AB3A-859FEF8C30B5*
G04*
G04*
G04 #@! TF.FilePolarity,Positive*
G04*
G01*
G75*
%ADD22R,0.02756X0.03543*%
%ADD28R,0.03543X0.02756*%
%ADD30R,0.04331X0.06693*%
%ADD58C,0.05906*%
%ADD59R,0.05906X0.05906*%
%ADD60R,0.05906X0.05906*%
%ADD61C,0.02500*%
%ADD62C,0.06024*%
%ADD63R,0.06024X0.06024*%
%ADD64C,0.05610*%
%ADD65R,0.05610X0.05610*%
%ADD66C,0.06000*%
%ADD67R,0.06024X0.06024*%
%ADD69R,0.07087X0.04724*%
%ADD70R,0.06102X0.02362*%
%ADD71R,0.01575X0.01575*%
D22*
X311305Y-72700D02*
D03*
X305400D02*
D03*
X174600Y-100300D02*
D03*
X180506D02*
D03*
D28*
X6500Y-88747D02*
D03*
Y-94653D02*
D03*
D30*
X172885Y-74000D02*
D03*
X183515D02*
D03*
X92800Y-294500D02*
D03*
X82170D02*
D03*
D58*
X287200Y-93500D02*
D03*
Y-83500D02*
D03*
Y-73500D02*
D03*
Y-63500D02*
D03*
Y-53500D02*
D03*
Y-43500D02*
D03*
Y-33500D02*
D03*
X332500Y-252770D02*
D03*
Y-262770D02*
D03*
Y-272770D02*
D03*
Y-282770D02*
D03*
Y-302770D02*
D03*
Y-292770D02*
D03*
X163400Y-56100D02*
D03*
X153400D02*
D03*
X143400D02*
D03*
X133400D02*
D03*
X199300Y-174500D02*
D03*
Y-184500D02*
D03*
Y-194500D02*
D03*
Y-204500D02*
D03*
Y-214500D02*
D03*
X92900Y-39148D02*
D03*
X122900D02*
D03*
X92900Y-19148D02*
D03*
X122900D02*
D03*
X329300Y-72700D02*
D03*
Y-62700D02*
D03*
Y-52700D02*
D03*
Y-42700D02*
D03*
Y-32700D02*
D03*
Y-22700D02*
D03*
Y-12700D02*
D03*
Y-82700D02*
D03*
X196400Y-83500D02*
D03*
Y-73500D02*
D03*
Y-63500D02*
D03*
Y-53500D02*
D03*
Y-43500D02*
D03*
Y-33500D02*
D03*
Y-23500D02*
D03*
X23500Y-272200D02*
D03*
Y-282200D02*
D03*
Y-292200D02*
D03*
Y-302200D02*
D03*
Y-312200D02*
D03*
Y-322200D02*
D03*
Y-332200D02*
D03*
X263300Y-252770D02*
D03*
Y-262770D02*
D03*
Y-272770D02*
D03*
Y-282770D02*
D03*
Y-302770D02*
D03*
Y-292770D02*
D03*
X100800Y-325800D02*
D03*
X90800D02*
D03*
X80800D02*
D03*
X70800D02*
D03*
X60800D02*
D03*
X121600Y-241700D02*
D03*
X111600D02*
D03*
X101600D02*
D03*
X91600D02*
D03*
X81600D02*
D03*
X195100Y-292700D02*
D03*
Y-302700D02*
D03*
Y-312700D02*
D03*
Y-322700D02*
D03*
Y-332700D02*
D03*
X180600Y-241200D02*
D03*
X170600D02*
D03*
X160600D02*
D03*
X203100Y-269000D02*
D03*
X32698Y-36858D02*
D03*
X62698D02*
D03*
X32698Y-16858D02*
D03*
X62698D02*
D03*
X122500Y-60700D02*
D03*
X92500D02*
D03*
X122500Y-80700D02*
D03*
X92500D02*
D03*
X32600Y-78410D02*
D03*
X62600D02*
D03*
X32600Y-58410D02*
D03*
X62600D02*
D03*
D59*
X287200Y-23500D02*
D03*
X332500Y-312770D02*
D03*
X199300Y-224500D02*
D03*
X329300Y-92700D02*
D03*
X196400Y-93500D02*
D03*
X23500Y-262200D02*
D03*
X263300Y-312770D02*
D03*
X195100Y-282700D02*
D03*
D60*
X173400Y-56100D02*
D03*
X110800Y-325800D02*
D03*
X131600Y-241700D02*
D03*
X150600Y-241200D02*
D03*
X213100Y-269000D02*
D03*
D61*
X334911Y-139316D02*
D03*
X299478D02*
D03*
X336316Y-204478D02*
D03*
Y-239911D02*
D03*
D62*
X323100Y-131600D02*
D03*
X328600Y-216289D02*
D03*
D63*
X311289Y-131600D02*
D03*
D64*
X151500Y-180467D02*
D03*
Y-170467D02*
D03*
Y-160467D02*
D03*
Y-150467D02*
D03*
Y-140467D02*
D03*
Y-130467D02*
D03*
D65*
Y-120467D02*
D03*
D66*
X38100Y-223000D02*
D03*
X160000Y-320000D02*
D03*
Y-23700D02*
D03*
X319900Y-171800D02*
D03*
X38100Y-127400D02*
D03*
D67*
X328600Y-228100D02*
D03*
D69*
X20800Y-78347D02*
D03*
Y-56300D02*
D03*
Y-17353D02*
D03*
Y-39400D02*
D03*
D70*
X5544Y-61418D02*
D03*
Y-65355D02*
D03*
Y-69292D02*
D03*
Y-73229D02*
D03*
Y-34282D02*
D03*
Y-30345D02*
D03*
Y-26408D02*
D03*
Y-22471D02*
D03*
D71*
X172800Y-83500D02*
D03*
Y-86650D02*
D03*
Y-89799D02*
D03*
Y-92949D02*
D03*
X182249D02*
D03*
Y-89799D02*
D03*
Y-86650D02*
D03*
Y-83500D02*
D03*
M02*
