G04*
G04 #@! TF.GenerationSoftware,Altium Limited,Altium Designer,22.2.1 (43)*
G04*
G04 Layer_Physical_Order=1*
G04 Layer_Color=255*
%FSLAX25Y25*%
%MOIN*%
G70*
G04*
G04 #@! TF.SameCoordinates,BF82E168-2CF8-4A2D-AB3A-859FEF8C30B5*
G04*
G04*
G04 #@! TF.FilePolarity,Positive*
G04*
G01*
G75*
%ADD14C,0.01000*%
%ADD18R,0.05906X0.03543*%
%ADD19R,0.03543X0.03543*%
%ADD20R,0.04331X0.02362*%
%ADD21R,0.04700X0.04700*%
%ADD22R,0.02756X0.03543*%
%ADD23R,0.05512X0.03937*%
%ADD24R,0.03937X0.04331*%
%ADD25R,0.00984X0.01870*%
%ADD26R,0.01870X0.00984*%
%ADD27R,0.06496X0.02559*%
%ADD28R,0.03543X0.02756*%
%ADD29R,0.06693X0.04331*%
%ADD30R,0.04331X0.06693*%
%ADD54C,0.01200*%
%ADD55C,0.01900*%
%ADD56C,0.01500*%
%ADD57C,0.02500*%
%ADD58C,0.05906*%
%ADD59R,0.05906X0.05906*%
%ADD60R,0.05906X0.05906*%
%ADD61C,0.02500*%
%ADD62C,0.06024*%
%ADD63R,0.06024X0.06024*%
%ADD64C,0.05610*%
%ADD65R,0.05610X0.05610*%
%ADD66C,0.06000*%
%ADD67R,0.06024X0.06024*%
%ADD68C,0.03000*%
D14*
X208277Y-191580D02*
X214551D01*
X222430Y-186580D02*
X223048Y-185962D01*
X227300D01*
X230013Y-181580D02*
X230259Y-181826D01*
X214551Y-181580D02*
X230013D01*
X168900Y-98100D02*
X195499D01*
X231400Y-134001D01*
Y-167318D02*
Y-134001D01*
X122900Y-52100D02*
X168900Y-98100D01*
X122900Y-52100D02*
Y-39148D01*
X268649Y-153751D02*
X274108Y-148292D01*
X262807Y-162007D02*
X268649Y-156165D01*
Y-153751D01*
X209520Y-195749D02*
X211938D01*
X207393Y-194163D02*
X207934D01*
X209520Y-195749D01*
X207691Y-190995D02*
X208277Y-191580D01*
X207691Y-190995D02*
Y-179909D01*
X207800Y-179800D01*
X211938Y-195749D02*
X213209Y-197020D01*
X214551Y-186580D02*
X222430D01*
X271572Y-156907D02*
X271955Y-156524D01*
Y-155545D02*
X274208Y-153292D01*
X271955Y-156524D02*
Y-155545D01*
X274108Y-148292D02*
X280835D01*
X85347Y-168412D02*
X85888D01*
X83736Y-166800D02*
X85347Y-168412D01*
X78659Y-158900D02*
X78750D01*
X283668Y-167200D02*
X283769Y-167100D01*
X229980Y-176580D02*
X233300Y-179900D01*
X42959Y-318500D02*
X43500D01*
X35000Y-319953D02*
X41505D01*
X42959Y-318500D01*
X213209Y-197020D02*
X214390D01*
X149100Y-239700D02*
X150600Y-241200D01*
X149100Y-239700D02*
Y-194900D01*
X142272Y-188072D02*
X149100Y-194900D01*
X141772Y-183072D02*
X150900Y-192200D01*
Y-231500D02*
X160600Y-241200D01*
X150900Y-231500D02*
Y-192200D01*
X145847Y-184047D02*
X152800Y-191000D01*
Y-223400D02*
X170600Y-241200D01*
X152800Y-223400D02*
Y-191000D01*
X147447Y-183385D02*
X155200Y-191137D01*
Y-215800D02*
X180600Y-241200D01*
X155200Y-215800D02*
Y-191137D01*
X118847Y-35095D02*
X122900Y-39148D01*
X82300Y-40600D02*
X85716D01*
X91221Y-35095D02*
X118847D01*
X85716Y-40600D02*
X91221Y-35095D01*
X153400Y-73200D02*
X168300Y-88100D01*
X153400Y-73200D02*
Y-56100D01*
X143400Y-67700D02*
Y-56100D01*
Y-67700D02*
X168500Y-92800D01*
X137900Y-96100D02*
X153700D01*
X122500Y-80700D02*
X137900Y-96100D01*
X128000Y-132200D02*
X133400Y-126800D01*
X70300Y-166800D02*
X83736D01*
X77772Y-188072D02*
X78100Y-188400D01*
X71572Y-188072D02*
X77772D01*
X215771Y-172800D02*
X225400D01*
X209600Y-308200D02*
Y-283500D01*
X111363Y-277421D02*
X116084Y-272700D01*
X109679Y-277421D02*
X111363D01*
X116084Y-272700D02*
X128873D01*
X109400Y-277700D02*
X109679Y-277421D01*
X79800Y-218783D02*
Y-205020D01*
X72852Y-198072D02*
X79800Y-205020D01*
X71182Y-227401D02*
X79800Y-218783D01*
X70300Y-196800D02*
X71572Y-198072D01*
X72852D01*
X71182Y-252059D02*
X81823Y-262700D01*
X71182Y-252059D02*
Y-227401D01*
X81823Y-262700D02*
X100527D01*
X73368Y-251982D02*
X101318D01*
X72782Y-251396D02*
Y-231118D01*
Y-251396D02*
X73368Y-251982D01*
X74400Y-249614D02*
Y-233337D01*
Y-249614D02*
X74986Y-250200D01*
X93100D01*
X72782Y-231118D02*
X80900Y-223000D01*
X74400Y-233337D02*
X79589Y-228149D01*
X64800Y-249056D02*
Y-131020D01*
X60090Y-253766D02*
X64800Y-249056D01*
X66892Y-128928D02*
X66991D01*
X64800Y-131020D02*
X66892Y-128928D01*
X66991D02*
X69119Y-126800D01*
X41934Y-253766D02*
X60090D01*
X231400Y-167318D02*
X254831Y-190749D01*
X207528Y-205828D02*
X213799D01*
X207400Y-205700D02*
X207528Y-205828D01*
X213799D02*
X214551Y-206580D01*
X91600Y-241700D02*
X92927D01*
X94376Y-240251D01*
X122100Y-212600D02*
X127200D01*
X94376Y-240251D02*
X94449D01*
X122100Y-212600D01*
X115100Y-153300D02*
X131600Y-136800D01*
X139198D01*
X75500Y-153300D02*
X115100D01*
X140469Y-188072D02*
X142272D01*
X139198Y-186800D02*
X140469Y-188072D01*
Y-183072D02*
X141772D01*
X139198Y-181800D02*
X140469Y-183072D01*
X147447Y-183385D02*
Y-178770D01*
X145847Y-184047D02*
Y-182170D01*
X142543Y-173866D02*
X147447Y-178770D01*
X139198Y-171800D02*
X140379D01*
X142507Y-178928D02*
X142606D01*
X145847Y-182170D01*
X140379Y-171800D02*
X142444Y-173866D01*
X142543D01*
X140379Y-176800D02*
X142507Y-178928D01*
X139198Y-176800D02*
X140379D01*
X214551Y-176580D02*
X229980D01*
X215171Y-172200D02*
X215771Y-172800D01*
X274208Y-153292D02*
X280835D01*
X282107Y-152020D01*
X280835Y-148292D02*
X282107Y-147020D01*
X70300Y-176800D02*
X70700Y-176400D01*
X75700Y-181800D02*
X78300Y-184400D01*
X283068Y-196800D02*
X283288Y-197020D01*
X255400Y-196800D02*
X283068D01*
X176900Y-288044D02*
Y-270000D01*
Y-288044D02*
X188000Y-299144D01*
X181500Y-287863D02*
Y-273400D01*
X89900Y-266700D02*
X90441D01*
X91441Y-267700D01*
X100527D01*
X129900Y-145800D02*
X133900Y-141800D01*
X139198D01*
X129900Y-156500D02*
X138898D01*
X254831Y-190749D02*
X282016D01*
X283288Y-192020D01*
X132500Y-190400D02*
X133041D01*
X134441Y-191800D02*
X139198D01*
X133041Y-190400D02*
X134441Y-191800D01*
X195100Y-322700D02*
X209600Y-308200D01*
X188000Y-325600D02*
Y-299144D01*
Y-325600D02*
X195100Y-332700D01*
X189600Y-307200D02*
Y-295963D01*
X194733Y-302333D02*
Y-298833D01*
X185000Y-289100D02*
Y-275700D01*
X194733Y-302333D02*
X195100Y-302700D01*
X185000Y-289100D02*
X194733Y-298833D01*
X181500Y-287863D02*
X189600Y-295963D01*
Y-307200D02*
X195100Y-312700D01*
X282107Y-147020D02*
X283288D01*
X282107Y-152020D02*
X283288D01*
X93100Y-250200D02*
X101600Y-241700D01*
X79589Y-228149D02*
Y-227989D01*
X101318Y-251982D02*
X111600Y-241700D01*
X70300Y-136800D02*
X74400D01*
X76000Y-138400D01*
X70300Y-186800D02*
X71572Y-188072D01*
X70300Y-181800D02*
X75700D01*
X40469Y-326646D02*
X41347Y-325768D01*
Y-325746D01*
X35000Y-326646D02*
X40469D01*
X37000Y-303100D02*
X58700D01*
X36200Y-303900D02*
X37000Y-303100D01*
X56006Y-274443D02*
X58306Y-276743D01*
X36200Y-274443D02*
X56006D01*
X58306Y-276743D02*
X58700D01*
X41943Y-267357D02*
X47600Y-261700D01*
X36200Y-267357D02*
X41943D01*
X76859Y-163500D02*
X77400D01*
X75159Y-161800D02*
X76859Y-163500D01*
X70300Y-161800D02*
X75159D01*
X70300Y-156800D02*
X71572Y-158072D01*
X77830D01*
X78659Y-158900D01*
X288659Y-137500D02*
X289200D01*
X289169Y-257068D02*
X295900Y-263800D01*
Y-271059D02*
X298747Y-273906D01*
X295900Y-271059D02*
Y-263800D01*
X288193Y-257068D02*
X289169D01*
X298747Y-274300D02*
Y-273906D01*
X287739Y-136580D02*
X288659Y-137500D01*
X283449Y-136580D02*
X287739D01*
X138898Y-156500D02*
X139198Y-156800D01*
Y-161800D02*
X143100D01*
X146200Y-158700D01*
X133400Y-126800D02*
X139198D01*
X23500Y-272200D02*
X41934Y-253766D01*
X69119Y-126800D02*
X70300D01*
X117250Y-277650D02*
X128823D01*
X117200Y-277600D02*
X117250Y-277650D01*
X128823D02*
X128873Y-277700D01*
D18*
X283288Y-197020D02*
D03*
Y-132020D02*
D03*
Y-137020D02*
D03*
Y-142020D02*
D03*
Y-147020D02*
D03*
Y-152020D02*
D03*
Y-157020D02*
D03*
Y-162020D02*
D03*
Y-167020D02*
D03*
Y-172020D02*
D03*
Y-177020D02*
D03*
Y-182020D02*
D03*
Y-187020D02*
D03*
Y-192020D02*
D03*
Y-202020D02*
D03*
Y-207020D02*
D03*
Y-212020D02*
D03*
Y-217020D02*
D03*
Y-222020D02*
D03*
X214390D02*
D03*
Y-217020D02*
D03*
Y-212020D02*
D03*
Y-207020D02*
D03*
Y-202020D02*
D03*
Y-197020D02*
D03*
Y-192020D02*
D03*
Y-187020D02*
D03*
Y-182020D02*
D03*
Y-177020D02*
D03*
Y-172020D02*
D03*
Y-167020D02*
D03*
Y-162020D02*
D03*
Y-157020D02*
D03*
Y-152020D02*
D03*
Y-147020D02*
D03*
Y-142020D02*
D03*
Y-137020D02*
D03*
Y-132020D02*
D03*
X70300Y-201800D02*
D03*
Y-196800D02*
D03*
Y-191800D02*
D03*
Y-186800D02*
D03*
Y-181800D02*
D03*
Y-176800D02*
D03*
Y-171800D02*
D03*
Y-166800D02*
D03*
Y-161800D02*
D03*
Y-156800D02*
D03*
Y-151800D02*
D03*
Y-146800D02*
D03*
Y-141800D02*
D03*
Y-136800D02*
D03*
Y-131800D02*
D03*
Y-126800D02*
D03*
Y-121800D02*
D03*
Y-116800D02*
D03*
Y-111800D02*
D03*
X139198D02*
D03*
Y-116800D02*
D03*
Y-121800D02*
D03*
Y-126800D02*
D03*
Y-131800D02*
D03*
Y-136800D02*
D03*
Y-141800D02*
D03*
Y-146800D02*
D03*
Y-151800D02*
D03*
Y-156800D02*
D03*
Y-161800D02*
D03*
Y-166800D02*
D03*
Y-171800D02*
D03*
Y-176800D02*
D03*
Y-181800D02*
D03*
Y-186800D02*
D03*
Y-191800D02*
D03*
Y-196800D02*
D03*
Y-201800D02*
D03*
D19*
X237422Y-162729D02*
D03*
Y-157217D02*
D03*
X242934D02*
D03*
X248446D02*
D03*
Y-162729D02*
D03*
Y-168241D02*
D03*
X242934D02*
D03*
X237422D02*
D03*
X242934Y-162729D02*
D03*
X116166Y-171091D02*
D03*
Y-176603D02*
D03*
X110654D02*
D03*
X105142D02*
D03*
Y-171091D02*
D03*
Y-165579D02*
D03*
X110654D02*
D03*
X116166D02*
D03*
X110654Y-171091D02*
D03*
D20*
X243631Y-254282D02*
D03*
Y-249361D02*
D03*
Y-244439D02*
D03*
Y-239518D02*
D03*
X234969D02*
D03*
Y-244439D02*
D03*
Y-249361D02*
D03*
Y-254282D02*
D03*
D21*
X36200Y-303900D02*
D03*
Y-295600D02*
D03*
D22*
X300095Y-219800D02*
D03*
X306000D02*
D03*
X300047Y-226500D02*
D03*
X305953D02*
D03*
X304653Y-274300D02*
D03*
X298747D02*
D03*
X41347Y-325746D02*
D03*
X47253D02*
D03*
D23*
X36200Y-274443D02*
D03*
Y-267357D02*
D03*
D24*
X35000Y-319953D02*
D03*
Y-326646D02*
D03*
D25*
X287553Y-250523D02*
D03*
X285584D02*
D03*
X283616D02*
D03*
X281647D02*
D03*
Y-259677D02*
D03*
X283616D02*
D03*
X285584D02*
D03*
X287553D02*
D03*
D26*
X281008Y-253132D02*
D03*
Y-255100D02*
D03*
Y-257068D02*
D03*
X288193D02*
D03*
Y-255100D02*
D03*
Y-253132D02*
D03*
D27*
X128873Y-277700D02*
D03*
Y-272700D02*
D03*
Y-267700D02*
D03*
Y-262700D02*
D03*
X100527D02*
D03*
Y-267700D02*
D03*
Y-272700D02*
D03*
Y-277700D02*
D03*
D28*
X58700Y-297195D02*
D03*
Y-303100D02*
D03*
Y-282649D02*
D03*
Y-276743D02*
D03*
X74400Y-59450D02*
D03*
Y-65355D02*
D03*
X81800Y-70695D02*
D03*
Y-76600D02*
D03*
X73200Y-34694D02*
D03*
Y-40600D02*
D03*
X82300Y-34694D02*
D03*
Y-40600D02*
D03*
D29*
X223500Y-250815D02*
D03*
Y-240185D02*
D03*
X147900Y-273300D02*
D03*
Y-262670D02*
D03*
D30*
X289015Y-277200D02*
D03*
X278385D02*
D03*
X287000Y-241300D02*
D03*
X276370D02*
D03*
D54*
X218003Y-254300D02*
X227600D01*
X232008Y-249892D01*
X216400Y-255800D02*
X216503D01*
X218003Y-254300D01*
X232008Y-249892D02*
X234438D01*
X234969Y-249361D01*
X220450Y-264150D02*
X230318Y-254282D01*
X217257Y-264150D02*
X220450D01*
X217150Y-264257D02*
X217257Y-264150D01*
X292334Y-255281D02*
X299118D01*
X292153Y-255100D02*
X292334Y-255281D01*
X288193Y-255100D02*
X292153D01*
X299118Y-255281D02*
X299300Y-255100D01*
X288193Y-253132D02*
X295069D01*
X299619Y-226928D02*
X300047Y-226500D01*
X299619Y-227987D02*
Y-226928D01*
X299834Y-220060D02*
X300095Y-219800D01*
X230318Y-254282D02*
X234969D01*
D55*
X213100Y-269000D02*
Y-254787D01*
X217072Y-250815D02*
X223500D01*
X213100Y-254787D02*
X217072Y-250815D01*
X57800Y-313100D02*
X63415Y-307485D01*
X47400Y-313100D02*
X57800D01*
X63415Y-307485D02*
Y-301516D01*
X196400Y-73500D02*
X198900D01*
X196400Y-63500D02*
X198900D01*
X196400Y-53500D02*
X197400Y-54500D01*
X196400Y-43500D02*
X198900D01*
X272200Y-25800D02*
X274500Y-23500D01*
X287200D01*
X189700Y-37827D02*
X193260Y-34266D01*
X189700Y-45400D02*
Y-37827D01*
X181203Y-53897D02*
X189700Y-45400D01*
X193260Y-34266D02*
X195634D01*
X196400Y-33500D01*
X175603Y-53897D02*
X181203D01*
X196400Y-23500D02*
X205400D01*
X208100Y-26200D01*
X173400Y-56100D02*
X175603Y-53897D01*
X74400Y-70600D02*
Y-65355D01*
Y-70600D02*
X77422Y-73623D01*
X85422D01*
X92500Y-80700D01*
X221700Y-140137D02*
Y-127200D01*
X220200Y-141800D02*
Y-141637D01*
X221700Y-140137D01*
X220090Y-141910D02*
X220200Y-141800D01*
X216341Y-141910D02*
X220090D01*
X216012Y-141580D02*
X216341Y-141910D01*
X137800Y-102200D02*
X196700D01*
X120803Y-85203D02*
X137800Y-102200D01*
X120635Y-85203D02*
X120803D01*
X196700Y-102200D02*
X221700Y-127200D01*
X116300Y-80700D02*
X117997Y-82397D01*
Y-82565D02*
X120635Y-85203D01*
X216393Y-131199D02*
Y-126604D01*
X117997Y-82565D02*
Y-82397D01*
X216393Y-126604D02*
X216592Y-126406D01*
X214390Y-132020D02*
X215572D01*
X216393Y-131199D01*
X205900Y-80500D02*
X214803D01*
X204102Y-195502D02*
Y-189302D01*
X199300Y-184500D02*
X204102Y-189302D01*
X200400Y-65000D02*
X206000D01*
X198900Y-63500D02*
X200400Y-65000D01*
X197849Y-165749D02*
X214141D01*
X193800Y-161700D02*
X197849Y-165749D01*
X75189Y-59022D02*
Y-56859D01*
X74761Y-59450D02*
X75189Y-59022D01*
Y-56859D02*
X88520Y-43528D01*
X73785Y-59022D02*
X74213Y-59450D01*
X53957Y-36858D02*
X73785Y-56685D01*
Y-59022D02*
Y-56685D01*
X74213Y-59450D02*
X74794D01*
X32698Y-36858D02*
X53957D01*
X79886Y-43528D02*
X88520D01*
X92900Y-39148D01*
X291191Y-241500D02*
X292603Y-242912D01*
X287200Y-241500D02*
X291191D01*
X292603Y-242912D02*
X292812D01*
X287000Y-241300D02*
X287200Y-241500D01*
X287487Y-177776D02*
X288600Y-178889D01*
X284044Y-177776D02*
X287487D01*
X283288Y-177020D02*
X284044Y-177776D01*
X288600Y-209400D02*
Y-178889D01*
Y-209400D02*
X291100Y-211900D01*
X294500D01*
X293057Y-229566D02*
X293461Y-229162D01*
X157500Y-154900D02*
Y-148600D01*
X151500Y-140467D02*
X152210Y-141177D01*
Y-143310D02*
Y-141177D01*
Y-143310D02*
X157500Y-148600D01*
Y-154900D02*
X196334Y-193734D01*
X290275Y-226325D02*
Y-223925D01*
X286200Y-230400D02*
X296300Y-240500D01*
X286200Y-230400D02*
X290275Y-226325D01*
Y-223925D02*
X294140Y-220060D01*
X296300Y-251900D02*
Y-240500D01*
X198534Y-193734D02*
X199300Y-194500D01*
X196334Y-193734D02*
X198534D01*
X109615Y-193478D02*
X111037Y-194900D01*
X111300D01*
X70300Y-191800D02*
X71481D01*
X73159Y-193478D01*
X109615D01*
X295069Y-253132D02*
X296300Y-251900D01*
X293461Y-229162D02*
X299300Y-235000D01*
Y-255100D02*
Y-235000D01*
X298445Y-229162D02*
X299619Y-227987D01*
X293461Y-229162D02*
X298445D01*
X294140Y-220060D02*
X299834D01*
X273500Y-167200D02*
X283668D01*
X274300Y-141000D02*
X282268D01*
X274243Y-140943D02*
X274300Y-141000D01*
X277239Y-133292D02*
X282016D01*
X248446Y-157217D02*
X253314D01*
X277239Y-133292D01*
X242934Y-157217D02*
X248446D01*
X291600Y-202687D02*
Y-144691D01*
X316111Y-203800D02*
X328600Y-216289D01*
X292713Y-203800D02*
X316111D01*
X291600Y-202687D02*
X292713Y-203800D01*
X305953Y-226500D02*
X305976Y-226476D01*
X305300Y-227153D02*
X305953Y-226500D01*
X100600Y-291200D02*
Y-277773D01*
Y-291700D02*
Y-291200D01*
X47326Y-325673D02*
Y-313174D01*
X47400Y-313100D01*
X47253Y-325746D02*
X47326Y-325673D01*
X59522Y-297622D02*
X63415Y-301516D01*
X59128Y-297622D02*
X59522D01*
X58700Y-297195D02*
X59128Y-297622D01*
X71481Y-201800D02*
X72303Y-202622D01*
Y-204362D02*
X73989Y-206048D01*
Y-206590D02*
X74200Y-206800D01*
X73989Y-206590D02*
Y-206048D01*
X72303Y-204362D02*
Y-202622D01*
X195600Y-180800D02*
X199300Y-184500D01*
X209799Y-201199D02*
X213569D01*
X204102Y-195502D02*
X209799Y-201199D01*
X213569D02*
X214390Y-202020D01*
X140128Y-201800D02*
X140800Y-202472D01*
X121600Y-241700D02*
X140800Y-222500D01*
Y-202472D01*
X104321Y-178979D02*
Y-177425D01*
X105142Y-176603D01*
X101900Y-181400D02*
X104321Y-178979D01*
X188800Y-287484D02*
Y-278300D01*
Y-287484D02*
X194016Y-292700D01*
X195100D01*
X188800Y-278300D02*
X196832Y-270268D01*
X200505D01*
X201773Y-269000D02*
X203100D01*
X200505Y-270268D02*
X201773Y-269000D01*
X196770Y-262670D02*
X203100Y-269000D01*
X255161Y-244439D02*
X264300Y-235300D01*
X282181D02*
X287000Y-240119D01*
X264300Y-235300D02*
X282181D01*
X110654Y-176603D02*
X116166D01*
X287000Y-241300D02*
Y-240119D01*
X222319Y-240185D02*
X223500D01*
X203100Y-259404D02*
X222319Y-240185D01*
X105142Y-176603D02*
X110654D01*
X216785Y-240185D02*
X222319D01*
X212700Y-236100D02*
X216785Y-240185D01*
X105142Y-165579D02*
X110654D01*
X243631Y-244439D02*
X255161D01*
X234969Y-239518D02*
X243631D01*
X223500Y-240185D02*
X224167Y-239518D01*
X147900Y-262670D02*
X196770D01*
X138327Y-200930D02*
X139198Y-201800D01*
X116166Y-188966D02*
Y-176603D01*
X105142D02*
Y-171091D01*
X243631Y-244439D02*
Y-239518D01*
X147870Y-262700D02*
X147900Y-262670D01*
X116166Y-188966D02*
X128130Y-200930D01*
X110654Y-165579D02*
X116166D01*
X105142Y-171091D02*
X110654D01*
X128873Y-262700D02*
X147870D01*
X126905D02*
X128873D01*
X116166Y-171091D02*
Y-165579D01*
X224167Y-239518D02*
X234969D01*
X121600Y-257395D02*
X126905Y-262700D01*
X128130Y-200930D02*
X138327D01*
X203100Y-269000D02*
Y-259404D01*
X121600Y-257395D02*
Y-241700D01*
X116166Y-176603D02*
Y-171091D01*
X318822Y-143578D02*
X329300Y-133100D01*
Y-92700D01*
X292713Y-143578D02*
X318822D01*
X291600Y-144691D02*
X292713Y-143578D01*
X284169Y-172300D02*
X288300D01*
X294746Y-284600D02*
X304653Y-274694D01*
X278385Y-278381D02*
X284604Y-284600D01*
X294746D01*
X55000Y-331600D02*
X60800Y-325800D01*
X32900Y-331600D02*
X55000D01*
X23500Y-322200D02*
X32900Y-331600D01*
X125600Y-191900D02*
Y-182500D01*
X129228Y-195528D02*
X137926D01*
X125600Y-191900D02*
X129228Y-195528D01*
X139198Y-196800D02*
X144387D01*
X137926Y-195528D02*
X139198Y-196800D01*
X144387D02*
X145500Y-197913D01*
Y-232253D02*
Y-197913D01*
X136053Y-241700D02*
X145500Y-232253D01*
X172300Y-127200D02*
Y-122336D01*
X172618Y-122018D01*
X162000Y-137500D02*
X172300Y-127200D01*
X131600Y-241700D02*
X136053D01*
X11056Y-31960D02*
X13333Y-34237D01*
X10650Y-31960D02*
X11056D01*
X13333Y-34237D02*
X14737D01*
X32600Y-52100D01*
X126287Y-31200D02*
X127400Y-32313D01*
Y-37280D02*
X127403Y-37283D01*
X127400Y-41016D02*
X127403Y-41013D01*
X127400Y-45200D02*
Y-41016D01*
X85428Y-37672D02*
X91900Y-31200D01*
X127400Y-37280D02*
Y-32313D01*
X127403Y-41013D02*
Y-37283D01*
X91900Y-31200D02*
X126287D01*
X79886Y-37672D02*
X85428D01*
X78978Y-42620D02*
X79886Y-43528D01*
X78978Y-42620D02*
Y-38580D01*
X79886Y-37672D01*
X170947Y-53647D02*
X173400Y-56100D01*
X132700Y-50500D02*
X167800D01*
X74794Y-59450D02*
X80528Y-65184D01*
X127400Y-45200D02*
X132700Y-50500D01*
X167800D02*
X170947Y-53647D01*
X170947D01*
X80528Y-69816D02*
X81406Y-70695D01*
X80528Y-69816D02*
Y-65184D01*
X81406Y-70695D02*
X81800D01*
X173400Y-56100D02*
Y-56100D01*
X163400Y-62700D02*
Y-56100D01*
Y-62700D02*
X166300Y-65600D01*
X78995Y-31783D02*
X81906Y-34694D01*
X77683Y-31783D02*
X78995D01*
X77300Y-31400D02*
X77683Y-31783D01*
X73200Y-34694D02*
X81906D01*
X82300D01*
X92500Y-80700D02*
X116300D01*
X286900Y-267313D02*
X289015Y-269428D01*
X286900Y-267313D02*
Y-267300D01*
X289015Y-277200D02*
Y-269428D01*
X32600Y-58410D02*
Y-52100D01*
X26890Y-58410D02*
X32600D01*
X6000Y-79300D02*
X26890Y-58410D01*
X268200Y-207100D02*
X282329D01*
X152439Y-154311D02*
Y-151406D01*
Y-154311D02*
X198361Y-200234D01*
X151500Y-150467D02*
X152439Y-151406D01*
X198361Y-203561D02*
X199300Y-204500D01*
X198361Y-203561D02*
Y-200234D01*
X189600Y-180800D02*
X195600D01*
X148600Y-274000D02*
X157700D01*
X147900Y-273300D02*
X148600Y-274000D01*
X146719Y-273300D02*
X147900D01*
X128873Y-267700D02*
X141119D01*
X146719Y-273300D01*
X70300Y-201800D02*
X71481D01*
X237422Y-157217D02*
Y-135222D01*
X228300Y-126100D02*
X237422Y-135222D01*
X214141Y-165749D02*
X215492Y-167100D01*
X312170Y-323100D02*
X332500Y-302770D01*
X247400Y-323100D02*
X312170D01*
X213100Y-288800D02*
X247400Y-323100D01*
X213100Y-288800D02*
Y-269000D01*
X278385Y-278381D02*
Y-277200D01*
X325300Y-254700D02*
X325683D01*
X327613Y-252770D02*
X332500D01*
X325683Y-254700D02*
X327613Y-252770D01*
X304653Y-274300D02*
X305300Y-273653D01*
Y-227153D01*
X304653Y-274694D02*
Y-274300D01*
X332500Y-252770D02*
Y-242771D01*
X328600Y-238871D02*
X332500Y-242771D01*
X328600Y-238871D02*
Y-228100D01*
X243631Y-249361D02*
X255970D01*
X264031Y-241300D01*
X276370D01*
X242647Y-249361D02*
X243631D01*
Y-254282D02*
Y-249361D01*
X195100Y-282700D02*
X199400D01*
X213100Y-269000D01*
X332500Y-252770D02*
X338400Y-258670D01*
Y-306870D02*
Y-258670D01*
X332500Y-312770D02*
X338400Y-306870D01*
X307272Y-218528D02*
X309511Y-216289D01*
X328600D01*
X306000Y-219800D02*
Y-219406D01*
X306878Y-218528D01*
X307272D01*
X305976Y-219824D02*
X306000Y-219800D01*
X305976Y-226476D02*
Y-219824D01*
X242934Y-168241D02*
X248446D01*
X237422D02*
X242934D01*
X237422D02*
Y-162729D01*
Y-157217D01*
X242934D01*
Y-162729D02*
X248446D01*
Y-168241D02*
Y-162729D01*
X282016Y-133292D02*
X283288Y-132020D01*
X283009Y-157300D02*
X283288Y-157020D01*
X275600Y-157300D02*
X283009D01*
X282268Y-141000D02*
X283288Y-142020D01*
X310869Y-132020D02*
X311289Y-131600D01*
X283288Y-132020D02*
X310869D01*
X158533Y-137500D02*
X162000D01*
X151500Y-130467D02*
X158533Y-137500D01*
X140469Y-130528D02*
X151439D01*
X139198Y-131800D02*
X140469Y-130528D01*
X70700Y-176400D02*
X78300D01*
X112590Y-272700D02*
X117590Y-267700D01*
X128873D01*
X100527Y-272700D02*
X112590D01*
X83751Y-308549D02*
X100600Y-291700D01*
X100527Y-277700D02*
X100600Y-277773D01*
X100527Y-277700D02*
Y-272700D01*
X58700Y-297195D02*
Y-282649D01*
X67051Y-308549D02*
X83751D01*
X60800Y-325800D02*
Y-314800D01*
X67051Y-308549D01*
X46859Y-313100D02*
X47400D01*
X23500Y-312200D02*
X45959D01*
X46859Y-313100D01*
X70800Y-330300D02*
Y-325800D01*
Y-330300D02*
X75500Y-335000D01*
X87000D01*
X96000D01*
X100747Y-330253D01*
Y-325853D01*
X100800Y-325800D01*
X36200Y-295600D02*
X41617Y-290183D01*
Y-288883D01*
X42000Y-288700D02*
Y-288500D01*
X41617Y-288883D02*
X42000Y-288500D01*
X197400Y-54500D02*
X211200D01*
X202800Y-47400D02*
X205500D01*
X198900Y-43500D02*
X202800Y-47400D01*
X198900Y-73500D02*
X205900Y-80500D01*
D56*
X72600Y-76600D02*
X81800D01*
X62600Y-66600D02*
X72600Y-76600D01*
X62600Y-66600D02*
Y-58410D01*
X276370Y-259492D02*
X280094D01*
X278722Y-254049D02*
X279771Y-253000D01*
X280800D01*
X278722Y-258120D02*
Y-254049D01*
X280094Y-259492D02*
X281462D01*
X278722Y-258120D02*
X280094Y-259492D01*
X281462D02*
X281647Y-259677D01*
X276370Y-274004D02*
Y-259492D01*
Y-274004D02*
X278385Y-276019D01*
X276370Y-259492D02*
Y-241300D01*
X278385Y-277200D02*
Y-276019D01*
X281008Y-257068D02*
Y-255100D01*
X284132Y-257068D02*
X285458Y-255742D01*
X281008Y-257068D02*
X284132D01*
X285458Y-255742D02*
Y-250650D01*
X285584Y-250523D01*
X287480D01*
X287000Y-250043D02*
X287480Y-250523D01*
X287000Y-250043D02*
Y-241300D01*
X287480Y-250523D02*
X287553D01*
X283616D02*
X285584D01*
X243631Y-254628D02*
Y-254282D01*
X243715Y-256885D02*
Y-254713D01*
X242100Y-258500D02*
X243715Y-256885D01*
X243631Y-254628D02*
X243715Y-254713D01*
X74700Y-45800D02*
Y-45259D01*
X73200Y-43759D02*
X74700Y-45259D01*
X73200Y-43759D02*
Y-40600D01*
X81800Y-80500D02*
X88200Y-86900D01*
X81800Y-80500D02*
Y-76600D01*
X66441Y-40600D02*
X73200D01*
X62698Y-36858D02*
X66441Y-40600D01*
D57*
X205571Y-131071D02*
X210533Y-136033D01*
X202256Y-131071D02*
X205571D01*
X199250Y-128200D02*
X199385D01*
X202256Y-131071D01*
X213403Y-136033D02*
X214390Y-137020D01*
X210533Y-136033D02*
X213403D01*
D58*
X287200Y-93500D02*
D03*
Y-83500D02*
D03*
Y-73500D02*
D03*
Y-63500D02*
D03*
Y-53500D02*
D03*
Y-43500D02*
D03*
Y-33500D02*
D03*
X332500Y-252770D02*
D03*
Y-262770D02*
D03*
Y-272770D02*
D03*
Y-282770D02*
D03*
Y-302770D02*
D03*
Y-292770D02*
D03*
X163400Y-56100D02*
D03*
X153400D02*
D03*
X143400D02*
D03*
X133400D02*
D03*
X199300Y-174500D02*
D03*
Y-184500D02*
D03*
Y-194500D02*
D03*
Y-204500D02*
D03*
Y-214500D02*
D03*
X92900Y-39148D02*
D03*
X122900D02*
D03*
X92900Y-19148D02*
D03*
X122900D02*
D03*
X329300Y-72700D02*
D03*
Y-62700D02*
D03*
Y-52700D02*
D03*
Y-42700D02*
D03*
Y-32700D02*
D03*
Y-22700D02*
D03*
Y-12700D02*
D03*
Y-82700D02*
D03*
X196400Y-83500D02*
D03*
Y-73500D02*
D03*
Y-63500D02*
D03*
Y-53500D02*
D03*
Y-43500D02*
D03*
Y-33500D02*
D03*
Y-23500D02*
D03*
X23500Y-272200D02*
D03*
Y-282200D02*
D03*
Y-292200D02*
D03*
Y-302200D02*
D03*
Y-312200D02*
D03*
Y-322200D02*
D03*
Y-332200D02*
D03*
X263300Y-252770D02*
D03*
Y-262770D02*
D03*
Y-272770D02*
D03*
Y-282770D02*
D03*
Y-302770D02*
D03*
Y-292770D02*
D03*
X100800Y-325800D02*
D03*
X90800D02*
D03*
X80800D02*
D03*
X70800D02*
D03*
X60800D02*
D03*
X121600Y-241700D02*
D03*
X111600D02*
D03*
X101600D02*
D03*
X91600D02*
D03*
X81600D02*
D03*
X195100Y-292700D02*
D03*
Y-302700D02*
D03*
Y-312700D02*
D03*
Y-322700D02*
D03*
Y-332700D02*
D03*
X180600Y-241200D02*
D03*
X170600D02*
D03*
X160600D02*
D03*
X203100Y-269000D02*
D03*
X32698Y-36858D02*
D03*
X62698D02*
D03*
X32698Y-16858D02*
D03*
X62698D02*
D03*
X122500Y-60700D02*
D03*
X92500D02*
D03*
X122500Y-80700D02*
D03*
X92500D02*
D03*
X32600Y-78410D02*
D03*
X62600D02*
D03*
X32600Y-58410D02*
D03*
X62600D02*
D03*
D59*
X287200Y-23500D02*
D03*
X332500Y-312770D02*
D03*
X199300Y-224500D02*
D03*
X329300Y-92700D02*
D03*
X196400Y-93500D02*
D03*
X23500Y-262200D02*
D03*
X263300Y-312770D02*
D03*
X195100Y-282700D02*
D03*
D60*
X173400Y-56100D02*
D03*
X110800Y-325800D02*
D03*
X131600Y-241700D02*
D03*
X150600Y-241200D02*
D03*
X213100Y-269000D02*
D03*
D61*
X334911Y-139316D02*
D03*
X299478D02*
D03*
X336316Y-204478D02*
D03*
Y-239911D02*
D03*
D62*
X323100Y-131600D02*
D03*
X328600Y-216289D02*
D03*
D63*
X311289Y-131600D02*
D03*
D64*
X151500Y-180467D02*
D03*
Y-170467D02*
D03*
Y-160467D02*
D03*
Y-150467D02*
D03*
Y-140467D02*
D03*
Y-130467D02*
D03*
D65*
Y-120467D02*
D03*
D66*
X38100Y-223000D02*
D03*
X160000Y-320000D02*
D03*
Y-23700D02*
D03*
X319900Y-171800D02*
D03*
X38100Y-127400D02*
D03*
D67*
X328600Y-228100D02*
D03*
D68*
X216400Y-255800D02*
D03*
X227300Y-185962D02*
D03*
X230259Y-181826D02*
D03*
X217150Y-264257D02*
D03*
X220200Y-141800D02*
D03*
X216592Y-126406D02*
D03*
X262807Y-162007D02*
D03*
X214803Y-80500D02*
D03*
X207393Y-194163D02*
D03*
X207800Y-179800D02*
D03*
X206000Y-65000D02*
D03*
X199250Y-128200D02*
D03*
X193800Y-161700D02*
D03*
X271572Y-156907D02*
D03*
X292812Y-242912D02*
D03*
X294500Y-211900D02*
D03*
X293057Y-229566D02*
D03*
X85888Y-168412D02*
D03*
X78750Y-158900D02*
D03*
X286200Y-230400D02*
D03*
X273500Y-167200D02*
D03*
X274243Y-140943D02*
D03*
X233300Y-179900D02*
D03*
X43500Y-318500D02*
D03*
X242100Y-258500D02*
D03*
X288300Y-172300D02*
D03*
X172618Y-122018D02*
D03*
X10650Y-31960D02*
D03*
X125600Y-182500D02*
D03*
X168300Y-88100D02*
D03*
X168500Y-92800D02*
D03*
X153700Y-96100D02*
D03*
X166300Y-65600D02*
D03*
X77300Y-31400D02*
D03*
X286900Y-267300D02*
D03*
X6000Y-79300D02*
D03*
X268200Y-207100D02*
D03*
X189600Y-180800D02*
D03*
X128000Y-132200D02*
D03*
X98600Y-189200D02*
D03*
X85846D02*
D03*
X111300Y-194900D02*
D03*
X78100Y-188400D02*
D03*
X225400Y-172800D02*
D03*
X212700Y-236100D02*
D03*
X157700Y-274000D02*
D03*
X209600Y-283500D02*
D03*
X74200Y-206800D02*
D03*
X101900Y-181400D02*
D03*
X88400Y-199000D02*
D03*
X80900Y-223000D02*
D03*
X228300Y-126100D02*
D03*
X325300Y-254700D02*
D03*
X207400Y-205700D02*
D03*
X275600Y-157300D02*
D03*
X272200Y-25800D02*
D03*
X208100Y-26200D02*
D03*
X162000Y-137500D02*
D03*
X74700Y-45800D02*
D03*
X78300Y-176400D02*
D03*
Y-184400D02*
D03*
X127200Y-212600D02*
D03*
X100600Y-291200D02*
D03*
X47400Y-313100D02*
D03*
X87000Y-335000D02*
D03*
X42000Y-288500D02*
D03*
X255400Y-196800D02*
D03*
X176900Y-270000D02*
D03*
X181500Y-273400D02*
D03*
X89900Y-266700D02*
D03*
X129900Y-156500D02*
D03*
Y-145800D02*
D03*
X88200Y-86900D02*
D03*
X185000Y-275700D02*
D03*
X132500Y-190400D02*
D03*
X79589Y-227989D02*
D03*
X76000Y-138400D02*
D03*
X75500Y-153300D02*
D03*
X211200Y-54500D02*
D03*
X77400Y-163500D02*
D03*
X289200Y-137500D02*
D03*
X146200Y-158700D02*
D03*
X47600Y-261700D02*
D03*
X205500Y-47400D02*
D03*
X117200Y-277600D02*
D03*
X109400Y-277700D02*
D03*
M02*
