G04*
G04 #@! TF.GenerationSoftware,Altium Limited,Altium Designer,22.2.1 (43)*
G04*
G04 Layer_Color=16711935*
%FSLAX25Y25*%
%MOIN*%
G70*
G04*
G04 #@! TF.SameCoordinates,BF82E168-2CF8-4A2D-AB3A-859FEF8C30B5*
G04*
G04*
G04 #@! TF.FilePolarity,Positive*
G04*
G01*
G75*
%ADD10C,0.00394*%
%ADD12C,0.01181*%
%ADD14C,0.01000*%
%ADD15C,0.00787*%
%ADD17C,0.00500*%
%ADD76C,0.00100*%
%ADD77C,0.00400*%
G36*
X36854Y-324631D02*
Y-326607D01*
X33110D01*
Y-324631D01*
X36854D01*
D02*
G37*
G36*
X36852Y-320031D02*
Y-321999D01*
X33110D01*
Y-320031D01*
X36852D01*
D02*
G37*
D10*
X213406Y-226351D02*
Y-102729D01*
X284272D01*
Y-226351D02*
Y-102729D01*
X213406Y-226351D02*
X284272D01*
X158508Y-185467D02*
Y-115467D01*
X144492Y-185467D02*
X158508D01*
X144492D02*
Y-115467D01*
X158508D01*
X140182Y-231091D02*
Y-107469D01*
X69316Y-231091D02*
X140182D01*
X69316D02*
Y-107469D01*
X140182D01*
X299701Y-221670D02*
Y-217930D01*
X306394Y-221670D02*
Y-217930D01*
X299701D02*
X306394D01*
X299701Y-221670D02*
X306394D01*
X299654Y-228370D02*
Y-224630D01*
X306347Y-228370D02*
Y-224630D01*
X299654D02*
X306347D01*
X299654Y-228370D02*
X306347D01*
X33739Y-274837D02*
Y-266963D01*
X38661D01*
Y-274837D02*
Y-266963D01*
X33739Y-274837D02*
X38661D01*
X33739Y-273195D02*
X35381Y-274837D01*
X4630Y-88354D02*
X8370D01*
X4630Y-95047D02*
X8370D01*
X4630D02*
Y-88354D01*
X8370Y-95047D02*
Y-88354D01*
X104306Y-280594D02*
X125094D01*
X104306D02*
Y-259806D01*
X125094D01*
Y-280594D02*
Y-259806D01*
X120094Y-280594D02*
X125094Y-275594D01*
X305006Y-70830D02*
X311699D01*
X305006Y-74570D02*
X311699D01*
Y-70830D01*
X305006Y-74570D02*
Y-70830D01*
X174206Y-102170D02*
X180899D01*
X174206Y-98430D02*
X180899D01*
X174206Y-102170D02*
Y-98430D01*
X180899Y-102170D02*
Y-98430D01*
X171507Y-77543D02*
Y-70457D01*
X184893Y-77543D02*
Y-70457D01*
X171507Y-77543D02*
X184893D01*
X171507Y-70457D02*
X184893D01*
X60570Y-303494D02*
Y-296801D01*
X56830Y-303494D02*
Y-296801D01*
X60570D01*
X56830Y-303494D02*
X60570D01*
X80792Y-290957D02*
X94178D01*
X80792Y-298043D02*
X94178D01*
Y-290957D01*
X80792Y-298043D02*
Y-290957D01*
X305047Y-276170D02*
Y-272430D01*
X298354Y-276170D02*
Y-272430D01*
Y-276170D02*
X305047D01*
X298354Y-272430D02*
X305047D01*
X219957Y-252193D02*
Y-238807D01*
X227043Y-252193D02*
Y-238807D01*
X219957Y-252193D02*
X227043D01*
X219957Y-238807D02*
X227043D01*
X56830Y-283043D02*
Y-276350D01*
X60570Y-283043D02*
Y-276350D01*
X56830Y-283043D02*
X60570D01*
X56830Y-276350D02*
X60570D01*
X40954Y-327617D02*
Y-323876D01*
X47646Y-327617D02*
Y-323876D01*
X40954D02*
X47646D01*
X40954Y-327617D02*
X47646D01*
X290393Y-280743D02*
Y-273657D01*
X277007Y-280743D02*
Y-273657D01*
Y-280743D02*
X290393D01*
X277007Y-273657D02*
X290393D01*
X288378Y-244843D02*
Y-237757D01*
X274992Y-244843D02*
Y-237757D01*
Y-244843D02*
X288378D01*
X274992Y-237757D02*
X288378D01*
X144357Y-274678D02*
Y-261292D01*
X151443Y-274678D02*
Y-261292D01*
X144357Y-274678D02*
X151443D01*
X144357Y-261292D02*
X151443D01*
X72530Y-59056D02*
X76270D01*
X72530Y-65749D02*
X76270D01*
Y-59056D01*
X72530Y-65749D02*
Y-59056D01*
X79930Y-70301D02*
X83670D01*
X79930Y-76994D02*
X83670D01*
Y-70301D01*
X79930Y-76994D02*
Y-70301D01*
X71330Y-34301D02*
X75070D01*
X71330Y-40994D02*
X75070D01*
Y-34301D01*
X71330Y-40994D02*
Y-34301D01*
X80430D02*
X84170D01*
X80430Y-40994D02*
X84170D01*
Y-34301D01*
X80430Y-40994D02*
Y-34301D01*
D12*
X4422Y-57678D02*
X3635D01*
X4422D01*
Y-18731D02*
X3635D01*
X4422D01*
D14*
X233395Y-256152D02*
X245205D01*
X233395D02*
Y-237648D01*
X245205D01*
Y-256152D02*
Y-237648D01*
D15*
X336191Y-141324D02*
Y-119395D01*
X298198D02*
X336191D01*
X298198Y-141324D02*
Y-119395D01*
Y-141324D02*
X336191D01*
X91758Y-13006D02*
X124042D01*
Y-45290D02*
Y-13006D01*
X91758Y-45290D02*
X124042D01*
X91758D02*
Y-13006D01*
X31557Y-10716D02*
X63840D01*
Y-42999D02*
Y-10716D01*
X31557Y-42999D02*
X63840D01*
X31557D02*
Y-10716D01*
X289521Y-261005D02*
Y-249195D01*
X279679Y-261005D02*
X289521D01*
X279679D02*
Y-249195D01*
X289521D01*
X316395Y-203198D02*
X338324D01*
X316395Y-241191D02*
Y-203198D01*
Y-241191D02*
X338324D01*
Y-203198D01*
X171619Y-94130D02*
X183430D01*
Y-82319D01*
X171619D02*
X183430D01*
X171619Y-94130D02*
Y-82319D01*
X91358Y-86842D02*
Y-54558D01*
Y-86842D02*
X123642D01*
Y-54558D01*
X91358D02*
X123642D01*
X63742Y-84551D02*
Y-52268D01*
X31458D02*
X63742D01*
X31458Y-84551D02*
Y-52268D01*
Y-84551D02*
X63742D01*
D17*
X6824Y-79135D02*
Y-55513D01*
Y-79135D02*
X23556D01*
Y-55513D01*
X6824D02*
X23556D01*
X6824Y-16565D02*
X23556D01*
Y-40187D02*
Y-16565D01*
X6824Y-40187D02*
X23556D01*
X6824D02*
Y-16565D01*
D76*
X36200Y-315250D02*
Y-310250D01*
X33700Y-314250D02*
X38700D01*
X33700Y-311250D02*
X36200Y-314250D01*
X34200Y-311250D02*
X36200Y-314250D01*
X34700Y-311250D02*
X36200Y-314250D01*
X35200Y-311250D02*
X36200Y-314250D01*
X35700Y-311250D02*
X36200Y-314250D01*
X38700Y-311250D01*
X36200Y-314250D02*
X38200Y-311250D01*
X36200Y-314250D02*
X37700Y-311250D01*
X36200Y-314250D02*
X37200Y-311250D01*
X36200Y-314250D02*
X36700Y-311250D01*
X33700D02*
X38700D01*
X38650Y-303700D02*
Y-295800D01*
X33750D02*
X38650D01*
X33750Y-303700D02*
Y-295800D01*
Y-303700D02*
X38650D01*
D77*
X36650Y-324702D02*
Y-321898D01*
X33299Y-324702D02*
Y-321898D01*
M02*
