G04*
G04 #@! TF.GenerationSoftware,Altium Limited,Altium Designer,22.2.1 (43)*
G04*
G04 Layer_Color=16711935*
%FSLAX25Y25*%
%MOIN*%
G70*
G04*
G04 #@! TF.SameCoordinates,91E75CD4-E1FE-4043-AE3D-700B569F0639*
G04*
G04*
G04 #@! TF.FilePolarity,Negative*
G04*
G01*
G75*
%ADD29R,0.03556X0.04343*%
%ADD38R,0.04343X0.03556*%
%ADD40R,0.05131X0.07493*%
%ADD41C,0.06706*%
%ADD42R,0.06706X0.06706*%
%ADD43R,0.06706X0.06706*%
%ADD44C,0.03300*%
%ADD45C,0.06824*%
%ADD46R,0.06824X0.06824*%
%ADD47C,0.06410*%
%ADD48R,0.06410X0.06410*%
%ADD49C,0.06800*%
%ADD50R,0.06824X0.06824*%
%ADD51C,0.03800*%
%ADD72R,0.08600X0.03000*%
%ADD73R,0.07887X0.05524*%
%ADD74R,0.06902X0.03162*%
%ADD75R,0.02375X0.02375*%
D29*
X310906Y-84500D02*
D03*
X305000D02*
D03*
D38*
X195700Y-214600D02*
D03*
Y-208695D02*
D03*
X13800Y-97000D02*
D03*
Y-102905D02*
D03*
X166800Y-167253D02*
D03*
Y-161347D02*
D03*
D40*
X171170Y-213500D02*
D03*
X181800D02*
D03*
X177185Y-149000D02*
D03*
X187815D02*
D03*
X92400Y-306300D02*
D03*
X81770D02*
D03*
D41*
X76900Y-73400D02*
D03*
X46900D02*
D03*
X76900Y-93400D02*
D03*
X46900D02*
D03*
X76900Y-30948D02*
D03*
X46900D02*
D03*
X76900Y-50948D02*
D03*
X46900D02*
D03*
X286800Y-105300D02*
D03*
Y-95300D02*
D03*
Y-85300D02*
D03*
Y-75300D02*
D03*
Y-65300D02*
D03*
Y-55300D02*
D03*
Y-45300D02*
D03*
X332100Y-264570D02*
D03*
Y-274570D02*
D03*
Y-284570D02*
D03*
Y-294570D02*
D03*
Y-314570D02*
D03*
Y-304570D02*
D03*
X163000Y-67900D02*
D03*
X153000D02*
D03*
X143000D02*
D03*
X133000D02*
D03*
X92500Y-50948D02*
D03*
X122500D02*
D03*
X92500Y-30948D02*
D03*
X122500D02*
D03*
X328900Y-84500D02*
D03*
Y-74500D02*
D03*
Y-64500D02*
D03*
Y-54500D02*
D03*
Y-44500D02*
D03*
Y-34500D02*
D03*
Y-24500D02*
D03*
Y-94500D02*
D03*
X196000Y-95300D02*
D03*
Y-85300D02*
D03*
Y-75300D02*
D03*
Y-65300D02*
D03*
Y-55300D02*
D03*
Y-45300D02*
D03*
Y-35300D02*
D03*
X23100Y-284000D02*
D03*
Y-294000D02*
D03*
Y-304000D02*
D03*
Y-314000D02*
D03*
Y-324000D02*
D03*
Y-334000D02*
D03*
Y-344000D02*
D03*
X262900Y-264570D02*
D03*
Y-274570D02*
D03*
Y-284570D02*
D03*
Y-294570D02*
D03*
Y-314570D02*
D03*
Y-304570D02*
D03*
X100400Y-337600D02*
D03*
X90400D02*
D03*
X80400D02*
D03*
X70400D02*
D03*
X60400D02*
D03*
X121200Y-253500D02*
D03*
X111200D02*
D03*
X101200D02*
D03*
X91200D02*
D03*
X81200D02*
D03*
X194700Y-304500D02*
D03*
Y-314500D02*
D03*
Y-324500D02*
D03*
Y-334500D02*
D03*
Y-344500D02*
D03*
X180200Y-253000D02*
D03*
X170200D02*
D03*
X160200D02*
D03*
X202700Y-280800D02*
D03*
X122100Y-72500D02*
D03*
X92100D02*
D03*
X122100Y-92500D02*
D03*
X92100D02*
D03*
D42*
X286800Y-35300D02*
D03*
X332100Y-324570D02*
D03*
X328900Y-104500D02*
D03*
X196000Y-105300D02*
D03*
X23100Y-274000D02*
D03*
X262900Y-324570D02*
D03*
X194700Y-294500D02*
D03*
D43*
X173000Y-67900D02*
D03*
X110400Y-337600D02*
D03*
X131200Y-253500D02*
D03*
X150200Y-253000D02*
D03*
X212700Y-280800D02*
D03*
D44*
X334511Y-151117D02*
D03*
X299078D02*
D03*
X335916Y-216278D02*
D03*
Y-251711D02*
D03*
D45*
X322700Y-143400D02*
D03*
X328200Y-228089D02*
D03*
D46*
X310889Y-143400D02*
D03*
D47*
X151100Y-192267D02*
D03*
Y-182267D02*
D03*
Y-172267D02*
D03*
Y-162267D02*
D03*
Y-152267D02*
D03*
Y-142267D02*
D03*
D48*
Y-132267D02*
D03*
D49*
X37700Y-234800D02*
D03*
X159600Y-331800D02*
D03*
Y-35500D02*
D03*
X319500Y-183600D02*
D03*
X37700Y-139200D02*
D03*
D50*
X328200Y-239900D02*
D03*
D51*
X6800Y-67500D02*
D03*
X2600Y-106600D02*
D03*
X7100Y-100400D02*
D03*
X29000Y-105200D02*
D03*
X4200Y-28200D02*
D03*
X199500Y-135800D02*
D03*
X153300Y-107900D02*
D03*
X81600Y-98300D02*
D03*
X82700Y-23200D02*
D03*
X166300Y-147700D02*
D03*
X111400Y-204300D02*
D03*
X129500Y-168300D02*
D03*
X125200Y-194300D02*
D03*
X273843Y-152743D02*
D03*
X216000Y-267600D02*
D03*
X216750Y-276057D02*
D03*
X216192Y-138206D02*
D03*
X292412Y-254712D02*
D03*
X292657Y-241366D02*
D03*
X285800Y-242200D02*
D03*
X165900Y-77400D02*
D03*
X286500Y-279100D02*
D03*
X127600Y-144000D02*
D03*
X98200Y-201000D02*
D03*
X85446D02*
D03*
X212300Y-247900D02*
D03*
X157300Y-285800D02*
D03*
X73800Y-218600D02*
D03*
X101500Y-193200D02*
D03*
X88000Y-210800D02*
D03*
X227900Y-137900D02*
D03*
X324900Y-266500D02*
D03*
X275200Y-169100D02*
D03*
X271800Y-37600D02*
D03*
X207700Y-38000D02*
D03*
X77900Y-188200D02*
D03*
X100200Y-303000D02*
D03*
X47000Y-324900D02*
D03*
X86600Y-346800D02*
D03*
X129500Y-157600D02*
D03*
D72*
X166600Y-188000D02*
D03*
Y-193000D02*
D03*
Y-198000D02*
D03*
Y-203000D02*
D03*
X186000D02*
D03*
Y-198000D02*
D03*
Y-193000D02*
D03*
Y-188000D02*
D03*
D73*
X25056Y-90586D02*
D03*
Y-68538D02*
D03*
Y-28901D02*
D03*
Y-50948D02*
D03*
D74*
X9800Y-73656D02*
D03*
Y-77593D02*
D03*
Y-81530D02*
D03*
Y-85467D02*
D03*
Y-45830D02*
D03*
Y-41893D02*
D03*
Y-37956D02*
D03*
Y-34019D02*
D03*
D75*
X178200Y-158200D02*
D03*
Y-161350D02*
D03*
Y-164499D02*
D03*
Y-167649D02*
D03*
X187649D02*
D03*
Y-164499D02*
D03*
Y-161350D02*
D03*
Y-158200D02*
D03*
M02*
