G04*
G04 #@! TF.GenerationSoftware,Altium Limited,Altium Designer,22.2.1 (43)*
G04*
G04 Layer_Physical_Order=1*
G04 Layer_Color=255*
%FSLAX25Y25*%
%MOIN*%
G70*
G04*
G04 #@! TF.SameCoordinates,91E75CD4-E1FE-4043-AE3D-700B569F0639*
G04*
G04*
G04 #@! TF.FilePolarity,Positive*
G04*
G01*
G75*
%ADD12C,0.01000*%
%ADD16R,0.02756X0.03543*%
%ADD17R,0.05906X0.03543*%
%ADD18R,0.03543X0.03543*%
%ADD19R,0.04331X0.02362*%
%ADD20R,0.04700X0.04700*%
%ADD21R,0.05512X0.03937*%
%ADD22R,0.03937X0.04331*%
%ADD23R,0.00984X0.01870*%
%ADD24R,0.01870X0.00984*%
%ADD25R,0.06496X0.02559*%
%ADD26R,0.03543X0.02756*%
%ADD27R,0.06693X0.04331*%
%ADD28R,0.04331X0.06693*%
%ADD52C,0.01900*%
%ADD53C,0.01500*%
%ADD54C,0.01200*%
%ADD55C,0.05906*%
%ADD56R,0.05906X0.05906*%
%ADD57R,0.05906X0.05906*%
%ADD58C,0.02500*%
%ADD59C,0.06024*%
%ADD60R,0.06024X0.06024*%
%ADD61C,0.05610*%
%ADD62R,0.05610X0.05610*%
%ADD63C,0.06000*%
%ADD64R,0.06024X0.06024*%
%ADD65C,0.03000*%
D12*
X122500Y-50948D02*
X130206Y-43242D01*
Y-17000D01*
X69195Y-94539D02*
X76900Y-86834D01*
X69195Y-106645D02*
Y-94539D01*
Y-106645D02*
X77540Y-98300D01*
X81600D01*
X69195Y-107039D02*
Y-106645D01*
X76900Y-86834D02*
Y-73400D01*
X70995Y-45042D02*
Y-17100D01*
Y-45042D02*
X76900Y-50948D01*
X132083Y-201642D02*
Y-199083D01*
X131700Y-198700D02*
X132083Y-199083D01*
Y-201642D02*
X134041Y-203600D01*
X138798D01*
X129500Y-168300D02*
X138498D01*
X138798Y-168600D01*
X126450Y-224400D02*
X126800Y-224050D01*
X121700Y-224400D02*
X126450D01*
X147047Y-195185D02*
Y-190570D01*
X142044Y-185666D02*
X142143D01*
X147047Y-190570D01*
X139979Y-183600D02*
X142044Y-185666D01*
X150410Y-177100D02*
X161000D01*
X138798Y-173600D02*
X146910D01*
X150410Y-177100D01*
X207791Y-202795D02*
X208377Y-203380D01*
X207791Y-202795D02*
Y-191659D01*
X208350Y-206098D02*
X209801Y-207549D01*
X208377Y-203380D02*
X214151D01*
X207809Y-206098D02*
X208350D01*
X212719Y-207549D02*
X213990Y-208820D01*
X209801Y-207549D02*
X212719D01*
X207791Y-191659D02*
X207850Y-191600D01*
X207128Y-217628D02*
X213399D01*
X207000Y-217500D02*
X207128Y-217628D01*
X213399D02*
X214151Y-218380D01*
X222030Y-198380D02*
X222648Y-197762D01*
X226900D01*
X229613Y-193380D02*
X229859Y-193626D01*
X214151Y-193380D02*
X229613D01*
X168500Y-109900D02*
X195099D01*
X231000Y-145801D01*
Y-179118D02*
Y-145801D01*
X122500Y-63900D02*
X168500Y-109900D01*
X122500Y-63900D02*
Y-50948D01*
X268249Y-165551D02*
X273708Y-160092D01*
X262407Y-173807D02*
X268249Y-167965D01*
Y-165551D01*
X214151Y-198380D02*
X222030D01*
X271172Y-168707D02*
X271555Y-168324D01*
Y-167345D02*
X273808Y-165092D01*
X271555Y-168324D02*
Y-167345D01*
X273708Y-160092D02*
X280435D01*
X84947Y-180211D02*
X85488D01*
X83336Y-178600D02*
X84947Y-180211D01*
X78259Y-170700D02*
X78350D01*
X283268Y-179000D02*
X283368Y-178900D01*
X229580Y-188380D02*
X232900Y-191700D01*
X42559Y-330300D02*
X43100D01*
X34600Y-331753D02*
X41105D01*
X42559Y-330300D01*
X148700Y-251500D02*
X150200Y-253000D01*
X148700Y-251500D02*
Y-206700D01*
X141872Y-199872D02*
X148700Y-206700D01*
X141372Y-194872D02*
X150500Y-204000D01*
Y-243300D02*
X160200Y-253000D01*
X150500Y-243300D02*
Y-204000D01*
X145447Y-195847D02*
X152400Y-202800D01*
Y-235200D02*
X170200Y-253000D01*
X152400Y-235200D02*
Y-202800D01*
X147047Y-195185D02*
X154800Y-202937D01*
Y-227600D02*
X180200Y-253000D01*
X154800Y-227600D02*
Y-202937D01*
X127600Y-144000D02*
X133000Y-138600D01*
X69900Y-178600D02*
X83336D01*
X77372Y-199872D02*
X77700Y-200200D01*
X71172Y-199872D02*
X77372D01*
X215371Y-184600D02*
X225000D01*
X209200Y-320000D02*
Y-295300D01*
X110963Y-289221D02*
X115684Y-284500D01*
X109279Y-289221D02*
X110963D01*
X115684Y-284500D02*
X128473D01*
X109000Y-289500D02*
X109279Y-289221D01*
X79400Y-230583D02*
Y-216820D01*
X72452Y-209872D02*
X79400Y-216820D01*
X70782Y-239201D02*
X79400Y-230583D01*
X69900Y-208600D02*
X71172Y-209872D01*
X72452D01*
X70782Y-263859D02*
X81423Y-274500D01*
X70782Y-263859D02*
Y-239201D01*
X81423Y-274500D02*
X100127D01*
X72967Y-263782D02*
X100918D01*
X72382Y-263196D02*
Y-242918D01*
Y-263196D02*
X72967Y-263782D01*
X74000Y-261414D02*
Y-245137D01*
Y-261414D02*
X74586Y-262000D01*
X92700D01*
X72382Y-242918D02*
X80500Y-234800D01*
X74000Y-245137D02*
X79189Y-239949D01*
X64400Y-260856D02*
Y-142820D01*
X59690Y-265566D02*
X64400Y-260856D01*
X66492Y-140728D02*
X66591D01*
X64400Y-142820D02*
X66492Y-140728D01*
X66591D02*
X68719Y-138600D01*
X41534Y-265566D02*
X59690D01*
X231000Y-179118D02*
X254431Y-202549D01*
X91200Y-253500D02*
X92527D01*
X93976Y-252051D01*
X94049D01*
X121700Y-224400D01*
X114700Y-165100D02*
X131200Y-148600D01*
X138798D01*
X75100Y-165100D02*
X114700D01*
X140069Y-199872D02*
X141872D01*
X138798Y-198600D02*
X140069Y-199872D01*
Y-194872D02*
X141372D01*
X138798Y-193600D02*
X140069Y-194872D01*
X145447Y-195847D02*
Y-193970D01*
X138798Y-183600D02*
X139979D01*
X142107Y-190728D02*
X142206D01*
X145447Y-193970D01*
X139979Y-188600D02*
X142107Y-190728D01*
X138798Y-188600D02*
X139979D01*
X214151Y-188380D02*
X229580D01*
X214771Y-184000D02*
X215371Y-184600D01*
X273808Y-165092D02*
X280435D01*
X281707Y-163820D01*
X280435Y-160092D02*
X281707Y-158820D01*
X69900Y-188600D02*
X70300Y-188200D01*
X75300Y-193600D02*
X77900Y-196200D01*
X282668Y-208600D02*
X282888Y-208820D01*
X255000Y-208600D02*
X282668D01*
X176500Y-299844D02*
Y-281800D01*
Y-299844D02*
X187600Y-310944D01*
X181100Y-299663D02*
Y-285200D01*
X89500Y-278500D02*
X90041D01*
X91041Y-279500D01*
X100127D01*
X129500Y-157600D02*
X133500Y-153600D01*
X138798D01*
X254431Y-202549D02*
X281616D01*
X282888Y-203820D01*
X194700Y-334500D02*
X209200Y-320000D01*
X187600Y-337400D02*
Y-310944D01*
Y-337400D02*
X194700Y-344500D01*
X189200Y-319000D02*
Y-307763D01*
X194333Y-314133D02*
Y-310633D01*
X184600Y-300900D02*
Y-287500D01*
X194333Y-314133D02*
X194700Y-314500D01*
X184600Y-300900D02*
X194333Y-310633D01*
X181100Y-299663D02*
X189200Y-307763D01*
Y-319000D02*
X194700Y-324500D01*
X281707Y-158820D02*
X282888D01*
X281707Y-163820D02*
X282888D01*
X92700Y-262000D02*
X101200Y-253500D01*
X79189Y-239949D02*
Y-239789D01*
X100918Y-263782D02*
X111200Y-253500D01*
X69900Y-148600D02*
X74000D01*
X75600Y-150200D01*
X69900Y-198600D02*
X71172Y-199872D01*
X69900Y-193600D02*
X75300D01*
X40069Y-338446D02*
X40947Y-337568D01*
Y-337546D01*
X34600Y-338446D02*
X40069D01*
X36600Y-314900D02*
X58300D01*
X35800Y-315700D02*
X36600Y-314900D01*
X55606Y-286243D02*
X57906Y-288543D01*
X35800Y-286243D02*
X55606D01*
X57906Y-288543D02*
X58300D01*
X41543Y-279157D02*
X47200Y-273500D01*
X35800Y-279157D02*
X41543D01*
X76459Y-175300D02*
X77000D01*
X74759Y-173600D02*
X76459Y-175300D01*
X69900Y-173600D02*
X74759D01*
X69900Y-168600D02*
X71172Y-169872D01*
X77430D01*
X78259Y-170700D01*
X288259Y-149300D02*
X288800D01*
X288769Y-268868D02*
X295500Y-275600D01*
Y-282859D02*
X298347Y-285706D01*
X295500Y-282859D02*
Y-275600D01*
X287792Y-268868D02*
X288769D01*
X298347Y-286100D02*
Y-285706D01*
X287339Y-148380D02*
X288259Y-149300D01*
X283049Y-148380D02*
X287339D01*
X133000Y-138600D02*
X138798D01*
X23100Y-284000D02*
X41534Y-265566D01*
X68719Y-138600D02*
X69900D01*
X116850Y-289450D02*
X128423D01*
X116800Y-289400D02*
X116850Y-289450D01*
X128423D02*
X128473Y-289500D01*
D16*
X101700Y-107300D02*
D03*
X95794D02*
D03*
X70995Y-17100D02*
D03*
X76900D02*
D03*
X299694Y-231600D02*
D03*
X305600D02*
D03*
X299647Y-238300D02*
D03*
X305553D02*
D03*
X304253Y-286100D02*
D03*
X298347D02*
D03*
X40947Y-337546D02*
D03*
X46853D02*
D03*
X75100Y-107039D02*
D03*
X69195D02*
D03*
X124300Y-17000D02*
D03*
X130206D02*
D03*
D17*
X282888Y-208820D02*
D03*
Y-143820D02*
D03*
Y-148820D02*
D03*
Y-153820D02*
D03*
Y-158820D02*
D03*
Y-163820D02*
D03*
Y-168820D02*
D03*
Y-173820D02*
D03*
Y-178820D02*
D03*
Y-183820D02*
D03*
Y-188820D02*
D03*
Y-193820D02*
D03*
Y-198820D02*
D03*
Y-203820D02*
D03*
Y-213820D02*
D03*
Y-218820D02*
D03*
Y-223820D02*
D03*
Y-228820D02*
D03*
Y-233820D02*
D03*
X213990D02*
D03*
Y-228820D02*
D03*
Y-223820D02*
D03*
Y-218820D02*
D03*
Y-213820D02*
D03*
Y-208820D02*
D03*
Y-203820D02*
D03*
Y-198820D02*
D03*
Y-193820D02*
D03*
Y-188820D02*
D03*
Y-183820D02*
D03*
Y-178820D02*
D03*
Y-173820D02*
D03*
Y-168820D02*
D03*
Y-163820D02*
D03*
Y-158820D02*
D03*
Y-153820D02*
D03*
Y-148820D02*
D03*
Y-143820D02*
D03*
X69900Y-213600D02*
D03*
Y-208600D02*
D03*
Y-203600D02*
D03*
Y-198600D02*
D03*
Y-193600D02*
D03*
Y-188600D02*
D03*
Y-183600D02*
D03*
Y-178600D02*
D03*
Y-173600D02*
D03*
Y-168600D02*
D03*
Y-163600D02*
D03*
Y-158600D02*
D03*
Y-153600D02*
D03*
Y-148600D02*
D03*
Y-143600D02*
D03*
Y-138600D02*
D03*
Y-133600D02*
D03*
Y-128600D02*
D03*
Y-123600D02*
D03*
X138798D02*
D03*
Y-128600D02*
D03*
Y-133600D02*
D03*
Y-138600D02*
D03*
Y-143600D02*
D03*
Y-148600D02*
D03*
Y-153600D02*
D03*
Y-158600D02*
D03*
Y-163600D02*
D03*
Y-168600D02*
D03*
Y-173600D02*
D03*
Y-178600D02*
D03*
Y-183600D02*
D03*
Y-188600D02*
D03*
Y-193600D02*
D03*
Y-198600D02*
D03*
Y-203600D02*
D03*
Y-208600D02*
D03*
Y-213600D02*
D03*
D18*
X237022Y-174529D02*
D03*
Y-169017D02*
D03*
X242534D02*
D03*
X248046D02*
D03*
Y-174529D02*
D03*
Y-180041D02*
D03*
X242534D02*
D03*
X237022D02*
D03*
X242534Y-174529D02*
D03*
X115766Y-182891D02*
D03*
Y-188403D02*
D03*
X110254D02*
D03*
X104743D02*
D03*
Y-182891D02*
D03*
Y-177380D02*
D03*
X110254D02*
D03*
X115766D02*
D03*
X110254Y-182891D02*
D03*
D19*
X243231Y-266082D02*
D03*
Y-261161D02*
D03*
Y-256239D02*
D03*
Y-251318D02*
D03*
X234569D02*
D03*
Y-256239D02*
D03*
Y-261161D02*
D03*
Y-266082D02*
D03*
D20*
X35800Y-315700D02*
D03*
Y-307400D02*
D03*
D21*
Y-286243D02*
D03*
Y-279157D02*
D03*
D22*
X34600Y-331753D02*
D03*
Y-338446D02*
D03*
D23*
X287153Y-262323D02*
D03*
X285184D02*
D03*
X283216D02*
D03*
X281247D02*
D03*
Y-271477D02*
D03*
X283216D02*
D03*
X285184D02*
D03*
X287153D02*
D03*
D24*
X280608Y-264932D02*
D03*
Y-266900D02*
D03*
Y-268868D02*
D03*
X287792D02*
D03*
Y-266900D02*
D03*
Y-264932D02*
D03*
D25*
X128473Y-289500D02*
D03*
Y-284500D02*
D03*
Y-279500D02*
D03*
Y-274500D02*
D03*
X100127D02*
D03*
Y-279500D02*
D03*
Y-284500D02*
D03*
Y-289500D02*
D03*
D26*
X58300Y-308995D02*
D03*
Y-314900D02*
D03*
Y-294449D02*
D03*
Y-288543D02*
D03*
D27*
X223100Y-262615D02*
D03*
Y-251985D02*
D03*
X147500Y-285100D02*
D03*
Y-274470D02*
D03*
D28*
X288615Y-289000D02*
D03*
X277985D02*
D03*
X286600Y-253100D02*
D03*
X275970D02*
D03*
D52*
X101700Y-107300D02*
Y-102100D01*
X92100Y-92500D02*
X101700Y-102100D01*
X95794Y-106939D02*
Y-102562D01*
X87597Y-94365D02*
X95794Y-102562D01*
X2600Y-30098D02*
X4200Y-28498D01*
X2600Y-106600D02*
Y-30098D01*
X11900Y-105200D02*
X29000D01*
X7100Y-100400D02*
X11900Y-105200D01*
X4200Y-28498D02*
Y-28200D01*
X87597Y-94365D02*
Y-55851D01*
X153155Y-134322D02*
X197616D01*
X199094Y-135800D02*
X199500D01*
X199596Y-135896D01*
X197616Y-134322D02*
X199094Y-135800D01*
X137500Y-107900D02*
X153300D01*
X122100Y-92500D02*
X137500Y-107900D01*
X87997Y-55451D02*
X92500Y-50948D01*
X95564Y-107169D02*
X95794Y-106939D01*
Y-107300D02*
Y-106939D01*
X46900Y-50948D02*
X51403Y-55451D01*
X87997D01*
X75100Y-107039D02*
X75231Y-107169D01*
X95564D01*
X76900Y-17494D02*
X82606Y-23200D01*
X82700D01*
X76900Y-17494D02*
Y-17100D01*
X76950Y-17050D01*
X124250D01*
X124300Y-17000D01*
X151100Y-132267D02*
X153155Y-134322D01*
X177779Y-180640D02*
X182440D01*
X168833Y-180000D02*
X177140D01*
X177779Y-180640D01*
X151100Y-152267D02*
X167367D01*
X197400Y-188200D02*
Y-182300D01*
X167367Y-152267D02*
X197400Y-182300D01*
X156533Y-147700D02*
X166300D01*
X151100Y-142267D02*
X156533Y-147700D01*
X151100Y-162267D02*
X168833Y-180000D01*
X197084Y-55300D02*
X200073Y-58289D01*
X202290D02*
X202500Y-58500D01*
X200073Y-58289D02*
X202290D01*
X196000Y-55300D02*
X197084D01*
X69900Y-203600D02*
X71413D01*
X111189Y-204089D02*
X111400Y-204300D01*
X71903Y-204089D02*
X111189D01*
X71413Y-203600D02*
X71903Y-204089D01*
X125200Y-203700D02*
Y-194300D01*
X137526Y-207328D02*
X138798Y-208600D01*
X125200Y-203700D02*
X128828Y-207328D01*
X138798Y-208600D02*
X143987D01*
X128828Y-207328D02*
X137526D01*
X92100Y-92500D02*
X115900D01*
X117597Y-94197D01*
Y-94365D02*
X120235Y-97003D01*
X117597Y-94365D02*
Y-94197D01*
X120403Y-97003D02*
X137400Y-114000D01*
X120235Y-97003D02*
X120403D01*
X207806Y-148820D02*
X213990D01*
X199596Y-140610D02*
X207806Y-148820D01*
X215012Y-178820D02*
X215092Y-178900D01*
X199900Y-174300D02*
X204420Y-178820D01*
X215012D01*
X199596Y-140610D02*
Y-135896D01*
X205500Y-92300D02*
X214403D01*
X212700Y-280800D02*
Y-266587D01*
X216672Y-262615D02*
X223100D01*
X212700Y-266587D02*
X216672Y-262615D01*
X57400Y-324900D02*
X63015Y-319285D01*
X47000Y-324900D02*
X57400D01*
X63015Y-319285D02*
Y-313316D01*
X196000Y-85300D02*
X198500D01*
X196000Y-75300D02*
X198500D01*
X196000Y-65300D02*
X197000Y-66300D01*
X271800Y-37600D02*
X274100Y-35300D01*
X286800D01*
X189300Y-49627D02*
X192860Y-46066D01*
X189300Y-57200D02*
Y-49627D01*
X180803Y-65697D02*
X189300Y-57200D01*
X192860Y-46066D02*
X195234D01*
X196000Y-45300D01*
X175203Y-65697D02*
X180803D01*
X196000Y-35300D02*
X205000D01*
X207700Y-38000D01*
X173000Y-67900D02*
X175203Y-65697D01*
X221300Y-151937D02*
Y-139000D01*
X219800Y-153600D02*
Y-153437D01*
X221300Y-151937D01*
X219690Y-153710D02*
X219800Y-153600D01*
X215942Y-153710D02*
X219690D01*
X215612Y-153380D02*
X215942Y-153710D01*
X137400Y-114000D02*
X196300D01*
X221300Y-139000D01*
X215993Y-142999D02*
Y-138404D01*
X216192Y-138206D01*
X213990Y-143820D02*
X215172D01*
X215993Y-142999D01*
X200000Y-76800D02*
X205600D01*
X198500Y-75300D02*
X200000Y-76800D01*
X290791Y-253300D02*
X292203Y-254712D01*
X286800Y-253300D02*
X290791D01*
X292203Y-254712D02*
X292412D01*
X286600Y-253100D02*
X286800Y-253300D01*
X287087Y-189576D02*
X288200Y-190689D01*
X283644Y-189576D02*
X287087D01*
X282888Y-188820D02*
X283644Y-189576D01*
X288200Y-221200D02*
Y-190689D01*
Y-221200D02*
X290700Y-223700D01*
X294100D01*
X292657Y-241366D02*
X293061Y-240962D01*
X289875Y-238125D02*
Y-235725D01*
X285800Y-242200D02*
X295900Y-252300D01*
X285800Y-242200D02*
X289875Y-238125D01*
Y-235725D02*
X293740Y-231860D01*
X295900Y-263700D02*
Y-252300D01*
X294669Y-264932D02*
X295900Y-263700D01*
X293061Y-240962D02*
X298900Y-246800D01*
Y-266900D02*
Y-246800D01*
X298045Y-240962D02*
X299219Y-239787D01*
X293061Y-240962D02*
X298045D01*
X293740Y-231860D02*
X299434D01*
X273100Y-179000D02*
X283268D01*
X273900Y-152800D02*
X281868D01*
X273843Y-152743D02*
X273900Y-152800D01*
X276839Y-145092D02*
X281616D01*
X248046Y-169017D02*
X252914D01*
X276839Y-145092D01*
X242534Y-169017D02*
X248046D01*
X291200Y-214487D02*
Y-156491D01*
X315711Y-215600D02*
X328200Y-228089D01*
X292313Y-215600D02*
X315711D01*
X291200Y-214487D02*
X292313Y-215600D01*
X305553Y-238300D02*
X305576Y-238276D01*
X304900Y-238953D02*
X305553Y-238300D01*
X100200Y-303000D02*
Y-289573D01*
Y-303500D02*
Y-303000D01*
X46926Y-337473D02*
Y-324974D01*
X47000Y-324900D01*
X46853Y-337546D02*
X46926Y-337473D01*
X59122Y-309422D02*
X63015Y-313316D01*
X58728Y-309422D02*
X59122D01*
X58300Y-308995D02*
X58728Y-309422D01*
X71081Y-213600D02*
X71903Y-214422D01*
Y-216162D02*
X73589Y-217848D01*
Y-218390D02*
X73800Y-218600D01*
X73589Y-218390D02*
Y-217848D01*
X71903Y-216162D02*
Y-214422D01*
X213169Y-212999D02*
X213990Y-213820D01*
X139728Y-213600D02*
X140400Y-214272D01*
X121200Y-253500D02*
X140400Y-234300D01*
Y-214272D01*
X103921Y-190779D02*
Y-189225D01*
X104743Y-188403D01*
X101500Y-193200D02*
X103921Y-190779D01*
X188400Y-299284D02*
Y-290100D01*
Y-299284D02*
X193616Y-304500D01*
X194700D01*
X188400Y-290100D02*
X196432Y-282068D01*
X200105D01*
X201373Y-280800D02*
X202700D01*
X200105Y-282068D02*
X201373Y-280800D01*
X196370Y-274470D02*
X202700Y-280800D01*
X254761Y-256239D02*
X263900Y-247100D01*
X281781D02*
X286600Y-251919D01*
X263900Y-247100D02*
X281781D01*
X110254Y-188403D02*
X115766D01*
X286600Y-253100D02*
Y-251919D01*
X221919Y-251985D02*
X223100D01*
X202700Y-271204D02*
X221919Y-251985D01*
X104743Y-188403D02*
X110254D01*
X216385Y-251985D02*
X221919D01*
X212300Y-247900D02*
X216385Y-251985D01*
X104743Y-177380D02*
X110254D01*
X243231Y-256239D02*
X254761D01*
X234569Y-251318D02*
X243231D01*
X223100Y-251985D02*
X223767Y-251318D01*
X147500Y-274470D02*
X196370D01*
X137927Y-212730D02*
X138798Y-213600D01*
X115766Y-200766D02*
Y-188403D01*
X104743D02*
Y-182891D01*
X243231Y-256239D02*
Y-251318D01*
X147470Y-274500D02*
X147500Y-274470D01*
X115766Y-200766D02*
X127730Y-212730D01*
X110254Y-177380D02*
X115766D01*
X104743Y-182891D02*
X110254D01*
X128473Y-274500D02*
X147470D01*
X126505D02*
X128473D01*
X115766Y-182891D02*
Y-177380D01*
X223767Y-251318D02*
X234569D01*
X121200Y-269195D02*
X126505Y-274500D01*
X127730Y-212730D02*
X137927D01*
X202700Y-280800D02*
Y-271204D01*
X121200Y-269195D02*
Y-253500D01*
X115766Y-188403D02*
Y-182891D01*
X318422Y-155378D02*
X328900Y-144900D01*
Y-104500D01*
X292313Y-155378D02*
X318422D01*
X291200Y-156491D02*
X292313Y-155378D01*
X283769Y-184100D02*
X287900D01*
X294346Y-296400D02*
X304253Y-286494D01*
X277985Y-290181D02*
X284204Y-296400D01*
X294346D01*
X54600Y-343400D02*
X60400Y-337600D01*
X32500Y-343400D02*
X54600D01*
X23100Y-334000D02*
X32500Y-343400D01*
X143987Y-208600D02*
X145100Y-209713D01*
Y-244053D02*
Y-209713D01*
X135653Y-253500D02*
X145100Y-244053D01*
X131200Y-253500D02*
X135653D01*
X173000Y-67900D02*
Y-67900D01*
X163000Y-74500D02*
Y-67900D01*
Y-74500D02*
X165900Y-77400D01*
X286500Y-279113D02*
X288615Y-281228D01*
X286500Y-279113D02*
Y-279100D01*
X288615Y-289000D02*
Y-281228D01*
X267800Y-218900D02*
X281929D01*
X148200Y-285800D02*
X157300D01*
X147500Y-285100D02*
X148200Y-285800D01*
X146319Y-285100D02*
X147500D01*
X128473Y-279500D02*
X140719D01*
X146319Y-285100D01*
X69900Y-213600D02*
X71081D01*
X237022Y-169017D02*
Y-147022D01*
X227900Y-137900D02*
X237022Y-147022D01*
X311770Y-334900D02*
X332100Y-314570D01*
X247000Y-334900D02*
X311770D01*
X212700Y-300600D02*
X247000Y-334900D01*
X212700Y-300600D02*
Y-280800D01*
X277985Y-290181D02*
Y-289000D01*
X324900Y-266500D02*
X325283D01*
X327213Y-264570D02*
X332100D01*
X325283Y-266500D02*
X327213Y-264570D01*
X304253Y-286100D02*
X304900Y-285453D01*
Y-238953D01*
X304253Y-286494D02*
Y-286100D01*
X332100Y-264570D02*
Y-254571D01*
X328200Y-250671D02*
X332100Y-254571D01*
X328200Y-250671D02*
Y-239900D01*
X243231Y-261161D02*
X255570D01*
X263631Y-253100D01*
X275970D01*
X242247Y-261161D02*
X243231D01*
Y-266082D02*
Y-261161D01*
X194700Y-294500D02*
X199000D01*
X212700Y-280800D01*
X332100Y-264570D02*
X338000Y-270470D01*
Y-318670D02*
Y-270470D01*
X332100Y-324570D02*
X338000Y-318670D01*
X306872Y-230328D02*
X309111Y-228089D01*
X328200D01*
X305600Y-231600D02*
Y-231206D01*
X306478Y-230328D01*
X306872D01*
X305576Y-231624D02*
X305600Y-231600D01*
X305576Y-238276D02*
Y-231624D01*
X242534Y-180041D02*
X248046D01*
X237022D02*
X242534D01*
X237022D02*
Y-174529D01*
Y-169017D01*
X242534D01*
Y-174529D02*
X248046D01*
Y-180041D02*
Y-174529D01*
X281616Y-145092D02*
X282888Y-143820D01*
X282609Y-169100D02*
X282888Y-168820D01*
X275200Y-169100D02*
X282609D01*
X281868Y-152800D02*
X282888Y-153820D01*
X310469Y-143820D02*
X310889Y-143400D01*
X282888Y-143820D02*
X310469D01*
X140069Y-142328D02*
X151039D01*
X138798Y-143600D02*
X140069Y-142328D01*
X70300Y-188200D02*
X77900D01*
X112190Y-284500D02*
X117190Y-279500D01*
X128473D01*
X100127Y-284500D02*
X112190D01*
X83351Y-320349D02*
X100200Y-303500D01*
X100127Y-289500D02*
X100200Y-289573D01*
X100127Y-289500D02*
Y-284500D01*
X58300Y-308995D02*
Y-294449D01*
X66651Y-320349D02*
X83351D01*
X60400Y-337600D02*
Y-326600D01*
X66651Y-320349D01*
X46459Y-324900D02*
X47000D01*
X23100Y-324000D02*
X45559D01*
X46459Y-324900D01*
X70400Y-342100D02*
Y-337600D01*
Y-342100D02*
X75100Y-346800D01*
X86600D01*
X95600D01*
X100347Y-342053D01*
Y-337653D01*
X100400Y-337600D01*
X35800Y-307400D02*
X41217Y-301983D01*
Y-300683D01*
X41600Y-300500D02*
Y-300300D01*
X41217Y-300683D02*
X41600Y-300300D01*
X197000Y-66300D02*
X210800D01*
X198500Y-85300D02*
X205500Y-92300D01*
D53*
X209620Y-213820D02*
X213990D01*
X207600Y-211800D02*
X209620Y-213820D01*
X275970Y-271292D02*
X279694D01*
X278322Y-265849D02*
X279371Y-264800D01*
X280400D01*
X278322Y-269920D02*
Y-265849D01*
X279694Y-271292D02*
X281062D01*
X278322Y-269920D02*
X279694Y-271292D01*
X281062D02*
X281247Y-271477D01*
X275970Y-285804D02*
Y-271292D01*
Y-285804D02*
X277985Y-287819D01*
X275970Y-271292D02*
Y-253100D01*
X277985Y-289000D02*
Y-287819D01*
X280608Y-268868D02*
Y-266900D01*
X283732Y-268868D02*
X285058Y-267542D01*
X280608Y-268868D02*
X283732D01*
X285058Y-267542D02*
Y-262450D01*
X285184Y-262323D01*
X287080D01*
X286600Y-261843D02*
X287080Y-262323D01*
X286600Y-261843D02*
Y-253100D01*
X287080Y-262323D02*
X287153D01*
X283216D02*
X285184D01*
X243231Y-266428D02*
Y-266082D01*
X243315Y-268685D02*
Y-266513D01*
X241700Y-270300D02*
X243315Y-268685D01*
X243231Y-266428D02*
X243315Y-266513D01*
D54*
X217603Y-266100D02*
X227200D01*
X231608Y-261692D01*
X216000Y-267600D02*
X216103D01*
X217603Y-266100D01*
X231608Y-261692D02*
X234038D01*
X234569Y-261161D01*
X220050Y-275950D02*
X229918Y-266082D01*
X216857Y-275950D02*
X220050D01*
X216750Y-276057D02*
X216857Y-275950D01*
X291934Y-267081D02*
X298719D01*
X291753Y-266900D02*
X291934Y-267081D01*
X287792Y-266900D02*
X291753D01*
X298719Y-267081D02*
X298900Y-266900D01*
X287792Y-264932D02*
X294669D01*
X299219Y-238728D02*
X299647Y-238300D01*
X299219Y-239787D02*
Y-238728D01*
X299434Y-231860D02*
X299694Y-231600D01*
X229918Y-266082D02*
X234569D01*
D55*
X76900Y-73400D02*
D03*
X46900D02*
D03*
X76900Y-93400D02*
D03*
X46900D02*
D03*
X76900Y-30948D02*
D03*
X46900D02*
D03*
X76900Y-50948D02*
D03*
X46900D02*
D03*
X286800Y-105300D02*
D03*
Y-95300D02*
D03*
Y-85300D02*
D03*
Y-75300D02*
D03*
Y-65300D02*
D03*
Y-55300D02*
D03*
Y-45300D02*
D03*
X332100Y-264570D02*
D03*
Y-274570D02*
D03*
Y-284570D02*
D03*
Y-294570D02*
D03*
Y-314570D02*
D03*
Y-304570D02*
D03*
X163000Y-67900D02*
D03*
X153000D02*
D03*
X143000D02*
D03*
X133000D02*
D03*
X92500Y-50948D02*
D03*
X122500D02*
D03*
X92500Y-30948D02*
D03*
X122500D02*
D03*
X328900Y-84500D02*
D03*
Y-74500D02*
D03*
Y-64500D02*
D03*
Y-54500D02*
D03*
Y-44500D02*
D03*
Y-34500D02*
D03*
Y-24500D02*
D03*
Y-94500D02*
D03*
X196000Y-95300D02*
D03*
Y-85300D02*
D03*
Y-75300D02*
D03*
Y-65300D02*
D03*
Y-55300D02*
D03*
Y-45300D02*
D03*
Y-35300D02*
D03*
X23100Y-284000D02*
D03*
Y-294000D02*
D03*
Y-304000D02*
D03*
Y-314000D02*
D03*
Y-324000D02*
D03*
Y-334000D02*
D03*
Y-344000D02*
D03*
X262900Y-264570D02*
D03*
Y-274570D02*
D03*
Y-284570D02*
D03*
Y-294570D02*
D03*
Y-314570D02*
D03*
Y-304570D02*
D03*
X100400Y-337600D02*
D03*
X90400D02*
D03*
X80400D02*
D03*
X70400D02*
D03*
X60400D02*
D03*
X121200Y-253500D02*
D03*
X111200D02*
D03*
X101200D02*
D03*
X91200D02*
D03*
X81200D02*
D03*
X194700Y-304500D02*
D03*
Y-314500D02*
D03*
Y-324500D02*
D03*
Y-334500D02*
D03*
Y-344500D02*
D03*
X180200Y-253000D02*
D03*
X170200D02*
D03*
X160200D02*
D03*
X202700Y-280800D02*
D03*
X122100Y-72500D02*
D03*
X92100D02*
D03*
X122100Y-92500D02*
D03*
X92100D02*
D03*
D56*
X286800Y-35300D02*
D03*
X332100Y-324570D02*
D03*
X328900Y-104500D02*
D03*
X196000Y-105300D02*
D03*
X23100Y-274000D02*
D03*
X262900Y-324570D02*
D03*
X194700Y-294500D02*
D03*
D57*
X173000Y-67900D02*
D03*
X110400Y-337600D02*
D03*
X131200Y-253500D02*
D03*
X150200Y-253000D02*
D03*
X212700Y-280800D02*
D03*
D58*
X334511Y-151117D02*
D03*
X299078D02*
D03*
X335916Y-216278D02*
D03*
Y-251711D02*
D03*
D59*
X322700Y-143400D02*
D03*
X328200Y-228089D02*
D03*
D60*
X310889Y-143400D02*
D03*
D61*
X151100Y-192267D02*
D03*
Y-182267D02*
D03*
Y-172267D02*
D03*
Y-162267D02*
D03*
Y-152267D02*
D03*
Y-142267D02*
D03*
D62*
Y-132267D02*
D03*
D63*
X37700Y-234800D02*
D03*
X159600Y-331800D02*
D03*
Y-35500D02*
D03*
X319500Y-183600D02*
D03*
X37700Y-139200D02*
D03*
D64*
X328200Y-239900D02*
D03*
D65*
X6800Y-67500D02*
D03*
X2600Y-106600D02*
D03*
X7100Y-100400D02*
D03*
X29000Y-105200D02*
D03*
X4200Y-28200D02*
D03*
X199500Y-135800D02*
D03*
X153300Y-107900D02*
D03*
X81600Y-98300D02*
D03*
X82700Y-23200D02*
D03*
X182440Y-180640D02*
D03*
X166300Y-147700D02*
D03*
X197400Y-188200D02*
D03*
X207600Y-211800D02*
D03*
X202500Y-58500D02*
D03*
X111400Y-204300D02*
D03*
X131700Y-198700D02*
D03*
X129500Y-168300D02*
D03*
X125200Y-194300D02*
D03*
X126800Y-224050D02*
D03*
X199900Y-174300D02*
D03*
X161000Y-177100D02*
D03*
X207809Y-206098D02*
D03*
X273843Y-152743D02*
D03*
X207850Y-191600D02*
D03*
X207000Y-217500D02*
D03*
X214403Y-92300D02*
D03*
X216000Y-267600D02*
D03*
X226900Y-197762D02*
D03*
X229859Y-193626D02*
D03*
X216750Y-276057D02*
D03*
X219800Y-153600D02*
D03*
X216192Y-138206D02*
D03*
X262407Y-173807D02*
D03*
X205600Y-76800D02*
D03*
X271172Y-168707D02*
D03*
X292412Y-254712D02*
D03*
X294100Y-223700D02*
D03*
X292657Y-241366D02*
D03*
X85488Y-180211D02*
D03*
X78350Y-170700D02*
D03*
X285800Y-242200D02*
D03*
X273100Y-179000D02*
D03*
X232900Y-191700D02*
D03*
X43100Y-330300D02*
D03*
X241700Y-270300D02*
D03*
X287900Y-184100D02*
D03*
X165900Y-77400D02*
D03*
X286500Y-279100D02*
D03*
X267800Y-218900D02*
D03*
X127600Y-144000D02*
D03*
X98200Y-201000D02*
D03*
X85446D02*
D03*
X77700Y-200200D02*
D03*
X225000Y-184600D02*
D03*
X212300Y-247900D02*
D03*
X157300Y-285800D02*
D03*
X209200Y-295300D02*
D03*
X73800Y-218600D02*
D03*
X101500Y-193200D02*
D03*
X88000Y-210800D02*
D03*
X80500Y-234800D02*
D03*
X227900Y-137900D02*
D03*
X324900Y-266500D02*
D03*
X275200Y-169100D02*
D03*
X271800Y-37600D02*
D03*
X207700Y-38000D02*
D03*
X77900Y-188200D02*
D03*
Y-196200D02*
D03*
X100200Y-303000D02*
D03*
X47000Y-324900D02*
D03*
X86600Y-346800D02*
D03*
X41600Y-300300D02*
D03*
X255000Y-208600D02*
D03*
X176500Y-281800D02*
D03*
X181100Y-285200D02*
D03*
X89500Y-278500D02*
D03*
X129500Y-157600D02*
D03*
X184600Y-287500D02*
D03*
X79189Y-239789D02*
D03*
X75600Y-150200D02*
D03*
X75100Y-165100D02*
D03*
X210800Y-66300D02*
D03*
X77000Y-175300D02*
D03*
X288800Y-149300D02*
D03*
X47200Y-273500D02*
D03*
X116800Y-289400D02*
D03*
X109000Y-289500D02*
D03*
M02*
