G04*
G04 #@! TF.GenerationSoftware,Altium Limited,Altium Designer,22.2.1 (43)*
G04*
G04 Layer_Color=8388736*
%FSLAX25Y25*%
%MOIN*%
G70*
G04*
G04 #@! TF.SameCoordinates,91E75CD4-E1FE-4043-AE3D-700B569F0639*
G04*
G04*
G04 #@! TF.FilePolarity,Negative*
G04*
G01*
G75*
%ADD20R,0.04700X0.04700*%
%ADD29R,0.03556X0.04343*%
%ADD30R,0.06706X0.04343*%
%ADD31R,0.04343X0.04343*%
%ADD32R,0.05131X0.03162*%
%ADD33R,0.06312X0.04737*%
%ADD34R,0.04737X0.05131*%
%ADD35R,0.01784X0.02670*%
%ADD36R,0.02670X0.01784*%
%ADD37R,0.07296X0.03359*%
%ADD38R,0.04343X0.03556*%
%ADD39R,0.07493X0.05131*%
%ADD40R,0.05131X0.07493*%
%ADD41C,0.06706*%
%ADD42R,0.06706X0.06706*%
%ADD43R,0.06706X0.06706*%
%ADD44C,0.03300*%
%ADD45C,0.06824*%
%ADD46R,0.06824X0.06824*%
%ADD47C,0.06410*%
%ADD48R,0.06410X0.06410*%
%ADD49C,0.06800*%
%ADD50R,0.06824X0.06824*%
%ADD51C,0.03800*%
D20*
X35800Y-315700D02*
D03*
Y-307400D02*
D03*
D29*
X101700Y-107300D02*
D03*
X95794D02*
D03*
X70995Y-17100D02*
D03*
X76900D02*
D03*
X299694Y-231600D02*
D03*
X305600D02*
D03*
X299647Y-238300D02*
D03*
X305553D02*
D03*
X304253Y-286100D02*
D03*
X298347D02*
D03*
X40947Y-337546D02*
D03*
X46853D02*
D03*
X75100Y-107039D02*
D03*
X69195D02*
D03*
X124300Y-17000D02*
D03*
X130206D02*
D03*
D30*
X282888Y-208820D02*
D03*
Y-143820D02*
D03*
Y-148820D02*
D03*
Y-153820D02*
D03*
Y-158820D02*
D03*
Y-163820D02*
D03*
Y-168820D02*
D03*
Y-173820D02*
D03*
Y-178820D02*
D03*
Y-183820D02*
D03*
Y-188820D02*
D03*
Y-193820D02*
D03*
Y-198820D02*
D03*
Y-203820D02*
D03*
Y-213820D02*
D03*
Y-218820D02*
D03*
Y-223820D02*
D03*
Y-228820D02*
D03*
Y-233820D02*
D03*
X213990D02*
D03*
Y-228820D02*
D03*
Y-223820D02*
D03*
Y-218820D02*
D03*
Y-213820D02*
D03*
Y-208820D02*
D03*
Y-203820D02*
D03*
Y-198820D02*
D03*
Y-193820D02*
D03*
Y-188820D02*
D03*
Y-183820D02*
D03*
Y-178820D02*
D03*
Y-173820D02*
D03*
Y-168820D02*
D03*
Y-163820D02*
D03*
Y-158820D02*
D03*
Y-153820D02*
D03*
Y-148820D02*
D03*
Y-143820D02*
D03*
X69900Y-213600D02*
D03*
Y-208600D02*
D03*
Y-203600D02*
D03*
Y-198600D02*
D03*
Y-193600D02*
D03*
Y-188600D02*
D03*
Y-183600D02*
D03*
Y-178600D02*
D03*
Y-173600D02*
D03*
Y-168600D02*
D03*
Y-163600D02*
D03*
Y-158600D02*
D03*
Y-153600D02*
D03*
Y-148600D02*
D03*
Y-143600D02*
D03*
Y-138600D02*
D03*
Y-133600D02*
D03*
Y-128600D02*
D03*
Y-123600D02*
D03*
X138798D02*
D03*
Y-128600D02*
D03*
Y-133600D02*
D03*
Y-138600D02*
D03*
Y-143600D02*
D03*
Y-148600D02*
D03*
Y-153600D02*
D03*
Y-158600D02*
D03*
Y-163600D02*
D03*
Y-168600D02*
D03*
Y-173600D02*
D03*
Y-178600D02*
D03*
Y-183600D02*
D03*
Y-188600D02*
D03*
Y-193600D02*
D03*
Y-198600D02*
D03*
Y-203600D02*
D03*
Y-208600D02*
D03*
Y-213600D02*
D03*
D31*
X237022Y-174529D02*
D03*
Y-169017D02*
D03*
X242534D02*
D03*
X248046D02*
D03*
Y-174529D02*
D03*
Y-180041D02*
D03*
X242534D02*
D03*
X237022D02*
D03*
X242534Y-174529D02*
D03*
X115766Y-182891D02*
D03*
Y-188403D02*
D03*
X110254D02*
D03*
X104743D02*
D03*
Y-182891D02*
D03*
Y-177380D02*
D03*
X110254D02*
D03*
X115766D02*
D03*
X110254Y-182891D02*
D03*
D32*
X243231Y-266082D02*
D03*
Y-261161D02*
D03*
Y-256239D02*
D03*
Y-251318D02*
D03*
X234569D02*
D03*
Y-256239D02*
D03*
Y-261161D02*
D03*
Y-266082D02*
D03*
D33*
X35800Y-286243D02*
D03*
Y-279157D02*
D03*
D34*
X34600Y-331753D02*
D03*
Y-338446D02*
D03*
D35*
X287153Y-262323D02*
D03*
X285184D02*
D03*
X283216D02*
D03*
X281247D02*
D03*
Y-271477D02*
D03*
X283216D02*
D03*
X285184D02*
D03*
X287153D02*
D03*
D36*
X280608Y-264932D02*
D03*
Y-266900D02*
D03*
Y-268868D02*
D03*
X287792D02*
D03*
Y-266900D02*
D03*
Y-264932D02*
D03*
D37*
X128473Y-289500D02*
D03*
Y-284500D02*
D03*
Y-279500D02*
D03*
Y-274500D02*
D03*
X100127D02*
D03*
Y-279500D02*
D03*
Y-284500D02*
D03*
Y-289500D02*
D03*
D38*
X58300Y-308995D02*
D03*
Y-314900D02*
D03*
Y-294449D02*
D03*
Y-288543D02*
D03*
D39*
X223100Y-262615D02*
D03*
Y-251985D02*
D03*
X147500Y-285100D02*
D03*
Y-274470D02*
D03*
D40*
X288615Y-289000D02*
D03*
X277985D02*
D03*
X286600Y-253100D02*
D03*
X275970D02*
D03*
D41*
X76900Y-73400D02*
D03*
X46900D02*
D03*
X76900Y-93400D02*
D03*
X46900D02*
D03*
X76900Y-30948D02*
D03*
X46900D02*
D03*
X76900Y-50948D02*
D03*
X46900D02*
D03*
X286800Y-105300D02*
D03*
Y-95300D02*
D03*
Y-85300D02*
D03*
Y-75300D02*
D03*
Y-65300D02*
D03*
Y-55300D02*
D03*
Y-45300D02*
D03*
X332100Y-264570D02*
D03*
Y-274570D02*
D03*
Y-284570D02*
D03*
Y-294570D02*
D03*
Y-314570D02*
D03*
Y-304570D02*
D03*
X163000Y-67900D02*
D03*
X153000D02*
D03*
X143000D02*
D03*
X133000D02*
D03*
X92500Y-50948D02*
D03*
X122500D02*
D03*
X92500Y-30948D02*
D03*
X122500D02*
D03*
X328900Y-84500D02*
D03*
Y-74500D02*
D03*
Y-64500D02*
D03*
Y-54500D02*
D03*
Y-44500D02*
D03*
Y-34500D02*
D03*
Y-24500D02*
D03*
Y-94500D02*
D03*
X196000Y-95300D02*
D03*
Y-85300D02*
D03*
Y-75300D02*
D03*
Y-65300D02*
D03*
Y-55300D02*
D03*
Y-45300D02*
D03*
Y-35300D02*
D03*
X23100Y-284000D02*
D03*
Y-294000D02*
D03*
Y-304000D02*
D03*
Y-314000D02*
D03*
Y-324000D02*
D03*
Y-334000D02*
D03*
Y-344000D02*
D03*
X262900Y-264570D02*
D03*
Y-274570D02*
D03*
Y-284570D02*
D03*
Y-294570D02*
D03*
Y-314570D02*
D03*
Y-304570D02*
D03*
X100400Y-337600D02*
D03*
X90400D02*
D03*
X80400D02*
D03*
X70400D02*
D03*
X60400D02*
D03*
X121200Y-253500D02*
D03*
X111200D02*
D03*
X101200D02*
D03*
X91200D02*
D03*
X81200D02*
D03*
X194700Y-304500D02*
D03*
Y-314500D02*
D03*
Y-324500D02*
D03*
Y-334500D02*
D03*
Y-344500D02*
D03*
X180200Y-253000D02*
D03*
X170200D02*
D03*
X160200D02*
D03*
X202700Y-280800D02*
D03*
X122100Y-72500D02*
D03*
X92100D02*
D03*
X122100Y-92500D02*
D03*
X92100D02*
D03*
D42*
X286800Y-35300D02*
D03*
X332100Y-324570D02*
D03*
X328900Y-104500D02*
D03*
X196000Y-105300D02*
D03*
X23100Y-274000D02*
D03*
X262900Y-324570D02*
D03*
X194700Y-294500D02*
D03*
D43*
X173000Y-67900D02*
D03*
X110400Y-337600D02*
D03*
X131200Y-253500D02*
D03*
X150200Y-253000D02*
D03*
X212700Y-280800D02*
D03*
D44*
X334511Y-151117D02*
D03*
X299078D02*
D03*
X335916Y-216278D02*
D03*
Y-251711D02*
D03*
D45*
X322700Y-143400D02*
D03*
X328200Y-228089D02*
D03*
D46*
X310889Y-143400D02*
D03*
D47*
X151100Y-192267D02*
D03*
Y-182267D02*
D03*
Y-172267D02*
D03*
Y-162267D02*
D03*
Y-152267D02*
D03*
Y-142267D02*
D03*
D48*
Y-132267D02*
D03*
D49*
X37700Y-234800D02*
D03*
X159600Y-331800D02*
D03*
Y-35500D02*
D03*
X319500Y-183600D02*
D03*
X37700Y-139200D02*
D03*
D50*
X328200Y-239900D02*
D03*
D51*
X6800Y-67500D02*
D03*
X2600Y-106600D02*
D03*
X7100Y-100400D02*
D03*
X29000Y-105200D02*
D03*
X4200Y-28200D02*
D03*
X199500Y-135800D02*
D03*
X153300Y-107900D02*
D03*
X81600Y-98300D02*
D03*
X82700Y-23200D02*
D03*
X166300Y-147700D02*
D03*
X111400Y-204300D02*
D03*
X129500Y-168300D02*
D03*
X125200Y-194300D02*
D03*
X273843Y-152743D02*
D03*
X216000Y-267600D02*
D03*
X216750Y-276057D02*
D03*
X216192Y-138206D02*
D03*
X292412Y-254712D02*
D03*
X292657Y-241366D02*
D03*
X285800Y-242200D02*
D03*
X165900Y-77400D02*
D03*
X286500Y-279100D02*
D03*
X127600Y-144000D02*
D03*
X98200Y-201000D02*
D03*
X85446D02*
D03*
X212300Y-247900D02*
D03*
X157300Y-285800D02*
D03*
X73800Y-218600D02*
D03*
X101500Y-193200D02*
D03*
X88000Y-210800D02*
D03*
X227900Y-137900D02*
D03*
X324900Y-266500D02*
D03*
X275200Y-169100D02*
D03*
X271800Y-37600D02*
D03*
X207700Y-38000D02*
D03*
X77900Y-188200D02*
D03*
X100200Y-303000D02*
D03*
X47000Y-324900D02*
D03*
X86600Y-346800D02*
D03*
X129500Y-157600D02*
D03*
M02*
