G04*
G04 #@! TF.GenerationSoftware,Altium Limited,Altium Designer,22.2.1 (43)*
G04*
G04 Layer_Physical_Order=2*
G04 Layer_Color=36540*
%FSLAX25Y25*%
%MOIN*%
G70*
G04*
G04 #@! TF.SameCoordinates,91E75CD4-E1FE-4043-AE3D-700B569F0639*
G04*
G04*
G04 #@! TF.FilePolarity,Positive*
G04*
G01*
G75*
%ADD52C,0.01900*%
%ADD55C,0.05906*%
%ADD56R,0.05906X0.05906*%
%ADD57R,0.05906X0.05906*%
%ADD58C,0.02500*%
%ADD59C,0.06024*%
%ADD60R,0.06024X0.06024*%
%ADD61C,0.05610*%
%ADD62R,0.05610X0.05610*%
%ADD63C,0.06000*%
%ADD64R,0.06024X0.06024*%
%ADD65C,0.03000*%
D52*
X94551Y-55451D02*
X199689Y-160590D01*
Y-174090D02*
Y-160590D01*
X81403Y-55451D02*
X94551D01*
X203403Y-213903D02*
Y-129480D01*
Y-213903D02*
X207000Y-217500D01*
X202550Y-128628D02*
X203403Y-129480D01*
X76900Y-50948D02*
X81403Y-55451D01*
X199689Y-174090D02*
X199900Y-174300D01*
X207850Y-191600D02*
Y-79348D01*
X205600Y-77098D02*
X207850Y-79348D01*
X202500Y-63660D02*
Y-58500D01*
X202550Y-128628D02*
Y-63710D01*
X202500Y-63660D02*
X202550Y-63710D01*
X223030Y-186570D02*
X225000Y-184600D01*
X219800Y-290500D02*
Y-153600D01*
X223030Y-294946D02*
Y-186570D01*
X215000Y-295300D02*
X219800Y-290500D01*
X218576Y-299400D02*
X223030Y-294946D01*
X147500Y-204300D02*
X216750Y-273550D01*
X111400Y-204300D02*
X147500D01*
X216750Y-276057D02*
Y-273550D01*
X111300Y-204200D02*
X111400Y-204300D01*
X111300Y-204200D02*
Y-192067D01*
X151100Y-152267D01*
X156600Y-208200D02*
X216000Y-267600D01*
X156600Y-208200D02*
Y-167767D01*
X151100Y-162267D02*
X156600Y-167767D01*
X207809Y-206098D02*
X211353Y-202555D01*
Y-67150D01*
X210800Y-66598D02*
X211353Y-67150D01*
X205600Y-77098D02*
Y-76800D01*
X210800Y-66598D02*
Y-66300D01*
X214403Y-92300D02*
X229085D01*
X225530Y-322030D02*
X228200Y-324700D01*
X225530Y-260280D02*
X226900Y-258910D01*
X225530Y-322030D02*
Y-260280D01*
X238837Y-293636D02*
X261966D01*
X233800Y-288600D02*
Y-192898D01*
Y-288600D02*
X238837Y-293636D01*
X226900Y-258910D02*
Y-197762D01*
X229859Y-193924D02*
X230700Y-194765D01*
Y-304600D02*
X239300Y-313200D01*
X230700Y-304600D02*
Y-194765D01*
X229859Y-193924D02*
Y-193626D01*
X307100Y-275600D02*
Y-243900D01*
X294100Y-230900D02*
Y-223700D01*
Y-230900D02*
X307100Y-243900D01*
Y-275600D02*
X316070Y-284570D01*
X332100D01*
X304200Y-276670D02*
X332100Y-304570D01*
X304200Y-276670D02*
Y-245060D01*
X301700Y-281800D02*
Y-246096D01*
Y-281800D02*
X329300Y-309400D01*
X271100Y-256370D02*
Y-181298D01*
X273100Y-179298D01*
Y-179000D01*
X262900Y-264570D02*
X271100Y-256370D01*
X266385Y-217237D02*
Y-129600D01*
X229085Y-92300D02*
X266385Y-129600D01*
Y-217237D02*
X267800Y-218652D01*
Y-218900D02*
Y-218652D01*
X232900Y-191998D02*
Y-191700D01*
Y-191998D02*
X233800Y-192898D01*
X261966Y-293636D02*
X262900Y-294570D01*
X334275Y-309400D02*
X336237Y-307438D01*
X329300Y-309400D02*
X334275D01*
X287350Y-185136D02*
Y-184948D01*
X285900Y-186586D02*
X287350Y-185136D01*
X287900Y-184398D02*
Y-184100D01*
X287350Y-184948D02*
X287900Y-184398D01*
X282000Y-230709D02*
Y-160900D01*
Y-230709D02*
X292657Y-241366D01*
X285900Y-230296D02*
Y-186586D01*
Y-230296D02*
X301700Y-246096D01*
X276300Y-236300D02*
X281990Y-241989D01*
X285590D02*
X285800Y-242200D01*
X281990Y-241989D02*
X285590D01*
X276300Y-236300D02*
Y-170498D01*
X275200Y-169398D02*
X276300Y-170498D01*
X275200Y-169398D02*
Y-169100D01*
X273843Y-152743D02*
X282000Y-160900D01*
X273843Y-152743D02*
X273843D01*
X209200Y-295300D02*
X215000D01*
X43041Y-299400D02*
X218576D01*
X42141Y-300300D02*
X43041Y-299400D01*
X41600Y-300300D02*
X42141D01*
X288400Y-229260D02*
X304200Y-245060D01*
X288400Y-229260D02*
Y-192471D01*
X291400Y-189471D01*
X336237Y-307438D02*
X337687Y-305988D01*
Y-303938D02*
Y-301887D01*
X336235Y-300435D02*
X336237Y-300437D01*
X332100Y-295898D02*
X333384Y-297181D01*
Y-297584D02*
X336235Y-300435D01*
X336237Y-300437D02*
X337687Y-301887D01*
X332100Y-295898D02*
Y-294570D01*
X333384Y-297584D02*
Y-297181D01*
X336235Y-300435D02*
Y-300435D01*
X337687Y-305988D02*
Y-303938D01*
X291400Y-189471D02*
Y-151900D01*
X288800Y-149300D02*
X291400Y-151900D01*
X254270Y-313200D02*
X262900Y-304570D01*
X239300Y-313200D02*
X254270D01*
X253705Y-324700D02*
X262900Y-315505D01*
X228200Y-324700D02*
X253705D01*
X262900Y-315505D02*
Y-314570D01*
D55*
X76900Y-73400D02*
D03*
X46900D02*
D03*
X76900Y-93400D02*
D03*
X46900D02*
D03*
X76900Y-30948D02*
D03*
X46900D02*
D03*
X76900Y-50948D02*
D03*
X46900D02*
D03*
X286800Y-105300D02*
D03*
Y-95300D02*
D03*
Y-85300D02*
D03*
Y-75300D02*
D03*
Y-65300D02*
D03*
Y-55300D02*
D03*
Y-45300D02*
D03*
X332100Y-264570D02*
D03*
Y-274570D02*
D03*
Y-284570D02*
D03*
Y-294570D02*
D03*
Y-314570D02*
D03*
Y-304570D02*
D03*
X163000Y-67900D02*
D03*
X153000D02*
D03*
X143000D02*
D03*
X133000D02*
D03*
X92500Y-50948D02*
D03*
X122500D02*
D03*
X92500Y-30948D02*
D03*
X122500D02*
D03*
X328900Y-84500D02*
D03*
Y-74500D02*
D03*
Y-64500D02*
D03*
Y-54500D02*
D03*
Y-44500D02*
D03*
Y-34500D02*
D03*
Y-24500D02*
D03*
Y-94500D02*
D03*
X196000Y-95300D02*
D03*
Y-85300D02*
D03*
Y-75300D02*
D03*
Y-65300D02*
D03*
Y-55300D02*
D03*
Y-45300D02*
D03*
Y-35300D02*
D03*
X23100Y-284000D02*
D03*
Y-294000D02*
D03*
Y-304000D02*
D03*
Y-314000D02*
D03*
Y-324000D02*
D03*
Y-334000D02*
D03*
Y-344000D02*
D03*
X262900Y-264570D02*
D03*
Y-274570D02*
D03*
Y-284570D02*
D03*
Y-294570D02*
D03*
Y-314570D02*
D03*
Y-304570D02*
D03*
X100400Y-337600D02*
D03*
X90400D02*
D03*
X80400D02*
D03*
X70400D02*
D03*
X60400D02*
D03*
X121200Y-253500D02*
D03*
X111200D02*
D03*
X101200D02*
D03*
X91200D02*
D03*
X81200D02*
D03*
X194700Y-304500D02*
D03*
Y-314500D02*
D03*
Y-324500D02*
D03*
Y-334500D02*
D03*
Y-344500D02*
D03*
X180200Y-253000D02*
D03*
X170200D02*
D03*
X160200D02*
D03*
X202700Y-280800D02*
D03*
X122100Y-72500D02*
D03*
X92100D02*
D03*
X122100Y-92500D02*
D03*
X92100D02*
D03*
D56*
X286800Y-35300D02*
D03*
X332100Y-324570D02*
D03*
X328900Y-104500D02*
D03*
X196000Y-105300D02*
D03*
X23100Y-274000D02*
D03*
X262900Y-324570D02*
D03*
X194700Y-294500D02*
D03*
D57*
X173000Y-67900D02*
D03*
X110400Y-337600D02*
D03*
X131200Y-253500D02*
D03*
X150200Y-253000D02*
D03*
X212700Y-280800D02*
D03*
D58*
X334511Y-151117D02*
D03*
X299078D02*
D03*
X335916Y-216278D02*
D03*
Y-251711D02*
D03*
D59*
X322700Y-143400D02*
D03*
X328200Y-228089D02*
D03*
D60*
X310889Y-143400D02*
D03*
D61*
X151100Y-192267D02*
D03*
Y-182267D02*
D03*
Y-172267D02*
D03*
Y-162267D02*
D03*
Y-152267D02*
D03*
Y-142267D02*
D03*
D62*
Y-132267D02*
D03*
D63*
X37700Y-234800D02*
D03*
X159600Y-331800D02*
D03*
Y-35500D02*
D03*
X319500Y-183600D02*
D03*
X37700Y-139200D02*
D03*
D64*
X328200Y-239900D02*
D03*
D65*
X6800Y-67500D02*
D03*
X2600Y-106600D02*
D03*
X7100Y-100400D02*
D03*
X29000Y-105200D02*
D03*
X4200Y-28200D02*
D03*
X199500Y-135800D02*
D03*
X153300Y-107900D02*
D03*
X81600Y-98300D02*
D03*
X82700Y-23200D02*
D03*
X182440Y-180640D02*
D03*
X166300Y-147700D02*
D03*
X197400Y-188200D02*
D03*
X207600Y-211800D02*
D03*
X202500Y-58500D02*
D03*
X111400Y-204300D02*
D03*
X131700Y-198700D02*
D03*
X129500Y-168300D02*
D03*
X125200Y-194300D02*
D03*
X126800Y-224050D02*
D03*
X199900Y-174300D02*
D03*
X161000Y-177100D02*
D03*
X207809Y-206098D02*
D03*
X273843Y-152743D02*
D03*
X207850Y-191600D02*
D03*
X207000Y-217500D02*
D03*
X214403Y-92300D02*
D03*
X216000Y-267600D02*
D03*
X226900Y-197762D02*
D03*
X229859Y-193626D02*
D03*
X216750Y-276057D02*
D03*
X219800Y-153600D02*
D03*
X216192Y-138206D02*
D03*
X262407Y-173807D02*
D03*
X205600Y-76800D02*
D03*
X271172Y-168707D02*
D03*
X292412Y-254712D02*
D03*
X294100Y-223700D02*
D03*
X292657Y-241366D02*
D03*
X85488Y-180211D02*
D03*
X78350Y-170700D02*
D03*
X285800Y-242200D02*
D03*
X273100Y-179000D02*
D03*
X232900Y-191700D02*
D03*
X43100Y-330300D02*
D03*
X241700Y-270300D02*
D03*
X287900Y-184100D02*
D03*
X165900Y-77400D02*
D03*
X286500Y-279100D02*
D03*
X267800Y-218900D02*
D03*
X127600Y-144000D02*
D03*
X98200Y-201000D02*
D03*
X85446D02*
D03*
X77700Y-200200D02*
D03*
X225000Y-184600D02*
D03*
X212300Y-247900D02*
D03*
X157300Y-285800D02*
D03*
X209200Y-295300D02*
D03*
X73800Y-218600D02*
D03*
X101500Y-193200D02*
D03*
X88000Y-210800D02*
D03*
X80500Y-234800D02*
D03*
X227900Y-137900D02*
D03*
X324900Y-266500D02*
D03*
X275200Y-169100D02*
D03*
X271800Y-37600D02*
D03*
X207700Y-38000D02*
D03*
X77900Y-188200D02*
D03*
Y-196200D02*
D03*
X100200Y-303000D02*
D03*
X47000Y-324900D02*
D03*
X86600Y-346800D02*
D03*
X41600Y-300300D02*
D03*
X255000Y-208600D02*
D03*
X176500Y-281800D02*
D03*
X181100Y-285200D02*
D03*
X89500Y-278500D02*
D03*
X129500Y-157600D02*
D03*
X184600Y-287500D02*
D03*
X79189Y-239789D02*
D03*
X75600Y-150200D02*
D03*
X75100Y-165100D02*
D03*
X210800Y-66300D02*
D03*
X77000Y-175300D02*
D03*
X288800Y-149300D02*
D03*
X47200Y-273500D02*
D03*
X116800Y-289400D02*
D03*
X109000Y-289500D02*
D03*
M02*
