G04*
G04 #@! TF.GenerationSoftware,Altium Limited,Altium Designer,21.6.4 (81)*
G04*
G04 Layer_Physical_Order=2*
G04 Layer_Color=16711680*
%FSLAX25Y25*%
%MOIN*%
G70*
G04*
G04 #@! TF.SameCoordinates,D5AC2A0C-6B64-4F22-A7EC-2E28CE3556BC*
G04*
G04*
G04 #@! TF.FilePolarity,Positive*
G04*
G01*
G75*
%ADD20C,0.06319*%
%ADD21C,0.06004*%
%ADD22C,0.06378*%
%ADD23C,0.12008*%
%ADD24C,0.12000*%
D20*
X303189Y-100722D02*
D03*
Y-88911D02*
D03*
Y-77100D02*
D03*
Y-65289D02*
D03*
Y-53478D02*
D03*
X315000Y-100722D02*
D03*
Y-88911D02*
D03*
Y-77100D02*
D03*
Y-65289D02*
D03*
Y-53478D02*
D03*
D21*
X286181Y-61942D02*
D03*
Y-92257D02*
D03*
D22*
X366992Y-186946D02*
D03*
X355181D02*
D03*
X366992Y-146900D02*
D03*
X355181D02*
D03*
X366992Y-106854D02*
D03*
X355181D02*
D03*
X366992Y-43337D02*
D03*
X355181D02*
D03*
X366992Y-3291D02*
D03*
X355181D02*
D03*
X366992Y77000D02*
D03*
X355181D02*
D03*
X366992Y36754D02*
D03*
X355181D02*
D03*
X366992Y-226991D02*
D03*
X355181D02*
D03*
D23*
X384000Y-186946D02*
D03*
Y-146900D02*
D03*
Y-106854D02*
D03*
Y-43337D02*
D03*
Y-3291D02*
D03*
Y77000D02*
D03*
Y36754D02*
D03*
Y-226991D02*
D03*
D24*
X391200Y-76800D02*
D03*
X299100Y93500D02*
D03*
X299000Y-229200D02*
D03*
M02*
