M48
;Layer_Color=9474304
;FILE_FORMAT=2:5
INCH,TZ
;TYPE=PLATED
T1F00S00C0.04213
T2F00S00C0.12008
;TYPE=NON_PLATED
T3F00S00C0.11800
T4F00S00C0.12008
%
T01
X355181Y-226991
X366992
Y-186946
X355181
Y-146900
X366992
Y-106854
X355181
X315000Y-100722
Y-88911
Y-77100
Y-65289
Y-53478
X355181Y-43337
X366992
Y-3291
X355181
Y36754
X366992
X303189Y-53478
Y-65289
Y-77100
Y-88911
Y-100722
X355181Y77000
X366992
T02
X384000Y-226991
Y-186946
Y-146900
Y-106854
Y-43337
Y-3291
Y36754
Y77000
T03
X299000Y-229200
X391200Y-76800
X299100Y93500
T04
X286181Y-92257
Y-61942
M30
