G04*
G04 #@! TF.GenerationSoftware,Altium Limited,Altium Designer,21.6.4 (81)*
G04*
G04 Layer_Color=8388736*
%FSLAX25Y25*%
%MOIN*%
G70*
G04*
G04 #@! TF.SameCoordinates,D5AC2A0C-6B64-4F22-A7EC-2E28CE3556BC*
G04*
G04*
G04 #@! TF.FilePolarity,Negative*
G04*
G01*
G75*
%ADD14C,0.07119*%
%ADD15C,0.06804*%
%ADD16C,0.07178*%
%ADD17C,0.12808*%
%ADD18C,0.12394*%
D14*
X303189Y-100722D02*
D03*
Y-88911D02*
D03*
Y-77100D02*
D03*
Y-65289D02*
D03*
Y-53478D02*
D03*
X315000Y-100722D02*
D03*
Y-88911D02*
D03*
Y-77100D02*
D03*
Y-65289D02*
D03*
Y-53478D02*
D03*
D15*
X286181Y-61942D02*
D03*
Y-92257D02*
D03*
D16*
X366992Y-186946D02*
D03*
X355181D02*
D03*
X366992Y-146900D02*
D03*
X355181D02*
D03*
X366992Y-106854D02*
D03*
X355181D02*
D03*
X366992Y-43337D02*
D03*
X355181D02*
D03*
X366992Y-3291D02*
D03*
X355181D02*
D03*
X366992Y77000D02*
D03*
X355181D02*
D03*
X366992Y36754D02*
D03*
X355181D02*
D03*
X366992Y-226991D02*
D03*
X355181D02*
D03*
D17*
X384000Y-186946D02*
D03*
Y-146900D02*
D03*
Y-106854D02*
D03*
Y-43337D02*
D03*
Y-3291D02*
D03*
Y77000D02*
D03*
Y36754D02*
D03*
Y-226991D02*
D03*
D18*
X391200Y-76800D02*
D03*
X299100Y93500D02*
D03*
X299000Y-229200D02*
D03*
M02*
