G04*
G04 #@! TF.GenerationSoftware,Altium Limited,Altium Designer,21.6.4 (81)*
G04*
G04 Layer_Physical_Order=1*
G04 Layer_Color=255*
%FSLAX25Y25*%
%MOIN*%
G70*
G04*
G04 #@! TF.SameCoordinates,D5AC2A0C-6B64-4F22-A7EC-2E28CE3556BC*
G04*
G04*
G04 #@! TF.FilePolarity,Positive*
G04*
G01*
G75*
%ADD19C,0.02000*%
%ADD20C,0.06319*%
%ADD21C,0.06004*%
%ADD22C,0.06378*%
%ADD23C,0.12008*%
%ADD24C,0.12000*%
D19*
X320000Y95300D02*
X356500D01*
X298400Y73700D02*
X320000Y95300D01*
X298400Y-48689D02*
Y73700D01*
Y-48689D02*
X303189Y-53478D01*
X315000Y-145354D02*
X356592Y-186946D01*
X315000Y-145354D02*
Y-100722D01*
X303189Y-174492D02*
Y-100722D01*
Y-174492D02*
X355689Y-226991D01*
X332600Y-129400D02*
X350100Y-146900D01*
X356592D01*
X321800Y-94400D02*
X332600Y-105200D01*
Y-129400D02*
Y-105200D01*
X308678Y-94400D02*
X321800D01*
X303189Y-88911D02*
X308678Y-94400D01*
X315000Y-88911D02*
X338648D01*
X356592Y-106854D01*
X349900Y-50029D02*
X356592Y-43337D01*
X349900Y-64500D02*
Y-50029D01*
X337300Y-77100D02*
X349900Y-64500D01*
X315000Y-77100D02*
X337300D01*
X303189D02*
X308989Y-71300D01*
X331800D01*
X338300Y-64800D01*
Y-21583D01*
X356592Y-3291D01*
X332600Y-55900D02*
Y13673D01*
X355681Y36754D01*
X323211Y-65289D02*
X332600Y-55900D01*
X315000Y-65289D02*
X323211D01*
X303189D02*
X309878Y-58600D01*
X321133D01*
X322925Y-56808D01*
Y44744D01*
X355181Y77000D01*
X303189Y-53478D02*
X315000D01*
X367500Y-226991D02*
X367951Y-226540D01*
Y-187397D02*
X368403Y-186946D01*
X367951Y-226540D02*
Y-187397D01*
X368403Y-186946D02*
Y-146900D01*
Y-106854D01*
Y-43337D01*
Y-3291D01*
X367947Y-2836D02*
Y36299D01*
Y-2836D02*
X368403Y-3291D01*
X367492Y36754D02*
X367947Y36299D01*
X367242Y37004D02*
X367492Y36754D01*
X367242Y37004D02*
Y76750D01*
X366992Y77000D02*
X367242Y76750D01*
X366400Y77592D02*
X366992Y77000D01*
X366400Y77592D02*
Y85400D01*
X356500Y95300D02*
X366400Y85400D01*
D20*
X303189Y-100722D02*
D03*
Y-88911D02*
D03*
Y-77100D02*
D03*
Y-65289D02*
D03*
Y-53478D02*
D03*
X315000Y-100722D02*
D03*
Y-88911D02*
D03*
Y-77100D02*
D03*
Y-65289D02*
D03*
Y-53478D02*
D03*
D21*
X286181Y-61942D02*
D03*
Y-92257D02*
D03*
D22*
X366992Y-186946D02*
D03*
X355181D02*
D03*
X366992Y-146900D02*
D03*
X355181D02*
D03*
X366992Y-106854D02*
D03*
X355181D02*
D03*
X366992Y-43337D02*
D03*
X355181D02*
D03*
X366992Y-3291D02*
D03*
X355181D02*
D03*
X366992Y77000D02*
D03*
X355181D02*
D03*
X366992Y36754D02*
D03*
X355181D02*
D03*
X366992Y-226991D02*
D03*
X355181D02*
D03*
D23*
X384000Y-186946D02*
D03*
Y-146900D02*
D03*
Y-106854D02*
D03*
Y-43337D02*
D03*
Y-3291D02*
D03*
Y77000D02*
D03*
Y36754D02*
D03*
Y-226991D02*
D03*
D24*
X391200Y-76800D02*
D03*
X299100Y93500D02*
D03*
X299000Y-229200D02*
D03*
M02*
