G04*
G04 #@! TF.GenerationSoftware,Altium Limited,Altium Designer,21.6.4 (81)*
G04*
G04 Layer_Color=65535*
%FSLAX25Y25*%
%MOIN*%
G70*
G04*
G04 #@! TF.SameCoordinates,D5AC2A0C-6B64-4F22-A7EC-2E28CE3556BC*
G04*
G04*
G04 #@! TF.FilePolarity,Positive*
G04*
G01*
G75*
%ADD10C,0.00787*%
%ADD11C,0.01575*%
%ADD12C,0.00394*%
%ADD13C,0.01000*%
D10*
X301378Y-116470D02*
G03*
X301378Y-116864I0J-197D01*
G01*
D02*
G03*
X301378Y-116470I0J197D01*
G01*
X373882Y-200036D02*
Y-173855D01*
X334512D02*
X373882D01*
X334512Y-200036D02*
Y-173855D01*
Y-200036D02*
X373882D01*
Y-159991D02*
Y-133809D01*
X334512D02*
X373882D01*
X334512Y-159991D02*
Y-133809D01*
Y-159991D02*
X373882D01*
Y-119945D02*
Y-93764D01*
X334512D02*
X373882D01*
X334512Y-119945D02*
Y-93764D01*
Y-119945D02*
X373882D01*
Y-56428D02*
Y-30247D01*
X334512D02*
X373882D01*
X334512Y-56428D02*
Y-30247D01*
Y-56428D02*
X373882D01*
Y-16382D02*
Y9799D01*
X334512D02*
X373882D01*
X334512Y-16382D02*
Y9799D01*
Y-16382D02*
X373882D01*
Y63910D02*
Y90091D01*
X334512D02*
X373882D01*
X334512Y63910D02*
Y90091D01*
Y63910D02*
X373882D01*
Y23664D02*
Y49845D01*
X334512D02*
X373882D01*
X334512Y23664D02*
Y49845D01*
Y23664D02*
X373882D01*
Y-240082D02*
Y-213901D01*
X334512D02*
X373882D01*
X334512Y-240082D02*
Y-213901D01*
Y-240082D02*
X373882D01*
D11*
X368856Y-163843D02*
G03*
X368856Y-163843I-1080J0D01*
G01*
Y-123798D02*
G03*
X368856Y-123798I-1080J0D01*
G01*
Y-83752D02*
G03*
X368856Y-83752I-1080J0D01*
G01*
Y-20235D02*
G03*
X368856Y-20235I-1080J0D01*
G01*
Y19811D02*
G03*
X368856Y19811I-1080J0D01*
G01*
Y100102D02*
G03*
X368856Y100102I-1080J0D01*
G01*
Y59857D02*
G03*
X368856Y59857I-1080J0D01*
G01*
Y-203889D02*
G03*
X368856Y-203889I-1080J0D01*
G01*
D12*
X403011Y-76800D02*
G03*
X403011Y-76800I-11811J0D01*
G01*
X310911Y93500D02*
G03*
X310911Y93500I-11811J0D01*
G01*
X310811Y-229200D02*
G03*
X310811Y-229200I-11811J0D01*
G01*
X268071Y-40387D02*
X307087D01*
X268071Y-113813D02*
Y-40387D01*
Y-113813D02*
X307087D01*
D13*
X289833Y-26276D02*
X287833D01*
X288833D01*
Y-31274D01*
X287833Y-32274D01*
X286834D01*
X285834Y-31274D01*
X291832Y-27276D02*
X292832Y-26276D01*
X294831D01*
X295831Y-27276D01*
Y-28275D01*
X294831Y-29275D01*
X293831D01*
X294831D01*
X295831Y-30275D01*
Y-31274D01*
X294831Y-32274D01*
X292832D01*
X291832Y-31274D01*
X387193Y-205001D02*
X385193D01*
X386193D01*
Y-209999D01*
X385193Y-210999D01*
X384193D01*
X383194Y-209999D01*
X389192D02*
X390192Y-210999D01*
X392191D01*
X393191Y-209999D01*
Y-206001D01*
X392191Y-205001D01*
X390192D01*
X389192Y-206001D01*
Y-207000D01*
X390192Y-208000D01*
X393191D01*
X388190Y-165101D02*
X386191D01*
X387190D01*
Y-170099D01*
X386191Y-171099D01*
X385191D01*
X384191Y-170099D01*
X390189Y-166101D02*
X391189Y-165101D01*
X393188D01*
X394188Y-166101D01*
Y-167100D01*
X393188Y-168100D01*
X394188Y-169100D01*
Y-170099D01*
X393188Y-171099D01*
X391189D01*
X390189Y-170099D01*
Y-169100D01*
X391189Y-168100D01*
X390189Y-167100D01*
Y-166101D01*
X391189Y-168100D02*
X393188D01*
X390190Y-125101D02*
X388191D01*
X389190D01*
Y-130099D01*
X388191Y-131099D01*
X387191D01*
X386191Y-130099D01*
X392189Y-125101D02*
X396188D01*
Y-126101D01*
X392189Y-130099D01*
Y-131099D01*
X353790Y-84401D02*
X351790D01*
X352790D01*
Y-89399D01*
X351790Y-90399D01*
X350791D01*
X349791Y-89399D01*
X359788Y-84401D02*
X357789Y-85401D01*
X355789Y-87400D01*
Y-89399D01*
X356789Y-90399D01*
X358788D01*
X359788Y-89399D01*
Y-88400D01*
X358788Y-87400D01*
X355789D01*
X391890Y-21338D02*
X389891D01*
X390890D01*
Y-26337D01*
X389891Y-27336D01*
X388891D01*
X387891Y-26337D01*
X397888Y-21338D02*
X393889D01*
Y-24337D01*
X395889Y-23337D01*
X396888D01*
X397888Y-24337D01*
Y-26337D01*
X396888Y-27336D01*
X394889D01*
X393889Y-26337D01*
X390190Y18808D02*
X388191D01*
X389190D01*
Y13809D01*
X388191Y12810D01*
X387191D01*
X386191Y13809D01*
X395188Y12810D02*
Y18808D01*
X392189Y15809D01*
X396188D01*
X389490Y58553D02*
X387490D01*
X388490D01*
Y53555D01*
X387490Y52555D01*
X386491D01*
X385491Y53555D01*
X395488Y52555D02*
X391489D01*
X395488Y56554D01*
Y57554D01*
X394488Y58553D01*
X392489D01*
X391489Y57554D01*
X390492Y99053D02*
X388493D01*
X389493D01*
Y94055D01*
X388493Y93055D01*
X387493D01*
X386493Y94055D01*
X392492Y93055D02*
X394491D01*
X393491D01*
Y99053D01*
X392492Y98054D01*
M02*
