G04*
G04 #@! TF.GenerationSoftware,Altium Limited,Altium Designer,21.6.4 (81)*
G04*
G04 Layer_Color=16711935*
%FSLAX25Y25*%
%MOIN*%
G70*
G04*
G04 #@! TF.SameCoordinates,D5AC2A0C-6B64-4F22-A7EC-2E28CE3556BC*
G04*
G04*
G04 #@! TF.FilePolarity,Positive*
G04*
G01*
G75*
%ADD10C,0.00787*%
D10*
X307087Y-113813D02*
Y-40387D01*
X268071Y-113813D02*
X307087D01*
X268071D02*
Y-40387D01*
X307087D01*
X373882Y-200036D02*
Y-173855D01*
X334512D02*
X373882D01*
X334512Y-200036D02*
Y-173855D01*
Y-200036D02*
X373882D01*
Y-159991D02*
Y-133809D01*
X334512D02*
X373882D01*
X334512Y-159991D02*
Y-133809D01*
Y-159991D02*
X373882D01*
Y-119945D02*
Y-93764D01*
X334512D02*
X373882D01*
X334512Y-119945D02*
Y-93764D01*
Y-119945D02*
X373882D01*
Y-56428D02*
Y-30247D01*
X334512D02*
X373882D01*
X334512Y-56428D02*
Y-30247D01*
Y-56428D02*
X373882D01*
Y-16382D02*
Y9799D01*
X334512D02*
X373882D01*
X334512Y-16382D02*
Y9799D01*
Y-16382D02*
X373882D01*
Y63910D02*
Y90091D01*
X334512D02*
X373882D01*
X334512Y63910D02*
Y90091D01*
Y63910D02*
X373882D01*
Y23664D02*
Y49845D01*
X334512D02*
X373882D01*
X334512Y23664D02*
Y49845D01*
Y23664D02*
X373882D01*
Y-240082D02*
Y-213901D01*
X334512D02*
X373882D01*
X334512Y-240082D02*
Y-213901D01*
Y-240082D02*
X373882D01*
M02*
