G04*
G04 #@! TF.GenerationSoftware,Altium Limited,Altium Designer,21.6.4 (81)*
G04*
G04 Layer_Color=16711935*
%FSLAX25Y25*%
%MOIN*%
G70*
G04*
G04 #@! TF.SameCoordinates,393E5191-32C9-482E-8597-D2070C99FE83*
G04*
G04*
G04 #@! TF.FilePolarity,Positive*
G04*
G01*
G75*
%ADD12C,0.00787*%
G36*
X601309Y188285D02*
X601338Y188281D01*
X601374Y188278D01*
X601414Y188270D01*
X601454Y188263D01*
X601549Y188238D01*
X601644Y188201D01*
X601691Y188180D01*
X601738Y188154D01*
X601782Y188121D01*
X601822Y188085D01*
X601826Y188081D01*
X601833Y188078D01*
X601840Y188063D01*
X601855Y188048D01*
X601873Y188030D01*
X601891Y188005D01*
X601909Y187979D01*
X601931Y187946D01*
X601968Y187877D01*
X602004Y187790D01*
X602019Y187746D01*
X602026Y187695D01*
X602033Y187644D01*
X602037Y187590D01*
Y187583D01*
Y187564D01*
X602033Y187535D01*
X602030Y187495D01*
X602022Y187452D01*
X602008Y187400D01*
X601993Y187346D01*
X601971Y187291D01*
X601968Y187284D01*
X601960Y187266D01*
X601946Y187237D01*
X601924Y187197D01*
X601895Y187153D01*
X601858Y187098D01*
X601815Y187044D01*
X601764Y186982D01*
X601756Y186975D01*
X601738Y186953D01*
X601720Y186935D01*
X601702Y186916D01*
X601680Y186895D01*
X601651Y186865D01*
X601622Y186836D01*
X601585Y186804D01*
X601549Y186767D01*
X601505Y186727D01*
X601458Y186687D01*
X601407Y186640D01*
X601349Y186592D01*
X601291Y186541D01*
X601287Y186538D01*
X601280Y186531D01*
X601265Y186520D01*
X601247Y186505D01*
X601225Y186483D01*
X601200Y186461D01*
X601141Y186414D01*
X601079Y186360D01*
X601021Y186305D01*
X600970Y186258D01*
X600948Y186239D01*
X600930Y186221D01*
X600927Y186217D01*
X600916Y186207D01*
X600901Y186192D01*
X600883Y186170D01*
X600865Y186145D01*
X600843Y186119D01*
X600799Y186057D01*
X602040D01*
Y185759D01*
X600370D01*
Y185763D01*
Y185777D01*
Y185799D01*
X600373Y185828D01*
X600377Y185861D01*
X600384Y185897D01*
X600391Y185934D01*
X600406Y185974D01*
Y185977D01*
X600410Y185981D01*
X600417Y186003D01*
X600431Y186036D01*
X600453Y186079D01*
X600483Y186130D01*
X600519Y186188D01*
X600559Y186247D01*
X600610Y186309D01*
Y186312D01*
X600617Y186316D01*
X600635Y186338D01*
X600668Y186370D01*
X600715Y186418D01*
X600770Y186472D01*
X600839Y186538D01*
X600923Y186611D01*
X601014Y186687D01*
X601018Y186691D01*
X601032Y186702D01*
X601054Y186720D01*
X601079Y186742D01*
X601112Y186771D01*
X601152Y186804D01*
X601192Y186840D01*
X601240Y186880D01*
X601331Y186967D01*
X601422Y187055D01*
X601465Y187098D01*
X601505Y187142D01*
X601542Y187182D01*
X601571Y187222D01*
Y187226D01*
X601578Y187229D01*
X601585Y187240D01*
X601593Y187255D01*
X601618Y187295D01*
X601647Y187342D01*
X601673Y187400D01*
X601698Y187462D01*
X601713Y187532D01*
X601720Y187597D01*
Y187601D01*
Y187604D01*
X601716Y187626D01*
X601713Y187663D01*
X601702Y187703D01*
X601687Y187754D01*
X601662Y187805D01*
X601629Y187856D01*
X601585Y187907D01*
X601578Y187914D01*
X601560Y187928D01*
X601534Y187946D01*
X601494Y187972D01*
X601443Y187994D01*
X601385Y188016D01*
X601316Y188030D01*
X601240Y188034D01*
X601218D01*
X601203Y188030D01*
X601159Y188027D01*
X601109Y188016D01*
X601054Y188001D01*
X600992Y187976D01*
X600934Y187943D01*
X600879Y187899D01*
X600872Y187892D01*
X600857Y187874D01*
X600836Y187845D01*
X600814Y187801D01*
X600788Y187750D01*
X600766Y187684D01*
X600752Y187612D01*
X600745Y187528D01*
X600428Y187561D01*
Y187564D01*
X600431Y187575D01*
Y187593D01*
X600435Y187619D01*
X600442Y187648D01*
X600450Y187681D01*
X600461Y187721D01*
X600472Y187761D01*
X600501Y187848D01*
X600544Y187936D01*
X600570Y187979D01*
X600603Y188023D01*
X600635Y188063D01*
X600672Y188099D01*
X600675Y188103D01*
X600683Y188107D01*
X600694Y188118D01*
X600712Y188128D01*
X600734Y188143D01*
X600759Y188158D01*
X600788Y188176D01*
X600825Y188194D01*
X600865Y188212D01*
X600908Y188230D01*
X600956Y188245D01*
X601007Y188260D01*
X601061Y188270D01*
X601120Y188281D01*
X601181Y188285D01*
X601247Y188289D01*
X601283D01*
X601309Y188285D01*
D02*
G37*
G36*
X599034Y188274D02*
X599107Y188270D01*
X599179Y188263D01*
X599252Y188252D01*
X599314Y188241D01*
X599318D01*
X599325Y188238D01*
X599336D01*
X599350Y188230D01*
X599391Y188219D01*
X599441Y188201D01*
X599500Y188176D01*
X599562Y188143D01*
X599623Y188107D01*
X599682Y188059D01*
X599685Y188056D01*
X599689Y188052D01*
X599700Y188041D01*
X599714Y188030D01*
X599751Y187994D01*
X599794Y187943D01*
X599842Y187881D01*
X599893Y187808D01*
X599940Y187724D01*
X599980Y187630D01*
Y187626D01*
X599984Y187619D01*
X599991Y187604D01*
X599995Y187583D01*
X600006Y187557D01*
X600013Y187528D01*
X600020Y187495D01*
X600031Y187455D01*
X600042Y187415D01*
X600049Y187368D01*
X600068Y187266D01*
X600078Y187153D01*
X600082Y187029D01*
Y187026D01*
Y187018D01*
Y187000D01*
Y186982D01*
X600078Y186956D01*
Y186927D01*
X600075Y186858D01*
X600064Y186778D01*
X600053Y186694D01*
X600035Y186607D01*
X600013Y186520D01*
Y186516D01*
X600009Y186509D01*
X600006Y186498D01*
X600002Y186483D01*
X599987Y186443D01*
X599966Y186392D01*
X599944Y186334D01*
X599915Y186276D01*
X599878Y186214D01*
X599842Y186156D01*
X599838Y186148D01*
X599824Y186130D01*
X599802Y186105D01*
X599773Y186072D01*
X599740Y186036D01*
X599700Y185999D01*
X599660Y185959D01*
X599613Y185926D01*
X599605Y185923D01*
X599591Y185912D01*
X599565Y185897D01*
X599529Y185879D01*
X599485Y185857D01*
X599434Y185839D01*
X599376Y185817D01*
X599310Y185799D01*
X599303D01*
X599292Y185795D01*
X599281Y185792D01*
X599245Y185788D01*
X599194Y185781D01*
X599136Y185773D01*
X599066Y185766D01*
X598990Y185763D01*
X598906Y185759D01*
X598000D01*
Y188278D01*
X598968D01*
X599034Y188274D01*
D02*
G37*
G36*
X601578Y146259D02*
X601269D01*
Y148228D01*
X601265Y148224D01*
X601247Y148210D01*
X601225Y148188D01*
X601189Y148163D01*
X601149Y148130D01*
X601098Y148093D01*
X601039Y148053D01*
X600974Y148013D01*
X600970D01*
X600967Y148010D01*
X600945Y147995D01*
X600908Y147977D01*
X600865Y147955D01*
X600814Y147930D01*
X600759Y147904D01*
X600704Y147879D01*
X600650Y147857D01*
Y148155D01*
X600654D01*
X600661Y148163D01*
X600675Y148166D01*
X600694Y148177D01*
X600715Y148188D01*
X600741Y148203D01*
X600803Y148239D01*
X600876Y148279D01*
X600948Y148330D01*
X601025Y148388D01*
X601101Y148450D01*
X601105Y148454D01*
X601109Y148457D01*
X601120Y148468D01*
X601134Y148479D01*
X601167Y148516D01*
X601210Y148559D01*
X601254Y148610D01*
X601301Y148669D01*
X601341Y148727D01*
X601378Y148789D01*
X601578D01*
Y146259D01*
D02*
G37*
G36*
X599034Y148774D02*
X599107Y148770D01*
X599179Y148763D01*
X599252Y148752D01*
X599314Y148741D01*
X599318D01*
X599325Y148738D01*
X599336D01*
X599350Y148730D01*
X599391Y148720D01*
X599441Y148701D01*
X599500Y148676D01*
X599562Y148643D01*
X599623Y148607D01*
X599682Y148559D01*
X599685Y148556D01*
X599689Y148552D01*
X599700Y148541D01*
X599714Y148530D01*
X599751Y148494D01*
X599794Y148443D01*
X599842Y148381D01*
X599893Y148308D01*
X599940Y148224D01*
X599980Y148130D01*
Y148126D01*
X599984Y148119D01*
X599991Y148104D01*
X599995Y148082D01*
X600006Y148057D01*
X600013Y148028D01*
X600020Y147995D01*
X600031Y147955D01*
X600042Y147915D01*
X600049Y147868D01*
X600068Y147766D01*
X600078Y147653D01*
X600082Y147529D01*
Y147526D01*
Y147518D01*
Y147500D01*
Y147482D01*
X600078Y147456D01*
Y147427D01*
X600075Y147358D01*
X600064Y147278D01*
X600053Y147194D01*
X600035Y147107D01*
X600013Y147020D01*
Y147016D01*
X600009Y147009D01*
X600006Y146998D01*
X600002Y146983D01*
X599987Y146943D01*
X599966Y146892D01*
X599944Y146834D01*
X599915Y146776D01*
X599878Y146714D01*
X599842Y146656D01*
X599838Y146648D01*
X599824Y146630D01*
X599802Y146605D01*
X599773Y146572D01*
X599740Y146536D01*
X599700Y146499D01*
X599660Y146459D01*
X599613Y146426D01*
X599605Y146423D01*
X599591Y146412D01*
X599565Y146397D01*
X599529Y146379D01*
X599485Y146357D01*
X599434Y146339D01*
X599376Y146317D01*
X599310Y146299D01*
X599303D01*
X599292Y146295D01*
X599281Y146292D01*
X599245Y146288D01*
X599194Y146281D01*
X599136Y146273D01*
X599066Y146266D01*
X598990Y146263D01*
X598906Y146259D01*
X598000D01*
Y148778D01*
X598968D01*
X599034Y148774D01*
D02*
G37*
%LPC*%
G36*
X598917Y187979D02*
X598335D01*
Y186057D01*
X598932D01*
X598957Y186061D01*
X599012Y186065D01*
X599074Y186068D01*
X599139Y186076D01*
X599205Y186086D01*
X599259Y186101D01*
X599267Y186105D01*
X599285Y186108D01*
X599310Y186119D01*
X599343Y186134D01*
X599380Y186156D01*
X599416Y186178D01*
X599452Y186203D01*
X599489Y186232D01*
X599492Y186239D01*
X599507Y186254D01*
X599529Y186279D01*
X599554Y186316D01*
X599583Y186363D01*
X599616Y186418D01*
X599645Y186480D01*
X599671Y186549D01*
Y186552D01*
X599674Y186560D01*
X599678Y186571D01*
X599682Y186585D01*
X599685Y186603D01*
X599693Y186629D01*
X599700Y186654D01*
X599707Y186683D01*
X599718Y186756D01*
X599729Y186840D01*
X599736Y186935D01*
X599740Y187037D01*
Y187040D01*
Y187055D01*
Y187073D01*
X599736Y187102D01*
Y187135D01*
X599733Y187171D01*
X599729Y187215D01*
X599725Y187259D01*
X599707Y187357D01*
X599685Y187459D01*
X599653Y187553D01*
X599631Y187601D01*
X599609Y187641D01*
Y187644D01*
X599602Y187652D01*
X599594Y187663D01*
X599587Y187677D01*
X599558Y187714D01*
X599521Y187757D01*
X599474Y187805D01*
X599420Y187852D01*
X599358Y187892D01*
X599292Y187925D01*
X599285Y187928D01*
X599267Y187932D01*
X599234Y187943D01*
X599187Y187954D01*
X599128Y187961D01*
X599056Y187972D01*
X599012Y187976D01*
X598965D01*
X598917Y187979D01*
D02*
G37*
G36*
Y148479D02*
X598335D01*
Y146557D01*
X598932D01*
X598957Y146561D01*
X599012Y146565D01*
X599074Y146568D01*
X599139Y146576D01*
X599205Y146587D01*
X599259Y146601D01*
X599267Y146605D01*
X599285Y146608D01*
X599310Y146619D01*
X599343Y146634D01*
X599380Y146656D01*
X599416Y146677D01*
X599452Y146703D01*
X599489Y146732D01*
X599492Y146739D01*
X599507Y146754D01*
X599529Y146779D01*
X599554Y146816D01*
X599583Y146863D01*
X599616Y146918D01*
X599645Y146980D01*
X599671Y147049D01*
Y147052D01*
X599674Y147060D01*
X599678Y147071D01*
X599682Y147085D01*
X599685Y147103D01*
X599693Y147129D01*
X599700Y147154D01*
X599707Y147183D01*
X599718Y147256D01*
X599729Y147340D01*
X599736Y147435D01*
X599740Y147537D01*
Y147540D01*
Y147555D01*
Y147573D01*
X599736Y147602D01*
Y147635D01*
X599733Y147671D01*
X599729Y147715D01*
X599725Y147759D01*
X599707Y147857D01*
X599685Y147959D01*
X599653Y148053D01*
X599631Y148101D01*
X599609Y148141D01*
Y148144D01*
X599602Y148152D01*
X599594Y148163D01*
X599587Y148177D01*
X599558Y148214D01*
X599521Y148257D01*
X599474Y148305D01*
X599420Y148352D01*
X599358Y148392D01*
X599292Y148425D01*
X599285Y148428D01*
X599267Y148432D01*
X599234Y148443D01*
X599187Y148454D01*
X599128Y148461D01*
X599056Y148472D01*
X599012Y148476D01*
X598965D01*
X598917Y148479D01*
D02*
G37*
%LPD*%
D12*
X594457Y184925D02*
Y188075D01*
Y184925D02*
X601543D01*
Y188075D01*
X594457D02*
X601543D01*
X594457Y145425D02*
Y148575D01*
Y145425D02*
X601543D01*
Y148575D01*
X594457D02*
X601543D01*
M02*
