G04*
G04 #@! TF.GenerationSoftware,Altium Limited,Altium Designer,21.6.4 (81)*
G04*
G04 Layer_Color=65535*
%FSLAX25Y25*%
%MOIN*%
G70*
G04*
G04 #@! TF.SameCoordinates,393E5191-32C9-482E-8597-D2070C99FE83*
G04*
G04*
G04 #@! TF.FilePolarity,Positive*
G04*
G01*
G75*
%ADD10C,0.00984*%
%ADD11C,0.00500*%
%ADD12C,0.00787*%
%ADD13C,0.01000*%
D10*
X593177Y186598D02*
G03*
X593177Y186598I-492J0D01*
G01*
Y147098D02*
G03*
X593177Y147098I-492J0D01*
G01*
D11*
X529500Y143000D02*
X569500D01*
Y193000D01*
X529500D02*
X569500D01*
X529500Y183000D02*
Y193000D01*
Y153000D02*
Y183000D01*
Y143000D02*
Y153000D01*
X501500Y183000D02*
X529500D01*
X501500Y173000D02*
Y183000D01*
Y163000D02*
Y173000D01*
Y153000D02*
Y163000D01*
Y153000D02*
X529500D01*
X476500Y173000D02*
X501500D01*
X476500Y163000D02*
Y173000D01*
Y163000D02*
X501500D01*
X622803Y188961D02*
X625008D01*
X622803Y184039D02*
X625008D01*
D12*
X622642Y157646D02*
X626579D01*
X622642Y163354D02*
X626579D01*
X595793Y184014D02*
X600123D01*
X595835Y189059D02*
X600165D01*
X595793Y144514D02*
X600123D01*
X595835Y149559D02*
X600165D01*
D13*
X485000Y192999D02*
X484001Y193999D01*
X482001D01*
X481002Y192999D01*
Y192000D01*
X482001Y191000D01*
X484001D01*
X485000Y190000D01*
Y189001D01*
X484001Y188001D01*
X482001D01*
X481002Y189001D01*
X487000Y193999D02*
Y188001D01*
X488999Y190000D01*
X490998Y188001D01*
Y193999D01*
X616900Y193000D02*
Y198998D01*
X619899D01*
X620899Y197998D01*
Y195999D01*
X619899Y194999D01*
X616900D01*
X618899D02*
X620899Y193000D01*
X626897D02*
X622898D01*
X626897Y196999D01*
Y197998D01*
X625897Y198998D01*
X623898D01*
X622898Y197998D01*
X616700Y167900D02*
Y173898D01*
X619699D01*
X620699Y172898D01*
Y170899D01*
X619699Y169899D01*
X616700D01*
X618699D02*
X620699Y167900D01*
X622698D02*
X624697D01*
X623698D01*
Y173898D01*
X622698Y172898D01*
X592700Y198498D02*
Y192500D01*
X595699D01*
X596699Y193500D01*
Y197498D01*
X595699Y198498D01*
X592700D01*
X602697Y192500D02*
X598698D01*
X602697Y196499D01*
Y197498D01*
X601697Y198498D01*
X599698D01*
X598698Y197498D01*
X592700Y158998D02*
Y153000D01*
X595699D01*
X596699Y154000D01*
Y157998D01*
X595699Y158998D01*
X592700D01*
X598698Y153000D02*
X600697D01*
X599698D01*
Y158998D01*
X598698Y157998D01*
M02*
