G04*
G04 #@! TF.GenerationSoftware,Altium Limited,Altium Designer,21.2.0 (30)*
G04*
G04 Layer_Color=16711935*
%FSLAX23Y23*%
%MOIN*%
G70*
G04*
G04 #@! TF.SameCoordinates,F0910630-DBBB-4278-8751-63CB2971D6BE*
G04*
G04*
G04 #@! TF.FilePolarity,Positive*
G04*
G01*
G75*
%ADD14C,0.004*%
D14*
X563Y537D02*
G03*
X563Y537I-20J0D01*
G01*
X1410Y333D02*
Y467D01*
X1340Y333D02*
Y467D01*
X1410D01*
X1340Y333D02*
X1410D01*
X1560D02*
Y467D01*
X1490Y333D02*
Y467D01*
X1560D01*
X1490Y333D02*
X1560D01*
X1190D02*
X1260D01*
X1190Y467D02*
X1260D01*
X1190Y333D02*
Y467D01*
X1260Y333D02*
Y467D01*
X421Y698D02*
X579D01*
X421Y502D02*
X579D01*
X421D02*
Y698D01*
X579Y502D02*
Y698D01*
X1011Y287D02*
Y354D01*
X1049Y287D02*
Y354D01*
X1011Y287D02*
X1049D01*
X1011Y354D02*
X1049D01*
X898Y696D02*
Y734D01*
X832Y696D02*
Y734D01*
Y696D02*
X898D01*
X832Y734D02*
X898D01*
X1162Y508D02*
Y652D01*
X1038Y508D02*
Y652D01*
X1162D01*
X1038Y508D02*
X1162D01*
X936Y286D02*
X974D01*
X936Y353D02*
X974D01*
X936Y286D02*
Y353D01*
X974Y286D02*
Y353D01*
X776Y282D02*
X814D01*
X776Y348D02*
X814D01*
X776Y282D02*
Y348D01*
X814Y282D02*
Y348D01*
X856Y282D02*
X894D01*
X856Y348D02*
X894D01*
X856Y282D02*
Y348D01*
X894Y282D02*
Y348D01*
X756Y617D02*
X794D01*
X756Y683D02*
X794D01*
X756Y617D02*
Y683D01*
X794Y617D02*
Y683D01*
X1640Y333D02*
X1710D01*
X1640Y467D02*
X1710D01*
X1640Y333D02*
Y467D01*
X1710Y333D02*
Y467D01*
X665Y333D02*
Y467D01*
X735Y333D02*
Y467D01*
X665Y333D02*
X735D01*
X665Y467D02*
X735D01*
X310Y433D02*
Y567D01*
X240Y433D02*
Y567D01*
X310D01*
X240Y433D02*
X310D01*
X905Y453D02*
X975D01*
X905Y587D02*
X975D01*
X905Y453D02*
Y587D01*
X975Y453D02*
Y587D01*
X681Y616D02*
Y683D01*
X719Y616D02*
Y683D01*
X681Y616D02*
X719D01*
X681Y683D02*
X719D01*
X392Y965D02*
Y1035D01*
X258Y965D02*
Y1035D01*
Y965D02*
X392D01*
X258Y1035D02*
X392D01*
X598Y301D02*
Y419D01*
X402D02*
X598D01*
X402Y301D02*
X598D01*
X402D02*
Y419D01*
X1381Y623D02*
X1419D01*
X1381Y557D02*
X1419D01*
Y623D01*
X1381Y557D02*
Y623D01*
X1311Y623D02*
X1349D01*
X1311Y556D02*
X1349D01*
Y623D01*
X1311Y556D02*
Y623D01*
X1481Y557D02*
X1519D01*
X1481Y624D02*
X1519D01*
X1481Y557D02*
Y624D01*
X1519Y557D02*
Y624D01*
X1681Y557D02*
X1719D01*
X1681Y624D02*
X1719D01*
X1681Y557D02*
Y624D01*
X1719Y557D02*
Y624D01*
X1581Y557D02*
X1619D01*
X1581Y624D02*
X1619D01*
X1581Y557D02*
Y624D01*
X1619Y557D02*
Y624D01*
X2681Y557D02*
X2719D01*
X2681Y624D02*
X2719D01*
X2681Y557D02*
Y624D01*
X2719Y557D02*
Y624D01*
X1881Y557D02*
X1919D01*
X1881Y624D02*
X1919D01*
X1881Y557D02*
Y624D01*
X1919Y557D02*
Y624D01*
X1981Y557D02*
X2019D01*
X1981Y624D02*
X2019D01*
X1981Y557D02*
Y624D01*
X2019Y557D02*
Y624D01*
X2081Y557D02*
X2119D01*
X2081Y624D02*
X2119D01*
X2081Y557D02*
Y624D01*
X2119Y557D02*
Y624D01*
X2181Y557D02*
X2219D01*
X2181Y624D02*
X2219D01*
X2181Y557D02*
Y624D01*
X2219Y557D02*
Y624D01*
X2281Y557D02*
X2319D01*
X2281Y624D02*
X2319D01*
X2281Y557D02*
Y624D01*
X2319Y557D02*
Y624D01*
X2381Y557D02*
X2419D01*
X2381Y624D02*
X2419D01*
X2381Y557D02*
Y624D01*
X2419Y557D02*
Y624D01*
X2481Y557D02*
X2519D01*
X2481Y624D02*
X2519D01*
X2481Y557D02*
Y624D01*
X2519Y557D02*
Y624D01*
X2581Y557D02*
X2619D01*
X2581Y624D02*
X2619D01*
X2581Y557D02*
Y624D01*
X2619Y557D02*
Y624D01*
M02*
