G04*
G04 #@! TF.GenerationSoftware,Altium Limited,Altium Designer,21.2.0 (30)*
G04*
G04 Layer_Color=8421504*
%FSLAX23Y23*%
%MOIN*%
G70*
G04*
G04 #@! TF.SameCoordinates,F0910630-DBBB-4278-8751-63CB2971D6BE*
G04*
G04*
G04 #@! TF.FilePolarity,Positive*
G04*
G01*
G75*
%ADD17R,0.067X0.043*%
%ADD18R,0.035X0.039*%
%ADD19R,0.032X0.028*%
G04:AMPARAMS|DCode=20|XSize=24mil|YSize=57mil|CornerRadius=2mil|HoleSize=0mil|Usage=FLASHONLY|Rotation=270.000|XOffset=0mil|YOffset=0mil|HoleType=Round|Shape=RoundedRectangle|*
%AMROUNDEDRECTD20*
21,1,0.024,0.053,0,0,270.0*
21,1,0.020,0.057,0,0,270.0*
1,1,0.004,-0.027,-0.010*
1,1,0.004,-0.027,0.010*
1,1,0.004,0.027,0.010*
1,1,0.004,0.027,-0.010*
%
%ADD20ROUNDEDRECTD20*%
%ADD21R,0.035X0.028*%
%ADD22R,0.028X0.035*%
%ADD23R,0.014X0.009*%
%ADD24R,0.009X0.014*%
%ADD25R,0.039X0.035*%
%ADD26R,0.043X0.067*%
%ADD27R,0.024X0.043*%
D17*
X1375Y453D02*
D03*
Y347D02*
D03*
X1525Y453D02*
D03*
Y347D02*
D03*
X1225D02*
D03*
Y453D02*
D03*
X1675Y347D02*
D03*
Y453D02*
D03*
X700Y347D02*
D03*
Y453D02*
D03*
X275Y553D02*
D03*
Y447D02*
D03*
X940Y467D02*
D03*
Y573D02*
D03*
D18*
X2345Y340D02*
D03*
Y410D02*
D03*
X860Y520D02*
D03*
Y590D02*
D03*
D19*
X2615Y414D02*
D03*
Y365D02*
D03*
D20*
X393Y675D02*
D03*
Y625D02*
D03*
Y575D02*
D03*
Y525D02*
D03*
X607Y675D02*
D03*
Y625D02*
D03*
Y575D02*
D03*
Y525D02*
D03*
D21*
X1030Y291D02*
D03*
Y350D02*
D03*
X955Y290D02*
D03*
Y349D02*
D03*
X795Y285D02*
D03*
Y345D02*
D03*
X875Y285D02*
D03*
Y345D02*
D03*
X775Y620D02*
D03*
Y680D02*
D03*
X700Y620D02*
D03*
Y679D02*
D03*
X1400Y620D02*
D03*
Y560D02*
D03*
X1330Y619D02*
D03*
Y560D02*
D03*
X1500Y561D02*
D03*
Y620D02*
D03*
X1700Y561D02*
D03*
Y620D02*
D03*
X1600Y561D02*
D03*
Y620D02*
D03*
X2700Y561D02*
D03*
Y620D02*
D03*
X1900Y561D02*
D03*
Y620D02*
D03*
X2000Y561D02*
D03*
Y620D02*
D03*
X2100Y561D02*
D03*
Y620D02*
D03*
X2200Y561D02*
D03*
Y620D02*
D03*
X2300Y561D02*
D03*
Y620D02*
D03*
X2400Y561D02*
D03*
Y620D02*
D03*
X2500Y561D02*
D03*
Y620D02*
D03*
X2600Y561D02*
D03*
Y620D02*
D03*
D22*
X895Y715D02*
D03*
X835D02*
D03*
D23*
X1051Y639D02*
D03*
Y622D02*
D03*
Y605D02*
D03*
Y588D02*
D03*
Y572D02*
D03*
Y555D02*
D03*
Y538D02*
D03*
Y521D02*
D03*
X1149D02*
D03*
Y538D02*
D03*
Y555D02*
D03*
Y572D02*
D03*
Y588D02*
D03*
Y605D02*
D03*
Y622D02*
D03*
Y639D02*
D03*
D24*
X1075D02*
D03*
X1092D02*
D03*
X1108D02*
D03*
X1075Y521D02*
D03*
X1092D02*
D03*
X1108D02*
D03*
X1125D02*
D03*
Y639D02*
D03*
D25*
X776Y550D02*
D03*
X705D02*
D03*
D26*
X378Y1000D02*
D03*
X272D02*
D03*
D27*
X574Y403D02*
D03*
X525D02*
D03*
X475D02*
D03*
X426D02*
D03*
Y317D02*
D03*
X475D02*
D03*
X525D02*
D03*
X574D02*
D03*
M02*
