G04*
G04 #@! TF.GenerationSoftware,Altium Limited,Altium Designer,21.2.0 (30)*
G04*
G04 Layer_Color=2752767*
%FSLAX23Y23*%
%MOIN*%
G70*
G04*
G04 #@! TF.SameCoordinates,F0910630-DBBB-4278-8751-63CB2971D6BE*
G04*
G04*
G04 #@! TF.FilePolarity,Positive*
G04*
G01*
G75*
%ADD55C,0.002*%
%ADD56C,0.003*%
D55*
X492Y792D02*
Y808D01*
X508D01*
Y792D01*
X492D01*
X592D02*
Y808D01*
X608D01*
Y792D01*
X592D01*
X692D02*
Y808D01*
X708D01*
Y792D01*
X692D01*
X792D02*
Y808D01*
X808D01*
Y792D01*
X792D01*
X892D02*
Y808D01*
X908D01*
Y792D01*
X892D01*
X992D02*
Y808D01*
X1008D01*
Y792D01*
X992D01*
X1092D02*
Y808D01*
X1108D01*
Y792D01*
X1092D01*
X1192D02*
Y808D01*
X1208D01*
Y792D01*
X1192D01*
X1292D02*
Y808D01*
X1308D01*
Y792D01*
X1292D01*
X1392D02*
Y808D01*
X1408D01*
Y792D01*
X1392D01*
X1492D02*
Y808D01*
X1508D01*
Y792D01*
X1492D01*
X1592D02*
Y808D01*
X1608D01*
Y792D01*
X1592D01*
X1692D02*
Y808D01*
X1708D01*
Y792D01*
X1692D01*
X1792D02*
Y808D01*
X1808D01*
Y792D01*
X1792D01*
X1892D02*
Y808D01*
X1908D01*
Y792D01*
X1892D01*
X1992D02*
Y808D01*
X2008D01*
Y792D01*
X1992D01*
X2092D02*
Y808D01*
X2108D01*
Y792D01*
X2092D01*
X2192D02*
Y808D01*
X2208D01*
Y792D01*
X2192D01*
X2292D02*
Y808D01*
X2308D01*
Y792D01*
X2292D01*
X2392D02*
Y808D01*
X2408D01*
Y792D01*
X2392D01*
X2492D02*
Y808D01*
X2508D01*
Y792D01*
X2492D01*
X2592D02*
Y808D01*
X2608D01*
Y792D01*
X2592D01*
X2692D02*
Y808D01*
X2708D01*
Y792D01*
X2692D01*
X392D02*
Y808D01*
X408D01*
Y792D01*
X392D01*
Y192D02*
Y208D01*
X408D01*
Y192D01*
X392D01*
X2692D02*
Y208D01*
X2708D01*
Y192D01*
X2692D01*
X2592D02*
Y208D01*
X2608D01*
Y192D01*
X2592D01*
X2492D02*
Y208D01*
X2508D01*
Y192D01*
X2492D01*
X2392D02*
Y208D01*
X2408D01*
Y192D01*
X2392D01*
X2292D02*
Y208D01*
X2308D01*
Y192D01*
X2292D01*
X2192D02*
Y208D01*
X2208D01*
Y192D01*
X2192D01*
X2092D02*
Y208D01*
X2108D01*
Y192D01*
X2092D01*
X1992D02*
Y208D01*
X2008D01*
Y192D01*
X1992D01*
X1892D02*
Y208D01*
X1908D01*
Y192D01*
X1892D01*
X1792D02*
Y208D01*
X1808D01*
Y192D01*
X1792D01*
X1692D02*
Y208D01*
X1708D01*
Y192D01*
X1692D01*
X1592D02*
Y208D01*
X1608D01*
Y192D01*
X1592D01*
X1492D02*
Y208D01*
X1508D01*
Y192D01*
X1492D01*
X1392D02*
Y208D01*
X1408D01*
Y192D01*
X1392D01*
X1292D02*
Y208D01*
X1308D01*
Y192D01*
X1292D01*
X1192D02*
Y208D01*
X1208D01*
Y192D01*
X1192D01*
X1092D02*
Y208D01*
X1108D01*
Y192D01*
X1092D01*
X992D02*
Y208D01*
X1008D01*
Y192D01*
X992D01*
X892D02*
Y208D01*
X908D01*
Y192D01*
X892D01*
X792D02*
Y208D01*
X808D01*
Y192D01*
X792D01*
X692D02*
Y208D01*
X708D01*
Y192D01*
X692D01*
X592D02*
Y208D01*
X608D01*
Y192D01*
X592D01*
X492D02*
Y208D01*
X508D01*
Y192D01*
X492D01*
X367Y1117D02*
Y1133D01*
X383D01*
Y1117D01*
X367D01*
X267D02*
Y1133D01*
X283D01*
Y1117D01*
X267D01*
X2582Y1280D02*
X2574Y1296D01*
X2590D01*
X2582Y1280D01*
X2464Y1110D02*
X2468Y1114D01*
X2472D01*
X2468Y1118D01*
X2472Y1122D01*
X2468D01*
X2464Y1126D01*
X2460Y1122D01*
X2456D01*
X2460Y1118D01*
X2456Y1114D01*
X2460D01*
X2464Y1110D01*
X2582D02*
X2586Y1114D01*
X2590D01*
X2586Y1118D01*
X2590Y1122D01*
X2586D01*
X2582Y1126D01*
X2578Y1122D01*
X2574D01*
X2578Y1118D01*
X2574Y1114D01*
X2578D01*
X2582Y1110D01*
X2464Y992D02*
X2468Y996D01*
X2472D01*
X2468Y1000D01*
X2472Y1004D01*
X2468D01*
X2464Y1008D01*
X2460Y1004D01*
X2456D01*
X2460Y1000D01*
X2456Y996D01*
X2460D01*
X2464Y992D01*
X2582D02*
X2586Y996D01*
X2590D01*
X2586Y1000D01*
X2590Y1004D01*
X2586D01*
X2582Y1008D01*
X2578Y1004D01*
X2574D01*
X2578Y1000D01*
X2574Y996D01*
X2578D01*
X2582Y992D01*
X2700D02*
X2704Y996D01*
X2708D01*
X2704Y1000D01*
X2708Y1004D01*
X2704D01*
X2700Y1008D01*
X2696Y1004D01*
X2692D01*
X2696Y1000D01*
X2692Y996D01*
X2696D01*
X2700Y992D01*
Y1110D02*
X2704Y1114D01*
X2708D01*
X2704Y1118D01*
X2708Y1122D01*
X2704D01*
X2700Y1126D01*
X2696Y1122D01*
X2692D01*
X2696Y1118D01*
X2692Y1114D01*
X2696D01*
X2700Y1110D01*
X1982Y1280D02*
X1974Y1296D01*
X1990D01*
X1982Y1280D01*
X1864Y1110D02*
X1868Y1114D01*
X1872D01*
X1868Y1118D01*
X1872Y1122D01*
X1868D01*
X1864Y1126D01*
X1860Y1122D01*
X1856D01*
X1860Y1118D01*
X1856Y1114D01*
X1860D01*
X1864Y1110D01*
X1982D02*
X1986Y1114D01*
X1990D01*
X1986Y1118D01*
X1990Y1122D01*
X1986D01*
X1982Y1126D01*
X1978Y1122D01*
X1974D01*
X1978Y1118D01*
X1974Y1114D01*
X1978D01*
X1982Y1110D01*
X1864Y992D02*
X1868Y996D01*
X1872D01*
X1868Y1000D01*
X1872Y1004D01*
X1868D01*
X1864Y1008D01*
X1860Y1004D01*
X1856D01*
X1860Y1000D01*
X1856Y996D01*
X1860D01*
X1864Y992D01*
X1982D02*
X1986Y996D01*
X1990D01*
X1986Y1000D01*
X1990Y1004D01*
X1986D01*
X1982Y1008D01*
X1978Y1004D01*
X1974D01*
X1978Y1000D01*
X1974Y996D01*
X1978D01*
X1982Y992D01*
X2100D02*
X2104Y996D01*
X2108D01*
X2104Y1000D01*
X2108Y1004D01*
X2104D01*
X2100Y1008D01*
X2096Y1004D01*
X2092D01*
X2096Y1000D01*
X2092Y996D01*
X2096D01*
X2100Y992D01*
Y1110D02*
X2104Y1114D01*
X2108D01*
X2104Y1118D01*
X2108Y1122D01*
X2104D01*
X2100Y1126D01*
X2096Y1122D01*
X2092D01*
X2096Y1118D01*
X2092Y1114D01*
X2096D01*
X2100Y1110D01*
X1382Y1280D02*
X1374Y1296D01*
X1390D01*
X1382Y1280D01*
X1264Y1110D02*
X1268Y1114D01*
X1272D01*
X1268Y1118D01*
X1272Y1122D01*
X1268D01*
X1264Y1126D01*
X1260Y1122D01*
X1256D01*
X1260Y1118D01*
X1256Y1114D01*
X1260D01*
X1264Y1110D01*
X1382D02*
X1386Y1114D01*
X1390D01*
X1386Y1118D01*
X1390Y1122D01*
X1386D01*
X1382Y1126D01*
X1378Y1122D01*
X1374D01*
X1378Y1118D01*
X1374Y1114D01*
X1378D01*
X1382Y1110D01*
X1264Y992D02*
X1268Y996D01*
X1272D01*
X1268Y1000D01*
X1272Y1004D01*
X1268D01*
X1264Y1008D01*
X1260Y1004D01*
X1256D01*
X1260Y1000D01*
X1256Y996D01*
X1260D01*
X1264Y992D01*
X1382D02*
X1386Y996D01*
X1390D01*
X1386Y1000D01*
X1390Y1004D01*
X1386D01*
X1382Y1008D01*
X1378Y1004D01*
X1374D01*
X1378Y1000D01*
X1374Y996D01*
X1378D01*
X1382Y992D01*
X1500D02*
X1504Y996D01*
X1508D01*
X1504Y1000D01*
X1508Y1004D01*
X1504D01*
X1500Y1008D01*
X1496Y1004D01*
X1492D01*
X1496Y1000D01*
X1492Y996D01*
X1496D01*
X1500Y992D01*
Y1110D02*
X1504Y1114D01*
X1508D01*
X1504Y1118D01*
X1508Y1122D01*
X1504D01*
X1500Y1126D01*
X1496Y1122D01*
X1492D01*
X1496Y1118D01*
X1492Y1114D01*
X1496D01*
X1500Y1110D01*
X782Y1280D02*
X774Y1296D01*
X790D01*
X782Y1280D01*
X664Y1110D02*
X668Y1114D01*
X672D01*
X668Y1118D01*
X672Y1122D01*
X668D01*
X664Y1126D01*
X660Y1122D01*
X656D01*
X660Y1118D01*
X656Y1114D01*
X660D01*
X664Y1110D01*
X782D02*
X786Y1114D01*
X790D01*
X786Y1118D01*
X790Y1122D01*
X786D01*
X782Y1126D01*
X778Y1122D01*
X774D01*
X778Y1118D01*
X774Y1114D01*
X778D01*
X782Y1110D01*
X664Y992D02*
X668Y996D01*
X672D01*
X668Y1000D01*
X672Y1004D01*
X668D01*
X664Y1008D01*
X660Y1004D01*
X656D01*
X660Y1000D01*
X656Y996D01*
X660D01*
X664Y992D01*
X782D02*
X786Y996D01*
X790D01*
X786Y1000D01*
X790Y1004D01*
X786D01*
X782Y1008D01*
X778Y1004D01*
X774D01*
X778Y1000D01*
X774Y996D01*
X778D01*
X782Y992D01*
X900D02*
X904Y996D01*
X908D01*
X904Y1000D01*
X908Y1004D01*
X904D01*
X900Y1008D01*
X896Y1004D01*
X892D01*
X896Y1000D01*
X892Y996D01*
X896D01*
X900Y992D01*
Y1110D02*
X904Y1114D01*
X908D01*
X904Y1118D01*
X908Y1122D01*
X904D01*
X900Y1126D01*
X896Y1122D01*
X892D01*
X896Y1118D01*
X892Y1114D01*
X896D01*
X900Y1110D01*
X1142Y342D02*
X1146Y350D01*
X1142Y358D01*
X1150Y354D01*
X1158Y358D01*
X1154Y350D01*
X1158Y342D01*
X1150Y346D01*
X1142Y342D01*
X1252Y542D02*
X1256Y550D01*
X1252Y558D01*
X1260Y554D01*
X1268Y558D01*
X1264Y550D01*
X1268Y542D01*
X1260Y546D01*
X1252Y542D01*
X832Y652D02*
X836Y660D01*
X832Y668D01*
X840Y664D01*
X848Y668D01*
X844Y660D01*
X848Y652D01*
X840Y656D01*
X832Y652D01*
X1082Y282D02*
X1086Y290D01*
X1082Y298D01*
X1090Y294D01*
X1098Y298D01*
X1094Y290D01*
X1098Y282D01*
X1090Y286D01*
X1082Y282D01*
X1692Y692D02*
X1696Y700D01*
X1692Y708D01*
X1700Y704D01*
X1708Y708D01*
X1704Y700D01*
X1708Y692D01*
X1700Y696D01*
X1692Y692D01*
X2264Y402D02*
X2268Y410D01*
X2264Y418D01*
X2272Y414D01*
X2280Y418D01*
X2276Y410D01*
X2280Y402D01*
X2272Y406D01*
X2264Y402D01*
X852Y442D02*
X856Y450D01*
X852Y458D01*
X860Y454D01*
X868Y458D01*
X864Y450D01*
X868Y442D01*
X860Y446D01*
X852Y442D01*
X517Y617D02*
X521Y625D01*
X517Y633D01*
X525Y629D01*
X533Y633D01*
X529Y625D01*
X533Y617D01*
X525Y621D01*
X517Y617D01*
X932Y632D02*
X936Y640D01*
X932Y648D01*
X940Y644D01*
X948Y648D01*
X944Y640D01*
X948Y632D01*
X940Y636D01*
X932Y632D01*
X1204Y642D02*
X1208Y650D01*
X1204Y658D01*
X1212Y654D01*
X1220Y658D01*
X1216Y650D01*
X1220Y642D01*
X1212Y646D01*
X1204Y642D01*
X1067Y467D02*
X1071Y475D01*
X1067Y483D01*
X1075Y479D01*
X1083Y483D01*
X1079Y475D01*
X1083Y467D01*
X1075Y471D01*
X1067Y467D01*
X1152Y722D02*
X1156Y730D01*
X1152Y738D01*
X1160Y734D01*
X1168Y738D01*
X1164Y730D01*
X1168Y722D01*
X1160Y726D01*
X1152Y722D01*
X1742Y342D02*
X1746Y350D01*
X1742Y358D01*
X1750Y354D01*
X1758Y358D01*
X1754Y350D01*
X1758Y342D01*
X1750Y346D01*
X1742Y342D01*
X372Y902D02*
X376Y910D01*
X372Y918D01*
X380Y914D01*
X388Y918D01*
X384Y910D01*
X388Y902D01*
X380Y906D01*
X372Y902D01*
X1517Y277D02*
X1521Y285D01*
X1517Y293D01*
X1525Y289D01*
X1533Y293D01*
X1529Y285D01*
X1533Y277D01*
X1525Y281D01*
X1517Y277D01*
X1367D02*
X1371Y285D01*
X1367Y293D01*
X1375Y289D01*
X1383Y293D01*
X1379Y285D01*
X1383Y277D01*
X1375Y281D01*
X1367Y277D01*
D56*
X2983Y125D02*
G03*
X2983Y125I-8J0D01*
G01*
Y1375D02*
G03*
X2983Y1375I-8J0D01*
G01*
X133Y125D02*
G03*
X133Y125I-8J0D01*
G01*
Y1375D02*
G03*
X133Y1375I-8J0D01*
G01*
M02*
