G04*
G04 #@! TF.GenerationSoftware,Altium Limited,Altium Designer,21.2.0 (30)*
G04*
G04 Layer_Physical_Order=1*
G04 Layer_Color=255*
%FSLAX23Y23*%
%MOIN*%
G70*
G04*
G04 #@! TF.SameCoordinates,F0910630-DBBB-4278-8751-63CB2971D6BE*
G04*
G04*
G04 #@! TF.FilePolarity,Positive*
G04*
G01*
G75*
%ADD15C,0.010*%
%ADD17R,0.067X0.043*%
%ADD18R,0.035X0.039*%
%ADD19R,0.032X0.028*%
G04:AMPARAMS|DCode=20|XSize=24mil|YSize=57mil|CornerRadius=2mil|HoleSize=0mil|Usage=FLASHONLY|Rotation=270.000|XOffset=0mil|YOffset=0mil|HoleType=Round|Shape=RoundedRectangle|*
%AMROUNDEDRECTD20*
21,1,0.024,0.053,0,0,270.0*
21,1,0.020,0.057,0,0,270.0*
1,1,0.004,-0.027,-0.010*
1,1,0.004,-0.027,0.010*
1,1,0.004,0.027,0.010*
1,1,0.004,0.027,-0.010*
%
%ADD20ROUNDEDRECTD20*%
%ADD21R,0.035X0.028*%
%ADD22R,0.028X0.035*%
%ADD23R,0.014X0.009*%
%ADD24R,0.009X0.014*%
%ADD25R,0.039X0.035*%
%ADD26R,0.043X0.067*%
%ADD27R,0.024X0.043*%
%ADD42C,0.050*%
%ADD44C,0.020*%
%ADD45C,0.050*%
%ADD46C,0.009*%
%ADD47C,0.059*%
%ADD48R,0.059X0.059*%
%ADD49C,0.125*%
%ADD50C,0.118*%
%ADD51R,0.060X0.060*%
%ADD52C,0.060*%
G36*
X2900Y100D02*
X200D01*
Y1400D01*
X2900D01*
Y100D01*
D02*
G37*
%LPC*%
G36*
X2588Y1353D02*
X2575D01*
X2563Y1351D01*
X2551Y1346D01*
X2540Y1339D01*
X2531Y1330D01*
X2524Y1319D01*
X2519Y1307D01*
X2517Y1295D01*
Y1282D01*
X2519Y1269D01*
X2524Y1257D01*
X2531Y1247D01*
X2540Y1238D01*
X2551Y1231D01*
X2563Y1226D01*
X2575Y1223D01*
X2588D01*
X2601Y1226D01*
X2613Y1231D01*
X2623Y1238D01*
X2632Y1247D01*
X2640Y1257D01*
X2644Y1269D01*
X2647Y1282D01*
Y1295D01*
X2644Y1307D01*
X2640Y1319D01*
X2632Y1330D01*
X2623Y1339D01*
X2613Y1346D01*
X2601Y1351D01*
X2588Y1353D01*
D02*
G37*
G36*
X1988D02*
X1975D01*
X1963Y1351D01*
X1951Y1346D01*
X1940Y1339D01*
X1931Y1330D01*
X1924Y1319D01*
X1919Y1307D01*
X1917Y1295D01*
Y1282D01*
X1919Y1269D01*
X1924Y1257D01*
X1931Y1247D01*
X1940Y1238D01*
X1951Y1231D01*
X1963Y1226D01*
X1975Y1223D01*
X1988D01*
X2001Y1226D01*
X2013Y1231D01*
X2023Y1238D01*
X2032Y1247D01*
X2040Y1257D01*
X2044Y1269D01*
X2047Y1282D01*
Y1295D01*
X2044Y1307D01*
X2040Y1319D01*
X2032Y1330D01*
X2023Y1339D01*
X2013Y1346D01*
X2001Y1351D01*
X1988Y1353D01*
D02*
G37*
G36*
X1388D02*
X1375D01*
X1363Y1351D01*
X1351Y1346D01*
X1340Y1339D01*
X1331Y1330D01*
X1324Y1319D01*
X1319Y1307D01*
X1317Y1295D01*
Y1282D01*
X1319Y1269D01*
X1324Y1257D01*
X1331Y1247D01*
X1340Y1238D01*
X1351Y1231D01*
X1363Y1226D01*
X1375Y1223D01*
X1388D01*
X1401Y1226D01*
X1413Y1231D01*
X1423Y1238D01*
X1432Y1247D01*
X1440Y1257D01*
X1444Y1269D01*
X1447Y1282D01*
Y1295D01*
X1444Y1307D01*
X1440Y1319D01*
X1432Y1330D01*
X1423Y1339D01*
X1413Y1346D01*
X1401Y1351D01*
X1388Y1353D01*
D02*
G37*
G36*
X788D02*
X775D01*
X763Y1351D01*
X751Y1346D01*
X740Y1339D01*
X731Y1330D01*
X724Y1319D01*
X719Y1307D01*
X717Y1295D01*
Y1282D01*
X719Y1269D01*
X724Y1257D01*
X731Y1247D01*
X740Y1238D01*
X751Y1231D01*
X763Y1226D01*
X775Y1223D01*
X788D01*
X801Y1226D01*
X813Y1231D01*
X823Y1238D01*
X832Y1247D01*
X840Y1257D01*
X844Y1269D01*
X847Y1282D01*
Y1295D01*
X844Y1307D01*
X840Y1319D01*
X832Y1330D01*
X823Y1339D01*
X813Y1346D01*
X801Y1351D01*
X788Y1353D01*
D02*
G37*
G36*
X2705Y1154D02*
X2695D01*
X2686Y1152D01*
X2678Y1147D01*
X2671Y1140D01*
X2666Y1132D01*
X2664Y1123D01*
Y1113D01*
X2666Y1104D01*
X2671Y1096D01*
X2678Y1089D01*
X2686Y1084D01*
X2695Y1082D01*
X2705D01*
X2714Y1084D01*
X2722Y1089D01*
X2729Y1096D01*
X2734Y1104D01*
X2736Y1113D01*
Y1123D01*
X2734Y1132D01*
X2729Y1140D01*
X2722Y1147D01*
X2714Y1152D01*
X2705Y1154D01*
D02*
G37*
G36*
X2587D02*
X2577D01*
X2568Y1152D01*
X2560Y1147D01*
X2553Y1140D01*
X2548Y1132D01*
X2546Y1123D01*
Y1113D01*
X2548Y1104D01*
X2553Y1096D01*
X2560Y1089D01*
X2568Y1084D01*
X2577Y1082D01*
X2587D01*
X2596Y1084D01*
X2604Y1089D01*
X2611Y1096D01*
X2616Y1104D01*
X2618Y1113D01*
Y1123D01*
X2616Y1132D01*
X2611Y1140D01*
X2604Y1147D01*
X2596Y1152D01*
X2587Y1154D01*
D02*
G37*
G36*
X2500D02*
X2428D01*
Y1082D01*
X2500D01*
Y1154D01*
D02*
G37*
G36*
X2105D02*
X2095D01*
X2086Y1152D01*
X2078Y1147D01*
X2071Y1140D01*
X2066Y1132D01*
X2064Y1123D01*
Y1113D01*
X2066Y1104D01*
X2071Y1096D01*
X2078Y1089D01*
X2086Y1084D01*
X2095Y1082D01*
X2105D01*
X2114Y1084D01*
X2122Y1089D01*
X2129Y1096D01*
X2134Y1104D01*
X2136Y1113D01*
Y1123D01*
X2134Y1132D01*
X2129Y1140D01*
X2122Y1147D01*
X2114Y1152D01*
X2105Y1154D01*
D02*
G37*
G36*
X1987D02*
X1977D01*
X1968Y1152D01*
X1960Y1147D01*
X1953Y1140D01*
X1948Y1132D01*
X1946Y1123D01*
Y1113D01*
X1948Y1104D01*
X1953Y1096D01*
X1960Y1089D01*
X1968Y1084D01*
X1977Y1082D01*
X1987D01*
X1996Y1084D01*
X2004Y1089D01*
X2011Y1096D01*
X2016Y1104D01*
X2018Y1113D01*
Y1123D01*
X2016Y1132D01*
X2011Y1140D01*
X2004Y1147D01*
X1996Y1152D01*
X1987Y1154D01*
D02*
G37*
G36*
X1900D02*
X1828D01*
Y1082D01*
X1900D01*
Y1154D01*
D02*
G37*
G36*
X1505D02*
X1495D01*
X1486Y1152D01*
X1478Y1147D01*
X1471Y1140D01*
X1466Y1132D01*
X1464Y1123D01*
Y1113D01*
X1466Y1104D01*
X1471Y1096D01*
X1478Y1089D01*
X1486Y1084D01*
X1495Y1082D01*
X1505D01*
X1514Y1084D01*
X1522Y1089D01*
X1529Y1096D01*
X1534Y1104D01*
X1536Y1113D01*
Y1123D01*
X1534Y1132D01*
X1529Y1140D01*
X1522Y1147D01*
X1514Y1152D01*
X1505Y1154D01*
D02*
G37*
G36*
X1387D02*
X1377D01*
X1368Y1152D01*
X1360Y1147D01*
X1353Y1140D01*
X1348Y1132D01*
X1346Y1123D01*
Y1113D01*
X1348Y1104D01*
X1353Y1096D01*
X1360Y1089D01*
X1368Y1084D01*
X1377Y1082D01*
X1387D01*
X1396Y1084D01*
X1404Y1089D01*
X1411Y1096D01*
X1416Y1104D01*
X1418Y1113D01*
Y1123D01*
X1416Y1132D01*
X1411Y1140D01*
X1404Y1147D01*
X1396Y1152D01*
X1387Y1154D01*
D02*
G37*
G36*
X1300D02*
X1228D01*
Y1082D01*
X1300D01*
Y1154D01*
D02*
G37*
G36*
X905D02*
X895D01*
X886Y1152D01*
X878Y1147D01*
X871Y1140D01*
X866Y1132D01*
X864Y1123D01*
Y1113D01*
X866Y1104D01*
X871Y1096D01*
X878Y1089D01*
X886Y1084D01*
X895Y1082D01*
X905D01*
X914Y1084D01*
X922Y1089D01*
X929Y1096D01*
X934Y1104D01*
X936Y1113D01*
Y1123D01*
X934Y1132D01*
X929Y1140D01*
X922Y1147D01*
X914Y1152D01*
X905Y1154D01*
D02*
G37*
G36*
X787D02*
X777D01*
X768Y1152D01*
X760Y1147D01*
X753Y1140D01*
X748Y1132D01*
X746Y1123D01*
Y1113D01*
X748Y1104D01*
X753Y1096D01*
X760Y1089D01*
X768Y1084D01*
X777Y1082D01*
X787D01*
X796Y1084D01*
X804Y1089D01*
X811Y1096D01*
X816Y1104D01*
X818Y1113D01*
Y1123D01*
X816Y1132D01*
X811Y1140D01*
X804Y1147D01*
X796Y1152D01*
X787Y1154D01*
D02*
G37*
G36*
X700D02*
X628D01*
Y1082D01*
X700D01*
Y1154D01*
D02*
G37*
G36*
X1869Y1036D02*
X1859D01*
X1850Y1034D01*
X1842Y1029D01*
X1835Y1022D01*
X1830Y1014D01*
X1828Y1005D01*
Y995D01*
X1827Y995D01*
X1823Y993D01*
X1804Y1012D01*
X1799Y1015D01*
X1793Y1016D01*
X1532D01*
X1529Y1022D01*
X1522Y1029D01*
X1514Y1034D01*
X1505Y1036D01*
X1495D01*
X1486Y1034D01*
X1478Y1029D01*
X1471Y1022D01*
X1466Y1014D01*
X1464Y1005D01*
Y995D01*
X1466Y986D01*
X1471Y978D01*
X1478Y971D01*
X1486Y966D01*
X1495Y964D01*
X1505D01*
X1514Y966D01*
X1522Y971D01*
X1529Y978D01*
X1532Y984D01*
X1786D01*
X1891Y878D01*
X1897Y875D01*
X1903Y874D01*
X2043D01*
X2081Y836D01*
X2080Y830D01*
X2078Y828D01*
X2072Y822D01*
X2067Y814D01*
X2064Y805D01*
Y795D01*
X2067Y786D01*
X2072Y778D01*
X2078Y772D01*
X2084Y768D01*
Y640D01*
X2076D01*
Y600D01*
X2124D01*
Y640D01*
X2116D01*
Y768D01*
X2122Y772D01*
X2128Y778D01*
X2133Y786D01*
X2136Y795D01*
Y805D01*
X2133Y814D01*
X2128Y822D01*
X2122Y828D01*
X2116Y832D01*
Y840D01*
X2115Y846D01*
X2111Y852D01*
X2062Y901D01*
X2056Y905D01*
X2050Y906D01*
X1910D01*
X1857Y959D01*
X1859Y964D01*
X1859Y964D01*
X1869D01*
X1878Y966D01*
X1886Y971D01*
X1893Y978D01*
X1897Y986D01*
X1900Y995D01*
Y1005D01*
X1897Y1014D01*
X1893Y1022D01*
X1886Y1029D01*
X1878Y1034D01*
X1869Y1036D01*
D02*
G37*
G36*
X2105D02*
X2095D01*
X2086Y1034D01*
X2078Y1029D01*
X2071Y1022D01*
X2066Y1014D01*
X2064Y1005D01*
Y995D01*
X2066Y986D01*
X2071Y978D01*
X2078Y971D01*
X2078Y971D01*
X2076Y966D01*
X2039D01*
X2016Y989D01*
X2018Y995D01*
Y1005D01*
X2016Y1014D01*
X2011Y1022D01*
X2004Y1029D01*
X1996Y1034D01*
X1987Y1036D01*
X1977D01*
X1968Y1034D01*
X1960Y1029D01*
X1953Y1022D01*
X1948Y1014D01*
X1946Y1005D01*
Y995D01*
X1948Y986D01*
X1953Y978D01*
X1960Y971D01*
X1968Y966D01*
X1977Y964D01*
X1987D01*
X1993Y966D01*
X2020Y938D01*
X2026Y935D01*
X2032Y934D01*
X2243D01*
X2284Y893D01*
Y832D01*
X2278Y828D01*
X2272Y822D01*
X2267Y814D01*
X2264Y805D01*
Y795D01*
X2267Y786D01*
X2272Y778D01*
X2278Y772D01*
X2284Y768D01*
Y640D01*
X2276D01*
Y600D01*
X2324D01*
Y640D01*
X2316D01*
Y768D01*
X2322Y772D01*
X2328Y778D01*
X2333Y786D01*
X2336Y795D01*
Y805D01*
X2333Y814D01*
X2328Y822D01*
X2322Y828D01*
X2316Y832D01*
Y900D01*
X2315Y906D01*
X2312Y912D01*
X2262Y961D01*
X2256Y965D01*
X2250Y966D01*
X2124D01*
X2122Y971D01*
X2122Y971D01*
X2129Y978D01*
X2134Y986D01*
X2136Y995D01*
Y1005D01*
X2134Y1014D01*
X2129Y1022D01*
X2122Y1029D01*
X2114Y1034D01*
X2105Y1036D01*
D02*
G37*
G36*
X2587D02*
X2577D01*
X2568Y1034D01*
X2560Y1029D01*
X2553Y1022D01*
X2548Y1014D01*
X2546Y1005D01*
Y995D01*
X2548Y986D01*
X2553Y978D01*
X2560Y971D01*
X2568Y966D01*
X2577Y964D01*
X2587D01*
X2596Y966D01*
X2604Y971D01*
X2611Y978D01*
X2616Y986D01*
X2618Y995D01*
Y1005D01*
X2616Y1014D01*
X2611Y1022D01*
X2604Y1029D01*
X2596Y1034D01*
X2587Y1036D01*
D02*
G37*
G36*
X1387D02*
X1377D01*
X1368Y1034D01*
X1360Y1029D01*
X1353Y1022D01*
X1348Y1014D01*
X1346Y1005D01*
Y995D01*
X1348Y986D01*
X1353Y978D01*
X1360Y971D01*
X1368Y966D01*
X1377Y964D01*
X1387D01*
X1396Y966D01*
X1404Y971D01*
X1411Y978D01*
X1416Y986D01*
X1418Y995D01*
Y1005D01*
X1416Y1014D01*
X1411Y1022D01*
X1404Y1029D01*
X1396Y1034D01*
X1387Y1036D01*
D02*
G37*
G36*
X905D02*
X895D01*
X886Y1034D01*
X878Y1029D01*
X871Y1022D01*
X866Y1014D01*
X864Y1005D01*
Y995D01*
X866Y986D01*
X871Y978D01*
X878Y971D01*
X886Y966D01*
X895Y964D01*
X905D01*
X914Y966D01*
X922Y971D01*
X929Y978D01*
X934Y986D01*
X936Y995D01*
Y1005D01*
X934Y1014D01*
X929Y1022D01*
X922Y1029D01*
X914Y1034D01*
X905Y1036D01*
D02*
G37*
G36*
X669D02*
X659D01*
X650Y1034D01*
X642Y1029D01*
X635Y1022D01*
X630Y1014D01*
X628Y1005D01*
Y995D01*
X630Y986D01*
X635Y978D01*
X642Y971D01*
X650Y966D01*
X659Y964D01*
X669D01*
X678Y966D01*
X686Y971D01*
X693Y978D01*
X697Y986D01*
X700Y995D01*
Y1005D01*
X697Y1014D01*
X693Y1022D01*
X686Y1029D01*
X678Y1034D01*
X669Y1036D01*
D02*
G37*
G36*
X411Y1161D02*
X339D01*
Y1089D01*
X345D01*
Y1027D01*
X345Y1027D01*
X346Y1018D01*
X349Y1011D01*
X348Y1008D01*
X347Y1000D01*
Y912D01*
X347Y912D01*
X348Y904D01*
X351Y896D01*
X356Y890D01*
X358Y888D01*
X360Y887D01*
X361Y885D01*
X363Y884D01*
X364Y883D01*
X366Y882D01*
X368Y881D01*
X370Y881D01*
X372Y880D01*
X374Y880D01*
X376Y879D01*
X378D01*
X380Y879D01*
X382Y879D01*
X384D01*
X386Y880D01*
X388Y880D01*
X390Y881D01*
X392Y881D01*
X394Y882D01*
X396Y883D01*
X397Y884D01*
X399Y885D01*
X400Y887D01*
X402Y888D01*
X403Y890D01*
X405Y891D01*
X406Y893D01*
X407Y894D01*
X408Y896D01*
X409Y898D01*
X409Y900D01*
X410Y902D01*
X410Y904D01*
X411Y906D01*
Y908D01*
X411Y910D01*
X411Y912D01*
Y914D01*
X410Y916D01*
X410Y918D01*
X409Y920D01*
X409Y920D01*
Y1000D01*
X408Y1008D01*
X407Y1013D01*
X408Y1017D01*
X409Y1025D01*
X408Y1033D01*
X408Y1034D01*
Y1089D01*
X411D01*
Y1161D01*
D02*
G37*
G36*
X440Y840D02*
X405D01*
Y805D01*
X440D01*
Y840D01*
D02*
G37*
G36*
X395D02*
X360D01*
Y805D01*
X395D01*
Y840D01*
D02*
G37*
G36*
X1805Y836D02*
X1795D01*
X1786Y833D01*
X1778Y828D01*
X1772Y822D01*
X1767Y814D01*
X1764Y805D01*
Y795D01*
X1767Y786D01*
X1772Y778D01*
X1778Y772D01*
X1786Y767D01*
X1795Y764D01*
X1805D01*
X1814Y767D01*
X1822Y772D01*
X1828Y778D01*
X1833Y786D01*
X1836Y795D01*
Y805D01*
X1833Y814D01*
X1828Y822D01*
X1822Y828D01*
X1814Y833D01*
X1805Y836D01*
D02*
G37*
G36*
X1705D02*
X1695D01*
X1686Y833D01*
X1678Y828D01*
X1672Y822D01*
X1667Y814D01*
X1664Y805D01*
Y795D01*
X1667Y786D01*
X1672Y778D01*
X1678Y772D01*
X1686Y767D01*
X1695Y764D01*
X1705D01*
X1714Y767D01*
X1722Y772D01*
X1728Y778D01*
X1733Y786D01*
X1736Y795D01*
Y805D01*
X1733Y814D01*
X1728Y822D01*
X1722Y828D01*
X1714Y833D01*
X1705Y836D01*
D02*
G37*
G36*
X1605D02*
X1595D01*
X1586Y833D01*
X1578Y828D01*
X1572Y822D01*
X1567Y814D01*
X1564Y805D01*
Y795D01*
X1567Y786D01*
X1572Y778D01*
X1578Y772D01*
X1586Y767D01*
X1595Y764D01*
X1605D01*
X1614Y767D01*
X1622Y772D01*
X1628Y778D01*
X1633Y786D01*
X1636Y795D01*
Y805D01*
X1633Y814D01*
X1628Y822D01*
X1622Y828D01*
X1614Y833D01*
X1605Y836D01*
D02*
G37*
G36*
X1305D02*
X1295D01*
X1286Y833D01*
X1278Y828D01*
X1272Y822D01*
X1267Y814D01*
X1264Y805D01*
Y795D01*
X1267Y786D01*
X1272Y778D01*
X1278Y772D01*
X1286Y767D01*
X1295Y764D01*
X1305D01*
X1314Y767D01*
X1322Y772D01*
X1328Y778D01*
X1333Y786D01*
X1336Y795D01*
Y805D01*
X1333Y814D01*
X1328Y822D01*
X1322Y828D01*
X1314Y833D01*
X1305Y836D01*
D02*
G37*
G36*
X1105D02*
X1095D01*
X1086Y833D01*
X1078Y828D01*
X1072Y822D01*
X1067Y814D01*
X1064Y805D01*
Y795D01*
X1067Y786D01*
X1072Y778D01*
X1078Y772D01*
X1086Y767D01*
X1095Y764D01*
X1105D01*
X1114Y767D01*
X1122Y772D01*
X1128Y778D01*
X1133Y786D01*
X1136Y795D01*
Y805D01*
X1133Y814D01*
X1128Y822D01*
X1122Y828D01*
X1114Y833D01*
X1105Y836D01*
D02*
G37*
G36*
X1005D02*
X995D01*
X986Y833D01*
X978Y828D01*
X972Y822D01*
X967Y814D01*
X964Y805D01*
Y795D01*
X967Y786D01*
X972Y778D01*
X978Y772D01*
X986Y767D01*
X995Y764D01*
X1005D01*
X1014Y767D01*
X1022Y772D01*
X1028Y778D01*
X1033Y786D01*
X1036Y795D01*
Y805D01*
X1033Y814D01*
X1028Y822D01*
X1022Y828D01*
X1014Y833D01*
X1005Y836D01*
D02*
G37*
G36*
X905D02*
X895D01*
X886Y833D01*
X878Y828D01*
X872Y822D01*
X867Y814D01*
X864Y805D01*
Y795D01*
X867Y786D01*
X872Y778D01*
X878Y772D01*
X886Y767D01*
X895Y764D01*
X905D01*
X914Y767D01*
X922Y772D01*
X928Y778D01*
X933Y786D01*
X936Y795D01*
Y805D01*
X933Y814D01*
X928Y822D01*
X922Y828D01*
X914Y833D01*
X905Y836D01*
D02*
G37*
G36*
X805D02*
X795D01*
X786Y833D01*
X778Y828D01*
X772Y822D01*
X767Y814D01*
X764Y805D01*
Y795D01*
X767Y786D01*
X768Y784D01*
X705Y721D01*
X702Y717D01*
X702Y713D01*
X702Y713D01*
Y699D01*
X676D01*
Y659D01*
X724D01*
Y687D01*
X724Y688D01*
Y708D01*
X784Y768D01*
X786Y767D01*
X795Y764D01*
X805D01*
X814Y767D01*
X822Y772D01*
X828Y778D01*
X833Y786D01*
X836Y795D01*
Y805D01*
X833Y814D01*
X828Y822D01*
X822Y828D01*
X814Y833D01*
X805Y836D01*
D02*
G37*
G36*
X705D02*
X695D01*
X686Y833D01*
X678Y828D01*
X672Y822D01*
X667Y814D01*
X664Y805D01*
Y795D01*
X667Y786D01*
X672Y778D01*
X678Y772D01*
X686Y767D01*
X695Y764D01*
X705D01*
X714Y767D01*
X722Y772D01*
X728Y778D01*
X733Y786D01*
X736Y795D01*
Y805D01*
X733Y814D01*
X728Y822D01*
X722Y828D01*
X714Y833D01*
X705Y836D01*
D02*
G37*
G36*
X605D02*
X595D01*
X586Y833D01*
X578Y828D01*
X572Y822D01*
X567Y814D01*
X564Y805D01*
Y795D01*
X567Y786D01*
X572Y778D01*
X578Y772D01*
X586Y767D01*
X595Y764D01*
X605D01*
X614Y767D01*
X622Y772D01*
X628Y778D01*
X633Y786D01*
X636Y795D01*
Y805D01*
X633Y814D01*
X628Y822D01*
X622Y828D01*
X614Y833D01*
X605Y836D01*
D02*
G37*
G36*
X505D02*
X495D01*
X486Y833D01*
X478Y828D01*
X472Y822D01*
X467Y814D01*
X464Y805D01*
Y795D01*
X467Y786D01*
X472Y778D01*
X478Y772D01*
X486Y767D01*
X495Y764D01*
X505D01*
X514Y767D01*
X522Y772D01*
X528Y778D01*
X533Y786D01*
X536Y795D01*
Y805D01*
X533Y814D01*
X528Y822D01*
X522Y828D01*
X514Y833D01*
X505Y836D01*
D02*
G37*
G36*
X440Y795D02*
X405D01*
Y760D01*
X440D01*
Y795D01*
D02*
G37*
G36*
X395D02*
X360D01*
Y760D01*
X395D01*
Y795D01*
D02*
G37*
G36*
X1205Y836D02*
X1195D01*
X1186Y833D01*
X1178Y828D01*
X1172Y822D01*
X1167Y814D01*
X1165Y807D01*
X1164Y807D01*
X1164Y807D01*
X1084Y726D01*
X1081Y722D01*
X1080Y718D01*
X1080Y718D01*
Y659D01*
X1076Y657D01*
X1010Y723D01*
X1006Y725D01*
X1002Y726D01*
X1002Y726D01*
X914D01*
Y739D01*
X875D01*
Y691D01*
X887D01*
X888Y686D01*
X885Y684D01*
X885Y684D01*
X873Y673D01*
X868Y674D01*
X865Y679D01*
X859Y685D01*
X856Y687D01*
X855Y691D01*
X855Y691D01*
Y739D01*
X816D01*
Y726D01*
X810D01*
X806Y725D01*
X803Y723D01*
X803Y723D01*
X780Y700D01*
X779Y699D01*
X751D01*
Y660D01*
X799D01*
Y687D01*
X799Y687D01*
X811Y699D01*
X816Y697D01*
Y691D01*
X822D01*
X824Y686D01*
X821Y685D01*
X815Y679D01*
X811Y672D01*
X809Y664D01*
Y656D01*
X811Y648D01*
X815Y641D01*
X819Y637D01*
X817Y632D01*
X799D01*
Y640D01*
X751D01*
Y601D01*
X799D01*
Y609D01*
X836D01*
Y602D01*
X818D01*
X818Y602D01*
X814Y601D01*
X810Y598D01*
X810Y598D01*
X786Y574D01*
X750D01*
Y542D01*
X741Y532D01*
X735D01*
Y545D01*
X675D01*
Y536D01*
X642D01*
X641Y538D01*
X640Y541D01*
X637Y542D01*
X634Y543D01*
X581D01*
X578Y542D01*
X575Y541D01*
X573Y538D01*
X573Y535D01*
Y515D01*
X573Y512D01*
X575Y509D01*
X578Y508D01*
X581Y507D01*
X634D01*
X637Y508D01*
X640Y509D01*
X641Y512D01*
X642Y514D01*
X672D01*
X673Y513D01*
X673Y513D01*
X676Y511D01*
X681Y510D01*
X681Y510D01*
X745D01*
X745Y510D01*
X749Y511D01*
X753Y513D01*
X766Y526D01*
X802D01*
Y558D01*
X823Y579D01*
X836D01*
Y565D01*
X884D01*
Y616D01*
X869D01*
X868Y621D01*
X884Y637D01*
X886Y641D01*
X887Y645D01*
X887Y645D01*
Y655D01*
X897Y665D01*
X914D01*
X916Y660D01*
X915Y659D01*
X911Y652D01*
X909Y644D01*
Y636D01*
X911Y628D01*
X915Y621D01*
X921Y615D01*
X924Y614D01*
Y601D01*
X901D01*
Y545D01*
X979D01*
Y601D01*
X956D01*
Y614D01*
X959Y615D01*
X965Y621D01*
X969Y628D01*
X971Y636D01*
Y644D01*
X969Y652D01*
X965Y659D01*
X964Y660D01*
X966Y665D01*
X1009D01*
X1036Y638D01*
X1035Y634D01*
X1034Y633D01*
X1030Y632D01*
X1027Y630D01*
X1027Y630D01*
X1009Y612D01*
X1007Y608D01*
X1006Y604D01*
X1006Y604D01*
Y412D01*
X962Y369D01*
X931D01*
Y329D01*
X979D01*
Y353D01*
X1014Y389D01*
X1019Y387D01*
Y370D01*
X1006D01*
Y330D01*
X1054D01*
Y370D01*
X1041D01*
Y394D01*
X1043Y397D01*
X1044Y401D01*
X1044Y401D01*
Y456D01*
X1049Y458D01*
X1050Y456D01*
X1056Y450D01*
X1063Y446D01*
X1071Y444D01*
X1079D01*
X1087Y446D01*
X1094Y450D01*
X1100Y456D01*
X1104Y463D01*
X1106Y471D01*
Y479D01*
X1104Y487D01*
X1100Y494D01*
X1094Y499D01*
X1095Y501D01*
X1096Y504D01*
X1149D01*
X1155Y506D01*
X1161Y509D01*
X1161Y510D01*
X1162D01*
Y511D01*
X1164Y515D01*
X1166Y521D01*
Y547D01*
X1165Y552D01*
X1169Y554D01*
X1192Y531D01*
X1192Y531D01*
X1194Y530D01*
X1214Y510D01*
Y481D01*
X1201D01*
X1200Y481D01*
X1199Y481D01*
X1186D01*
Y425D01*
X1264D01*
Y481D01*
X1236D01*
Y515D01*
X1235Y519D01*
X1233Y523D01*
X1233Y523D01*
X1209Y547D01*
X1206Y549D01*
X1176Y579D01*
X1172Y581D01*
X1168Y582D01*
X1168Y583D01*
X1149D01*
X1132D01*
Y574D01*
X1136D01*
Y557D01*
X1134Y553D01*
X1133Y547D01*
Y537D01*
X1075D01*
X1069Y536D01*
X1068Y536D01*
X1064Y539D01*
Y578D01*
Y622D01*
X1064Y626D01*
X1094D01*
Y622D01*
X1103D01*
Y639D01*
X1113D01*
Y622D01*
X1123D01*
Y626D01*
X1128D01*
X1132Y625D01*
Y620D01*
X1132D01*
Y610D01*
X1149D01*
X1166D01*
Y612D01*
X1178D01*
X1180Y611D01*
X1184Y612D01*
X1188Y614D01*
X1197Y623D01*
X1200Y621D01*
X1208Y619D01*
X1216D01*
X1224Y621D01*
X1231Y625D01*
X1237Y631D01*
X1241Y638D01*
X1243Y646D01*
Y654D01*
X1241Y662D01*
X1237Y669D01*
X1231Y675D01*
X1224Y679D01*
X1216Y681D01*
X1208D01*
X1200Y679D01*
X1193Y675D01*
X1187Y669D01*
X1183Y662D01*
X1181Y654D01*
Y646D01*
X1183Y641D01*
X1175Y633D01*
X1166D01*
Y634D01*
X1149D01*
Y639D01*
X1144D01*
Y654D01*
X1137D01*
Y691D01*
X1147Y702D01*
X1148Y701D01*
X1156Y699D01*
X1164D01*
X1172Y701D01*
X1179Y705D01*
X1185Y711D01*
X1187Y715D01*
X1254D01*
X1319Y650D01*
Y639D01*
X1306D01*
Y599D01*
X1354D01*
Y639D01*
X1341D01*
Y651D01*
X1346Y654D01*
X1376Y623D01*
Y600D01*
X1424D01*
Y639D01*
X1392D01*
X1392Y639D01*
X1237Y794D01*
X1236Y795D01*
Y805D01*
X1233Y814D01*
X1228Y822D01*
X1222Y828D01*
X1214Y833D01*
X1205Y836D01*
D02*
G37*
G36*
X1166Y654D02*
X1154D01*
Y644D01*
X1166D01*
Y654D01*
D02*
G37*
G36*
X634Y693D02*
X581D01*
X578Y692D01*
X575Y691D01*
X573Y688D01*
X573Y685D01*
Y665D01*
X573Y662D01*
X575Y659D01*
X578Y658D01*
X581Y657D01*
X591D01*
Y645D01*
X586Y643D01*
X583Y645D01*
X577Y646D01*
X548D01*
X544Y650D01*
X537Y654D01*
X529Y656D01*
X521D01*
X513Y654D01*
X506Y650D01*
X500Y644D01*
X496Y637D01*
X494Y629D01*
Y621D01*
X496Y613D01*
X500Y606D01*
X506Y600D01*
X513Y596D01*
X521Y594D01*
X529D01*
X537Y596D01*
X544Y600D01*
X550Y606D01*
X554Y613D01*
X554Y614D01*
X571D01*
X573Y612D01*
X573Y612D01*
X575Y609D01*
X578Y608D01*
X581Y607D01*
X634D01*
X637Y608D01*
X640Y609D01*
X641Y612D01*
X642Y615D01*
Y635D01*
X641Y638D01*
X640Y641D01*
X637Y642D01*
X634Y643D01*
X624D01*
Y657D01*
X634D01*
X637Y658D01*
X640Y659D01*
X641Y662D01*
X642Y665D01*
Y685D01*
X641Y688D01*
X640Y691D01*
X637Y692D01*
X634Y693D01*
D02*
G37*
G36*
X2705Y1036D02*
X2695D01*
X2686Y1034D01*
X2678Y1029D01*
X2671Y1022D01*
X2666Y1014D01*
X2664Y1005D01*
Y995D01*
X2666Y986D01*
X2671Y978D01*
X2678Y971D01*
X2684Y968D01*
Y832D01*
X2678Y828D01*
X2672Y822D01*
X2667Y814D01*
X2664Y805D01*
Y795D01*
X2667Y786D01*
X2672Y778D01*
X2678Y772D01*
X2684Y768D01*
Y640D01*
X2676D01*
Y600D01*
X2724D01*
Y640D01*
X2716D01*
Y768D01*
X2722Y772D01*
X2728Y778D01*
X2733Y786D01*
X2736Y795D01*
Y805D01*
X2733Y814D01*
X2728Y822D01*
X2722Y828D01*
X2716Y832D01*
Y968D01*
X2722Y971D01*
X2729Y978D01*
X2734Y986D01*
X2736Y995D01*
Y1005D01*
X2734Y1014D01*
X2729Y1022D01*
X2722Y1029D01*
X2714Y1034D01*
X2705Y1036D01*
D02*
G37*
G36*
X2605Y836D02*
X2595D01*
X2586Y833D01*
X2578Y828D01*
X2572Y822D01*
X2567Y814D01*
X2564Y805D01*
Y795D01*
X2567Y786D01*
X2572Y778D01*
X2578Y772D01*
X2584Y768D01*
Y640D01*
X2576D01*
Y600D01*
X2624D01*
Y640D01*
X2616D01*
Y768D01*
X2622Y772D01*
X2628Y778D01*
X2633Y786D01*
X2636Y795D01*
Y805D01*
X2633Y814D01*
X2628Y822D01*
X2622Y828D01*
X2614Y833D01*
X2605Y836D01*
D02*
G37*
G36*
X2469Y1036D02*
X2459D01*
X2450Y1034D01*
X2442Y1029D01*
X2435Y1022D01*
X2430Y1014D01*
X2428Y1005D01*
Y995D01*
X2430Y986D01*
X2435Y978D01*
X2442Y971D01*
X2447Y968D01*
Y936D01*
X2449Y930D01*
X2452Y925D01*
X2484Y893D01*
Y832D01*
X2478Y828D01*
X2472Y822D01*
X2467Y814D01*
X2464Y805D01*
Y795D01*
X2467Y786D01*
X2472Y778D01*
X2478Y772D01*
X2484Y768D01*
Y640D01*
X2476D01*
Y600D01*
X2524D01*
Y640D01*
X2516D01*
Y768D01*
X2522Y772D01*
X2528Y778D01*
X2533Y786D01*
X2536Y795D01*
Y805D01*
X2533Y814D01*
X2528Y822D01*
X2522Y828D01*
X2516Y832D01*
Y900D01*
X2515Y906D01*
X2512Y912D01*
X2480Y943D01*
Y968D01*
X2486Y971D01*
X2493Y978D01*
X2497Y986D01*
X2500Y995D01*
Y1005D01*
X2497Y1014D01*
X2493Y1022D01*
X2486Y1029D01*
X2478Y1034D01*
X2469Y1036D01*
D02*
G37*
G36*
X2405Y836D02*
X2395D01*
X2386Y833D01*
X2378Y828D01*
X2372Y822D01*
X2367Y814D01*
X2364Y805D01*
Y795D01*
X2367Y786D01*
X2372Y778D01*
X2378Y772D01*
X2384Y768D01*
Y640D01*
X2376D01*
Y600D01*
X2424D01*
Y640D01*
X2416D01*
Y768D01*
X2422Y772D01*
X2428Y778D01*
X2433Y786D01*
X2436Y795D01*
Y805D01*
X2433Y814D01*
X2428Y822D01*
X2422Y828D01*
X2414Y833D01*
X2405Y836D01*
D02*
G37*
G36*
X2205D02*
X2195D01*
X2186Y833D01*
X2178Y828D01*
X2172Y822D01*
X2167Y814D01*
X2164Y805D01*
Y795D01*
X2167Y786D01*
X2172Y778D01*
X2178Y772D01*
X2184Y768D01*
Y640D01*
X2176D01*
Y600D01*
X2224D01*
Y640D01*
X2216D01*
Y768D01*
X2222Y772D01*
X2228Y778D01*
X2233Y786D01*
X2236Y795D01*
Y805D01*
X2233Y814D01*
X2228Y822D01*
X2222Y828D01*
X2214Y833D01*
X2205Y836D01*
D02*
G37*
G36*
X2005D02*
X1995D01*
X1986Y833D01*
X1978Y828D01*
X1972Y822D01*
X1967Y814D01*
X1964Y805D01*
Y795D01*
X1967Y786D01*
X1972Y778D01*
X1978Y772D01*
X1984Y768D01*
Y640D01*
X1976D01*
Y600D01*
X2024D01*
Y640D01*
X2016D01*
Y768D01*
X2022Y772D01*
X2028Y778D01*
X2033Y786D01*
X2036Y795D01*
Y805D01*
X2033Y814D01*
X2028Y822D01*
X2022Y828D01*
X2014Y833D01*
X2005Y836D01*
D02*
G37*
G36*
X1269Y1036D02*
X1259D01*
X1250Y1034D01*
X1242Y1029D01*
X1235Y1022D01*
X1230Y1014D01*
X1228Y1005D01*
Y995D01*
X1230Y986D01*
X1235Y978D01*
X1242Y971D01*
X1250Y966D01*
X1259Y964D01*
X1269D01*
X1275Y966D01*
X1332Y908D01*
X1338Y905D01*
X1344Y904D01*
X1781D01*
X1868Y816D01*
X1867Y814D01*
X1864Y805D01*
Y795D01*
X1867Y786D01*
X1872Y778D01*
X1878Y772D01*
X1884Y768D01*
Y640D01*
X1876D01*
Y600D01*
X1924D01*
Y640D01*
X1916D01*
Y768D01*
X1922Y772D01*
X1928Y778D01*
X1933Y786D01*
X1936Y795D01*
Y805D01*
X1933Y814D01*
X1928Y822D01*
X1922Y828D01*
X1914Y833D01*
X1905Y836D01*
X1896D01*
X1800Y931D01*
X1794Y935D01*
X1788Y936D01*
X1351D01*
X1298Y989D01*
X1300Y995D01*
Y1005D01*
X1297Y1014D01*
X1293Y1022D01*
X1286Y1029D01*
X1278Y1034D01*
X1269Y1036D01*
D02*
G37*
G36*
X1704Y731D02*
X1696D01*
X1688Y729D01*
X1681Y725D01*
X1675Y719D01*
X1671Y712D01*
X1669Y704D01*
Y696D01*
X1671Y688D01*
X1675Y681D01*
X1681Y675D01*
X1684Y674D01*
Y640D01*
X1676D01*
Y600D01*
X1724D01*
Y640D01*
X1716D01*
Y674D01*
X1719Y675D01*
X1725Y681D01*
X1729Y688D01*
X1731Y696D01*
Y704D01*
X1729Y712D01*
X1725Y719D01*
X1719Y725D01*
X1712Y729D01*
X1704Y731D01*
D02*
G37*
G36*
X787Y1036D02*
X777D01*
X768Y1034D01*
X760Y1029D01*
X753Y1022D01*
X748Y1014D01*
X746Y1005D01*
Y995D01*
X748Y986D01*
X753Y978D01*
X760Y971D01*
X768Y966D01*
X777Y964D01*
X787D01*
X793Y966D01*
X850Y908D01*
X856Y905D01*
X862Y904D01*
X1251D01*
X1306Y848D01*
X1311Y845D01*
X1318Y844D01*
X1433D01*
X1466Y811D01*
X1464Y805D01*
Y795D01*
X1467Y786D01*
X1472Y778D01*
X1478Y772D01*
X1486Y767D01*
X1495Y764D01*
X1505D01*
X1511Y766D01*
X1584Y693D01*
Y640D01*
X1576D01*
Y600D01*
X1624D01*
Y640D01*
X1616D01*
Y700D01*
X1616Y700D01*
X1615Y706D01*
X1612Y712D01*
X1534Y789D01*
X1536Y795D01*
Y805D01*
X1533Y814D01*
X1528Y822D01*
X1522Y828D01*
X1514Y833D01*
X1505Y836D01*
X1495D01*
X1489Y834D01*
X1452Y871D01*
X1446Y875D01*
X1440Y876D01*
X1324D01*
X1269Y931D01*
X1264Y935D01*
X1258Y936D01*
X869D01*
X816Y989D01*
X818Y995D01*
Y1005D01*
X816Y1014D01*
X811Y1022D01*
X804Y1029D01*
X796Y1034D01*
X787Y1036D01*
D02*
G37*
G36*
X1405Y836D02*
X1395D01*
X1386Y833D01*
X1378Y828D01*
X1372Y822D01*
X1367Y814D01*
X1364Y805D01*
Y795D01*
X1367Y786D01*
X1372Y778D01*
X1378Y772D01*
X1386Y767D01*
X1395Y764D01*
X1405D01*
X1411Y766D01*
X1484Y693D01*
Y640D01*
X1476D01*
Y600D01*
X1524D01*
Y640D01*
X1516D01*
Y700D01*
X1516Y700D01*
X1515Y706D01*
X1512Y712D01*
X1434Y789D01*
X1436Y795D01*
Y805D01*
X1433Y814D01*
X1428Y822D01*
X1422Y828D01*
X1414Y833D01*
X1405Y836D01*
D02*
G37*
G36*
X1166Y600D02*
X1149D01*
X1132D01*
Y593D01*
X1149D01*
X1166D01*
Y600D01*
D02*
G37*
G36*
X700Y641D02*
X696D01*
X692Y640D01*
X691Y640D01*
X676D01*
Y616D01*
X646Y587D01*
X642Y587D01*
X641Y588D01*
X640Y591D01*
X637Y592D01*
X634Y593D01*
X581D01*
X578Y592D01*
X575Y591D01*
X573Y588D01*
X573Y585D01*
Y565D01*
X573Y562D01*
X575Y559D01*
X578Y558D01*
X581Y557D01*
X634D01*
X637Y558D01*
X640Y559D01*
X641Y562D01*
X642Y564D01*
X651D01*
X651Y564D01*
X655Y565D01*
X659Y567D01*
X671Y579D01*
X675Y577D01*
X675Y573D01*
Y555D01*
X700D01*
Y578D01*
X680D01*
X676Y578D01*
X674Y582D01*
X692Y600D01*
X724D01*
Y640D01*
X705D01*
X704Y640D01*
X700Y641D01*
D02*
G37*
G36*
X280Y1161D02*
X270D01*
X261Y1158D01*
X253Y1153D01*
X247Y1147D01*
X242Y1139D01*
X239Y1130D01*
Y1120D01*
X242Y1111D01*
X242Y1111D01*
Y1034D01*
X242Y1033D01*
X241Y1025D01*
X241Y1025D01*
Y1000D01*
Y753D01*
X241Y753D01*
X242Y745D01*
X245Y738D01*
X250Y731D01*
X329Y652D01*
X335Y647D01*
X336Y647D01*
X350Y633D01*
X357Y628D01*
X358Y627D01*
Y615D01*
X359Y612D01*
X360Y609D01*
X363Y608D01*
X366Y607D01*
X367D01*
X371Y603D01*
X372Y602D01*
X370Y597D01*
X366D01*
X361Y596D01*
X358Y593D01*
X355Y589D01*
X354Y585D01*
Y580D01*
X393D01*
X431D01*
Y585D01*
X431Y589D01*
X428Y593D01*
X424Y596D01*
X419Y597D01*
X415D01*
X414Y602D01*
X415Y603D01*
X418Y607D01*
X419D01*
X422Y608D01*
X425Y609D01*
X427Y612D01*
X427Y615D01*
Y635D01*
X427Y638D01*
X425Y641D01*
X424Y641D01*
Y659D01*
X425Y659D01*
X427Y662D01*
X427Y665D01*
Y685D01*
X427Y688D01*
X425Y691D01*
X422Y692D01*
X419Y693D01*
X418D01*
X415Y697D01*
X408Y702D01*
X401Y705D01*
X393Y706D01*
X385Y705D01*
X377Y702D01*
X372Y699D01*
X369Y701D01*
X367Y702D01*
X303Y766D01*
Y1000D01*
Y1017D01*
X304Y1018D01*
X304Y1023D01*
X305Y1027D01*
X305Y1027D01*
Y1105D01*
X308Y1111D01*
X311Y1120D01*
Y1130D01*
X308Y1139D01*
X303Y1147D01*
X297Y1153D01*
X289Y1158D01*
X280Y1161D01*
D02*
G37*
G36*
X2728Y585D02*
X2705D01*
Y566D01*
X2728D01*
Y585D01*
D02*
G37*
G36*
X2228D02*
X2205D01*
Y566D01*
X2228D01*
Y585D01*
D02*
G37*
G36*
X1928D02*
X1905D01*
Y566D01*
X1928D01*
Y585D01*
D02*
G37*
G36*
X1728D02*
X1705D01*
Y566D01*
X1728D01*
Y585D01*
D02*
G37*
G36*
X2528D02*
X2505D01*
Y566D01*
X2528D01*
Y585D01*
D02*
G37*
G36*
X2428D02*
X2405D01*
Y566D01*
X2428D01*
Y585D01*
D02*
G37*
G36*
X2128D02*
X2105D01*
Y566D01*
X2128D01*
Y585D01*
D02*
G37*
G36*
X2028D02*
X2005D01*
Y566D01*
X2028D01*
Y585D01*
D02*
G37*
G36*
X1628D02*
X1605D01*
Y566D01*
X1628D01*
Y585D01*
D02*
G37*
G36*
X1528D02*
X1505D01*
Y566D01*
X1528D01*
Y585D01*
D02*
G37*
G36*
X2628D02*
X2605D01*
Y566D01*
X2628D01*
Y585D01*
D02*
G37*
G36*
X2328D02*
X2305D01*
Y566D01*
X2328D01*
Y585D01*
D02*
G37*
G36*
X1695D02*
X1672D01*
Y566D01*
X1695D01*
Y585D01*
D02*
G37*
G36*
X2695D02*
X2672D01*
Y566D01*
X2695D01*
Y585D01*
D02*
G37*
G36*
X2195D02*
X2172D01*
Y566D01*
X2195D01*
Y585D01*
D02*
G37*
G36*
X1895D02*
X1872D01*
Y566D01*
X1895D01*
Y585D01*
D02*
G37*
G36*
X2595D02*
X2572D01*
Y566D01*
X2595D01*
Y585D01*
D02*
G37*
G36*
X2495D02*
X2472D01*
Y566D01*
X2495D01*
Y585D01*
D02*
G37*
G36*
X2395D02*
X2372D01*
Y566D01*
X2395D01*
Y585D01*
D02*
G37*
G36*
X2095D02*
X2072D01*
Y566D01*
X2095D01*
Y585D01*
D02*
G37*
G36*
X1995D02*
X1972D01*
Y566D01*
X1995D01*
Y585D01*
D02*
G37*
G36*
X1595D02*
X1572D01*
Y566D01*
X1595D01*
Y585D01*
D02*
G37*
G36*
X1495D02*
X1472D01*
Y566D01*
X1495D01*
Y585D01*
D02*
G37*
G36*
X2295D02*
X2272D01*
Y566D01*
X2295D01*
Y585D01*
D02*
G37*
G36*
X318Y585D02*
X280D01*
Y558D01*
X318D01*
Y585D01*
D02*
G37*
G36*
X270D02*
X232D01*
Y558D01*
X270D01*
Y585D01*
D02*
G37*
G36*
X710Y578D02*
Y555D01*
X735D01*
Y578D01*
X710D01*
D02*
G37*
G36*
X431Y570D02*
X398D01*
Y553D01*
X419D01*
X424Y554D01*
X428Y557D01*
X431Y561D01*
X431Y565D01*
Y570D01*
D02*
G37*
G36*
X388D02*
X354D01*
Y565D01*
X355Y561D01*
X358Y557D01*
X361Y554D01*
X366Y553D01*
X388D01*
Y570D01*
D02*
G37*
G36*
X1264Y581D02*
X1256D01*
X1248Y579D01*
X1241Y575D01*
X1235Y569D01*
X1231Y562D01*
X1229Y554D01*
Y546D01*
X1231Y538D01*
X1235Y531D01*
X1241Y525D01*
X1248Y521D01*
X1256Y519D01*
X1264D01*
X1272Y521D01*
X1279Y525D01*
X1285Y531D01*
X1289Y538D01*
X1291Y546D01*
X1293Y546D01*
X1297Y547D01*
X1299Y549D01*
X1306D01*
Y540D01*
X1354D01*
Y549D01*
X1376D01*
Y541D01*
X1424D01*
Y580D01*
X1376D01*
Y571D01*
X1354D01*
Y580D01*
X1306D01*
Y571D01*
X1295D01*
X1295Y571D01*
X1291Y570D01*
X1289Y570D01*
X1285Y569D01*
X1279Y575D01*
X1272Y579D01*
X1264Y581D01*
D02*
G37*
G36*
X2728Y556D02*
X2705D01*
Y537D01*
X2728D01*
Y556D01*
D02*
G37*
G36*
X2695D02*
X2672D01*
Y537D01*
X2695D01*
Y556D01*
D02*
G37*
G36*
X2628D02*
X2605D01*
Y537D01*
X2628D01*
Y556D01*
D02*
G37*
G36*
X2595D02*
X2572D01*
Y537D01*
X2595D01*
Y556D01*
D02*
G37*
G36*
X2528D02*
X2505D01*
Y537D01*
X2528D01*
Y556D01*
D02*
G37*
G36*
X2495D02*
X2472D01*
Y537D01*
X2495D01*
Y556D01*
D02*
G37*
G36*
X2428D02*
X2405D01*
Y537D01*
X2428D01*
Y556D01*
D02*
G37*
G36*
X2395D02*
X2372D01*
Y537D01*
X2395D01*
Y556D01*
D02*
G37*
G36*
X2328D02*
X2305D01*
Y537D01*
X2328D01*
Y556D01*
D02*
G37*
G36*
X2295D02*
X2272D01*
Y537D01*
X2295D01*
Y556D01*
D02*
G37*
G36*
X2228D02*
X2205D01*
Y537D01*
X2228D01*
Y556D01*
D02*
G37*
G36*
X2195D02*
X2172D01*
Y537D01*
X2195D01*
Y556D01*
D02*
G37*
G36*
X2128D02*
X2105D01*
Y537D01*
X2128D01*
Y556D01*
D02*
G37*
G36*
X2095D02*
X2072D01*
Y537D01*
X2095D01*
Y556D01*
D02*
G37*
G36*
X2028D02*
X2005D01*
Y537D01*
X2028D01*
Y556D01*
D02*
G37*
G36*
X1995D02*
X1972D01*
Y537D01*
X1995D01*
Y556D01*
D02*
G37*
G36*
X1928D02*
X1905D01*
Y537D01*
X1928D01*
Y556D01*
D02*
G37*
G36*
X1895D02*
X1872D01*
Y537D01*
X1895D01*
Y556D01*
D02*
G37*
G36*
X1728D02*
X1705D01*
Y537D01*
X1728D01*
Y556D01*
D02*
G37*
G36*
X1695D02*
X1672D01*
Y537D01*
X1695D01*
Y556D01*
D02*
G37*
G36*
X1628D02*
X1605D01*
Y537D01*
X1628D01*
Y556D01*
D02*
G37*
G36*
X1595D02*
X1572D01*
Y537D01*
X1595D01*
Y556D01*
D02*
G37*
G36*
X1528D02*
X1505D01*
Y537D01*
X1528D01*
Y556D01*
D02*
G37*
G36*
X1495D02*
X1472D01*
Y537D01*
X1495D01*
Y556D01*
D02*
G37*
G36*
X419Y547D02*
X398D01*
Y530D01*
X431D01*
Y535D01*
X431Y539D01*
X428Y543D01*
X424Y546D01*
X419Y547D01*
D02*
G37*
G36*
X388D02*
X366D01*
X361Y546D01*
X358Y543D01*
X355Y539D01*
X354Y535D01*
Y530D01*
X388D01*
Y547D01*
D02*
G37*
G36*
X318Y548D02*
X280D01*
Y521D01*
X318D01*
Y548D01*
D02*
G37*
G36*
X270D02*
X232D01*
Y521D01*
X270D01*
Y548D01*
D02*
G37*
G36*
X431Y520D02*
X398D01*
Y503D01*
X419D01*
X424Y504D01*
X428Y507D01*
X431Y511D01*
X431Y515D01*
Y520D01*
D02*
G37*
G36*
X388D02*
X354D01*
Y515D01*
X355Y511D01*
X358Y507D01*
X361Y504D01*
X366Y503D01*
X388D01*
Y520D01*
D02*
G37*
G36*
X884Y545D02*
X836D01*
Y494D01*
X849D01*
Y479D01*
X848Y479D01*
X841Y475D01*
X835Y469D01*
X834Y466D01*
X779D01*
X776Y468D01*
X770Y469D01*
X739D01*
Y481D01*
X661D01*
Y469D01*
X515D01*
X509Y468D01*
X504Y465D01*
X475Y436D01*
X453Y458D01*
X448Y462D01*
X442Y463D01*
X314D01*
Y475D01*
X236D01*
Y419D01*
X314D01*
Y431D01*
X408D01*
Y376D01*
X415D01*
Y344D01*
X408D01*
Y305D01*
X392Y289D01*
X390Y285D01*
X389Y281D01*
X389Y281D01*
Y236D01*
X364D01*
Y164D01*
X436D01*
Y236D01*
X411D01*
Y276D01*
X424Y289D01*
X444D01*
Y344D01*
X437D01*
Y376D01*
X444D01*
Y415D01*
X449Y417D01*
X458Y408D01*
Y376D01*
X493D01*
Y408D01*
X498Y413D01*
X503Y411D01*
Y408D01*
X546D01*
Y430D01*
X549Y432D01*
X552Y430D01*
Y408D01*
X596D01*
Y432D01*
X596Y435D01*
X600Y437D01*
X661D01*
Y425D01*
X739D01*
Y437D01*
X764D01*
X767Y435D01*
X773Y434D01*
X834D01*
X835Y431D01*
X841Y425D01*
X848Y421D01*
X856Y419D01*
X864D01*
X872Y421D01*
X879Y425D01*
X885Y431D01*
X889Y438D01*
X891Y446D01*
Y450D01*
X892Y451D01*
X901D01*
Y439D01*
X979D01*
Y495D01*
X901D01*
Y483D01*
X885D01*
X879Y482D01*
X876Y480D01*
X871Y483D01*
Y494D01*
X884D01*
Y545D01*
D02*
G37*
G36*
X1718Y485D02*
X1680D01*
Y458D01*
X1718D01*
Y485D01*
D02*
G37*
G36*
X1568D02*
X1530D01*
Y458D01*
X1568D01*
Y485D01*
D02*
G37*
G36*
X1418D02*
X1380D01*
Y458D01*
X1418D01*
Y485D01*
D02*
G37*
G36*
X1520D02*
X1482D01*
Y458D01*
X1520D01*
Y485D01*
D02*
G37*
G36*
X1670D02*
X1632D01*
Y458D01*
X1670D01*
Y485D01*
D02*
G37*
G36*
X1370D02*
X1332D01*
Y458D01*
X1370D01*
Y485D01*
D02*
G37*
G36*
X1718Y448D02*
X1680D01*
Y421D01*
X1718D01*
Y448D01*
D02*
G37*
G36*
X1670D02*
X1632D01*
Y421D01*
X1670D01*
Y448D01*
D02*
G37*
G36*
X1568D02*
X1530D01*
Y421D01*
X1568D01*
Y448D01*
D02*
G37*
G36*
X1520D02*
X1482D01*
Y421D01*
X1520D01*
Y448D01*
D02*
G37*
G36*
X1418D02*
X1380D01*
Y421D01*
X1418D01*
Y448D01*
D02*
G37*
G36*
X1370D02*
X1332D01*
Y421D01*
X1370D01*
Y448D01*
D02*
G37*
G36*
X2276Y441D02*
X2268D01*
X2260Y439D01*
X2253Y435D01*
X2247Y429D01*
X2243Y422D01*
X2241Y414D01*
Y406D01*
X2243Y398D01*
X2247Y391D01*
X2253Y385D01*
X2260Y381D01*
X2268Y379D01*
X2276D01*
X2284Y381D01*
X2291Y385D01*
X2297Y391D01*
X2301Y398D01*
X2301Y399D01*
X2321D01*
Y385D01*
X2369D01*
Y403D01*
X2593D01*
Y394D01*
X2637D01*
Y434D01*
X2593D01*
Y426D01*
X2369D01*
Y436D01*
X2321D01*
Y421D01*
X2301D01*
X2301Y422D01*
X2297Y429D01*
X2291Y435D01*
X2284Y439D01*
X2276Y441D01*
D02*
G37*
G36*
X596Y398D02*
X579D01*
Y372D01*
X596D01*
Y398D01*
D02*
G37*
G36*
X569D02*
X552D01*
Y372D01*
X569D01*
Y398D01*
D02*
G37*
G36*
X546D02*
X530D01*
Y372D01*
X546D01*
Y398D01*
D02*
G37*
G36*
X520D02*
X503D01*
Y372D01*
X520D01*
Y398D01*
D02*
G37*
G36*
X2641Y389D02*
X2620D01*
Y370D01*
X2641D01*
Y389D01*
D02*
G37*
G36*
X2610D02*
X2589D01*
Y370D01*
X2610D01*
Y389D01*
D02*
G37*
G36*
X1754Y381D02*
X1746D01*
X1738Y379D01*
X1731Y375D01*
X1725Y369D01*
X1724Y366D01*
X1714D01*
Y375D01*
X1636D01*
Y366D01*
X1564D01*
Y375D01*
X1486D01*
Y366D01*
X1414D01*
Y375D01*
X1336D01*
Y367D01*
X1264D01*
Y375D01*
X1186D01*
Y365D01*
X1177D01*
X1175Y369D01*
X1169Y375D01*
X1162Y379D01*
X1154Y381D01*
X1146D01*
X1138Y379D01*
X1131Y375D01*
X1125Y369D01*
X1121Y362D01*
X1119Y354D01*
Y346D01*
X1121Y338D01*
X1125Y331D01*
X1131Y325D01*
X1138Y321D01*
X1146Y319D01*
X1154D01*
X1162Y321D01*
X1169Y325D01*
X1175Y331D01*
X1175Y332D01*
X1186D01*
Y319D01*
X1264D01*
Y334D01*
X1336D01*
Y319D01*
X1359D01*
Y312D01*
X1356Y310D01*
X1350Y304D01*
X1346Y297D01*
X1344Y289D01*
Y281D01*
X1346Y273D01*
X1350Y266D01*
X1356Y260D01*
X1363Y256D01*
X1371Y254D01*
X1379D01*
X1387Y256D01*
X1394Y260D01*
X1400Y266D01*
X1404Y273D01*
X1406Y281D01*
Y289D01*
X1404Y297D01*
X1400Y304D01*
X1394Y310D01*
X1392Y311D01*
Y319D01*
X1414D01*
Y334D01*
X1486D01*
Y319D01*
X1509D01*
Y311D01*
X1506Y310D01*
X1500Y304D01*
X1496Y297D01*
X1494Y289D01*
Y281D01*
X1496Y273D01*
X1500Y266D01*
X1506Y260D01*
X1513Y256D01*
X1521Y254D01*
X1529D01*
X1537Y256D01*
X1544Y260D01*
X1550Y266D01*
X1554Y273D01*
X1556Y281D01*
Y289D01*
X1554Y297D01*
X1550Y304D01*
X1544Y310D01*
X1541Y311D01*
Y319D01*
X1564D01*
Y334D01*
X1636D01*
Y319D01*
X1714D01*
Y334D01*
X1724D01*
X1725Y331D01*
X1731Y325D01*
X1738Y321D01*
X1746Y319D01*
X1754D01*
X1762Y321D01*
X1769Y325D01*
X1775Y331D01*
X1779Y338D01*
X1779Y339D01*
X2321D01*
Y314D01*
X2369D01*
Y365D01*
X2321D01*
Y361D01*
X1779D01*
X1779Y362D01*
X1775Y369D01*
X1769Y375D01*
X1762Y379D01*
X1754Y381D01*
D02*
G37*
G36*
X743Y379D02*
X705D01*
Y352D01*
X743D01*
Y379D01*
D02*
G37*
G36*
X695D02*
X657D01*
Y352D01*
X695D01*
Y379D01*
D02*
G37*
G36*
X903Y368D02*
X880D01*
Y350D01*
X903D01*
Y368D01*
D02*
G37*
G36*
X823D02*
X800D01*
Y350D01*
X823D01*
Y368D01*
D02*
G37*
G36*
X870D02*
X847D01*
Y350D01*
X870D01*
Y368D01*
D02*
G37*
G36*
X790D02*
X767D01*
Y350D01*
X790D01*
Y368D01*
D02*
G37*
G36*
X2641Y360D02*
X2620D01*
Y341D01*
X2641D01*
Y360D01*
D02*
G37*
G36*
X2610D02*
X2589D01*
Y341D01*
X2610D01*
Y360D01*
D02*
G37*
G36*
X903Y340D02*
X880D01*
Y321D01*
X903D01*
Y340D01*
D02*
G37*
G36*
X870D02*
X847D01*
Y321D01*
X870D01*
Y340D01*
D02*
G37*
G36*
X823D02*
X800D01*
Y321D01*
X823D01*
Y340D01*
D02*
G37*
G36*
X790D02*
X767D01*
Y321D01*
X790D01*
Y340D01*
D02*
G37*
G36*
X743Y342D02*
X705D01*
Y315D01*
X743D01*
Y342D01*
D02*
G37*
G36*
X695D02*
X657D01*
Y315D01*
X695D01*
Y342D01*
D02*
G37*
G36*
X1094Y321D02*
X1086D01*
X1078Y319D01*
X1071Y315D01*
X1065Y309D01*
X1061Y302D01*
X1061Y302D01*
X1054D01*
Y311D01*
X1006D01*
Y302D01*
X979D01*
Y310D01*
X931D01*
Y270D01*
X979D01*
Y279D01*
X1006D01*
Y271D01*
X1054D01*
Y279D01*
X1061D01*
X1061Y278D01*
X1065Y271D01*
X1071Y265D01*
X1078Y261D01*
X1086Y259D01*
X1094D01*
X1102Y261D01*
X1109Y265D01*
X1115Y271D01*
X1119Y278D01*
X1121Y286D01*
Y294D01*
X1119Y302D01*
X1115Y309D01*
X1109Y315D01*
X1102Y319D01*
X1094Y321D01*
D02*
G37*
G36*
X592Y344D02*
X556D01*
Y298D01*
X551Y296D01*
X542Y305D01*
Y344D01*
X507D01*
Y289D01*
X527D01*
X539Y277D01*
Y212D01*
X534Y211D01*
X533Y214D01*
X528Y222D01*
X522Y228D01*
X514Y233D01*
X505Y236D01*
X495D01*
X486Y233D01*
X478Y228D01*
X472Y222D01*
X467Y214D01*
X464Y205D01*
Y195D01*
X467Y186D01*
X472Y178D01*
X478Y172D01*
X486Y167D01*
X495Y164D01*
X505D01*
X514Y167D01*
X522Y172D01*
X528Y178D01*
X533Y186D01*
X534Y189D01*
X539Y188D01*
Y175D01*
X539Y175D01*
X540Y171D01*
X542Y167D01*
X567Y142D01*
X567Y142D01*
X571Y140D01*
X575Y139D01*
X850D01*
X850Y139D01*
X854Y140D01*
X858Y142D01*
X884Y168D01*
X886Y167D01*
X895Y164D01*
X905D01*
X914Y167D01*
X922Y172D01*
X928Y178D01*
X933Y186D01*
X936Y195D01*
Y205D01*
X933Y214D01*
X928Y222D01*
X922Y228D01*
X914Y233D01*
X911Y234D01*
Y264D01*
X910Y269D01*
X908Y272D01*
X908Y272D01*
X899Y282D01*
Y305D01*
X851D01*
Y266D01*
X883D01*
X889Y260D01*
Y234D01*
X886Y233D01*
X878Y228D01*
X872Y222D01*
X867Y214D01*
X864Y205D01*
Y195D01*
X867Y186D01*
X868Y184D01*
X845Y161D01*
X812D01*
X811Y166D01*
X814Y167D01*
X822Y172D01*
X828Y178D01*
X833Y186D01*
X836Y195D01*
Y205D01*
X833Y214D01*
X828Y222D01*
X822Y228D01*
X814Y233D01*
X811Y234D01*
Y266D01*
X819D01*
Y305D01*
X771D01*
Y278D01*
X771Y277D01*
X771Y276D01*
Y266D01*
X781D01*
X782Y265D01*
X783Y266D01*
X789D01*
Y234D01*
X786Y233D01*
X784Y232D01*
X758Y258D01*
X754Y260D01*
X750Y261D01*
X750Y261D01*
X635D01*
X592Y305D01*
Y344D01*
D02*
G37*
G36*
X493D02*
X458D01*
Y289D01*
X493D01*
Y344D01*
D02*
G37*
G36*
X2705Y236D02*
X2695D01*
X2686Y233D01*
X2678Y228D01*
X2672Y222D01*
X2667Y214D01*
X2664Y205D01*
Y195D01*
X2667Y186D01*
X2672Y178D01*
X2678Y172D01*
X2686Y167D01*
X2695Y164D01*
X2705D01*
X2714Y167D01*
X2722Y172D01*
X2728Y178D01*
X2733Y186D01*
X2736Y195D01*
Y205D01*
X2733Y214D01*
X2728Y222D01*
X2722Y228D01*
X2714Y233D01*
X2705Y236D01*
D02*
G37*
G36*
X2605D02*
X2595D01*
X2586Y233D01*
X2578Y228D01*
X2572Y222D01*
X2567Y214D01*
X2564Y205D01*
Y195D01*
X2567Y186D01*
X2572Y178D01*
X2578Y172D01*
X2586Y167D01*
X2595Y164D01*
X2605D01*
X2614Y167D01*
X2622Y172D01*
X2628Y178D01*
X2633Y186D01*
X2636Y195D01*
Y205D01*
X2633Y214D01*
X2628Y222D01*
X2622Y228D01*
X2614Y233D01*
X2605Y236D01*
D02*
G37*
G36*
X2505D02*
X2495D01*
X2486Y233D01*
X2478Y228D01*
X2472Y222D01*
X2467Y214D01*
X2464Y205D01*
Y195D01*
X2467Y186D01*
X2472Y178D01*
X2478Y172D01*
X2486Y167D01*
X2495Y164D01*
X2505D01*
X2514Y167D01*
X2522Y172D01*
X2528Y178D01*
X2533Y186D01*
X2536Y195D01*
Y205D01*
X2533Y214D01*
X2528Y222D01*
X2522Y228D01*
X2514Y233D01*
X2505Y236D01*
D02*
G37*
G36*
X2405D02*
X2395D01*
X2386Y233D01*
X2378Y228D01*
X2372Y222D01*
X2367Y214D01*
X2364Y205D01*
Y195D01*
X2367Y186D01*
X2372Y178D01*
X2378Y172D01*
X2386Y167D01*
X2395Y164D01*
X2405D01*
X2414Y167D01*
X2422Y172D01*
X2428Y178D01*
X2433Y186D01*
X2436Y195D01*
Y205D01*
X2433Y214D01*
X2428Y222D01*
X2422Y228D01*
X2414Y233D01*
X2405Y236D01*
D02*
G37*
G36*
X2305D02*
X2295D01*
X2286Y233D01*
X2278Y228D01*
X2272Y222D01*
X2267Y214D01*
X2264Y205D01*
Y195D01*
X2267Y186D01*
X2272Y178D01*
X2278Y172D01*
X2286Y167D01*
X2295Y164D01*
X2305D01*
X2314Y167D01*
X2322Y172D01*
X2328Y178D01*
X2333Y186D01*
X2336Y195D01*
Y205D01*
X2333Y214D01*
X2328Y222D01*
X2322Y228D01*
X2314Y233D01*
X2305Y236D01*
D02*
G37*
G36*
X2205D02*
X2195D01*
X2186Y233D01*
X2178Y228D01*
X2172Y222D01*
X2167Y214D01*
X2164Y205D01*
Y195D01*
X2167Y186D01*
X2172Y178D01*
X2178Y172D01*
X2186Y167D01*
X2195Y164D01*
X2205D01*
X2214Y167D01*
X2222Y172D01*
X2228Y178D01*
X2233Y186D01*
X2236Y195D01*
Y205D01*
X2233Y214D01*
X2228Y222D01*
X2222Y228D01*
X2214Y233D01*
X2205Y236D01*
D02*
G37*
G36*
X2105D02*
X2095D01*
X2086Y233D01*
X2078Y228D01*
X2072Y222D01*
X2067Y214D01*
X2064Y205D01*
Y195D01*
X2067Y186D01*
X2072Y178D01*
X2078Y172D01*
X2086Y167D01*
X2095Y164D01*
X2105D01*
X2114Y167D01*
X2122Y172D01*
X2128Y178D01*
X2133Y186D01*
X2136Y195D01*
Y205D01*
X2133Y214D01*
X2128Y222D01*
X2122Y228D01*
X2114Y233D01*
X2105Y236D01*
D02*
G37*
G36*
X2005D02*
X1995D01*
X1986Y233D01*
X1978Y228D01*
X1972Y222D01*
X1967Y214D01*
X1964Y205D01*
Y195D01*
X1967Y186D01*
X1972Y178D01*
X1978Y172D01*
X1986Y167D01*
X1995Y164D01*
X2005D01*
X2014Y167D01*
X2022Y172D01*
X2028Y178D01*
X2033Y186D01*
X2036Y195D01*
Y205D01*
X2033Y214D01*
X2028Y222D01*
X2022Y228D01*
X2014Y233D01*
X2005Y236D01*
D02*
G37*
G36*
X1905D02*
X1895D01*
X1886Y233D01*
X1878Y228D01*
X1872Y222D01*
X1867Y214D01*
X1864Y205D01*
Y195D01*
X1867Y186D01*
X1872Y178D01*
X1878Y172D01*
X1886Y167D01*
X1895Y164D01*
X1905D01*
X1914Y167D01*
X1922Y172D01*
X1928Y178D01*
X1933Y186D01*
X1936Y195D01*
Y205D01*
X1933Y214D01*
X1928Y222D01*
X1922Y228D01*
X1914Y233D01*
X1905Y236D01*
D02*
G37*
G36*
X1805D02*
X1795D01*
X1786Y233D01*
X1778Y228D01*
X1772Y222D01*
X1767Y214D01*
X1764Y205D01*
Y195D01*
X1767Y186D01*
X1772Y178D01*
X1778Y172D01*
X1786Y167D01*
X1795Y164D01*
X1805D01*
X1814Y167D01*
X1822Y172D01*
X1828Y178D01*
X1833Y186D01*
X1836Y195D01*
Y205D01*
X1833Y214D01*
X1828Y222D01*
X1822Y228D01*
X1814Y233D01*
X1805Y236D01*
D02*
G37*
G36*
X1705D02*
X1695D01*
X1686Y233D01*
X1678Y228D01*
X1672Y222D01*
X1667Y214D01*
X1664Y205D01*
Y195D01*
X1667Y186D01*
X1672Y178D01*
X1678Y172D01*
X1686Y167D01*
X1695Y164D01*
X1705D01*
X1714Y167D01*
X1722Y172D01*
X1728Y178D01*
X1733Y186D01*
X1736Y195D01*
Y205D01*
X1733Y214D01*
X1728Y222D01*
X1722Y228D01*
X1714Y233D01*
X1705Y236D01*
D02*
G37*
G36*
X1605D02*
X1595D01*
X1586Y233D01*
X1578Y228D01*
X1572Y222D01*
X1567Y214D01*
X1564Y205D01*
Y195D01*
X1567Y186D01*
X1572Y178D01*
X1578Y172D01*
X1586Y167D01*
X1595Y164D01*
X1605D01*
X1614Y167D01*
X1622Y172D01*
X1628Y178D01*
X1633Y186D01*
X1636Y195D01*
Y205D01*
X1633Y214D01*
X1628Y222D01*
X1622Y228D01*
X1614Y233D01*
X1605Y236D01*
D02*
G37*
G36*
X1505D02*
X1495D01*
X1486Y233D01*
X1478Y228D01*
X1472Y222D01*
X1467Y214D01*
X1464Y205D01*
Y195D01*
X1467Y186D01*
X1472Y178D01*
X1478Y172D01*
X1486Y167D01*
X1495Y164D01*
X1505D01*
X1514Y167D01*
X1522Y172D01*
X1528Y178D01*
X1533Y186D01*
X1536Y195D01*
Y205D01*
X1533Y214D01*
X1528Y222D01*
X1522Y228D01*
X1514Y233D01*
X1505Y236D01*
D02*
G37*
G36*
X1405D02*
X1395D01*
X1386Y233D01*
X1378Y228D01*
X1372Y222D01*
X1367Y214D01*
X1364Y205D01*
Y195D01*
X1367Y186D01*
X1372Y178D01*
X1378Y172D01*
X1386Y167D01*
X1395Y164D01*
X1405D01*
X1414Y167D01*
X1422Y172D01*
X1428Y178D01*
X1433Y186D01*
X1436Y195D01*
Y205D01*
X1433Y214D01*
X1428Y222D01*
X1422Y228D01*
X1414Y233D01*
X1405Y236D01*
D02*
G37*
G36*
X1305D02*
X1295D01*
X1286Y233D01*
X1278Y228D01*
X1272Y222D01*
X1267Y214D01*
X1264Y205D01*
Y195D01*
X1267Y186D01*
X1272Y178D01*
X1278Y172D01*
X1286Y167D01*
X1295Y164D01*
X1305D01*
X1314Y167D01*
X1322Y172D01*
X1328Y178D01*
X1333Y186D01*
X1336Y195D01*
Y205D01*
X1333Y214D01*
X1328Y222D01*
X1322Y228D01*
X1314Y233D01*
X1305Y236D01*
D02*
G37*
G36*
X1205D02*
X1195D01*
X1186Y233D01*
X1178Y228D01*
X1172Y222D01*
X1167Y214D01*
X1164Y205D01*
Y195D01*
X1167Y186D01*
X1172Y178D01*
X1178Y172D01*
X1186Y167D01*
X1195Y164D01*
X1205D01*
X1214Y167D01*
X1222Y172D01*
X1228Y178D01*
X1233Y186D01*
X1236Y195D01*
Y205D01*
X1233Y214D01*
X1228Y222D01*
X1222Y228D01*
X1214Y233D01*
X1205Y236D01*
D02*
G37*
G36*
X1105D02*
X1095D01*
X1086Y233D01*
X1078Y228D01*
X1072Y222D01*
X1067Y214D01*
X1064Y205D01*
Y195D01*
X1067Y186D01*
X1072Y178D01*
X1078Y172D01*
X1086Y167D01*
X1095Y164D01*
X1105D01*
X1114Y167D01*
X1122Y172D01*
X1128Y178D01*
X1133Y186D01*
X1136Y195D01*
Y205D01*
X1133Y214D01*
X1128Y222D01*
X1122Y228D01*
X1114Y233D01*
X1105Y236D01*
D02*
G37*
G36*
X1005D02*
X995D01*
X986Y233D01*
X978Y228D01*
X972Y222D01*
X967Y214D01*
X964Y205D01*
Y195D01*
X967Y186D01*
X972Y178D01*
X978Y172D01*
X986Y167D01*
X995Y164D01*
X1005D01*
X1014Y167D01*
X1022Y172D01*
X1028Y178D01*
X1033Y186D01*
X1036Y195D01*
Y205D01*
X1033Y214D01*
X1028Y222D01*
X1022Y228D01*
X1014Y233D01*
X1005Y236D01*
D02*
G37*
%LPD*%
G36*
X768Y216D02*
X767Y214D01*
X764Y205D01*
Y195D01*
X767Y186D01*
X772Y178D01*
X778Y172D01*
X786Y167D01*
X789Y166D01*
X788Y161D01*
X712D01*
X711Y166D01*
X714Y167D01*
X722Y172D01*
X728Y178D01*
X733Y186D01*
X736Y195D01*
Y205D01*
X733Y214D01*
X728Y222D01*
X722Y228D01*
X714Y233D01*
X711Y234D01*
X712Y239D01*
X745D01*
X768Y216D01*
D02*
G37*
G36*
X623Y242D02*
X623Y242D01*
X626Y240D01*
X631Y239D01*
X631Y239D01*
X688D01*
X689Y234D01*
X686Y233D01*
X678Y228D01*
X672Y222D01*
X667Y214D01*
X664Y205D01*
Y195D01*
X667Y186D01*
X672Y178D01*
X678Y172D01*
X686Y167D01*
X689Y166D01*
X688Y161D01*
X612D01*
X611Y166D01*
X614Y167D01*
X622Y172D01*
X628Y178D01*
X633Y186D01*
X636Y195D01*
Y205D01*
X633Y214D01*
X628Y222D01*
X622Y228D01*
X614Y233D01*
X605Y236D01*
X595D01*
X586Y233D01*
X578Y228D01*
X572Y222D01*
X567Y214D01*
X566Y211D01*
X561Y212D01*
Y281D01*
X561Y281D01*
X561Y284D01*
X564Y289D01*
X576D01*
X623Y242D01*
D02*
G37*
D15*
X1200Y470D02*
X1217Y453D01*
X1225D01*
Y515D01*
X1201Y539D02*
X1225Y515D01*
X1200Y539D02*
X1201D01*
X1330Y619D02*
Y655D01*
X1259Y726D02*
X1330Y655D01*
X1164Y726D02*
X1259D01*
X1326Y619D02*
X1330D01*
X1400Y560D02*
X1400Y560D01*
X1330Y560D02*
X1330Y560D01*
X1400D01*
X1295Y560D02*
X1330D01*
X1260Y550D02*
X1268Y558D01*
X1293D01*
X1295Y560D01*
X876Y645D02*
Y659D01*
X893Y676D01*
X841Y624D02*
X855D01*
X837Y620D02*
X841Y624D01*
X855D02*
X876Y645D01*
X835Y715D02*
X838Y713D01*
Y662D02*
Y713D01*
Y662D02*
X840Y660D01*
X1227Y786D02*
X1229D01*
X1030Y290D02*
X1030Y291D01*
X1030Y290D02*
X1090D01*
X1030Y291D02*
X1030Y291D01*
X1030Y291D02*
X1030Y290D01*
X1090D02*
X1090Y290D01*
X1014Y676D02*
X1049Y641D01*
X893Y676D02*
X1014D01*
X1049Y640D02*
Y641D01*
X2345Y410D02*
X2349Y414D01*
X2615D01*
X2345Y410D02*
X2345Y410D01*
X2272Y410D02*
X2345D01*
X400Y200D02*
Y281D01*
X426Y307D02*
Y317D01*
X400Y281D02*
X426Y307D01*
Y317D02*
Y403D01*
X1050Y622D02*
X1051Y622D01*
X2335Y350D02*
X2345Y340D01*
X1750Y350D02*
X2335D01*
X860Y520D02*
X860Y520D01*
Y450D02*
Y520D01*
X1168Y571D02*
X1200Y539D01*
X1150Y571D02*
X1168D01*
X1092Y718D02*
X1172Y799D01*
X1199D01*
X1092Y639D02*
Y718D01*
X1199Y799D02*
X1200Y800D01*
X1002Y715D02*
X1074Y643D01*
X895Y715D02*
X1002D01*
X1040Y605D02*
X1050D01*
X1033Y401D02*
Y598D01*
X1030Y398D02*
X1033Y401D01*
X1050Y605D02*
X1051Y605D01*
X1033Y598D02*
X1040Y605D01*
X1030Y350D02*
Y398D01*
X1017Y407D02*
Y604D01*
X955Y350D02*
X959D01*
X1017Y407D01*
Y604D02*
X1035Y622D01*
X955Y290D02*
X1030D01*
X955Y290D02*
X955Y290D01*
X713Y713D02*
X800Y800D01*
X713Y688D02*
Y713D01*
X704Y680D02*
X713Y688D01*
X700Y680D02*
X704D01*
X900Y200D02*
Y264D01*
X879Y285D02*
X900Y264D01*
X875Y285D02*
X879D01*
X800Y200D02*
Y280D01*
X795Y285D02*
X800Y280D01*
X775Y620D02*
X837D01*
X696Y630D02*
X700D01*
X607Y575D02*
X651D01*
X687Y611D01*
Y612D01*
X696Y620D01*
X700D01*
X774Y550D02*
X776D01*
X745Y521D02*
X774Y550D01*
X681Y521D02*
X745D01*
X677Y525D02*
X681Y521D01*
X607Y525D02*
X677D01*
X818Y590D02*
X860D01*
X778Y550D02*
X818Y590D01*
X776Y550D02*
X778D01*
X1208Y650D02*
X1212D01*
X1125Y641D02*
Y695D01*
X1180Y622D02*
X1208Y650D01*
X1125Y695D02*
X1160Y730D01*
X810Y715D02*
X835D01*
X788Y692D02*
X810Y715D01*
X788Y688D02*
Y692D01*
X779Y680D02*
X788Y688D01*
X775Y680D02*
X779D01*
X1035Y622D02*
X1050D01*
X782Y277D02*
X791Y285D01*
X782Y277D02*
Y277D01*
X791Y285D02*
X795D01*
X871D02*
X875D01*
X750Y250D02*
X800Y200D01*
X574Y307D02*
Y317D01*
Y307D02*
X631Y250D01*
X750D01*
X850Y150D02*
X900Y200D01*
X550Y175D02*
X575Y150D01*
X850D01*
X525Y307D02*
Y317D01*
Y307D02*
X550Y281D01*
Y175D02*
Y281D01*
X1149Y572D02*
X1150Y571D01*
X1200Y800D02*
X1213D01*
X1227Y786D01*
X1387Y628D02*
X1391D01*
X1229Y786D02*
X1387Y628D01*
X1391D02*
X1400Y620D01*
X1160Y730D02*
X1164Y726D01*
D17*
X1375Y453D02*
D03*
Y347D02*
D03*
X1525Y453D02*
D03*
Y347D02*
D03*
X1225D02*
D03*
Y453D02*
D03*
X1675Y347D02*
D03*
Y453D02*
D03*
X700Y347D02*
D03*
Y453D02*
D03*
X275Y553D02*
D03*
Y447D02*
D03*
X940Y467D02*
D03*
Y573D02*
D03*
D18*
X2345Y340D02*
D03*
Y410D02*
D03*
X860Y520D02*
D03*
Y590D02*
D03*
D19*
X2615Y414D02*
D03*
Y365D02*
D03*
D20*
X393Y675D02*
D03*
Y625D02*
D03*
Y575D02*
D03*
Y525D02*
D03*
X607Y675D02*
D03*
Y625D02*
D03*
Y575D02*
D03*
Y525D02*
D03*
D21*
X1030Y291D02*
D03*
Y350D02*
D03*
X955Y290D02*
D03*
Y349D02*
D03*
X795Y285D02*
D03*
Y345D02*
D03*
X875Y285D02*
D03*
Y345D02*
D03*
X775Y620D02*
D03*
Y680D02*
D03*
X700Y620D02*
D03*
Y679D02*
D03*
X1400Y620D02*
D03*
Y560D02*
D03*
X1330Y619D02*
D03*
Y560D02*
D03*
X1500Y561D02*
D03*
Y620D02*
D03*
X1700Y561D02*
D03*
Y620D02*
D03*
X1600Y561D02*
D03*
Y620D02*
D03*
X2700Y561D02*
D03*
Y620D02*
D03*
X1900Y561D02*
D03*
Y620D02*
D03*
X2000Y561D02*
D03*
Y620D02*
D03*
X2100Y561D02*
D03*
Y620D02*
D03*
X2200Y561D02*
D03*
Y620D02*
D03*
X2300Y561D02*
D03*
Y620D02*
D03*
X2400Y561D02*
D03*
Y620D02*
D03*
X2500Y561D02*
D03*
Y620D02*
D03*
X2600Y561D02*
D03*
Y620D02*
D03*
D22*
X895Y715D02*
D03*
X835D02*
D03*
D23*
X1051Y639D02*
D03*
Y622D02*
D03*
Y605D02*
D03*
Y588D02*
D03*
Y572D02*
D03*
Y555D02*
D03*
Y538D02*
D03*
Y521D02*
D03*
X1149D02*
D03*
Y538D02*
D03*
Y555D02*
D03*
Y572D02*
D03*
Y588D02*
D03*
Y605D02*
D03*
Y622D02*
D03*
Y639D02*
D03*
D24*
X1075D02*
D03*
X1092D02*
D03*
X1108D02*
D03*
X1075Y521D02*
D03*
X1092D02*
D03*
X1108D02*
D03*
X1125D02*
D03*
Y639D02*
D03*
D25*
X776Y550D02*
D03*
X705D02*
D03*
D26*
X378Y1000D02*
D03*
X272D02*
D03*
D27*
X574Y403D02*
D03*
X525D02*
D03*
X475D02*
D03*
X426D02*
D03*
Y317D02*
D03*
X475D02*
D03*
X525D02*
D03*
X574D02*
D03*
D42*
X1150Y350D02*
D03*
X1260Y550D02*
D03*
X840Y660D02*
D03*
X1090Y290D02*
D03*
X1700Y700D02*
D03*
X2272Y410D02*
D03*
X860Y450D02*
D03*
X525Y625D02*
D03*
X940Y640D02*
D03*
X1212Y650D02*
D03*
X1075Y475D02*
D03*
X1160Y730D02*
D03*
X1750Y350D02*
D03*
X380Y910D02*
D03*
X1525Y285D02*
D03*
X1375D02*
D03*
D44*
X1150Y350D02*
X1152Y348D01*
X1223D02*
X1225Y347D01*
X1152Y348D02*
X1223D01*
X475Y403D02*
Y413D01*
X773Y450D02*
X860D01*
X770Y453D02*
X773Y450D01*
X860D02*
X868D01*
X885Y467D01*
X940D01*
X700Y453D02*
X770D01*
X515D02*
X700D01*
X1225Y347D02*
X1229Y351D01*
X1371D01*
X1376Y346D01*
X1440Y860D02*
X1600Y700D01*
X2000Y800D02*
Y810D01*
X580Y627D02*
X605D01*
X530Y630D02*
X577D01*
X525Y625D02*
X530Y630D01*
X577D02*
X580Y627D01*
X605D02*
X607Y625D01*
Y675D01*
X940Y573D02*
Y630D01*
X1075Y521D02*
X1075Y520D01*
X1149Y521D02*
Y538D01*
X1075Y520D02*
X1075Y520D01*
X1092Y521D02*
X1108D01*
X1125D02*
X1149D01*
X1075Y475D02*
Y520D01*
X1075Y521D02*
X1092D01*
X1108D02*
X1125D01*
X1149Y538D02*
Y547D01*
X1678Y350D02*
X1750D01*
X1675Y347D02*
X1678Y350D01*
X1525Y347D02*
X1528Y350D01*
X1672D02*
X1675Y347D01*
X1528Y350D02*
X1672D01*
X1376Y286D02*
Y346D01*
X1375Y350D02*
X1522D01*
X1375Y285D02*
X1376Y286D01*
X475Y413D02*
X515Y453D01*
X442Y447D02*
X475Y413D01*
X275Y447D02*
X442D01*
X862Y920D02*
X1258D01*
X782Y1000D02*
X862Y920D01*
X1258D02*
X1318Y860D01*
X1525Y285D02*
Y347D01*
X1522Y350D02*
X1525Y347D01*
X1318Y860D02*
X1440D01*
X1400Y800D02*
X1500Y700D01*
X1700Y620D02*
Y700D01*
X1600Y620D02*
Y700D01*
X660Y996D02*
X664Y1000D01*
X1788Y920D02*
X1900Y808D01*
X1344Y920D02*
X1788D01*
X1264Y1000D02*
X1344Y920D01*
X1900Y800D02*
Y808D01*
X1500Y1000D02*
X1793D01*
X1903Y890D01*
X2050D01*
X2100Y800D02*
X2100Y800D01*
X2100Y800D02*
Y840D01*
X2050Y890D02*
X2100Y840D01*
X1864Y1000D02*
X1870D01*
X2300Y800D02*
Y900D01*
X2250Y950D02*
X2300Y900D01*
X2032Y950D02*
X2250D01*
X1982Y1000D02*
X2032Y950D01*
X2500Y800D02*
Y900D01*
X2464Y936D02*
Y1000D01*
Y936D02*
X2500Y900D01*
X2700Y800D02*
Y1000D01*
Y620D02*
Y800D01*
X2600Y620D02*
Y800D01*
X2500Y620D02*
Y800D01*
X2400Y620D02*
Y800D01*
X2300Y620D02*
Y800D01*
X2200Y620D02*
Y800D01*
X2100Y620D02*
Y800D01*
X2000Y620D02*
Y800D01*
X1900Y620D02*
Y800D01*
X1500Y620D02*
Y700D01*
D45*
X393Y625D02*
Y655D01*
Y675D01*
X377Y1027D02*
Y1125D01*
X378Y912D02*
Y1000D01*
Y912D02*
X380Y910D01*
X273Y1027D02*
Y1125D01*
X275Y1127D01*
X272Y1000D02*
Y1025D01*
X353Y674D02*
X373Y655D01*
X351Y674D02*
X353D01*
X272Y753D02*
X351Y674D01*
X272Y753D02*
Y1000D01*
Y1025D02*
X273Y1027D01*
X377D02*
X378Y1025D01*
D46*
X1149Y622D02*
X1180D01*
D47*
X500Y800D02*
D03*
X600D02*
D03*
X700D02*
D03*
X800D02*
D03*
X900D02*
D03*
X1000D02*
D03*
X1100D02*
D03*
X1200D02*
D03*
X1300D02*
D03*
X1400D02*
D03*
X1500D02*
D03*
X1600D02*
D03*
X1700D02*
D03*
X1800D02*
D03*
X1900D02*
D03*
X2000D02*
D03*
X2100D02*
D03*
X2200D02*
D03*
X2300D02*
D03*
X2400D02*
D03*
X2500D02*
D03*
X2600D02*
D03*
X2700D02*
D03*
Y200D02*
D03*
X2600D02*
D03*
X2500D02*
D03*
X2400D02*
D03*
X2300D02*
D03*
X2200D02*
D03*
X2100D02*
D03*
X2000D02*
D03*
X1900D02*
D03*
X1800D02*
D03*
X1700D02*
D03*
X1600D02*
D03*
X1500D02*
D03*
X1400D02*
D03*
X1300D02*
D03*
X1200D02*
D03*
X1100D02*
D03*
X1000D02*
D03*
X900D02*
D03*
X800D02*
D03*
X700D02*
D03*
X600D02*
D03*
X500D02*
D03*
X275Y1125D02*
D03*
D48*
X400Y800D02*
D03*
Y200D02*
D03*
X375Y1125D02*
D03*
D49*
X2975Y125D02*
D03*
Y1375D02*
D03*
X125Y125D02*
D03*
Y1375D02*
D03*
D50*
X2582Y1288D02*
D03*
X1982D02*
D03*
X1382D02*
D03*
X782D02*
D03*
D51*
X2464Y1118D02*
D03*
X1864D02*
D03*
X1264D02*
D03*
X664D02*
D03*
D52*
X2582D02*
D03*
X2464Y1000D02*
D03*
X2582D02*
D03*
X2700D02*
D03*
Y1118D02*
D03*
X1982D02*
D03*
X1864Y1000D02*
D03*
X1982D02*
D03*
X2100D02*
D03*
Y1118D02*
D03*
X1382D02*
D03*
X1264Y1000D02*
D03*
X1382D02*
D03*
X1500D02*
D03*
Y1118D02*
D03*
X782D02*
D03*
X664Y1000D02*
D03*
X782D02*
D03*
X900D02*
D03*
Y1118D02*
D03*
M02*
