G04*
G04 #@! TF.GenerationSoftware,Altium Limited,Altium Designer,21.2.0 (30)*
G04*
G04 Layer_Color=16711935*
%FSLAX23Y23*%
%MOIN*%
G70*
G04*
G04 #@! TF.SameCoordinates,F0910630-DBBB-4278-8751-63CB2971D6BE*
G04*
G04*
G04 #@! TF.FilePolarity,Negative*
G04*
G01*
G75*
%ADD36C,0.059*%
%ADD37R,0.059X0.059*%
%ADD38C,0.125*%
%ADD39C,0.122*%
%ADD40R,0.064X0.064*%
%ADD41C,0.064*%
%ADD42C,0.050*%
%ADD43C,0.050*%
%ADD53C,0.058*%
D36*
X500Y800D02*
D03*
X600D02*
D03*
X700D02*
D03*
X800D02*
D03*
X900D02*
D03*
X1000D02*
D03*
X1100D02*
D03*
X1200D02*
D03*
X1300D02*
D03*
X1400D02*
D03*
X1500D02*
D03*
X1600D02*
D03*
X1700D02*
D03*
X1800D02*
D03*
X1900D02*
D03*
X2000D02*
D03*
X2100D02*
D03*
X2200D02*
D03*
X2300D02*
D03*
X2400D02*
D03*
X2500D02*
D03*
X2600D02*
D03*
X2700D02*
D03*
Y200D02*
D03*
X2600D02*
D03*
X2500D02*
D03*
X2400D02*
D03*
X2300D02*
D03*
X2200D02*
D03*
X2100D02*
D03*
X2000D02*
D03*
X1900D02*
D03*
X1800D02*
D03*
X1700D02*
D03*
X1600D02*
D03*
X1500D02*
D03*
X1400D02*
D03*
X1300D02*
D03*
X1200D02*
D03*
X1100D02*
D03*
X1000D02*
D03*
X900D02*
D03*
X800D02*
D03*
X700D02*
D03*
X600D02*
D03*
X500D02*
D03*
X275Y1125D02*
D03*
D37*
X400Y800D02*
D03*
Y200D02*
D03*
X375Y1125D02*
D03*
D38*
X2975Y125D02*
D03*
Y1375D02*
D03*
X125Y125D02*
D03*
Y1375D02*
D03*
D39*
X2582Y1288D02*
D03*
X1982D02*
D03*
X1382D02*
D03*
X782D02*
D03*
D40*
X2464Y1118D02*
D03*
X1864D02*
D03*
X1264D02*
D03*
X664D02*
D03*
D41*
X2582D02*
D03*
X2464Y1000D02*
D03*
X2582D02*
D03*
X2700D02*
D03*
Y1118D02*
D03*
X1982D02*
D03*
X1864Y1000D02*
D03*
X1982D02*
D03*
X2100D02*
D03*
Y1118D02*
D03*
X1382D02*
D03*
X1264Y1000D02*
D03*
X1382D02*
D03*
X1500D02*
D03*
Y1118D02*
D03*
X782D02*
D03*
X664Y1000D02*
D03*
X782D02*
D03*
X900D02*
D03*
Y1118D02*
D03*
D42*
X1150Y350D02*
D03*
X860Y450D02*
D03*
X940Y640D02*
D03*
X1075Y475D02*
D03*
X1160Y730D02*
D03*
X1750Y350D02*
D03*
X380Y910D02*
D03*
X1525Y285D02*
D03*
X1375D02*
D03*
D43*
X1260Y550D02*
D03*
X840Y660D02*
D03*
X1090Y290D02*
D03*
X1700Y700D02*
D03*
X2272Y410D02*
D03*
X525Y625D02*
D03*
D53*
X1212Y650D02*
D03*
M02*
