G04*
G04 #@! TF.GenerationSoftware,Altium Limited,Altium Designer,21.6.4 (81)*
G04*
G04 Layer_Color=16711935*
%FSLAX25Y25*%
%MOIN*%
G70*
G04*
G04 #@! TF.SameCoordinates,97392813-CCE2-4223-8130-4091A0700721*
G04*
G04*
G04 #@! TF.FilePolarity,Positive*
G04*
G01*
G75*
%ADD10C,0.00394*%
%ADD12C,0.00787*%
%ADD15C,0.00500*%
D10*
X28299Y41701D02*
G03*
X28299Y41701I-1969J0D01*
G01*
X180630Y42201D02*
Y48894D01*
X184370Y42201D02*
Y48894D01*
X180630Y42201D02*
X184370D01*
X180630Y48894D02*
X184370D01*
X186658Y52905D02*
X206343D01*
Y41094D02*
Y52905D01*
X186658Y41094D02*
X206343D01*
X186658D02*
Y52905D01*
X172870Y42154D02*
Y48847D01*
X169130Y42154D02*
Y48847D01*
X172870D01*
X169130Y42154D02*
X172870D01*
X119508Y33126D02*
X165177D01*
X119508D02*
Y48874D01*
X165177D01*
Y33126D02*
Y48874D01*
X236815Y62701D02*
X251185D01*
X236815Y50299D02*
X251185D01*
X236815D02*
Y62701D01*
X251185Y50299D02*
Y62701D01*
X158630Y70394D02*
X162370D01*
X158630Y63701D02*
X162370D01*
Y70394D01*
X158630Y63701D02*
Y70394D01*
X148574D02*
X152314D01*
X148574Y63701D02*
X152314D01*
Y70394D01*
X148574Y63701D02*
Y70394D01*
X138519D02*
X142259D01*
X138519Y63701D02*
X142259D01*
Y70394D01*
X138519Y63701D02*
Y70394D01*
X128463D02*
X132203D01*
X128463Y63701D02*
X132203D01*
Y70394D01*
X128463Y63701D02*
Y70394D01*
X98297Y63701D02*
X102037D01*
X98297Y70394D02*
X102037D01*
X98297Y63701D02*
Y70394D01*
X102037Y63701D02*
Y70394D01*
X88241Y63701D02*
X91981D01*
X88241Y70394D02*
X91981D01*
X88241Y63701D02*
Y70394D01*
X91981Y63701D02*
Y70394D01*
X78185Y63701D02*
X81926D01*
X78185Y70394D02*
X81926D01*
X78185Y63701D02*
Y70394D01*
X81926Y63701D02*
Y70394D01*
X68130Y63701D02*
X71870D01*
X68130Y70394D02*
X71870D01*
X68130Y63701D02*
Y70394D01*
X71870Y63701D02*
Y70394D01*
X29874Y38157D02*
Y57842D01*
X14126Y38157D02*
Y57842D01*
Y38157D02*
X29874D01*
X14126Y57842D02*
X29874D01*
X41201Y31370D02*
X47894D01*
X41201Y27630D02*
X47894D01*
X41201D02*
Y31370D01*
X47894Y27630D02*
Y31370D01*
X10122Y34543D02*
X23508D01*
X10122Y27457D02*
X23508D01*
X10122D02*
Y34543D01*
X23508Y27457D02*
Y34543D01*
X48102Y63622D02*
X53024D01*
X48102D02*
Y71496D01*
X53024D01*
Y63622D02*
Y71496D01*
X50465Y63622D02*
X53024Y66181D01*
X28992Y101457D02*
X42378D01*
X28992Y108543D02*
X42378D01*
Y101457D02*
Y108543D01*
X28992Y101457D02*
Y108543D01*
X112992Y33126D02*
Y48874D01*
X67323D02*
X112992D01*
X67323Y33126D02*
Y48874D01*
Y33126D02*
X112992D01*
X188154Y32130D02*
Y35870D01*
X194846Y32130D02*
Y35870D01*
X188154D02*
X194846D01*
X188154Y32130D02*
X194846D01*
X200122Y28957D02*
X213508D01*
X200122Y36043D02*
X213508D01*
Y28957D02*
Y36043D01*
X200122Y28957D02*
Y36043D01*
X108352Y70394D02*
X112092D01*
X108352Y63701D02*
X112092D01*
Y70394D01*
X108352Y63701D02*
Y70394D01*
X256394Y41130D02*
Y44870D01*
X249701Y41130D02*
Y44870D01*
Y41130D02*
X256394D01*
X249701Y44870D02*
X256394D01*
X247630Y27106D02*
X251370D01*
X247630Y33799D02*
X251370D01*
X247630Y27106D02*
Y33799D01*
X251370Y27106D02*
Y33799D01*
X240630Y27201D02*
X244370D01*
X240630Y33894D02*
X244370D01*
X240630Y27201D02*
Y33894D01*
X244370Y27201D02*
Y33894D01*
X281394Y38130D02*
Y41870D01*
X274701Y38130D02*
Y41870D01*
Y38130D02*
X281394D01*
X274701Y41870D02*
X281394D01*
X118408Y63701D02*
X122148D01*
X118408Y70394D02*
X122148D01*
X118408Y63701D02*
Y70394D01*
X122148Y63701D02*
Y70394D01*
X281394Y43630D02*
Y47370D01*
X274701Y43630D02*
Y47370D01*
Y43630D02*
X281394D01*
X274701Y47370D02*
X281394D01*
X262130Y27512D02*
X265870D01*
X262130Y34205D02*
X265870D01*
X262130Y27512D02*
Y34205D01*
X265870Y27512D02*
Y34205D01*
X269130Y27606D02*
X272870D01*
X269130Y34299D02*
X272870D01*
X269130Y27606D02*
Y34299D01*
X272870Y27606D02*
Y34299D01*
X213370Y42654D02*
Y49347D01*
X209630Y42654D02*
Y49347D01*
X213370D01*
X209630Y42654D02*
X213370D01*
D12*
X49114Y107197D02*
X100886D01*
X49114D02*
Y141724D01*
X100886D01*
Y107197D02*
Y141724D01*
X303224Y62512D02*
Y124126D01*
X281295D02*
X303224D01*
X281295Y62512D02*
Y124126D01*
Y62512D02*
X303224D01*
X110114Y107008D02*
X185508D01*
X110114D02*
Y141535D01*
X185508D01*
Y107008D02*
Y141535D01*
X262024Y107295D02*
Y129224D01*
X200409Y107295D02*
X262024D01*
X200409D02*
Y129224D01*
X262024D01*
D15*
X257457Y63386D02*
X264543D01*
X257457Y50000D02*
X264543D01*
Y63386D01*
X257457Y50000D02*
Y63386D01*
M02*
