M48
;Layer_Color=9474304
;FILE_FORMAT=2:3
INCH,LZ
;TYPE=PLATED
T1F00S00C0.028
T2F00S00C0.035
T3F00S00C0.040
T4F00S00C0.125
;TYPE=NON_PLATED
T5F00S00C0.118
%
T01
X00525Y00625
X0084Y0066
X0086Y0045
X0038Y0091
X0094Y0064
X01212Y0065
X0116Y0073
X0126Y0055
X01075Y00475
X0115Y0035
X0109Y0029
X01375Y00285
X01525
X0175Y0035
X017Y007
X02272Y0041
T02
X025Y002
X026
X027
X024
X023
X022
X021
X02
X019
X018
X017
X016
X015
X014
X013
X012
X011
X01
X009
X008
X007
X006
X005
X004
Y008
X005
X006
X007
X008
X00375Y01125
X00275
X009Y008
X01
X011
X012
X013
X014
X015
X016
X017
X018
X019
X02
X021
X022
X023
X024
X025
X026
X027
T03
X00664Y01
Y01118
X00782
Y01
X009
Y01118
X01264
X01382
Y01
X01264
X015
Y01118
X01864
X01982
Y01
X01864
X021
Y01118
X02464
X02582
Y01
X02464
X027
Y01118
T04
X02975Y00125
X00125
Y01375
X02975
T05
X00782Y01288
X01382
X01982
X02582
M30
