M48
;Layer_Color=9474304
;FILE_FORMAT=2:5
INCH,TZ
;TYPE=PLATED
T1F00S00C0.02800
T2F00S00C0.03543
T3F00S00C0.03937
T4F00S00C0.04213
T5F00S00C0.12500
;TYPE=NON_PLATED
T6F00S00C0.04213
T7F00S00C0.09685
%
T01
X108500Y41000
X127000Y53500
X165000Y54500
X178000
X218500Y43000
X229000Y43500
X256500Y31000
X279500Y22500
X288000Y54500
X245000Y56500
X234000Y57000
X238500Y67000
X249000Y66500
X227000
X219500Y71000
X228500Y93500
X255000Y93000
X207500Y58000
X190000Y69000
X166000Y102500
X159000Y96000
X136000
X142000Y103000
X129000Y110000
X120000Y92500
X115000Y64000
T02
X40000Y20000
X50000
X60000
X70000
X80000
X90000
X100000
X110000
X120000
X130000
X140000
X150000
X160000
X170000
X180000
X190000
X200000
X210000
X220000
X230000
X240000
X250000
X260000
X270000
Y80000
X260000
X250000
X240000
X230000
X220000
X210000
X200000
X190000
X180000
X170000
X160000
X150000
X140000
X130000
X120000
X110000
X100000
X90000
X80000
X70000
X60000
X50000
X40000
Y120000
X30000
T03
X80315Y41000
X90158
X100000
X132500
X142342
X152185
T04
X213500Y119500
X225311
X237122
X248933
X293500Y111035
Y99224
Y87413
Y75602
X171433Y120000
Y131811
X159622
X147811
Y120000
X159622
X136000
Y131811
X124189
Y120000
X86811Y120189
Y132000
X75000
X63189
Y120189
X75000
T05
X12500Y12500
X297500
Y137500
X12500
T06
X98622Y116488
X112378Y116299
X183244
X51378Y116488
T07
X293500Y67138
Y119500
X257398
X205035
M30
