G04*
G04 #@! TF.GenerationSoftware,Altium Limited,Altium Designer,21.6.4 (81)*
G04*
G04 Layer_Physical_Order=1*
G04 Layer_Color=255*
%FSLAX25Y25*%
%MOIN*%
G70*
G04*
G04 #@! TF.SameCoordinates,97392813-CCE2-4223-8130-4091A0700721*
G04*
G04*
G04 #@! TF.FilePolarity,Positive*
G04*
G01*
G75*
%ADD16R,0.03543X0.02756*%
%ADD17R,0.02362X0.04331*%
%ADD18R,0.00906X0.01378*%
%ADD19R,0.01378X0.00906*%
%ADD20R,0.03197X0.02985*%
%ADD21R,0.07165X0.04567*%
%ADD22R,0.03543X0.02953*%
G04:AMPARAMS|DCode=23|XSize=23.62mil|YSize=57.09mil|CornerRadius=2.01mil|HoleSize=0mil|Usage=FLASHONLY|Rotation=270.000|XOffset=0mil|YOffset=0mil|HoleType=Round|Shape=RoundedRectangle|*
%AMROUNDEDRECTD23*
21,1,0.02362,0.05307,0,0,270.0*
21,1,0.01961,0.05709,0,0,270.0*
1,1,0.00402,-0.02653,-0.00980*
1,1,0.00402,-0.02653,0.00980*
1,1,0.00402,0.02653,0.00980*
1,1,0.00402,0.02653,-0.00980*
%
%ADD23ROUNDEDRECTD23*%
%ADD24R,0.02756X0.03543*%
%ADD25R,0.04331X0.06693*%
%ADD26R,0.03937X0.05906*%
%ADD27R,0.04156X0.06528*%
%ADD28R,0.04528X0.02165*%
%ADD47C,0.02000*%
%ADD48C,0.01000*%
%ADD49C,0.03000*%
%ADD50C,0.06319*%
%ADD51C,0.02106*%
%ADD52R,0.06319X0.06319*%
%ADD53C,0.04842*%
%ADD54R,0.05906X0.05906*%
%ADD55C,0.05906*%
%ADD56C,0.06000*%
%ADD57R,0.06319X0.06319*%
%ADD58C,0.05000*%
D16*
X182500Y42595D02*
D03*
Y48500D02*
D03*
X171000Y48453D02*
D03*
Y42547D02*
D03*
X160500Y70000D02*
D03*
Y64095D02*
D03*
X150444Y70000D02*
D03*
Y64095D02*
D03*
X140389Y70000D02*
D03*
Y64095D02*
D03*
X130333Y70000D02*
D03*
Y64095D02*
D03*
X100167D02*
D03*
Y70000D02*
D03*
X90111Y64095D02*
D03*
Y70000D02*
D03*
X80056Y64095D02*
D03*
Y70000D02*
D03*
X70000Y64095D02*
D03*
Y70000D02*
D03*
X110222D02*
D03*
Y64095D02*
D03*
X249500Y27500D02*
D03*
Y33406D02*
D03*
X242500Y27595D02*
D03*
Y33500D02*
D03*
X120278Y64095D02*
D03*
Y70000D02*
D03*
X264000Y27905D02*
D03*
Y33811D02*
D03*
X271000Y28000D02*
D03*
Y33906D02*
D03*
X211500Y48953D02*
D03*
Y43047D02*
D03*
D17*
X203882Y51331D02*
D03*
Y42669D02*
D03*
X198961Y51331D02*
D03*
Y42669D02*
D03*
X194039D02*
D03*
Y51331D02*
D03*
X189118D02*
D03*
Y42669D02*
D03*
D18*
X238075Y51579D02*
D03*
X239768D02*
D03*
X241461D02*
D03*
X243154D02*
D03*
X244847D02*
D03*
X246539D02*
D03*
X248232D02*
D03*
X249925D02*
D03*
Y61421D02*
D03*
X248232D02*
D03*
X246539D02*
D03*
X244847D02*
D03*
X243154D02*
D03*
X241461D02*
D03*
X239768D02*
D03*
X238075D02*
D03*
D19*
Y53961D02*
D03*
Y55654D02*
D03*
Y57346D02*
D03*
X249925Y53961D02*
D03*
Y55654D02*
D03*
Y57346D02*
D03*
Y59039D02*
D03*
X238075D02*
D03*
D20*
X213000Y67469D02*
D03*
Y62532D02*
D03*
D21*
X261000Y50886D02*
D03*
Y62500D02*
D03*
D22*
X271500Y59500D02*
D03*
Y54776D02*
D03*
X280500Y59500D02*
D03*
Y54776D02*
D03*
X225000Y55138D02*
D03*
Y59862D02*
D03*
D23*
X32728Y40500D02*
D03*
Y45500D02*
D03*
Y50500D02*
D03*
Y55500D02*
D03*
X11272Y40500D02*
D03*
Y45500D02*
D03*
Y50500D02*
D03*
Y55500D02*
D03*
D24*
X41594Y29500D02*
D03*
X47500D02*
D03*
X188547Y34000D02*
D03*
X194453D02*
D03*
X256000Y43000D02*
D03*
X250095D02*
D03*
X281000Y40000D02*
D03*
X275095D02*
D03*
X281000Y45500D02*
D03*
X275095D02*
D03*
D25*
X11500Y31000D02*
D03*
X22130D02*
D03*
X41000Y105000D02*
D03*
X30370D02*
D03*
X212130Y32500D02*
D03*
X201500D02*
D03*
D26*
X56098Y51000D02*
D03*
X43500D02*
D03*
D27*
X27623Y64500D02*
D03*
X17377D02*
D03*
D28*
X54500Y65000D02*
D03*
Y70118D02*
D03*
X46626Y67559D02*
D03*
D47*
X48000Y105000D02*
X69095Y126094D01*
X41000Y105000D02*
X48000D01*
X41000Y100500D02*
Y105000D01*
X80905Y126094D02*
X86765Y131955D01*
X11272Y50500D02*
Y62272D01*
X13500Y64500D01*
X17377Y76877D02*
X41000Y100500D01*
X17377Y64500D02*
Y76877D01*
X13500Y64500D02*
X17377D01*
X69095Y126094D02*
X80905D01*
D48*
X90500Y92500D02*
X95000Y97000D01*
Y126000D02*
X116000Y147000D01*
X95000Y97000D02*
Y126000D01*
X91500Y137500D02*
X93000Y136000D01*
X91500Y99000D02*
X93000Y100500D01*
Y136000D01*
X75000Y132000D02*
X80500Y137500D01*
X86776Y132000D02*
X86811D01*
X86765Y131955D02*
Y131989D01*
X86776Y132000D01*
X236311Y130500D02*
X265500D01*
X284965Y111035D01*
X225311Y119500D02*
X236311Y130500D01*
X170606Y48453D02*
X171000D01*
X165000Y54059D02*
X170606Y48453D01*
X165000Y54059D02*
Y54500D01*
X171000Y56000D02*
X173500Y58500D01*
X171000Y48453D02*
Y56000D01*
X173500Y58500D02*
X180500D01*
X186004Y52996D01*
X189118Y51331D02*
Y52315D01*
X188437Y52996D02*
X189118Y52315D01*
X186004Y52996D02*
X188437D01*
X181228Y49378D02*
Y51272D01*
X182106Y48500D02*
X182500D01*
X181228Y49378D02*
X182106Y48500D01*
X178000Y54500D02*
X181228Y51272D01*
X186043Y48500D02*
X187543Y47000D01*
X190693D01*
X182500Y48500D02*
X186043D01*
X194039Y50346D02*
Y51331D01*
X190693Y47000D02*
X194039Y50346D01*
X234587Y87413D02*
X293500D01*
X228500Y93500D02*
X234587Y87413D01*
X297000Y93000D02*
X302000Y88000D01*
X255000Y93000D02*
X297000D01*
X302000Y84102D02*
Y88000D01*
X293500Y75602D02*
X302000Y84102D01*
X190000Y69000D02*
Y80000D01*
X126500Y53000D02*
X127000Y53500D01*
X100500Y53000D02*
X126500D01*
X95000Y47500D02*
X100500Y53000D01*
X92500Y35500D02*
X95000Y38000D01*
Y47500D01*
X89500Y35500D02*
X92500D01*
X83500Y29500D02*
X89500Y35500D01*
X120000Y84500D02*
X129000Y93500D01*
X120000Y70278D02*
Y84500D01*
X129000Y93500D02*
Y110000D01*
X119235Y89235D02*
Y91735D01*
X120000Y92500D01*
X110000Y80000D02*
X119235Y89235D01*
X244586Y127000D02*
X260500D01*
X240944Y123358D02*
X244586Y127000D01*
X260500D02*
X266000Y121500D01*
X255000Y103500D02*
X266000Y114500D01*
Y121500D01*
X237122Y119500D02*
X240944Y123322D01*
Y123358D01*
X255000Y93000D02*
Y103500D01*
X248758Y113758D02*
Y119325D01*
X248933Y119500D01*
X228500Y93500D02*
X248758Y113758D01*
X170000Y42669D02*
X172500D01*
X186500D02*
X189118D01*
X160000Y60500D02*
X204343D01*
X147000Y47500D02*
X160000Y60500D01*
X236961Y53961D02*
X238075D01*
X234500Y41106D02*
Y51500D01*
X236961Y53961D01*
X243071Y55654D02*
X243918Y56500D01*
X245000D01*
X238075Y55654D02*
X243071D01*
X234394Y57000D02*
X236434Y59039D01*
X238075D01*
X234000Y57000D02*
X234394D01*
X229000Y43500D02*
X229765Y44265D01*
Y45851D01*
X230000Y58500D02*
X234500Y63000D01*
X229765Y45851D02*
X230000Y46086D01*
Y58500D01*
X213106Y62532D02*
X218469Y57169D01*
X219795Y55842D01*
X218469Y43031D02*
Y57169D01*
X219795Y55842D02*
X224295D01*
X225000Y55138D01*
X213000Y62532D02*
X213106D01*
X215968Y67469D02*
X219500Y71000D01*
X213000Y67469D02*
X215968D01*
X271000Y28000D02*
X274000D01*
X279500Y22500D01*
X270792Y33858D02*
X270872Y33778D01*
X264047Y33858D02*
X270792D01*
X264000Y33811D02*
X264047Y33858D01*
X270872Y33778D02*
X271000Y33906D01*
X261314Y36103D02*
X263606Y33811D01*
X264000D01*
X244634Y36103D02*
X261314D01*
X253135Y28000D02*
X256135Y31000D01*
X249500Y28000D02*
X253135D01*
X249406Y33500D02*
X249500Y33406D01*
X242500Y33500D02*
X249406D01*
X234500Y41106D02*
X241653Y33953D01*
X238075Y42663D02*
X244634Y36103D01*
X238075Y42663D02*
Y51579D01*
X239768Y43232D02*
X245272Y37728D01*
X270151D01*
X239768Y43232D02*
Y51579D01*
X256135Y31000D02*
X256500D01*
X241461Y44539D02*
X246272Y39728D01*
X269323D01*
X273823Y44228D01*
X281000Y37000D02*
Y40000D01*
X275000Y31000D02*
X281000Y37000D01*
X267488Y31000D02*
X275000D01*
X264394Y27905D02*
X267488Y31000D01*
X264000Y27905D02*
X264394D01*
X281000Y40000D02*
Y45500D01*
Y45894D02*
X281878Y46772D01*
X282272D01*
X284500Y49000D02*
X290000D01*
X281000Y45500D02*
Y45894D01*
X282272Y46772D02*
X284500Y49000D01*
X290000D02*
X293000Y52000D01*
Y56500D01*
X290000Y59500D02*
X293000Y56500D01*
X280500Y59500D02*
X290000D01*
X280638Y54638D02*
X287862D01*
X288000Y54500D01*
X280500Y54776D02*
X280638Y54638D01*
X234500Y63000D02*
Y65000D01*
X225000Y63418D02*
X227000Y65418D01*
X225000Y59862D02*
Y63418D01*
X227000Y65418D02*
Y66500D01*
X43799Y51000D02*
Y51531D01*
X229765Y40435D02*
X242106Y28095D01*
X229000Y43500D02*
X229765Y42735D01*
X242106Y28095D02*
X242500D01*
X229765Y40435D02*
Y42735D01*
X47500Y29500D02*
X83500D01*
X205000Y82500D02*
X225311Y102811D01*
Y119500D01*
X205000Y72500D02*
Y82500D01*
X196595Y64095D02*
X205000Y72500D01*
X160500Y64095D02*
X196595D01*
X234500Y70000D02*
X236000Y71500D01*
X234500Y65000D02*
Y70000D01*
Y65000D02*
X234569Y65069D01*
X238075Y61563D01*
Y61421D02*
Y61563D01*
X204343Y60500D02*
X206843Y58000D01*
X207500D01*
X218314Y43186D02*
X218500Y43000D01*
X211639Y43186D02*
X218314D01*
X211500Y43047D02*
X211639Y43186D01*
X261000Y62500D02*
X262000Y63500D01*
X267205D02*
X271205Y59500D01*
X262000Y63500D02*
X267205D01*
X257500Y72500D02*
X261000Y69000D01*
Y62500D02*
Y69000D01*
X246500Y71500D02*
X247500Y72500D01*
X239126Y57394D02*
X241461Y59728D01*
Y61421D01*
X238122Y57394D02*
X239126D01*
X238075Y57346D02*
X238122Y57394D01*
X243000Y68000D02*
X246500Y71500D01*
X236000D02*
X246500D01*
X238753Y63596D02*
X239768Y62582D01*
X238500Y67000D02*
X238753Y66747D01*
X239768Y61421D02*
Y62582D01*
X238753Y63596D02*
Y66747D01*
X245516Y65735D02*
X248235D01*
X249000Y66500D01*
X244847Y65065D02*
X245516Y65735D01*
X244847Y61421D02*
Y65065D01*
X183000Y42669D02*
X186500D01*
X172500D02*
X180000D01*
X183000D01*
X190000Y30000D02*
X199835D01*
X188686Y31314D02*
X190000Y30000D01*
X201500Y31665D02*
Y32500D01*
X199835Y30000D02*
X201500Y31665D01*
X188686Y31314D02*
Y33861D01*
X188547Y34000D02*
X188686Y33861D01*
X163669Y42669D02*
X170000D01*
X188833Y33845D02*
Y42384D01*
X188594Y33606D02*
X188833Y33845D01*
Y42384D02*
X189118Y42669D01*
X162000Y41000D02*
X163669Y42669D01*
X152185Y41000D02*
X162000D01*
X147000Y38000D02*
Y47500D01*
X144000Y35000D02*
X147000Y38000D01*
X125500Y35000D02*
X144000D01*
X119500Y41000D02*
X125500Y35000D01*
X108500Y41000D02*
X119500D01*
X165500Y102000D02*
X166000Y102500D01*
X160000Y70500D02*
Y80000D01*
X165500Y92500D02*
Y102000D01*
X160000Y80000D02*
Y87000D01*
X165500Y92500D01*
X150000Y85500D02*
X158235Y93735D01*
Y95235D02*
X159000Y96000D01*
X150000Y70000D02*
Y85500D01*
X158235Y93735D02*
Y95235D01*
X136000Y96000D02*
Y120000D01*
X142000Y103000D02*
Y125811D01*
X136000Y131811D02*
X142000Y125811D01*
X165000Y147000D02*
X177500Y134500D01*
Y126067D02*
Y134500D01*
X171433Y120000D02*
X177500Y126067D01*
X104000Y130000D02*
X118000Y144000D01*
X92259Y89259D02*
X104000Y101000D01*
Y130000D01*
X70000Y80000D02*
X82500Y92500D01*
X90500D01*
X116000Y147000D02*
X165000D01*
X89259Y89259D02*
X92259D01*
X80000Y80000D02*
X89259Y89259D01*
X80000Y70056D02*
Y80000D01*
X118000Y144000D02*
X162500D01*
X170415Y136085D01*
Y132829D02*
Y136085D01*
Y132829D02*
X171433Y131811D01*
X107500Y97500D02*
Y129000D01*
X119500Y141000D01*
X90000Y80000D02*
X107500Y97500D01*
X117500Y135000D02*
X121000Y138500D01*
X117500Y97500D02*
Y135000D01*
X100000Y80000D02*
X117500Y97500D01*
X159622Y120622D02*
X160244D01*
X119500Y141000D02*
X160000D01*
X165500Y135500D01*
Y125878D02*
Y135500D01*
X160244Y120622D02*
X165500Y125878D01*
X159622Y120000D02*
Y120622D01*
X121000Y138500D02*
X152933D01*
X159622Y131811D01*
X148795Y128205D02*
X153500Y123500D01*
Y93500D02*
Y123500D01*
X140000Y80000D02*
X153500Y93500D01*
X148795Y128205D02*
Y130827D01*
X147811Y131811D02*
X148795Y130827D01*
X130000Y80000D02*
X147811Y97811D01*
Y120000D01*
X46500Y99000D02*
X91500D01*
X22500Y75000D02*
X46500Y99000D01*
X22500Y51500D02*
Y75000D01*
Y51500D02*
X31000Y60000D01*
X16500Y45500D02*
X22500Y51500D01*
X90158Y41000D02*
Y64048D01*
X100294Y61706D02*
Y64095D01*
X90111D02*
X90158Y64048D01*
X130727Y64095D02*
X140389D01*
X130727D02*
X142342Y52479D01*
X130333Y64095D02*
X130727D01*
X142342Y41000D02*
Y52479D01*
X160000Y70500D02*
X160500Y70000D01*
X150000D02*
X150444D01*
X140000Y70389D02*
Y80000D01*
Y70389D02*
X140389Y70000D01*
X130000Y70333D02*
Y80000D01*
Y70333D02*
X130333Y70000D01*
X120000Y70278D02*
X120278Y70000D01*
X110000Y70222D02*
Y80000D01*
Y70222D02*
X110222Y70000D01*
X100000Y70167D02*
Y80000D01*
Y70167D02*
X100167Y70000D01*
X90000Y70111D02*
Y80000D01*
Y70111D02*
X90111Y70000D01*
X80000Y70056D02*
X80056Y70000D01*
X70000D02*
Y80000D01*
X100000Y41000D02*
X108500D01*
X100167Y64095D02*
X100294D01*
X90111D02*
X100167D01*
X50586Y39946D02*
X59946D01*
X50000Y40532D02*
Y53000D01*
Y40532D02*
X50586Y39946D01*
X46000Y57000D02*
X50000Y53000D01*
X59946Y39946D02*
X63000Y43000D01*
Y61000D01*
X129802Y63564D02*
X130333Y64095D01*
X129802Y61802D02*
Y63564D01*
X103500Y58500D02*
X126500D01*
X129802Y61802D01*
X100294Y61706D02*
X103500Y58500D01*
X115047Y64047D02*
X120230D01*
X115000Y64000D02*
X115047Y64047D01*
X120230D02*
X120278Y64095D01*
X110269Y64047D02*
X114953D01*
X110222Y64095D02*
X110269Y64047D01*
X114953D02*
X115000Y64000D01*
X150444Y64095D02*
X160500D01*
X140389D02*
X150444D01*
X80056D02*
X90111D01*
X70000D02*
X80056D01*
X66094D02*
X70000D01*
X63000Y61000D02*
X66094Y64095D01*
X54657Y65000D02*
X55133Y64524D01*
Y54867D02*
Y64524D01*
X54500Y65000D02*
X54657D01*
X46626Y67559D02*
Y73374D01*
X40000Y80000D02*
X46626Y73374D01*
X27623Y64500D02*
X37500D01*
X49500Y60500D02*
X55133Y54867D01*
X37500Y64500D02*
X41500Y60500D01*
X49500D01*
X55133Y51965D02*
X56098Y51000D01*
X55133Y51965D02*
Y54867D01*
X29000Y31000D02*
X40000Y20000D01*
X22130Y31000D02*
X29000D01*
X11272Y31228D02*
Y40500D01*
Y45500D01*
Y31228D02*
X11500Y31000D01*
X11272Y45500D02*
X16500D01*
X22130Y31000D02*
Y41575D01*
X31055Y50500D01*
X32728D01*
Y55500D01*
Y45500D02*
X32776Y45453D01*
X32728Y45500D02*
X34402D01*
X32728Y50500D02*
X43000D01*
X34402Y45500D02*
X41594Y38307D01*
Y29500D02*
Y38307D01*
X42331Y53000D02*
X43799Y51531D01*
X43000Y50500D02*
X43500Y51000D01*
X31000Y60000D02*
X37000D01*
X40000Y57000D01*
X46000D01*
X284965Y111035D02*
X293500D01*
X272423Y40000D02*
X275095D01*
X270151Y37728D02*
X272423Y40000D01*
X274217Y44228D02*
X275095Y45106D01*
X273823Y44228D02*
X274217D01*
X275095Y45106D02*
Y45500D01*
X241461Y44539D02*
Y51579D01*
X247500Y72500D02*
X257500D01*
X243000Y61575D02*
X243154Y61421D01*
X243000Y61575D02*
Y68000D01*
X270886Y50886D02*
X271500Y51500D01*
X261000Y50886D02*
X270886D01*
X271500Y51500D02*
Y54776D01*
X280500D01*
X271500Y59500D02*
X280500D01*
X271205D02*
X271500D01*
X256000Y47185D02*
X259701Y50886D01*
X261000D01*
X256000Y43000D02*
Y47185D01*
X250095Y43000D02*
Y51410D01*
X252346Y55654D02*
X255331Y52669D01*
X249925Y55654D02*
X252346D01*
X259216Y52669D02*
X261000Y50886D01*
X255331Y52669D02*
X259216D01*
X242790Y61468D02*
X242861Y61540D01*
X241461Y61421D02*
X241508Y61468D01*
X242790D01*
X246539Y61421D02*
X248232D01*
X249925Y53961D02*
Y55654D01*
Y57346D01*
Y59039D01*
Y61421D01*
X248232D02*
X249925D01*
X211500Y33130D02*
X212130Y32500D01*
X211500Y33130D02*
Y43047D01*
X198961Y41685D02*
X202646Y38000D01*
X206059D02*
X211106Y43047D01*
X202646Y38000D02*
X206059D01*
X211106Y43047D02*
X211500D01*
X198961Y41685D02*
Y42669D01*
X211106Y48953D02*
X211500D01*
X203882Y51331D02*
X208728D01*
X211106Y48953D01*
X203882Y42669D02*
Y51331D01*
X194039Y42669D02*
X194270Y42439D01*
Y34230D02*
X194500Y34000D01*
X194270Y34230D02*
Y42439D01*
X80500Y137500D02*
X91500D01*
X30535Y105165D02*
Y110535D01*
X30370Y105000D02*
X30535Y105165D01*
Y110535D02*
X40000Y120000D01*
D49*
X42000Y132000D02*
X63189D01*
X30000Y120000D02*
X42000Y132000D01*
D50*
X63189D02*
D03*
X75000D02*
D03*
X86811D02*
D03*
X63189Y120189D02*
D03*
X75000D02*
D03*
X86811D02*
D03*
X293500Y99224D02*
D03*
Y87413D02*
D03*
Y75602D02*
D03*
X124189Y131811D02*
D03*
X136000D02*
D03*
X147811D02*
D03*
X159622D02*
D03*
X171433D02*
D03*
X124189Y120000D02*
D03*
X136000D02*
D03*
X147811D02*
D03*
X159622D02*
D03*
X171433D02*
D03*
X248933Y119500D02*
D03*
X237122D02*
D03*
X225311D02*
D03*
D51*
X51378Y116488D02*
D03*
X98622D02*
D03*
X183244Y116299D02*
D03*
X112378D02*
D03*
D52*
X293500Y111035D02*
D03*
D53*
Y119500D02*
D03*
Y67138D02*
D03*
X257398Y119500D02*
D03*
X205035D02*
D03*
D54*
X40000Y120000D02*
D03*
X152185Y41000D02*
D03*
X40000Y20000D02*
D03*
X100000Y41000D02*
D03*
X40000Y80000D02*
D03*
D55*
X30000Y120000D02*
D03*
X142342Y41000D02*
D03*
X132500D02*
D03*
X270000Y20000D02*
D03*
X260000D02*
D03*
X250000D02*
D03*
X240000D02*
D03*
X230000D02*
D03*
X220000D02*
D03*
X210000D02*
D03*
X200000D02*
D03*
X190000D02*
D03*
X180000D02*
D03*
X170000D02*
D03*
X160000D02*
D03*
X150000D02*
D03*
X140000D02*
D03*
X130000D02*
D03*
X120000D02*
D03*
X110000D02*
D03*
X100000D02*
D03*
X90000D02*
D03*
X80000D02*
D03*
X70000D02*
D03*
X60000D02*
D03*
X50000D02*
D03*
X80315Y41000D02*
D03*
X90158D02*
D03*
X50000Y80000D02*
D03*
X60000D02*
D03*
X70000D02*
D03*
X80000D02*
D03*
X90000D02*
D03*
X100000D02*
D03*
X110000D02*
D03*
X120000D02*
D03*
X130000D02*
D03*
X140000D02*
D03*
X150000D02*
D03*
X160000D02*
D03*
X170000D02*
D03*
X180000D02*
D03*
X190000D02*
D03*
X200000D02*
D03*
X210000D02*
D03*
X220000D02*
D03*
X230000D02*
D03*
X240000D02*
D03*
X250000D02*
D03*
X260000D02*
D03*
X270000D02*
D03*
D56*
X297500Y12500D02*
D03*
Y137500D02*
D03*
X12500D02*
D03*
Y12500D02*
D03*
D57*
X213500Y119500D02*
D03*
D58*
X178000Y54500D02*
D03*
X165000D02*
D03*
X127000Y53500D02*
D03*
X190000Y69000D02*
D03*
X129000Y110000D02*
D03*
X120000Y92500D02*
D03*
X255000Y93000D02*
D03*
X228500Y93500D02*
D03*
X245000Y56500D02*
D03*
X234000Y57000D02*
D03*
X219500Y71000D02*
D03*
X279500Y22500D02*
D03*
X256500Y31000D02*
D03*
X288000Y54500D02*
D03*
X229000Y43500D02*
D03*
X207500Y58000D02*
D03*
X218500Y43000D02*
D03*
X227000Y66500D02*
D03*
X238500Y67000D02*
D03*
X249000Y66500D02*
D03*
X166000Y102500D02*
D03*
X142000Y103000D02*
D03*
X159000Y96000D02*
D03*
X136000D02*
D03*
X108500Y41000D02*
D03*
X115000Y64000D02*
D03*
M02*
