G04*
G04 #@! TF.GenerationSoftware,Altium Limited,Altium Designer,21.6.4 (81)*
G04*
G04 Layer_Color=8388736*
%FSLAX25Y25*%
%MOIN*%
G70*
G04*
G04 #@! TF.SameCoordinates,97392813-CCE2-4223-8130-4091A0700721*
G04*
G04*
G04 #@! TF.FilePolarity,Negative*
G04*
G01*
G75*
%ADD20R,0.03197X0.02985*%
%ADD22R,0.03543X0.02953*%
%ADD26R,0.03937X0.05906*%
%ADD27R,0.04156X0.06528*%
%ADD29R,0.04343X0.03556*%
%ADD30R,0.03162X0.05131*%
%ADD31R,0.01299X0.01772*%
%ADD32R,0.01772X0.01299*%
%ADD33R,0.07965X0.05367*%
G04:AMPARAMS|DCode=34|XSize=31.62mil|YSize=65.09mil|CornerRadius=6.01mil|HoleSize=0mil|Usage=FLASHONLY|Rotation=270.000|XOffset=0mil|YOffset=0mil|HoleType=Round|Shape=RoundedRectangle|*
%AMROUNDEDRECTD34*
21,1,0.03162,0.05307,0,0,270.0*
21,1,0.01961,0.06509,0,0,270.0*
1,1,0.01202,-0.02653,-0.00980*
1,1,0.01202,-0.02653,0.00980*
1,1,0.01202,0.02653,0.00980*
1,1,0.01202,0.02653,-0.00980*
%
%ADD34ROUNDEDRECTD34*%
%ADD35R,0.03556X0.04343*%
%ADD36R,0.05131X0.07493*%
%ADD37R,0.05328X0.02965*%
%ADD38C,0.07119*%
%ADD39C,0.02906*%
%ADD40R,0.07119X0.07119*%
%ADD41C,0.05642*%
%ADD42R,0.06706X0.06706*%
%ADD43C,0.06706*%
%ADD44C,0.06800*%
%ADD45R,0.07119X0.07119*%
%ADD46C,0.05800*%
D20*
X213000Y67469D02*
D03*
Y62532D02*
D03*
D22*
X271500Y59500D02*
D03*
Y54776D02*
D03*
X280500Y59500D02*
D03*
Y54776D02*
D03*
X225000Y55138D02*
D03*
Y59862D02*
D03*
D26*
X56098Y51000D02*
D03*
X43500D02*
D03*
D27*
X27623Y64500D02*
D03*
X17377D02*
D03*
D29*
X182500Y42595D02*
D03*
Y48500D02*
D03*
X171000Y48453D02*
D03*
Y42547D02*
D03*
X160500Y70000D02*
D03*
Y64095D02*
D03*
X150444Y70000D02*
D03*
Y64095D02*
D03*
X140389Y70000D02*
D03*
Y64095D02*
D03*
X130333Y70000D02*
D03*
Y64095D02*
D03*
X100167D02*
D03*
Y70000D02*
D03*
X90111Y64095D02*
D03*
Y70000D02*
D03*
X80056Y64095D02*
D03*
Y70000D02*
D03*
X70000Y64095D02*
D03*
Y70000D02*
D03*
X110222D02*
D03*
Y64095D02*
D03*
X249500Y27500D02*
D03*
Y33406D02*
D03*
X242500Y27595D02*
D03*
Y33500D02*
D03*
X120278Y64095D02*
D03*
Y70000D02*
D03*
X264000Y27905D02*
D03*
Y33811D02*
D03*
X271000Y28000D02*
D03*
Y33906D02*
D03*
X211500Y48953D02*
D03*
Y43047D02*
D03*
D30*
X203882Y51331D02*
D03*
Y42669D02*
D03*
X198961Y51331D02*
D03*
Y42669D02*
D03*
X194039D02*
D03*
Y51331D02*
D03*
X189118D02*
D03*
Y42669D02*
D03*
D31*
X238075Y51579D02*
D03*
X239768D02*
D03*
X241461D02*
D03*
X243154D02*
D03*
X244847D02*
D03*
X246539D02*
D03*
X248232D02*
D03*
X249925D02*
D03*
Y61421D02*
D03*
X248232D02*
D03*
X246539D02*
D03*
X244847D02*
D03*
X243154D02*
D03*
X241461D02*
D03*
X239768D02*
D03*
X238075D02*
D03*
D32*
Y53961D02*
D03*
Y55654D02*
D03*
Y57346D02*
D03*
X249925Y53961D02*
D03*
Y55654D02*
D03*
Y57346D02*
D03*
Y59039D02*
D03*
X238075D02*
D03*
D33*
X261000Y50886D02*
D03*
Y62500D02*
D03*
D34*
X32728Y40500D02*
D03*
Y45500D02*
D03*
Y50500D02*
D03*
Y55500D02*
D03*
X11272Y40500D02*
D03*
Y45500D02*
D03*
Y50500D02*
D03*
Y55500D02*
D03*
D35*
X41594Y29500D02*
D03*
X47500D02*
D03*
X188547Y34000D02*
D03*
X194453D02*
D03*
X256000Y43000D02*
D03*
X250095D02*
D03*
X281000Y40000D02*
D03*
X275095D02*
D03*
X281000Y45500D02*
D03*
X275095D02*
D03*
D36*
X11500Y31000D02*
D03*
X22130D02*
D03*
X41000Y105000D02*
D03*
X30370D02*
D03*
X212130Y32500D02*
D03*
X201500D02*
D03*
D37*
X54500Y65000D02*
D03*
Y70118D02*
D03*
X46626Y67559D02*
D03*
D38*
X63189Y132000D02*
D03*
X75000D02*
D03*
X86811D02*
D03*
X63189Y120189D02*
D03*
X75000D02*
D03*
X86811D02*
D03*
X293500Y99224D02*
D03*
Y87413D02*
D03*
Y75602D02*
D03*
X124189Y131811D02*
D03*
X136000D02*
D03*
X147811D02*
D03*
X159622D02*
D03*
X171433D02*
D03*
X124189Y120000D02*
D03*
X136000D02*
D03*
X147811D02*
D03*
X159622D02*
D03*
X171433D02*
D03*
X248933Y119500D02*
D03*
X237122D02*
D03*
X225311D02*
D03*
D39*
X51378Y116488D02*
D03*
X98622D02*
D03*
X183244Y116299D02*
D03*
X112378D02*
D03*
D40*
X293500Y111035D02*
D03*
D41*
Y119500D02*
D03*
Y67138D02*
D03*
X257398Y119500D02*
D03*
X205035D02*
D03*
D42*
X40000Y120000D02*
D03*
X152185Y41000D02*
D03*
X40000Y20000D02*
D03*
X100000Y41000D02*
D03*
X40000Y80000D02*
D03*
D43*
X30000Y120000D02*
D03*
X142342Y41000D02*
D03*
X132500D02*
D03*
X270000Y20000D02*
D03*
X260000D02*
D03*
X250000D02*
D03*
X240000D02*
D03*
X230000D02*
D03*
X220000D02*
D03*
X210000D02*
D03*
X200000D02*
D03*
X190000D02*
D03*
X180000D02*
D03*
X170000D02*
D03*
X160000D02*
D03*
X150000D02*
D03*
X140000D02*
D03*
X130000D02*
D03*
X120000D02*
D03*
X110000D02*
D03*
X100000D02*
D03*
X90000D02*
D03*
X80000D02*
D03*
X70000D02*
D03*
X60000D02*
D03*
X50000D02*
D03*
X80315Y41000D02*
D03*
X90158D02*
D03*
X50000Y80000D02*
D03*
X60000D02*
D03*
X70000D02*
D03*
X80000D02*
D03*
X90000D02*
D03*
X100000D02*
D03*
X110000D02*
D03*
X120000D02*
D03*
X130000D02*
D03*
X140000D02*
D03*
X150000D02*
D03*
X160000D02*
D03*
X170000D02*
D03*
X180000D02*
D03*
X190000D02*
D03*
X200000D02*
D03*
X210000D02*
D03*
X220000D02*
D03*
X230000D02*
D03*
X240000D02*
D03*
X250000D02*
D03*
X260000D02*
D03*
X270000D02*
D03*
D44*
X297500Y12500D02*
D03*
Y137500D02*
D03*
X12500D02*
D03*
Y12500D02*
D03*
D45*
X213500Y119500D02*
D03*
D46*
X178000Y54500D02*
D03*
X165000D02*
D03*
X127000Y53500D02*
D03*
X190000Y69000D02*
D03*
X129000Y110000D02*
D03*
X120000Y92500D02*
D03*
X255000Y93000D02*
D03*
X228500Y93500D02*
D03*
X245000Y56500D02*
D03*
X234000Y57000D02*
D03*
X219500Y71000D02*
D03*
X279500Y22500D02*
D03*
X256500Y31000D02*
D03*
X288000Y54500D02*
D03*
X229000Y43500D02*
D03*
X207500Y58000D02*
D03*
X218500Y43000D02*
D03*
X227000Y66500D02*
D03*
X238500Y67000D02*
D03*
X249000Y66500D02*
D03*
X166000Y102500D02*
D03*
X142000Y103000D02*
D03*
X159000Y96000D02*
D03*
X136000D02*
D03*
X108500Y41000D02*
D03*
X115000Y64000D02*
D03*
M02*
