G04*
G04 #@! TF.GenerationSoftware,Altium Limited,Altium Designer,21.2.0 (30)*
G04*
G04 Layer_Physical_Order=2*
G04 Layer_Color=16711680*
%FSLAX23Y23*%
%MOIN*%
G70*
G04*
G04 #@! TF.SameCoordinates,F0910630-DBBB-4278-8751-63CB2971D6BE*
G04*
G04*
G04 #@! TF.FilePolarity,Positive*
G04*
G01*
G75*
%ADD15C,0.010*%
%ADD42C,0.050*%
%ADD44C,0.020*%
%ADD47C,0.059*%
%ADD48R,0.059X0.059*%
%ADD49C,0.125*%
%ADD50C,0.118*%
%ADD51R,0.060X0.060*%
%ADD52C,0.060*%
G36*
X2900Y100D02*
X200D01*
Y1400D01*
X2900D01*
Y100D01*
D02*
G37*
%LPC*%
G36*
X2588Y1353D02*
X2575D01*
X2563Y1351D01*
X2551Y1346D01*
X2540Y1339D01*
X2531Y1330D01*
X2524Y1319D01*
X2519Y1307D01*
X2517Y1295D01*
Y1282D01*
X2519Y1269D01*
X2524Y1257D01*
X2531Y1247D01*
X2540Y1238D01*
X2551Y1231D01*
X2563Y1226D01*
X2575Y1223D01*
X2588D01*
X2601Y1226D01*
X2613Y1231D01*
X2623Y1238D01*
X2632Y1247D01*
X2640Y1257D01*
X2644Y1269D01*
X2647Y1282D01*
Y1295D01*
X2644Y1307D01*
X2640Y1319D01*
X2632Y1330D01*
X2623Y1339D01*
X2613Y1346D01*
X2601Y1351D01*
X2588Y1353D01*
D02*
G37*
G36*
X1988D02*
X1975D01*
X1963Y1351D01*
X1951Y1346D01*
X1940Y1339D01*
X1931Y1330D01*
X1924Y1319D01*
X1919Y1307D01*
X1917Y1295D01*
Y1282D01*
X1919Y1269D01*
X1924Y1257D01*
X1931Y1247D01*
X1940Y1238D01*
X1951Y1231D01*
X1963Y1226D01*
X1975Y1223D01*
X1988D01*
X2001Y1226D01*
X2013Y1231D01*
X2023Y1238D01*
X2032Y1247D01*
X2040Y1257D01*
X2044Y1269D01*
X2047Y1282D01*
Y1295D01*
X2044Y1307D01*
X2040Y1319D01*
X2032Y1330D01*
X2023Y1339D01*
X2013Y1346D01*
X2001Y1351D01*
X1988Y1353D01*
D02*
G37*
G36*
X1388D02*
X1375D01*
X1363Y1351D01*
X1351Y1346D01*
X1340Y1339D01*
X1331Y1330D01*
X1324Y1319D01*
X1319Y1307D01*
X1317Y1295D01*
Y1282D01*
X1319Y1269D01*
X1324Y1257D01*
X1331Y1247D01*
X1340Y1238D01*
X1351Y1231D01*
X1363Y1226D01*
X1375Y1223D01*
X1388D01*
X1401Y1226D01*
X1413Y1231D01*
X1423Y1238D01*
X1432Y1247D01*
X1440Y1257D01*
X1444Y1269D01*
X1447Y1282D01*
Y1295D01*
X1444Y1307D01*
X1440Y1319D01*
X1432Y1330D01*
X1423Y1339D01*
X1413Y1346D01*
X1401Y1351D01*
X1388Y1353D01*
D02*
G37*
G36*
X788D02*
X775D01*
X763Y1351D01*
X751Y1346D01*
X740Y1339D01*
X731Y1330D01*
X724Y1319D01*
X719Y1307D01*
X717Y1295D01*
Y1282D01*
X719Y1269D01*
X724Y1257D01*
X731Y1247D01*
X740Y1238D01*
X751Y1231D01*
X763Y1226D01*
X775Y1223D01*
X788D01*
X801Y1226D01*
X813Y1231D01*
X823Y1238D01*
X832Y1247D01*
X840Y1257D01*
X844Y1269D01*
X847Y1282D01*
Y1295D01*
X844Y1307D01*
X840Y1319D01*
X832Y1330D01*
X823Y1339D01*
X813Y1346D01*
X801Y1351D01*
X788Y1353D01*
D02*
G37*
G36*
X415Y1165D02*
X380D01*
Y1130D01*
X415D01*
Y1165D01*
D02*
G37*
G36*
X370D02*
X335D01*
Y1130D01*
X370D01*
Y1165D01*
D02*
G37*
G36*
X2504Y1158D02*
X2469D01*
Y1123D01*
X2504D01*
Y1158D01*
D02*
G37*
G36*
X1904D02*
X1869D01*
Y1123D01*
X1904D01*
Y1158D01*
D02*
G37*
G36*
X704D02*
X669D01*
Y1123D01*
X704D01*
Y1158D01*
D02*
G37*
G36*
X1304D02*
X1269D01*
Y1123D01*
X1304D01*
Y1158D01*
D02*
G37*
G36*
X2705D02*
X2705D01*
Y1123D01*
X2740D01*
Y1123D01*
X2737Y1134D01*
X2732Y1143D01*
X2725Y1150D01*
X2715Y1155D01*
X2705Y1158D01*
D02*
G37*
G36*
X905D02*
X905D01*
Y1123D01*
X940D01*
Y1123D01*
X937Y1134D01*
X932Y1143D01*
X925Y1150D01*
X915Y1155D01*
X905Y1158D01*
D02*
G37*
G36*
X2105D02*
X2105D01*
Y1123D01*
X2140D01*
Y1123D01*
X2137Y1134D01*
X2132Y1143D01*
X2125Y1150D01*
X2115Y1155D01*
X2105Y1158D01*
D02*
G37*
G36*
X1505D02*
X1505D01*
Y1123D01*
X1540D01*
Y1123D01*
X1537Y1134D01*
X1532Y1143D01*
X1525Y1150D01*
X1515Y1155D01*
X1505Y1158D01*
D02*
G37*
G36*
X2587D02*
X2587D01*
Y1123D01*
X2622D01*
Y1123D01*
X2619Y1134D01*
X2614Y1143D01*
X2607Y1150D01*
X2597Y1155D01*
X2587Y1158D01*
D02*
G37*
G36*
X1387D02*
X1387D01*
Y1123D01*
X1422D01*
Y1123D01*
X1419Y1134D01*
X1414Y1143D01*
X1407Y1150D01*
X1397Y1155D01*
X1387Y1158D01*
D02*
G37*
G36*
X787D02*
X787D01*
Y1123D01*
X822D01*
Y1123D01*
X819Y1134D01*
X814Y1143D01*
X807Y1150D01*
X797Y1155D01*
X787Y1158D01*
D02*
G37*
G36*
X1987D02*
X1987D01*
Y1123D01*
X2022D01*
Y1123D01*
X2019Y1134D01*
X2014Y1143D01*
X2007Y1150D01*
X1997Y1155D01*
X1987Y1158D01*
D02*
G37*
G36*
X777D02*
X777D01*
X766Y1155D01*
X757Y1150D01*
X750Y1143D01*
X745Y1134D01*
X742Y1123D01*
Y1123D01*
X777D01*
Y1158D01*
D02*
G37*
G36*
X2577D02*
X2577D01*
X2566Y1155D01*
X2557Y1150D01*
X2550Y1143D01*
X2545Y1134D01*
X2542Y1123D01*
Y1123D01*
X2577D01*
Y1158D01*
D02*
G37*
G36*
X1377D02*
X1377D01*
X1366Y1155D01*
X1357Y1150D01*
X1350Y1143D01*
X1345Y1134D01*
X1342Y1123D01*
Y1123D01*
X1377D01*
Y1158D01*
D02*
G37*
G36*
X1977D02*
X1977D01*
X1966Y1155D01*
X1957Y1150D01*
X1950Y1143D01*
X1945Y1134D01*
X1942Y1123D01*
Y1123D01*
X1977D01*
Y1158D01*
D02*
G37*
G36*
X2695D02*
X2695D01*
X2685Y1155D01*
X2675Y1150D01*
X2668Y1143D01*
X2663Y1134D01*
X2660Y1123D01*
Y1123D01*
X2695D01*
Y1158D01*
D02*
G37*
G36*
X895D02*
X895D01*
X885Y1155D01*
X875Y1150D01*
X868Y1143D01*
X863Y1134D01*
X860Y1123D01*
Y1123D01*
X895D01*
Y1158D01*
D02*
G37*
G36*
X1495D02*
X1495D01*
X1485Y1155D01*
X1475Y1150D01*
X1468Y1143D01*
X1463Y1134D01*
X1460Y1123D01*
Y1123D01*
X1495D01*
Y1158D01*
D02*
G37*
G36*
X2095D02*
X2095D01*
X2085Y1155D01*
X2075Y1150D01*
X2068Y1143D01*
X2063Y1134D01*
X2060Y1123D01*
Y1123D01*
X2095D01*
Y1158D01*
D02*
G37*
G36*
X1859D02*
X1824D01*
Y1123D01*
X1859D01*
Y1158D01*
D02*
G37*
G36*
X2459D02*
X2424D01*
Y1123D01*
X2459D01*
Y1158D01*
D02*
G37*
G36*
X659D02*
X624D01*
Y1123D01*
X659D01*
Y1158D01*
D02*
G37*
G36*
X1259D02*
X1224D01*
Y1123D01*
X1259D01*
Y1158D01*
D02*
G37*
G36*
X280Y1161D02*
X270D01*
X261Y1158D01*
X253Y1153D01*
X247Y1147D01*
X242Y1139D01*
X239Y1130D01*
Y1120D01*
X242Y1111D01*
X247Y1103D01*
X253Y1097D01*
X261Y1092D01*
X270Y1089D01*
X280D01*
X289Y1092D01*
X297Y1097D01*
X303Y1103D01*
X308Y1111D01*
X311Y1120D01*
Y1130D01*
X308Y1139D01*
X303Y1147D01*
X297Y1153D01*
X289Y1158D01*
X280Y1161D01*
D02*
G37*
G36*
X415Y1120D02*
X380D01*
Y1085D01*
X415D01*
Y1120D01*
D02*
G37*
G36*
X370D02*
X335D01*
Y1085D01*
X370D01*
Y1120D01*
D02*
G37*
G36*
X2740Y1113D02*
X2705D01*
Y1078D01*
X2705D01*
X2715Y1081D01*
X2725Y1086D01*
X2732Y1093D01*
X2737Y1103D01*
X2740Y1113D01*
Y1113D01*
D02*
G37*
G36*
X2695D02*
X2660D01*
Y1113D01*
X2663Y1103D01*
X2668Y1093D01*
X2675Y1086D01*
X2685Y1081D01*
X2695Y1078D01*
X2695D01*
Y1113D01*
D02*
G37*
G36*
X2622D02*
X2587D01*
Y1078D01*
X2587D01*
X2597Y1081D01*
X2607Y1086D01*
X2614Y1093D01*
X2619Y1103D01*
X2622Y1113D01*
Y1113D01*
D02*
G37*
G36*
X2577D02*
X2542D01*
Y1113D01*
X2545Y1103D01*
X2550Y1093D01*
X2557Y1086D01*
X2566Y1081D01*
X2577Y1078D01*
X2577D01*
Y1113D01*
D02*
G37*
G36*
X2504D02*
X2469D01*
Y1078D01*
X2504D01*
Y1113D01*
D02*
G37*
G36*
X2459D02*
X2424D01*
Y1078D01*
X2459D01*
Y1113D01*
D02*
G37*
G36*
X2140D02*
X2105D01*
Y1078D01*
X2105D01*
X2115Y1081D01*
X2125Y1086D01*
X2132Y1093D01*
X2137Y1103D01*
X2140Y1113D01*
Y1113D01*
D02*
G37*
G36*
X2095D02*
X2060D01*
Y1113D01*
X2063Y1103D01*
X2068Y1093D01*
X2075Y1086D01*
X2085Y1081D01*
X2095Y1078D01*
X2095D01*
Y1113D01*
D02*
G37*
G36*
X2022D02*
X1987D01*
Y1078D01*
X1987D01*
X1997Y1081D01*
X2007Y1086D01*
X2014Y1093D01*
X2019Y1103D01*
X2022Y1113D01*
Y1113D01*
D02*
G37*
G36*
X1977D02*
X1942D01*
Y1113D01*
X1945Y1103D01*
X1950Y1093D01*
X1957Y1086D01*
X1966Y1081D01*
X1977Y1078D01*
X1977D01*
Y1113D01*
D02*
G37*
G36*
X1904D02*
X1869D01*
Y1078D01*
X1904D01*
Y1113D01*
D02*
G37*
G36*
X1859D02*
X1824D01*
Y1078D01*
X1859D01*
Y1113D01*
D02*
G37*
G36*
X1540D02*
X1505D01*
Y1078D01*
X1505D01*
X1515Y1081D01*
X1525Y1086D01*
X1532Y1093D01*
X1537Y1103D01*
X1540Y1113D01*
Y1113D01*
D02*
G37*
G36*
X1495D02*
X1460D01*
Y1113D01*
X1463Y1103D01*
X1468Y1093D01*
X1475Y1086D01*
X1485Y1081D01*
X1495Y1078D01*
X1495D01*
Y1113D01*
D02*
G37*
G36*
X1422D02*
X1387D01*
Y1078D01*
X1387D01*
X1397Y1081D01*
X1407Y1086D01*
X1414Y1093D01*
X1419Y1103D01*
X1422Y1113D01*
Y1113D01*
D02*
G37*
G36*
X1377D02*
X1342D01*
Y1113D01*
X1345Y1103D01*
X1350Y1093D01*
X1357Y1086D01*
X1366Y1081D01*
X1377Y1078D01*
X1377D01*
Y1113D01*
D02*
G37*
G36*
X1304D02*
X1269D01*
Y1078D01*
X1304D01*
Y1113D01*
D02*
G37*
G36*
X1259D02*
X1224D01*
Y1078D01*
X1259D01*
Y1113D01*
D02*
G37*
G36*
X940D02*
X905D01*
Y1078D01*
X905D01*
X915Y1081D01*
X925Y1086D01*
X932Y1093D01*
X937Y1103D01*
X940Y1113D01*
Y1113D01*
D02*
G37*
G36*
X895D02*
X860D01*
Y1113D01*
X863Y1103D01*
X868Y1093D01*
X875Y1086D01*
X885Y1081D01*
X895Y1078D01*
X895D01*
Y1113D01*
D02*
G37*
G36*
X822D02*
X787D01*
Y1078D01*
X787D01*
X797Y1081D01*
X807Y1086D01*
X814Y1093D01*
X819Y1103D01*
X822Y1113D01*
Y1113D01*
D02*
G37*
G36*
X777D02*
X742D01*
Y1113D01*
X745Y1103D01*
X750Y1093D01*
X757Y1086D01*
X766Y1081D01*
X777Y1078D01*
X777D01*
Y1113D01*
D02*
G37*
G36*
X704D02*
X669D01*
Y1078D01*
X704D01*
Y1113D01*
D02*
G37*
G36*
X659D02*
X624D01*
Y1078D01*
X659D01*
Y1113D01*
D02*
G37*
G36*
X1505Y1036D02*
X1495D01*
X1486Y1034D01*
X1478Y1029D01*
X1471Y1022D01*
X1466Y1014D01*
X1464Y1005D01*
Y995D01*
X1466Y986D01*
X1471Y978D01*
X1478Y971D01*
X1478Y971D01*
X1476Y966D01*
X1439D01*
X1416Y989D01*
X1418Y995D01*
Y1005D01*
X1416Y1014D01*
X1411Y1022D01*
X1404Y1029D01*
X1396Y1034D01*
X1387Y1036D01*
X1377D01*
X1368Y1034D01*
X1360Y1029D01*
X1353Y1022D01*
X1348Y1014D01*
X1346Y1005D01*
Y995D01*
X1348Y986D01*
X1353Y978D01*
X1360Y971D01*
X1368Y966D01*
X1377Y964D01*
X1387D01*
X1393Y966D01*
X1420Y938D01*
X1426Y935D01*
X1432Y934D01*
X1794D01*
X1879Y848D01*
X1884Y845D01*
X1891Y844D01*
X1943D01*
X1969Y818D01*
X1967Y814D01*
X1964Y805D01*
Y795D01*
X1967Y786D01*
X1972Y778D01*
X1978Y772D01*
X1986Y767D01*
X1995Y764D01*
X2005D01*
X2014Y767D01*
X2022Y772D01*
X2028Y778D01*
X2033Y786D01*
X2036Y795D01*
Y805D01*
X2033Y814D01*
X2028Y822D01*
X2022Y828D01*
X2014Y833D01*
X2005Y836D01*
X1997D01*
X1962Y871D01*
X1956Y875D01*
X1950Y876D01*
X1897D01*
X1812Y961D01*
X1807Y965D01*
X1801Y966D01*
X1524D01*
X1522Y971D01*
X1522Y971D01*
X1529Y978D01*
X1534Y986D01*
X1536Y995D01*
Y1005D01*
X1534Y1014D01*
X1529Y1022D01*
X1522Y1029D01*
X1514Y1034D01*
X1505Y1036D01*
D02*
G37*
G36*
X1269D02*
X1259D01*
X1250Y1034D01*
X1242Y1029D01*
X1235Y1022D01*
X1230Y1014D01*
X1228Y1005D01*
Y995D01*
X1230Y986D01*
X1235Y978D01*
X1242Y971D01*
X1241Y971D01*
X1240Y966D01*
X957D01*
X934Y989D01*
X936Y995D01*
Y1005D01*
X934Y1014D01*
X929Y1022D01*
X922Y1029D01*
X914Y1034D01*
X905Y1036D01*
X895D01*
X886Y1034D01*
X878Y1029D01*
X871Y1022D01*
X866Y1014D01*
X864Y1005D01*
Y995D01*
X866Y986D01*
X871Y978D01*
X878Y971D01*
X886Y966D01*
X895Y964D01*
X905D01*
X911Y966D01*
X939Y938D01*
X944Y935D01*
X950Y934D01*
X1263D01*
X1319Y878D01*
X1324Y875D01*
X1330Y874D01*
X1503D01*
X1566Y811D01*
X1564Y805D01*
Y795D01*
X1567Y786D01*
X1572Y778D01*
X1578Y772D01*
X1586Y767D01*
X1595Y764D01*
X1605D01*
X1611Y766D01*
X1670Y707D01*
X1669Y704D01*
Y696D01*
X1671Y688D01*
X1675Y681D01*
X1681Y675D01*
X1688Y671D01*
X1696Y669D01*
X1704D01*
X1712Y671D01*
X1719Y675D01*
X1725Y681D01*
X1729Y688D01*
X1731Y696D01*
Y704D01*
X1729Y712D01*
X1725Y719D01*
X1719Y725D01*
X1712Y729D01*
X1704Y731D01*
X1696D01*
X1693Y730D01*
X1634Y789D01*
X1636Y795D01*
Y805D01*
X1633Y814D01*
X1628Y822D01*
X1622Y828D01*
X1614Y833D01*
X1605Y836D01*
X1595D01*
X1589Y834D01*
X1522Y901D01*
X1516Y905D01*
X1510Y906D01*
X1337D01*
X1282Y961D01*
X1281Y962D01*
X1281Y968D01*
X1286Y971D01*
X1293Y978D01*
X1297Y986D01*
X1300Y995D01*
Y1005D01*
X1297Y1014D01*
X1293Y1022D01*
X1286Y1029D01*
X1278Y1034D01*
X1269Y1036D01*
D02*
G37*
G36*
X2705D02*
X2695D01*
X2686Y1034D01*
X2678Y1029D01*
X2671Y1022D01*
X2666Y1014D01*
X2664Y1005D01*
Y995D01*
X2666Y986D01*
X2671Y978D01*
X2678Y971D01*
X2686Y966D01*
X2695Y964D01*
X2705D01*
X2714Y966D01*
X2722Y971D01*
X2729Y978D01*
X2734Y986D01*
X2736Y995D01*
Y1005D01*
X2734Y1014D01*
X2729Y1022D01*
X2722Y1029D01*
X2714Y1034D01*
X2705Y1036D01*
D02*
G37*
G36*
X2469D02*
X2459D01*
X2450Y1034D01*
X2442Y1029D01*
X2435Y1022D01*
X2430Y1014D01*
X2428Y1005D01*
Y995D01*
X2430Y986D01*
X2435Y978D01*
X2442Y971D01*
X2450Y966D01*
X2459Y964D01*
X2469D01*
X2478Y966D01*
X2486Y971D01*
X2493Y978D01*
X2497Y986D01*
X2500Y995D01*
Y1005D01*
X2497Y1014D01*
X2493Y1022D01*
X2486Y1029D01*
X2478Y1034D01*
X2469Y1036D01*
D02*
G37*
G36*
X1987D02*
X1977D01*
X1968Y1034D01*
X1960Y1029D01*
X1953Y1022D01*
X1948Y1014D01*
X1946Y1005D01*
Y995D01*
X1948Y986D01*
X1953Y978D01*
X1960Y971D01*
X1968Y966D01*
X1977Y964D01*
X1987D01*
X1996Y966D01*
X2004Y971D01*
X2011Y978D01*
X2016Y986D01*
X2018Y995D01*
Y1005D01*
X2016Y1014D01*
X2011Y1022D01*
X2004Y1029D01*
X1996Y1034D01*
X1987Y1036D01*
D02*
G37*
G36*
X787D02*
X777D01*
X768Y1034D01*
X760Y1029D01*
X753Y1022D01*
X748Y1014D01*
X746Y1005D01*
Y995D01*
X748Y986D01*
X753Y978D01*
X760Y971D01*
X768Y966D01*
X777Y964D01*
X787D01*
X796Y966D01*
X804Y971D01*
X811Y978D01*
X816Y986D01*
X818Y995D01*
Y1005D01*
X816Y1014D01*
X811Y1022D01*
X804Y1029D01*
X796Y1034D01*
X787Y1036D01*
D02*
G37*
G36*
X385Y945D02*
Y915D01*
X415D01*
X413Y924D01*
X408Y931D01*
X401Y938D01*
X394Y943D01*
X385Y945D01*
D02*
G37*
G36*
X375D02*
X366Y943D01*
X359Y938D01*
X352Y931D01*
X347Y924D01*
X345Y915D01*
X375D01*
Y945D01*
D02*
G37*
G36*
X415Y905D02*
X385D01*
Y875D01*
X394Y877D01*
X401Y882D01*
X408Y889D01*
X413Y896D01*
X415Y905D01*
D02*
G37*
G36*
X375D02*
X345D01*
X347Y896D01*
X352Y889D01*
X359Y882D01*
X366Y877D01*
X375Y875D01*
Y905D01*
D02*
G37*
G36*
X1805Y840D02*
X1805D01*
Y805D01*
X1840D01*
Y805D01*
X1837Y815D01*
X1832Y824D01*
X1824Y832D01*
X1815Y837D01*
X1805Y840D01*
D02*
G37*
G36*
X1795D02*
X1795D01*
X1785Y837D01*
X1776Y832D01*
X1768Y824D01*
X1763Y815D01*
X1760Y805D01*
Y805D01*
X1795D01*
Y840D01*
D02*
G37*
G36*
X2705Y836D02*
X2695D01*
X2686Y833D01*
X2678Y828D01*
X2672Y822D01*
X2667Y814D01*
X2664Y805D01*
Y795D01*
X2667Y786D01*
X2672Y778D01*
X2678Y772D01*
X2686Y767D01*
X2695Y764D01*
X2705D01*
X2714Y767D01*
X2722Y772D01*
X2728Y778D01*
X2733Y786D01*
X2736Y795D01*
Y805D01*
X2733Y814D01*
X2728Y822D01*
X2722Y828D01*
X2714Y833D01*
X2705Y836D01*
D02*
G37*
G36*
X2587Y1036D02*
X2577D01*
X2568Y1034D01*
X2560Y1029D01*
X2553Y1022D01*
X2548Y1014D01*
X2546Y1005D01*
Y995D01*
X2548Y986D01*
X2553Y978D01*
X2560Y971D01*
X2566Y968D01*
Y918D01*
X2567Y912D01*
X2570Y907D01*
X2584Y893D01*
Y832D01*
X2578Y828D01*
X2572Y822D01*
X2567Y814D01*
X2564Y805D01*
Y795D01*
X2567Y786D01*
X2572Y778D01*
X2578Y772D01*
X2586Y767D01*
X2595Y764D01*
X2605D01*
X2614Y767D01*
X2622Y772D01*
X2628Y778D01*
X2633Y786D01*
X2636Y795D01*
Y805D01*
X2633Y814D01*
X2628Y822D01*
X2622Y828D01*
X2616Y832D01*
Y900D01*
X2615Y906D01*
X2612Y912D01*
X2598Y925D01*
Y968D01*
X2604Y971D01*
X2611Y978D01*
X2616Y986D01*
X2618Y995D01*
Y1005D01*
X2616Y1014D01*
X2611Y1022D01*
X2604Y1029D01*
X2596Y1034D01*
X2587Y1036D01*
D02*
G37*
G36*
X2505Y836D02*
X2495D01*
X2486Y833D01*
X2478Y828D01*
X2472Y822D01*
X2467Y814D01*
X2464Y805D01*
Y795D01*
X2467Y786D01*
X2472Y778D01*
X2478Y772D01*
X2486Y767D01*
X2495Y764D01*
X2505D01*
X2514Y767D01*
X2522Y772D01*
X2528Y778D01*
X2533Y786D01*
X2536Y795D01*
Y805D01*
X2533Y814D01*
X2528Y822D01*
X2522Y828D01*
X2514Y833D01*
X2505Y836D01*
D02*
G37*
G36*
X2105Y1036D02*
X2095D01*
X2086Y1034D01*
X2078Y1029D01*
X2071Y1022D01*
X2066Y1014D01*
X2064Y1005D01*
Y995D01*
X2066Y986D01*
X2071Y978D01*
X2078Y971D01*
X2086Y966D01*
X2095Y964D01*
X2105D01*
X2114Y966D01*
X2122Y971D01*
X2129Y978D01*
X2132Y984D01*
X2293D01*
X2384Y893D01*
Y832D01*
X2378Y828D01*
X2372Y822D01*
X2367Y814D01*
X2364Y805D01*
Y795D01*
X2367Y786D01*
X2372Y778D01*
X2378Y772D01*
X2386Y767D01*
X2395Y764D01*
X2405D01*
X2414Y767D01*
X2422Y772D01*
X2428Y778D01*
X2433Y786D01*
X2436Y795D01*
Y805D01*
X2433Y814D01*
X2428Y822D01*
X2422Y828D01*
X2416Y832D01*
Y900D01*
X2416Y900D01*
X2415Y906D01*
X2412Y912D01*
X2312Y1012D01*
X2306Y1015D01*
X2300Y1016D01*
X2132D01*
X2129Y1022D01*
X2122Y1029D01*
X2114Y1034D01*
X2105Y1036D01*
D02*
G37*
G36*
X2305Y836D02*
X2295D01*
X2286Y833D01*
X2278Y828D01*
X2272Y822D01*
X2267Y814D01*
X2264Y805D01*
Y795D01*
X2267Y786D01*
X2272Y778D01*
X2278Y772D01*
X2286Y767D01*
X2295Y764D01*
X2305D01*
X2314Y767D01*
X2322Y772D01*
X2328Y778D01*
X2333Y786D01*
X2336Y795D01*
Y805D01*
X2333Y814D01*
X2328Y822D01*
X2322Y828D01*
X2314Y833D01*
X2305Y836D01*
D02*
G37*
G36*
X1869Y1036D02*
X1859D01*
X1850Y1034D01*
X1842Y1029D01*
X1835Y1022D01*
X1830Y1014D01*
X1828Y1005D01*
Y995D01*
X1830Y986D01*
X1835Y978D01*
X1842Y971D01*
X1850Y966D01*
X1859Y964D01*
X1869D01*
X1875Y966D01*
X1932Y908D01*
X1938Y905D01*
X1944Y904D01*
X2143D01*
X2184Y863D01*
Y832D01*
X2178Y828D01*
X2172Y822D01*
X2167Y814D01*
X2164Y805D01*
Y795D01*
X2167Y786D01*
X2172Y778D01*
X2178Y772D01*
X2186Y767D01*
X2195Y764D01*
X2205D01*
X2214Y767D01*
X2222Y772D01*
X2228Y778D01*
X2233Y786D01*
X2236Y795D01*
Y805D01*
X2233Y814D01*
X2228Y822D01*
X2222Y828D01*
X2216Y832D01*
Y870D01*
X2215Y876D01*
X2212Y881D01*
X2162Y931D01*
X2156Y935D01*
X2150Y936D01*
X1951D01*
X1898Y989D01*
X1900Y995D01*
Y1005D01*
X1897Y1014D01*
X1893Y1022D01*
X1886Y1029D01*
X1878Y1034D01*
X1869Y1036D01*
D02*
G37*
G36*
X2105Y836D02*
X2095D01*
X2086Y833D01*
X2078Y828D01*
X2072Y822D01*
X2067Y814D01*
X2064Y805D01*
Y795D01*
X2067Y786D01*
X2072Y778D01*
X2078Y772D01*
X2086Y767D01*
X2095Y764D01*
X2105D01*
X2114Y767D01*
X2122Y772D01*
X2128Y778D01*
X2133Y786D01*
X2136Y795D01*
Y805D01*
X2133Y814D01*
X2128Y822D01*
X2122Y828D01*
X2114Y833D01*
X2105Y836D01*
D02*
G37*
G36*
X1905D02*
X1895D01*
X1886Y833D01*
X1878Y828D01*
X1872Y822D01*
X1867Y814D01*
X1864Y805D01*
Y795D01*
X1867Y786D01*
X1872Y778D01*
X1878Y772D01*
X1886Y767D01*
X1895Y764D01*
X1905D01*
X1914Y767D01*
X1922Y772D01*
X1928Y778D01*
X1933Y786D01*
X1936Y795D01*
Y805D01*
X1933Y814D01*
X1928Y822D01*
X1922Y828D01*
X1914Y833D01*
X1905Y836D01*
D02*
G37*
G36*
X1705D02*
X1695D01*
X1686Y833D01*
X1678Y828D01*
X1672Y822D01*
X1667Y814D01*
X1664Y805D01*
Y795D01*
X1667Y786D01*
X1672Y778D01*
X1678Y772D01*
X1686Y767D01*
X1695Y764D01*
X1705D01*
X1714Y767D01*
X1722Y772D01*
X1728Y778D01*
X1733Y786D01*
X1736Y795D01*
Y805D01*
X1733Y814D01*
X1728Y822D01*
X1722Y828D01*
X1714Y833D01*
X1705Y836D01*
D02*
G37*
G36*
X1505D02*
X1495D01*
X1486Y833D01*
X1478Y828D01*
X1472Y822D01*
X1467Y814D01*
X1464Y805D01*
Y795D01*
X1467Y786D01*
X1472Y778D01*
X1478Y772D01*
X1486Y767D01*
X1495Y764D01*
X1505D01*
X1514Y767D01*
X1522Y772D01*
X1528Y778D01*
X1533Y786D01*
X1536Y795D01*
Y805D01*
X1533Y814D01*
X1528Y822D01*
X1522Y828D01*
X1514Y833D01*
X1505Y836D01*
D02*
G37*
G36*
X669Y1036D02*
X659D01*
X650Y1034D01*
X642Y1029D01*
X635Y1022D01*
X630Y1014D01*
X628Y1005D01*
Y995D01*
X630Y986D01*
X635Y978D01*
X642Y971D01*
X650Y966D01*
X659Y964D01*
X669D01*
X675Y966D01*
X800Y841D01*
X798Y836D01*
X795D01*
X786Y833D01*
X778Y828D01*
X772Y822D01*
X767Y814D01*
X764Y805D01*
Y795D01*
X767Y786D01*
X772Y778D01*
X778Y772D01*
X786Y767D01*
X795Y764D01*
X805D01*
X814Y767D01*
X822Y772D01*
X828Y778D01*
X833Y786D01*
X836Y795D01*
Y805D01*
X833Y814D01*
X828Y822D01*
X822Y828D01*
X821Y829D01*
X823Y834D01*
X877D01*
X879Y829D01*
X878Y828D01*
X872Y822D01*
X867Y814D01*
X864Y805D01*
Y795D01*
X867Y786D01*
X872Y778D01*
X878Y772D01*
X886Y767D01*
X895Y764D01*
X905D01*
X914Y767D01*
X922Y772D01*
X928Y778D01*
X933Y786D01*
X936Y795D01*
Y805D01*
X933Y814D01*
X928Y822D01*
X922Y828D01*
X921Y829D01*
X923Y834D01*
X977D01*
X979Y829D01*
X978Y828D01*
X972Y822D01*
X967Y814D01*
X964Y805D01*
Y795D01*
X967Y786D01*
X972Y778D01*
X978Y772D01*
X986Y767D01*
X995Y764D01*
X1005D01*
X1014Y767D01*
X1022Y772D01*
X1028Y778D01*
X1033Y786D01*
X1036Y795D01*
Y805D01*
X1033Y814D01*
X1028Y822D01*
X1022Y828D01*
X1021Y829D01*
X1023Y834D01*
X1077D01*
X1079Y829D01*
X1078Y828D01*
X1072Y822D01*
X1067Y814D01*
X1064Y805D01*
Y795D01*
X1067Y786D01*
X1072Y778D01*
X1078Y772D01*
X1086Y767D01*
X1095Y764D01*
X1105D01*
X1109Y766D01*
X1132Y743D01*
X1131Y742D01*
X1129Y734D01*
Y726D01*
X1131Y718D01*
X1135Y711D01*
X1140Y706D01*
X1138Y701D01*
X1002D01*
X995Y700D01*
X990Y697D01*
X959Y665D01*
X952Y669D01*
X944Y671D01*
X936D01*
X928Y669D01*
X921Y665D01*
X915Y659D01*
X911Y652D01*
X909Y644D01*
Y636D01*
X911Y628D01*
X915Y621D01*
X921Y615D01*
X928Y611D01*
X936Y609D01*
X944D01*
X952Y611D01*
X959Y615D01*
X965Y621D01*
X969Y628D01*
X970Y631D01*
X974Y634D01*
X1008Y669D01*
X1170D01*
X1182Y657D01*
X1181Y654D01*
Y646D01*
X1183Y638D01*
X1187Y631D01*
X1193Y625D01*
X1200Y621D01*
X1208Y619D01*
X1216D01*
X1224Y621D01*
X1231Y625D01*
X1237Y631D01*
X1241Y638D01*
X1243Y646D01*
Y654D01*
X1241Y662D01*
X1237Y669D01*
X1231Y675D01*
X1224Y679D01*
X1216Y681D01*
X1208D01*
X1205Y680D01*
X1189Y697D01*
X1183Y700D01*
X1181Y701D01*
X1180Y703D01*
X1180Y706D01*
X1185Y711D01*
X1189Y718D01*
X1191Y726D01*
Y734D01*
X1189Y742D01*
X1185Y749D01*
X1179Y755D01*
X1172Y759D01*
X1164Y761D01*
X1156D01*
X1148Y759D01*
X1147Y758D01*
X1128Y778D01*
X1128Y778D01*
X1133Y786D01*
X1136Y795D01*
Y805D01*
X1133Y814D01*
X1128Y822D01*
X1122Y828D01*
X1121Y829D01*
X1123Y834D01*
X1177D01*
X1179Y829D01*
X1178Y828D01*
X1172Y822D01*
X1167Y814D01*
X1164Y805D01*
Y795D01*
X1167Y786D01*
X1172Y778D01*
X1178Y772D01*
X1186Y767D01*
X1195Y764D01*
X1205D01*
X1214Y767D01*
X1222Y772D01*
X1228Y778D01*
X1233Y786D01*
X1236Y795D01*
Y805D01*
X1233Y814D01*
X1228Y822D01*
X1222Y828D01*
X1221Y829D01*
X1223Y834D01*
X1277D01*
X1279Y829D01*
X1278Y828D01*
X1272Y822D01*
X1267Y814D01*
X1264Y805D01*
Y795D01*
X1267Y786D01*
X1272Y778D01*
X1278Y772D01*
X1286Y767D01*
X1295Y764D01*
X1305D01*
X1314Y767D01*
X1322Y772D01*
X1328Y778D01*
X1333Y786D01*
X1336Y795D01*
Y805D01*
X1333Y814D01*
X1328Y822D01*
X1322Y828D01*
X1321Y829D01*
X1323Y834D01*
X1343D01*
X1366Y811D01*
X1364Y805D01*
Y795D01*
X1367Y786D01*
X1372Y778D01*
X1378Y772D01*
X1386Y767D01*
X1395Y764D01*
X1405D01*
X1414Y767D01*
X1422Y772D01*
X1428Y778D01*
X1433Y786D01*
X1436Y795D01*
Y805D01*
X1433Y814D01*
X1428Y822D01*
X1422Y828D01*
X1414Y833D01*
X1405Y836D01*
X1395D01*
X1389Y834D01*
X1362Y862D01*
X1356Y865D01*
X1350Y866D01*
X821D01*
X698Y989D01*
X700Y995D01*
Y1005D01*
X697Y1014D01*
X693Y1022D01*
X686Y1029D01*
X678Y1034D01*
X669Y1036D01*
D02*
G37*
G36*
X705Y836D02*
X695D01*
X686Y833D01*
X678Y828D01*
X672Y822D01*
X667Y814D01*
X664Y805D01*
Y795D01*
X667Y786D01*
X672Y778D01*
X678Y772D01*
X686Y767D01*
X695Y764D01*
X705D01*
X714Y767D01*
X722Y772D01*
X728Y778D01*
X733Y786D01*
X736Y795D01*
Y805D01*
X733Y814D01*
X728Y822D01*
X722Y828D01*
X714Y833D01*
X705Y836D01*
D02*
G37*
G36*
X605D02*
X595D01*
X586Y833D01*
X578Y828D01*
X572Y822D01*
X567Y814D01*
X564Y805D01*
Y795D01*
X567Y786D01*
X572Y778D01*
X578Y772D01*
X586Y767D01*
X595Y764D01*
X605D01*
X614Y767D01*
X622Y772D01*
X628Y778D01*
X633Y786D01*
X636Y795D01*
Y805D01*
X633Y814D01*
X628Y822D01*
X622Y828D01*
X614Y833D01*
X605Y836D01*
D02*
G37*
G36*
X505D02*
X495D01*
X486Y833D01*
X478Y828D01*
X472Y822D01*
X467Y814D01*
X464Y805D01*
Y795D01*
X467Y786D01*
X472Y778D01*
X478Y772D01*
X486Y767D01*
X495Y764D01*
X505D01*
X514Y767D01*
X522Y772D01*
X528Y778D01*
X533Y786D01*
X536Y795D01*
Y805D01*
X533Y814D01*
X528Y822D01*
X522Y828D01*
X514Y833D01*
X505Y836D01*
D02*
G37*
G36*
X436D02*
X364D01*
Y764D01*
X436D01*
Y836D01*
D02*
G37*
G36*
X1840Y795D02*
X1805D01*
Y760D01*
X1805D01*
X1815Y763D01*
X1824Y768D01*
X1832Y776D01*
X1837Y785D01*
X1840Y795D01*
Y795D01*
D02*
G37*
G36*
X1795D02*
X1760D01*
Y795D01*
X1763Y785D01*
X1768Y776D01*
X1776Y768D01*
X1785Y763D01*
X1795Y760D01*
X1795D01*
Y795D01*
D02*
G37*
G36*
X530Y660D02*
Y630D01*
X560D01*
X558Y639D01*
X553Y646D01*
X546Y653D01*
X539Y658D01*
X530Y660D01*
D02*
G37*
G36*
X520D02*
X511Y658D01*
X504Y653D01*
X497Y646D01*
X492Y639D01*
X490Y630D01*
X520D01*
Y660D01*
D02*
G37*
G36*
X560Y620D02*
X530D01*
Y590D01*
X539Y592D01*
X546Y597D01*
X553Y604D01*
X558Y611D01*
X560Y620D01*
D02*
G37*
G36*
X520D02*
X490D01*
X492Y611D01*
X497Y604D01*
X504Y597D01*
X511Y592D01*
X520Y590D01*
Y620D01*
D02*
G37*
G36*
X1080Y510D02*
Y480D01*
X1110D01*
X1108Y489D01*
X1103Y496D01*
X1096Y503D01*
X1089Y508D01*
X1080Y510D01*
D02*
G37*
G36*
X1070D02*
X1061Y508D01*
X1054Y503D01*
X1047Y496D01*
X1042Y489D01*
X1040Y480D01*
X1070D01*
Y510D01*
D02*
G37*
G36*
X865Y485D02*
Y455D01*
X895D01*
X893Y464D01*
X888Y471D01*
X881Y478D01*
X874Y483D01*
X865Y485D01*
D02*
G37*
G36*
X855D02*
X846Y483D01*
X839Y478D01*
X832Y471D01*
X827Y464D01*
X825Y455D01*
X855D01*
Y485D01*
D02*
G37*
G36*
X1110Y470D02*
X1080D01*
Y440D01*
X1089Y442D01*
X1096Y447D01*
X1103Y454D01*
X1108Y461D01*
X1110Y470D01*
D02*
G37*
G36*
X1070D02*
X1040D01*
X1042Y461D01*
X1047Y454D01*
X1054Y447D01*
X1061Y442D01*
X1070Y440D01*
Y470D01*
D02*
G37*
G36*
X895Y445D02*
X865D01*
Y415D01*
X874Y417D01*
X881Y422D01*
X888Y429D01*
X893Y436D01*
X895Y445D01*
D02*
G37*
G36*
X855D02*
X825D01*
X827Y436D01*
X832Y429D01*
X839Y422D01*
X846Y417D01*
X855Y415D01*
Y445D01*
D02*
G37*
G36*
X844Y691D02*
X836D01*
X828Y689D01*
X821Y685D01*
X815Y679D01*
X811Y672D01*
X809Y664D01*
Y656D01*
X811Y648D01*
X815Y641D01*
X821Y635D01*
X828Y631D01*
X836Y629D01*
X844D01*
X852Y631D01*
X853Y632D01*
X860Y625D01*
X860Y625D01*
X863Y622D01*
X868Y621D01*
X868Y621D01*
X868D01*
X947Y542D01*
X947Y542D01*
X951Y540D01*
X955Y539D01*
X1226D01*
X1228Y534D01*
X1105Y410D01*
X1102Y407D01*
X1101Y403D01*
X1101Y403D01*
Y328D01*
X1094Y321D01*
X1094Y321D01*
X1086D01*
X1078Y319D01*
X1071Y315D01*
X1065Y309D01*
X1061Y302D01*
X1059Y294D01*
Y286D01*
X1061Y278D01*
X1065Y271D01*
X1071Y265D01*
X1078Y261D01*
X1086Y259D01*
X1094D01*
X1102Y261D01*
X1109Y265D01*
X1115Y271D01*
X1119Y278D01*
X1121Y286D01*
Y294D01*
X1119Y302D01*
X1115Y309D01*
X1114Y309D01*
X1120Y315D01*
X1123Y319D01*
X1123Y320D01*
X1129Y322D01*
X1136Y317D01*
X1145Y315D01*
Y350D01*
Y385D01*
X1136Y383D01*
X1129Y378D01*
X1126Y379D01*
X1124Y380D01*
Y398D01*
X1247Y522D01*
X1248Y521D01*
X1256Y519D01*
X1264D01*
X1272Y521D01*
X1273Y522D01*
X1312Y482D01*
X1312Y482D01*
X1316Y480D01*
X1320Y479D01*
X1320Y479D01*
X2187D01*
X2243Y423D01*
X2243Y422D01*
X2241Y414D01*
Y406D01*
X2243Y398D01*
X2247Y391D01*
X2253Y385D01*
X2260Y381D01*
X2268Y379D01*
X2276D01*
X2284Y381D01*
X2291Y385D01*
X2297Y391D01*
X2301Y398D01*
X2303Y406D01*
Y414D01*
X2301Y422D01*
X2297Y429D01*
X2291Y435D01*
X2284Y439D01*
X2276Y441D01*
X2268D01*
X2260Y439D01*
X2259Y438D01*
X2199Y499D01*
X2195Y501D01*
X2191Y502D01*
X2187Y501D01*
X2187Y501D01*
X1325D01*
X1288Y537D01*
X1289Y538D01*
X1291Y546D01*
Y554D01*
X1289Y562D01*
X1285Y569D01*
X1279Y575D01*
X1272Y579D01*
X1264Y581D01*
X1256D01*
X1248Y579D01*
X1241Y575D01*
X1235Y569D01*
X1231Y562D01*
X1231Y561D01*
X960D01*
X880Y640D01*
X877Y643D01*
X873Y644D01*
X873Y644D01*
X872D01*
X868Y647D01*
X869Y648D01*
X871Y656D01*
Y664D01*
X869Y672D01*
X865Y679D01*
X859Y685D01*
X852Y689D01*
X844Y691D01*
D02*
G37*
G36*
X1755Y385D02*
Y355D01*
X1785D01*
X1783Y364D01*
X1778Y371D01*
X1771Y378D01*
X1764Y383D01*
X1755Y385D01*
D02*
G37*
G36*
X1745D02*
X1736Y383D01*
X1729Y378D01*
X1722Y371D01*
X1717Y364D01*
X1715Y355D01*
X1745D01*
Y385D01*
D02*
G37*
G36*
X1155D02*
Y355D01*
X1185D01*
X1183Y364D01*
X1178Y371D01*
X1171Y378D01*
X1164Y383D01*
X1155Y385D01*
D02*
G37*
G36*
X1785Y345D02*
X1755D01*
Y315D01*
X1764Y317D01*
X1771Y322D01*
X1778Y329D01*
X1783Y336D01*
X1785Y345D01*
D02*
G37*
G36*
X1745D02*
X1715D01*
X1717Y336D01*
X1722Y329D01*
X1729Y322D01*
X1736Y317D01*
X1745Y315D01*
Y345D01*
D02*
G37*
G36*
X1185D02*
X1155D01*
Y315D01*
X1164Y317D01*
X1171Y322D01*
X1178Y329D01*
X1183Y336D01*
X1185Y345D01*
D02*
G37*
G36*
X1530Y320D02*
Y290D01*
X1560D01*
X1558Y299D01*
X1553Y306D01*
X1546Y313D01*
X1539Y318D01*
X1530Y320D01*
D02*
G37*
G36*
X1520D02*
X1511Y318D01*
X1504Y313D01*
X1497Y306D01*
X1492Y299D01*
X1490Y290D01*
X1520D01*
Y320D01*
D02*
G37*
G36*
X1380D02*
Y290D01*
X1410D01*
X1408Y299D01*
X1403Y306D01*
X1396Y313D01*
X1389Y318D01*
X1380Y320D01*
D02*
G37*
G36*
X1370D02*
X1361Y318D01*
X1354Y313D01*
X1347Y306D01*
X1342Y299D01*
X1340Y290D01*
X1370D01*
Y320D01*
D02*
G37*
G36*
X1560Y280D02*
X1530D01*
Y250D01*
X1539Y252D01*
X1546Y257D01*
X1553Y264D01*
X1558Y271D01*
X1560Y280D01*
D02*
G37*
G36*
X1520D02*
X1490D01*
X1492Y271D01*
X1497Y264D01*
X1504Y257D01*
X1511Y252D01*
X1520Y250D01*
Y280D01*
D02*
G37*
G36*
X1410D02*
X1380D01*
Y250D01*
X1389Y252D01*
X1396Y257D01*
X1403Y264D01*
X1408Y271D01*
X1410Y280D01*
D02*
G37*
G36*
X1370D02*
X1340D01*
X1342Y271D01*
X1347Y264D01*
X1354Y257D01*
X1361Y252D01*
X1370Y250D01*
Y280D01*
D02*
G37*
G36*
X440Y240D02*
X405D01*
Y205D01*
X440D01*
Y240D01*
D02*
G37*
G36*
X395D02*
X360D01*
Y205D01*
X395D01*
Y240D01*
D02*
G37*
G36*
X2705Y236D02*
X2695D01*
X2686Y233D01*
X2678Y228D01*
X2672Y222D01*
X2667Y214D01*
X2664Y205D01*
Y195D01*
X2667Y186D01*
X2672Y178D01*
X2678Y172D01*
X2686Y167D01*
X2695Y164D01*
X2705D01*
X2714Y167D01*
X2722Y172D01*
X2728Y178D01*
X2733Y186D01*
X2736Y195D01*
Y205D01*
X2733Y214D01*
X2728Y222D01*
X2722Y228D01*
X2714Y233D01*
X2705Y236D01*
D02*
G37*
G36*
X2605D02*
X2595D01*
X2586Y233D01*
X2578Y228D01*
X2572Y222D01*
X2567Y214D01*
X2564Y205D01*
Y195D01*
X2567Y186D01*
X2572Y178D01*
X2578Y172D01*
X2586Y167D01*
X2595Y164D01*
X2605D01*
X2614Y167D01*
X2622Y172D01*
X2628Y178D01*
X2633Y186D01*
X2636Y195D01*
Y205D01*
X2633Y214D01*
X2628Y222D01*
X2622Y228D01*
X2614Y233D01*
X2605Y236D01*
D02*
G37*
G36*
X2505D02*
X2495D01*
X2486Y233D01*
X2478Y228D01*
X2472Y222D01*
X2467Y214D01*
X2464Y205D01*
Y195D01*
X2467Y186D01*
X2472Y178D01*
X2478Y172D01*
X2486Y167D01*
X2495Y164D01*
X2505D01*
X2514Y167D01*
X2522Y172D01*
X2528Y178D01*
X2533Y186D01*
X2536Y195D01*
Y205D01*
X2533Y214D01*
X2528Y222D01*
X2522Y228D01*
X2514Y233D01*
X2505Y236D01*
D02*
G37*
G36*
X2405D02*
X2395D01*
X2386Y233D01*
X2378Y228D01*
X2372Y222D01*
X2367Y214D01*
X2364Y205D01*
Y195D01*
X2367Y186D01*
X2372Y178D01*
X2378Y172D01*
X2386Y167D01*
X2395Y164D01*
X2405D01*
X2414Y167D01*
X2422Y172D01*
X2428Y178D01*
X2433Y186D01*
X2436Y195D01*
Y205D01*
X2433Y214D01*
X2428Y222D01*
X2422Y228D01*
X2414Y233D01*
X2405Y236D01*
D02*
G37*
G36*
X2305D02*
X2295D01*
X2286Y233D01*
X2278Y228D01*
X2272Y222D01*
X2267Y214D01*
X2264Y205D01*
Y195D01*
X2267Y186D01*
X2272Y178D01*
X2278Y172D01*
X2286Y167D01*
X2295Y164D01*
X2305D01*
X2314Y167D01*
X2322Y172D01*
X2328Y178D01*
X2333Y186D01*
X2336Y195D01*
Y205D01*
X2333Y214D01*
X2328Y222D01*
X2322Y228D01*
X2314Y233D01*
X2305Y236D01*
D02*
G37*
G36*
X2205D02*
X2195D01*
X2186Y233D01*
X2178Y228D01*
X2172Y222D01*
X2167Y214D01*
X2164Y205D01*
Y195D01*
X2167Y186D01*
X2172Y178D01*
X2178Y172D01*
X2186Y167D01*
X2195Y164D01*
X2205D01*
X2214Y167D01*
X2222Y172D01*
X2228Y178D01*
X2233Y186D01*
X2236Y195D01*
Y205D01*
X2233Y214D01*
X2228Y222D01*
X2222Y228D01*
X2214Y233D01*
X2205Y236D01*
D02*
G37*
G36*
X2105D02*
X2095D01*
X2086Y233D01*
X2078Y228D01*
X2072Y222D01*
X2067Y214D01*
X2064Y205D01*
Y195D01*
X2067Y186D01*
X2072Y178D01*
X2078Y172D01*
X2086Y167D01*
X2095Y164D01*
X2105D01*
X2114Y167D01*
X2122Y172D01*
X2128Y178D01*
X2133Y186D01*
X2136Y195D01*
Y205D01*
X2133Y214D01*
X2128Y222D01*
X2122Y228D01*
X2114Y233D01*
X2105Y236D01*
D02*
G37*
G36*
X2005D02*
X1995D01*
X1986Y233D01*
X1978Y228D01*
X1972Y222D01*
X1967Y214D01*
X1964Y205D01*
Y195D01*
X1967Y186D01*
X1972Y178D01*
X1978Y172D01*
X1986Y167D01*
X1995Y164D01*
X2005D01*
X2014Y167D01*
X2022Y172D01*
X2028Y178D01*
X2033Y186D01*
X2036Y195D01*
Y205D01*
X2033Y214D01*
X2028Y222D01*
X2022Y228D01*
X2014Y233D01*
X2005Y236D01*
D02*
G37*
G36*
X1905D02*
X1895D01*
X1886Y233D01*
X1878Y228D01*
X1872Y222D01*
X1867Y214D01*
X1864Y205D01*
Y195D01*
X1867Y186D01*
X1872Y178D01*
X1878Y172D01*
X1886Y167D01*
X1895Y164D01*
X1905D01*
X1914Y167D01*
X1922Y172D01*
X1928Y178D01*
X1933Y186D01*
X1936Y195D01*
Y205D01*
X1933Y214D01*
X1928Y222D01*
X1922Y228D01*
X1914Y233D01*
X1905Y236D01*
D02*
G37*
G36*
X1805D02*
X1795D01*
X1786Y233D01*
X1778Y228D01*
X1772Y222D01*
X1767Y214D01*
X1764Y205D01*
Y195D01*
X1767Y186D01*
X1772Y178D01*
X1778Y172D01*
X1786Y167D01*
X1795Y164D01*
X1805D01*
X1814Y167D01*
X1822Y172D01*
X1828Y178D01*
X1833Y186D01*
X1836Y195D01*
Y205D01*
X1833Y214D01*
X1828Y222D01*
X1822Y228D01*
X1814Y233D01*
X1805Y236D01*
D02*
G37*
G36*
X1705D02*
X1695D01*
X1686Y233D01*
X1678Y228D01*
X1672Y222D01*
X1667Y214D01*
X1664Y205D01*
Y195D01*
X1667Y186D01*
X1672Y178D01*
X1678Y172D01*
X1686Y167D01*
X1695Y164D01*
X1705D01*
X1714Y167D01*
X1722Y172D01*
X1728Y178D01*
X1733Y186D01*
X1736Y195D01*
Y205D01*
X1733Y214D01*
X1728Y222D01*
X1722Y228D01*
X1714Y233D01*
X1705Y236D01*
D02*
G37*
G36*
X1605D02*
X1595D01*
X1586Y233D01*
X1578Y228D01*
X1572Y222D01*
X1567Y214D01*
X1564Y205D01*
Y195D01*
X1567Y186D01*
X1572Y178D01*
X1578Y172D01*
X1586Y167D01*
X1595Y164D01*
X1605D01*
X1614Y167D01*
X1622Y172D01*
X1628Y178D01*
X1633Y186D01*
X1636Y195D01*
Y205D01*
X1633Y214D01*
X1628Y222D01*
X1622Y228D01*
X1614Y233D01*
X1605Y236D01*
D02*
G37*
G36*
X1505D02*
X1495D01*
X1486Y233D01*
X1478Y228D01*
X1472Y222D01*
X1467Y214D01*
X1464Y205D01*
Y195D01*
X1467Y186D01*
X1472Y178D01*
X1478Y172D01*
X1486Y167D01*
X1495Y164D01*
X1505D01*
X1514Y167D01*
X1522Y172D01*
X1528Y178D01*
X1533Y186D01*
X1536Y195D01*
Y205D01*
X1533Y214D01*
X1528Y222D01*
X1522Y228D01*
X1514Y233D01*
X1505Y236D01*
D02*
G37*
G36*
X1405D02*
X1395D01*
X1386Y233D01*
X1378Y228D01*
X1372Y222D01*
X1367Y214D01*
X1364Y205D01*
Y195D01*
X1367Y186D01*
X1372Y178D01*
X1378Y172D01*
X1386Y167D01*
X1395Y164D01*
X1405D01*
X1414Y167D01*
X1422Y172D01*
X1428Y178D01*
X1433Y186D01*
X1436Y195D01*
Y205D01*
X1433Y214D01*
X1428Y222D01*
X1422Y228D01*
X1414Y233D01*
X1405Y236D01*
D02*
G37*
G36*
X1305D02*
X1295D01*
X1286Y233D01*
X1278Y228D01*
X1272Y222D01*
X1267Y214D01*
X1264Y205D01*
Y195D01*
X1267Y186D01*
X1272Y178D01*
X1278Y172D01*
X1286Y167D01*
X1295Y164D01*
X1305D01*
X1314Y167D01*
X1322Y172D01*
X1328Y178D01*
X1333Y186D01*
X1336Y195D01*
Y205D01*
X1333Y214D01*
X1328Y222D01*
X1322Y228D01*
X1314Y233D01*
X1305Y236D01*
D02*
G37*
G36*
X1205D02*
X1195D01*
X1186Y233D01*
X1178Y228D01*
X1172Y222D01*
X1167Y214D01*
X1164Y205D01*
Y195D01*
X1167Y186D01*
X1172Y178D01*
X1178Y172D01*
X1186Y167D01*
X1195Y164D01*
X1205D01*
X1214Y167D01*
X1222Y172D01*
X1228Y178D01*
X1233Y186D01*
X1236Y195D01*
Y205D01*
X1233Y214D01*
X1228Y222D01*
X1222Y228D01*
X1214Y233D01*
X1205Y236D01*
D02*
G37*
G36*
X1105D02*
X1095D01*
X1086Y233D01*
X1078Y228D01*
X1072Y222D01*
X1067Y214D01*
X1064Y205D01*
Y195D01*
X1067Y186D01*
X1072Y178D01*
X1078Y172D01*
X1086Y167D01*
X1095Y164D01*
X1105D01*
X1114Y167D01*
X1122Y172D01*
X1128Y178D01*
X1133Y186D01*
X1136Y195D01*
Y205D01*
X1133Y214D01*
X1128Y222D01*
X1122Y228D01*
X1114Y233D01*
X1105Y236D01*
D02*
G37*
G36*
X1005D02*
X995D01*
X986Y233D01*
X978Y228D01*
X972Y222D01*
X967Y214D01*
X964Y205D01*
Y195D01*
X967Y186D01*
X972Y178D01*
X978Y172D01*
X986Y167D01*
X995Y164D01*
X1005D01*
X1014Y167D01*
X1022Y172D01*
X1028Y178D01*
X1033Y186D01*
X1036Y195D01*
Y205D01*
X1033Y214D01*
X1028Y222D01*
X1022Y228D01*
X1014Y233D01*
X1005Y236D01*
D02*
G37*
G36*
X905D02*
X895D01*
X886Y233D01*
X878Y228D01*
X872Y222D01*
X867Y214D01*
X864Y205D01*
Y195D01*
X867Y186D01*
X872Y178D01*
X878Y172D01*
X886Y167D01*
X895Y164D01*
X905D01*
X914Y167D01*
X922Y172D01*
X928Y178D01*
X933Y186D01*
X936Y195D01*
Y205D01*
X933Y214D01*
X928Y222D01*
X922Y228D01*
X914Y233D01*
X905Y236D01*
D02*
G37*
G36*
X805D02*
X795D01*
X786Y233D01*
X778Y228D01*
X772Y222D01*
X767Y214D01*
X764Y205D01*
Y195D01*
X767Y186D01*
X772Y178D01*
X778Y172D01*
X786Y167D01*
X795Y164D01*
X805D01*
X814Y167D01*
X822Y172D01*
X828Y178D01*
X833Y186D01*
X836Y195D01*
Y205D01*
X833Y214D01*
X828Y222D01*
X822Y228D01*
X814Y233D01*
X805Y236D01*
D02*
G37*
G36*
X705D02*
X695D01*
X686Y233D01*
X678Y228D01*
X672Y222D01*
X667Y214D01*
X664Y205D01*
Y195D01*
X667Y186D01*
X672Y178D01*
X678Y172D01*
X686Y167D01*
X695Y164D01*
X705D01*
X714Y167D01*
X722Y172D01*
X728Y178D01*
X733Y186D01*
X736Y195D01*
Y205D01*
X733Y214D01*
X728Y222D01*
X722Y228D01*
X714Y233D01*
X705Y236D01*
D02*
G37*
G36*
X605D02*
X595D01*
X586Y233D01*
X578Y228D01*
X572Y222D01*
X567Y214D01*
X564Y205D01*
Y195D01*
X567Y186D01*
X572Y178D01*
X578Y172D01*
X586Y167D01*
X595Y164D01*
X605D01*
X614Y167D01*
X622Y172D01*
X628Y178D01*
X633Y186D01*
X636Y195D01*
Y205D01*
X633Y214D01*
X628Y222D01*
X622Y228D01*
X614Y233D01*
X605Y236D01*
D02*
G37*
G36*
X505D02*
X495D01*
X486Y233D01*
X478Y228D01*
X472Y222D01*
X467Y214D01*
X464Y205D01*
Y195D01*
X467Y186D01*
X472Y178D01*
X478Y172D01*
X486Y167D01*
X495Y164D01*
X505D01*
X514Y167D01*
X522Y172D01*
X528Y178D01*
X533Y186D01*
X536Y195D01*
Y205D01*
X533Y214D01*
X528Y222D01*
X522Y228D01*
X514Y233D01*
X505Y236D01*
D02*
G37*
G36*
X440Y195D02*
X405D01*
Y160D01*
X440D01*
Y195D01*
D02*
G37*
G36*
X395D02*
X360D01*
Y160D01*
X395D01*
Y195D01*
D02*
G37*
%LPD*%
D15*
X840Y660D02*
X868Y632D01*
X840Y660D02*
X840D01*
X868Y632D02*
X873D01*
X1090Y290D02*
Y301D01*
X1112Y403D02*
X1260Y550D01*
X1090Y301D02*
X1112Y323D01*
Y403D01*
X873Y632D02*
X955Y550D01*
X1260D01*
X2190Y490D02*
X2191Y491D01*
X2272Y410D01*
X1320Y490D02*
X2190D01*
X1260Y550D02*
X1320Y490D01*
X1100Y790D02*
X1160Y730D01*
X1160D01*
X1100Y790D02*
Y800D01*
D42*
X1150Y350D02*
D03*
X1260Y550D02*
D03*
X840Y660D02*
D03*
X1090Y290D02*
D03*
X1700Y700D02*
D03*
X2272Y410D02*
D03*
X860Y450D02*
D03*
X525Y625D02*
D03*
X940Y640D02*
D03*
X1212Y650D02*
D03*
X1075Y475D02*
D03*
X1160Y730D02*
D03*
X1750Y350D02*
D03*
X380Y910D02*
D03*
X1525Y285D02*
D03*
X1375D02*
D03*
D44*
X1510Y890D02*
X1700Y700D01*
X946Y646D02*
X962D01*
X1002Y685D02*
X1177D01*
X962Y646D02*
X1002Y685D01*
X1177D02*
X1212Y650D01*
X940Y640D02*
X946Y646D01*
X950Y950D02*
X1270D01*
X2582Y918D02*
X2600Y900D01*
Y800D02*
Y900D01*
X2582Y918D02*
Y1000D01*
X2400Y800D02*
Y900D01*
X2300Y1000D02*
X2400Y900D01*
X2100Y1000D02*
X2300D01*
X2200Y800D02*
Y870D01*
X2150Y920D02*
X2200Y870D01*
X1944Y920D02*
X2150D01*
X1864Y1000D02*
X1944Y920D01*
X1950Y860D02*
X2000Y810D01*
X1891Y860D02*
X1950D01*
X1801Y950D02*
X1891Y860D01*
X1432Y950D02*
X1801D01*
X1382Y1000D02*
X1432Y950D01*
X814Y850D02*
X1350D01*
X664Y1000D02*
X814Y850D01*
X1350D02*
X1400Y800D01*
X900Y1000D02*
X950Y950D01*
X1270D02*
X1330Y890D01*
X1510D01*
X664Y1000D02*
X664D01*
D47*
X500Y800D02*
D03*
X600D02*
D03*
X700D02*
D03*
X800D02*
D03*
X900D02*
D03*
X1000D02*
D03*
X1100D02*
D03*
X1200D02*
D03*
X1300D02*
D03*
X1400D02*
D03*
X1500D02*
D03*
X1600D02*
D03*
X1700D02*
D03*
X1800D02*
D03*
X1900D02*
D03*
X2000D02*
D03*
X2100D02*
D03*
X2200D02*
D03*
X2300D02*
D03*
X2400D02*
D03*
X2500D02*
D03*
X2600D02*
D03*
X2700D02*
D03*
Y200D02*
D03*
X2600D02*
D03*
X2500D02*
D03*
X2400D02*
D03*
X2300D02*
D03*
X2200D02*
D03*
X2100D02*
D03*
X2000D02*
D03*
X1900D02*
D03*
X1800D02*
D03*
X1700D02*
D03*
X1600D02*
D03*
X1500D02*
D03*
X1400D02*
D03*
X1300D02*
D03*
X1200D02*
D03*
X1100D02*
D03*
X1000D02*
D03*
X900D02*
D03*
X800D02*
D03*
X700D02*
D03*
X600D02*
D03*
X500D02*
D03*
X275Y1125D02*
D03*
D48*
X400Y800D02*
D03*
Y200D02*
D03*
X375Y1125D02*
D03*
D49*
X2975Y125D02*
D03*
Y1375D02*
D03*
X125Y125D02*
D03*
Y1375D02*
D03*
D50*
X2582Y1288D02*
D03*
X1982D02*
D03*
X1382D02*
D03*
X782D02*
D03*
D51*
X2464Y1118D02*
D03*
X1864D02*
D03*
X1264D02*
D03*
X664D02*
D03*
D52*
X2582D02*
D03*
X2464Y1000D02*
D03*
X2582D02*
D03*
X2700D02*
D03*
Y1118D02*
D03*
X1982D02*
D03*
X1864Y1000D02*
D03*
X1982D02*
D03*
X2100D02*
D03*
Y1118D02*
D03*
X1382D02*
D03*
X1264Y1000D02*
D03*
X1382D02*
D03*
X1500D02*
D03*
Y1118D02*
D03*
X782D02*
D03*
X664Y1000D02*
D03*
X782D02*
D03*
X900D02*
D03*
Y1118D02*
D03*
M02*
